<svg width="1644" height="698" viewBox="0 0 1644 698" fill="none" xmlns="http://www.w3.org/2000/svg">
<rect x="0.375" y="0.375" width="1643.25" height="697.25" rx="19.625" fill="#2A2D39"/>
<rect x="0.375" y="0.375" width="1643.25" height="697.25" rx="19.625" stroke="#F1EAE1" stroke-width="0.75"/>
<rect x="945" y="305" width="494" height="202" rx="20" fill="#F1EAE1"/>
<path d="M1082.17 388.125C1082.05 389.367 1081.76 390.498 1081.29 391.518C1080.82 392.525 1080.21 393.387 1079.45 394.102C1078.67 394.828 1077.75 395.391 1076.69 395.789C1075.63 396.176 1074.46 396.369 1073.17 396.369C1072.12 396.369 1071.14 396.229 1070.25 395.947C1069.38 395.654 1068.59 395.244 1067.9 394.717C1067.23 394.225 1066.64 393.633 1066.14 392.941C1065.65 392.238 1065.23 391.471 1064.89 390.639C1064.55 389.818 1064.29 388.928 1064.12 387.967C1063.96 387.006 1063.87 386.004 1063.87 384.961V381.463C1063.87 380.467 1063.96 379.506 1064.12 378.58C1064.28 377.654 1064.53 376.781 1064.86 375.961C1065.21 375.047 1065.66 374.221 1066.21 373.482C1066.77 372.732 1067.42 372.094 1068.14 371.566C1068.84 371.086 1069.6 370.711 1070.43 370.441C1071.27 370.172 1072.19 370.037 1073.19 370.037C1074.54 370.037 1075.74 370.236 1076.79 370.635C1077.86 371.033 1078.77 371.596 1079.52 372.322C1080.28 373.061 1080.88 373.951 1081.31 374.994C1081.76 376.037 1082.04 377.197 1082.17 378.475H1077.95C1077.88 377.713 1077.74 377.027 1077.51 376.418C1077.3 375.797 1077.01 375.27 1076.63 374.836C1076.25 374.402 1075.77 374.074 1075.21 373.852C1074.65 373.617 1073.97 373.5 1073.19 373.5C1072.64 373.5 1072.14 373.576 1071.7 373.729C1071.26 373.881 1070.88 374.098 1070.54 374.379C1070.07 374.719 1069.67 375.164 1069.36 375.715C1069.05 376.254 1068.8 376.857 1068.6 377.525C1068.45 378.111 1068.33 378.738 1068.25 379.406C1068.18 380.062 1068.14 380.736 1068.14 381.428V384.961C1068.14 385.816 1068.19 386.619 1068.29 387.369C1068.39 388.119 1068.55 388.805 1068.76 389.426C1068.92 389.941 1069.13 390.41 1069.38 390.832C1069.63 391.254 1069.94 391.617 1070.29 391.922C1070.65 392.25 1071.07 392.502 1071.54 392.678C1072.02 392.842 1072.56 392.924 1073.17 392.924C1073.9 392.924 1074.54 392.818 1075.11 392.607C1075.67 392.396 1076.15 392.086 1076.55 391.676C1076.93 391.277 1077.24 390.779 1077.48 390.182C1077.71 389.584 1077.87 388.898 1077.94 388.125H1082.17ZM1095.11 386.068H1090.79V396H1086.57V370.406H1094.69C1096.01 370.418 1097.23 370.588 1098.34 370.916C1099.46 371.244 1100.42 371.725 1101.23 372.357C1102.02 373.002 1102.64 373.805 1103.09 374.766C1103.54 375.715 1103.76 376.828 1103.76 378.105C1103.76 378.984 1103.64 379.781 1103.41 380.496C1103.18 381.211 1102.87 381.855 1102.46 382.43C1102.05 383.004 1101.55 383.508 1100.98 383.941C1100.41 384.375 1099.77 384.75 1099.06 385.066L1104.53 395.771V396H1100.01L1095.11 386.068ZM1090.79 382.623H1094.74C1095.49 382.611 1096.16 382.5 1096.76 382.289C1097.37 382.066 1097.89 381.75 1098.31 381.34C1098.68 380.988 1098.98 380.555 1099.19 380.039C1099.4 379.523 1099.5 378.938 1099.5 378.281C1099.5 377.543 1099.39 376.898 1099.15 376.348C1098.93 375.785 1098.6 375.316 1098.15 374.941C1097.74 374.59 1097.24 374.326 1096.66 374.15C1096.07 373.963 1095.41 373.863 1094.69 373.852H1090.79V382.623ZM1116.38 382.641L1121.74 370.406H1126.45L1118.44 386.859L1118.4 396H1114.27L1114.25 386.736L1106.31 370.406H1111L1116.38 382.641ZM1134.29 386.244V396H1130.07V370.406H1138.63C1139.92 370.418 1141.11 370.611 1142.18 370.986C1143.27 371.361 1144.21 371.895 1145 372.586C1145.78 373.277 1146.39 374.115 1146.82 375.1C1147.26 376.084 1147.47 377.191 1147.47 378.422C1147.47 379.605 1147.26 380.678 1146.82 381.639C1146.39 382.588 1145.78 383.402 1145 384.082C1144.21 384.773 1143.27 385.307 1142.18 385.682C1141.11 386.057 1139.92 386.244 1138.63 386.244H1134.29ZM1134.29 382.799H1138.63C1139.35 382.787 1139.99 382.676 1140.55 382.465C1141.12 382.242 1141.61 381.938 1142.01 381.551C1142.41 381.164 1142.71 380.707 1142.9 380.18C1143.12 379.652 1143.22 379.078 1143.22 378.457C1143.22 377.777 1143.12 377.162 1142.9 376.611C1142.71 376.049 1142.41 375.562 1142.01 375.152C1141.61 374.742 1141.12 374.426 1140.55 374.203C1139.99 373.98 1139.35 373.863 1138.63 373.852H1134.29V382.799ZM1169.54 373.904H1161.64V396H1157.44V373.904H1149.6V370.406H1169.54V373.904ZM1190.35 384.908C1190.35 385.939 1190.25 386.936 1190.07 387.896C1189.89 388.857 1189.63 389.766 1189.29 390.621C1188.93 391.477 1188.48 392.268 1187.94 392.994C1187.4 393.709 1186.78 394.324 1186.08 394.84C1185.4 395.309 1184.64 395.678 1183.81 395.947C1182.99 396.217 1182.09 396.352 1181.1 396.352C1180.08 396.352 1179.14 396.211 1178.29 395.93C1177.45 395.637 1176.69 395.238 1176.02 394.734C1175.34 394.219 1174.74 393.598 1174.23 392.871C1173.72 392.145 1173.3 391.348 1172.96 390.48C1172.63 389.648 1172.39 388.764 1172.22 387.826C1172.06 386.877 1171.98 385.904 1171.98 384.908V381.533C1171.98 380.49 1172.07 379.482 1172.24 378.51C1172.42 377.537 1172.68 376.617 1173.03 375.75C1173.37 374.918 1173.79 374.156 1174.28 373.465C1174.79 372.762 1175.38 372.152 1176.06 371.637C1176.71 371.133 1177.46 370.746 1178.29 370.477C1179.13 370.195 1180.06 370.055 1181.07 370.055C1182.09 370.055 1183.02 370.195 1183.88 370.477C1184.73 370.758 1185.5 371.15 1186.18 371.654C1186.86 372.158 1187.45 372.75 1187.96 373.43C1188.46 374.109 1188.88 374.854 1189.22 375.662C1189.6 376.529 1189.88 377.461 1190.07 378.457C1190.25 379.441 1190.35 380.467 1190.35 381.533V384.908ZM1186.09 381.498C1186.08 380.854 1186.04 380.221 1185.97 379.6C1185.91 378.979 1185.81 378.387 1185.65 377.824C1185.48 377.18 1185.24 376.594 1184.95 376.066C1184.67 375.527 1184.32 375.07 1183.91 374.695C1183.55 374.367 1183.13 374.109 1182.67 373.922C1182.2 373.734 1181.66 373.641 1181.07 373.641C1180.49 373.641 1179.98 373.734 1179.52 373.922C1179.06 374.098 1178.66 374.344 1178.32 374.66C1177.91 375.047 1177.57 375.51 1177.29 376.049C1177.01 376.576 1176.79 377.168 1176.64 377.824C1176.5 378.387 1176.39 378.984 1176.32 379.617C1176.26 380.238 1176.23 380.865 1176.23 381.498V384.908C1176.23 385.529 1176.26 386.145 1176.32 386.754C1176.38 387.363 1176.48 387.949 1176.62 388.512C1176.77 389.145 1176.98 389.736 1177.23 390.287C1177.5 390.826 1177.83 391.283 1178.2 391.658C1178.56 392.01 1178.98 392.291 1179.45 392.502C1179.93 392.701 1180.48 392.801 1181.1 392.801C1181.7 392.801 1182.24 392.701 1182.72 392.502C1183.21 392.303 1183.63 392.033 1183.98 391.693C1184.39 391.307 1184.73 390.85 1185 390.322C1185.29 389.783 1185.51 389.191 1185.67 388.547C1185.81 387.984 1185.91 387.398 1185.97 386.789C1186.04 386.168 1186.08 385.541 1186.09 384.908V381.498ZM1211.78 392.854C1211.42 393.275 1211 393.686 1210.49 394.084C1209.99 394.471 1209.42 394.816 1208.79 395.121C1207.99 395.508 1207.12 395.807 1206.19 396.018C1205.25 396.24 1204.25 396.352 1203.18 396.352C1202.2 396.352 1201.28 396.223 1200.42 395.965C1199.56 395.707 1198.79 395.344 1198.1 394.875C1197.41 394.406 1196.79 393.838 1196.24 393.17C1195.7 392.502 1195.25 391.758 1194.88 390.938C1194.47 390.082 1194.16 389.139 1193.95 388.107C1193.74 387.076 1193.63 385.992 1193.62 384.855V381.586C1193.63 380.484 1193.73 379.43 1193.92 378.422C1194.12 377.414 1194.4 376.482 1194.78 375.627C1195.14 374.818 1195.57 374.08 1196.08 373.412C1196.58 372.744 1197.16 372.164 1197.8 371.672C1198.5 371.156 1199.28 370.758 1200.12 370.477C1200.98 370.195 1201.9 370.055 1202.9 370.055C1204.25 370.055 1205.44 370.236 1206.48 370.6C1207.53 370.963 1208.42 371.484 1209.16 372.164C1209.91 372.855 1210.5 373.693 1210.93 374.678C1211.37 375.65 1211.64 376.746 1211.76 377.965H1207.61C1207.5 377.297 1207.35 376.693 1207.13 376.154C1206.92 375.604 1206.64 375.141 1206.29 374.766C1205.92 374.367 1205.45 374.062 1204.9 373.852C1204.36 373.641 1203.72 373.535 1202.99 373.535C1202.45 373.535 1201.95 373.629 1201.49 373.816C1201.04 373.992 1200.62 374.238 1200.26 374.555C1199.84 374.918 1199.47 375.369 1199.15 375.908C1198.85 376.436 1198.6 377.027 1198.4 377.684C1198.22 378.258 1198.09 378.873 1198.01 379.529C1197.93 380.186 1197.89 380.859 1197.89 381.551V384.855C1197.89 385.664 1197.94 386.432 1198.05 387.158C1198.16 387.885 1198.33 388.559 1198.56 389.18C1198.73 389.648 1198.94 390.088 1199.17 390.498C1199.42 390.908 1199.71 391.271 1200.03 391.588C1200.44 391.998 1200.92 392.314 1201.46 392.537C1202.01 392.76 1202.63 392.877 1203.32 392.889C1203.73 392.889 1204.15 392.865 1204.57 392.818C1204.99 392.76 1205.39 392.672 1205.78 392.555C1206.16 392.438 1206.5 392.291 1206.82 392.115C1207.13 391.928 1207.39 391.711 1207.57 391.465L1207.59 386.35H1202.95V383.062H1211.74L1211.78 392.854ZM1224.84 386.068H1220.51V396H1216.29V370.406H1224.41C1225.74 370.418 1226.96 370.588 1228.07 370.916C1229.18 371.244 1230.14 371.725 1230.95 372.357C1231.75 373.002 1232.37 373.805 1232.82 374.766C1233.26 375.715 1233.48 376.828 1233.48 378.105C1233.48 378.984 1233.37 379.781 1233.13 380.496C1232.91 381.211 1232.59 381.855 1232.18 382.43C1231.77 383.004 1231.28 383.508 1230.71 383.941C1230.13 384.375 1229.49 384.75 1228.79 385.066L1234.26 395.771V396H1229.74L1224.84 386.068ZM1220.51 382.623H1224.47C1225.22 382.611 1225.89 382.5 1226.49 382.289C1227.1 382.066 1227.61 381.75 1228.04 381.34C1228.41 380.988 1228.7 380.555 1228.91 380.039C1229.12 379.523 1229.23 378.938 1229.23 378.281C1229.23 377.543 1229.11 376.898 1228.88 376.348C1228.66 375.785 1228.32 375.316 1227.88 374.941C1227.47 374.59 1226.97 374.326 1226.38 374.15C1225.8 373.963 1225.14 373.863 1224.41 373.852H1220.51V382.623ZM1250.29 390.111H1242.26L1240.52 396H1236.12L1244.45 370.406H1248.2L1256.39 396H1252.01L1250.29 390.111ZM1243.33 386.49H1249.25L1246.32 376.365L1243.33 386.49ZM1264.02 386.244V396H1259.8V370.406H1268.36C1269.65 370.418 1270.83 370.611 1271.91 370.986C1273 371.361 1273.94 371.895 1274.72 372.586C1275.51 373.277 1276.12 374.115 1276.55 375.1C1276.98 376.084 1277.2 377.191 1277.2 378.422C1277.2 379.605 1276.98 380.678 1276.55 381.639C1276.12 382.588 1275.51 383.402 1274.72 384.082C1273.94 384.773 1273 385.307 1271.91 385.682C1270.83 386.057 1269.65 386.244 1268.36 386.244H1264.02ZM1264.02 382.799H1268.36C1269.07 382.787 1269.71 382.676 1270.28 382.465C1270.85 382.242 1271.34 381.938 1271.73 381.551C1272.13 381.164 1272.43 380.707 1272.63 380.18C1272.84 379.652 1272.95 379.078 1272.95 378.457C1272.95 377.777 1272.84 377.162 1272.63 376.611C1272.43 376.049 1272.13 375.562 1271.73 375.152C1271.34 374.742 1270.85 374.426 1270.28 374.203C1269.71 373.98 1269.07 373.863 1268.36 373.852H1264.02V382.799ZM1297.64 396H1293.51V384.592H1284.9V396H1280.79V370.406H1284.9V381.111H1293.51V370.406H1297.64V396ZM1310.97 382.641L1316.33 370.406H1321.04L1313.03 386.859L1312.99 396H1308.86L1308.84 386.736L1300.9 370.406H1305.59L1310.97 382.641ZM1091.05 433.244V443H1086.83V417.406H1095.39C1096.68 417.418 1097.86 417.611 1098.94 417.986C1100.03 418.361 1100.97 418.895 1101.75 419.586C1102.54 420.277 1103.15 421.115 1103.58 422.1C1104.02 423.084 1104.23 424.191 1104.23 425.422C1104.23 426.605 1104.02 427.678 1103.58 428.639C1103.15 429.588 1102.54 430.402 1101.75 431.082C1100.97 431.773 1100.03 432.307 1098.94 432.682C1097.86 433.057 1096.68 433.244 1095.39 433.244H1091.05ZM1091.05 429.799H1095.39C1096.11 429.787 1096.74 429.676 1097.31 429.465C1097.88 429.242 1098.37 428.938 1098.77 428.551C1099.16 428.164 1099.46 427.707 1099.66 427.18C1099.87 426.652 1099.98 426.078 1099.98 425.457C1099.98 424.777 1099.87 424.162 1099.66 423.611C1099.46 423.049 1099.16 422.562 1098.77 422.152C1098.37 421.742 1097.88 421.426 1097.31 421.203C1096.74 420.98 1096.11 420.863 1095.39 420.852H1091.05V429.799ZM1116.73 433.068H1112.41V443H1108.19V417.406H1116.31C1117.63 417.418 1118.85 417.588 1119.96 417.916C1121.08 418.244 1122.04 418.725 1122.85 419.357C1123.64 420.002 1124.27 420.805 1124.71 421.766C1125.16 422.715 1125.38 423.828 1125.38 425.105C1125.38 425.984 1125.26 426.781 1125.03 427.496C1124.8 428.211 1124.49 428.855 1124.08 429.43C1123.67 430.004 1123.18 430.508 1122.6 430.941C1122.03 431.375 1121.39 431.75 1120.69 432.066L1126.15 442.771V443H1121.63L1116.73 433.068ZM1112.41 429.623H1116.36C1117.11 429.611 1117.79 429.5 1118.38 429.289C1118.99 429.066 1119.51 428.75 1119.93 428.34C1120.3 427.988 1120.6 427.555 1120.81 427.039C1121.02 426.523 1121.12 425.938 1121.12 425.281C1121.12 424.543 1121.01 423.898 1120.77 423.348C1120.55 422.785 1120.22 422.316 1119.77 421.941C1119.36 421.59 1118.86 421.326 1118.28 421.15C1117.69 420.963 1117.04 420.863 1116.31 420.852H1112.41V429.623ZM1130.39 417.406H1145.47V420.904H1140V439.52H1145.47V443H1130.39V439.52H1135.73V420.904H1130.39V417.406ZM1156.39 417.406L1159.55 428.357L1163.05 417.406H1168.3V443H1164.33V434.316L1164.58 422.891L1160.64 435.107H1158.44L1154.88 423.312L1155.1 434.316V443H1151.15V417.406H1156.39ZM1173.63 417.406H1188.71V420.904H1183.25V439.52H1188.71V443H1173.63V439.52H1178.97V420.904H1173.63V417.406ZM1212.78 420.904H1204.88V443H1200.68V420.904H1192.84V417.406H1212.78V420.904ZM1216.87 417.406H1231.96V420.904H1226.49V439.52H1231.96V443H1216.87V439.52H1222.22V420.904H1216.87V417.406ZM1243.96 443L1236.09 417.406H1240.71L1245.58 435.125L1246 436.654L1246.44 435.107L1251.34 417.406H1255.95L1248.07 443H1243.96ZM1274.53 431.521H1263.95V439.52H1276.3V443H1259.71V417.406H1276.22V420.904H1263.95V428.111H1274.53V431.521ZM1294.45 436.408C1294.45 435.811 1294.32 435.283 1294.08 434.826C1293.83 434.369 1293.48 433.959 1293.04 433.596C1292.57 433.256 1292.01 432.951 1291.37 432.682C1290.74 432.4 1290.03 432.148 1289.24 431.926C1288.04 431.586 1286.92 431.17 1285.9 430.678C1284.89 430.174 1284.03 429.611 1283.32 428.99C1282.6 428.357 1282.04 427.643 1281.63 426.846C1281.23 426.037 1281.03 425.129 1281.03 424.121C1281.03 423.031 1281.27 422.053 1281.74 421.186C1282.21 420.307 1282.84 419.557 1283.63 418.936C1284.43 418.326 1285.36 417.863 1286.41 417.547C1287.48 417.219 1288.6 417.055 1289.77 417.055C1291.01 417.055 1292.17 417.248 1293.23 417.635C1294.31 418.01 1295.25 418.537 1296.04 419.217C1296.84 419.908 1297.47 420.734 1297.93 421.695C1298.39 422.645 1298.63 423.699 1298.63 424.859H1294.45C1294.39 424.215 1294.25 423.629 1294.02 423.102C1293.81 422.562 1293.51 422.1 1293.13 421.713C1292.73 421.338 1292.24 421.045 1291.67 420.834C1291.11 420.611 1290.46 420.5 1289.72 420.5C1289.07 420.5 1288.47 420.588 1287.92 420.764C1287.38 420.928 1286.92 421.162 1286.52 421.467C1286.12 421.783 1285.81 422.164 1285.59 422.609C1285.36 423.055 1285.25 423.553 1285.25 424.104C1285.26 424.689 1285.42 425.205 1285.71 425.65C1286 426.084 1286.39 426.465 1286.89 426.793C1287.39 427.121 1287.96 427.408 1288.61 427.654C1289.27 427.9 1289.95 428.129 1290.67 428.34C1291.57 428.598 1292.45 428.92 1293.3 429.307C1294.17 429.682 1294.97 430.139 1295.69 430.678C1296.6 431.357 1297.32 432.172 1297.86 433.121C1298.41 434.059 1298.68 435.143 1298.68 436.373C1298.68 437.51 1298.44 438.512 1297.96 439.379C1297.49 440.246 1296.86 440.967 1296.06 441.541C1295.25 442.139 1294.32 442.59 1293.25 442.895C1292.18 443.188 1291.06 443.334 1289.88 443.334C1288.62 443.334 1287.38 443.141 1286.17 442.754C1284.95 442.355 1283.89 441.781 1282.98 441.031C1282.15 440.328 1281.49 439.502 1281 438.553C1280.52 437.604 1280.27 436.514 1280.26 435.283H1284.48C1284.54 436.068 1284.7 436.754 1284.97 437.34C1285.25 437.914 1285.63 438.389 1286.11 438.764C1286.58 439.15 1287.13 439.438 1287.77 439.625C1288.41 439.812 1289.11 439.906 1289.88 439.906C1290.52 439.906 1291.12 439.83 1291.67 439.678C1292.23 439.525 1292.72 439.297 1293.13 438.992C1293.53 438.699 1293.84 438.336 1294.08 437.902C1294.32 437.469 1294.45 436.971 1294.45 436.408Z" fill="#2A2D39"/>
<path d="M387.395 182V140.316H371.075V134.4H410.447V140.316H394.127V182H387.395ZM436.145 145.62C439.092 145.62 441.676 146.187 443.897 147.32C446.164 148.453 447.932 150.176 449.201 152.488C450.47 154.8 451.105 157.724 451.105 161.26V182H444.577V162.008C444.577 158.517 443.716 155.888 441.993 154.12C440.316 152.352 437.936 151.468 434.853 151.468C432.541 151.468 430.524 151.921 428.801 152.828C427.078 153.735 425.741 155.072 424.789 156.84C423.882 158.608 423.429 160.807 423.429 163.436V182H416.901V131.544H423.429V155.684L422.137 153.1C423.316 150.743 425.129 148.907 427.577 147.592C430.025 146.277 432.881 145.62 436.145 145.62ZM479.234 182.408C475.381 182.408 471.981 181.615 469.034 180.028C466.133 178.441 463.866 176.265 462.234 173.5C460.647 170.735 459.854 167.561 459.854 163.98C459.854 160.399 460.625 157.225 462.166 154.46C463.753 151.695 465.906 149.541 468.626 148C471.391 146.413 474.497 145.62 477.942 145.62C481.433 145.62 484.515 146.391 487.19 147.932C489.865 149.473 491.95 151.649 493.446 154.46C494.987 157.225 495.758 160.467 495.758 164.184C495.758 164.456 495.735 164.773 495.69 165.136C495.69 165.499 495.667 165.839 495.622 166.156H464.954V161.464H492.222L489.57 163.096C489.615 160.784 489.139 158.721 488.142 156.908C487.145 155.095 485.762 153.689 483.994 152.692C482.271 151.649 480.254 151.128 477.942 151.128C475.675 151.128 473.658 151.649 471.89 152.692C470.122 153.689 468.739 155.117 467.742 156.976C466.745 158.789 466.246 160.875 466.246 163.232V164.32C466.246 166.723 466.79 168.876 467.878 170.78C469.011 172.639 470.575 174.089 472.57 175.132C474.565 176.175 476.854 176.696 479.438 176.696C481.569 176.696 483.495 176.333 485.218 175.608C486.986 174.883 488.527 173.795 489.842 172.344L493.446 176.56C491.814 178.464 489.774 179.915 487.326 180.912C484.923 181.909 482.226 182.408 479.234 182.408ZM545.456 182V174.384L545.116 172.956V159.968C545.116 157.203 544.3 155.072 542.668 153.576C541.082 152.035 538.679 151.264 535.46 151.264C533.33 151.264 531.244 151.627 529.204 152.352C527.164 153.032 525.442 153.961 524.036 155.14L521.316 150.244C523.175 148.748 525.396 147.615 527.98 146.844C530.61 146.028 533.352 145.62 536.208 145.62C541.15 145.62 544.958 146.821 547.632 149.224C550.307 151.627 551.644 155.299 551.644 160.24V182H545.456ZM533.624 182.408C530.95 182.408 528.592 181.955 526.552 181.048C524.558 180.141 523.016 178.895 521.928 177.308C520.84 175.676 520.296 173.84 520.296 171.8C520.296 169.851 520.75 168.083 521.656 166.496C522.608 164.909 524.127 163.64 526.212 162.688C528.343 161.736 531.199 161.26 534.78 161.26H546.204V165.952H535.052C531.788 165.952 529.59 166.496 528.456 167.584C527.323 168.672 526.756 169.987 526.756 171.528C526.756 173.296 527.459 174.724 528.864 175.812C530.27 176.855 532.219 177.376 534.712 177.376C537.16 177.376 539.291 176.832 541.104 175.744C542.963 174.656 544.3 173.069 545.116 170.984L546.408 175.472C545.547 177.603 544.028 179.303 541.852 180.572C539.676 181.796 536.934 182.408 533.624 182.408ZM563.725 182V145.96H570.253V182H563.725ZM566.989 139.024C565.72 139.024 564.654 138.616 563.793 137.8C562.977 136.984 562.569 135.987 562.569 134.808C562.569 133.584 562.977 132.564 563.793 131.748C564.654 130.932 565.72 130.524 566.989 130.524C568.258 130.524 569.301 130.932 570.117 131.748C570.978 132.519 571.409 133.493 571.409 134.672C571.409 135.896 571.001 136.939 570.185 137.8C569.369 138.616 568.304 139.024 566.989 139.024ZM627.801 145.62C630.703 145.62 633.264 146.187 635.485 147.32C637.707 148.453 639.429 150.176 640.653 152.488C641.923 154.8 642.557 157.724 642.557 161.26V182H636.029V162.008C636.029 158.517 635.213 155.888 633.581 154.12C631.949 152.352 629.66 151.468 626.713 151.468C624.537 151.468 622.633 151.921 621.001 152.828C619.369 153.735 618.1 155.072 617.193 156.84C616.332 158.608 615.901 160.807 615.901 163.436V182H609.373V162.008C609.373 158.517 608.557 155.888 606.925 154.12C605.339 152.352 603.049 151.468 600.057 151.468C597.927 151.468 596.045 151.921 594.413 152.828C592.781 153.735 591.512 155.072 590.605 156.84C589.699 158.608 589.245 160.807 589.245 163.436V182H582.717V145.96H588.973V155.548L587.953 153.1C589.087 150.743 590.832 148.907 593.189 147.592C595.547 146.277 598.289 145.62 601.417 145.62C604.863 145.62 607.832 146.481 610.325 148.204C612.819 149.881 614.451 152.443 615.221 155.888L612.569 154.8C613.657 152.035 615.561 149.813 618.281 148.136C621.001 146.459 624.175 145.62 627.801 145.62ZM688.267 182.408C684.64 182.408 681.421 181.615 678.611 180.028C675.8 178.441 673.579 176.265 671.947 173.5C670.315 170.689 669.499 167.516 669.499 163.98C669.499 160.399 670.315 157.225 671.947 154.46C673.579 151.695 675.8 149.541 678.611 148C681.421 146.413 684.64 145.62 688.267 145.62C691.848 145.62 695.044 146.413 697.855 148C700.711 149.541 702.932 151.695 704.519 154.46C706.151 157.18 706.967 160.353 706.967 163.98C706.967 167.561 706.151 170.735 704.519 173.5C702.932 176.265 700.711 178.441 697.855 180.028C695.044 181.615 691.848 182.408 688.267 182.408ZM688.267 176.696C690.579 176.696 692.641 176.175 694.455 175.132C696.313 174.089 697.764 172.616 698.807 170.712C699.849 168.763 700.371 166.519 700.371 163.98C700.371 161.396 699.849 159.175 698.807 157.316C697.764 155.412 696.313 153.939 694.455 152.896C692.641 151.853 690.579 151.332 688.267 151.332C685.955 151.332 683.892 151.853 682.079 152.896C680.265 153.939 678.815 155.412 677.727 157.316C676.639 159.175 676.095 161.396 676.095 163.98C676.095 166.519 676.639 168.763 677.727 170.712C678.815 172.616 680.265 174.089 682.079 175.132C683.892 176.175 685.955 176.696 688.267 176.696ZM716.947 182V142.764C716.947 139.228 717.967 136.417 720.007 134.332C722.092 132.201 725.039 131.136 728.847 131.136C730.252 131.136 731.589 131.317 732.859 131.68C734.173 131.997 735.284 132.519 736.191 133.244L734.219 138.208C733.539 137.664 732.768 137.256 731.907 136.984C731.045 136.667 730.139 136.508 729.187 136.508C727.283 136.508 725.832 137.052 724.835 138.14C723.837 139.183 723.339 140.747 723.339 142.832V147.66L723.475 150.652V182H716.947ZM710.827 151.332V145.96H733.811V151.332H710.827ZM770.605 182.408C766.978 182.408 764.168 181.433 762.173 179.484C760.178 177.535 759.181 174.747 759.181 171.12V138.072H765.709V170.848C765.709 172.797 766.185 174.293 767.137 175.336C768.134 176.379 769.54 176.9 771.353 176.9C773.393 176.9 775.093 176.333 776.453 175.2L778.493 179.892C777.496 180.753 776.294 181.388 774.889 181.796C773.529 182.204 772.101 182.408 770.605 182.408ZM753.061 151.332V145.96H776.045V151.332H753.061ZM805.629 145.62C808.576 145.62 811.16 146.187 813.381 147.32C815.648 148.453 817.416 150.176 818.685 152.488C819.955 154.8 820.589 157.724 820.589 161.26V182H814.061V162.008C814.061 158.517 813.2 155.888 811.477 154.12C809.8 152.352 807.42 151.468 804.337 151.468C802.025 151.468 800.008 151.921 798.285 152.828C796.563 153.735 795.225 155.072 794.273 156.84C793.367 158.608 792.913 160.807 792.913 163.436V182H786.385V131.544H792.913V155.684L791.621 153.1C792.8 150.743 794.613 148.907 797.061 147.592C799.509 146.277 802.365 145.62 805.629 145.62ZM832.67 182V145.96H839.198V182H832.67ZM835.934 139.024C834.665 139.024 833.6 138.616 832.738 137.8C831.922 136.984 831.514 135.987 831.514 134.808C831.514 133.584 831.922 132.564 832.738 131.748C833.6 130.932 834.665 130.524 835.934 130.524C837.204 130.524 838.246 130.932 839.062 131.748C839.924 132.519 840.354 133.493 840.354 134.672C840.354 135.896 839.946 136.939 839.13 137.8C838.314 138.616 837.249 139.024 835.934 139.024ZM861.999 182.408C859.007 182.408 856.151 182 853.431 181.184C850.756 180.368 848.648 179.371 847.107 178.192L849.827 173.024C851.368 174.067 853.272 174.951 855.539 175.676C857.805 176.401 860.117 176.764 862.475 176.764C865.512 176.764 867.688 176.333 869.003 175.472C870.363 174.611 871.043 173.409 871.043 171.868C871.043 170.735 870.635 169.851 869.819 169.216C869.003 168.581 867.915 168.105 866.555 167.788C865.24 167.471 863.767 167.199 862.135 166.972C860.503 166.7 858.871 166.383 857.239 166.02C855.607 165.612 854.111 165.068 852.751 164.388C851.391 163.663 850.303 162.688 849.487 161.464C848.671 160.195 848.263 158.517 848.263 156.432C848.263 154.256 848.875 152.352 850.099 150.72C851.323 149.088 853.045 147.841 855.267 146.98C857.533 146.073 860.208 145.62 863.291 145.62C865.648 145.62 868.028 145.915 870.431 146.504C872.879 147.048 874.873 147.841 876.415 148.884L873.627 154.052C871.995 152.964 870.295 152.216 868.527 151.808C866.759 151.4 864.991 151.196 863.223 151.196C860.367 151.196 858.236 151.672 856.831 152.624C855.425 153.531 854.723 154.709 854.723 156.16C854.723 157.384 855.131 158.336 855.947 159.016C856.808 159.651 857.896 160.149 859.211 160.512C860.571 160.875 862.067 161.192 863.699 161.464C865.331 161.691 866.963 162.008 868.595 162.416C870.227 162.779 871.7 163.3 873.015 163.98C874.375 164.66 875.463 165.612 876.279 166.836C877.14 168.06 877.571 169.692 877.571 171.732C877.571 173.908 876.936 175.789 875.667 177.376C874.397 178.963 872.607 180.209 870.295 181.116C867.983 181.977 865.217 182.408 861.999 182.408ZM926.363 182V174.384L926.023 172.956V159.968C926.023 157.203 925.207 155.072 923.575 153.576C921.988 152.035 919.585 151.264 916.367 151.264C914.236 151.264 912.151 151.627 910.111 152.352C908.071 153.032 906.348 153.961 904.943 155.14L902.223 150.244C904.081 148.748 906.303 147.615 908.887 146.844C911.516 146.028 914.259 145.62 917.115 145.62C922.056 145.62 925.864 146.821 928.539 149.224C931.213 151.627 932.551 155.299 932.551 160.24V182H926.363ZM914.531 182.408C911.856 182.408 909.499 181.955 907.459 181.048C905.464 180.141 903.923 178.895 902.835 177.308C901.747 175.676 901.203 173.84 901.203 171.8C901.203 169.851 901.656 168.083 902.563 166.496C903.515 164.909 905.033 163.64 907.119 162.688C909.249 161.736 912.105 161.26 915.687 161.26H927.111V165.952H915.959C912.695 165.952 910.496 166.496 909.363 167.584C908.229 168.672 907.663 169.987 907.663 171.528C907.663 173.296 908.365 174.724 909.771 175.812C911.176 176.855 913.125 177.376 915.619 177.376C918.067 177.376 920.197 176.832 922.011 175.744C923.869 174.656 925.207 173.069 926.023 170.984L927.315 175.472C926.453 177.603 924.935 179.303 922.759 180.572C920.583 181.796 917.84 182.408 914.531 182.408ZM944.631 182V145.96H950.887V155.752L950.275 153.304C951.273 150.811 952.95 148.907 955.307 147.592C957.665 146.277 960.566 145.62 964.011 145.62V151.944C963.739 151.899 963.467 151.876 963.195 151.876C962.969 151.876 962.742 151.876 962.515 151.876C959.025 151.876 956.259 152.919 954.219 155.004C952.179 157.089 951.159 160.104 951.159 164.048V182H944.631ZM985.894 182.408C982.267 182.408 979.457 181.433 977.462 179.484C975.467 177.535 974.47 174.747 974.47 171.12V138.072H980.998V170.848C980.998 172.797 981.474 174.293 982.426 175.336C983.423 176.379 984.829 176.9 986.642 176.9C988.682 176.9 990.382 176.333 991.742 175.2L993.782 179.892C992.785 180.753 991.583 181.388 990.178 181.796C988.818 182.204 987.39 182.408 985.894 182.408ZM968.35 151.332V145.96H991.334V151.332H968.35ZM1001.67 182V145.96H1008.2V182H1001.67ZM1004.94 139.024C1003.67 139.024 1002.6 138.616 1001.74 137.8C1000.93 136.984 1000.52 135.987 1000.52 134.808C1000.52 133.584 1000.93 132.564 1001.74 131.748C1002.6 130.932 1003.67 130.524 1004.94 130.524C1006.21 130.524 1007.25 130.932 1008.07 131.748C1008.93 132.519 1009.36 133.493 1009.36 134.672C1009.36 135.896 1008.95 136.939 1008.13 137.8C1007.32 138.616 1006.25 139.024 1004.94 139.024ZM1036.37 182.408C1032.7 182.408 1029.42 181.615 1026.51 180.028C1023.66 178.441 1021.41 176.265 1019.78 173.5C1018.15 170.735 1017.33 167.561 1017.33 163.98C1017.33 160.399 1018.15 157.225 1019.78 154.46C1021.41 151.695 1023.66 149.541 1026.51 148C1029.42 146.413 1032.7 145.62 1036.37 145.62C1039.64 145.62 1042.54 146.277 1045.08 147.592C1047.66 148.861 1049.66 150.765 1051.06 153.304L1046.1 156.5C1044.92 154.732 1043.47 153.44 1041.75 152.624C1040.07 151.763 1038.26 151.332 1036.31 151.332C1033.95 151.332 1031.84 151.853 1029.98 152.896C1028.12 153.939 1026.65 155.412 1025.56 157.316C1024.47 159.175 1023.93 161.396 1023.93 163.98C1023.93 166.564 1024.47 168.808 1025.56 170.712C1026.65 172.616 1028.12 174.089 1029.98 175.132C1031.84 176.175 1033.95 176.696 1036.31 176.696C1038.26 176.696 1040.07 176.288 1041.75 175.472C1043.47 174.611 1044.92 173.296 1046.1 171.528L1051.06 174.656C1049.66 177.149 1047.66 179.076 1045.08 180.436C1042.54 181.751 1039.64 182.408 1036.37 182.408ZM1059.05 182V131.544H1065.58V182H1059.05ZM1094.09 182.408C1090.24 182.408 1086.84 181.615 1083.89 180.028C1080.99 178.441 1078.72 176.265 1077.09 173.5C1075.5 170.735 1074.71 167.561 1074.71 163.98C1074.71 160.399 1075.48 157.225 1077.02 154.46C1078.61 151.695 1080.76 149.541 1083.48 148C1086.25 146.413 1089.35 145.62 1092.8 145.62C1096.29 145.62 1099.37 146.391 1102.05 147.932C1104.72 149.473 1106.81 151.649 1108.3 154.46C1109.84 157.225 1110.61 160.467 1110.61 164.184C1110.61 164.456 1110.59 164.773 1110.55 165.136C1110.55 165.499 1110.52 165.839 1110.48 166.156H1079.81V161.464H1107.08L1104.43 163.096C1104.47 160.784 1103.99 158.721 1103 156.908C1102 155.095 1100.62 153.689 1098.85 152.692C1097.13 151.649 1095.11 151.128 1092.8 151.128C1090.53 151.128 1088.51 151.649 1086.75 152.692C1084.98 153.689 1083.59 155.117 1082.6 156.976C1081.6 158.789 1081.1 160.875 1081.1 163.232V164.32C1081.1 166.723 1081.65 168.876 1082.73 170.78C1083.87 172.639 1085.43 174.089 1087.43 175.132C1089.42 176.175 1091.71 176.696 1094.29 176.696C1096.42 176.696 1098.35 176.333 1100.07 175.608C1101.84 174.883 1103.38 173.795 1104.7 172.344L1108.3 176.56C1106.67 178.464 1104.63 179.915 1102.18 180.912C1099.78 181.909 1097.08 182.408 1094.09 182.408ZM1137.94 182V145.96H1144.47V182H1137.94ZM1141.2 139.024C1139.93 139.024 1138.87 138.616 1138.01 137.8C1137.19 136.984 1136.78 135.987 1136.78 134.808C1136.78 133.584 1137.19 132.564 1138.01 131.748C1138.87 130.932 1139.93 130.524 1141.2 130.524C1142.47 130.524 1143.52 130.932 1144.33 131.748C1145.19 132.519 1145.62 133.493 1145.62 134.672C1145.62 135.896 1145.22 136.939 1144.4 137.8C1143.58 138.616 1142.52 139.024 1141.2 139.024ZM1167.27 182.408C1164.28 182.408 1161.42 182 1158.7 181.184C1156.03 180.368 1153.92 179.371 1152.38 178.192L1155.1 173.024C1156.64 174.067 1158.54 174.951 1160.81 175.676C1163.07 176.401 1165.39 176.764 1167.74 176.764C1170.78 176.764 1172.96 176.333 1174.27 175.472C1175.63 174.611 1176.31 173.409 1176.31 171.868C1176.31 170.735 1175.9 169.851 1175.09 169.216C1174.27 168.581 1173.18 168.105 1171.82 167.788C1170.51 167.471 1169.04 167.199 1167.4 166.972C1165.77 166.7 1164.14 166.383 1162.51 166.02C1160.88 165.612 1159.38 165.068 1158.02 164.388C1156.66 163.663 1155.57 162.688 1154.76 161.464C1153.94 160.195 1153.53 158.517 1153.53 156.432C1153.53 154.256 1154.14 152.352 1155.37 150.72C1156.59 149.088 1158.31 147.841 1160.54 146.98C1162.8 146.073 1165.48 145.62 1168.56 145.62C1170.92 145.62 1173.3 145.915 1175.7 146.504C1178.15 147.048 1180.14 147.841 1181.68 148.884L1178.9 154.052C1177.26 152.964 1175.56 152.216 1173.8 151.808C1172.03 151.4 1170.26 151.196 1168.49 151.196C1165.64 151.196 1163.51 151.672 1162.1 152.624C1160.69 153.531 1159.99 154.709 1159.99 156.16C1159.99 157.384 1160.4 158.336 1161.22 159.016C1162.08 159.651 1163.17 160.149 1164.48 160.512C1165.84 160.875 1167.34 161.192 1168.97 161.464C1170.6 161.691 1172.23 162.008 1173.86 162.416C1175.5 162.779 1176.97 163.3 1178.28 163.98C1179.64 164.66 1180.73 165.612 1181.55 166.836C1182.41 168.06 1182.84 169.692 1182.84 171.732C1182.84 173.908 1182.21 175.789 1180.94 177.376C1179.67 178.963 1177.88 180.209 1175.56 181.116C1173.25 181.977 1170.49 182.408 1167.27 182.408ZM1221.64 182.408C1218.01 182.408 1215.2 181.433 1213.2 179.484C1211.21 177.535 1210.21 174.747 1210.21 171.12V138.072H1216.74V170.848C1216.74 172.797 1217.22 174.293 1218.17 175.336C1219.17 176.379 1220.57 176.9 1222.38 176.9C1224.42 176.9 1226.12 176.333 1227.48 175.2L1229.52 179.892C1228.53 180.753 1227.33 181.388 1225.92 181.796C1224.56 182.204 1223.13 182.408 1221.64 182.408ZM1204.09 151.332V145.96H1227.08V151.332H1204.09ZM1251.66 182.408C1248.03 182.408 1244.81 181.615 1242 180.028C1239.19 178.441 1236.97 176.265 1235.34 173.5C1233.71 170.689 1232.89 167.516 1232.89 163.98C1232.89 160.399 1233.71 157.225 1235.34 154.46C1236.97 151.695 1239.19 149.541 1242 148C1244.81 146.413 1248.03 145.62 1251.66 145.62C1255.24 145.62 1258.43 146.413 1261.25 148C1264.1 149.541 1266.32 151.695 1267.91 154.46C1269.54 157.18 1270.36 160.353 1270.36 163.98C1270.36 167.561 1269.54 170.735 1267.91 173.5C1266.32 176.265 1264.1 178.441 1261.25 180.028C1258.43 181.615 1255.24 182.408 1251.66 182.408ZM1251.66 176.696C1253.97 176.696 1256.03 176.175 1257.85 175.132C1259.7 174.089 1261.15 172.616 1262.2 170.712C1263.24 168.763 1263.76 166.519 1263.76 163.98C1263.76 161.396 1263.24 159.175 1262.2 157.316C1261.15 155.412 1259.7 153.939 1257.85 152.896C1256.03 151.853 1253.97 151.332 1251.66 151.332C1249.35 151.332 1247.28 151.853 1245.47 152.896C1243.66 153.939 1242.21 155.412 1241.12 157.316C1240.03 159.175 1239.49 161.396 1239.49 163.98C1239.49 166.519 1240.03 168.763 1241.12 170.712C1242.21 172.616 1243.66 174.089 1245.47 175.132C1247.28 176.175 1249.35 176.696 1251.66 176.696ZM427.184 254.408C424.101 254.408 421.381 253.841 419.024 252.708C416.712 251.575 414.899 249.852 413.584 247.54C412.315 245.183 411.68 242.236 411.68 238.7V217.96H418.208V237.952C418.208 241.488 419.047 244.14 420.724 245.908C422.447 247.676 424.849 248.56 427.932 248.56C430.199 248.56 432.171 248.107 433.848 247.2C435.525 246.248 436.817 244.888 437.724 243.12C438.631 241.307 439.084 239.131 439.084 236.592V217.96H445.612V254H439.424V244.276L440.444 246.86C439.265 249.263 437.497 251.121 435.14 252.436C432.783 253.751 430.131 254.408 427.184 254.408ZM477.284 217.62C480.23 217.62 482.814 218.187 485.036 219.32C487.302 220.453 489.07 222.176 490.34 224.488C491.609 226.8 492.244 229.724 492.244 233.26V254H485.716V234.008C485.716 230.517 484.854 227.888 483.132 226.12C481.454 224.352 479.074 223.468 475.992 223.468C473.68 223.468 471.662 223.921 469.94 224.828C468.217 225.735 466.88 227.072 465.928 228.84C465.021 230.608 464.568 232.807 464.568 235.436V254H458.04V217.96H464.296V227.684L463.276 225.1C464.454 222.743 466.268 220.907 468.716 219.592C471.164 218.277 474.02 217.62 477.284 217.62ZM519.217 254.408C515.726 254.408 512.598 253.637 509.833 252.096C507.113 250.555 504.959 248.401 503.373 245.636C501.786 242.871 500.993 239.652 500.993 235.98C500.993 232.308 501.786 229.112 503.373 226.392C504.959 223.627 507.113 221.473 509.833 219.932C512.598 218.391 515.726 217.62 519.217 217.62C522.254 217.62 524.997 218.3 527.445 219.66C529.893 221.02 531.842 223.06 533.293 225.78C534.789 228.5 535.537 231.9 535.537 235.98C535.537 240.06 534.811 243.46 533.361 246.18C531.955 248.9 530.029 250.963 527.581 252.368C525.133 253.728 522.345 254.408 519.217 254.408ZM519.761 248.696C522.027 248.696 524.067 248.175 525.881 247.132C527.739 246.089 529.19 244.616 530.233 242.712C531.321 240.763 531.865 238.519 531.865 235.98C531.865 233.396 531.321 231.175 530.233 229.316C529.19 227.412 527.739 225.939 525.881 224.896C524.067 223.853 522.027 223.332 519.761 223.332C517.449 223.332 515.386 223.853 513.573 224.896C511.759 225.939 510.309 227.412 509.221 229.316C508.133 231.175 507.589 233.396 507.589 235.98C507.589 238.519 508.133 240.763 509.221 242.712C510.309 244.616 511.759 246.089 513.573 247.132C515.386 248.175 517.449 248.696 519.761 248.696ZM532.069 254V244.276L532.477 235.912L531.797 227.548V203.544H538.325V254H532.069ZM566.724 254.408C562.871 254.408 559.471 253.615 556.524 252.028C553.623 250.441 551.356 248.265 549.724 245.5C548.138 242.735 547.344 239.561 547.344 235.98C547.344 232.399 548.115 229.225 549.656 226.46C551.243 223.695 553.396 221.541 556.116 220C558.882 218.413 561.987 217.62 565.432 217.62C568.923 217.62 572.006 218.391 574.68 219.932C577.355 221.473 579.44 223.649 580.936 226.46C582.478 229.225 583.248 232.467 583.248 236.184C583.248 236.456 583.226 236.773 583.18 237.136C583.18 237.499 583.158 237.839 583.112 238.156H552.444V233.464H579.712L577.06 235.096C577.106 232.784 576.63 230.721 575.632 228.908C574.635 227.095 573.252 225.689 571.484 224.692C569.762 223.649 567.744 223.128 565.432 223.128C563.166 223.128 561.148 223.649 559.38 224.692C557.612 225.689 556.23 227.117 555.232 228.976C554.235 230.789 553.736 232.875 553.736 235.232V236.32C553.736 238.723 554.28 240.876 555.368 242.78C556.502 244.639 558.066 246.089 560.06 247.132C562.055 248.175 564.344 248.696 566.928 248.696C569.059 248.696 570.986 248.333 572.708 247.608C574.476 246.883 576.018 245.795 577.332 244.344L580.936 248.56C579.304 250.464 577.264 251.915 574.816 252.912C572.414 253.909 569.716 254.408 566.724 254.408ZM592.313 254V217.96H598.569V227.752L597.957 225.304C598.954 222.811 600.632 220.907 602.989 219.592C605.346 218.277 608.248 217.62 611.693 217.62V223.944C611.421 223.899 611.149 223.876 610.877 223.876C610.65 223.876 610.424 223.876 610.197 223.876C606.706 223.876 603.941 224.919 601.901 227.004C599.861 229.089 598.841 232.104 598.841 236.048V254H592.313ZM630.473 254.408C627.481 254.408 624.625 254 621.905 253.184C619.231 252.368 617.123 251.371 615.581 250.192L618.301 245.024C619.843 246.067 621.747 246.951 624.013 247.676C626.28 248.401 628.592 248.764 630.949 248.764C633.987 248.764 636.163 248.333 637.477 247.472C638.837 246.611 639.517 245.409 639.517 243.868C639.517 242.735 639.109 241.851 638.293 241.216C637.477 240.581 636.389 240.105 635.029 239.788C633.715 239.471 632.241 239.199 630.609 238.972C628.977 238.7 627.345 238.383 625.713 238.02C624.081 237.612 622.585 237.068 621.225 236.388C619.865 235.663 618.777 234.688 617.961 233.464C617.145 232.195 616.737 230.517 616.737 228.432C616.737 226.256 617.349 224.352 618.573 222.72C619.797 221.088 621.52 219.841 623.741 218.98C626.008 218.073 628.683 217.62 631.765 217.62C634.123 217.62 636.503 217.915 638.905 218.504C641.353 219.048 643.348 219.841 644.889 220.884L642.101 226.052C640.469 224.964 638.769 224.216 637.001 223.808C635.233 223.4 633.465 223.196 631.697 223.196C628.841 223.196 626.711 223.672 625.305 224.624C623.9 225.531 623.197 226.709 623.197 228.16C623.197 229.384 623.605 230.336 624.421 231.016C625.283 231.651 626.371 232.149 627.685 232.512C629.045 232.875 630.541 233.192 632.173 233.464C633.805 233.691 635.437 234.008 637.069 234.416C638.701 234.779 640.175 235.3 641.489 235.98C642.849 236.66 643.937 237.612 644.753 238.836C645.615 240.06 646.045 241.692 646.045 243.732C646.045 245.908 645.411 247.789 644.141 249.376C642.872 250.963 641.081 252.209 638.769 253.116C636.457 253.977 633.692 254.408 630.473 254.408ZM666.58 254.408C662.953 254.408 660.142 253.433 658.148 251.484C656.153 249.535 655.156 246.747 655.156 243.12V210.072H661.684V242.848C661.684 244.797 662.16 246.293 663.112 247.336C664.109 248.379 665.514 248.9 667.328 248.9C669.368 248.9 671.068 248.333 672.428 247.2L674.468 251.892C673.47 252.753 672.269 253.388 670.864 253.796C669.504 254.204 668.076 254.408 666.58 254.408ZM649.036 223.332V217.96H672.02V223.332H649.036ZM704.732 254V246.384L704.392 244.956V231.968C704.392 229.203 703.576 227.072 701.944 225.576C700.357 224.035 697.955 223.264 694.736 223.264C692.605 223.264 690.52 223.627 688.48 224.352C686.44 225.032 684.717 225.961 683.312 227.14L680.592 222.244C682.451 220.748 684.672 219.615 687.256 218.844C689.885 218.028 692.628 217.62 695.484 217.62C700.425 217.62 704.233 218.821 706.908 221.224C709.583 223.627 710.92 227.299 710.92 232.24V254H704.732ZM692.9 254.408C690.225 254.408 687.868 253.955 685.828 253.048C683.833 252.141 682.292 250.895 681.204 249.308C680.116 247.676 679.572 245.84 679.572 243.8C679.572 241.851 680.025 240.083 680.932 238.496C681.884 236.909 683.403 235.64 685.488 234.688C687.619 233.736 690.475 233.26 694.056 233.26H705.48V237.952H694.328C691.064 237.952 688.865 238.496 687.732 239.584C686.599 240.672 686.032 241.987 686.032 243.528C686.032 245.296 686.735 246.724 688.14 247.812C689.545 248.855 691.495 249.376 693.988 249.376C696.436 249.376 698.567 248.832 700.38 247.744C702.239 246.656 703.576 245.069 704.392 242.984L705.684 247.472C704.823 249.603 703.304 251.303 701.128 252.572C698.952 253.796 696.209 254.408 692.9 254.408ZM742.245 217.62C745.191 217.62 747.775 218.187 749.997 219.32C752.263 220.453 754.031 222.176 755.301 224.488C756.57 226.8 757.205 229.724 757.205 233.26V254H750.677V234.008C750.677 230.517 749.815 227.888 748.093 226.12C746.415 224.352 744.035 223.468 740.953 223.468C738.641 223.468 736.623 223.921 734.901 224.828C733.178 225.735 731.841 227.072 730.889 228.84C729.982 230.608 729.529 232.807 729.529 235.436V254H723.001V217.96H729.257V227.684L728.237 225.1C729.415 222.743 731.229 220.907 733.677 219.592C736.125 218.277 738.981 217.62 742.245 217.62ZM784.178 254.408C780.687 254.408 777.559 253.637 774.794 252.096C772.074 250.555 769.92 248.401 768.334 245.636C766.747 242.871 765.954 239.652 765.954 235.98C765.954 232.308 766.747 229.112 768.334 226.392C769.92 223.627 772.074 221.473 774.794 219.932C777.559 218.391 780.687 217.62 784.178 217.62C787.215 217.62 789.958 218.3 792.406 219.66C794.854 221.02 796.803 223.06 798.254 225.78C799.75 228.5 800.498 231.9 800.498 235.98C800.498 240.06 799.772 243.46 798.322 246.18C796.916 248.9 794.99 250.963 792.542 252.368C790.094 253.728 787.306 254.408 784.178 254.408ZM784.722 248.696C786.988 248.696 789.028 248.175 790.842 247.132C792.7 246.089 794.151 244.616 795.194 242.712C796.282 240.763 796.826 238.519 796.826 235.98C796.826 233.396 796.282 231.175 795.194 229.316C794.151 227.412 792.7 225.939 790.842 224.896C789.028 223.853 786.988 223.332 784.722 223.332C782.41 223.332 780.347 223.853 778.534 224.896C776.72 225.939 775.27 227.412 774.182 229.316C773.094 231.175 772.55 233.396 772.55 235.98C772.55 238.519 773.094 240.763 774.182 242.712C775.27 244.616 776.72 246.089 778.534 247.132C780.347 248.175 782.41 248.696 784.722 248.696ZM797.03 254V244.276L797.438 235.912L796.758 227.548V203.544H803.286V254H797.03ZM846.275 254.408C842.648 254.408 839.838 253.433 837.843 251.484C835.848 249.535 834.851 246.747 834.851 243.12V210.072H841.379V242.848C841.379 244.797 841.855 246.293 842.807 247.336C843.804 248.379 845.21 248.9 847.023 248.9C849.063 248.9 850.763 248.333 852.123 247.2L854.163 251.892C853.166 252.753 851.964 253.388 850.559 253.796C849.199 254.204 847.771 254.408 846.275 254.408ZM828.731 223.332V217.96H851.715V223.332H828.731ZM881.299 217.62C884.246 217.62 886.83 218.187 889.051 219.32C891.318 220.453 893.086 222.176 894.355 224.488C895.625 226.8 896.259 229.724 896.259 233.26V254H889.731V234.008C889.731 230.517 888.87 227.888 887.147 226.12C885.47 224.352 883.09 223.468 880.007 223.468C877.695 223.468 875.678 223.921 873.955 224.828C872.233 225.735 870.895 227.072 869.943 228.84C869.037 230.608 868.583 232.807 868.583 235.436V254H862.055V203.544H868.583V227.684L867.291 225.1C868.47 222.743 870.283 220.907 872.731 219.592C875.179 218.277 878.035 217.62 881.299 217.62ZM924.388 254.408C920.535 254.408 917.135 253.615 914.188 252.028C911.287 250.441 909.02 248.265 907.388 245.5C905.802 242.735 905.008 239.561 905.008 235.98C905.008 232.399 905.779 229.225 907.32 226.46C908.907 223.695 911.06 221.541 913.78 220C916.546 218.413 919.651 217.62 923.096 217.62C926.587 217.62 929.67 218.391 932.344 219.932C935.019 221.473 937.104 223.649 938.6 226.46C940.142 229.225 940.912 232.467 940.912 236.184C940.912 236.456 940.89 236.773 940.844 237.136C940.844 237.499 940.822 237.839 940.776 238.156H910.108V233.464H937.376L934.724 235.096C934.77 232.784 934.294 230.721 933.296 228.908C932.299 227.095 930.916 225.689 929.148 224.692C927.426 223.649 925.408 223.128 923.096 223.128C920.83 223.128 918.812 223.649 917.044 224.692C915.276 225.689 913.894 227.117 912.896 228.976C911.899 230.789 911.4 232.875 911.4 235.232V236.32C911.4 238.723 911.944 240.876 913.032 242.78C914.166 244.639 915.73 246.089 917.724 247.132C919.719 248.175 922.008 248.696 924.592 248.696C926.723 248.696 928.65 248.333 930.372 247.608C932.14 246.883 933.682 245.795 934.996 244.344L938.6 248.56C936.968 250.464 934.928 251.915 932.48 252.912C930.078 253.909 927.38 254.408 924.388 254.408ZM987.347 254.408C984.264 254.408 981.476 253.728 978.983 252.368C976.535 250.963 974.585 248.9 973.135 246.18C971.729 243.46 971.027 240.06 971.027 235.98C971.027 231.9 971.752 228.5 973.203 225.78C974.699 223.06 976.671 221.02 979.119 219.66C981.612 218.3 984.355 217.62 987.347 217.62C990.883 217.62 994.011 218.391 996.731 219.932C999.451 221.473 1001.6 223.627 1003.19 226.392C1004.78 229.112 1005.57 232.308 1005.57 235.98C1005.57 239.652 1004.78 242.871 1003.19 245.636C1001.6 248.401 999.451 250.555 996.731 252.096C994.011 253.637 990.883 254.408 987.347 254.408ZM968.239 254V203.544H974.767V227.548L974.087 235.912L974.495 244.276V254H968.239ZM986.803 248.696C989.115 248.696 991.177 248.175 992.991 247.132C994.849 246.089 996.3 244.616 997.343 242.712C998.431 240.763 998.975 238.519 998.975 235.98C998.975 233.396 998.431 231.175 997.343 229.316C996.3 227.412 994.849 225.939 992.991 224.896C991.177 223.853 989.115 223.332 986.803 223.332C984.536 223.332 982.473 223.853 980.615 224.896C978.801 225.939 977.351 227.412 976.263 229.316C975.22 231.175 974.699 233.396 974.699 235.98C974.699 238.519 975.22 240.763 976.263 242.712C977.351 244.616 978.801 246.089 980.615 247.132C982.473 248.175 984.536 248.696 986.803 248.696ZM1036.63 254V246.384L1036.29 244.956V231.968C1036.29 229.203 1035.47 227.072 1033.84 225.576C1032.26 224.035 1029.85 223.264 1026.63 223.264C1024.5 223.264 1022.42 223.627 1020.38 224.352C1018.34 225.032 1016.62 225.961 1015.21 227.14L1012.49 222.244C1014.35 220.748 1016.57 219.615 1019.15 218.844C1021.78 218.028 1024.53 217.62 1027.38 217.62C1032.32 217.62 1036.13 218.821 1038.81 221.224C1041.48 223.627 1042.82 227.299 1042.82 232.24V254H1036.63ZM1024.8 254.408C1022.12 254.408 1019.77 253.955 1017.73 253.048C1015.73 252.141 1014.19 250.895 1013.1 249.308C1012.01 247.676 1011.47 245.84 1011.47 243.8C1011.47 241.851 1011.92 240.083 1012.83 238.496C1013.78 236.909 1015.3 235.64 1017.39 234.688C1019.52 233.736 1022.37 233.26 1025.95 233.26H1037.38V237.952H1026.23C1022.96 237.952 1020.76 238.496 1019.63 239.584C1018.5 240.672 1017.93 241.987 1017.93 243.528C1017.93 245.296 1018.63 246.724 1020.04 247.812C1021.44 248.855 1023.39 249.376 1025.89 249.376C1028.33 249.376 1030.46 248.832 1032.28 247.744C1034.14 246.656 1035.47 245.069 1036.29 242.984L1037.58 247.472C1036.72 249.603 1035.2 251.303 1033.03 252.572C1030.85 253.796 1028.11 254.408 1024.8 254.408ZM1065.23 254.408C1062.24 254.408 1059.39 254 1056.67 253.184C1053.99 252.368 1051.88 251.371 1050.34 250.192L1053.06 245.024C1054.6 246.067 1056.51 246.951 1058.77 247.676C1061.04 248.401 1063.35 248.764 1065.71 248.764C1068.75 248.764 1070.92 248.333 1072.24 247.472C1073.6 246.611 1074.28 245.409 1074.28 243.868C1074.28 242.735 1073.87 241.851 1073.05 241.216C1072.24 240.581 1071.15 240.105 1069.79 239.788C1068.48 239.471 1067 239.199 1065.37 238.972C1063.74 238.7 1062.11 238.383 1060.47 238.02C1058.84 237.612 1057.35 237.068 1055.99 236.388C1054.63 235.663 1053.54 234.688 1052.72 233.464C1051.91 232.195 1051.5 230.517 1051.5 228.432C1051.5 226.256 1052.11 224.352 1053.33 222.72C1054.56 221.088 1056.28 219.841 1058.5 218.98C1060.77 218.073 1063.44 217.62 1066.53 217.62C1068.88 217.62 1071.26 217.915 1073.67 218.504C1076.11 219.048 1078.11 219.841 1079.65 220.884L1076.86 226.052C1075.23 224.964 1073.53 224.216 1071.76 223.808C1069.99 223.4 1068.23 223.196 1066.46 223.196C1063.6 223.196 1061.47 223.672 1060.07 224.624C1058.66 225.531 1057.96 226.709 1057.96 228.16C1057.96 229.384 1058.37 230.336 1059.18 231.016C1060.04 231.651 1061.13 232.149 1062.45 232.512C1063.81 232.875 1065.3 233.192 1066.93 233.464C1068.57 233.691 1070.2 234.008 1071.83 234.416C1073.46 234.779 1074.94 235.3 1076.25 235.98C1077.61 236.66 1078.7 237.612 1079.51 238.836C1080.38 240.06 1080.81 241.692 1080.81 243.732C1080.81 245.908 1080.17 247.789 1078.9 249.376C1077.63 250.963 1075.84 252.209 1073.53 253.116C1071.22 253.977 1068.45 254.408 1065.23 254.408ZM1088.97 254V217.96H1095.49V254H1088.97ZM1092.23 211.024C1090.96 211.024 1089.89 210.616 1089.03 209.8C1088.22 208.984 1087.81 207.987 1087.81 206.808C1087.81 205.584 1088.22 204.564 1089.03 203.748C1089.89 202.932 1090.96 202.524 1092.23 202.524C1093.5 202.524 1094.54 202.932 1095.36 203.748C1096.22 204.519 1096.65 205.493 1096.65 206.672C1096.65 207.896 1096.24 208.939 1095.43 209.8C1094.61 210.616 1093.54 211.024 1092.23 211.024ZM1118.29 254.408C1115.3 254.408 1112.45 254 1109.73 253.184C1107.05 252.368 1104.94 251.371 1103.4 250.192L1106.12 245.024C1107.66 246.067 1109.57 246.951 1111.83 247.676C1114.1 248.401 1116.41 248.764 1118.77 248.764C1121.81 248.764 1123.98 248.333 1125.3 247.472C1126.66 246.611 1127.34 245.409 1127.34 243.868C1127.34 242.735 1126.93 241.851 1126.11 241.216C1125.3 240.581 1124.21 240.105 1122.85 239.788C1121.53 239.471 1120.06 239.199 1118.43 238.972C1116.8 238.7 1115.17 238.383 1113.53 238.02C1111.9 237.612 1110.41 237.068 1109.05 236.388C1107.69 235.663 1106.6 234.688 1105.78 233.464C1104.97 232.195 1104.56 230.517 1104.56 228.432C1104.56 226.256 1105.17 224.352 1106.39 222.72C1107.62 221.088 1109.34 219.841 1111.56 218.98C1113.83 218.073 1116.5 217.62 1119.59 217.62C1121.94 217.62 1124.32 217.915 1126.73 218.504C1129.17 219.048 1131.17 219.841 1132.71 220.884L1129.92 226.052C1128.29 224.964 1126.59 224.216 1124.82 223.808C1123.05 223.4 1121.29 223.196 1119.52 223.196C1116.66 223.196 1114.53 223.672 1113.13 224.624C1111.72 225.531 1111.02 226.709 1111.02 228.16C1111.02 229.384 1111.43 230.336 1112.24 231.016C1113.1 231.651 1114.19 232.149 1115.51 232.512C1116.87 232.875 1118.36 233.192 1119.99 233.464C1121.63 233.691 1123.26 234.008 1124.89 234.416C1126.52 234.779 1127.99 235.3 1129.31 235.98C1130.67 236.66 1131.76 237.612 1132.57 238.836C1133.43 240.06 1133.87 241.692 1133.87 243.732C1133.87 245.908 1133.23 247.789 1131.96 249.376C1130.69 250.963 1128.9 252.209 1126.59 253.116C1124.28 253.977 1121.51 254.408 1118.29 254.408ZM1175.72 254.408C1172.09 254.408 1168.88 253.615 1166.07 252.028C1163.25 250.441 1161.03 248.265 1159.4 245.5C1157.77 242.689 1156.95 239.516 1156.95 235.98C1156.95 232.399 1157.77 229.225 1159.4 226.46C1161.03 223.695 1163.25 221.541 1166.07 220C1168.88 218.413 1172.09 217.62 1175.72 217.62C1179.3 217.62 1182.5 218.413 1185.31 220C1188.17 221.541 1190.39 223.695 1191.97 226.46C1193.61 229.18 1194.42 232.353 1194.42 235.98C1194.42 239.561 1193.61 242.735 1191.97 245.5C1190.39 248.265 1188.17 250.441 1185.31 252.028C1182.5 253.615 1179.3 254.408 1175.72 254.408ZM1175.72 248.696C1178.03 248.696 1180.1 248.175 1181.91 247.132C1183.77 246.089 1185.22 244.616 1186.26 242.712C1187.3 240.763 1187.83 238.519 1187.83 235.98C1187.83 233.396 1187.3 231.175 1186.26 229.316C1185.22 227.412 1183.77 225.939 1181.91 224.896C1180.1 223.853 1178.03 223.332 1175.72 223.332C1173.41 223.332 1171.35 223.853 1169.53 224.896C1167.72 225.939 1166.27 227.412 1165.18 229.316C1164.09 231.175 1163.55 233.396 1163.55 235.98C1163.55 238.519 1164.09 240.763 1165.18 242.712C1166.27 244.616 1167.72 246.089 1169.53 247.132C1171.35 248.175 1173.41 248.696 1175.72 248.696ZM1204.4 254V214.764C1204.4 211.228 1205.42 208.417 1207.46 206.332C1209.55 204.201 1212.49 203.136 1216.3 203.136C1217.71 203.136 1219.04 203.317 1220.31 203.68C1221.63 203.997 1222.74 204.519 1223.65 205.244L1221.67 210.208C1220.99 209.664 1220.22 209.256 1219.36 208.984C1218.5 208.667 1217.59 208.508 1216.64 208.508C1214.74 208.508 1213.29 209.052 1212.29 210.14C1211.29 211.183 1210.79 212.747 1210.79 214.832V219.66L1210.93 222.652V254H1204.4ZM1198.28 223.332V217.96H1221.27V223.332H1198.28ZM1230.51 226.936C1229.24 226.936 1228.16 226.505 1227.25 225.644C1226.34 224.737 1225.89 223.604 1225.89 222.244C1225.89 220.884 1226.34 219.773 1227.25 218.912C1228.16 218.051 1229.24 217.62 1230.51 217.62C1231.74 217.62 1232.78 218.051 1233.64 218.912C1234.55 219.773 1235 220.884 1235 222.244C1235 223.604 1234.55 224.737 1233.64 225.644C1232.78 226.505 1231.74 226.936 1230.51 226.936ZM1230.51 254.408C1229.24 254.408 1228.16 253.977 1227.25 253.116C1226.34 252.209 1225.89 251.076 1225.89 249.716C1225.89 248.356 1226.34 247.245 1227.25 246.384C1228.16 245.523 1229.24 245.092 1230.51 245.092C1231.74 245.092 1232.78 245.523 1233.64 246.384C1234.55 247.245 1235 248.356 1235 249.716C1235 251.076 1234.55 252.209 1233.64 253.116C1232.78 253.977 1231.74 254.408 1230.51 254.408Z" fill="#F1EAE1"/>
<rect x="206" y="305" width="494" height="202" rx="20" fill="#F1EAE1"/>
<path d="M331.605 419H327.369L319.055 401.387L319.037 419H314.766V393.406H319.055L327.316 410.949L327.352 393.406H331.605V419ZM353.35 393.406L353.367 410.527C353.367 411.852 353.162 413.059 352.752 414.148C352.354 415.227 351.785 416.152 351.047 416.926C350.297 417.699 349.395 418.297 348.34 418.719C347.297 419.141 346.125 419.352 344.824 419.352C343.547 419.352 342.393 419.146 341.361 418.736C340.33 418.314 339.451 417.717 338.725 416.943C337.986 416.17 337.412 415.238 337.002 414.148C336.604 413.059 336.398 411.852 336.387 410.527L336.422 393.406H340.588L340.623 410.527C340.635 411.336 340.734 412.08 340.922 412.76C341.109 413.428 341.385 413.996 341.748 414.465C342.1 414.91 342.527 415.262 343.031 415.52C343.547 415.766 344.145 415.889 344.824 415.889C345.516 415.889 346.125 415.766 346.652 415.52C347.191 415.262 347.643 414.898 348.006 414.43C348.369 413.949 348.645 413.381 348.832 412.725C349.02 412.057 349.125 411.324 349.148 410.527L349.184 393.406H353.35ZM363.334 393.406L366.498 404.357L369.996 393.406H375.252V419H371.279V410.316L371.525 398.891L367.588 411.107H365.391L361.822 399.312L362.051 410.316V419H358.096V393.406H363.334ZM379.91 419V393.406H388.102C389.344 393.406 390.51 393.547 391.6 393.828C392.689 394.098 393.633 394.514 394.43 395.076C395.227 395.639 395.848 396.359 396.293 397.238C396.75 398.105 396.979 399.137 396.979 400.332C396.967 401.059 396.838 401.738 396.592 402.371C396.357 402.992 396.018 403.543 395.572 404.023C395.256 404.375 394.898 404.686 394.5 404.955C394.113 405.213 393.662 405.447 393.146 405.658V405.693C393.908 405.893 394.559 406.186 395.098 406.572C395.637 406.947 396.088 407.375 396.451 407.855C396.826 408.371 397.107 408.945 397.295 409.578C397.494 410.199 397.594 410.855 397.594 411.547C397.605 412.766 397.389 413.838 396.943 414.764C396.498 415.689 395.883 416.463 395.098 417.084C394.312 417.717 393.375 418.197 392.285 418.525C391.207 418.842 390.035 419 388.77 419H379.91ZM384.164 407.434V415.52H388.805C389.473 415.52 390.082 415.426 390.633 415.238C391.184 415.051 391.652 414.793 392.039 414.465C392.461 414.125 392.783 413.709 393.006 413.217C393.24 412.713 393.357 412.156 393.357 411.547C393.357 410.902 393.264 410.334 393.076 409.842C392.889 409.338 392.607 408.91 392.232 408.559C391.857 408.207 391.4 407.938 390.861 407.75C390.322 407.551 389.707 407.445 389.016 407.434H384.164ZM384.164 404.217H388.189C388.881 404.205 389.514 404.111 390.088 403.936C390.674 403.76 391.166 403.502 391.564 403.162C391.928 402.857 392.215 402.488 392.426 402.055C392.637 401.621 392.742 401.123 392.742 400.561C392.742 399.963 392.643 399.447 392.443 399.014C392.256 398.568 391.986 398.205 391.635 397.924C391.236 397.572 390.738 397.32 390.141 397.168C389.543 397.004 388.881 396.916 388.154 396.904H384.164V404.217ZM416.613 407.521H406.031V415.52H418.389V419H401.795V393.406H418.301V396.904H406.031V404.111H416.613V407.521ZM431.783 409.068H427.459V419H423.24V393.406H431.361C432.686 393.418 433.904 393.588 435.018 393.916C436.131 394.244 437.092 394.725 437.9 395.357C438.697 396.002 439.318 396.805 439.764 397.766C440.209 398.715 440.432 399.828 440.432 401.105C440.432 401.984 440.314 402.781 440.08 403.496C439.857 404.211 439.541 404.855 439.131 405.43C438.721 406.004 438.229 406.508 437.654 406.941C437.08 407.375 436.441 407.75 435.738 408.066L441.205 418.771V419H436.688L431.783 409.068ZM427.459 405.623H431.414C432.164 405.611 432.838 405.5 433.436 405.289C434.045 405.066 434.561 404.75 434.982 404.34C435.357 403.988 435.65 403.555 435.861 403.039C436.072 402.523 436.178 401.938 436.178 401.281C436.178 400.543 436.061 399.898 435.826 399.348C435.604 398.785 435.27 398.316 434.824 397.941C434.414 397.59 433.916 397.326 433.33 397.15C432.744 396.963 432.088 396.863 431.361 396.852H427.459V405.623ZM484.588 396.904H476.695V419H472.494V396.904H464.654V393.406H484.588V396.904ZM504.592 419H500.461V407.592H491.848V419H487.734V393.406H491.848V404.111H500.461V393.406H504.592V419ZM524.719 407.521H514.137V415.52H526.494V419H509.9V393.406H526.406V396.904H514.137V404.111H524.719V407.521ZM548.643 407.908C548.643 408.939 548.549 409.936 548.361 410.896C548.186 411.857 547.928 412.766 547.588 413.621C547.225 414.477 546.773 415.268 546.234 415.994C545.695 416.709 545.074 417.324 544.371 417.84C543.691 418.309 542.936 418.678 542.104 418.947C541.283 419.217 540.381 419.352 539.396 419.352C538.377 419.352 537.439 419.211 536.584 418.93C535.74 418.637 534.984 418.238 534.316 417.734C533.637 417.219 533.039 416.598 532.523 415.871C532.02 415.145 531.598 414.348 531.258 413.48C530.93 412.648 530.684 411.764 530.52 410.826C530.355 409.877 530.273 408.904 530.273 407.908V404.533C530.273 403.49 530.361 402.482 530.537 401.51C530.713 400.537 530.977 399.617 531.328 398.75C531.668 397.918 532.084 397.156 532.576 396.465C533.08 395.762 533.672 395.152 534.352 394.637C535.008 394.133 535.752 393.746 536.584 393.477C537.428 393.195 538.354 393.055 539.361 393.055C540.381 393.055 541.318 393.195 542.174 393.477C543.029 393.758 543.797 394.15 544.477 394.654C545.156 395.158 545.748 395.75 546.252 396.43C546.756 397.109 547.178 397.854 547.518 398.662C547.893 399.529 548.174 400.461 548.361 401.457C548.549 402.441 548.643 403.467 548.643 404.533V407.908ZM544.389 404.498C544.377 403.854 544.336 403.221 544.266 402.6C544.207 401.979 544.102 401.387 543.949 400.824C543.773 400.18 543.539 399.594 543.246 399.066C542.965 398.527 542.619 398.07 542.209 397.695C541.846 397.367 541.43 397.109 540.961 396.922C540.492 396.734 539.959 396.641 539.361 396.641C538.787 396.641 538.271 396.734 537.814 396.922C537.357 397.098 536.959 397.344 536.619 397.66C536.209 398.047 535.863 398.51 535.582 399.049C535.301 399.576 535.084 400.168 534.932 400.824C534.791 401.387 534.686 401.984 534.615 402.617C534.557 403.238 534.527 403.865 534.527 404.498V407.908C534.527 408.529 534.557 409.145 534.615 409.754C534.674 410.363 534.773 410.949 534.914 411.512C535.066 412.145 535.271 412.736 535.529 413.287C535.799 413.826 536.121 414.283 536.496 414.658C536.859 415.01 537.275 415.291 537.744 415.502C538.225 415.701 538.775 415.801 539.396 415.801C539.994 415.801 540.533 415.701 541.014 415.502C541.506 415.303 541.928 415.033 542.279 414.693C542.689 414.307 543.029 413.85 543.299 413.322C543.58 412.783 543.803 412.191 543.967 411.547C544.107 410.984 544.207 410.398 544.266 409.789C544.336 409.168 544.377 408.541 544.389 407.908V404.498ZM561.51 409.068H557.186V419H552.967V393.406H561.088C562.412 393.418 563.631 393.588 564.744 393.916C565.857 394.244 566.818 394.725 567.627 395.357C568.424 396.002 569.045 396.805 569.49 397.766C569.936 398.715 570.158 399.828 570.158 401.105C570.158 401.984 570.041 402.781 569.807 403.496C569.584 404.211 569.268 404.855 568.857 405.43C568.447 406.004 567.955 406.508 567.381 406.941C566.807 407.375 566.168 407.75 565.465 408.066L570.932 418.771V419H566.414L561.51 409.068ZM557.186 405.623H561.141C561.891 405.611 562.564 405.5 563.162 405.289C563.771 405.066 564.287 404.75 564.709 404.34C565.084 403.988 565.377 403.555 565.588 403.039C565.799 402.523 565.904 401.938 565.904 401.281C565.904 400.543 565.787 399.898 565.553 399.348C565.33 398.785 564.996 398.316 564.551 397.941C564.141 397.59 563.643 397.326 563.057 397.15C562.471 396.963 561.814 396.863 561.088 396.852H557.186V405.623ZM582.779 405.641L588.141 393.406H592.852L584.836 409.859L584.801 419H580.67L580.652 409.736L572.707 393.406H577.4L582.779 405.641Z" fill="#2A2D39"/>
<path d="M822.5 611.157C825.539 616.633 827.27 622.937 827.27 629.646H817.73C817.73 622.937 819.461 616.633 822.501 611.157H822.5Z" fill="#F1EAE1"/>
<path d="M789.778 591.493C793.328 591.552 796.761 592.098 800.012 593.066C798.214 595.803 796.614 598.68 795.23 601.68C793.258 601.253 791.21 601.026 789.11 601.026C787.715 601.026 786.341 601.125 785 601.32C786.361 597.916 787.959 594.635 789.778 591.495V591.493Z" fill="#F1EAE1"/>
<path d="M803.43 574.212C806.983 575.126 810.4 576.374 813.649 577.919C810.969 580.11 808.461 582.506 806.154 585.081H806.153C802.9 583.835 799.477 582.937 795.926 582.429C798.225 579.509 800.734 576.763 803.43 574.211V574.212Z" fill="#F1EAE1"/>
<path d="M832.713 567.001C829.156 568.315 825.743 569.926 822.501 571.802C819.259 569.926 815.846 568.316 812.289 567.001C815.519 564.745 818.933 562.739 822.501 561C826.069 562.739 829.482 564.745 832.713 567.001Z" fill="#F1EAE1"/>
<path d="M808.874 596.995C811.616 598.66 814.131 600.658 816.363 602.937C814.469 605.738 812.863 608.751 811.59 611.932C809.508 609.289 806.969 607.027 804.094 605.258C805.46 602.362 807.061 599.6 808.875 596.995H808.874Z" fill="#F1EAE1"/>
<path d="M822.498 583.15C825.179 585.076 827.684 587.23 829.989 589.583C827.292 591.331 824.784 593.342 822.498 595.582C820.213 593.342 817.703 591.331 815.008 589.583C817.313 587.23 819.82 585.076 822.498 583.15Z" fill="#F1EAE1"/>
<path d="M849.071 582.43C845.521 582.937 842.096 583.836 838.842 585.083C836.536 582.507 834.029 580.11 831.348 577.921C834.597 576.376 838.014 575.128 841.567 574.214C844.263 576.766 846.772 579.512 849.071 582.432V582.43Z" fill="#F1EAE1"/>
<path d="M836.125 596.995C837.939 599.6 839.54 602.362 840.906 605.258C838.031 607.027 835.491 609.289 833.41 611.932C832.137 608.749 830.531 605.737 828.637 602.937C830.869 600.658 833.384 598.66 836.126 596.995H836.125Z" fill="#F1EAE1"/>
<path d="M860 601.32C858.658 601.125 857.285 601.026 855.89 601.026C853.79 601.026 851.742 601.253 849.77 601.68C848.387 598.681 846.786 595.803 844.988 593.066C848.24 592.098 851.672 591.552 855.222 591.493C857.041 594.634 858.639 597.916 860 601.319V601.32Z" fill="#F1EAE1"/>
</svg>
