<svg width="443" height="138" viewBox="0 0 443 138" fill="none" xmlns="http://www.w3.org/2000/svg">
<g filter="url(#filter0_d_155_431)">
<rect x="4" width="435" height="130" rx="20" fill="#2A2D39"/>
<rect x="4.375" y="0.375" width="434.25" height="129.25" rx="19.625" stroke="#F1EAE1" stroke-width="0.75"/>
</g>
<path d="M36.92 55L41.96 43.8H44.008L49.064 55H46.888L42.552 44.904H43.384L39.064 55H36.92ZM39.24 52.408L39.8 50.776H45.848L46.408 52.408H39.24ZM61.0804 46.36C61.763 46.36 62.3657 46.4933 62.8884 46.76C63.4217 47.0267 63.8377 47.4373 64.1364 47.992C64.435 48.536 64.5844 49.24 64.5844 50.104V55H62.5844V50.36C62.5844 49.6027 62.419 49.0373 62.0884 48.664C61.7577 48.2907 61.283 48.104 60.6644 48.104C60.227 48.104 59.8377 48.2 59.4964 48.392C59.1657 48.584 58.9044 48.8667 58.7124 49.24C58.531 49.6133 58.4404 50.088 58.4404 50.664V55H56.4404V50.36C56.4404 49.6027 56.275 49.0373 55.9444 48.664C55.6137 48.2907 55.139 48.104 54.5204 48.104C54.083 48.104 53.6937 48.2 53.3524 48.392C53.0217 48.584 52.7604 48.8667 52.5684 49.24C52.387 49.6133 52.2964 50.088 52.2964 50.664V55H50.2964V46.456H52.2004V48.728L51.8644 48.056C52.1524 47.5013 52.5684 47.08 53.1124 46.792C53.667 46.504 54.2964 46.36 55.0004 46.36C55.8004 46.36 56.4937 46.5573 57.0804 46.952C57.6777 47.3467 58.0724 47.944 58.2644 48.744L57.4804 48.472C57.7577 47.832 58.2164 47.32 58.8564 46.936C59.4964 46.552 60.2377 46.36 61.0804 46.36ZM70.9958 55.112C70.1211 55.112 69.3424 54.9253 68.6598 54.552C67.9771 54.168 67.4384 53.6453 67.0438 52.984C66.6491 52.3227 66.4518 51.5707 66.4518 50.728C66.4518 49.8747 66.6491 49.1227 67.0438 48.472C67.4384 47.8107 67.9771 47.2933 68.6598 46.92C69.3424 46.5467 70.1211 46.36 70.9958 46.36C71.8811 46.36 72.6651 46.5467 73.3478 46.92C74.0411 47.2933 74.5798 47.8053 74.9638 48.456C75.3584 49.1067 75.5558 49.864 75.5558 50.728C75.5558 51.5707 75.3584 52.3227 74.9638 52.984C74.5798 53.6453 74.0411 54.168 73.3478 54.552C72.6651 54.9253 71.8811 55.112 70.9958 55.112ZM70.9958 53.4C71.4864 53.4 71.9238 53.2933 72.3078 53.08C72.6918 52.8667 72.9904 52.5573 73.2038 52.152C73.4278 51.7467 73.5398 51.272 73.5398 50.728C73.5398 50.1733 73.4278 49.6987 73.2038 49.304C72.9904 48.8987 72.6918 48.5893 72.3078 48.376C71.9238 48.1627 71.4918 48.056 71.0118 48.056C70.5211 48.056 70.0838 48.1627 69.6998 48.376C69.3264 48.5893 69.0278 48.8987 68.8038 49.304C68.5798 49.6987 68.4678 50.1733 68.4678 50.728C68.4678 51.272 68.5798 51.7467 68.8038 52.152C69.0278 52.5573 69.3264 52.8667 69.6998 53.08C70.0838 53.2933 70.5158 53.4 70.9958 53.4ZM81.0843 55.112C80.3589 55.112 79.7189 54.9787 79.1643 54.712C78.6096 54.4347 78.1776 54.0187 77.8683 53.464C77.5589 52.8987 77.4043 52.1893 77.4043 51.336V46.456H79.4043V51.064C79.4043 51.832 79.5749 52.408 79.9163 52.792C80.2683 53.1653 80.7643 53.352 81.4043 53.352C81.8736 53.352 82.2789 53.256 82.6203 53.064C82.9723 52.872 83.2443 52.584 83.4363 52.2C83.6389 51.816 83.7403 51.3413 83.7403 50.776V46.456H85.7403V55H83.8363V52.696L84.1723 53.4C83.8843 53.9547 83.4629 54.3813 82.9083 54.68C82.3536 54.968 81.7456 55.112 81.0843 55.112ZM93.2069 46.36C93.8895 46.36 94.4975 46.4933 95.0309 46.76C95.5749 47.0267 96.0015 47.4373 96.3109 47.992C96.6202 48.536 96.7749 49.24 96.7749 50.104V55H94.7749V50.36C94.7749 49.6027 94.5935 49.0373 94.2309 48.664C93.8789 48.2907 93.3829 48.104 92.7429 48.104C92.2735 48.104 91.8575 48.2 91.4949 48.392C91.1322 48.584 90.8495 48.872 90.6469 49.256C90.4549 49.6293 90.3589 50.104 90.3589 50.68V55H88.3589V46.456H90.2629V48.76L89.9269 48.056C90.2255 47.512 90.6575 47.096 91.2229 46.808C91.7989 46.5093 92.4602 46.36 93.2069 46.36ZM102.528 55.112C101.589 55.112 100.864 54.872 100.352 54.392C99.84 53.9013 99.584 53.1813 99.584 52.232V44.568H101.584V52.184C101.584 52.5893 101.685 52.904 101.888 53.128C102.101 53.352 102.395 53.464 102.768 53.464C103.216 53.464 103.589 53.3467 103.888 53.112L104.448 54.536C104.213 54.728 103.925 54.872 103.584 54.968C103.243 55.064 102.891 55.112 102.528 55.112ZM98.176 48.12V46.52H103.872V48.12H98.176ZM106.733 49.016C106.371 49.016 106.061 48.8933 105.805 48.648C105.549 48.392 105.421 48.072 105.421 47.688C105.421 47.2827 105.549 46.9627 105.805 46.728C106.061 46.4827 106.371 46.36 106.733 46.36C107.096 46.36 107.405 46.4827 107.661 46.728C107.917 46.9627 108.045 47.2827 108.045 47.688C108.045 48.072 107.917 48.392 107.661 48.648C107.405 48.8933 107.096 49.016 106.733 49.016ZM106.733 55.112C106.371 55.112 106.061 54.9893 105.805 54.744C105.549 54.488 105.421 54.168 105.421 53.784C105.421 53.3787 105.549 53.0587 105.805 52.824C106.061 52.5787 106.371 52.456 106.733 52.456C107.096 52.456 107.405 52.5787 107.661 52.824C107.917 53.0587 108.045 53.3787 108.045 53.784C108.045 54.168 107.917 54.488 107.661 54.744C107.405 54.9893 107.096 55.112 106.733 55.112ZM117.685 56.92V41.88H118.485V56.92H117.685ZM118.021 55.096C117.189 55.096 116.389 54.9627 115.621 54.696C114.864 54.4187 114.277 54.0667 113.861 53.64L114.325 52.728C114.72 53.112 115.248 53.4373 115.909 53.704C116.581 53.96 117.285 54.088 118.021 54.088C118.725 54.088 119.296 54.0027 119.733 53.832C120.181 53.6507 120.507 53.4107 120.709 53.112C120.923 52.8133 121.029 52.4827 121.029 52.12C121.029 51.6827 120.901 51.3307 120.645 51.064C120.4 50.7973 120.075 50.5893 119.669 50.44C119.264 50.28 118.816 50.1413 118.325 50.024C117.835 49.9067 117.344 49.784 116.853 49.656C116.363 49.5173 115.909 49.336 115.493 49.112C115.088 48.888 114.757 48.5947 114.501 48.232C114.256 47.8587 114.133 47.3733 114.133 46.776C114.133 46.2213 114.277 45.7147 114.565 45.256C114.864 44.7867 115.317 44.4133 115.925 44.136C116.533 43.848 117.312 43.704 118.261 43.704C118.891 43.704 119.515 43.7947 120.133 43.976C120.752 44.1467 121.285 44.3867 121.733 44.696L121.333 45.64C120.853 45.32 120.341 45.0853 119.797 44.936C119.264 44.7867 118.747 44.712 118.245 44.712C117.573 44.712 117.019 44.8027 116.581 44.984C116.144 45.1653 115.819 45.4107 115.605 45.72C115.403 46.0187 115.301 46.36 115.301 46.744C115.301 47.1813 115.424 47.5333 115.669 47.8C115.925 48.0667 116.256 48.2747 116.661 48.424C117.077 48.5733 117.531 48.7067 118.021 48.824C118.512 48.9413 118.997 49.0693 119.477 49.208C119.968 49.3467 120.416 49.528 120.821 49.752C121.237 49.9653 121.568 50.2533 121.813 50.616C122.069 50.9787 122.197 51.4533 122.197 52.04C122.197 52.584 122.048 53.0907 121.749 53.56C121.451 54.0187 120.992 54.392 120.373 54.68C119.765 54.9573 118.981 55.096 118.021 55.096ZM123.577 55V54.184L128.233 49.624C128.66 49.208 128.98 48.8453 129.193 48.536C129.406 48.216 129.55 47.9173 129.625 47.64C129.7 47.3627 129.737 47.1013 129.737 46.856C129.737 46.2053 129.513 45.6933 129.065 45.32C128.628 44.9467 127.977 44.76 127.113 44.76C126.452 44.76 125.865 44.8613 125.353 45.064C124.852 45.2667 124.42 45.5813 124.057 46.008L123.241 45.304C123.678 44.792 124.238 44.3973 124.921 44.12C125.604 43.8427 126.366 43.704 127.209 43.704C127.966 43.704 128.622 43.8267 129.177 44.072C129.732 44.3067 130.158 44.6533 130.457 45.112C130.766 45.5707 130.921 46.1093 130.921 46.728C130.921 47.0907 130.868 47.448 130.761 47.8C130.665 48.152 130.484 48.5253 130.217 48.92C129.961 49.304 129.582 49.7413 129.081 50.232L124.809 54.424L124.489 53.976H131.433V55H123.577ZM137.312 55.096C136.448 55.096 135.68 54.872 135.008 54.424C134.336 53.9653 133.808 53.3147 133.424 52.472C133.04 51.6187 132.848 50.5947 132.848 49.4C132.848 48.2053 133.04 47.1867 133.424 46.344C133.808 45.4907 134.336 44.84 135.008 44.392C135.68 43.9333 136.448 43.704 137.312 43.704C138.176 43.704 138.944 43.9333 139.616 44.392C140.288 44.84 140.816 45.4907 141.2 46.344C141.594 47.1867 141.792 48.2053 141.792 49.4C141.792 50.5947 141.594 51.6187 141.2 52.472C140.816 53.3147 140.288 53.9653 139.616 54.424C138.944 54.872 138.176 55.096 137.312 55.096ZM137.312 54.04C137.973 54.04 138.549 53.864 139.04 53.512C139.53 53.1493 139.914 52.6267 140.192 51.944C140.469 51.2507 140.608 50.4027 140.608 49.4C140.608 48.3973 140.469 47.5547 140.192 46.872C139.914 46.1787 139.53 45.656 139.04 45.304C138.549 44.9413 137.973 44.76 137.312 44.76C136.672 44.76 136.101 44.9413 135.6 45.304C135.098 45.656 134.709 46.1787 134.432 46.872C134.154 47.5547 134.016 48.3973 134.016 49.4C134.016 50.4027 134.154 51.2507 134.432 51.944C134.709 52.6267 135.098 53.1493 135.6 53.512C136.101 53.864 136.672 54.04 137.312 54.04ZM143.334 57.336L144.038 54.376L144.166 55.064C143.92 55.064 143.712 54.984 143.542 54.824C143.382 54.664 143.302 54.456 143.302 54.2C143.302 53.944 143.382 53.736 143.542 53.576C143.712 53.416 143.915 53.336 144.15 53.336C144.395 53.336 144.592 53.4213 144.742 53.592C144.902 53.7627 144.982 53.9653 144.982 54.2C144.982 54.2853 144.976 54.3707 144.966 54.456C144.955 54.5413 144.934 54.6373 144.902 54.744C144.87 54.8507 144.827 54.9787 144.774 55.128L144.102 57.336H143.334ZM150.952 55.096C150.088 55.096 149.32 54.872 148.648 54.424C147.976 53.9653 147.448 53.3147 147.064 52.472C146.68 51.6187 146.488 50.5947 146.488 49.4C146.488 48.2053 146.68 47.1867 147.064 46.344C147.448 45.4907 147.976 44.84 148.648 44.392C149.32 43.9333 150.088 43.704 150.952 43.704C151.816 43.704 152.584 43.9333 153.256 44.392C153.928 44.84 154.456 45.4907 154.84 46.344C155.235 47.1867 155.432 48.2053 155.432 49.4C155.432 50.5947 155.235 51.6187 154.84 52.472C154.456 53.3147 153.928 53.9653 153.256 54.424C152.584 54.872 151.816 55.096 150.952 55.096ZM150.952 54.04C151.614 54.04 152.19 53.864 152.68 53.512C153.171 53.1493 153.555 52.6267 153.832 51.944C154.11 51.2507 154.248 50.4027 154.248 49.4C154.248 48.3973 154.11 47.5547 153.832 46.872C153.555 46.1787 153.171 45.656 152.68 45.304C152.19 44.9413 151.614 44.76 150.952 44.76C150.312 44.76 149.742 44.9413 149.24 45.304C148.739 45.656 148.35 46.1787 148.072 46.872C147.795 47.5547 147.656 48.3973 147.656 49.4C147.656 50.4027 147.795 51.2507 148.072 51.944C148.35 52.6267 148.739 53.1493 149.24 53.512C149.742 53.864 150.312 54.04 150.952 54.04ZM161.546 55.096C160.682 55.096 159.914 54.872 159.242 54.424C158.57 53.9653 158.042 53.3147 157.658 52.472C157.274 51.6187 157.082 50.5947 157.082 49.4C157.082 48.2053 157.274 47.1867 157.658 46.344C158.042 45.4907 158.57 44.84 159.242 44.392C159.914 43.9333 160.682 43.704 161.546 43.704C162.41 43.704 163.178 43.9333 163.85 44.392C164.522 44.84 165.05 45.4907 165.434 46.344C165.829 47.1867 166.026 48.2053 166.026 49.4C166.026 50.5947 165.829 51.6187 165.434 52.472C165.05 53.3147 164.522 53.9653 163.85 54.424C163.178 54.872 162.41 55.096 161.546 55.096ZM161.546 54.04C162.207 54.04 162.783 53.864 163.274 53.512C163.765 53.1493 164.149 52.6267 164.426 51.944C164.703 51.2507 164.842 50.4027 164.842 49.4C164.842 48.3973 164.703 47.5547 164.426 46.872C164.149 46.1787 163.765 45.656 163.274 45.304C162.783 44.9413 162.207 44.76 161.546 44.76C160.906 44.76 160.335 44.9413 159.834 45.304C159.333 45.656 158.943 46.1787 158.666 46.872C158.389 47.5547 158.25 48.3973 158.25 49.4C158.25 50.4027 158.389 51.2507 158.666 51.944C158.943 52.6267 159.333 53.1493 159.834 53.512C160.335 53.864 160.906 54.04 161.546 54.04ZM172.14 55.096C171.276 55.096 170.508 54.872 169.836 54.424C169.164 53.9653 168.636 53.3147 168.252 52.472C167.868 51.6187 167.676 50.5947 167.676 49.4C167.676 48.2053 167.868 47.1867 168.252 46.344C168.636 45.4907 169.164 44.84 169.836 44.392C170.508 43.9333 171.276 43.704 172.14 43.704C173.004 43.704 173.772 43.9333 174.444 44.392C175.116 44.84 175.644 45.4907 176.028 46.344C176.422 47.1867 176.62 48.2053 176.62 49.4C176.62 50.5947 176.422 51.6187 176.028 52.472C175.644 53.3147 175.116 53.9653 174.444 54.424C173.772 54.872 173.004 55.096 172.14 55.096ZM172.14 54.04C172.801 54.04 173.377 53.864 173.868 53.512C174.358 53.1493 174.742 52.6267 175.02 51.944C175.297 51.2507 175.436 50.4027 175.436 49.4C175.436 48.3973 175.297 47.5547 175.02 46.872C174.742 46.1787 174.358 45.656 173.868 45.304C173.377 44.9413 172.801 44.76 172.14 44.76C171.5 44.76 170.929 44.9413 170.428 45.304C169.926 45.656 169.537 46.1787 169.26 46.872C168.982 47.5547 168.844 48.3973 168.844 49.4C168.844 50.4027 168.982 51.2507 169.26 51.944C169.537 52.6267 169.926 53.1493 170.428 53.512C170.929 53.864 171.5 54.04 172.14 54.04ZM182.585 51.16V50.168H186.777V51.16H182.585ZM196.498 56.92V41.88H197.298V56.92H196.498ZM196.834 55.096C196.002 55.096 195.202 54.9627 194.434 54.696C193.677 54.4187 193.09 54.0667 192.674 53.64L193.138 52.728C193.533 53.112 194.061 53.4373 194.722 53.704C195.394 53.96 196.098 54.088 196.834 54.088C197.538 54.088 198.109 54.0027 198.546 53.832C198.994 53.6507 199.319 53.4107 199.522 53.112C199.735 52.8133 199.842 52.4827 199.842 52.12C199.842 51.6827 199.714 51.3307 199.458 51.064C199.213 50.7973 198.887 50.5893 198.482 50.44C198.077 50.28 197.629 50.1413 197.138 50.024C196.647 49.9067 196.157 49.784 195.666 49.656C195.175 49.5173 194.722 49.336 194.306 49.112C193.901 48.888 193.57 48.5947 193.314 48.232C193.069 47.8587 192.946 47.3733 192.946 46.776C192.946 46.2213 193.09 45.7147 193.378 45.256C193.677 44.7867 194.13 44.4133 194.738 44.136C195.346 43.848 196.125 43.704 197.074 43.704C197.703 43.704 198.327 43.7947 198.946 43.976C199.565 44.1467 200.098 44.3867 200.546 44.696L200.146 45.64C199.666 45.32 199.154 45.0853 198.61 44.936C198.077 44.7867 197.559 44.712 197.058 44.712C196.386 44.712 195.831 44.8027 195.394 44.984C194.957 45.1653 194.631 45.4107 194.418 45.72C194.215 46.0187 194.114 46.36 194.114 46.744C194.114 47.1813 194.237 47.5333 194.482 47.8C194.738 48.0667 195.069 48.2747 195.474 48.424C195.89 48.5733 196.343 48.7067 196.834 48.824C197.325 48.9413 197.81 49.0693 198.29 49.208C198.781 49.3467 199.229 49.528 199.634 49.752C200.05 49.9653 200.381 50.2533 200.626 50.616C200.882 50.9787 201.01 51.4533 201.01 52.04C201.01 52.584 200.861 53.0907 200.562 53.56C200.263 54.0187 199.805 54.392 199.186 54.68C198.578 54.9573 197.794 55.096 196.834 55.096ZM202.39 55V54.184L207.046 49.624C207.472 49.208 207.792 48.8453 208.006 48.536C208.219 48.216 208.363 47.9173 208.438 47.64C208.512 47.3627 208.55 47.1013 208.55 46.856C208.55 46.2053 208.326 45.6933 207.878 45.32C207.44 44.9467 206.79 44.76 205.926 44.76C205.264 44.76 204.678 44.8613 204.166 45.064C203.664 45.2667 203.232 45.5813 202.87 46.008L202.054 45.304C202.491 44.792 203.051 44.3973 203.734 44.12C204.416 43.8427 205.179 43.704 206.022 43.704C206.779 43.704 207.435 43.8267 207.99 44.072C208.544 44.3067 208.971 44.6533 209.27 45.112C209.579 45.5707 209.734 46.1093 209.734 46.728C209.734 47.0907 209.68 47.448 209.574 47.8C209.478 48.152 209.296 48.5253 209.03 48.92C208.774 49.304 208.395 49.7413 207.894 50.232L203.622 54.424L203.302 53.976H210.246V55H202.39ZM211.14 52.056V51.224L217.076 43.8H218.356L212.468 51.224L211.844 51.032H220.852V52.056H211.14ZM217.46 55V52.056L217.492 51.032V48.44H218.612V55H217.46ZM226.374 55.096C225.51 55.096 224.742 54.872 224.07 54.424C223.398 53.9653 222.87 53.3147 222.486 52.472C222.102 51.6187 221.91 50.5947 221.91 49.4C221.91 48.2053 222.102 47.1867 222.486 46.344C222.87 45.4907 223.398 44.84 224.07 44.392C224.742 43.9333 225.51 43.704 226.374 43.704C227.238 43.704 228.006 43.9333 228.678 44.392C229.35 44.84 229.878 45.4907 230.262 46.344C230.657 47.1867 230.854 48.2053 230.854 49.4C230.854 50.5947 230.657 51.6187 230.262 52.472C229.878 53.3147 229.35 53.9653 228.678 54.424C228.006 54.872 227.238 55.096 226.374 55.096ZM226.374 54.04C227.035 54.04 227.611 53.864 228.102 53.512C228.593 53.1493 228.977 52.6267 229.254 51.944C229.531 51.2507 229.67 50.4027 229.67 49.4C229.67 48.3973 229.531 47.5547 229.254 46.872C228.977 46.1787 228.593 45.656 228.102 45.304C227.611 44.9413 227.035 44.76 226.374 44.76C225.734 44.76 225.163 44.9413 224.662 45.304C224.161 45.656 223.771 46.1787 223.494 46.872C223.217 47.5547 223.078 48.3973 223.078 49.4C223.078 50.4027 223.217 51.2507 223.494 51.944C223.771 52.6267 224.161 53.1493 224.662 53.512C225.163 53.864 225.734 54.04 226.374 54.04ZM232.396 57.336L233.1 54.376L233.228 55.064C232.983 55.064 232.775 54.984 232.604 54.824C232.444 54.664 232.364 54.456 232.364 54.2C232.364 53.944 232.444 53.736 232.604 53.576C232.775 53.416 232.977 53.336 233.212 53.336C233.457 53.336 233.655 53.4213 233.804 53.592C233.964 53.7627 234.044 53.9653 234.044 54.2C234.044 54.2853 234.039 54.3707 234.028 54.456C234.017 54.5413 233.996 54.6373 233.964 54.744C233.932 54.8507 233.889 54.9787 233.836 55.128L233.164 57.336H232.396ZM240.015 55.096C239.151 55.096 238.383 54.872 237.711 54.424C237.039 53.9653 236.511 53.3147 236.127 52.472C235.743 51.6187 235.551 50.5947 235.551 49.4C235.551 48.2053 235.743 47.1867 236.127 46.344C236.511 45.4907 237.039 44.84 237.711 44.392C238.383 43.9333 239.151 43.704 240.015 43.704C240.879 43.704 241.647 43.9333 242.319 44.392C242.991 44.84 243.519 45.4907 243.903 46.344C244.297 47.1867 244.495 48.2053 244.495 49.4C244.495 50.5947 244.297 51.6187 243.903 52.472C243.519 53.3147 242.991 53.9653 242.319 54.424C241.647 54.872 240.879 55.096 240.015 55.096ZM240.015 54.04C240.676 54.04 241.252 53.864 241.743 53.512C242.233 53.1493 242.617 52.6267 242.895 51.944C243.172 51.2507 243.311 50.4027 243.311 49.4C243.311 48.3973 243.172 47.5547 242.895 46.872C242.617 46.1787 242.233 45.656 241.743 45.304C241.252 44.9413 240.676 44.76 240.015 44.76C239.375 44.76 238.804 44.9413 238.303 45.304C237.801 45.656 237.412 46.1787 237.135 46.872C236.857 47.5547 236.719 48.3973 236.719 49.4C236.719 50.4027 236.857 51.2507 237.135 51.944C237.412 52.6267 237.801 53.1493 238.303 53.512C238.804 53.864 239.375 54.04 240.015 54.04ZM250.609 55.096C249.745 55.096 248.977 54.872 248.305 54.424C247.633 53.9653 247.105 53.3147 246.721 52.472C246.337 51.6187 246.145 50.5947 246.145 49.4C246.145 48.2053 246.337 47.1867 246.721 46.344C247.105 45.4907 247.633 44.84 248.305 44.392C248.977 43.9333 249.745 43.704 250.609 43.704C251.473 43.704 252.241 43.9333 252.913 44.392C253.585 44.84 254.113 45.4907 254.497 46.344C254.891 47.1867 255.089 48.2053 255.089 49.4C255.089 50.5947 254.891 51.6187 254.497 52.472C254.113 53.3147 253.585 53.9653 252.913 54.424C252.241 54.872 251.473 55.096 250.609 55.096ZM250.609 54.04C251.27 54.04 251.846 53.864 252.337 53.512C252.827 53.1493 253.211 52.6267 253.489 51.944C253.766 51.2507 253.905 50.4027 253.905 49.4C253.905 48.3973 253.766 47.5547 253.489 46.872C253.211 46.1787 252.827 45.656 252.337 45.304C251.846 44.9413 251.27 44.76 250.609 44.76C249.969 44.76 249.398 44.9413 248.897 45.304C248.395 45.656 248.006 46.1787 247.729 46.872C247.451 47.5547 247.312 48.3973 247.312 49.4C247.312 50.4027 247.451 51.2507 247.729 51.944C248.006 52.6267 248.395 53.1493 248.897 53.512C249.398 53.864 249.969 54.04 250.609 54.04ZM261.202 55.096C260.338 55.096 259.57 54.872 258.898 54.424C258.226 53.9653 257.698 53.3147 257.314 52.472C256.93 51.6187 256.738 50.5947 256.738 49.4C256.738 48.2053 256.93 47.1867 257.314 46.344C257.698 45.4907 258.226 44.84 258.898 44.392C259.57 43.9333 260.338 43.704 261.202 43.704C262.066 43.704 262.834 43.9333 263.506 44.392C264.178 44.84 264.706 45.4907 265.09 46.344C265.485 47.1867 265.682 48.2053 265.682 49.4C265.682 50.5947 265.485 51.6187 265.09 52.472C264.706 53.3147 264.178 53.9653 263.506 54.424C262.834 54.872 262.066 55.096 261.202 55.096ZM261.202 54.04C261.864 54.04 262.44 53.864 262.93 53.512C263.421 53.1493 263.805 52.6267 264.082 51.944C264.36 51.2507 264.498 50.4027 264.498 49.4C264.498 48.3973 264.36 47.5547 264.082 46.872C263.805 46.1787 263.421 45.656 262.93 45.304C262.44 44.9413 261.864 44.76 261.202 44.76C260.562 44.76 259.992 44.9413 259.49 45.304C258.989 45.656 258.6 46.1787 258.322 46.872C258.045 47.5547 257.906 48.3973 257.906 49.4C257.906 50.4027 258.045 51.2507 258.322 51.944C258.6 52.6267 258.989 53.1493 259.49 53.512C259.992 53.864 260.562 54.04 261.202 54.04ZM277.024 55.096C275.594 55.096 274.469 54.6853 273.648 53.864C272.826 53.0427 272.416 51.8267 272.416 50.216V43.8H273.6V50.168C273.6 51.4907 273.898 52.4667 274.496 53.096C275.093 53.7253 275.936 54.04 277.024 54.04C278.122 54.04 278.97 53.7253 279.568 53.096C280.165 52.4667 280.464 51.4907 280.464 50.168V43.8H281.616V50.216C281.616 51.8267 281.205 53.0427 280.384 53.864C279.573 54.6853 278.453 55.096 277.024 55.096ZM288.271 55.096C287.439 55.096 286.639 54.9627 285.871 54.696C285.114 54.4187 284.527 54.0667 284.111 53.64L284.575 52.728C284.97 53.112 285.498 53.4373 286.159 53.704C286.831 53.96 287.535 54.088 288.271 54.088C288.975 54.088 289.546 54.0027 289.983 53.832C290.431 53.6507 290.757 53.4107 290.959 53.112C291.173 52.8133 291.279 52.4827 291.279 52.12C291.279 51.6827 291.151 51.3307 290.895 51.064C290.65 50.7973 290.325 50.5893 289.919 50.44C289.514 50.28 289.066 50.1413 288.575 50.024C288.085 49.9067 287.594 49.784 287.103 49.656C286.613 49.5173 286.159 49.336 285.743 49.112C285.338 48.888 285.007 48.5947 284.751 48.232C284.506 47.8587 284.383 47.3733 284.383 46.776C284.383 46.2213 284.527 45.7147 284.815 45.256C285.114 44.7867 285.567 44.4133 286.175 44.136C286.783 43.848 287.562 43.704 288.511 43.704C289.141 43.704 289.765 43.7947 290.383 43.976C291.002 44.1467 291.535 44.3867 291.983 44.696L291.583 45.64C291.103 45.32 290.591 45.0853 290.047 44.936C289.514 44.7867 288.997 44.712 288.495 44.712C287.823 44.712 287.269 44.8027 286.831 44.984C286.394 45.1653 286.069 45.4107 285.855 45.72C285.653 46.0187 285.551 46.36 285.551 46.744C285.551 47.1813 285.674 47.5333 285.919 47.8C286.175 48.0667 286.506 48.2747 286.911 48.424C287.327 48.5733 287.781 48.7067 288.271 48.824C288.762 48.9413 289.247 49.0693 289.727 49.208C290.218 49.3467 290.666 49.528 291.071 49.752C291.487 49.9653 291.818 50.2533 292.063 50.616C292.319 50.9787 292.447 51.4533 292.447 52.04C292.447 52.584 292.298 53.0907 291.999 53.56C291.701 54.0187 291.242 54.392 290.623 54.68C290.015 54.9573 289.231 55.096 288.271 55.096ZM295.027 55V43.8H299.587C300.782 43.8 301.827 44.04 302.723 44.52C303.63 44.9893 304.334 45.6453 304.835 46.488C305.336 47.3307 305.587 48.3013 305.587 49.4C305.587 50.4987 305.336 51.4693 304.835 52.312C304.334 53.1547 303.63 53.816 302.723 54.296C301.827 54.7653 300.782 55 299.587 55H295.027ZM296.211 53.976H299.523C300.515 53.976 301.374 53.784 302.099 53.4C302.835 53.0053 303.406 52.4667 303.811 51.784C304.216 51.0907 304.419 50.296 304.419 49.4C304.419 48.4933 304.216 47.6987 303.811 47.016C303.406 46.3333 302.835 45.8 302.099 45.416C301.374 45.0213 300.515 44.824 299.523 44.824H296.211V53.976Z" fill="#F1EAE1"/>
<path d="M36.92 87L41.96 75.8H44.008L49.064 87H46.888L42.552 76.904H43.384L39.064 87H36.92ZM39.24 84.408L39.8 82.776H45.848L46.408 84.408H39.24ZM55.0324 87.112C54.339 87.112 53.7044 86.952 53.1284 86.632C52.563 86.312 52.1097 85.832 51.7684 85.192C51.4377 84.5413 51.2724 83.72 51.2724 82.728C51.2724 81.7253 51.4324 80.904 51.7524 80.264C52.083 79.624 52.531 79.1493 53.0964 78.84C53.6617 78.52 54.307 78.36 55.0324 78.36C55.875 78.36 56.6164 78.5413 57.2564 78.904C57.907 79.2667 58.419 79.7733 58.7924 80.424C59.1764 81.0747 59.3684 81.8427 59.3684 82.728C59.3684 83.6133 59.1764 84.3867 58.7924 85.048C58.419 85.6987 57.907 86.2053 57.2564 86.568C56.6164 86.9307 55.875 87.112 55.0324 87.112ZM50.2964 90.104V78.456H52.2004V80.472L52.1364 82.744L52.2964 85.016V90.104H50.2964ZM54.8084 85.4C55.2884 85.4 55.715 85.2933 56.0884 85.08C56.4724 84.8667 56.7764 84.5573 57.0004 84.152C57.2244 83.7467 57.3364 83.272 57.3364 82.728C57.3364 82.1733 57.2244 81.6987 57.0004 81.304C56.7764 80.8987 56.4724 80.5893 56.0884 80.376C55.715 80.1627 55.2884 80.056 54.8084 80.056C54.3284 80.056 53.8964 80.1627 53.5124 80.376C53.1284 80.5893 52.8244 80.8987 52.6004 81.304C52.3764 81.6987 52.2644 82.1733 52.2644 82.728C52.2644 83.272 52.3764 83.7467 52.6004 84.152C52.8244 84.5573 53.1284 84.8667 53.5124 85.08C53.8964 85.2933 54.3284 85.4 54.8084 85.4ZM66.0011 87.112C65.3078 87.112 64.6731 86.952 64.0971 86.632C63.5318 86.312 63.0785 85.832 62.7371 85.192C62.4065 84.5413 62.2411 83.72 62.2411 82.728C62.2411 81.7253 62.4011 80.904 62.7211 80.264C63.0518 79.624 63.4998 79.1493 64.0651 78.84C64.6305 78.52 65.2758 78.36 66.0011 78.36C66.8438 78.36 67.5851 78.5413 68.2251 78.904C68.8758 79.2667 69.3878 79.7733 69.7611 80.424C70.1451 81.0747 70.3371 81.8427 70.3371 82.728C70.3371 83.6133 70.1451 84.3867 69.7611 85.048C69.3878 85.6987 68.8758 86.2053 68.2251 86.568C67.5851 86.9307 66.8438 87.112 66.0011 87.112ZM61.2651 90.104V78.456H63.1691V80.472L63.1051 82.744L63.2651 85.016V90.104H61.2651ZM65.7771 85.4C66.2571 85.4 66.6838 85.2933 67.0571 85.08C67.4411 84.8667 67.7451 84.5573 67.9691 84.152C68.1931 83.7467 68.3051 83.272 68.3051 82.728C68.3051 82.1733 68.1931 81.6987 67.9691 81.304C67.7451 80.8987 67.4411 80.5893 67.0571 80.376C66.6838 80.1627 66.2571 80.056 65.7771 80.056C65.2971 80.056 64.8651 80.1627 64.4811 80.376C64.0971 80.5893 63.7931 80.8987 63.5691 81.304C63.3451 81.6987 63.2331 82.1733 63.2331 82.728C63.2331 83.272 63.3451 83.7467 63.5691 84.152C63.7931 84.5573 64.0971 84.8667 64.4811 85.08C64.8651 85.2933 65.2971 85.4 65.7771 85.4ZM72.2339 87V75.128H74.2339V87H72.2339ZM76.8589 87V78.456H78.8589V87H76.8589ZM77.8669 77.048C77.4935 77.048 77.1842 76.9307 76.9389 76.696C76.7042 76.4613 76.5869 76.1787 76.5869 75.848C76.5869 75.5067 76.7042 75.224 76.9389 75C77.1842 74.7653 77.4935 74.648 77.8669 74.648C78.2402 74.648 78.5442 74.76 78.7789 74.984C79.0242 75.1973 79.1469 75.4693 79.1469 75.8C79.1469 76.152 79.0295 76.4507 78.7949 76.696C78.5602 76.9307 78.2509 77.048 77.8669 77.048ZM85.4039 87.112C84.5079 87.112 83.7079 86.9253 83.0039 86.552C82.3105 86.168 81.7665 85.6453 81.3719 84.984C80.9772 84.3227 80.7799 83.5707 80.7799 82.728C80.7799 81.8747 80.9772 81.1227 81.3719 80.472C81.7665 79.8107 82.3105 79.2933 83.0039 78.92C83.7079 78.5467 84.5079 78.36 85.4039 78.36C86.2359 78.36 86.9665 78.5307 87.5959 78.872C88.2359 79.2027 88.7212 79.6933 89.0519 80.344L87.5159 81.24C87.2599 80.8347 86.9452 80.536 86.5719 80.344C86.2092 80.152 85.8145 80.056 85.3879 80.056C84.8972 80.056 84.4545 80.1627 84.0599 80.376C83.6652 80.5893 83.3559 80.8987 83.1319 81.304C82.9079 81.6987 82.7959 82.1733 82.7959 82.728C82.7959 83.2827 82.9079 83.7627 83.1319 84.168C83.3559 84.5627 83.6652 84.8667 84.0599 85.08C84.4545 85.2933 84.8972 85.4 85.3879 85.4C85.8145 85.4 86.2092 85.304 86.5719 85.112C86.9452 84.92 87.2599 84.6213 87.5159 84.216L89.0519 85.112C88.7212 85.752 88.2359 86.248 87.5959 86.6C86.9665 86.9413 86.2359 87.112 85.4039 87.112ZM96.0448 87V85.272L95.9328 84.904V81.88C95.9328 81.2933 95.7568 80.84 95.4048 80.52C95.0528 80.1893 94.5194 80.024 93.8048 80.024C93.3248 80.024 92.8501 80.0987 92.3808 80.248C91.9221 80.3973 91.5328 80.6053 91.2128 80.872L90.4288 79.416C90.8874 79.064 91.4314 78.8027 92.0608 78.632C92.7008 78.4507 93.3621 78.36 94.0448 78.36C95.2821 78.36 96.2368 78.6587 96.9088 79.256C97.5914 79.8427 97.9328 80.7547 97.9328 81.992V87H96.0448ZM93.3568 87.112C92.7168 87.112 92.1568 87.0053 91.6768 86.792C91.1968 86.568 90.8234 86.264 90.5568 85.88C90.3008 85.4853 90.1728 85.0427 90.1728 84.552C90.1728 84.072 90.2848 83.64 90.5088 83.256C90.7434 82.872 91.1221 82.568 91.6448 82.344C92.1674 82.12 92.8608 82.008 93.7248 82.008H96.2048V83.336H93.8688C93.1861 83.336 92.7274 83.448 92.4928 83.672C92.2581 83.8853 92.1408 84.152 92.1408 84.472C92.1408 84.8347 92.2848 85.1227 92.5728 85.336C92.8608 85.5493 93.2608 85.656 93.7728 85.656C94.2634 85.656 94.7008 85.544 95.0848 85.32C95.4794 85.096 95.7621 84.7653 95.9328 84.328L96.2688 85.528C96.0768 86.0293 95.7301 86.4187 95.2288 86.696C94.7381 86.9733 94.1141 87.112 93.3568 87.112ZM103.716 87.112C102.777 87.112 102.052 86.872 101.539 86.392C101.028 85.9013 100.772 85.1813 100.772 84.232V76.568H102.772V84.184C102.772 84.5893 102.873 84.904 103.076 85.128C103.289 85.352 103.582 85.464 103.956 85.464C104.404 85.464 104.777 85.3467 105.076 85.112L105.636 86.536C105.401 86.728 105.113 86.872 104.772 86.968C104.43 87.064 104.078 87.112 103.716 87.112ZM99.3635 80.12V78.52H105.06V80.12H99.3635ZM107.281 87V78.456H109.281V87H107.281ZM108.289 77.048C107.915 77.048 107.606 76.9307 107.361 76.696C107.126 76.4613 107.009 76.1787 107.009 75.848C107.009 75.5067 107.126 75.224 107.361 75C107.606 74.7653 107.915 74.648 108.289 74.648C108.662 74.648 108.966 74.76 109.201 74.984C109.446 75.1973 109.569 75.4693 109.569 75.8C109.569 76.152 109.451 76.4507 109.217 76.696C108.982 76.9307 108.673 77.048 108.289 77.048ZM115.746 87.112C114.871 87.112 114.092 86.9253 113.41 86.552C112.727 86.168 112.188 85.6453 111.794 84.984C111.399 84.3227 111.202 83.5707 111.202 82.728C111.202 81.8747 111.399 81.1227 111.794 80.472C112.188 79.8107 112.727 79.2933 113.41 78.92C114.092 78.5467 114.871 78.36 115.746 78.36C116.631 78.36 117.415 78.5467 118.098 78.92C118.791 79.2933 119.33 79.8053 119.714 80.456C120.108 81.1067 120.306 81.864 120.306 82.728C120.306 83.5707 120.108 84.3227 119.714 84.984C119.33 85.6453 118.791 86.168 118.098 86.552C117.415 86.9253 116.631 87.112 115.746 87.112ZM115.746 85.4C116.236 85.4 116.674 85.2933 117.058 85.08C117.442 84.8667 117.74 84.5573 117.954 84.152C118.178 83.7467 118.29 83.272 118.29 82.728C118.29 82.1733 118.178 81.6987 117.954 81.304C117.74 80.8987 117.442 80.5893 117.058 80.376C116.674 80.1627 116.242 80.056 115.762 80.056C115.271 80.056 114.834 80.1627 114.45 80.376C114.076 80.5893 113.778 80.8987 113.554 81.304C113.33 81.6987 113.218 82.1733 113.218 82.728C113.218 83.272 113.33 83.7467 113.554 84.152C113.778 84.5573 114.076 84.8667 114.45 85.08C114.834 85.2933 115.266 85.4 115.746 85.4ZM127.066 78.36C127.749 78.36 128.357 78.4933 128.89 78.76C129.434 79.0267 129.861 79.4373 130.17 79.992C130.48 80.536 130.634 81.24 130.634 82.104V87H128.634V82.36C128.634 81.6027 128.453 81.0373 128.09 80.664C127.738 80.2907 127.242 80.104 126.602 80.104C126.133 80.104 125.717 80.2 125.354 80.392C124.992 80.584 124.709 80.872 124.506 81.256C124.314 81.6293 124.218 82.104 124.218 82.68V87H122.218V78.456H124.122V80.76L123.786 80.056C124.085 79.512 124.517 79.096 125.082 78.808C125.658 78.5093 126.32 78.36 127.066 78.36ZM135.811 87.112C135.097 87.112 134.409 87.0213 133.747 86.84C133.097 86.648 132.579 86.4187 132.195 86.152L132.963 84.632C133.347 84.8773 133.806 85.08 134.339 85.24C134.873 85.4 135.406 85.48 135.939 85.48C136.569 85.48 137.022 85.3947 137.299 85.224C137.587 85.0533 137.731 84.824 137.731 84.536C137.731 84.3013 137.635 84.1253 137.443 84.008C137.251 83.88 137.001 83.784 136.691 83.72C136.382 83.656 136.035 83.5973 135.651 83.544C135.278 83.4907 134.899 83.4213 134.515 83.336C134.142 83.24 133.801 83.1067 133.491 82.936C133.182 82.7547 132.931 82.5147 132.739 82.216C132.547 81.9173 132.451 81.5227 132.451 81.032C132.451 80.488 132.606 80.0187 132.915 79.624C133.225 79.2187 133.657 78.9093 134.211 78.696C134.777 78.472 135.443 78.36 136.211 78.36C136.787 78.36 137.369 78.424 137.955 78.552C138.542 78.68 139.027 78.8613 139.411 79.096L138.643 80.616C138.238 80.3707 137.827 80.2053 137.411 80.12C137.006 80.024 136.601 79.976 136.195 79.976C135.587 79.976 135.134 80.0667 134.835 80.248C134.547 80.4293 134.403 80.6587 134.403 80.936C134.403 81.192 134.499 81.384 134.691 81.512C134.883 81.64 135.134 81.7413 135.443 81.816C135.753 81.8907 136.094 81.9547 136.467 82.008C136.851 82.0507 137.23 82.12 137.603 82.216C137.977 82.312 138.318 82.4453 138.627 82.616C138.947 82.776 139.203 83.0053 139.395 83.304C139.587 83.6027 139.683 83.992 139.683 84.472C139.683 85.0053 139.523 85.4693 139.203 85.864C138.894 86.2587 138.451 86.568 137.875 86.792C137.299 87.0053 136.611 87.112 135.811 87.112ZM142.046 81.016C141.683 81.016 141.374 80.8933 141.118 80.648C140.862 80.392 140.734 80.072 140.734 79.688C140.734 79.2827 140.862 78.9627 141.118 78.728C141.374 78.4827 141.683 78.36 142.046 78.36C142.408 78.36 142.718 78.4827 142.974 78.728C143.23 78.9627 143.358 79.2827 143.358 79.688C143.358 80.072 143.23 80.392 142.974 80.648C142.718 80.8933 142.408 81.016 142.046 81.016ZM142.046 87.112C141.683 87.112 141.374 86.9893 141.118 86.744C140.862 86.488 140.734 86.168 140.734 85.784C140.734 85.3787 140.862 85.0587 141.118 84.824C141.374 84.5787 141.683 84.456 142.046 84.456C142.408 84.456 142.718 84.5787 142.974 84.824C143.23 85.0587 143.358 85.3787 143.358 85.784C143.358 86.168 143.23 86.488 142.974 86.744C142.718 86.9893 142.408 87.112 142.046 87.112ZM155.11 87.096C154.267 87.096 153.489 86.9573 152.774 86.68C152.059 86.392 151.441 85.992 150.918 85.48C150.395 84.968 149.985 84.3653 149.686 83.672C149.398 82.9787 149.254 82.2213 149.254 81.4C149.254 80.5787 149.398 79.8213 149.686 79.128C149.985 78.4347 150.395 77.832 150.918 77.32C151.451 76.808 152.075 76.4133 152.79 76.136C153.505 75.848 154.283 75.704 155.126 75.704C155.937 75.704 156.699 75.8427 157.414 76.12C158.129 76.3867 158.731 76.792 159.222 77.336L158.47 78.088C158.011 77.6187 157.505 77.2827 156.95 77.08C156.395 76.8667 155.798 76.76 155.158 76.76C154.486 76.76 153.862 76.8773 153.286 77.112C152.71 77.336 152.209 77.6613 151.782 78.088C151.355 78.504 151.019 78.9947 150.774 79.56C150.539 80.1147 150.422 80.728 150.422 81.4C150.422 82.072 150.539 82.6907 150.774 83.256C151.019 83.8107 151.355 84.3013 151.782 84.728C152.209 85.144 152.71 85.4693 153.286 85.704C153.862 85.928 154.486 86.04 155.158 86.04C155.798 86.04 156.395 85.9333 156.95 85.72C157.505 85.5067 158.011 85.1653 158.47 84.696L159.222 85.448C158.731 85.992 158.129 86.4027 157.414 86.68C156.699 86.9573 155.931 87.096 155.11 87.096ZM164.555 87.08C163.744 87.08 163.014 86.8987 162.363 86.536C161.723 86.1627 161.216 85.656 160.843 85.016C160.47 84.3653 160.283 83.624 160.283 82.792C160.283 81.9493 160.47 81.208 160.843 80.568C161.216 79.928 161.723 79.4267 162.363 79.064C163.003 78.7013 163.734 78.52 164.555 78.52C165.387 78.52 166.123 78.7013 166.763 79.064C167.414 79.4267 167.92 79.928 168.283 80.568C168.656 81.208 168.843 81.9493 168.843 82.792C168.843 83.624 168.656 84.3653 168.283 85.016C167.92 85.656 167.414 86.1627 166.763 86.536C166.112 86.8987 165.376 87.08 164.555 87.08ZM164.555 86.072C165.163 86.072 165.702 85.9387 166.171 85.672C166.64 85.3947 167.008 85.0107 167.275 84.52C167.552 84.0187 167.691 83.4427 167.691 82.792C167.691 82.1307 167.552 81.5547 167.275 81.064C167.008 80.5733 166.64 80.1947 166.171 79.928C165.702 79.6507 165.168 79.512 164.571 79.512C163.974 79.512 163.44 79.6507 162.971 79.928C162.502 80.1947 162.128 80.5733 161.851 81.064C161.574 81.5547 161.435 82.1307 161.435 82.792C161.435 83.4427 161.574 84.0187 161.851 84.52C162.128 85.0107 162.502 85.3947 162.971 85.672C163.44 85.9387 163.968 86.072 164.555 86.072ZM175.45 78.52C176.133 78.52 176.73 78.6533 177.242 78.92C177.765 79.176 178.17 79.5707 178.458 80.104C178.757 80.6373 178.906 81.3093 178.906 82.12V87H177.77V82.232C177.77 81.3467 177.546 80.68 177.098 80.232C176.661 79.7733 176.042 79.544 175.242 79.544C174.645 79.544 174.122 79.6667 173.674 79.912C173.237 80.1467 172.895 80.4933 172.65 80.952C172.415 81.4 172.298 81.944 172.298 82.584V87H171.162V75.128H172.298V80.904L172.074 80.472C172.341 79.864 172.767 79.3893 173.354 79.048C173.941 78.696 174.639 78.52 175.45 78.52ZM185.399 87.08C184.588 87.08 183.857 86.8987 183.207 86.536C182.567 86.1627 182.06 85.656 181.687 85.016C181.313 84.3653 181.127 83.624 181.127 82.792C181.127 81.9493 181.313 81.208 181.687 80.568C182.06 79.928 182.567 79.4267 183.207 79.064C183.847 78.7013 184.577 78.52 185.399 78.52C186.231 78.52 186.967 78.7013 187.607 79.064C188.257 79.4267 188.764 79.928 189.127 80.568C189.5 81.208 189.687 81.9493 189.687 82.792C189.687 83.624 189.5 84.3653 189.127 85.016C188.764 85.656 188.257 86.1627 187.607 86.536C186.956 86.8987 186.22 87.08 185.399 87.08ZM185.399 86.072C186.007 86.072 186.545 85.9387 187.015 85.672C187.484 85.3947 187.852 85.0107 188.119 84.52C188.396 84.0187 188.535 83.4427 188.535 82.792C188.535 82.1307 188.396 81.5547 188.119 81.064C187.852 80.5733 187.484 80.1947 187.015 79.928C186.545 79.6507 186.012 79.512 185.415 79.512C184.817 79.512 184.284 79.6507 183.815 79.928C183.345 80.1947 182.972 80.5733 182.695 81.064C182.417 81.5547 182.279 82.1307 182.279 82.792C182.279 83.4427 182.417 84.0187 182.695 84.52C182.972 85.0107 183.345 85.3947 183.815 85.672C184.284 85.9387 184.812 86.072 185.399 86.072ZM192.006 87V78.6H193.094V80.888L192.982 80.488C193.217 79.848 193.611 79.3627 194.166 79.032C194.721 78.6907 195.409 78.52 196.23 78.52V79.624C196.187 79.624 196.145 79.624 196.102 79.624C196.059 79.6133 196.017 79.608 195.974 79.608C195.089 79.608 194.395 79.88 193.894 80.424C193.393 80.9573 193.142 81.72 193.142 82.712V87H192.006ZM201.318 87.08C200.529 87.08 199.921 86.8667 199.494 86.44C199.067 86.0133 198.854 85.4107 198.854 84.632V76.744H199.99V84.568C199.99 85.0587 200.113 85.4373 200.358 85.704C200.614 85.9707 200.977 86.104 201.446 86.104C201.947 86.104 202.363 85.96 202.694 85.672L203.094 86.488C202.87 86.6907 202.598 86.84 202.278 86.936C201.969 87.032 201.649 87.08 201.318 87.08ZM197.35 79.544V78.6H202.55V79.544H197.35ZM207.418 87.08C206.725 87.08 206.069 86.984 205.45 86.792C204.831 86.5893 204.346 86.3387 203.994 86.04L204.506 85.144C204.847 85.4 205.285 85.624 205.818 85.816C206.351 85.9973 206.911 86.088 207.498 86.088C208.298 86.088 208.874 85.9653 209.226 85.72C209.578 85.464 209.754 85.128 209.754 84.712C209.754 84.4027 209.653 84.1627 209.45 83.992C209.258 83.8107 209.002 83.6773 208.682 83.592C208.362 83.496 208.005 83.416 207.61 83.352C207.215 83.288 206.821 83.2133 206.426 83.128C206.042 83.0427 205.69 82.92 205.37 82.76C205.05 82.5893 204.789 82.36 204.586 82.072C204.394 81.784 204.298 81.4 204.298 80.92C204.298 80.4613 204.426 80.0507 204.682 79.688C204.938 79.3253 205.311 79.0427 205.802 78.84C206.303 78.6267 206.911 78.52 207.626 78.52C208.17 78.52 208.714 78.5947 209.258 78.744C209.802 78.8827 210.25 79.0693 210.602 79.304L210.106 80.216C209.733 79.96 209.333 79.7787 208.906 79.672C208.479 79.5547 208.053 79.496 207.626 79.496C206.869 79.496 206.309 79.6293 205.946 79.896C205.594 80.152 205.418 80.4827 205.418 80.888C205.418 81.208 205.514 81.4587 205.706 81.64C205.909 81.8213 206.17 81.9653 206.49 82.072C206.821 82.168 207.178 82.248 207.562 82.312C207.957 82.376 208.346 82.456 208.73 82.552C209.125 82.6373 209.482 82.76 209.802 82.92C210.133 83.0693 210.394 83.288 210.586 83.576C210.789 83.8533 210.89 84.2213 210.89 84.68C210.89 85.1707 210.751 85.5973 210.474 85.96C210.207 86.312 209.813 86.5893 209.29 86.792C208.778 86.984 208.154 87.08 207.418 87.08ZM220.73 87.08C219.855 87.08 219.087 86.8987 218.426 86.536C217.765 86.1627 217.247 85.656 216.874 85.016C216.501 84.3653 216.314 83.624 216.314 82.792C216.314 81.96 216.49 81.224 216.842 80.584C217.205 79.944 217.695 79.4427 218.314 79.08C218.943 78.7067 219.647 78.52 220.426 78.52C221.215 78.52 221.914 78.7013 222.522 79.064C223.141 79.416 223.626 79.9173 223.978 80.568C224.33 81.208 224.506 81.9493 224.506 82.792C224.506 82.8453 224.501 82.904 224.49 82.968C224.49 83.0213 224.49 83.08 224.49 83.144H217.178V82.296H223.882L223.434 82.632C223.434 82.024 223.301 81.4853 223.034 81.016C222.778 80.536 222.426 80.1627 221.978 79.896C221.53 79.6293 221.013 79.496 220.426 79.496C219.85 79.496 219.333 79.6293 218.874 79.896C218.415 80.1627 218.058 80.536 217.802 81.016C217.546 81.496 217.418 82.0453 217.418 82.664V82.84C217.418 83.48 217.557 84.0453 217.834 84.536C218.122 85.016 218.517 85.3947 219.018 85.672C219.53 85.9387 220.111 86.072 220.762 86.072C221.274 86.072 221.749 85.9813 222.186 85.8C222.634 85.6187 223.018 85.3413 223.338 84.968L223.978 85.704C223.605 86.152 223.135 86.4933 222.57 86.728C222.015 86.9627 221.402 87.08 220.73 87.08ZM231.848 87V85.144L231.8 84.84V81.736C231.8 81.0213 231.597 80.472 231.192 80.088C230.797 79.704 230.205 79.512 229.416 79.512C228.872 79.512 228.355 79.6027 227.864 79.784C227.373 79.9653 226.957 80.2053 226.616 80.504L226.104 79.656C226.531 79.2933 227.043 79.016 227.64 78.824C228.237 78.6213 228.867 78.52 229.528 78.52C230.616 78.52 231.453 78.792 232.04 79.336C232.637 79.8693 232.936 80.6853 232.936 81.784V87H231.848ZM228.952 87.08C228.323 87.08 227.773 86.9787 227.304 86.776C226.845 86.5627 226.493 86.2747 226.248 85.912C226.003 85.5387 225.88 85.112 225.88 84.632C225.88 84.1947 225.981 83.8 226.184 83.448C226.397 83.0853 226.739 82.7973 227.208 82.584C227.688 82.36 228.328 82.248 229.128 82.248H232.024V83.096H229.16C228.349 83.096 227.784 83.24 227.464 83.528C227.155 83.816 227 84.1733 227 84.6C227 85.08 227.187 85.464 227.56 85.752C227.933 86.04 228.456 86.184 229.128 86.184C229.768 86.184 230.317 86.04 230.776 85.752C231.245 85.4533 231.587 85.0267 231.8 84.472L232.056 85.256C231.843 85.8107 231.469 86.2533 230.936 86.584C230.413 86.9147 229.752 87.08 228.952 87.08ZM239.51 87.08C238.678 87.08 237.931 86.8987 237.27 86.536C236.619 86.1627 236.107 85.656 235.734 85.016C235.36 84.3653 235.174 83.624 235.174 82.792C235.174 81.9493 235.36 81.208 235.734 80.568C236.107 79.928 236.619 79.4267 237.27 79.064C237.931 78.7013 238.678 78.52 239.51 78.52C240.224 78.52 240.87 78.6587 241.446 78.936C242.022 79.2133 242.475 79.6293 242.806 80.184L241.958 80.76C241.67 80.3333 241.312 80.0187 240.886 79.816C240.459 79.6133 239.995 79.512 239.494 79.512C238.896 79.512 238.358 79.6507 237.878 79.928C237.398 80.1947 237.019 80.5733 236.742 81.064C236.464 81.5547 236.326 82.1307 236.326 82.792C236.326 83.4533 236.464 84.0293 236.742 84.52C237.019 85.0107 237.398 85.3947 237.878 85.672C238.358 85.9387 238.896 86.072 239.494 86.072C239.995 86.072 240.459 85.9707 240.886 85.768C241.312 85.5653 241.67 85.256 241.958 84.84L242.806 85.416C242.475 85.96 242.022 86.376 241.446 86.664C240.87 86.9413 240.224 87.08 239.51 87.08ZM249.2 78.52C249.883 78.52 250.48 78.6533 250.992 78.92C251.515 79.176 251.92 79.5707 252.208 80.104C252.507 80.6373 252.656 81.3093 252.656 82.12V87H251.52V82.232C251.52 81.3467 251.296 80.68 250.848 80.232C250.411 79.7733 249.792 79.544 248.992 79.544C248.395 79.544 247.872 79.6667 247.424 79.912C246.987 80.1467 246.645 80.4933 246.4 80.952C246.165 81.4 246.048 81.944 246.048 82.584V87H244.912V75.128H246.048V80.904L245.824 80.472C246.091 79.864 246.517 79.3893 247.104 79.048C247.691 78.696 248.389 78.52 249.2 78.52ZM263.256 87.08C262.456 87.08 261.736 86.8987 261.096 86.536C260.467 86.1733 259.971 85.672 259.608 85.032C259.245 84.392 259.064 83.6453 259.064 82.792C259.064 81.9493 259.245 81.208 259.608 80.568C259.971 79.9173 260.467 79.416 261.096 79.064C261.736 78.7013 262.456 78.52 263.256 78.52C264.003 78.52 264.664 78.6853 265.24 79.016C265.827 79.3467 266.291 79.832 266.632 80.472C266.973 81.1013 267.144 81.8747 267.144 82.792C267.144 83.7093 266.968 84.488 266.616 85.128C266.275 85.7573 265.811 86.2427 265.224 86.584C264.648 86.9147 263.992 87.08 263.256 87.08ZM263.336 86.072C263.933 86.072 264.467 85.9387 264.936 85.672C265.416 85.3947 265.789 85.0107 266.056 84.52C266.333 84.0187 266.472 83.4427 266.472 82.792C266.472 82.1413 266.333 81.5707 266.056 81.08C265.789 80.5893 265.416 80.2053 264.936 79.928C264.467 79.6507 263.933 79.512 263.336 79.512C262.749 79.512 262.221 79.6507 261.752 79.928C261.283 80.2053 260.909 80.5893 260.632 81.08C260.355 81.5707 260.216 82.1413 260.216 82.792C260.216 83.4427 260.355 84.0187 260.632 84.52C260.909 85.0107 261.283 85.3947 261.752 85.672C262.221 85.9387 262.749 86.072 263.336 86.072ZM266.456 90.104V84.504L266.616 82.808L266.504 81.128V78.6H267.592V90.104H266.456ZM274.228 87.08C273.513 87.08 272.889 86.9467 272.356 86.68C271.823 86.4133 271.407 86.0133 271.108 85.48C270.82 84.9467 270.676 84.28 270.676 83.48V78.6H271.812V83.352C271.812 84.248 272.031 84.9253 272.468 85.384C272.916 85.832 273.54 86.056 274.34 86.056C274.927 86.056 275.433 85.9387 275.86 85.704C276.297 85.4587 276.628 85.1067 276.852 84.648C277.087 84.1893 277.204 83.64 277.204 83V78.6H278.34V87H277.252V84.696L277.428 85.112C277.161 85.7307 276.745 86.216 276.18 86.568C275.625 86.9093 274.975 87.08 274.228 87.08ZM286.77 87V85.144L286.722 84.84V81.736C286.722 81.0213 286.519 80.472 286.114 80.088C285.719 79.704 285.127 79.512 284.338 79.512C283.794 79.512 283.277 79.6027 282.786 79.784C282.295 79.9653 281.879 80.2053 281.538 80.504L281.026 79.656C281.453 79.2933 281.965 79.016 282.562 78.824C283.159 78.6213 283.789 78.52 284.45 78.52C285.538 78.52 286.375 78.792 286.962 79.336C287.559 79.8693 287.858 80.6853 287.858 81.784V87H286.77ZM283.874 87.08C283.245 87.08 282.695 86.9787 282.226 86.776C281.767 86.5627 281.415 86.2747 281.17 85.912C280.925 85.5387 280.802 85.112 280.802 84.632C280.802 84.1947 280.903 83.8 281.106 83.448C281.319 83.0853 281.661 82.7973 282.13 82.584C282.61 82.36 283.25 82.248 284.05 82.248H286.946V83.096H284.082C283.271 83.096 282.706 83.24 282.386 83.528C282.077 83.816 281.922 84.1733 281.922 84.6C281.922 85.08 282.109 85.464 282.482 85.752C282.855 86.04 283.378 86.184 284.05 86.184C284.69 86.184 285.239 86.04 285.698 85.752C286.167 85.4533 286.509 85.0267 286.722 84.472L286.978 85.256C286.765 85.8107 286.391 86.2533 285.858 86.584C285.335 86.9147 284.674 87.08 283.874 87.08ZM290.943 87V78.6H292.031V80.888L291.919 80.488C292.154 79.848 292.549 79.3627 293.103 79.032C293.658 78.6907 294.346 78.52 295.167 78.52V79.624C295.125 79.624 295.082 79.624 295.039 79.624C294.997 79.6133 294.954 79.608 294.911 79.608C294.026 79.608 293.333 79.88 292.831 80.424C292.33 80.9573 292.079 81.72 292.079 82.712V87H290.943ZM300.256 87.08C299.466 87.08 298.858 86.8667 298.432 86.44C298.005 86.0133 297.792 85.4107 297.792 84.632V76.744H298.928V84.568C298.928 85.0587 299.05 85.4373 299.296 85.704C299.552 85.9707 299.914 86.104 300.384 86.104C300.885 86.104 301.301 85.96 301.632 85.672L302.032 86.488C301.808 86.6907 301.536 86.84 301.216 86.936C300.906 87.032 300.586 87.08 300.256 87.08ZM296.288 79.544V78.6H301.488V79.544H296.288ZM307.371 87.08C306.496 87.08 305.728 86.8987 305.067 86.536C304.405 86.1627 303.888 85.656 303.515 85.016C303.141 84.3653 302.955 83.624 302.955 82.792C302.955 81.96 303.131 81.224 303.483 80.584C303.845 79.944 304.336 79.4427 304.955 79.08C305.584 78.7067 306.288 78.52 307.067 78.52C307.856 78.52 308.555 78.7013 309.163 79.064C309.781 79.416 310.267 79.9173 310.619 80.568C310.971 81.208 311.147 81.9493 311.147 82.792C311.147 82.8453 311.141 82.904 311.131 82.968C311.131 83.0213 311.131 83.08 311.131 83.144H303.819V82.296H310.523L310.075 82.632C310.075 82.024 309.941 81.4853 309.675 81.016C309.419 80.536 309.067 80.1627 308.619 79.896C308.171 79.6293 307.653 79.496 307.067 79.496C306.491 79.496 305.973 79.6293 305.515 79.896C305.056 80.1627 304.699 80.536 304.443 81.016C304.187 81.496 304.059 82.0453 304.059 82.664V82.84C304.059 83.48 304.197 84.0453 304.475 84.536C304.763 85.016 305.157 85.3947 305.659 85.672C306.171 85.9387 306.752 86.072 307.403 86.072C307.915 86.072 308.389 85.9813 308.827 85.8C309.275 85.6187 309.659 85.3413 309.979 84.968L310.619 85.704C310.245 86.152 309.776 86.4933 309.211 86.728C308.656 86.9627 308.043 87.08 307.371 87.08ZM313.459 87V78.6H314.547V80.888L314.435 80.488C314.67 79.848 315.064 79.3627 315.619 79.032C316.174 78.6907 316.862 78.52 317.683 78.52V79.624C317.64 79.624 317.598 79.624 317.555 79.624C317.512 79.6133 317.47 79.608 317.427 79.608C316.542 79.608 315.848 79.88 315.347 80.424C314.846 80.9573 314.595 81.72 314.595 82.712V87H313.459Z" fill="#F1EAE1"/>
<defs>
<filter id="filter0_d_155_431" x="0" y="0" width="443" height="138" filterUnits="userSpaceOnUse" color-interpolation-filters="sRGB">
<feFlood flood-opacity="0" result="BackgroundImageFix"/>
<feColorMatrix in="SourceAlpha" type="matrix" values="0 0 0 0 0 0 0 0 0 0 0 0 0 0 0 0 0 0 127 0" result="hardAlpha"/>
<feOffset dy="4"/>
<feGaussianBlur stdDeviation="2"/>
<feComposite in2="hardAlpha" operator="out"/>
<feColorMatrix type="matrix" values="0 0 0 0 0 0 0 0 0 0 0 0 0 0 0 0 0 0 0.25 0"/>
<feBlend mode="normal" in2="BackgroundImageFix" result="effect1_dropShadow_155_431"/>
<feBlend mode="normal" in="SourceGraphic" in2="effect1_dropShadow_155_431" result="shape"/>
</filter>
</defs>
</svg>
