<svg width="443" height="138" viewBox="0 0 443 138" fill="none" xmlns="http://www.w3.org/2000/svg">
<g filter="url(#filter0_d_184_250)">
<rect x="4" width="435" height="130" rx="20" fill="#2A2D39"/>
<rect x="4.375" y="0.375" width="434.25" height="129.25" rx="19.625" stroke="#F1EAE1" stroke-width="0.75"/>
</g>
<path d="M36.92 55L41.96 43.8H44.008L49.064 55H46.888L42.552 44.904H43.384L39.064 55H36.92ZM39.24 52.408L39.8 50.776H45.848L46.408 52.408H39.24ZM61.0804 46.36C61.763 46.36 62.3657 46.4933 62.8884 46.76C63.4217 47.0267 63.8377 47.4373 64.1364 47.992C64.435 48.536 64.5844 49.24 64.5844 50.104V55H62.5844V50.36C62.5844 49.6027 62.419 49.0373 62.0884 48.664C61.7577 48.2907 61.283 48.104 60.6644 48.104C60.227 48.104 59.8377 48.2 59.4964 48.392C59.1657 48.584 58.9044 48.8667 58.7124 49.24C58.531 49.6133 58.4404 50.088 58.4404 50.664V55H56.4404V50.36C56.4404 49.6027 56.275 49.0373 55.9444 48.664C55.6137 48.2907 55.139 48.104 54.5204 48.104C54.083 48.104 53.6937 48.2 53.3524 48.392C53.0217 48.584 52.7604 48.8667 52.5684 49.24C52.387 49.6133 52.2964 50.088 52.2964 50.664V55H50.2964V46.456H52.2004V48.728L51.8644 48.056C52.1524 47.5013 52.5684 47.08 53.1124 46.792C53.667 46.504 54.2964 46.36 55.0004 46.36C55.8004 46.36 56.4937 46.5573 57.0804 46.952C57.6777 47.3467 58.0724 47.944 58.2644 48.744L57.4804 48.472C57.7577 47.832 58.2164 47.32 58.8564 46.936C59.4964 46.552 60.2377 46.36 61.0804 46.36ZM70.9958 55.112C70.1211 55.112 69.3424 54.9253 68.6598 54.552C67.9771 54.168 67.4384 53.6453 67.0438 52.984C66.6491 52.3227 66.4518 51.5707 66.4518 50.728C66.4518 49.8747 66.6491 49.1227 67.0438 48.472C67.4384 47.8107 67.9771 47.2933 68.6598 46.92C69.3424 46.5467 70.1211 46.36 70.9958 46.36C71.8811 46.36 72.6651 46.5467 73.3478 46.92C74.0411 47.2933 74.5798 47.8053 74.9638 48.456C75.3584 49.1067 75.5558 49.864 75.5558 50.728C75.5558 51.5707 75.3584 52.3227 74.9638 52.984C74.5798 53.6453 74.0411 54.168 73.3478 54.552C72.6651 54.9253 71.8811 55.112 70.9958 55.112ZM70.9958 53.4C71.4864 53.4 71.9238 53.2933 72.3078 53.08C72.6918 52.8667 72.9904 52.5573 73.2038 52.152C73.4278 51.7467 73.5398 51.272 73.5398 50.728C73.5398 50.1733 73.4278 49.6987 73.2038 49.304C72.9904 48.8987 72.6918 48.5893 72.3078 48.376C71.9238 48.1627 71.4918 48.056 71.0118 48.056C70.5211 48.056 70.0838 48.1627 69.6998 48.376C69.3264 48.5893 69.0278 48.8987 68.8038 49.304C68.5798 49.6987 68.4678 50.1733 68.4678 50.728C68.4678 51.272 68.5798 51.7467 68.8038 52.152C69.0278 52.5573 69.3264 52.8667 69.6998 53.08C70.0838 53.2933 70.5158 53.4 70.9958 53.4ZM81.0843 55.112C80.3589 55.112 79.7189 54.9787 79.1643 54.712C78.6096 54.4347 78.1776 54.0187 77.8683 53.464C77.5589 52.8987 77.4043 52.1893 77.4043 51.336V46.456H79.4043V51.064C79.4043 51.832 79.5749 52.408 79.9163 52.792C80.2683 53.1653 80.7643 53.352 81.4043 53.352C81.8736 53.352 82.2789 53.256 82.6203 53.064C82.9723 52.872 83.2443 52.584 83.4363 52.2C83.6389 51.816 83.7403 51.3413 83.7403 50.776V46.456H85.7403V55H83.8363V52.696L84.1723 53.4C83.8843 53.9547 83.4629 54.3813 82.9083 54.68C82.3536 54.968 81.7456 55.112 81.0843 55.112ZM93.2069 46.36C93.8895 46.36 94.4975 46.4933 95.0309 46.76C95.5749 47.0267 96.0015 47.4373 96.3109 47.992C96.6202 48.536 96.7749 49.24 96.7749 50.104V55H94.7749V50.36C94.7749 49.6027 94.5935 49.0373 94.2309 48.664C93.8789 48.2907 93.3829 48.104 92.7429 48.104C92.2735 48.104 91.8575 48.2 91.4949 48.392C91.1322 48.584 90.8495 48.872 90.6469 49.256C90.4549 49.6293 90.3589 50.104 90.3589 50.68V55H88.3589V46.456H90.2629V48.76L89.9269 48.056C90.2255 47.512 90.6575 47.096 91.2229 46.808C91.7989 46.5093 92.4602 46.36 93.2069 46.36ZM102.528 55.112C101.589 55.112 100.864 54.872 100.352 54.392C99.84 53.9013 99.584 53.1813 99.584 52.232V44.568H101.584V52.184C101.584 52.5893 101.685 52.904 101.888 53.128C102.101 53.352 102.395 53.464 102.768 53.464C103.216 53.464 103.589 53.3467 103.888 53.112L104.448 54.536C104.213 54.728 103.925 54.872 103.584 54.968C103.243 55.064 102.891 55.112 102.528 55.112ZM98.176 48.12V46.52H103.872V48.12H98.176ZM106.733 49.016C106.371 49.016 106.061 48.8933 105.805 48.648C105.549 48.392 105.421 48.072 105.421 47.688C105.421 47.2827 105.549 46.9627 105.805 46.728C106.061 46.4827 106.371 46.36 106.733 46.36C107.096 46.36 107.405 46.4827 107.661 46.728C107.917 46.9627 108.045 47.2827 108.045 47.688C108.045 48.072 107.917 48.392 107.661 48.648C107.405 48.8933 107.096 49.016 106.733 49.016ZM106.733 55.112C106.371 55.112 106.061 54.9893 105.805 54.744C105.549 54.488 105.421 54.168 105.421 53.784C105.421 53.3787 105.549 53.0587 105.805 52.824C106.061 52.5787 106.371 52.456 106.733 52.456C107.096 52.456 107.405 52.5787 107.661 52.824C107.917 53.0587 108.045 53.3787 108.045 53.784C108.045 54.168 107.917 54.488 107.661 54.744C107.405 54.9893 107.096 55.112 106.733 55.112ZM116.859 55V45.46H113.169V44.5H121.659V45.46H117.969V55H116.859ZM123.208 55V47.125H124.273V55H123.208ZM123.748 45.385C123.528 45.385 123.343 45.31 123.193 45.16C123.043 45.01 122.968 44.83 122.968 44.62C122.968 44.41 123.043 44.235 123.193 44.095C123.343 43.945 123.528 43.87 123.748 43.87C123.968 43.87 124.153 43.94 124.303 44.08C124.453 44.22 124.528 44.395 124.528 44.605C124.528 44.825 124.453 45.01 124.303 45.16C124.163 45.31 123.978 45.385 123.748 45.385ZM130.581 55.075C129.761 55.075 129.041 54.905 128.421 54.565C127.801 54.215 127.316 53.74 126.966 53.14C126.616 52.53 126.441 51.835 126.441 51.055C126.441 50.275 126.606 49.585 126.936 48.985C127.276 48.385 127.736 47.915 128.316 47.575C128.906 47.225 129.566 47.05 130.296 47.05C131.036 47.05 131.691 47.22 132.261 47.56C132.841 47.89 133.296 48.36 133.626 48.97C133.956 49.57 134.121 50.265 134.121 51.055C134.121 51.105 134.116 51.16 134.106 51.22C134.106 51.27 134.106 51.325 134.106 51.385H127.251V50.59H133.536L133.116 50.905C133.116 50.335 132.991 49.83 132.741 49.39C132.501 48.94 132.171 48.59 131.751 48.34C131.331 48.09 130.846 47.965 130.296 47.965C129.756 47.965 129.271 48.09 128.841 48.34C128.411 48.59 128.076 48.94 127.836 49.39C127.596 49.84 127.476 50.355 127.476 50.935V51.1C127.476 51.7 127.606 52.23 127.866 52.69C128.136 53.14 128.506 53.495 128.976 53.755C129.456 54.005 130.001 54.13 130.611 54.13C131.091 54.13 131.536 54.045 131.946 53.875C132.366 53.705 132.726 53.445 133.026 53.095L133.626 53.785C133.276 54.205 132.836 54.525 132.306 54.745C131.786 54.965 131.211 55.075 130.581 55.075ZM136.289 55V47.125H137.309V49.27L137.204 48.895C137.424 48.295 137.794 47.84 138.314 47.53C138.834 47.21 139.479 47.05 140.249 47.05V48.085C140.209 48.085 140.169 48.085 140.129 48.085C140.089 48.075 140.049 48.07 140.009 48.07C139.179 48.07 138.529 48.325 138.059 48.835C137.589 49.335 137.354 50.05 137.354 50.98V55H136.289ZM145.464 55.075C144.644 55.075 143.924 54.905 143.304 54.565C142.684 54.215 142.199 53.74 141.849 53.14C141.499 52.53 141.324 51.835 141.324 51.055C141.324 50.275 141.489 49.585 141.819 48.985C142.159 48.385 142.619 47.915 143.199 47.575C143.789 47.225 144.449 47.05 145.179 47.05C145.919 47.05 146.574 47.22 147.144 47.56C147.724 47.89 148.179 48.36 148.509 48.97C148.839 49.57 149.004 50.265 149.004 51.055C149.004 51.105 148.999 51.16 148.989 51.22C148.989 51.27 148.989 51.325 148.989 51.385H142.134V50.59H148.419L147.999 50.905C147.999 50.335 147.874 49.83 147.624 49.39C147.384 48.94 147.054 48.59 146.634 48.34C146.214 48.09 145.729 47.965 145.179 47.965C144.639 47.965 144.154 48.09 143.724 48.34C143.294 48.59 142.959 48.94 142.719 49.39C142.479 49.84 142.359 50.355 142.359 50.935V51.1C142.359 51.7 142.489 52.23 142.749 52.69C143.019 53.14 143.389 53.495 143.859 53.755C144.339 54.005 144.884 54.13 145.494 54.13C145.974 54.13 146.419 54.045 146.829 53.875C147.249 53.705 147.609 53.445 147.909 53.095L148.509 53.785C148.159 54.205 147.719 54.525 147.189 54.745C146.669 54.965 146.094 55.075 145.464 55.075ZM154.307 55.075C153.557 55.075 152.882 54.905 152.282 54.565C151.692 54.225 151.227 53.755 150.887 53.155C150.547 52.545 150.377 51.845 150.377 51.055C150.377 50.255 150.547 49.555 150.887 48.955C151.227 48.355 151.692 47.89 152.282 47.56C152.882 47.22 153.557 47.05 154.307 47.05C154.997 47.05 155.612 47.205 156.152 47.515C156.702 47.825 157.137 48.28 157.457 48.88C157.787 49.47 157.952 50.195 157.952 51.055C157.952 51.905 157.792 52.63 157.472 53.23C157.152 53.83 156.717 54.29 156.167 54.61C155.627 54.92 155.007 55.075 154.307 55.075ZM154.382 54.13C154.942 54.13 155.442 54.005 155.882 53.755C156.332 53.495 156.682 53.135 156.932 52.675C157.192 52.205 157.322 51.665 157.322 51.055C157.322 50.435 157.192 49.895 156.932 49.435C156.682 48.975 156.332 48.62 155.882 48.37C155.442 48.11 154.942 47.98 154.382 47.98C153.832 47.98 153.337 48.11 152.897 48.37C152.457 48.62 152.107 48.975 151.847 49.435C151.587 49.895 151.457 50.435 151.457 51.055C151.457 51.665 151.587 52.205 151.847 52.675C152.107 53.135 152.457 53.495 152.897 53.755C153.337 54.005 153.832 54.13 154.382 54.13ZM157.352 55V52.63L157.457 51.04L157.307 49.45V43.87H158.372V55H157.352ZM169.328 55.075C168.648 55.075 168.033 54.92 167.483 54.61C166.933 54.29 166.493 53.835 166.163 53.245C165.843 52.645 165.683 51.915 165.683 51.055C165.683 50.195 165.843 49.47 166.163 48.88C166.483 48.28 166.918 47.825 167.468 47.515C168.018 47.205 168.638 47.05 169.328 47.05C170.078 47.05 170.748 47.22 171.338 47.56C171.938 47.89 172.408 48.36 172.748 48.97C173.088 49.57 173.258 50.265 173.258 51.055C173.258 51.855 173.088 52.555 172.748 53.155C172.408 53.755 171.938 54.225 171.338 54.565C170.748 54.905 170.078 55.075 169.328 55.075ZM165.263 57.91V47.125H166.283V49.495L166.178 51.07L166.328 52.66V57.91H165.263ZM169.253 54.13C169.813 54.13 170.313 54.005 170.753 53.755C171.193 53.495 171.543 53.135 171.803 52.675C172.063 52.205 172.193 51.665 172.193 51.055C172.193 50.445 172.063 49.91 171.803 49.45C171.543 48.99 171.193 48.63 170.753 48.37C170.313 48.11 169.813 47.98 169.253 47.98C168.693 47.98 168.188 48.11 167.738 48.37C167.298 48.63 166.948 48.99 166.688 49.45C166.438 49.91 166.313 50.445 166.313 51.055C166.313 51.665 166.438 52.205 166.688 52.675C166.948 53.135 167.298 53.495 167.738 53.755C168.188 54.005 168.693 54.13 169.253 54.13ZM175.429 55V47.125H176.449V49.27L176.344 48.895C176.564 48.295 176.934 47.84 177.454 47.53C177.974 47.21 178.619 47.05 179.389 47.05V48.085C179.349 48.085 179.309 48.085 179.269 48.085C179.229 48.075 179.189 48.07 179.149 48.07C178.319 48.07 177.669 48.325 177.199 48.835C176.729 49.335 176.494 50.05 176.494 50.98V55H175.429ZM181.333 55V47.125H182.398V55H181.333ZM181.873 45.385C181.653 45.385 181.468 45.31 181.318 45.16C181.168 45.01 181.093 44.83 181.093 44.62C181.093 44.41 181.168 44.235 181.318 44.095C181.468 43.945 181.653 43.87 181.873 43.87C182.093 43.87 182.278 43.94 182.428 44.08C182.578 44.22 182.653 44.395 182.653 44.605C182.653 44.825 182.578 45.01 182.428 45.16C182.288 45.31 182.103 45.385 181.873 45.385ZM184.506 55V54.295L189.756 47.65L189.981 48.01H184.596V47.125H190.821V47.815L185.586 54.475L185.316 54.115H190.926V55H184.506ZM196.235 55.075C195.415 55.075 194.695 54.905 194.075 54.565C193.455 54.215 192.97 53.74 192.62 53.14C192.27 52.53 192.095 51.835 192.095 51.055C192.095 50.275 192.26 49.585 192.59 48.985C192.93 48.385 193.39 47.915 193.97 47.575C194.56 47.225 195.22 47.05 195.95 47.05C196.69 47.05 197.345 47.22 197.915 47.56C198.495 47.89 198.95 48.36 199.28 48.97C199.61 49.57 199.775 50.265 199.775 51.055C199.775 51.105 199.77 51.16 199.76 51.22C199.76 51.27 199.76 51.325 199.76 51.385H192.905V50.59H199.19L198.77 50.905C198.77 50.335 198.645 49.83 198.395 49.39C198.155 48.94 197.825 48.59 197.405 48.34C196.985 48.09 196.5 47.965 195.95 47.965C195.41 47.965 194.925 48.09 194.495 48.34C194.065 48.59 193.73 48.94 193.49 49.39C193.25 49.84 193.13 50.355 193.13 50.935V51.1C193.13 51.7 193.26 52.23 193.52 52.69C193.79 53.14 194.16 53.495 194.63 53.755C195.11 54.005 195.655 54.13 196.265 54.13C196.745 54.13 197.19 54.045 197.6 53.875C198.02 53.705 198.38 53.445 198.68 53.095L199.28 53.785C198.93 54.205 198.49 54.525 197.96 54.745C197.44 54.965 196.865 55.075 196.235 55.075ZM204.058 55.075C203.408 55.075 202.793 54.985 202.213 54.805C201.633 54.615 201.178 54.38 200.848 54.1L201.328 53.26C201.648 53.5 202.058 53.71 202.558 53.89C203.058 54.06 203.583 54.145 204.133 54.145C204.883 54.145 205.423 54.03 205.753 53.8C206.083 53.56 206.248 53.245 206.248 52.855C206.248 52.565 206.153 52.34 205.963 52.18C205.783 52.01 205.543 51.885 205.243 51.805C204.943 51.715 204.608 51.64 204.238 51.58C203.868 51.52 203.498 51.45 203.128 51.37C202.768 51.29 202.438 51.175 202.138 51.025C201.838 50.865 201.593 50.65 201.403 50.38C201.223 50.11 201.133 49.75 201.133 49.3C201.133 48.87 201.253 48.485 201.493 48.145C201.733 47.805 202.083 47.54 202.543 47.35C203.013 47.15 203.583 47.05 204.253 47.05C204.763 47.05 205.273 47.12 205.783 47.26C206.293 47.39 206.713 47.565 207.043 47.785L206.578 48.64C206.228 48.4 205.853 48.23 205.453 48.13C205.053 48.02 204.653 47.965 204.253 47.965C203.543 47.965 203.018 48.09 202.678 48.34C202.348 48.58 202.183 48.89 202.183 49.27C202.183 49.57 202.273 49.805 202.453 49.975C202.643 50.145 202.888 50.28 203.188 50.38C203.498 50.47 203.833 50.545 204.193 50.605C204.563 50.665 204.928 50.74 205.288 50.83C205.658 50.91 205.993 51.025 206.293 51.175C206.603 51.315 206.848 51.52 207.028 51.79C207.218 52.05 207.313 52.395 207.313 52.825C207.313 53.285 207.183 53.685 206.923 54.025C206.673 54.355 206.303 54.615 205.813 54.805C205.333 54.985 204.748 55.075 204.058 55.075ZM211.708 51.31V50.545H219.208V51.31H211.708ZM229.554 55V53.26L229.509 52.975V50.065C229.509 49.395 229.319 48.88 228.939 48.52C228.569 48.16 228.014 47.98 227.274 47.98C226.764 47.98 226.279 48.065 225.819 48.235C225.359 48.405 224.969 48.63 224.649 48.91L224.169 48.115C224.569 47.775 225.049 47.515 225.609 47.335C226.169 47.145 226.759 47.05 227.379 47.05C228.399 47.05 229.184 47.305 229.734 47.815C230.294 48.315 230.574 49.08 230.574 50.11V55H229.554ZM226.839 55.075C226.249 55.075 225.734 54.98 225.294 54.79C224.864 54.59 224.534 54.32 224.304 53.98C224.074 53.63 223.959 53.23 223.959 52.78C223.959 52.37 224.054 52 224.244 51.67C224.444 51.33 224.764 51.06 225.204 50.86C225.654 50.65 226.254 50.545 227.004 50.545H229.719V51.34H227.034C226.274 51.34 225.744 51.475 225.444 51.745C225.154 52.015 225.009 52.35 225.009 52.75C225.009 53.2 225.184 53.56 225.534 53.83C225.884 54.1 226.374 54.235 227.004 54.235C227.604 54.235 228.119 54.1 228.549 53.83C228.989 53.55 229.309 53.15 229.509 52.63L229.749 53.365C229.549 53.885 229.199 54.3 228.699 54.61C228.209 54.92 227.589 55.075 226.839 55.075ZM237.531 55.075C236.851 55.075 236.236 54.92 235.686 54.61C235.136 54.29 234.696 53.835 234.366 53.245C234.046 52.645 233.886 51.915 233.886 51.055C233.886 50.195 234.046 49.47 234.366 48.88C234.686 48.28 235.121 47.825 235.671 47.515C236.221 47.205 236.841 47.05 237.531 47.05C238.281 47.05 238.951 47.22 239.541 47.56C240.141 47.89 240.611 48.36 240.951 48.97C241.291 49.57 241.461 50.265 241.461 51.055C241.461 51.855 241.291 52.555 240.951 53.155C240.611 53.755 240.141 54.225 239.541 54.565C238.951 54.905 238.281 55.075 237.531 55.075ZM233.466 57.91V47.125H234.486V49.495L234.381 51.07L234.531 52.66V57.91H233.466ZM237.456 54.13C238.016 54.13 238.516 54.005 238.956 53.755C239.396 53.495 239.746 53.135 240.006 52.675C240.266 52.205 240.396 51.665 240.396 51.055C240.396 50.445 240.266 49.91 240.006 49.45C239.746 48.99 239.396 48.63 238.956 48.37C238.516 48.11 238.016 47.98 237.456 47.98C236.896 47.98 236.391 48.11 235.941 48.37C235.501 48.63 235.151 48.99 234.891 49.45C234.641 49.91 234.516 50.445 234.516 51.055C234.516 51.665 234.641 52.205 234.891 52.675C235.151 53.135 235.501 53.495 235.941 53.755C236.391 54.005 236.896 54.13 237.456 54.13ZM243.632 55V47.125H244.652V49.27L244.547 48.895C244.767 48.295 245.137 47.84 245.657 47.53C246.177 47.21 246.822 47.05 247.592 47.05V48.085C247.552 48.085 247.512 48.085 247.472 48.085C247.432 48.075 247.392 48.07 247.352 48.07C246.522 48.07 245.872 48.325 245.402 48.835C244.932 49.335 244.697 50.05 244.697 50.98V55H243.632ZM252.673 55.075C251.913 55.075 251.228 54.905 250.618 54.565C250.018 54.215 249.543 53.74 249.193 53.14C248.843 52.53 248.668 51.835 248.668 51.055C248.668 50.265 248.843 49.57 249.193 48.97C249.543 48.37 250.018 47.9 250.618 47.56C251.218 47.22 251.903 47.05 252.673 47.05C253.453 47.05 254.143 47.22 254.743 47.56C255.353 47.9 255.828 48.37 256.168 48.97C256.518 49.57 256.693 50.265 256.693 51.055C256.693 51.835 256.518 52.53 256.168 53.14C255.828 53.74 255.353 54.215 254.743 54.565C254.133 54.905 253.443 55.075 252.673 55.075ZM252.673 54.13C253.243 54.13 253.748 54.005 254.188 53.755C254.628 53.495 254.973 53.135 255.223 52.675C255.483 52.205 255.613 51.665 255.613 51.055C255.613 50.435 255.483 49.895 255.223 49.435C254.973 48.975 254.628 48.62 254.188 48.37C253.748 48.11 253.248 47.98 252.688 47.98C252.128 47.98 251.628 48.11 251.188 48.37C250.748 48.62 250.398 48.975 250.138 49.435C249.878 49.895 249.748 50.435 249.748 51.055C249.748 51.665 249.878 52.205 250.138 52.675C250.398 53.135 250.748 53.495 251.188 53.755C251.628 54.005 252.123 54.13 252.673 54.13ZM257.389 55L260.719 50.68L260.704 51.205L257.539 47.125H258.739L261.334 50.5L260.884 50.485L263.479 47.125H264.649L261.454 51.25L261.469 50.68L264.829 55H263.614L260.869 51.4L261.289 51.46L258.589 55H257.389ZM266.706 55.075C266.486 55.075 266.296 54.995 266.136 54.835C265.986 54.675 265.911 54.48 265.911 54.25C265.911 54.01 265.986 53.815 266.136 53.665C266.296 53.515 266.486 53.44 266.706 53.44C266.926 53.44 267.111 53.515 267.261 53.665C267.421 53.815 267.501 54.01 267.501 54.25C267.501 54.48 267.421 54.675 267.261 54.835C267.111 54.995 266.926 55.075 266.706 55.075ZM274.846 55L279.376 44.98L279.706 45.46H273.211L273.766 44.935V47.425H272.701V44.5H280.411V45.265L276.016 55H274.846ZM281.853 55.075C281.633 55.075 281.443 54.995 281.283 54.835C281.133 54.675 281.058 54.48 281.058 54.25C281.058 54.01 281.133 53.815 281.283 53.665C281.443 53.515 281.633 53.44 281.853 53.44C282.073 53.44 282.258 53.515 282.408 53.665C282.568 53.815 282.648 54.01 282.648 54.25C282.648 54.48 282.568 54.675 282.408 54.835C282.258 54.995 282.073 55.075 281.853 55.075ZM287.536 55.09C286.786 55.09 286.071 54.97 285.391 54.73C284.711 54.48 284.171 54.15 283.771 53.74L284.296 52.885C284.626 53.235 285.076 53.525 285.646 53.755C286.226 53.985 286.851 54.1 287.521 54.1C288.411 54.1 289.086 53.905 289.546 53.515C290.016 53.115 290.251 52.595 290.251 51.955C290.251 51.505 290.141 51.12 289.921 50.8C289.711 50.47 289.351 50.215 288.841 50.035C288.331 49.855 287.631 49.765 286.741 49.765H284.506L285.046 44.5H290.791V45.46H285.481L286.036 44.935L285.571 49.345L285.016 48.805H286.981C288.041 48.805 288.891 48.935 289.531 49.195C290.171 49.455 290.631 49.82 290.911 50.29C291.201 50.75 291.346 51.29 291.346 51.91C291.346 52.5 291.206 53.04 290.926 53.53C290.646 54.01 290.226 54.39 289.666 54.67C289.106 54.95 288.396 55.09 287.536 55.09ZM298.563 49.195H304.113V50.14H298.563V49.195ZM298.683 54.04H304.998V55H297.573V44.5H304.773V45.46H298.683V54.04ZM309.647 55V45.46H305.957V44.5H314.447V45.46H310.757V55H309.647ZM323.901 44.5H324.996V55H323.901V44.5ZM317.331 55H316.221V44.5H317.331V55ZM324.006 50.155H317.211V49.18H324.006V50.155ZM336.189 55.075C335.509 55.075 334.894 54.92 334.344 54.61C333.794 54.29 333.354 53.835 333.024 53.245C332.704 52.645 332.544 51.915 332.544 51.055C332.544 50.195 332.704 49.47 333.024 48.88C333.344 48.28 333.779 47.825 334.329 47.515C334.879 47.205 335.499 47.05 336.189 47.05C336.939 47.05 337.609 47.22 338.199 47.56C338.799 47.89 339.269 48.36 339.609 48.97C339.949 49.57 340.119 50.265 340.119 51.055C340.119 51.855 339.949 52.555 339.609 53.155C339.269 53.755 338.799 54.225 338.199 54.565C337.609 54.905 336.939 55.075 336.189 55.075ZM332.124 57.91V47.125H333.144V49.495L333.039 51.07L333.189 52.66V57.91H332.124ZM336.114 54.13C336.674 54.13 337.174 54.005 337.614 53.755C338.054 53.495 338.404 53.135 338.664 52.675C338.924 52.205 339.054 51.665 339.054 51.055C339.054 50.445 338.924 49.91 338.664 49.45C338.404 48.99 338.054 48.63 337.614 48.37C337.174 48.11 336.674 47.98 336.114 47.98C335.554 47.98 335.049 48.11 334.599 48.37C334.159 48.63 333.809 48.99 333.549 49.45C333.299 49.91 333.174 50.445 333.174 51.055C333.174 51.665 333.299 52.205 333.549 52.675C333.809 53.135 334.159 53.495 334.599 53.755C335.049 54.005 335.554 54.13 336.114 54.13ZM345.635 55.075C344.815 55.075 344.095 54.905 343.475 54.565C342.855 54.215 342.37 53.74 342.02 53.14C341.67 52.53 341.495 51.835 341.495 51.055C341.495 50.275 341.66 49.585 341.99 48.985C342.33 48.385 342.79 47.915 343.37 47.575C343.96 47.225 344.62 47.05 345.35 47.05C346.09 47.05 346.745 47.22 347.315 47.56C347.895 47.89 348.35 48.36 348.68 48.97C349.01 49.57 349.175 50.265 349.175 51.055C349.175 51.105 349.17 51.16 349.16 51.22C349.16 51.27 349.16 51.325 349.16 51.385H342.305V50.59H348.59L348.17 50.905C348.17 50.335 348.045 49.83 347.795 49.39C347.555 48.94 347.225 48.59 346.805 48.34C346.385 48.09 345.9 47.965 345.35 47.965C344.81 47.965 344.325 48.09 343.895 48.34C343.465 48.59 343.13 48.94 342.89 49.39C342.65 49.84 342.53 50.355 342.53 50.935V51.1C342.53 51.7 342.66 52.23 342.92 52.69C343.19 53.14 343.56 53.495 344.03 53.755C344.51 54.005 345.055 54.13 345.665 54.13C346.145 54.13 346.59 54.045 347 53.875C347.42 53.705 347.78 53.445 348.08 53.095L348.68 53.785C348.33 54.205 347.89 54.525 347.36 54.745C346.84 54.965 346.265 55.075 345.635 55.075ZM351.342 55V47.125H352.362V49.27L352.257 48.895C352.477 48.295 352.847 47.84 353.367 47.53C353.887 47.21 354.532 47.05 355.302 47.05V48.085C355.262 48.085 355.222 48.085 355.182 48.085C355.142 48.075 355.102 48.07 355.062 48.07C354.232 48.07 353.582 48.325 353.112 48.835C352.642 49.335 352.407 50.05 352.407 50.98V55H351.342ZM361.289 55V47.125H362.309V49.27L362.204 48.895C362.424 48.295 362.794 47.84 363.314 47.53C363.834 47.21 364.479 47.05 365.249 47.05V48.085C365.209 48.085 365.169 48.085 365.129 48.085C365.089 48.075 365.049 48.07 365.009 48.07C364.179 48.07 363.529 48.325 363.059 48.835C362.589 49.335 362.354 50.05 362.354 50.98V55H361.289ZM370.329 55.075C369.569 55.075 368.884 54.905 368.274 54.565C367.674 54.215 367.199 53.74 366.849 53.14C366.499 52.53 366.324 51.835 366.324 51.055C366.324 50.265 366.499 49.57 366.849 48.97C367.199 48.37 367.674 47.9 368.274 47.56C368.874 47.22 369.559 47.05 370.329 47.05C371.109 47.05 371.799 47.22 372.399 47.56C373.009 47.9 373.484 48.37 373.824 48.97C374.174 49.57 374.349 50.265 374.349 51.055C374.349 51.835 374.174 52.53 373.824 53.14C373.484 53.74 373.009 54.215 372.399 54.565C371.789 54.905 371.099 55.075 370.329 55.075ZM370.329 54.13C370.899 54.13 371.404 54.005 371.844 53.755C372.284 53.495 372.629 53.135 372.879 52.675C373.139 52.205 373.269 51.665 373.269 51.055C373.269 50.435 373.139 49.895 372.879 49.435C372.629 48.975 372.284 48.62 371.844 48.37C371.404 48.11 370.904 47.98 370.344 47.98C369.784 47.98 369.284 48.11 368.844 48.37C368.404 48.62 368.054 48.975 367.794 49.435C367.534 49.895 367.404 50.435 367.404 51.055C367.404 51.665 367.534 52.205 367.794 52.675C368.054 53.135 368.404 53.495 368.844 53.755C369.284 54.005 369.779 54.13 370.329 54.13ZM379.778 55.075C379.108 55.075 378.523 54.95 378.023 54.7C377.523 54.45 377.133 54.075 376.853 53.575C376.583 53.075 376.448 52.45 376.448 51.7V47.125H377.513V51.58C377.513 52.42 377.718 53.055 378.128 53.485C378.548 53.905 379.133 54.115 379.883 54.115C380.433 54.115 380.908 54.005 381.308 53.785C381.718 53.555 382.028 53.225 382.238 52.795C382.458 52.365 382.568 51.85 382.568 51.25V47.125H383.633V55H382.613V52.84L382.778 53.23C382.528 53.81 382.138 54.265 381.608 54.595C381.088 54.915 380.478 55.075 379.778 55.075ZM390.621 47.05C391.261 47.05 391.821 47.175 392.301 47.425C392.791 47.665 393.171 48.035 393.441 48.535C393.721 49.035 393.861 49.665 393.861 50.425V55H392.796V50.53C392.796 49.7 392.586 49.075 392.166 48.655C391.756 48.225 391.176 48.01 390.426 48.01C389.866 48.01 389.376 48.125 388.956 48.355C388.546 48.575 388.226 48.9 387.996 49.33C387.776 49.75 387.666 50.26 387.666 50.86V55H386.601V47.125H387.621V49.285L387.456 48.88C387.706 48.31 388.106 47.865 388.656 47.545C389.206 47.215 389.861 47.05 390.621 47.05ZM399.873 55.075C399.123 55.075 398.448 54.905 397.848 54.565C397.258 54.225 396.793 53.755 396.453 53.155C396.113 52.545 395.943 51.845 395.943 51.055C395.943 50.255 396.113 49.555 396.453 48.955C396.793 48.355 397.258 47.89 397.848 47.56C398.448 47.22 399.123 47.05 399.873 47.05C400.563 47.05 401.178 47.205 401.718 47.515C402.268 47.825 402.703 48.28 403.023 48.88C403.353 49.47 403.518 50.195 403.518 51.055C403.518 51.905 403.358 52.63 403.038 53.23C402.718 53.83 402.283 54.29 401.733 54.61C401.193 54.92 400.573 55.075 399.873 55.075ZM399.948 54.13C400.508 54.13 401.008 54.005 401.448 53.755C401.898 53.495 402.248 53.135 402.498 52.675C402.758 52.205 402.888 51.665 402.888 51.055C402.888 50.435 402.758 49.895 402.498 49.435C402.248 48.975 401.898 48.62 401.448 48.37C401.008 48.11 400.508 47.98 399.948 47.98C399.398 47.98 398.903 48.11 398.463 48.37C398.023 48.62 397.673 48.975 397.413 49.435C397.153 49.895 397.023 50.435 397.023 51.055C397.023 51.665 397.153 52.205 397.413 52.675C397.673 53.135 398.023 53.495 398.463 53.755C398.903 54.005 399.398 54.13 399.948 54.13ZM402.918 55V52.63L403.023 51.04L402.873 49.45V43.87H403.938V55H402.918Z" fill="#F1EAE1"/>
<path d="M36.92 87L41.96 75.8H44.008L49.064 87H46.888L42.552 76.904H43.384L39.064 87H36.92ZM39.24 84.408L39.8 82.776H45.848L46.408 84.408H39.24ZM55.0324 87.112C54.339 87.112 53.7044 86.952 53.1284 86.632C52.563 86.312 52.1097 85.832 51.7684 85.192C51.4377 84.5413 51.2724 83.72 51.2724 82.728C51.2724 81.7253 51.4324 80.904 51.7524 80.264C52.083 79.624 52.531 79.1493 53.0964 78.84C53.6617 78.52 54.307 78.36 55.0324 78.36C55.875 78.36 56.6164 78.5413 57.2564 78.904C57.907 79.2667 58.419 79.7733 58.7924 80.424C59.1764 81.0747 59.3684 81.8427 59.3684 82.728C59.3684 83.6133 59.1764 84.3867 58.7924 85.048C58.419 85.6987 57.907 86.2053 57.2564 86.568C56.6164 86.9307 55.875 87.112 55.0324 87.112ZM50.2964 90.104V78.456H52.2004V80.472L52.1364 82.744L52.2964 85.016V90.104H50.2964ZM54.8084 85.4C55.2884 85.4 55.715 85.2933 56.0884 85.08C56.4724 84.8667 56.7764 84.5573 57.0004 84.152C57.2244 83.7467 57.3364 83.272 57.3364 82.728C57.3364 82.1733 57.2244 81.6987 57.0004 81.304C56.7764 80.8987 56.4724 80.5893 56.0884 80.376C55.715 80.1627 55.2884 80.056 54.8084 80.056C54.3284 80.056 53.8964 80.1627 53.5124 80.376C53.1284 80.5893 52.8244 80.8987 52.6004 81.304C52.3764 81.6987 52.2644 82.1733 52.2644 82.728C52.2644 83.272 52.3764 83.7467 52.6004 84.152C52.8244 84.5573 53.1284 84.8667 53.5124 85.08C53.8964 85.2933 54.3284 85.4 54.8084 85.4ZM66.0011 87.112C65.3078 87.112 64.6731 86.952 64.0971 86.632C63.5318 86.312 63.0785 85.832 62.7371 85.192C62.4065 84.5413 62.2411 83.72 62.2411 82.728C62.2411 81.7253 62.4011 80.904 62.7211 80.264C63.0518 79.624 63.4998 79.1493 64.0651 78.84C64.6305 78.52 65.2758 78.36 66.0011 78.36C66.8438 78.36 67.5851 78.5413 68.2251 78.904C68.8758 79.2667 69.3878 79.7733 69.7611 80.424C70.1451 81.0747 70.3371 81.8427 70.3371 82.728C70.3371 83.6133 70.1451 84.3867 69.7611 85.048C69.3878 85.6987 68.8758 86.2053 68.2251 86.568C67.5851 86.9307 66.8438 87.112 66.0011 87.112ZM61.2651 90.104V78.456H63.1691V80.472L63.1051 82.744L63.2651 85.016V90.104H61.2651ZM65.7771 85.4C66.2571 85.4 66.6838 85.2933 67.0571 85.08C67.4411 84.8667 67.7451 84.5573 67.9691 84.152C68.1931 83.7467 68.3051 83.272 68.3051 82.728C68.3051 82.1733 68.1931 81.6987 67.9691 81.304C67.7451 80.8987 67.4411 80.5893 67.0571 80.376C66.6838 80.1627 66.2571 80.056 65.7771 80.056C65.2971 80.056 64.8651 80.1627 64.4811 80.376C64.0971 80.5893 63.7931 80.8987 63.5691 81.304C63.3451 81.6987 63.2331 82.1733 63.2331 82.728C63.2331 83.272 63.3451 83.7467 63.5691 84.152C63.7931 84.5573 64.0971 84.8667 64.4811 85.08C64.8651 85.2933 65.2971 85.4 65.7771 85.4ZM72.2339 87V75.128H74.2339V87H72.2339ZM76.8589 87V78.456H78.8589V87H76.8589ZM77.8669 77.048C77.4935 77.048 77.1842 76.9307 76.9389 76.696C76.7042 76.4613 76.5869 76.1787 76.5869 75.848C76.5869 75.5067 76.7042 75.224 76.9389 75C77.1842 74.7653 77.4935 74.648 77.8669 74.648C78.2402 74.648 78.5442 74.76 78.7789 74.984C79.0242 75.1973 79.1469 75.4693 79.1469 75.8C79.1469 76.152 79.0295 76.4507 78.7949 76.696C78.5602 76.9307 78.2509 77.048 77.8669 77.048ZM85.4039 87.112C84.5079 87.112 83.7079 86.9253 83.0039 86.552C82.3105 86.168 81.7665 85.6453 81.3719 84.984C80.9772 84.3227 80.7799 83.5707 80.7799 82.728C80.7799 81.8747 80.9772 81.1227 81.3719 80.472C81.7665 79.8107 82.3105 79.2933 83.0039 78.92C83.7079 78.5467 84.5079 78.36 85.4039 78.36C86.2359 78.36 86.9665 78.5307 87.5959 78.872C88.2359 79.2027 88.7212 79.6933 89.0519 80.344L87.5159 81.24C87.2599 80.8347 86.9452 80.536 86.5719 80.344C86.2092 80.152 85.8145 80.056 85.3879 80.056C84.8972 80.056 84.4545 80.1627 84.0599 80.376C83.6652 80.5893 83.3559 80.8987 83.1319 81.304C82.9079 81.6987 82.7959 82.1733 82.7959 82.728C82.7959 83.2827 82.9079 83.7627 83.1319 84.168C83.3559 84.5627 83.6652 84.8667 84.0599 85.08C84.4545 85.2933 84.8972 85.4 85.3879 85.4C85.8145 85.4 86.2092 85.304 86.5719 85.112C86.9452 84.92 87.2599 84.6213 87.5159 84.216L89.0519 85.112C88.7212 85.752 88.2359 86.248 87.5959 86.6C86.9665 86.9413 86.2359 87.112 85.4039 87.112ZM96.0448 87V85.272L95.9328 84.904V81.88C95.9328 81.2933 95.7568 80.84 95.4048 80.52C95.0528 80.1893 94.5194 80.024 93.8048 80.024C93.3248 80.024 92.8501 80.0987 92.3808 80.248C91.9221 80.3973 91.5328 80.6053 91.2128 80.872L90.4288 79.416C90.8874 79.064 91.4314 78.8027 92.0608 78.632C92.7008 78.4507 93.3621 78.36 94.0448 78.36C95.2821 78.36 96.2368 78.6587 96.9088 79.256C97.5914 79.8427 97.9328 80.7547 97.9328 81.992V87H96.0448ZM93.3568 87.112C92.7168 87.112 92.1568 87.0053 91.6768 86.792C91.1968 86.568 90.8234 86.264 90.5568 85.88C90.3008 85.4853 90.1728 85.0427 90.1728 84.552C90.1728 84.072 90.2848 83.64 90.5088 83.256C90.7434 82.872 91.1221 82.568 91.6448 82.344C92.1674 82.12 92.8608 82.008 93.7248 82.008H96.2048V83.336H93.8688C93.1861 83.336 92.7274 83.448 92.4928 83.672C92.2581 83.8853 92.1408 84.152 92.1408 84.472C92.1408 84.8347 92.2848 85.1227 92.5728 85.336C92.8608 85.5493 93.2608 85.656 93.7728 85.656C94.2634 85.656 94.7008 85.544 95.0848 85.32C95.4794 85.096 95.7621 84.7653 95.9328 84.328L96.2688 85.528C96.0768 86.0293 95.7301 86.4187 95.2288 86.696C94.7381 86.9733 94.1141 87.112 93.3568 87.112ZM103.716 87.112C102.777 87.112 102.052 86.872 101.539 86.392C101.028 85.9013 100.772 85.1813 100.772 84.232V76.568H102.772V84.184C102.772 84.5893 102.873 84.904 103.076 85.128C103.289 85.352 103.582 85.464 103.956 85.464C104.404 85.464 104.777 85.3467 105.076 85.112L105.636 86.536C105.401 86.728 105.113 86.872 104.772 86.968C104.43 87.064 104.078 87.112 103.716 87.112ZM99.3635 80.12V78.52H105.06V80.12H99.3635ZM107.281 87V78.456H109.281V87H107.281ZM108.289 77.048C107.915 77.048 107.606 76.9307 107.361 76.696C107.126 76.4613 107.009 76.1787 107.009 75.848C107.009 75.5067 107.126 75.224 107.361 75C107.606 74.7653 107.915 74.648 108.289 74.648C108.662 74.648 108.966 74.76 109.201 74.984C109.446 75.1973 109.569 75.4693 109.569 75.8C109.569 76.152 109.451 76.4507 109.217 76.696C108.982 76.9307 108.673 77.048 108.289 77.048ZM115.746 87.112C114.871 87.112 114.092 86.9253 113.41 86.552C112.727 86.168 112.188 85.6453 111.794 84.984C111.399 84.3227 111.202 83.5707 111.202 82.728C111.202 81.8747 111.399 81.1227 111.794 80.472C112.188 79.8107 112.727 79.2933 113.41 78.92C114.092 78.5467 114.871 78.36 115.746 78.36C116.631 78.36 117.415 78.5467 118.098 78.92C118.791 79.2933 119.33 79.8053 119.714 80.456C120.108 81.1067 120.306 81.864 120.306 82.728C120.306 83.5707 120.108 84.3227 119.714 84.984C119.33 85.6453 118.791 86.168 118.098 86.552C117.415 86.9253 116.631 87.112 115.746 87.112ZM115.746 85.4C116.236 85.4 116.674 85.2933 117.058 85.08C117.442 84.8667 117.74 84.5573 117.954 84.152C118.178 83.7467 118.29 83.272 118.29 82.728C118.29 82.1733 118.178 81.6987 117.954 81.304C117.74 80.8987 117.442 80.5893 117.058 80.376C116.674 80.1627 116.242 80.056 115.762 80.056C115.271 80.056 114.834 80.1627 114.45 80.376C114.076 80.5893 113.778 80.8987 113.554 81.304C113.33 81.6987 113.218 82.1733 113.218 82.728C113.218 83.272 113.33 83.7467 113.554 84.152C113.778 84.5573 114.076 84.8667 114.45 85.08C114.834 85.2933 115.266 85.4 115.746 85.4ZM127.066 78.36C127.749 78.36 128.357 78.4933 128.89 78.76C129.434 79.0267 129.861 79.4373 130.17 79.992C130.48 80.536 130.634 81.24 130.634 82.104V87H128.634V82.36C128.634 81.6027 128.453 81.0373 128.09 80.664C127.738 80.2907 127.242 80.104 126.602 80.104C126.133 80.104 125.717 80.2 125.354 80.392C124.992 80.584 124.709 80.872 124.506 81.256C124.314 81.6293 124.218 82.104 124.218 82.68V87H122.218V78.456H124.122V80.76L123.786 80.056C124.085 79.512 124.517 79.096 125.082 78.808C125.658 78.5093 126.32 78.36 127.066 78.36ZM135.811 87.112C135.097 87.112 134.409 87.0213 133.747 86.84C133.097 86.648 132.579 86.4187 132.195 86.152L132.963 84.632C133.347 84.8773 133.806 85.08 134.339 85.24C134.873 85.4 135.406 85.48 135.939 85.48C136.569 85.48 137.022 85.3947 137.299 85.224C137.587 85.0533 137.731 84.824 137.731 84.536C137.731 84.3013 137.635 84.1253 137.443 84.008C137.251 83.88 137.001 83.784 136.691 83.72C136.382 83.656 136.035 83.5973 135.651 83.544C135.278 83.4907 134.899 83.4213 134.515 83.336C134.142 83.24 133.801 83.1067 133.491 82.936C133.182 82.7547 132.931 82.5147 132.739 82.216C132.547 81.9173 132.451 81.5227 132.451 81.032C132.451 80.488 132.606 80.0187 132.915 79.624C133.225 79.2187 133.657 78.9093 134.211 78.696C134.777 78.472 135.443 78.36 136.211 78.36C136.787 78.36 137.369 78.424 137.955 78.552C138.542 78.68 139.027 78.8613 139.411 79.096L138.643 80.616C138.238 80.3707 137.827 80.2053 137.411 80.12C137.006 80.024 136.601 79.976 136.195 79.976C135.587 79.976 135.134 80.0667 134.835 80.248C134.547 80.4293 134.403 80.6587 134.403 80.936C134.403 81.192 134.499 81.384 134.691 81.512C134.883 81.64 135.134 81.7413 135.443 81.816C135.753 81.8907 136.094 81.9547 136.467 82.008C136.851 82.0507 137.23 82.12 137.603 82.216C137.977 82.312 138.318 82.4453 138.627 82.616C138.947 82.776 139.203 83.0053 139.395 83.304C139.587 83.6027 139.683 83.992 139.683 84.472C139.683 85.0053 139.523 85.4693 139.203 85.864C138.894 86.2587 138.451 86.568 137.875 86.792C137.299 87.0053 136.611 87.112 135.811 87.112ZM142.046 81.016C141.683 81.016 141.374 80.8933 141.118 80.648C140.862 80.392 140.734 80.072 140.734 79.688C140.734 79.2827 140.862 78.9627 141.118 78.728C141.374 78.4827 141.683 78.36 142.046 78.36C142.408 78.36 142.718 78.4827 142.974 78.728C143.23 78.9627 143.358 79.2827 143.358 79.688C143.358 80.072 143.23 80.392 142.974 80.648C142.718 80.8933 142.408 81.016 142.046 81.016ZM142.046 87.112C141.683 87.112 141.374 86.9893 141.118 86.744C140.862 86.488 140.734 86.168 140.734 85.784C140.734 85.3787 140.862 85.0587 141.118 84.824C141.374 84.5787 141.683 84.456 142.046 84.456C142.408 84.456 142.718 84.5787 142.974 84.824C143.23 85.0587 143.358 85.3787 143.358 85.784C143.358 86.168 143.23 86.488 142.974 86.744C142.718 86.9893 142.408 87.112 142.046 87.112ZM154.876 87.096C154.033 87.096 153.254 86.9573 152.54 86.68C151.825 86.392 151.206 85.992 150.684 85.48C150.161 84.968 149.75 84.3653 149.452 83.672C149.164 82.9787 149.02 82.2213 149.02 81.4C149.02 80.5787 149.164 79.8213 149.452 79.128C149.75 78.4347 150.161 77.832 150.684 77.32C151.217 76.808 151.841 76.4133 152.556 76.136C153.27 75.848 154.049 75.704 154.892 75.704C155.702 75.704 156.465 75.8427 157.18 76.12C157.894 76.3867 158.497 76.792 158.988 77.336L158.236 78.088C157.777 77.6187 157.27 77.2827 156.716 77.08C156.161 76.8667 155.564 76.76 154.924 76.76C154.252 76.76 153.628 76.8773 153.052 77.112C152.476 77.336 151.974 77.6613 151.548 78.088C151.121 78.504 150.785 78.9947 150.539 79.56C150.305 80.1147 150.188 80.728 150.188 81.4C150.188 82.072 150.305 82.6907 150.539 83.256C150.785 83.8107 151.121 84.3013 151.548 84.728C151.974 85.144 152.476 85.4693 153.052 85.704C153.628 85.928 154.252 86.04 154.924 86.04C155.564 86.04 156.161 85.9333 156.716 85.72C157.27 85.5067 157.777 85.1653 158.236 84.696L158.988 85.448C158.497 85.992 157.894 86.4027 157.18 86.68C156.465 86.9573 155.697 87.096 154.876 87.096ZM165.56 78.52C166.242 78.52 166.84 78.6533 167.352 78.92C167.874 79.176 168.28 79.5707 168.568 80.104C168.866 80.6373 169.016 81.3093 169.016 82.12V87H167.88V82.232C167.88 81.3467 167.656 80.68 167.208 80.232C166.77 79.7733 166.152 79.544 165.352 79.544C164.754 79.544 164.232 79.6667 163.784 79.912C163.346 80.1467 163.005 80.4933 162.76 80.952C162.525 81.4 162.408 81.944 162.408 82.584V87H161.272V75.128H162.408V80.904L162.184 80.472C162.45 79.864 162.877 79.3893 163.464 79.048C164.05 78.696 164.749 78.52 165.56 78.52ZM175.652 87.08C174.777 87.08 174.009 86.8987 173.348 86.536C172.687 86.1627 172.169 85.656 171.796 85.016C171.423 84.3653 171.236 83.624 171.236 82.792C171.236 81.96 171.412 81.224 171.764 80.584C172.127 79.944 172.617 79.4427 173.236 79.08C173.865 78.7067 174.569 78.52 175.348 78.52C176.137 78.52 176.836 78.7013 177.444 79.064C178.063 79.416 178.548 79.9173 178.9 80.568C179.252 81.208 179.428 81.9493 179.428 82.792C179.428 82.8453 179.423 82.904 179.412 82.968C179.412 83.0213 179.412 83.08 179.412 83.144H172.1V82.296H178.804L178.356 82.632C178.356 82.024 178.223 81.4853 177.956 81.016C177.7 80.536 177.348 80.1627 176.9 79.896C176.452 79.6293 175.935 79.496 175.348 79.496C174.772 79.496 174.255 79.6293 173.796 79.896C173.337 80.1627 172.98 80.536 172.724 81.016C172.468 81.496 172.34 82.0453 172.34 82.664V82.84C172.34 83.48 172.479 84.0453 172.756 84.536C173.044 85.016 173.439 85.3947 173.94 85.672C174.452 85.9387 175.033 86.072 175.684 86.072C176.196 86.072 176.671 85.9813 177.108 85.8C177.556 85.6187 177.94 85.3413 178.26 84.968L178.9 85.704C178.527 86.152 178.057 86.4933 177.492 86.728C176.937 86.9627 176.324 87.08 175.652 87.08ZM185.228 87.08C184.396 87.08 183.65 86.8987 182.988 86.536C182.338 86.1627 181.826 85.656 181.452 85.016C181.079 84.3653 180.892 83.624 180.892 82.792C180.892 81.9493 181.079 81.208 181.452 80.568C181.826 79.928 182.338 79.4267 182.988 79.064C183.65 78.7013 184.396 78.52 185.228 78.52C185.943 78.52 186.588 78.6587 187.164 78.936C187.74 79.2133 188.194 79.6293 188.524 80.184L187.676 80.76C187.388 80.3333 187.031 80.0187 186.604 79.816C186.178 79.6133 185.714 79.512 185.212 79.512C184.615 79.512 184.076 79.6507 183.596 79.928C183.116 80.1947 182.738 80.5733 182.46 81.064C182.183 81.5547 182.044 82.1307 182.044 82.792C182.044 83.4533 182.183 84.0293 182.46 84.52C182.738 85.0107 183.116 85.3947 183.596 85.672C184.076 85.9387 184.615 86.072 185.212 86.072C185.714 86.072 186.178 85.9707 186.604 85.768C187.031 85.5653 187.388 85.256 187.676 84.84L188.524 85.416C188.194 85.96 187.74 86.376 187.164 86.664C186.588 86.9413 185.943 87.08 185.228 87.08ZM191.527 84.824L191.559 83.368L196.791 78.6H198.183L194.487 82.136L193.847 82.68L191.527 84.824ZM190.631 87V75.128H191.767V87H190.631ZM197.143 87L193.639 82.632L194.375 81.752L198.535 87H197.143ZM204.428 87V78.6H205.516V80.888L205.404 80.488C205.638 79.848 206.033 79.3627 206.588 79.032C207.142 78.6907 207.83 78.52 208.652 78.52V79.624C208.609 79.624 208.566 79.624 208.524 79.624C208.481 79.6133 208.438 79.608 208.396 79.608C207.51 79.608 206.817 79.88 206.316 80.424C205.814 80.9573 205.564 81.72 205.564 82.712V87H204.428ZM214.071 87.08C213.26 87.08 212.529 86.8987 211.879 86.536C211.239 86.1627 210.732 85.656 210.359 85.016C209.985 84.3653 209.799 83.624 209.799 82.792C209.799 81.9493 209.985 81.208 210.359 80.568C210.732 79.928 211.239 79.4267 211.879 79.064C212.519 78.7013 213.249 78.52 214.071 78.52C214.903 78.52 215.639 78.7013 216.279 79.064C216.929 79.4267 217.436 79.928 217.799 80.568C218.172 81.208 218.359 81.9493 218.359 82.792C218.359 83.624 218.172 84.3653 217.799 85.016C217.436 85.656 216.929 86.1627 216.279 86.536C215.628 86.8987 214.892 87.08 214.071 87.08ZM214.071 86.072C214.679 86.072 215.217 85.9387 215.687 85.672C216.156 85.3947 216.524 85.0107 216.791 84.52C217.068 84.0187 217.207 83.4427 217.207 82.792C217.207 82.1307 217.068 81.5547 216.791 81.064C216.524 80.5733 216.156 80.1947 215.687 79.928C215.217 79.6507 214.684 79.512 214.087 79.512C213.489 79.512 212.956 79.6507 212.487 79.928C212.017 80.1947 211.644 80.5733 211.367 81.064C211.089 81.5547 210.951 82.1307 210.951 82.792C210.951 83.4427 211.089 84.0187 211.367 84.52C211.644 85.0107 212.017 85.3947 212.487 85.672C212.956 85.9387 213.484 86.072 214.071 86.072ZM224.15 87.08C223.435 87.08 222.811 86.9467 222.278 86.68C221.744 86.4133 221.328 86.0133 221.03 85.48C220.742 84.9467 220.598 84.28 220.598 83.48V78.6H221.734V83.352C221.734 84.248 221.952 84.9253 222.39 85.384C222.838 85.832 223.462 86.056 224.262 86.056C224.848 86.056 225.355 85.9387 225.782 85.704C226.219 85.4587 226.55 85.1067 226.774 84.648C227.008 84.1893 227.126 83.64 227.126 83V78.6H228.262V87H227.174V84.696L227.35 85.112C227.083 85.7307 226.667 86.216 226.102 86.568C225.547 86.9093 224.896 87.08 224.15 87.08ZM235.716 78.52C236.398 78.52 236.996 78.6533 237.508 78.92C238.03 79.176 238.436 79.5707 238.724 80.104C239.022 80.6373 239.172 81.3093 239.172 82.12V87H238.036V82.232C238.036 81.3467 237.812 80.68 237.364 80.232C236.926 79.7733 236.308 79.544 235.508 79.544C234.91 79.544 234.388 79.6667 233.94 79.912C233.502 80.1467 233.161 80.4933 232.916 80.952C232.681 81.4 232.564 81.944 232.564 82.584V87H231.428V78.6H232.516V80.904L232.34 80.472C232.606 79.864 233.033 79.3893 233.62 79.048C234.206 78.696 234.905 78.52 235.716 78.52ZM245.584 87.08C244.784 87.08 244.064 86.8987 243.424 86.536C242.795 86.1733 242.299 85.672 241.936 85.032C241.574 84.3813 241.392 83.6347 241.392 82.792C241.392 81.9387 241.574 81.192 241.936 80.552C242.299 79.912 242.795 79.416 243.424 79.064C244.064 78.7013 244.784 78.52 245.584 78.52C246.32 78.52 246.976 78.6853 247.552 79.016C248.139 79.3467 248.603 79.832 248.944 80.472C249.296 81.1013 249.472 81.8747 249.472 82.792C249.472 83.6987 249.302 84.472 248.96 85.112C248.619 85.752 248.155 86.2427 247.568 86.584C246.992 86.9147 246.331 87.08 245.584 87.08ZM245.664 86.072C246.262 86.072 246.795 85.9387 247.264 85.672C247.744 85.3947 248.118 85.0107 248.384 84.52C248.662 84.0187 248.8 83.4427 248.8 82.792C248.8 82.1307 248.662 81.5547 248.384 81.064C248.118 80.5733 247.744 80.1947 247.264 79.928C246.795 79.6507 246.262 79.512 245.664 79.512C245.078 79.512 244.55 79.6507 244.08 79.928C243.611 80.1947 243.238 80.5733 242.96 81.064C242.683 81.5547 242.544 82.1307 242.544 82.792C242.544 83.4427 242.683 84.0187 242.96 84.52C243.238 85.0107 243.611 85.3947 244.08 85.672C244.55 85.9387 245.078 86.072 245.664 86.072ZM248.832 87V84.472L248.944 82.776L248.784 81.08V75.128H249.92V87H248.832ZM255.34 87.08C254.647 87.08 253.991 86.984 253.372 86.792C252.753 86.5893 252.268 86.3387 251.916 86.04L252.428 85.144C252.769 85.4 253.207 85.624 253.74 85.816C254.273 85.9973 254.833 86.088 255.42 86.088C256.22 86.088 256.796 85.9653 257.148 85.72C257.5 85.464 257.676 85.128 257.676 84.712C257.676 84.4027 257.575 84.1627 257.372 83.992C257.18 83.8107 256.924 83.6773 256.604 83.592C256.284 83.496 255.927 83.416 255.532 83.352C255.137 83.288 254.743 83.2133 254.348 83.128C253.964 83.0427 253.612 82.92 253.292 82.76C252.972 82.5893 252.711 82.36 252.508 82.072C252.316 81.784 252.22 81.4 252.22 80.92C252.22 80.4613 252.348 80.0507 252.604 79.688C252.86 79.3253 253.233 79.0427 253.724 78.84C254.225 78.6267 254.833 78.52 255.548 78.52C256.092 78.52 256.636 78.5947 257.18 78.744C257.724 78.8827 258.172 79.0693 258.524 79.304L258.028 80.216C257.655 79.96 257.255 79.7787 256.828 79.672C256.401 79.5547 255.975 79.496 255.548 79.496C254.791 79.496 254.231 79.6293 253.868 79.896C253.516 80.152 253.34 80.4827 253.34 80.888C253.34 81.208 253.436 81.4587 253.628 81.64C253.831 81.8213 254.092 81.9653 254.412 82.072C254.743 82.168 255.1 82.248 255.484 82.312C255.879 82.376 256.268 82.456 256.652 82.552C257.047 82.6373 257.404 82.76 257.724 82.92C258.055 83.0693 258.316 83.288 258.508 83.576C258.711 83.8533 258.812 84.2213 258.812 84.68C258.812 85.1707 258.673 85.5973 258.396 85.96C258.129 86.312 257.735 86.5893 257.212 86.792C256.7 86.984 256.076 87.08 255.34 87.08Z" fill="#F1EAE1"/>
<path d="M148.188 89H259.308V89.8H148.188V89Z" fill="#F1EAE1"/>
<a href="https://ensgrants.xyz/rounds">
<rect fill="black" fill-opacity="0" x="111.188" y="-4.288" width="111.12" height="19.504"/>
</a>
<defs>
<filter id="filter0_d_184_250" x="0" y="0" width="443" height="138" filterUnits="userSpaceOnUse" color-interpolation-filters="sRGB">
<feFlood flood-opacity="0" result="BackgroundImageFix"/>
<feColorMatrix in="SourceAlpha" type="matrix" values="0 0 0 0 0 0 0 0 0 0 0 0 0 0 0 0 0 0 127 0" result="hardAlpha"/>
<feOffset dy="4"/>
<feGaussianBlur stdDeviation="2"/>
<feComposite in2="hardAlpha" operator="out"/>
<feColorMatrix type="matrix" values="0 0 0 0 0 0 0 0 0 0 0 0 0 0 0 0 0 0 0.25 0"/>
<feBlend mode="normal" in2="BackgroundImageFix" result="effect1_dropShadow_184_250"/>
<feBlend mode="normal" in="SourceGraphic" in2="effect1_dropShadow_184_250" result="shape"/>
</filter>
</defs>
</svg>
