<svg width="443" height="138" viewBox="0 0 443 138" fill="none" xmlns="http://www.w3.org/2000/svg">
<g filter="url(#filter0_d_202_253)">
<rect x="4" width="435" height="130" rx="20" fill="#2A2D39"/>
<rect x="4.375" y="0.375" width="434.25" height="129.25" rx="19.625" stroke="#F1EAE1" stroke-width="0.75"/>
</g>
<path d="M36.92 55L41.96 43.8H44.008L49.064 55H46.888L42.552 44.904H43.384L39.064 55H36.92ZM39.24 52.408L39.8 50.776H45.848L46.408 52.408H39.24ZM61.0804 46.36C61.763 46.36 62.3657 46.4933 62.8884 46.76C63.4217 47.0267 63.8377 47.4373 64.1364 47.992C64.435 48.536 64.5844 49.24 64.5844 50.104V55H62.5844V50.36C62.5844 49.6027 62.419 49.0373 62.0884 48.664C61.7577 48.2907 61.283 48.104 60.6644 48.104C60.227 48.104 59.8377 48.2 59.4964 48.392C59.1657 48.584 58.9044 48.8667 58.7124 49.24C58.531 49.6133 58.4404 50.088 58.4404 50.664V55H56.4404V50.36C56.4404 49.6027 56.275 49.0373 55.9444 48.664C55.6137 48.2907 55.139 48.104 54.5204 48.104C54.083 48.104 53.6937 48.2 53.3524 48.392C53.0217 48.584 52.7604 48.8667 52.5684 49.24C52.387 49.6133 52.2964 50.088 52.2964 50.664V55H50.2964V46.456H52.2004V48.728L51.8644 48.056C52.1524 47.5013 52.5684 47.08 53.1124 46.792C53.667 46.504 54.2964 46.36 55.0004 46.36C55.8004 46.36 56.4937 46.5573 57.0804 46.952C57.6777 47.3467 58.0724 47.944 58.2644 48.744L57.4804 48.472C57.7577 47.832 58.2164 47.32 58.8564 46.936C59.4964 46.552 60.2377 46.36 61.0804 46.36ZM70.9958 55.112C70.1211 55.112 69.3424 54.9253 68.6598 54.552C67.9771 54.168 67.4384 53.6453 67.0438 52.984C66.6491 52.3227 66.4518 51.5707 66.4518 50.728C66.4518 49.8747 66.6491 49.1227 67.0438 48.472C67.4384 47.8107 67.9771 47.2933 68.6598 46.92C69.3424 46.5467 70.1211 46.36 70.9958 46.36C71.8811 46.36 72.6651 46.5467 73.3478 46.92C74.0411 47.2933 74.5798 47.8053 74.9638 48.456C75.3584 49.1067 75.5558 49.864 75.5558 50.728C75.5558 51.5707 75.3584 52.3227 74.9638 52.984C74.5798 53.6453 74.0411 54.168 73.3478 54.552C72.6651 54.9253 71.8811 55.112 70.9958 55.112ZM70.9958 53.4C71.4864 53.4 71.9238 53.2933 72.3078 53.08C72.6918 52.8667 72.9904 52.5573 73.2038 52.152C73.4278 51.7467 73.5398 51.272 73.5398 50.728C73.5398 50.1733 73.4278 49.6987 73.2038 49.304C72.9904 48.8987 72.6918 48.5893 72.3078 48.376C71.9238 48.1627 71.4918 48.056 71.0118 48.056C70.5211 48.056 70.0838 48.1627 69.6998 48.376C69.3264 48.5893 69.0278 48.8987 68.8038 49.304C68.5798 49.6987 68.4678 50.1733 68.4678 50.728C68.4678 51.272 68.5798 51.7467 68.8038 52.152C69.0278 52.5573 69.3264 52.8667 69.6998 53.08C70.0838 53.2933 70.5158 53.4 70.9958 53.4ZM81.0843 55.112C80.3589 55.112 79.7189 54.9787 79.1643 54.712C78.6096 54.4347 78.1776 54.0187 77.8683 53.464C77.5589 52.8987 77.4043 52.1893 77.4043 51.336V46.456H79.4043V51.064C79.4043 51.832 79.5749 52.408 79.9163 52.792C80.2683 53.1653 80.7643 53.352 81.4043 53.352C81.8736 53.352 82.2789 53.256 82.6203 53.064C82.9723 52.872 83.2443 52.584 83.4363 52.2C83.6389 51.816 83.7403 51.3413 83.7403 50.776V46.456H85.7403V55H83.8363V52.696L84.1723 53.4C83.8843 53.9547 83.4629 54.3813 82.9083 54.68C82.3536 54.968 81.7456 55.112 81.0843 55.112ZM93.2069 46.36C93.8895 46.36 94.4975 46.4933 95.0309 46.76C95.5749 47.0267 96.0015 47.4373 96.3109 47.992C96.6202 48.536 96.7749 49.24 96.7749 50.104V55H94.7749V50.36C94.7749 49.6027 94.5935 49.0373 94.2309 48.664C93.8789 48.2907 93.3829 48.104 92.7429 48.104C92.2735 48.104 91.8575 48.2 91.4949 48.392C91.1322 48.584 90.8495 48.872 90.6469 49.256C90.4549 49.6293 90.3589 50.104 90.3589 50.68V55H88.3589V46.456H90.2629V48.76L89.9269 48.056C90.2255 47.512 90.6575 47.096 91.2229 46.808C91.7989 46.5093 92.4602 46.36 93.2069 46.36ZM102.528 55.112C101.589 55.112 100.864 54.872 100.352 54.392C99.84 53.9013 99.584 53.1813 99.584 52.232V44.568H101.584V52.184C101.584 52.5893 101.685 52.904 101.888 53.128C102.101 53.352 102.395 53.464 102.768 53.464C103.216 53.464 103.589 53.3467 103.888 53.112L104.448 54.536C104.213 54.728 103.925 54.872 103.584 54.968C103.243 55.064 102.891 55.112 102.528 55.112ZM98.176 48.12V46.52H103.872V48.12H98.176ZM106.733 49.016C106.371 49.016 106.061 48.8933 105.805 48.648C105.549 48.392 105.421 48.072 105.421 47.688C105.421 47.2827 105.549 46.9627 105.805 46.728C106.061 46.4827 106.371 46.36 106.733 46.36C107.096 46.36 107.405 46.4827 107.661 46.728C107.917 46.9627 108.045 47.2827 108.045 47.688C108.045 48.072 107.917 48.392 107.661 48.648C107.405 48.8933 107.096 49.016 106.733 49.016ZM106.733 55.112C106.371 55.112 106.061 54.9893 105.805 54.744C105.549 54.488 105.421 54.168 105.421 53.784C105.421 53.3787 105.549 53.0587 105.805 52.824C106.061 52.5787 106.371 52.456 106.733 52.456C107.096 52.456 107.405 52.5787 107.661 52.824C107.917 53.0587 108.045 53.3787 108.045 53.784C108.045 54.168 107.917 54.488 107.661 54.744C107.405 54.9893 107.096 55.112 106.733 55.112ZM113.733 55V54.184L118.389 49.624C118.816 49.208 119.136 48.8453 119.349 48.536C119.563 48.216 119.707 47.9173 119.781 47.64C119.856 47.3627 119.893 47.1013 119.893 46.856C119.893 46.2053 119.669 45.6933 119.221 45.32C118.784 44.9467 118.133 44.76 117.269 44.76C116.608 44.76 116.021 44.8613 115.509 45.064C115.008 45.2667 114.576 45.5813 114.213 46.008L113.397 45.304C113.835 44.792 114.395 44.3973 115.077 44.12C115.76 43.8427 116.523 43.704 117.365 43.704C118.123 43.704 118.779 43.8267 119.333 44.072C119.888 44.3067 120.315 44.6533 120.613 45.112C120.923 45.5707 121.077 46.1093 121.077 46.728C121.077 47.0907 121.024 47.448 120.917 47.8C120.821 48.152 120.64 48.5253 120.373 48.92C120.117 49.304 119.739 49.7413 119.237 50.232L114.965 54.424L114.645 53.976H121.589V55H113.733ZM130.631 55.08C129.841 55.08 129.233 54.8667 128.807 54.44C128.38 54.0133 128.167 53.4107 128.167 52.632V44.744H129.303V52.568C129.303 53.0587 129.425 53.4373 129.671 53.704C129.927 53.9707 130.289 54.104 130.759 54.104C131.26 54.104 131.676 53.96 132.007 53.672L132.407 54.488C132.183 54.6907 131.911 54.84 131.591 54.936C131.281 55.032 130.961 55.08 130.631 55.08ZM126.663 47.544V46.6H131.863V47.544H126.663ZM134.475 55V46.6H135.611V55H134.475ZM135.051 44.744C134.816 44.744 134.619 44.664 134.459 44.504C134.299 44.344 134.219 44.152 134.219 43.928C134.219 43.704 134.299 43.5173 134.459 43.368C134.619 43.208 134.816 43.128 135.051 43.128C135.285 43.128 135.483 43.2027 135.643 43.352C135.803 43.5013 135.883 43.688 135.883 43.912C135.883 44.1467 135.803 44.344 135.643 44.504C135.493 44.664 135.296 44.744 135.051 44.744ZM142.34 55.08C141.465 55.08 140.697 54.8987 140.036 54.536C139.374 54.1627 138.857 53.656 138.484 53.016C138.11 52.3653 137.924 51.624 137.924 50.792C137.924 49.96 138.1 49.224 138.452 48.584C138.814 47.944 139.305 47.4427 139.924 47.08C140.553 46.7067 141.257 46.52 142.036 46.52C142.825 46.52 143.524 46.7013 144.132 47.064C144.75 47.416 145.236 47.9173 145.588 48.568C145.94 49.208 146.116 49.9493 146.116 50.792C146.116 50.8453 146.11 50.904 146.1 50.968C146.1 51.0213 146.1 51.08 146.1 51.144H138.788V50.296H145.492L145.044 50.632C145.044 50.024 144.91 49.4853 144.644 49.016C144.388 48.536 144.036 48.1627 143.588 47.896C143.14 47.6293 142.622 47.496 142.036 47.496C141.46 47.496 140.942 47.6293 140.484 47.896C140.025 48.1627 139.668 48.536 139.412 49.016C139.156 49.496 139.028 50.0453 139.028 50.664V50.84C139.028 51.48 139.166 52.0453 139.444 52.536C139.732 53.016 140.126 53.3947 140.628 53.672C141.14 53.9387 141.721 54.072 142.372 54.072C142.884 54.072 143.358 53.9813 143.796 53.8C144.244 53.6187 144.628 53.3413 144.948 52.968L145.588 53.704C145.214 54.152 144.745 54.4933 144.18 54.728C143.625 54.9627 143.012 55.08 142.34 55.08ZM148.428 55V46.6H149.516V48.888L149.404 48.488C149.638 47.848 150.033 47.3627 150.588 47.032C151.142 46.6907 151.83 46.52 152.652 46.52V47.624C152.609 47.624 152.566 47.624 152.524 47.624C152.481 47.6133 152.438 47.608 152.396 47.608C151.51 47.608 150.817 47.88 150.316 48.424C149.814 48.9573 149.564 49.72 149.564 50.712V55H148.428ZM157.074 55.08C156.381 55.08 155.725 54.984 155.106 54.792C154.488 54.5893 154.002 54.3387 153.65 54.04L154.162 53.144C154.504 53.4 154.941 53.624 155.474 53.816C156.008 53.9973 156.568 54.088 157.154 54.088C157.954 54.088 158.53 53.9653 158.882 53.72C159.234 53.464 159.41 53.128 159.41 52.712C159.41 52.4027 159.309 52.1627 159.106 51.992C158.914 51.8107 158.658 51.6773 158.338 51.592C158.018 51.496 157.661 51.416 157.266 51.352C156.872 51.288 156.477 51.2133 156.082 51.128C155.698 51.0427 155.346 50.92 155.026 50.76C154.706 50.5893 154.445 50.36 154.242 50.072C154.05 49.784 153.954 49.4 153.954 48.92C153.954 48.4613 154.082 48.0507 154.338 47.688C154.594 47.3253 154.968 47.0427 155.458 46.84C155.96 46.6267 156.568 46.52 157.282 46.52C157.826 46.52 158.37 46.5947 158.914 46.744C159.458 46.8827 159.906 47.0693 160.258 47.304L159.762 48.216C159.389 47.96 158.989 47.7787 158.562 47.672C158.136 47.5547 157.709 47.496 157.282 47.496C156.525 47.496 155.965 47.6293 155.602 47.896C155.25 48.152 155.074 48.4827 155.074 48.888C155.074 49.208 155.17 49.4587 155.362 49.64C155.565 49.8213 155.826 49.9653 156.146 50.072C156.477 50.168 156.834 50.248 157.218 50.312C157.613 50.376 158.002 50.456 158.386 50.552C158.781 50.6373 159.138 50.76 159.458 50.92C159.789 51.0693 160.05 51.288 160.242 51.576C160.445 51.8533 160.546 52.2213 160.546 52.68C160.546 53.1707 160.408 53.5973 160.13 53.96C159.864 54.312 159.469 54.5893 158.946 54.792C158.434 54.984 157.81 55.08 157.074 55.08ZM162.743 48.264C162.508 48.264 162.306 48.1787 162.135 48.008C161.975 47.8373 161.895 47.6293 161.895 47.384C161.895 47.128 161.975 46.92 162.135 46.76C162.306 46.6 162.508 46.52 162.743 46.52C162.978 46.52 163.175 46.6 163.335 46.76C163.506 46.92 163.591 47.128 163.591 47.384C163.591 47.6293 163.506 47.8373 163.335 48.008C163.175 48.1787 162.978 48.264 162.743 48.264ZM162.743 55.08C162.508 55.08 162.306 54.9947 162.135 54.824C161.975 54.6533 161.895 54.4453 161.895 54.2C161.895 53.944 161.975 53.736 162.135 53.576C162.306 53.416 162.508 53.336 162.743 53.336C162.978 53.336 163.175 53.416 163.335 53.576C163.506 53.736 163.591 53.944 163.591 54.2C163.591 54.4453 163.506 54.6533 163.335 54.824C163.175 54.9947 162.978 55.08 162.743 55.08ZM173.915 55.08C173.201 55.08 172.577 54.9467 172.043 54.68C171.51 54.4133 171.094 54.0133 170.795 53.48C170.507 52.9467 170.363 52.28 170.363 51.48V46.6H171.499V51.352C171.499 52.248 171.718 52.9253 172.155 53.384C172.603 53.832 173.227 54.056 174.027 54.056C174.614 54.056 175.121 53.9387 175.547 53.704C175.985 53.4587 176.315 53.1067 176.539 52.648C176.774 52.1893 176.891 51.64 176.891 51V46.6H178.027V55H176.939V52.696L177.115 53.112C176.849 53.7307 176.433 54.216 175.867 54.568C175.313 54.9093 174.662 55.08 173.915 55.08ZM185.529 55.08C184.804 55.08 184.148 54.9147 183.561 54.584C182.975 54.2427 182.505 53.7573 182.153 53.128C181.812 52.488 181.641 51.7093 181.641 50.792C181.641 49.8747 181.812 49.1013 182.153 48.472C182.495 47.832 182.959 47.3467 183.545 47.016C184.132 46.6853 184.793 46.52 185.529 46.52C186.329 46.52 187.044 46.7013 187.673 47.064C188.313 47.416 188.815 47.9173 189.177 48.568C189.54 49.208 189.721 49.9493 189.721 50.792C189.721 51.6453 189.54 52.392 189.177 53.032C188.815 53.672 188.313 54.1733 187.673 54.536C187.044 54.8987 186.329 55.08 185.529 55.08ZM181.193 58.104V46.6H182.281V49.128L182.169 50.808L182.329 52.504V58.104H181.193ZM185.449 54.072C186.047 54.072 186.58 53.9387 187.049 53.672C187.519 53.3947 187.892 53.0107 188.169 52.52C188.447 52.0187 188.585 51.4427 188.585 50.792C188.585 50.1413 188.447 49.5707 188.169 49.08C187.892 48.5893 187.519 48.2053 187.049 47.928C186.58 47.6507 186.047 47.512 185.449 47.512C184.852 47.512 184.313 47.6507 183.833 47.928C183.364 48.2053 182.991 48.5893 182.713 49.08C182.447 49.5707 182.313 50.1413 182.313 50.792C182.313 51.4427 182.447 52.0187 182.713 52.52C182.991 53.0107 183.364 53.3947 183.833 53.672C184.313 53.9387 184.852 54.072 185.449 54.072ZM198.881 55.08C198.091 55.08 197.483 54.8667 197.057 54.44C196.63 54.0133 196.417 53.4107 196.417 52.632V44.744H197.553V52.568C197.553 53.0587 197.675 53.4373 197.921 53.704C198.177 53.9707 198.539 54.104 199.009 54.104C199.51 54.104 199.926 53.96 200.257 53.672L200.657 54.488C200.433 54.6907 200.161 54.84 199.841 54.936C199.531 55.032 199.211 55.08 198.881 55.08ZM194.913 47.544V46.6H200.113V47.544H194.913ZM205.852 55.08C205.041 55.08 204.31 54.8987 203.66 54.536C203.02 54.1627 202.513 53.656 202.14 53.016C201.766 52.3653 201.58 51.624 201.58 50.792C201.58 49.9493 201.766 49.208 202.14 48.568C202.513 47.928 203.02 47.4267 203.66 47.064C204.3 46.7013 205.03 46.52 205.852 46.52C206.684 46.52 207.42 46.7013 208.06 47.064C208.71 47.4267 209.217 47.928 209.58 48.568C209.953 49.208 210.14 49.9493 210.14 50.792C210.14 51.624 209.953 52.3653 209.58 53.016C209.217 53.656 208.71 54.1627 208.06 54.536C207.409 54.8987 206.673 55.08 205.852 55.08ZM205.852 54.072C206.46 54.072 206.998 53.9387 207.468 53.672C207.937 53.3947 208.305 53.0107 208.572 52.52C208.849 52.0187 208.988 51.4427 208.988 50.792C208.988 50.1307 208.849 49.5547 208.572 49.064C208.305 48.5733 207.937 48.1947 207.468 47.928C206.998 47.6507 206.465 47.512 205.868 47.512C205.27 47.512 204.737 47.6507 204.268 47.928C203.798 48.1947 203.425 48.5733 203.148 49.064C202.87 49.5547 202.732 50.1307 202.732 50.792C202.732 51.4427 202.87 52.0187 203.148 52.52C203.425 53.0107 203.798 53.3947 204.268 53.672C204.737 53.9387 205.265 54.072 205.852 54.072ZM219.639 56.92V41.88H220.439V56.92H219.639ZM219.975 55.096C219.143 55.096 218.343 54.9627 217.575 54.696C216.817 54.4187 216.231 54.0667 215.815 53.64L216.279 52.728C216.673 53.112 217.201 53.4373 217.863 53.704C218.535 53.96 219.239 54.088 219.975 54.088C220.679 54.088 221.249 54.0027 221.687 53.832C222.135 53.6507 222.46 53.4107 222.663 53.112C222.876 52.8133 222.983 52.4827 222.983 52.12C222.983 51.6827 222.855 51.3307 222.599 51.064C222.353 50.7973 222.028 50.5893 221.623 50.44C221.217 50.28 220.769 50.1413 220.279 50.024C219.788 49.9067 219.297 49.784 218.807 49.656C218.316 49.5173 217.863 49.336 217.447 49.112C217.041 48.888 216.711 48.5947 216.455 48.232C216.209 47.8587 216.087 47.3733 216.087 46.776C216.087 46.2213 216.231 45.7147 216.519 45.256C216.817 44.7867 217.271 44.4133 217.879 44.136C218.487 43.848 219.265 43.704 220.215 43.704C220.844 43.704 221.468 43.7947 222.087 43.976C222.705 44.1467 223.239 44.3867 223.687 44.696L223.286 45.64C222.807 45.32 222.295 45.0853 221.751 44.936C221.217 44.7867 220.7 44.712 220.199 44.712C219.527 44.712 218.972 44.8027 218.535 44.984C218.097 45.1653 217.772 45.4107 217.559 45.72C217.356 46.0187 217.255 46.36 217.255 46.744C217.255 47.1813 217.377 47.5333 217.623 47.8C217.879 48.0667 218.209 48.2747 218.615 48.424C219.031 48.5733 219.484 48.7067 219.975 48.824C220.465 48.9413 220.951 49.0693 221.431 49.208C221.921 49.3467 222.369 49.528 222.775 49.752C223.191 49.9653 223.521 50.2533 223.767 50.616C224.023 50.9787 224.151 51.4533 224.151 52.04C224.151 52.584 224.001 53.0907 223.703 53.56C223.404 54.0187 222.945 54.392 222.327 54.68C221.719 54.9573 220.935 55.096 219.975 55.096ZM228.957 55.096C228.147 55.096 227.379 54.968 226.653 54.712C225.939 54.4453 225.363 54.0933 224.925 53.656L225.485 52.744C225.848 53.1173 226.333 53.4267 226.941 53.672C227.56 53.9173 228.232 54.04 228.957 54.04C229.885 54.04 230.595 53.8373 231.085 53.432C231.587 53.0267 231.837 52.4827 231.837 51.8C231.837 51.1173 231.592 50.5733 231.101 50.168C230.621 49.7627 229.859 49.56 228.813 49.56H228.013V48.712L231.469 44.376L231.629 44.824H225.389V43.8H232.589V44.616L229.133 48.952L228.573 48.584H229.005C230.349 48.584 231.352 48.8827 232.013 49.48C232.685 50.0773 233.021 50.8453 233.021 51.784C233.021 52.4133 232.872 52.9787 232.573 53.48C232.275 53.9813 231.821 54.376 231.213 54.664C230.616 54.952 229.864 55.096 228.957 55.096ZM239.109 55.096C238.245 55.096 237.477 54.872 236.805 54.424C236.133 53.9653 235.605 53.3147 235.221 52.472C234.837 51.6187 234.645 50.5947 234.645 49.4C234.645 48.2053 234.837 47.1867 235.221 46.344C235.605 45.4907 236.133 44.84 236.805 44.392C237.477 43.9333 238.245 43.704 239.109 43.704C239.973 43.704 240.741 43.9333 241.413 44.392C242.085 44.84 242.613 45.4907 242.997 46.344C243.391 47.1867 243.589 48.2053 243.589 49.4C243.589 50.5947 243.391 51.6187 242.997 52.472C242.613 53.3147 242.085 53.9653 241.413 54.424C240.741 54.872 239.973 55.096 239.109 55.096ZM239.109 54.04C239.77 54.04 240.346 53.864 240.837 53.512C241.327 53.1493 241.711 52.6267 241.989 51.944C242.266 51.2507 242.405 50.4027 242.405 49.4C242.405 48.3973 242.266 47.5547 241.989 46.872C241.711 46.1787 241.327 45.656 240.837 45.304C240.346 44.9413 239.77 44.76 239.109 44.76C238.469 44.76 237.898 44.9413 237.397 45.304C236.895 45.656 236.506 46.1787 236.229 46.872C235.951 47.5547 235.812 48.3973 235.812 49.4C235.812 50.4027 235.951 51.2507 236.229 51.944C236.506 52.6267 236.895 53.1493 237.397 53.512C237.898 53.864 238.469 54.04 239.109 54.04ZM245.13 57.336L245.834 54.376L245.962 55.064C245.717 55.064 245.509 54.984 245.338 54.824C245.178 54.664 245.098 54.456 245.098 54.2C245.098 53.944 245.178 53.736 245.338 53.576C245.509 53.416 245.712 53.336 245.946 53.336C246.192 53.336 246.389 53.4213 246.538 53.592C246.698 53.7627 246.778 53.9653 246.778 54.2C246.778 54.2853 246.773 54.3707 246.762 54.456C246.752 54.5413 246.73 54.6373 246.698 54.744C246.666 54.8507 246.624 54.9787 246.57 55.128L245.898 57.336H245.13ZM252.749 55.096C251.885 55.096 251.117 54.872 250.445 54.424C249.773 53.9653 249.245 53.3147 248.861 52.472C248.477 51.6187 248.285 50.5947 248.285 49.4C248.285 48.2053 248.477 47.1867 248.861 46.344C249.245 45.4907 249.773 44.84 250.445 44.392C251.117 43.9333 251.885 43.704 252.749 43.704C253.613 43.704 254.381 43.9333 255.053 44.392C255.725 44.84 256.253 45.4907 256.637 46.344C257.032 47.1867 257.229 48.2053 257.229 49.4C257.229 50.5947 257.032 51.6187 256.637 52.472C256.253 53.3147 255.725 53.9653 255.053 54.424C254.381 54.872 253.613 55.096 252.749 55.096ZM252.749 54.04C253.41 54.04 253.986 53.864 254.477 53.512C254.968 53.1493 255.352 52.6267 255.629 51.944C255.906 51.2507 256.045 50.4027 256.045 49.4C256.045 48.3973 255.906 47.5547 255.629 46.872C255.352 46.1787 254.968 45.656 254.477 45.304C253.986 44.9413 253.41 44.76 252.749 44.76C252.109 44.76 251.538 44.9413 251.037 45.304C250.536 45.656 250.146 46.1787 249.869 46.872C249.592 47.5547 249.453 48.3973 249.453 49.4C249.453 50.4027 249.592 51.2507 249.869 51.944C250.146 52.6267 250.536 53.1493 251.037 53.512C251.538 53.864 252.109 54.04 252.749 54.04ZM263.343 55.096C262.479 55.096 261.711 54.872 261.039 54.424C260.367 53.9653 259.839 53.3147 259.455 52.472C259.071 51.6187 258.879 50.5947 258.879 49.4C258.879 48.2053 259.071 47.1867 259.455 46.344C259.839 45.4907 260.367 44.84 261.039 44.392C261.711 43.9333 262.479 43.704 263.343 43.704C264.207 43.704 264.975 43.9333 265.647 44.392C266.319 44.84 266.847 45.4907 267.231 46.344C267.626 47.1867 267.823 48.2053 267.823 49.4C267.823 50.5947 267.626 51.6187 267.231 52.472C266.847 53.3147 266.319 53.9653 265.647 54.424C264.975 54.872 264.207 55.096 263.343 55.096ZM263.343 54.04C264.004 54.04 264.58 53.864 265.071 53.512C265.562 53.1493 265.946 52.6267 266.223 51.944C266.5 51.2507 266.639 50.4027 266.639 49.4C266.639 48.3973 266.5 47.5547 266.223 46.872C265.946 46.1787 265.562 45.656 265.071 45.304C264.58 44.9413 264.004 44.76 263.343 44.76C262.703 44.76 262.132 44.9413 261.631 45.304C261.13 45.656 260.74 46.1787 260.463 46.872C260.186 47.5547 260.047 48.3973 260.047 49.4C260.047 50.4027 260.186 51.2507 260.463 51.944C260.74 52.6267 261.13 53.1493 261.631 53.512C262.132 53.864 262.703 54.04 263.343 54.04ZM273.937 55.096C273.073 55.096 272.305 54.872 271.633 54.424C270.961 53.9653 270.433 53.3147 270.049 52.472C269.665 51.6187 269.473 50.5947 269.473 49.4C269.473 48.2053 269.665 47.1867 270.049 46.344C270.433 45.4907 270.961 44.84 271.633 44.392C272.305 43.9333 273.073 43.704 273.937 43.704C274.801 43.704 275.569 43.9333 276.241 44.392C276.913 44.84 277.441 45.4907 277.825 46.344C278.219 47.1867 278.417 48.2053 278.417 49.4C278.417 50.5947 278.219 51.6187 277.825 52.472C277.441 53.3147 276.913 53.9653 276.241 54.424C275.569 54.872 274.801 55.096 273.937 55.096ZM273.937 54.04C274.598 54.04 275.174 53.864 275.665 53.512C276.155 53.1493 276.539 52.6267 276.817 51.944C277.094 51.2507 277.233 50.4027 277.233 49.4C277.233 48.3973 277.094 47.5547 276.817 46.872C276.539 46.1787 276.155 45.656 275.665 45.304C275.174 44.9413 274.598 44.76 273.937 44.76C273.297 44.76 272.726 44.9413 272.225 45.304C271.723 45.656 271.334 46.1787 271.057 46.872C270.779 47.5547 270.641 48.3973 270.641 49.4C270.641 50.4027 270.779 51.2507 271.057 51.944C271.334 52.6267 271.723 53.1493 272.225 53.512C272.726 53.864 273.297 54.04 273.937 54.04ZM287.966 55.096C287.241 55.096 286.595 54.9787 286.03 54.744C285.465 54.4987 285.017 54.1627 284.686 53.736C284.366 53.3093 284.206 52.8133 284.206 52.248C284.206 51.768 284.313 51.3307 284.526 50.936C284.739 50.5307 285.081 50.136 285.55 49.752C286.03 49.3573 286.665 48.9467 287.454 48.52C288.126 48.1467 288.649 47.8267 289.022 47.56C289.406 47.2827 289.678 47.0213 289.838 46.776C289.998 46.52 290.078 46.248 290.078 45.96C290.078 45.544 289.934 45.208 289.646 44.952C289.369 44.696 288.969 44.568 288.446 44.568C287.881 44.568 287.443 44.712 287.134 45C286.825 45.2773 286.67 45.64 286.67 46.088C286.67 46.312 286.702 46.5253 286.766 46.728C286.841 46.9307 286.974 47.1547 287.166 47.4C287.369 47.6453 287.646 47.9547 287.998 48.328L293.918 54.424L293.262 55.176L287.086 48.824C286.713 48.4293 286.414 48.088 286.19 47.8C285.977 47.5013 285.827 47.2187 285.742 46.952C285.657 46.6853 285.614 46.4027 285.614 46.104C285.614 45.624 285.726 45.208 285.95 44.856C286.185 44.4933 286.515 44.216 286.942 44.024C287.369 43.8213 287.87 43.72 288.446 43.72C288.969 43.72 289.422 43.8107 289.806 43.992C290.201 44.1627 290.505 44.4133 290.718 44.744C290.942 45.0747 291.054 45.4747 291.054 45.944C291.054 46.3493 290.953 46.728 290.75 47.08C290.558 47.432 290.238 47.7787 289.79 48.12C289.342 48.4507 288.734 48.824 287.966 49.24C287.294 49.6133 286.761 49.9547 286.366 50.264C285.982 50.5733 285.71 50.8773 285.55 51.176C285.39 51.464 285.31 51.784 285.31 52.136C285.31 52.5413 285.422 52.8987 285.646 53.208C285.881 53.5067 286.201 53.7413 286.606 53.912C287.022 54.072 287.497 54.152 288.03 54.152C288.777 54.152 289.443 53.9973 290.03 53.688C290.617 53.3787 291.107 52.9093 291.502 52.28C291.907 51.6507 292.201 50.8613 292.382 49.912L293.294 50.2C293.091 51.2667 292.745 52.1627 292.254 52.888C291.763 53.6133 291.155 54.1627 290.43 54.536C289.705 54.9093 288.883 55.096 287.966 55.096ZM300.089 55V45.544C300.089 44.7973 300.307 44.1947 300.745 43.736C301.182 43.2773 301.811 43.048 302.633 43.048C302.953 43.048 303.262 43.0907 303.561 43.176C303.859 43.2613 304.11 43.3947 304.313 43.576L303.929 44.424C303.769 44.2853 303.582 44.184 303.369 44.12C303.155 44.0453 302.926 44.008 302.681 44.008C302.201 44.008 301.833 44.1413 301.577 44.408C301.321 44.6747 301.193 45.0693 301.193 45.592V46.872L301.225 47.4V55H300.089ZM298.585 47.544V46.6H303.785V47.544H298.585ZM305.318 55V46.6H306.406V48.888L306.294 48.488C306.529 47.848 306.924 47.3627 307.478 47.032C308.033 46.6907 308.721 46.52 309.542 46.52V47.624C309.5 47.624 309.457 47.624 309.414 47.624C309.372 47.6133 309.329 47.608 309.286 47.608C308.401 47.608 307.708 47.88 307.206 48.424C306.705 48.9573 306.454 49.72 306.454 50.712V55H305.318ZM314.961 55.08C314.15 55.08 313.42 54.8987 312.769 54.536C312.129 54.1627 311.622 53.656 311.249 53.016C310.876 52.3653 310.689 51.624 310.689 50.792C310.689 49.9493 310.876 49.208 311.249 48.568C311.622 47.928 312.129 47.4267 312.769 47.064C313.409 46.7013 314.14 46.52 314.961 46.52C315.793 46.52 316.529 46.7013 317.169 47.064C317.82 47.4267 318.326 47.928 318.689 48.568C319.062 49.208 319.249 49.9493 319.249 50.792C319.249 51.624 319.062 52.3653 318.689 53.016C318.326 53.656 317.82 54.1627 317.169 54.536C316.518 54.8987 315.782 55.08 314.961 55.08ZM314.961 54.072C315.569 54.072 316.108 53.9387 316.577 53.672C317.046 53.3947 317.414 53.0107 317.681 52.52C317.958 52.0187 318.097 51.4427 318.097 50.792C318.097 50.1307 317.958 49.5547 317.681 49.064C317.414 48.5733 317.046 48.1947 316.577 47.928C316.108 47.6507 315.574 47.512 314.977 47.512C314.38 47.512 313.846 47.6507 313.377 47.928C312.908 48.1947 312.534 48.5733 312.257 49.064C311.98 49.5547 311.841 50.1307 311.841 50.792C311.841 51.4427 311.98 52.0187 312.257 52.52C312.534 53.0107 312.908 53.3947 313.377 53.672C313.846 53.9387 314.374 54.072 314.961 54.072ZM332.064 46.52C332.747 46.52 333.339 46.6533 333.84 46.92C334.352 47.176 334.747 47.5707 335.024 48.104C335.312 48.6373 335.456 49.3093 335.456 50.12V55H334.32V50.232C334.32 49.3467 334.107 48.68 333.68 48.232C333.264 47.7733 332.672 47.544 331.904 47.544C331.328 47.544 330.827 47.6667 330.4 47.912C329.984 48.1467 329.659 48.4933 329.424 48.952C329.2 49.4 329.088 49.944 329.088 50.584V55H327.952V50.232C327.952 49.3467 327.739 48.68 327.312 48.232C326.886 47.7733 326.288 47.544 325.52 47.544C324.955 47.544 324.459 47.6667 324.032 47.912C323.606 48.1467 323.275 48.4933 323.04 48.952C322.816 49.4 322.704 49.944 322.704 50.584V55H321.568V46.6H322.656V48.872L322.48 48.472C322.736 47.864 323.147 47.3893 323.712 47.048C324.288 46.696 324.966 46.52 325.744 46.52C326.566 46.52 327.264 46.728 327.84 47.144C328.416 47.5493 328.79 48.1627 328.96 48.984L328.512 48.808C328.758 48.1253 329.19 47.576 329.808 47.16C330.438 46.7333 331.19 46.52 332.064 46.52ZM345.717 56.92V41.88H346.517V56.92H345.717ZM346.053 55.096C345.221 55.096 344.421 54.9627 343.653 54.696C342.895 54.4187 342.309 54.0667 341.893 53.64L342.357 52.728C342.751 53.112 343.279 53.4373 343.941 53.704C344.613 53.96 345.317 54.088 346.053 54.088C346.757 54.088 347.327 54.0027 347.765 53.832C348.213 53.6507 348.538 53.4107 348.741 53.112C348.954 52.8133 349.061 52.4827 349.061 52.12C349.061 51.6827 348.933 51.3307 348.677 51.064C348.431 50.7973 348.106 50.5893 347.701 50.44C347.295 50.28 346.847 50.1413 346.357 50.024C345.866 49.9067 345.375 49.784 344.885 49.656C344.394 49.5173 343.941 49.336 343.525 49.112C343.119 48.888 342.789 48.5947 342.533 48.232C342.287 47.8587 342.165 47.3733 342.165 46.776C342.165 46.2213 342.309 45.7147 342.597 45.256C342.895 44.7867 343.349 44.4133 343.957 44.136C344.565 43.848 345.343 43.704 346.293 43.704C346.922 43.704 347.546 43.7947 348.165 43.976C348.783 44.1467 349.317 44.3867 349.765 44.696L349.365 45.64C348.885 45.32 348.373 45.0853 347.829 44.936C347.295 44.7867 346.778 44.712 346.277 44.712C345.605 44.712 345.05 44.8027 344.613 44.984C344.175 45.1653 343.85 45.4107 343.637 45.72C343.434 46.0187 343.333 46.36 343.333 46.744C343.333 47.1813 343.455 47.5333 343.701 47.8C343.957 48.0667 344.287 48.2747 344.693 48.424C345.109 48.5733 345.562 48.7067 346.053 48.824C346.543 48.9413 347.029 49.0693 347.509 49.208C347.999 49.3467 348.447 49.528 348.853 49.752C349.269 49.9653 349.599 50.2533 349.845 50.616C350.101 50.9787 350.229 51.4533 350.229 52.04C350.229 52.584 350.079 53.0907 349.781 53.56C349.482 54.0187 349.023 54.392 348.405 54.68C347.797 54.9573 347.013 55.096 346.053 55.096ZM355.035 55.096C354.225 55.096 353.457 54.968 352.731 54.712C352.017 54.4453 351.441 54.0933 351.003 53.656L351.563 52.744C351.926 53.1173 352.411 53.4267 353.019 53.672C353.638 53.9173 354.31 54.04 355.035 54.04C355.963 54.04 356.673 53.8373 357.163 53.432C357.665 53.0267 357.915 52.4827 357.915 51.8C357.915 51.1173 357.67 50.5733 357.179 50.168C356.699 49.7627 355.937 49.56 354.891 49.56H354.091V48.712L357.547 44.376L357.707 44.824H351.467V43.8H358.667V44.616L355.211 48.952L354.651 48.584H355.083C356.427 48.584 357.43 48.8827 358.091 49.48C358.763 50.0773 359.099 50.8453 359.099 51.784C359.099 52.4133 358.95 52.9787 358.651 53.48C358.353 53.9813 357.899 54.376 357.291 54.664C356.694 54.952 355.942 55.096 355.035 55.096ZM365.187 55.096C364.323 55.096 363.555 54.872 362.883 54.424C362.211 53.9653 361.683 53.3147 361.299 52.472C360.915 51.6187 360.723 50.5947 360.723 49.4C360.723 48.2053 360.915 47.1867 361.299 46.344C361.683 45.4907 362.211 44.84 362.883 44.392C363.555 43.9333 364.323 43.704 365.187 43.704C366.051 43.704 366.819 43.9333 367.491 44.392C368.163 44.84 368.691 45.4907 369.075 46.344C369.469 47.1867 369.667 48.2053 369.667 49.4C369.667 50.5947 369.469 51.6187 369.075 52.472C368.691 53.3147 368.163 53.9653 367.491 54.424C366.819 54.872 366.051 55.096 365.187 55.096ZM365.187 54.04C365.848 54.04 366.424 53.864 366.915 53.512C367.405 53.1493 367.789 52.6267 368.067 51.944C368.344 51.2507 368.483 50.4027 368.483 49.4C368.483 48.3973 368.344 47.5547 368.067 46.872C367.789 46.1787 367.405 45.656 366.915 45.304C366.424 44.9413 365.848 44.76 365.187 44.76C364.547 44.76 363.976 44.9413 363.475 45.304C362.973 45.656 362.584 46.1787 362.307 46.872C362.029 47.5547 361.891 48.3973 361.891 49.4C361.891 50.4027 362.029 51.2507 362.307 51.944C362.584 52.6267 362.973 53.1493 363.475 53.512C363.976 53.864 364.547 54.04 365.187 54.04ZM371.209 57.336L371.913 54.376L372.041 55.064C371.795 55.064 371.587 54.984 371.417 54.824C371.257 54.664 371.177 54.456 371.177 54.2C371.177 53.944 371.257 53.736 371.417 53.576C371.587 53.416 371.79 53.336 372.025 53.336C372.27 53.336 372.467 53.4213 372.617 53.592C372.777 53.7627 372.857 53.9653 372.857 54.2C372.857 54.2853 372.851 54.3707 372.841 54.456C372.83 54.5413 372.809 54.6373 372.777 54.744C372.745 54.8507 372.702 54.9787 372.649 55.128L371.977 57.336H371.209ZM378.827 55.096C377.963 55.096 377.195 54.872 376.523 54.424C375.851 53.9653 375.323 53.3147 374.939 52.472C374.555 51.6187 374.363 50.5947 374.363 49.4C374.363 48.2053 374.555 47.1867 374.939 46.344C375.323 45.4907 375.851 44.84 376.523 44.392C377.195 43.9333 377.963 43.704 378.827 43.704C379.691 43.704 380.459 43.9333 381.131 44.392C381.803 44.84 382.331 45.4907 382.715 46.344C383.11 47.1867 383.307 48.2053 383.307 49.4C383.307 50.5947 383.11 51.6187 382.715 52.472C382.331 53.3147 381.803 53.9653 381.131 54.424C380.459 54.872 379.691 55.096 378.827 55.096ZM378.827 54.04C379.489 54.04 380.065 53.864 380.555 53.512C381.046 53.1493 381.43 52.6267 381.707 51.944C381.985 51.2507 382.123 50.4027 382.123 49.4C382.123 48.3973 381.985 47.5547 381.707 46.872C381.43 46.1787 381.046 45.656 380.555 45.304C380.065 44.9413 379.489 44.76 378.827 44.76C378.187 44.76 377.617 44.9413 377.115 45.304C376.614 45.656 376.225 46.1787 375.947 46.872C375.67 47.5547 375.531 48.3973 375.531 49.4C375.531 50.4027 375.67 51.2507 375.947 51.944C376.225 52.6267 376.614 53.1493 377.115 53.512C377.617 53.864 378.187 54.04 378.827 54.04ZM389.421 55.096C388.557 55.096 387.789 54.872 387.117 54.424C386.445 53.9653 385.917 53.3147 385.533 52.472C385.149 51.6187 384.957 50.5947 384.957 49.4C384.957 48.2053 385.149 47.1867 385.533 46.344C385.917 45.4907 386.445 44.84 387.117 44.392C387.789 43.9333 388.557 43.704 389.421 43.704C390.285 43.704 391.053 43.9333 391.725 44.392C392.397 44.84 392.925 45.4907 393.309 46.344C393.704 47.1867 393.901 48.2053 393.901 49.4C393.901 50.5947 393.704 51.6187 393.309 52.472C392.925 53.3147 392.397 53.9653 391.725 54.424C391.053 54.872 390.285 55.096 389.421 55.096ZM389.421 54.04C390.082 54.04 390.658 53.864 391.149 53.512C391.64 53.1493 392.024 52.6267 392.301 51.944C392.578 51.2507 392.717 50.4027 392.717 49.4C392.717 48.3973 392.578 47.5547 392.301 46.872C392.024 46.1787 391.64 45.656 391.149 45.304C390.658 44.9413 390.082 44.76 389.421 44.76C388.781 44.76 388.21 44.9413 387.709 45.304C387.208 45.656 386.818 46.1787 386.541 46.872C386.264 47.5547 386.125 48.3973 386.125 49.4C386.125 50.4027 386.264 51.2507 386.541 51.944C386.818 52.6267 387.208 53.1493 387.709 53.512C388.21 53.864 388.781 54.04 389.421 54.04ZM400.015 55.096C399.151 55.096 398.383 54.872 397.711 54.424C397.039 53.9653 396.511 53.3147 396.127 52.472C395.743 51.6187 395.551 50.5947 395.551 49.4C395.551 48.2053 395.743 47.1867 396.127 46.344C396.511 45.4907 397.039 44.84 397.711 44.392C398.383 43.9333 399.151 43.704 400.015 43.704C400.879 43.704 401.647 43.9333 402.319 44.392C402.991 44.84 403.519 45.4907 403.903 46.344C404.297 47.1867 404.495 48.2053 404.495 49.4C404.495 50.5947 404.297 51.6187 403.903 52.472C403.519 53.3147 402.991 53.9653 402.319 54.424C401.647 54.872 400.879 55.096 400.015 55.096ZM400.015 54.04C400.676 54.04 401.252 53.864 401.743 53.512C402.233 53.1493 402.617 52.6267 402.895 51.944C403.172 51.2507 403.311 50.4027 403.311 49.4C403.311 48.3973 403.172 47.5547 402.895 46.872C402.617 46.1787 402.233 45.656 401.743 45.304C401.252 44.9413 400.676 44.76 400.015 44.76C399.375 44.76 398.804 44.9413 398.303 45.304C397.801 45.656 397.412 46.1787 397.135 46.872C396.857 47.5547 396.719 48.3973 396.719 49.4C396.719 50.4027 396.857 51.2507 397.135 51.944C397.412 52.6267 397.801 53.1493 398.303 53.512C398.804 53.864 399.375 54.04 400.015 54.04Z" fill="#F1EAE1"/>
<path d="M36.92 87L41.96 75.8H44.008L49.064 87H46.888L42.552 76.904H43.384L39.064 87H36.92ZM39.24 84.408L39.8 82.776H45.848L46.408 84.408H39.24ZM55.0324 87.112C54.339 87.112 53.7044 86.952 53.1284 86.632C52.563 86.312 52.1097 85.832 51.7684 85.192C51.4377 84.5413 51.2724 83.72 51.2724 82.728C51.2724 81.7253 51.4324 80.904 51.7524 80.264C52.083 79.624 52.531 79.1493 53.0964 78.84C53.6617 78.52 54.307 78.36 55.0324 78.36C55.875 78.36 56.6164 78.5413 57.2564 78.904C57.907 79.2667 58.419 79.7733 58.7924 80.424C59.1764 81.0747 59.3684 81.8427 59.3684 82.728C59.3684 83.6133 59.1764 84.3867 58.7924 85.048C58.419 85.6987 57.907 86.2053 57.2564 86.568C56.6164 86.9307 55.875 87.112 55.0324 87.112ZM50.2964 90.104V78.456H52.2004V80.472L52.1364 82.744L52.2964 85.016V90.104H50.2964ZM54.8084 85.4C55.2884 85.4 55.715 85.2933 56.0884 85.08C56.4724 84.8667 56.7764 84.5573 57.0004 84.152C57.2244 83.7467 57.3364 83.272 57.3364 82.728C57.3364 82.1733 57.2244 81.6987 57.0004 81.304C56.7764 80.8987 56.4724 80.5893 56.0884 80.376C55.715 80.1627 55.2884 80.056 54.8084 80.056C54.3284 80.056 53.8964 80.1627 53.5124 80.376C53.1284 80.5893 52.8244 80.8987 52.6004 81.304C52.3764 81.6987 52.2644 82.1733 52.2644 82.728C52.2644 83.272 52.3764 83.7467 52.6004 84.152C52.8244 84.5573 53.1284 84.8667 53.5124 85.08C53.8964 85.2933 54.3284 85.4 54.8084 85.4ZM66.0011 87.112C65.3078 87.112 64.6731 86.952 64.0971 86.632C63.5318 86.312 63.0785 85.832 62.7371 85.192C62.4065 84.5413 62.2411 83.72 62.2411 82.728C62.2411 81.7253 62.4011 80.904 62.7211 80.264C63.0518 79.624 63.4998 79.1493 64.0651 78.84C64.6305 78.52 65.2758 78.36 66.0011 78.36C66.8438 78.36 67.5851 78.5413 68.2251 78.904C68.8758 79.2667 69.3878 79.7733 69.7611 80.424C70.1451 81.0747 70.3371 81.8427 70.3371 82.728C70.3371 83.6133 70.1451 84.3867 69.7611 85.048C69.3878 85.6987 68.8758 86.2053 68.2251 86.568C67.5851 86.9307 66.8438 87.112 66.0011 87.112ZM61.2651 90.104V78.456H63.1691V80.472L63.1051 82.744L63.2651 85.016V90.104H61.2651ZM65.7771 85.4C66.2571 85.4 66.6838 85.2933 67.0571 85.08C67.4411 84.8667 67.7451 84.5573 67.9691 84.152C68.1931 83.7467 68.3051 83.272 68.3051 82.728C68.3051 82.1733 68.1931 81.6987 67.9691 81.304C67.7451 80.8987 67.4411 80.5893 67.0571 80.376C66.6838 80.1627 66.2571 80.056 65.7771 80.056C65.2971 80.056 64.8651 80.1627 64.4811 80.376C64.0971 80.5893 63.7931 80.8987 63.5691 81.304C63.3451 81.6987 63.2331 82.1733 63.2331 82.728C63.2331 83.272 63.3451 83.7467 63.5691 84.152C63.7931 84.5573 64.0971 84.8667 64.4811 85.08C64.8651 85.2933 65.2971 85.4 65.7771 85.4ZM72.2339 87V75.128H74.2339V87H72.2339ZM76.8589 87V78.456H78.8589V87H76.8589ZM77.8669 77.048C77.4935 77.048 77.1842 76.9307 76.9389 76.696C76.7042 76.4613 76.5869 76.1787 76.5869 75.848C76.5869 75.5067 76.7042 75.224 76.9389 75C77.1842 74.7653 77.4935 74.648 77.8669 74.648C78.2402 74.648 78.5442 74.76 78.7789 74.984C79.0242 75.1973 79.1469 75.4693 79.1469 75.8C79.1469 76.152 79.0295 76.4507 78.7949 76.696C78.5602 76.9307 78.2509 77.048 77.8669 77.048ZM85.4039 87.112C84.5079 87.112 83.7079 86.9253 83.0039 86.552C82.3105 86.168 81.7665 85.6453 81.3719 84.984C80.9772 84.3227 80.7799 83.5707 80.7799 82.728C80.7799 81.8747 80.9772 81.1227 81.3719 80.472C81.7665 79.8107 82.3105 79.2933 83.0039 78.92C83.7079 78.5467 84.5079 78.36 85.4039 78.36C86.2359 78.36 86.9665 78.5307 87.5959 78.872C88.2359 79.2027 88.7212 79.6933 89.0519 80.344L87.5159 81.24C87.2599 80.8347 86.9452 80.536 86.5719 80.344C86.2092 80.152 85.8145 80.056 85.3879 80.056C84.8972 80.056 84.4545 80.1627 84.0599 80.376C83.6652 80.5893 83.3559 80.8987 83.1319 81.304C82.9079 81.6987 82.7959 82.1733 82.7959 82.728C82.7959 83.2827 82.9079 83.7627 83.1319 84.168C83.3559 84.5627 83.6652 84.8667 84.0599 85.08C84.4545 85.2933 84.8972 85.4 85.3879 85.4C85.8145 85.4 86.2092 85.304 86.5719 85.112C86.9452 84.92 87.2599 84.6213 87.5159 84.216L89.0519 85.112C88.7212 85.752 88.2359 86.248 87.5959 86.6C86.9665 86.9413 86.2359 87.112 85.4039 87.112ZM96.0448 87V85.272L95.9328 84.904V81.88C95.9328 81.2933 95.7568 80.84 95.4048 80.52C95.0528 80.1893 94.5194 80.024 93.8048 80.024C93.3248 80.024 92.8501 80.0987 92.3808 80.248C91.9221 80.3973 91.5328 80.6053 91.2128 80.872L90.4288 79.416C90.8874 79.064 91.4314 78.8027 92.0608 78.632C92.7008 78.4507 93.3621 78.36 94.0448 78.36C95.2821 78.36 96.2368 78.6587 96.9088 79.256C97.5914 79.8427 97.9328 80.7547 97.9328 81.992V87H96.0448ZM93.3568 87.112C92.7168 87.112 92.1568 87.0053 91.6768 86.792C91.1968 86.568 90.8234 86.264 90.5568 85.88C90.3008 85.4853 90.1728 85.0427 90.1728 84.552C90.1728 84.072 90.2848 83.64 90.5088 83.256C90.7434 82.872 91.1221 82.568 91.6448 82.344C92.1674 82.12 92.8608 82.008 93.7248 82.008H96.2048V83.336H93.8688C93.1861 83.336 92.7274 83.448 92.4928 83.672C92.2581 83.8853 92.1408 84.152 92.1408 84.472C92.1408 84.8347 92.2848 85.1227 92.5728 85.336C92.8608 85.5493 93.2608 85.656 93.7728 85.656C94.2634 85.656 94.7008 85.544 95.0848 85.32C95.4794 85.096 95.7621 84.7653 95.9328 84.328L96.2688 85.528C96.0768 86.0293 95.7301 86.4187 95.2288 86.696C94.7381 86.9733 94.1141 87.112 93.3568 87.112ZM103.716 87.112C102.777 87.112 102.052 86.872 101.539 86.392C101.028 85.9013 100.772 85.1813 100.772 84.232V76.568H102.772V84.184C102.772 84.5893 102.873 84.904 103.076 85.128C103.289 85.352 103.582 85.464 103.956 85.464C104.404 85.464 104.777 85.3467 105.076 85.112L105.636 86.536C105.401 86.728 105.113 86.872 104.772 86.968C104.43 87.064 104.078 87.112 103.716 87.112ZM99.3635 80.12V78.52H105.06V80.12H99.3635ZM107.281 87V78.456H109.281V87H107.281ZM108.289 77.048C107.915 77.048 107.606 76.9307 107.361 76.696C107.126 76.4613 107.009 76.1787 107.009 75.848C107.009 75.5067 107.126 75.224 107.361 75C107.606 74.7653 107.915 74.648 108.289 74.648C108.662 74.648 108.966 74.76 109.201 74.984C109.446 75.1973 109.569 75.4693 109.569 75.8C109.569 76.152 109.451 76.4507 109.217 76.696C108.982 76.9307 108.673 77.048 108.289 77.048ZM115.746 87.112C114.871 87.112 114.092 86.9253 113.41 86.552C112.727 86.168 112.188 85.6453 111.794 84.984C111.399 84.3227 111.202 83.5707 111.202 82.728C111.202 81.8747 111.399 81.1227 111.794 80.472C112.188 79.8107 112.727 79.2933 113.41 78.92C114.092 78.5467 114.871 78.36 115.746 78.36C116.631 78.36 117.415 78.5467 118.098 78.92C118.791 79.2933 119.33 79.8053 119.714 80.456C120.108 81.1067 120.306 81.864 120.306 82.728C120.306 83.5707 120.108 84.3227 119.714 84.984C119.33 85.6453 118.791 86.168 118.098 86.552C117.415 86.9253 116.631 87.112 115.746 87.112ZM115.746 85.4C116.236 85.4 116.674 85.2933 117.058 85.08C117.442 84.8667 117.74 84.5573 117.954 84.152C118.178 83.7467 118.29 83.272 118.29 82.728C118.29 82.1733 118.178 81.6987 117.954 81.304C117.74 80.8987 117.442 80.5893 117.058 80.376C116.674 80.1627 116.242 80.056 115.762 80.056C115.271 80.056 114.834 80.1627 114.45 80.376C114.076 80.5893 113.778 80.8987 113.554 81.304C113.33 81.6987 113.218 82.1733 113.218 82.728C113.218 83.272 113.33 83.7467 113.554 84.152C113.778 84.5573 114.076 84.8667 114.45 85.08C114.834 85.2933 115.266 85.4 115.746 85.4ZM127.066 78.36C127.749 78.36 128.357 78.4933 128.89 78.76C129.434 79.0267 129.861 79.4373 130.17 79.992C130.48 80.536 130.634 81.24 130.634 82.104V87H128.634V82.36C128.634 81.6027 128.453 81.0373 128.09 80.664C127.738 80.2907 127.242 80.104 126.602 80.104C126.133 80.104 125.717 80.2 125.354 80.392C124.992 80.584 124.709 80.872 124.506 81.256C124.314 81.6293 124.218 82.104 124.218 82.68V87H122.218V78.456H124.122V80.76L123.786 80.056C124.085 79.512 124.517 79.096 125.082 78.808C125.658 78.5093 126.32 78.36 127.066 78.36ZM135.811 87.112C135.097 87.112 134.409 87.0213 133.747 86.84C133.097 86.648 132.579 86.4187 132.195 86.152L132.963 84.632C133.347 84.8773 133.806 85.08 134.339 85.24C134.873 85.4 135.406 85.48 135.939 85.48C136.569 85.48 137.022 85.3947 137.299 85.224C137.587 85.0533 137.731 84.824 137.731 84.536C137.731 84.3013 137.635 84.1253 137.443 84.008C137.251 83.88 137.001 83.784 136.691 83.72C136.382 83.656 136.035 83.5973 135.651 83.544C135.278 83.4907 134.899 83.4213 134.515 83.336C134.142 83.24 133.801 83.1067 133.491 82.936C133.182 82.7547 132.931 82.5147 132.739 82.216C132.547 81.9173 132.451 81.5227 132.451 81.032C132.451 80.488 132.606 80.0187 132.915 79.624C133.225 79.2187 133.657 78.9093 134.211 78.696C134.777 78.472 135.443 78.36 136.211 78.36C136.787 78.36 137.369 78.424 137.955 78.552C138.542 78.68 139.027 78.8613 139.411 79.096L138.643 80.616C138.238 80.3707 137.827 80.2053 137.411 80.12C137.006 80.024 136.601 79.976 136.195 79.976C135.587 79.976 135.134 80.0667 134.835 80.248C134.547 80.4293 134.403 80.6587 134.403 80.936C134.403 81.192 134.499 81.384 134.691 81.512C134.883 81.64 135.134 81.7413 135.443 81.816C135.753 81.8907 136.094 81.9547 136.467 82.008C136.851 82.0507 137.23 82.12 137.603 82.216C137.977 82.312 138.318 82.4453 138.627 82.616C138.947 82.776 139.203 83.0053 139.395 83.304C139.587 83.6027 139.683 83.992 139.683 84.472C139.683 85.0053 139.523 85.4693 139.203 85.864C138.894 86.2587 138.451 86.568 137.875 86.792C137.299 87.0053 136.611 87.112 135.811 87.112ZM142.046 81.016C141.683 81.016 141.374 80.8933 141.118 80.648C140.862 80.392 140.734 80.072 140.734 79.688C140.734 79.2827 140.862 78.9627 141.118 78.728C141.374 78.4827 141.683 78.36 142.046 78.36C142.408 78.36 142.718 78.4827 142.974 78.728C143.23 78.9627 143.358 79.2827 143.358 79.688C143.358 80.072 143.23 80.392 142.974 80.648C142.718 80.8933 142.408 81.016 142.046 81.016ZM142.046 87.112C141.683 87.112 141.374 86.9893 141.118 86.744C140.862 86.488 140.734 86.168 140.734 85.784C140.734 85.3787 140.862 85.0587 141.118 84.824C141.374 84.5787 141.683 84.456 142.046 84.456C142.408 84.456 142.718 84.5787 142.974 84.824C143.23 85.0587 143.358 85.3787 143.358 85.784C143.358 86.168 143.23 86.488 142.974 86.744C142.718 86.9893 142.408 87.112 142.046 87.112ZM155.142 87.096C154.299 87.096 153.515 86.9573 152.79 86.68C152.075 86.392 151.451 85.992 150.918 85.48C150.395 84.9573 149.985 84.3547 149.686 83.672C149.398 82.9787 149.254 82.2213 149.254 81.4C149.254 80.5787 149.398 79.8267 149.686 79.144C149.985 78.4507 150.395 77.848 150.918 77.336C151.451 76.8133 152.075 76.4133 152.79 76.136C153.505 75.848 154.289 75.704 155.142 75.704C155.985 75.704 156.763 75.848 157.478 76.136C158.193 76.4133 158.811 76.808 159.334 77.32C159.867 77.832 160.278 78.4347 160.566 79.128C160.865 79.8213 161.014 80.5787 161.014 81.4C161.014 82.2213 160.865 82.9787 160.566 83.672C160.278 84.3653 159.867 84.968 159.334 85.48C158.811 85.992 158.193 86.392 157.478 86.68C156.763 86.9573 155.985 87.096 155.142 87.096ZM155.142 86.04C155.814 86.04 156.433 85.928 156.998 85.704C157.574 85.4693 158.07 85.144 158.486 84.728C158.913 84.3013 159.243 83.8107 159.478 83.256C159.713 82.6907 159.83 82.072 159.83 81.4C159.83 80.728 159.713 80.1147 159.478 79.56C159.243 78.9947 158.913 78.504 158.486 78.088C158.07 77.6613 157.574 77.336 156.998 77.112C156.433 76.8773 155.814 76.76 155.142 76.76C154.47 76.76 153.846 76.8773 153.27 77.112C152.694 77.336 152.193 77.6613 151.766 78.088C151.35 78.504 151.019 78.9947 150.774 79.56C150.539 80.1147 150.422 80.728 150.422 81.4C150.422 82.0613 150.539 82.6747 150.774 83.24C151.019 83.8053 151.35 84.3013 151.766 84.728C152.193 85.144 152.694 85.4693 153.27 85.704C153.846 85.928 154.47 86.04 155.142 86.04ZM167.716 78.52C168.398 78.52 168.996 78.6533 169.508 78.92C170.03 79.176 170.436 79.5707 170.724 80.104C171.022 80.6373 171.172 81.3093 171.172 82.12V87H170.036V82.232C170.036 81.3467 169.812 80.68 169.364 80.232C168.926 79.7733 168.308 79.544 167.508 79.544C166.91 79.544 166.388 79.6667 165.94 79.912C165.502 80.1467 165.161 80.4933 164.916 80.952C164.681 81.4 164.564 81.944 164.564 82.584V87H163.428V78.6H164.516V80.904L164.34 80.472C164.606 79.864 165.033 79.3893 165.62 79.048C166.206 78.696 166.905 78.52 167.716 78.52ZM183.692 87V85.144L183.644 84.84V81.736C183.644 81.0213 183.441 80.472 183.036 80.088C182.641 79.704 182.049 79.512 181.26 79.512C180.716 79.512 180.198 79.6027 179.708 79.784C179.217 79.9653 178.801 80.2053 178.46 80.504L177.948 79.656C178.374 79.2933 178.886 79.016 179.484 78.824C180.081 78.6213 180.71 78.52 181.372 78.52C182.46 78.52 183.297 78.792 183.884 79.336C184.481 79.8693 184.78 80.6853 184.78 81.784V87H183.692ZM180.796 87.08C180.166 87.08 179.617 86.9787 179.148 86.776C178.689 86.5627 178.337 86.2747 178.092 85.912C177.846 85.5387 177.724 85.112 177.724 84.632C177.724 84.1947 177.825 83.8 178.028 83.448C178.241 83.0853 178.582 82.7973 179.052 82.584C179.532 82.36 180.172 82.248 180.972 82.248H183.868V83.096H181.004C180.193 83.096 179.628 83.24 179.308 83.528C178.998 83.816 178.844 84.1733 178.844 84.6C178.844 85.08 179.03 85.464 179.404 85.752C179.777 86.04 180.3 86.184 180.972 86.184C181.612 86.184 182.161 86.04 182.62 85.752C183.089 85.4533 183.43 85.0267 183.644 84.472L183.9 85.256C183.686 85.8107 183.313 86.2533 182.78 86.584C182.257 86.9147 181.596 87.08 180.796 87.08ZM192.053 87V78.6H193.141V80.888L193.029 80.488C193.263 79.848 193.658 79.3627 194.213 79.032C194.767 78.6907 195.455 78.52 196.277 78.52V79.624C196.234 79.624 196.191 79.624 196.149 79.624C196.106 79.6133 196.063 79.608 196.021 79.608C195.135 79.608 194.442 79.88 193.941 80.424C193.439 80.9573 193.189 81.72 193.189 82.712V87H192.053ZM201.696 87.08C200.885 87.08 200.154 86.8987 199.504 86.536C198.864 86.1627 198.357 85.656 197.984 85.016C197.61 84.3653 197.424 83.624 197.424 82.792C197.424 81.9493 197.61 81.208 197.984 80.568C198.357 79.928 198.864 79.4267 199.504 79.064C200.144 78.7013 200.874 78.52 201.696 78.52C202.528 78.52 203.264 78.7013 203.904 79.064C204.554 79.4267 205.061 79.928 205.424 80.568C205.797 81.208 205.984 81.9493 205.984 82.792C205.984 83.624 205.797 84.3653 205.424 85.016C205.061 85.656 204.554 86.1627 203.904 86.536C203.253 86.8987 202.517 87.08 201.696 87.08ZM201.696 86.072C202.304 86.072 202.842 85.9387 203.312 85.672C203.781 85.3947 204.149 85.0107 204.416 84.52C204.693 84.0187 204.832 83.4427 204.832 82.792C204.832 82.1307 204.693 81.5547 204.416 81.064C204.149 80.5733 203.781 80.1947 203.312 79.928C202.842 79.6507 202.309 79.512 201.712 79.512C201.114 79.512 200.581 79.6507 200.112 79.928C199.642 80.1947 199.269 80.5733 198.992 81.064C198.714 81.5547 198.576 82.1307 198.576 82.792C198.576 83.4427 198.714 84.0187 198.992 84.52C199.269 85.0107 199.642 85.3947 200.112 85.672C200.581 85.9387 201.109 86.072 201.696 86.072ZM208.303 87V75.128H209.439V87H208.303ZM212.6 87V75.128H213.736V87H212.6ZM216.897 87V78.6H218.033V87H216.897ZM217.473 76.744C217.238 76.744 217.041 76.664 216.881 76.504C216.721 76.344 216.641 76.152 216.641 75.928C216.641 75.704 216.721 75.5173 216.881 75.368C217.041 75.208 217.238 75.128 217.473 75.128C217.707 75.128 217.905 75.2027 218.065 75.352C218.225 75.5013 218.305 75.688 218.305 75.912C218.305 76.1467 218.225 76.344 218.065 76.504C217.915 76.664 217.718 76.744 217.473 76.744ZM225.481 78.52C226.164 78.52 226.761 78.6533 227.273 78.92C227.796 79.176 228.201 79.5707 228.489 80.104C228.788 80.6373 228.937 81.3093 228.937 82.12V87H227.801V82.232C227.801 81.3467 227.577 80.68 227.129 80.232C226.692 79.7733 226.073 79.544 225.273 79.544C224.676 79.544 224.153 79.6667 223.705 79.912C223.268 80.1467 222.927 80.4933 222.681 80.952C222.447 81.4 222.329 81.944 222.329 82.584V87H221.193V78.6H222.281V80.904L222.105 80.472C222.372 79.864 222.799 79.3893 223.385 79.048C223.972 78.696 224.671 78.52 225.481 78.52ZM235.59 90.184C234.822 90.184 234.086 90.072 233.382 89.848C232.678 89.624 232.107 89.304 231.67 88.888L232.246 88.024C232.641 88.376 233.126 88.6533 233.702 88.856C234.289 89.0693 234.907 89.176 235.558 89.176C236.625 89.176 237.409 88.9253 237.91 88.424C238.411 87.9333 238.662 87.1653 238.662 86.12V84.024L238.822 82.584L238.71 81.144V78.6H239.798V85.976C239.798 87.4267 239.441 88.488 238.726 89.16C238.022 89.8427 236.977 90.184 235.59 90.184ZM235.382 86.68C234.582 86.68 233.862 86.5093 233.222 86.168C232.582 85.816 232.075 85.3307 231.702 84.712C231.339 84.0933 231.158 83.384 231.158 82.584C231.158 81.784 231.339 81.08 231.702 80.472C232.075 79.8533 232.582 79.3733 233.222 79.032C233.862 78.6907 234.582 78.52 235.382 78.52C236.129 78.52 236.801 78.6747 237.398 78.984C237.995 79.2933 238.47 79.752 238.822 80.36C239.174 80.968 239.35 81.7093 239.35 82.584C239.35 83.4587 239.174 84.2 238.822 84.808C238.47 85.416 237.995 85.88 237.398 86.2C236.801 86.52 236.129 86.68 235.382 86.68ZM235.494 85.672C236.113 85.672 236.662 85.544 237.142 85.288C237.622 85.0213 238.001 84.6587 238.278 84.2C238.555 83.7307 238.694 83.192 238.694 82.584C238.694 81.976 238.555 81.4427 238.278 80.984C238.001 80.5253 237.622 80.168 237.142 79.912C236.662 79.6453 236.113 79.512 235.494 79.512C234.886 79.512 234.337 79.6453 233.846 79.912C233.366 80.168 232.987 80.5253 232.71 80.984C232.443 81.4427 232.31 81.976 232.31 82.584C232.31 83.192 232.443 83.7307 232.71 84.2C232.987 84.6587 233.366 85.0213 233.846 85.288C234.337 85.544 234.886 85.672 235.494 85.672ZM251.483 87.08C250.747 87.08 250.085 86.9147 249.499 86.584C248.912 86.2427 248.448 85.752 248.107 85.112C247.765 84.472 247.595 83.6987 247.595 82.792C247.595 81.8747 247.765 81.1013 248.107 80.472C248.459 79.832 248.928 79.3467 249.515 79.016C250.101 78.6853 250.757 78.52 251.483 78.52C252.283 78.52 252.997 78.7013 253.627 79.064C254.267 79.416 254.768 79.912 255.131 80.552C255.493 81.192 255.675 81.9387 255.675 82.792C255.675 83.6347 255.493 84.3813 255.131 85.032C254.768 85.672 254.267 86.1733 253.627 86.536C252.997 86.8987 252.283 87.08 251.483 87.08ZM247.147 87V75.128H248.283V81.08L248.123 82.776L248.235 84.472V87H247.147ZM251.403 86.072C252 86.072 252.533 85.9387 253.003 85.672C253.472 85.3947 253.845 85.0107 254.123 84.52C254.4 84.0187 254.539 83.4427 254.539 82.792C254.539 82.1307 254.4 81.5547 254.123 81.064C253.845 80.5733 253.472 80.1947 253.003 79.928C252.533 79.6507 252 79.512 251.403 79.512C250.805 79.512 250.267 79.6507 249.786 79.928C249.317 80.1947 248.944 80.5733 248.667 81.064C248.4 81.5547 248.267 82.1307 248.267 82.792C248.267 83.4427 248.4 84.0187 248.667 84.52C248.944 85.0107 249.317 85.3947 249.786 85.672C250.267 85.9387 250.805 86.072 251.403 86.072ZM263.207 87V85.144L263.159 84.84V81.736C263.159 81.0213 262.957 80.472 262.551 80.088C262.157 79.704 261.565 79.512 260.775 79.512C260.231 79.512 259.714 79.6027 259.223 79.784C258.733 79.9653 258.317 80.2053 257.975 80.504L257.463 79.656C257.89 79.2933 258.402 79.016 258.999 78.824C259.597 78.6213 260.226 78.52 260.887 78.52C261.975 78.52 262.813 78.792 263.399 79.336C263.997 79.8693 264.295 80.6853 264.295 81.784V87H263.207ZM260.311 87.08C259.682 87.08 259.133 86.9787 258.663 86.776C258.205 86.5627 257.853 86.2747 257.607 85.912C257.362 85.5387 257.239 85.112 257.239 84.632C257.239 84.1947 257.341 83.8 257.543 83.448C257.757 83.0853 258.098 82.7973 258.567 82.584C259.047 82.36 259.687 82.248 260.487 82.248H263.383V83.096H260.519C259.709 83.096 259.143 83.24 258.823 83.528C258.514 83.816 258.359 84.1733 258.359 84.6C258.359 85.08 258.546 85.464 258.919 85.752C259.293 86.04 259.815 86.184 260.487 86.184C261.127 86.184 261.677 86.04 262.135 85.752C262.605 85.4533 262.946 85.0267 263.159 84.472L263.415 85.256C263.202 85.8107 262.829 86.2533 262.295 86.584C261.773 86.9147 261.111 87.08 260.311 87.08ZM269.637 87.08C268.944 87.08 268.288 86.984 267.669 86.792C267.05 86.5893 266.565 86.3387 266.213 86.04L266.725 85.144C267.066 85.4 267.504 85.624 268.037 85.816C268.57 85.9973 269.13 86.088 269.717 86.088C270.517 86.088 271.093 85.9653 271.445 85.72C271.797 85.464 271.973 85.128 271.973 84.712C271.973 84.4027 271.872 84.1627 271.669 83.992C271.477 83.8107 271.221 83.6773 270.901 83.592C270.581 83.496 270.224 83.416 269.829 83.352C269.434 83.288 269.04 83.2133 268.645 83.128C268.261 83.0427 267.909 82.92 267.589 82.76C267.269 82.5893 267.008 82.36 266.805 82.072C266.613 81.784 266.517 81.4 266.517 80.92C266.517 80.4613 266.645 80.0507 266.901 79.688C267.157 79.3253 267.53 79.0427 268.021 78.84C268.522 78.6267 269.13 78.52 269.845 78.52C270.389 78.52 270.933 78.5947 271.477 78.744C272.021 78.8827 272.469 79.0693 272.821 79.304L272.325 80.216C271.952 79.96 271.552 79.7787 271.125 79.672C270.698 79.5547 270.272 79.496 269.845 79.496C269.088 79.496 268.528 79.6293 268.165 79.896C267.813 80.152 267.637 80.4827 267.637 80.888C267.637 81.208 267.733 81.4587 267.925 81.64C268.128 81.8213 268.389 81.9653 268.709 82.072C269.04 82.168 269.397 82.248 269.781 82.312C270.176 82.376 270.565 82.456 270.949 82.552C271.344 82.6373 271.701 82.76 272.021 82.92C272.352 83.0693 272.613 83.288 272.805 83.576C273.008 83.8533 273.109 84.2213 273.109 84.68C273.109 85.1707 272.97 85.5973 272.693 85.96C272.426 86.312 272.032 86.5893 271.509 86.792C270.997 86.984 270.373 87.08 269.637 87.08ZM275.193 87V78.6H276.329V87H275.193ZM275.769 76.744C275.535 76.744 275.337 76.664 275.177 76.504C275.017 76.344 274.937 76.152 274.937 75.928C274.937 75.704 275.017 75.5173 275.177 75.368C275.337 75.208 275.535 75.128 275.769 75.128C276.004 75.128 276.201 75.2027 276.361 75.352C276.521 75.5013 276.601 75.688 276.601 75.912C276.601 76.1467 276.521 76.344 276.361 76.504C276.212 76.664 276.015 76.744 275.769 76.744ZM281.746 87.08C281.053 87.08 280.397 86.984 279.778 86.792C279.16 86.5893 278.674 86.3387 278.322 86.04L278.834 85.144C279.176 85.4 279.613 85.624 280.146 85.816C280.68 85.9973 281.24 86.088 281.826 86.088C282.626 86.088 283.202 85.9653 283.554 85.72C283.906 85.464 284.082 85.128 284.082 84.712C284.082 84.4027 283.981 84.1627 283.778 83.992C283.586 83.8107 283.33 83.6773 283.01 83.592C282.69 83.496 282.333 83.416 281.938 83.352C281.544 83.288 281.149 83.2133 280.754 83.128C280.37 83.0427 280.018 82.92 279.698 82.76C279.378 82.5893 279.117 82.36 278.914 82.072C278.722 81.784 278.626 81.4 278.626 80.92C278.626 80.4613 278.754 80.0507 279.01 79.688C279.266 79.3253 279.64 79.0427 280.13 78.84C280.632 78.6267 281.24 78.52 281.954 78.52C282.498 78.52 283.042 78.5947 283.586 78.744C284.13 78.8827 284.578 79.0693 284.93 79.304L284.434 80.216C284.061 79.96 283.661 79.7787 283.234 79.672C282.808 79.5547 282.381 79.496 281.954 79.496C281.197 79.496 280.637 79.6293 280.274 79.896C279.922 80.152 279.746 80.4827 279.746 80.888C279.746 81.208 279.842 81.4587 280.034 81.64C280.237 81.8213 280.498 81.9653 280.818 82.072C281.149 82.168 281.506 82.248 281.89 82.312C282.285 82.376 282.674 82.456 283.058 82.552C283.453 82.6373 283.81 82.76 284.13 82.92C284.461 83.0693 284.722 83.288 284.914 83.576C285.117 83.8533 285.218 84.2213 285.218 84.68C285.218 85.1707 285.08 85.5973 284.802 85.96C284.536 86.312 284.141 86.5893 283.618 86.792C283.106 86.984 282.482 87.08 281.746 87.08Z" fill="#F1EAE1"/>
<defs>
<filter id="filter0_d_202_253" x="0" y="0" width="443" height="138" filterUnits="userSpaceOnUse" color-interpolation-filters="sRGB">
<feFlood flood-opacity="0" result="BackgroundImageFix"/>
<feColorMatrix in="SourceAlpha" type="matrix" values="0 0 0 0 0 0 0 0 0 0 0 0 0 0 0 0 0 0 127 0" result="hardAlpha"/>
<feOffset dy="4"/>
<feGaussianBlur stdDeviation="2"/>
<feComposite in2="hardAlpha" operator="out"/>
<feColorMatrix type="matrix" values="0 0 0 0 0 0 0 0 0 0 0 0 0 0 0 0 0 0 0.25 0"/>
<feBlend mode="normal" in2="BackgroundImageFix" result="effect1_dropShadow_202_253"/>
<feBlend mode="normal" in="SourceGraphic" in2="effect1_dropShadow_202_253" result="shape"/>
</filter>
</defs>
</svg>
