<svg width="1644" height="1310" viewBox="0 0 1644 1310" fill="none" xmlns="http://www.w3.org/2000/svg">
<rect x="0.375" y="0.375" width="1643.25" height="1309.25" rx="19.625" fill="#2A2D39"/>
<rect x="0.375" y="0.375" width="1643.25" height="1309.25" rx="19.625" stroke="#F1EAE1" stroke-width="0.75"/>
<path d="M822.5 1201.16C825.539 1206.63 827.27 1212.94 827.27 1219.65H817.73C817.73 1212.94 819.461 1206.63 822.501 1201.16H822.5Z" fill="#F1EAE1"/>
<path d="M789.778 1181.49C793.328 1181.55 796.761 1182.1 800.012 1183.07C798.214 1185.8 796.614 1188.68 795.23 1191.68C793.258 1191.25 791.21 1191.03 789.11 1191.03C787.715 1191.03 786.341 1191.13 785 1191.32C786.361 1187.92 787.959 1184.64 789.778 1181.49V1181.49Z" fill="#F1EAE1"/>
<path d="M803.43 1164.21C806.983 1165.13 810.4 1166.37 813.649 1167.92C810.969 1170.11 808.461 1172.51 806.154 1175.08H806.153C802.9 1173.83 799.477 1172.94 795.926 1172.43C798.225 1169.51 800.734 1166.76 803.43 1164.21V1164.21Z" fill="#F1EAE1"/>
<path d="M832.713 1157C829.156 1158.31 825.743 1159.93 822.501 1161.8C819.259 1159.93 815.846 1158.32 812.289 1157C815.519 1154.75 818.933 1152.74 822.501 1151C826.069 1152.74 829.482 1154.75 832.713 1157Z" fill="#F1EAE1"/>
<path d="M808.874 1187C811.616 1188.66 814.131 1190.66 816.363 1192.94C814.469 1195.74 812.863 1198.75 811.59 1201.93C809.508 1199.29 806.969 1197.03 804.094 1195.26C805.46 1192.36 807.061 1189.6 808.875 1187H808.874Z" fill="#F1EAE1"/>
<path d="M822.498 1173.15C825.179 1175.08 827.684 1177.23 829.989 1179.58C827.292 1181.33 824.784 1183.34 822.498 1185.58C820.213 1183.34 817.703 1181.33 815.008 1179.58C817.313 1177.23 819.82 1175.08 822.498 1173.15Z" fill="#F1EAE1"/>
<path d="M849.071 1172.43C845.521 1172.94 842.096 1173.84 838.842 1175.08C836.536 1172.51 834.029 1170.11 831.348 1167.92C834.597 1166.38 838.014 1165.13 841.567 1164.21C844.263 1166.77 846.772 1169.51 849.071 1172.43V1172.43Z" fill="#F1EAE1"/>
<path d="M836.125 1187C837.939 1189.6 839.54 1192.36 840.906 1195.26C838.031 1197.03 835.491 1199.29 833.41 1201.93C832.137 1198.75 830.531 1195.74 828.637 1192.94C830.869 1190.66 833.384 1188.66 836.126 1187H836.125Z" fill="#F1EAE1"/>
<path d="M860 1191.32C858.658 1191.13 857.285 1191.03 855.89 1191.03C853.79 1191.03 851.742 1191.25 849.77 1191.68C848.387 1188.68 846.786 1185.8 844.988 1183.07C848.24 1182.1 851.672 1181.55 855.222 1181.49C857.041 1184.63 858.639 1187.92 860 1191.32V1191.32Z" fill="#F1EAE1"/>
<g clip-path="url(#clip0_330_110)">
<path d="M146.578 849.371C190.653 849.371 226.383 813.641 226.383 769.566C226.383 725.491 190.653 689.762 146.578 689.762C102.503 689.762 66.7734 725.491 66.7734 769.566C66.7734 813.641 102.503 849.371 146.578 849.371Z" fill="#2A2D39" stroke="white" stroke-width="2"/>
<path d="M472.308 849.371C516.383 849.371 552.113 813.641 552.113 769.566C552.113 725.491 516.383 689.762 472.308 689.762C428.234 689.762 392.504 725.491 392.504 769.566C392.504 813.641 428.234 849.371 472.308 849.371Z" fill="#2A2D39" stroke="white" stroke-width="2"/>
<path d="M309.441 512.238C353.516 512.238 389.246 476.508 389.246 432.433C389.246 388.359 353.516 352.629 309.441 352.629C265.366 352.629 229.637 388.359 229.637 432.433C229.637 476.508 265.366 512.238 309.441 512.238Z" fill="#2A2D39" stroke="white" stroke-width="2"/>
<path d="M310.46 445.755C307.692 445.755 305.249 445.185 303.131 444.045C301.047 442.905 299.418 441.342 298.245 439.355C297.105 437.368 296.535 435.088 296.535 432.514C296.535 429.941 297.089 427.661 298.196 425.674C299.336 423.687 300.884 422.14 302.838 421.032C304.825 419.892 307.056 419.322 309.532 419.322C312.04 419.322 314.255 419.876 316.177 420.984C318.099 422.091 319.597 423.655 320.672 425.674C321.779 427.661 322.333 429.99 322.333 432.661C322.333 432.856 322.317 433.084 322.284 433.345C322.284 433.606 322.268 433.85 322.235 434.078H300.2V430.707H319.792L317.887 431.879C317.92 430.218 317.577 428.736 316.861 427.433C316.144 426.13 315.151 425.12 313.88 424.404C312.643 423.655 311.193 423.28 309.532 423.28C307.903 423.28 306.454 423.655 305.183 424.404C303.913 425.12 302.92 426.146 302.203 427.482C301.486 428.785 301.128 430.283 301.128 431.977V432.759C301.128 434.485 301.519 436.032 302.301 437.4C303.115 438.736 304.239 439.778 305.672 440.527C307.105 441.277 308.75 441.651 310.607 441.651C312.138 441.651 313.522 441.391 314.76 440.869C316.03 440.348 317.138 439.567 318.082 438.524L320.672 441.554C319.499 442.922 318.034 443.964 316.275 444.681C314.548 445.397 312.61 445.755 310.46 445.755Z" fill="#F1EAE1"/>
<path d="M144.356 787.482V782.01L144.111 780.984V771.651C144.111 769.664 143.525 768.133 142.352 767.058C141.212 765.951 139.486 765.397 137.173 765.397C135.642 765.397 134.144 765.658 132.678 766.179C131.212 766.668 129.974 767.335 128.965 768.182L127.01 764.664C128.346 763.589 129.942 762.775 131.799 762.221C133.688 761.635 135.658 761.342 137.711 761.342C141.261 761.342 143.997 762.205 145.919 763.931C147.841 765.658 148.802 768.296 148.802 771.847V787.482H144.356ZM135.854 787.775C133.932 787.775 132.238 787.449 130.772 786.798C129.339 786.146 128.232 785.251 127.45 784.111C126.668 782.938 126.277 781.619 126.277 780.153C126.277 778.752 126.603 777.482 127.255 776.342C127.939 775.202 129.03 774.29 130.528 773.606C132.059 772.922 134.111 772.58 136.685 772.58H144.893V775.951H136.88C134.535 775.951 132.955 776.342 132.141 777.124C131.326 777.905 130.919 778.85 130.919 779.957C130.919 781.228 131.424 782.254 132.434 783.036C133.443 783.785 134.844 784.159 136.636 784.159C138.395 784.159 139.926 783.768 141.228 782.987C142.564 782.205 143.525 781.065 144.111 779.567L145.04 782.791C144.421 784.322 143.329 785.544 141.766 786.456C140.202 787.335 138.232 787.775 135.854 787.775Z" fill="#F1EAE1"/>
<path d="M478.231 787.482V782.01L477.986 780.984V771.651C477.986 769.664 477.4 768.133 476.227 767.058C475.087 765.951 473.361 765.397 471.048 765.397C469.517 765.397 468.019 765.658 466.553 766.179C465.087 766.668 463.849 767.335 462.84 768.182L460.885 764.664C462.221 763.589 463.817 762.775 465.674 762.221C467.563 761.635 469.533 761.342 471.586 761.342C475.136 761.342 477.872 762.205 479.794 763.931C481.716 765.658 482.677 768.296 482.677 771.847V787.482H478.231ZM469.729 787.775C467.807 787.775 466.113 787.449 464.647 786.798C463.214 786.146 462.107 785.251 461.325 784.111C460.543 782.938 460.152 781.619 460.152 780.153C460.152 778.752 460.478 777.482 461.13 776.342C461.814 775.202 462.905 774.29 464.403 773.606C465.934 772.922 467.986 772.58 470.56 772.58H478.768V775.951H470.755C468.41 775.951 466.83 776.342 466.016 777.124C465.201 777.905 464.794 778.85 464.794 779.957C464.794 781.228 465.299 782.254 466.309 783.036C467.318 783.785 468.719 784.159 470.511 784.159C472.27 784.159 473.801 783.768 475.103 782.987C476.439 782.205 477.4 781.065 477.986 779.567L478.915 782.791C478.296 784.322 477.204 785.544 475.641 786.456C474.077 787.335 472.107 787.775 469.729 787.775Z" fill="#F1EAE1"/>
<path d="M154.718 769.567V767.352L164.001 758.394C164.827 757.612 165.435 756.928 165.825 756.342C166.238 755.735 166.509 755.181 166.64 754.681C166.792 754.16 166.868 753.66 166.868 753.182C166.868 752.01 166.455 751.086 165.63 750.414C164.805 749.741 163.6 749.404 162.014 749.404C160.798 749.404 159.702 749.611 158.724 750.023C157.747 750.414 156.9 751.033 156.184 751.879L153.969 749.958C154.837 748.85 155.999 748.003 157.454 747.417C158.931 746.809 160.549 746.505 162.308 746.505C163.893 746.505 165.272 746.765 166.444 747.287C167.617 747.787 168.518 748.513 169.148 749.469C169.799 750.425 170.125 751.554 170.125 752.857C170.125 753.594 170.027 754.322 169.832 755.039C169.637 755.756 169.267 756.516 168.724 757.319C168.182 758.122 167.4 759.024 166.379 760.023L158.106 768.003L157.324 766.733H171.102V769.567H154.718Z" fill="#F1EAE1"/>
<path d="M245.876 529.596C245.569 528.751 244.634 528.314 243.788 528.622L230.015 533.635C229.17 533.943 228.733 534.878 229.041 535.723C229.349 536.568 230.284 537.005 231.129 536.697L243.371 532.239L247.828 544.484C248.135 545.329 249.07 545.765 249.915 545.458C250.761 545.15 251.197 544.215 250.889 543.37L245.876 529.596ZM178.999 674.142L245.821 530.84L242.87 529.464L176.047 672.765L178.999 674.142Z" fill="white"/>
<path d="M439.225 674.983C440.071 675.291 441.006 674.856 441.313 674.011L446.326 660.236C446.634 659.391 446.198 658.457 445.352 658.15C444.507 657.842 443.572 658.277 443.265 659.122L438.808 671.366L426.566 666.91C425.721 666.602 424.786 667.037 424.478 667.882C424.17 668.728 424.607 669.663 425.452 669.97L439.225 674.983ZM371.484 530.842L438.307 674.141L441.258 672.765L374.436 529.464L371.484 530.842Z" fill="white"/>
<path d="M244.774 786.331C244.138 786.966 244.138 787.998 244.774 788.634L255.139 798.999C255.774 799.635 256.807 799.635 257.442 798.999C258.079 798.363 258.079 797.331 257.442 796.696L248.229 787.482L257.442 778.269C258.079 777.634 258.079 776.601 257.442 775.966C256.807 775.329 255.774 775.329 255.139 775.966L244.774 786.331ZM372.962 785.854H245.926V789.111H372.962V785.854Z" fill="white"/>
</g>
<path d="M225.637 973.24C224.037 973.24 222.557 972.98 221.197 972.46C219.857 971.92 218.687 971.17 217.687 970.21C216.707 969.23 215.937 968.09 215.377 966.79C214.817 965.49 214.537 964.06 214.537 962.5C214.537 960.94 214.817 959.51 215.377 958.21C215.937 956.91 216.717 955.78 217.717 954.82C218.717 953.84 219.887 953.09 221.227 952.57C222.587 952.03 224.067 951.76 225.667 951.76C227.287 951.76 228.777 952.04 230.137 952.6C231.517 953.14 232.687 953.95 233.647 955.03L231.697 956.92C230.897 956.08 229.997 955.46 228.997 955.06C227.997 954.64 226.927 954.43 225.787 954.43C224.607 954.43 223.507 954.63 222.487 955.03C221.487 955.43 220.617 955.99 219.877 956.71C219.137 957.43 218.557 958.29 218.137 959.29C217.737 960.27 217.537 961.34 217.537 962.5C217.537 963.66 217.737 964.74 218.137 965.74C218.557 966.72 219.137 967.57 219.877 968.29C220.617 969.01 221.487 969.57 222.487 969.97C223.507 970.37 224.607 970.57 225.787 970.57C226.927 970.57 227.997 970.37 228.997 969.97C229.997 969.55 230.897 968.91 231.697 968.05L233.647 969.94C232.687 971.02 231.517 971.84 230.137 972.4C228.777 972.96 227.277 973.24 225.637 973.24ZM238.196 979C237.436 979 236.696 978.87 235.976 978.61C235.256 978.37 234.636 978.01 234.116 977.53L235.346 975.37C235.746 975.75 236.186 976.04 236.666 976.24C237.146 976.44 237.656 976.54 238.196 976.54C238.896 976.54 239.476 976.36 239.936 976C240.396 975.64 240.826 975 241.226 974.08L242.216 971.89L242.516 971.53L248.756 957.1H251.576L243.866 974.59C243.406 975.71 242.886 976.59 242.306 977.23C241.746 977.87 241.126 978.32 240.446 978.58C239.766 978.86 239.016 979 238.196 979ZM241.976 973.51L234.716 957.1H237.716L243.896 971.26L241.976 973.51ZM260.755 973.18C259.135 973.18 257.685 972.83 256.405 972.13C255.145 971.43 254.155 970.47 253.435 969.25C252.715 968.03 252.355 966.63 252.355 965.05C252.355 963.47 252.715 962.07 253.435 960.85C254.155 959.63 255.145 958.68 256.405 958C257.685 957.3 259.135 956.95 260.755 956.95C262.195 956.95 263.475 957.24 264.595 957.82C265.735 958.38 266.615 959.22 267.235 960.34L265.045 961.75C264.525 960.97 263.885 960.4 263.125 960.04C262.385 959.66 261.585 959.47 260.725 959.47C259.685 959.47 258.755 959.7 257.935 960.16C257.115 960.62 256.465 961.27 255.985 962.11C255.505 962.93 255.265 963.91 255.265 965.05C255.265 966.19 255.505 967.18 255.985 968.02C256.465 968.86 257.115 969.51 257.935 969.97C258.755 970.43 259.685 970.66 260.725 970.66C261.585 970.66 262.385 970.48 263.125 970.12C263.885 969.74 264.525 969.16 265.045 968.38L267.235 969.76C266.615 970.86 265.735 971.71 264.595 972.31C263.475 972.89 262.195 973.18 260.755 973.18ZM270.758 973V950.74H273.638V973H270.758ZM279.137 973V957.1H282.017V973H279.137ZM280.577 954.04C280.017 954.04 279.547 953.86 279.167 953.5C278.807 953.14 278.627 952.7 278.627 952.18C278.627 951.64 278.807 951.19 279.167 950.83C279.547 950.47 280.017 950.29 280.577 950.29C281.137 950.29 281.597 950.47 281.957 950.83C282.337 951.17 282.527 951.6 282.527 952.12C282.527 952.66 282.347 953.12 281.987 953.5C281.627 953.86 281.157 954.04 280.577 954.04ZM294.446 973.18C292.826 973.18 291.376 972.83 290.096 972.13C288.836 971.43 287.846 970.47 287.126 969.25C286.406 968.03 286.046 966.63 286.046 965.05C286.046 963.47 286.406 962.07 287.126 960.85C287.846 959.63 288.836 958.68 290.096 958C291.376 957.3 292.826 956.95 294.446 956.95C295.886 956.95 297.166 957.24 298.286 957.82C299.426 958.38 300.306 959.22 300.926 960.34L298.736 961.75C298.216 960.97 297.576 960.4 296.816 960.04C296.076 959.66 295.276 959.47 294.416 959.47C293.376 959.47 292.446 959.7 291.626 960.16C290.806 960.62 290.156 961.27 289.676 962.11C289.196 962.93 288.956 963.91 288.956 965.05C288.956 966.19 289.196 967.18 289.676 968.02C290.156 968.86 290.806 969.51 291.626 969.97C292.446 970.43 293.376 970.66 294.416 970.66C295.276 970.66 296.076 970.48 296.816 970.12C297.576 969.74 298.216 969.16 298.736 968.38L300.926 969.76C300.306 970.86 299.426 971.71 298.286 972.31C297.166 972.89 295.886 973.18 294.446 973.18ZM322.611 973.24C320.991 973.24 319.501 972.98 318.141 972.46C316.781 971.92 315.601 971.17 314.601 970.21C313.601 969.23 312.821 968.09 312.261 966.79C311.701 965.49 311.421 964.06 311.421 962.5C311.421 960.94 311.701 959.51 312.261 958.21C312.821 956.91 313.601 955.78 314.601 954.82C315.621 953.84 316.811 953.09 318.171 952.57C319.531 952.03 321.031 951.76 322.671 951.76C324.331 951.76 325.851 952.03 327.231 952.57C328.611 953.11 329.781 953.92 330.741 955L328.881 956.86C328.021 956.02 327.081 955.41 326.061 955.03C325.061 954.63 323.971 954.43 322.791 954.43C321.591 954.43 320.471 954.63 319.431 955.03C318.411 955.43 317.521 955.99 316.761 956.71C316.021 957.43 315.441 958.29 315.021 959.29C314.621 960.27 314.421 961.34 314.421 962.5C314.421 963.64 314.621 964.71 315.021 965.71C315.441 966.69 316.021 967.55 316.761 968.29C317.521 969.01 318.411 969.57 319.431 969.97C320.451 970.37 321.561 970.57 322.761 970.57C323.881 970.57 324.951 970.4 325.971 970.06C327.011 969.7 327.971 969.11 328.851 968.29L330.561 970.57C329.521 971.45 328.301 972.12 326.901 972.58C325.521 973.02 324.091 973.24 322.611 973.24ZM327.681 970.18V962.38H330.561V970.57L327.681 970.18ZM335.885 973V957.1H338.645V961.42L338.375 960.34C338.815 959.24 339.555 958.4 340.595 957.82C341.635 957.24 342.915 956.95 344.435 956.95V959.74C344.315 959.72 344.195 959.71 344.075 959.71C343.975 959.71 343.875 959.71 343.775 959.71C342.235 959.71 341.015 960.17 340.115 961.09C339.215 962.01 338.765 963.34 338.765 965.08V973H335.885ZM354.648 973.18C353.048 973.18 351.628 972.83 350.388 972.13C349.148 971.43 348.168 970.47 347.448 969.25C346.728 968.01 346.368 966.61 346.368 965.05C346.368 963.47 346.728 962.07 347.448 960.85C348.168 959.63 349.148 958.68 350.388 958C351.628 957.3 353.048 956.95 354.648 956.95C356.228 956.95 357.638 957.3 358.878 958C360.138 958.68 361.118 959.63 361.818 960.85C362.538 962.05 362.898 963.45 362.898 965.05C362.898 966.63 362.538 968.03 361.818 969.25C361.118 970.47 360.138 971.43 358.878 972.13C357.638 972.83 356.228 973.18 354.648 973.18ZM354.648 970.66C355.668 970.66 356.578 970.43 357.378 969.97C358.198 969.51 358.838 968.86 359.298 968.02C359.758 967.16 359.988 966.17 359.988 965.05C359.988 963.91 359.758 962.93 359.298 962.11C358.838 961.27 358.198 960.62 357.378 960.16C356.578 959.7 355.668 959.47 354.648 959.47C353.628 959.47 352.718 959.7 351.918 960.16C351.118 960.62 350.478 961.27 349.998 962.11C349.518 962.93 349.278 963.91 349.278 965.05C349.278 966.17 349.518 967.16 349.998 968.02C350.478 968.86 351.118 969.51 351.918 969.97C352.718 970.43 353.628 970.66 354.648 970.66ZM373.571 973.18C372.211 973.18 371.011 972.93 369.971 972.43C368.951 971.93 368.151 971.17 367.571 970.15C367.011 969.11 366.731 967.81 366.731 966.25V957.1H369.611V965.92C369.611 967.48 369.981 968.65 370.721 969.43C371.481 970.21 372.541 970.6 373.901 970.6C374.901 970.6 375.771 970.4 376.511 970C377.251 969.58 377.821 968.98 378.221 968.2C378.621 967.4 378.821 966.44 378.821 965.32V957.1H381.701V973H378.971V968.71L379.421 969.85C378.901 970.91 378.121 971.73 377.081 972.31C376.041 972.89 374.871 973.18 373.571 973.18ZM395.614 973.18C394.294 973.18 393.084 972.88 391.984 972.28C390.904 971.66 390.034 970.75 389.374 969.55C388.734 968.35 388.414 966.85 388.414 965.05C388.414 963.25 388.724 961.75 389.344 960.55C389.984 959.35 390.844 958.45 391.924 957.85C393.024 957.25 394.254 956.95 395.614 956.95C397.174 956.95 398.554 957.29 399.754 957.97C400.954 958.65 401.904 959.6 402.604 960.82C403.304 962.02 403.654 963.43 403.654 965.05C403.654 966.67 403.304 968.09 402.604 969.31C401.904 970.53 400.954 971.48 399.754 972.16C398.554 972.84 397.174 973.18 395.614 973.18ZM387.184 978.82V957.1H389.944V961.39L389.764 965.08L390.064 968.77V978.82H387.184ZM395.374 970.66C396.394 970.66 397.304 970.43 398.104 969.97C398.924 969.51 399.564 968.86 400.024 968.02C400.504 967.16 400.744 966.17 400.744 965.05C400.744 963.91 400.504 962.93 400.024 962.11C399.564 961.27 398.924 960.62 398.104 960.16C397.304 959.7 396.394 959.47 395.374 959.47C394.374 959.47 393.464 959.7 392.644 960.16C391.844 960.62 391.204 961.27 390.724 962.11C390.264 962.93 390.034 963.91 390.034 965.05C390.034 966.17 390.264 967.16 390.724 968.02C391.204 968.86 391.844 969.51 392.644 969.97C393.464 970.43 394.374 970.66 395.374 970.66Z" fill="#F1EAE1"/>
<g clip-path="url(#clip1_330_110)">
<path d="M1495.06 379.814C1494.26 380.054 1493.81 380.891 1494.05 381.684L1497.96 394.607C1498.2 395.4 1499.03 395.849 1499.83 395.609C1500.62 395.369 1501.07 394.532 1500.83 393.739L1497.36 382.252L1508.85 378.781C1509.64 378.541 1510.09 377.704 1509.85 376.911C1509.61 376.118 1508.77 375.67 1507.98 375.909L1495.06 379.814ZM1495.49 381.25C1494.78 382.572 1494.78 382.572 1494.78 382.573C1494.78 382.573 1494.78 382.574 1494.78 382.575C1494.79 382.577 1494.8 382.58 1494.8 382.585C1494.82 382.594 1494.85 382.609 1494.88 382.628C1494.95 382.667 1495.06 382.727 1495.2 382.806C1495.49 382.966 1495.92 383.206 1496.47 383.527C1497.58 384.168 1499.19 385.13 1501.22 386.407C1505.27 388.96 1510.94 392.771 1517.42 397.788C1530.4 407.828 1546.58 422.669 1559.49 441.899C1572.4 461.121 1582.02 484.692 1581.95 512.239C1581.88 539.776 1572.13 571.443 1546.03 606.861L1548.45 608.64C1574.85 572.808 1584.88 540.537 1584.95 512.247C1585.02 483.964 1575.14 459.817 1561.98 440.227C1548.84 420.644 1532.39 405.578 1519.26 395.416C1512.69 390.331 1506.94 386.466 1502.82 383.869C1500.76 382.571 1499.11 381.589 1497.98 380.93C1497.41 380.601 1496.96 380.352 1496.66 380.185C1496.51 380.101 1496.4 380.038 1496.32 379.995C1496.28 379.974 1496.25 379.957 1496.23 379.946C1496.22 379.941 1496.21 379.936 1496.21 379.933C1496.2 379.932 1496.2 379.931 1496.2 379.93C1496.2 379.929 1496.2 379.928 1495.49 381.25ZM1546.03 606.861C1517.91 645.025 1509.29 702.993 1507.62 751.153C1506.78 775.279 1507.69 797.032 1508.81 812.754C1509.37 820.615 1509.98 826.972 1510.45 831.366C1510.68 833.562 1510.89 835.269 1511.03 836.427C1511.1 837.007 1511.16 837.45 1511.19 837.747C1511.21 837.897 1511.23 838.009 1511.24 838.086C1511.24 838.125 1511.25 838.153 1511.25 838.173C1511.25 838.183 1511.25 838.191 1511.25 838.195C1511.25 838.198 1511.25 838.2 1511.25 838.201C1511.25 838.203 1511.25 838.204 1512.74 838C1514.23 837.796 1514.23 837.796 1514.23 837.796C1514.23 837.795 1514.23 837.793 1514.23 837.792C1514.23 837.787 1514.23 837.78 1514.22 837.771C1514.22 837.753 1514.22 837.726 1514.21 837.69C1514.2 837.616 1514.19 837.507 1514.17 837.361C1514.13 837.069 1514.08 836.634 1514.01 836.062C1513.86 834.918 1513.67 833.226 1513.43 831.045C1512.96 826.683 1512.36 820.363 1511.8 812.541C1510.69 796.894 1509.79 775.251 1510.62 751.257C1512.28 703.18 1520.91 646.021 1548.45 608.64L1546.03 606.861Z" fill="white"/>
<path d="M831.753 377.757C831.895 376.941 831.348 376.164 830.532 376.022L817.23 373.714C816.414 373.572 815.638 374.119 815.496 374.935C815.354 375.751 815.901 376.528 816.717 376.67L828.541 378.722L826.489 390.545C826.347 391.361 826.894 392.138 827.71 392.279C828.526 392.421 829.303 391.874 829.445 391.058L831.753 377.757ZM847.528 834.25C848.768 835.095 848.769 835.093 848.77 835.092C848.77 835.09 848.772 835.089 848.773 835.086C848.776 835.083 848.78 835.077 848.784 835.069C848.793 835.056 848.806 835.038 848.822 835.012C848.855 834.963 848.902 834.892 848.962 834.799C849.082 834.613 849.255 834.339 849.473 833.979C849.911 833.26 850.532 832.197 851.277 830.8C852.768 828.006 854.76 823.878 856.787 818.505C860.842 807.759 865.041 792.027 865.664 772.023C866.909 731.979 853.817 675.004 796.926 606.79L794.622 608.71C851.101 676.432 863.885 732.706 862.665 771.93C862.055 791.559 857.935 806.964 853.98 817.446C852.003 822.687 850.066 826.696 848.63 829.387C847.913 830.733 847.32 831.747 846.91 832.42C846.705 832.758 846.546 833.008 846.44 833.173C846.387 833.256 846.347 833.317 846.321 833.356C846.308 833.376 846.299 833.389 846.293 833.398C846.291 833.401 846.289 833.404 846.288 833.406C846.287 833.407 846.287 833.407 846.287 833.407C846.287 833.407 846.287 833.406 847.528 834.25ZM796.926 606.79C770.047 574.56 758.824 544.243 757.01 516.936C755.196 489.615 762.79 465.168 773.768 444.677C784.75 424.181 799.098 407.684 810.717 396.302C816.523 390.615 821.64 386.213 825.301 383.236C827.131 381.747 828.596 380.616 829.602 379.858C830.104 379.48 830.492 379.195 830.752 379.005C830.882 378.911 830.98 378.84 831.045 378.793C831.078 378.77 831.102 378.753 831.117 378.742C831.125 378.736 831.131 378.732 831.135 378.73C831.136 378.728 831.137 378.728 831.138 378.727C831.139 378.727 831.139 378.727 830.275 377.5C829.412 376.274 829.41 376.275 829.409 376.276C829.407 376.277 829.405 376.278 829.403 376.28C829.398 376.284 829.39 376.289 829.381 376.295C829.362 376.309 829.335 376.328 829.299 376.354C829.228 376.405 829.123 376.48 828.986 376.58C828.713 376.779 828.312 377.074 827.796 377.463C826.764 378.241 825.269 379.395 823.408 380.908C819.687 383.934 814.5 388.398 808.618 394.159C796.86 405.676 782.294 422.413 771.124 443.26C759.951 464.115 752.156 489.12 754.017 517.135C755.879 545.163 767.397 576.066 794.622 608.71L796.926 606.79Z" fill="white"/>
<path d="M1092.77 408.836C1092.67 408.013 1091.93 407.419 1091.11 407.51L1077.69 408.993C1076.87 409.084 1076.27 409.825 1076.37 410.648C1076.46 411.472 1077.2 412.066 1078.02 411.975L1089.95 410.657L1091.27 422.584C1091.36 423.407 1092.1 424.001 1092.92 423.91C1093.75 423.819 1094.34 423.078 1094.25 422.255L1092.77 408.836ZM1112.99 772C1112.53 770.572 1112.54 770.571 1112.54 770.568C1112.54 770.568 1112.55 770.566 1112.55 770.565C1112.56 770.563 1112.57 770.562 1112.57 770.56C1112.58 770.556 1112.6 770.553 1112.61 770.55C1112.63 770.545 1112.64 770.542 1112.65 770.539C1112.68 770.535 1112.68 770.536 1112.67 770.536C1112.65 770.538 1112.55 770.539 1112.36 770.496C1112 770.409 1111.26 770.127 1110.18 769.204C1107.99 767.335 1104.57 762.976 1100.21 752.986C1091.51 733.033 1079.35 691.191 1065.73 603.769L1062.76 604.231C1076.39 691.705 1088.6 733.863 1097.46 754.186C1101.89 764.335 1105.54 769.182 1108.23 771.486C1109.59 772.65 1110.75 773.194 1111.66 773.413C1112.12 773.523 1112.51 773.548 1112.81 773.533C1112.97 773.526 1113.1 773.509 1113.2 773.49C1113.25 773.479 1113.3 773.469 1113.34 773.458C1113.36 773.454 1113.38 773.448 1113.4 773.443C1113.41 773.44 1113.42 773.437 1113.43 773.436C1113.43 773.434 1113.43 773.433 1113.44 773.431C1113.44 773.43 1113.45 773.428 1112.99 772ZM1065.73 603.769C1055.25 536.482 1061.99 487.956 1071.31 456.3C1075.97 440.468 1081.28 428.846 1085.41 421.198C1087.48 417.374 1089.25 414.543 1090.5 412.676C1091.12 411.743 1091.61 411.051 1091.95 410.596C1092.12 410.368 1092.24 410.2 1092.33 410.09C1092.37 410.036 1092.4 409.996 1092.42 409.971C1092.43 409.958 1092.44 409.949 1092.44 409.944C1092.44 409.941 1092.45 409.939 1092.45 409.939C1092.45 409.938 1092.45 409.938 1092.45 409.938C1092.45 409.938 1092.45 409.939 1091.28 409.001C1090.1 408.063 1090.1 408.064 1090.1 408.065C1090.1 408.066 1090.1 408.068 1090.1 408.069C1090.1 408.072 1090.09 408.076 1090.09 408.08C1090.08 408.09 1090.07 408.103 1090.06 408.119C1090.03 408.153 1090 408.201 1089.95 408.264C1089.85 408.39 1089.71 408.575 1089.53 408.82C1089.17 409.31 1088.65 410.038 1088 411.009C1086.71 412.951 1084.89 415.862 1082.77 419.773C1078.55 427.593 1073.16 439.409 1068.43 455.452C1058.98 487.545 1052.22 536.518 1062.76 604.231L1065.73 603.769Z" fill="white"/>
<path d="M959.242 449.5C999.835 449.5 1032.74 416.593 1032.74 376C1032.74 335.407 999.835 302.5 959.242 302.5C918.649 302.5 885.742 335.407 885.742 376C885.742 416.593 918.649 449.5 959.242 449.5Z" fill="#2A2D39" stroke="white" stroke-width="2"/>
<path d="M921.3 396.73C919.59 394 918.27 390.85 917.34 387.28C916.41 383.68 915.945 379.81 915.945 375.67C915.945 371.53 916.41 367.66 917.34 364.06C918.27 360.43 919.59 357.28 921.3 354.61H925.395C923.595 357.79 922.275 361.12 921.435 364.6C920.595 368.05 920.175 371.74 920.175 375.67C920.175 379.6 920.595 383.305 921.435 386.785C922.275 390.235 923.595 393.55 925.395 396.73H921.3ZM941.547 388.27C938.997 388.27 936.747 387.745 934.797 386.695C932.877 385.645 931.377 384.205 930.297 382.375C929.247 380.545 928.722 378.445 928.722 376.075C928.722 373.705 929.232 371.605 930.252 369.775C931.302 367.945 932.727 366.52 934.527 365.5C936.357 364.45 938.412 363.925 940.692 363.925C943.002 363.925 945.042 364.435 946.812 365.455C948.582 366.475 949.962 367.915 950.952 369.775C951.972 371.605 952.482 373.75 952.482 376.21C952.482 376.39 952.467 376.6 952.437 376.84C952.437 377.08 952.422 377.305 952.392 377.515H932.097V374.41H950.142L948.387 375.49C948.417 373.96 948.102 372.595 947.442 371.395C946.782 370.195 945.867 369.265 944.697 368.605C943.557 367.915 942.222 367.57 940.692 367.57C939.192 367.57 937.857 367.915 936.687 368.605C935.517 369.265 934.602 370.21 933.942 371.44C933.282 372.64 932.952 374.02 932.952 375.58V376.3C932.952 377.89 933.312 379.315 934.032 380.575C934.782 381.805 935.817 382.765 937.137 383.455C938.457 384.145 939.972 384.49 941.682 384.49C943.092 384.49 944.367 384.25 945.507 383.77C946.677 383.29 947.697 382.57 948.567 381.61L950.952 384.4C949.872 385.66 948.522 386.62 946.902 387.28C945.312 387.94 943.527 388.27 941.547 388.27ZM956.771 394.66L959.021 385.57L959.606 388.18C958.736 388.18 958.001 387.91 957.401 387.37C956.831 386.83 956.546 386.095 956.546 385.165C956.546 384.265 956.831 383.53 957.401 382.96C958.001 382.39 958.721 382.105 959.561 382.105C960.431 382.105 961.136 382.405 961.676 383.005C962.216 383.575 962.486 384.295 962.486 385.165C962.486 385.465 962.456 385.765 962.396 386.065C962.366 386.335 962.291 386.665 962.171 387.055C962.081 387.415 961.931 387.865 961.721 388.405L959.606 394.66H956.771ZM978.768 388.27C976.218 388.27 973.968 387.745 972.018 386.695C970.098 385.645 968.598 384.205 967.518 382.375C966.468 380.545 965.943 378.445 965.943 376.075C965.943 373.705 966.453 371.605 967.473 369.775C968.523 367.945 969.948 366.52 971.748 365.5C973.578 364.45 975.633 363.925 977.913 363.925C980.223 363.925 982.263 364.435 984.033 365.455C985.803 366.475 987.183 367.915 988.173 369.775C989.193 371.605 989.703 373.75 989.703 376.21C989.703 376.39 989.688 376.6 989.658 376.84C989.658 377.08 989.643 377.305 989.613 377.515H969.318V374.41H987.363L985.608 375.49C985.638 373.96 985.323 372.595 984.663 371.395C984.003 370.195 983.088 369.265 981.918 368.605C980.778 367.915 979.443 367.57 977.913 367.57C976.413 367.57 975.078 367.915 973.908 368.605C972.738 369.265 971.823 370.21 971.163 371.44C970.503 372.64 970.173 374.02 970.173 375.58V376.3C970.173 377.89 970.533 379.315 971.253 380.575C972.003 381.805 973.038 382.765 974.358 383.455C975.678 384.145 977.193 384.49 978.903 384.49C980.313 384.49 981.588 384.25 982.728 383.77C983.898 383.29 984.918 382.57 985.788 381.61L988.173 384.4C987.093 385.66 985.743 386.62 984.123 387.28C982.533 387.94 980.748 388.27 978.768 388.27ZM997.142 396.73H993.047C994.877 393.55 996.212 390.235 997.052 386.785C997.892 383.305 998.312 379.6 998.312 375.67C998.312 371.74 997.892 368.05 997.052 364.6C996.212 361.12 994.877 357.79 993.047 354.61H997.142C998.912 357.28 1000.25 360.43 1001.15 364.06C1002.08 367.66 1002.54 371.53 1002.54 375.67C1002.54 379.81 1002.08 383.68 1001.15 387.28C1000.25 390.85 998.912 394 997.142 396.73Z" fill="#F1EAE1"/>
<path d="M1184.24 449.5C1224.84 449.5 1257.74 416.593 1257.74 376C1257.74 335.407 1224.84 302.5 1184.24 302.5C1143.65 302.5 1110.74 335.407 1110.74 376C1110.74 416.593 1143.65 449.5 1184.24 449.5Z" fill="#2A2D39" stroke="white" stroke-width="2"/>
<path d="M1146.15 396.73C1144.44 394 1143.12 390.85 1142.19 387.28C1141.26 383.68 1140.79 379.81 1140.79 375.67C1140.79 371.53 1141.26 367.66 1142.19 364.06C1143.12 360.43 1144.44 357.28 1146.15 354.61H1150.24C1148.44 357.79 1147.12 361.12 1146.28 364.6C1145.44 368.05 1145.02 371.74 1145.02 375.67C1145.02 379.6 1145.44 383.305 1146.28 386.785C1147.12 390.235 1148.44 393.55 1150.24 396.73H1146.15ZM1166.39 388.27C1163.84 388.27 1161.59 387.745 1159.64 386.695C1157.72 385.645 1156.22 384.205 1155.14 382.375C1154.09 380.545 1153.57 378.445 1153.57 376.075C1153.57 373.705 1154.08 371.605 1155.1 369.775C1156.15 367.945 1157.57 366.52 1159.37 365.5C1161.2 364.45 1163.26 363.925 1165.54 363.925C1167.85 363.925 1169.89 364.435 1171.66 365.455C1173.43 366.475 1174.81 367.915 1175.8 369.775C1176.82 371.605 1177.33 373.75 1177.33 376.21C1177.33 376.39 1177.31 376.6 1177.28 376.84C1177.28 377.08 1177.27 377.305 1177.24 377.515H1156.94V374.41H1174.99L1173.23 375.49C1173.26 373.96 1172.95 372.595 1172.29 371.395C1171.63 370.195 1170.71 369.265 1169.54 368.605C1168.4 367.915 1167.07 367.57 1165.54 367.57C1164.04 367.57 1162.7 367.915 1161.53 368.605C1160.36 369.265 1159.45 370.21 1158.79 371.44C1158.13 372.64 1157.8 374.02 1157.8 375.58V376.3C1157.8 377.89 1158.16 379.315 1158.88 380.575C1159.63 381.805 1160.66 382.765 1161.98 383.455C1163.3 384.145 1164.82 384.49 1166.53 384.49C1167.94 384.49 1169.21 384.25 1170.35 383.77C1171.52 383.29 1172.54 382.57 1173.41 381.61L1175.8 384.4C1174.72 385.66 1173.37 386.62 1171.75 387.28C1170.16 387.94 1168.37 388.27 1166.39 388.27ZM1181.62 394.66L1183.87 385.57L1184.45 388.18C1183.58 388.18 1182.85 387.91 1182.25 387.37C1181.68 386.83 1181.39 386.095 1181.39 385.165C1181.39 384.265 1181.68 383.53 1182.25 382.96C1182.85 382.39 1183.57 382.105 1184.41 382.105C1185.28 382.105 1185.98 382.405 1186.52 383.005C1187.06 383.575 1187.33 384.295 1187.33 385.165C1187.33 385.465 1187.3 385.765 1187.24 386.065C1187.21 386.335 1187.14 386.665 1187.02 387.055C1186.93 387.415 1186.78 387.865 1186.57 388.405L1184.45 394.66H1181.62ZM1208.77 388V382.96L1208.54 382.015V373.42C1208.54 371.59 1208 370.18 1206.92 369.19C1205.87 368.17 1204.28 367.66 1202.15 367.66C1200.74 367.66 1199.36 367.9 1198.01 368.38C1196.66 368.83 1195.52 369.445 1194.59 370.225L1192.79 366.985C1194.02 365.995 1195.49 365.245 1197.2 364.735C1198.94 364.195 1200.76 363.925 1202.65 363.925C1205.92 363.925 1208.44 364.72 1210.21 366.31C1211.98 367.9 1212.86 370.33 1212.86 373.6V388H1208.77ZM1200.94 388.27C1199.17 388.27 1197.61 387.97 1196.26 387.37C1194.94 386.77 1193.92 385.945 1193.2 384.895C1192.48 383.815 1192.12 382.6 1192.12 381.25C1192.12 379.96 1192.42 378.79 1193.02 377.74C1193.65 376.69 1194.65 375.85 1196.03 375.22C1197.44 374.59 1199.33 374.275 1201.7 374.275H1209.26V377.38H1201.88C1199.72 377.38 1198.27 377.74 1197.52 378.46C1196.77 379.18 1196.39 380.05 1196.39 381.07C1196.39 382.24 1196.86 383.185 1197.79 383.905C1198.72 384.595 1200.01 384.94 1201.66 384.94C1203.28 384.94 1204.69 384.58 1205.89 383.86C1207.12 383.14 1208 382.09 1208.54 380.71L1209.4 383.68C1208.83 385.09 1207.82 386.215 1206.38 387.055C1204.94 387.865 1203.13 388.27 1200.94 388.27ZM1222.3 396.73H1218.2C1220.03 393.55 1221.37 390.235 1222.21 386.785C1223.05 383.305 1223.47 379.6 1223.47 375.67C1223.47 371.74 1223.05 368.05 1222.21 364.6C1221.37 361.12 1220.03 357.79 1218.2 354.61H1222.3C1224.07 357.28 1225.4 360.43 1226.3 364.06C1227.23 367.66 1227.7 371.53 1227.7 375.67C1227.7 379.81 1227.23 383.68 1226.3 387.28C1225.4 390.85 1224.07 394 1222.3 396.73Z" fill="#F1EAE1"/>
<path d="M1409.24 449.5C1449.84 449.5 1482.74 416.593 1482.74 376C1482.74 335.407 1449.84 302.5 1409.24 302.5C1368.65 302.5 1335.74 335.407 1335.74 376C1335.74 416.593 1368.65 449.5 1409.24 449.5Z" fill="#2A2D39" stroke="white" stroke-width="2"/>
<path d="M1371.15 396.73C1369.44 394 1368.12 390.85 1367.19 387.28C1366.26 383.68 1365.79 379.81 1365.79 375.67C1365.79 371.53 1366.26 367.66 1367.19 364.06C1368.12 360.43 1369.44 357.28 1371.15 354.61H1375.24C1373.44 357.79 1372.12 361.12 1371.28 364.6C1370.44 368.05 1370.02 371.74 1370.02 375.67C1370.02 379.6 1370.44 383.305 1371.28 386.785C1372.12 390.235 1373.44 393.55 1375.24 396.73H1371.15ZM1391.39 388.27C1388.84 388.27 1386.59 387.745 1384.64 386.695C1382.72 385.645 1381.22 384.205 1380.14 382.375C1379.09 380.545 1378.57 378.445 1378.57 376.075C1378.57 373.705 1379.08 371.605 1380.1 369.775C1381.15 367.945 1382.57 366.52 1384.37 365.5C1386.2 364.45 1388.26 363.925 1390.54 363.925C1392.85 363.925 1394.89 364.435 1396.66 365.455C1398.43 366.475 1399.81 367.915 1400.8 369.775C1401.82 371.605 1402.33 373.75 1402.33 376.21C1402.33 376.39 1402.31 376.6 1402.28 376.84C1402.28 377.08 1402.27 377.305 1402.24 377.515H1381.94V374.41H1399.99L1398.23 375.49C1398.26 373.96 1397.95 372.595 1397.29 371.395C1396.63 370.195 1395.71 369.265 1394.54 368.605C1393.4 367.915 1392.07 367.57 1390.54 367.57C1389.04 367.57 1387.7 367.915 1386.53 368.605C1385.36 369.265 1384.45 370.21 1383.79 371.44C1383.13 372.64 1382.8 374.02 1382.8 375.58V376.3C1382.8 377.89 1383.16 379.315 1383.88 380.575C1384.63 381.805 1385.66 382.765 1386.98 383.455C1388.3 384.145 1389.82 384.49 1391.53 384.49C1392.94 384.49 1394.21 384.25 1395.35 383.77C1396.52 383.29 1397.54 382.57 1398.41 381.61L1400.8 384.4C1399.72 385.66 1398.37 386.62 1396.75 387.28C1395.16 387.94 1393.37 388.27 1391.39 388.27ZM1406.62 394.66L1408.87 385.57L1409.45 388.18C1408.58 388.18 1407.85 387.91 1407.25 387.37C1406.68 386.83 1406.39 386.095 1406.39 385.165C1406.39 384.265 1406.68 383.53 1407.25 382.96C1407.85 382.39 1408.57 382.105 1409.41 382.105C1410.28 382.105 1410.98 382.405 1411.52 383.005C1412.06 383.575 1412.33 384.295 1412.33 385.165C1412.33 385.465 1412.3 385.765 1412.24 386.065C1412.21 386.335 1412.14 386.665 1412.02 387.055C1411.93 387.415 1411.78 387.865 1411.57 388.405L1409.45 394.66H1406.62ZM1433.77 388V382.96L1433.54 382.015V373.42C1433.54 371.59 1433 370.18 1431.92 369.19C1430.87 368.17 1429.28 367.66 1427.15 367.66C1425.74 367.66 1424.36 367.9 1423.01 368.38C1421.66 368.83 1420.52 369.445 1419.59 370.225L1417.79 366.985C1419.02 365.995 1420.49 365.245 1422.2 364.735C1423.94 364.195 1425.76 363.925 1427.65 363.925C1430.92 363.925 1433.44 364.72 1435.21 366.31C1436.98 367.9 1437.86 370.33 1437.86 373.6V388H1433.77ZM1425.94 388.27C1424.17 388.27 1422.61 387.97 1421.26 387.37C1419.94 386.77 1418.92 385.945 1418.2 384.895C1417.48 383.815 1417.12 382.6 1417.12 381.25C1417.12 379.96 1417.42 378.79 1418.02 377.74C1418.65 376.69 1419.65 375.85 1421.03 375.22C1422.44 374.59 1424.33 374.275 1426.7 374.275H1434.26V377.38H1426.88C1424.72 377.38 1423.27 377.74 1422.52 378.46C1421.77 379.18 1421.39 380.05 1421.39 381.07C1421.39 382.24 1421.86 383.185 1422.79 383.905C1423.72 384.595 1425.01 384.94 1426.66 384.94C1428.28 384.94 1429.69 384.58 1430.89 383.86C1432.12 383.14 1433 382.09 1433.54 380.71L1434.4 383.68C1433.83 385.09 1432.82 386.215 1431.38 387.055C1429.94 387.865 1428.13 388.27 1425.94 388.27ZM1447.3 396.73H1443.2C1445.03 393.55 1446.37 390.235 1447.21 386.785C1448.05 383.305 1448.47 379.6 1448.47 375.67C1448.47 371.74 1448.05 368.05 1447.21 364.6C1446.37 361.12 1445.03 357.79 1443.2 354.61H1447.3C1449.07 357.28 1450.4 360.43 1451.3 364.06C1452.23 367.66 1452.7 371.53 1452.7 375.67C1452.7 379.81 1452.23 383.68 1451.3 387.28C1450.4 390.85 1449.07 394 1447.3 396.73Z" fill="#F1EAE1"/>
<path d="M1433.99 361V359.98L1438.26 355.855C1438.64 355.495 1438.92 355.18 1439.1 354.91C1439.3 354.63 1439.42 354.375 1439.48 354.145C1439.55 353.905 1439.58 353.675 1439.58 353.455C1439.58 352.915 1439.39 352.49 1439.01 352.18C1438.64 351.87 1438.08 351.715 1437.35 351.715C1436.79 351.715 1436.28 351.81 1435.83 352C1435.38 352.18 1434.99 352.465 1434.66 352.855L1433.64 351.97C1434.05 351.46 1434.58 351.07 1435.25 350.8C1435.93 350.52 1436.67 350.38 1437.48 350.38C1438.22 350.38 1438.85 350.5 1439.39 350.74C1439.93 350.97 1440.34 351.305 1440.63 351.745C1440.93 352.185 1441.08 352.705 1441.08 353.305C1441.08 353.645 1441.04 353.98 1440.95 354.31C1440.86 354.64 1440.69 354.99 1440.44 355.36C1440.19 355.73 1439.83 356.145 1439.36 356.605L1435.55 360.28L1435.19 359.695H1441.53V361H1433.99Z" fill="#F1EAE1"/>
<path d="M1184.24 674.5C1224.84 674.5 1257.74 641.593 1257.74 601C1257.74 560.407 1224.84 527.5 1184.24 527.5C1143.65 527.5 1110.74 560.407 1110.74 601C1110.74 641.593 1143.65 674.5 1184.24 674.5Z" fill="#2A2D39" stroke="white" stroke-width="2"/>
<path d="M1146.48 621.73C1144.77 619 1143.45 615.85 1142.52 612.28C1141.59 608.68 1141.12 604.81 1141.12 600.67C1141.12 596.53 1141.59 592.66 1142.52 589.06C1143.45 585.43 1144.77 582.28 1146.48 579.61H1150.57C1148.77 582.79 1147.45 586.12 1146.61 589.6C1145.77 593.05 1145.35 596.74 1145.35 600.67C1145.35 604.6 1145.77 608.305 1146.61 611.785C1147.45 615.235 1148.77 618.55 1150.57 621.73H1146.48ZM1170.91 613V607.96L1170.68 607.015V598.42C1170.68 596.59 1170.14 595.18 1169.06 594.19C1168.01 593.17 1166.42 592.66 1164.29 592.66C1162.88 592.66 1161.5 592.9 1160.15 593.38C1158.8 593.83 1157.66 594.445 1156.73 595.225L1154.93 591.985C1156.16 590.995 1157.63 590.245 1159.34 589.735C1161.08 589.195 1162.9 588.925 1164.79 588.925C1168.06 588.925 1170.58 589.72 1172.35 591.31C1174.12 592.9 1175 595.33 1175 598.6V613H1170.91ZM1163.08 613.27C1161.31 613.27 1159.75 612.97 1158.4 612.37C1157.08 611.77 1156.06 610.945 1155.34 609.895C1154.62 608.815 1154.26 607.6 1154.26 606.25C1154.26 604.96 1154.56 603.79 1155.16 602.74C1155.79 601.69 1156.79 600.85 1158.17 600.22C1159.58 599.59 1161.47 599.275 1163.84 599.275H1171.4V602.38H1164.02C1161.86 602.38 1160.41 602.74 1159.66 603.46C1158.91 604.18 1158.53 605.05 1158.53 606.07C1158.53 607.24 1159 608.185 1159.93 608.905C1160.86 609.595 1162.15 609.94 1163.8 609.94C1165.42 609.94 1166.83 609.58 1168.03 608.86C1169.26 608.14 1170.14 607.09 1170.68 605.71L1171.54 608.68C1170.97 610.09 1169.96 611.215 1168.52 612.055C1167.08 612.865 1165.27 613.27 1163.08 613.27ZM1181.29 619.66L1183.54 610.57L1184.12 613.18C1183.25 613.18 1182.52 612.91 1181.92 612.37C1181.35 611.83 1181.06 611.095 1181.06 610.165C1181.06 609.265 1181.35 608.53 1181.92 607.96C1182.52 607.39 1183.24 607.105 1184.08 607.105C1184.95 607.105 1185.65 607.405 1186.19 608.005C1186.73 608.575 1187 609.295 1187 610.165C1187 610.465 1186.97 610.765 1186.91 611.065C1186.88 611.335 1186.81 611.665 1186.69 612.055C1186.6 612.415 1186.45 612.865 1186.24 613.405L1184.12 619.66H1181.29ZM1208.44 613V607.96L1208.21 607.015V598.42C1208.21 596.59 1207.67 595.18 1206.59 594.19C1205.54 593.17 1203.95 592.66 1201.82 592.66C1200.41 592.66 1199.03 592.9 1197.68 593.38C1196.33 593.83 1195.19 594.445 1194.26 595.225L1192.46 591.985C1193.69 590.995 1195.16 590.245 1196.87 589.735C1198.61 589.195 1200.43 588.925 1202.32 588.925C1205.59 588.925 1208.11 589.72 1209.88 591.31C1211.65 592.9 1212.53 595.33 1212.53 598.6V613H1208.44ZM1200.61 613.27C1198.84 613.27 1197.28 612.97 1195.93 612.37C1194.61 611.77 1193.59 610.945 1192.87 609.895C1192.15 608.815 1191.79 607.6 1191.79 606.25C1191.79 604.96 1192.09 603.79 1192.69 602.74C1193.32 601.69 1194.32 600.85 1195.7 600.22C1197.11 599.59 1199 599.275 1201.37 599.275H1208.93V602.38H1201.55C1199.39 602.38 1197.94 602.74 1197.19 603.46C1196.44 604.18 1196.06 605.05 1196.06 606.07C1196.06 607.24 1196.53 608.185 1197.46 608.905C1198.39 609.595 1199.68 609.94 1201.33 609.94C1202.95 609.94 1204.36 609.58 1205.56 608.86C1206.79 608.14 1207.67 607.09 1208.21 605.71L1209.07 608.68C1208.5 610.09 1207.49 611.215 1206.05 612.055C1204.61 612.865 1202.8 613.27 1200.61 613.27ZM1221.97 621.73H1217.87C1219.7 618.55 1221.04 615.235 1221.88 611.785C1222.72 608.305 1223.14 604.6 1223.14 600.67C1223.14 596.74 1222.72 593.05 1221.88 589.6C1221.04 586.12 1219.7 582.79 1217.87 579.61H1221.97C1223.74 582.28 1225.07 585.43 1225.97 589.06C1226.9 592.66 1227.37 596.53 1227.37 600.67C1227.37 604.81 1226.9 608.68 1225.97 612.28C1225.07 615.85 1223.74 619 1221.97 621.73Z" fill="#F1EAE1"/>
<path d="M959.242 674.5C999.835 674.5 1032.74 641.593 1032.74 601C1032.74 560.407 999.835 527.5 959.242 527.5C918.649 527.5 885.742 560.407 885.742 601C885.742 641.593 918.649 674.5 959.242 674.5Z" fill="#2A2D39" stroke="white" stroke-width="2"/>
<path d="M921.632 621.73C919.922 619 918.602 615.85 917.672 612.28C916.742 608.68 916.277 604.81 916.277 600.67C916.277 596.53 916.742 592.66 917.672 589.06C918.602 585.43 919.922 582.28 921.632 579.61H925.727C923.927 582.79 922.607 586.12 921.767 589.6C920.927 593.05 920.507 596.74 920.507 600.67C920.507 604.6 920.927 608.305 921.767 611.785C922.607 615.235 923.927 618.55 925.727 621.73H921.632ZM946.063 613V607.96L945.838 607.015V598.42C945.838 596.59 945.298 595.18 944.218 594.19C943.168 593.17 941.578 592.66 939.448 592.66C938.038 592.66 936.658 592.9 935.308 593.38C933.958 593.83 932.818 594.445 931.888 595.225L930.088 591.985C931.318 590.995 932.788 590.245 934.498 589.735C936.238 589.195 938.053 588.925 939.943 588.925C943.213 588.925 945.733 589.72 947.503 591.31C949.273 592.9 950.158 595.33 950.158 598.6V613H946.063ZM938.233 613.27C936.463 613.27 934.903 612.97 933.553 612.37C932.233 611.77 931.213 610.945 930.493 609.895C929.773 608.815 929.413 607.6 929.413 606.25C929.413 604.96 929.713 603.79 930.313 602.74C930.943 601.69 931.948 600.85 933.328 600.22C934.738 599.59 936.628 599.275 938.998 599.275H946.558V602.38H939.178C937.018 602.38 935.563 602.74 934.813 603.46C934.063 604.18 933.688 605.05 933.688 606.07C933.688 607.24 934.153 608.185 935.083 608.905C936.013 609.595 937.303 609.94 938.953 609.94C940.573 609.94 941.983 609.58 943.183 608.86C944.413 608.14 945.298 607.09 945.838 605.71L946.693 608.68C946.123 610.09 945.118 611.215 943.678 612.055C942.238 612.865 940.423 613.27 938.233 613.27ZM956.443 619.66L958.693 610.57L959.278 613.18C958.408 613.18 957.673 612.91 957.073 612.37C956.503 611.83 956.218 611.095 956.218 610.165C956.218 609.265 956.503 608.53 957.073 607.96C957.673 607.39 958.393 607.105 959.233 607.105C960.103 607.105 960.808 607.405 961.348 608.005C961.888 608.575 962.158 609.295 962.158 610.165C962.158 610.465 962.128 610.765 962.068 611.065C962.038 611.335 961.963 611.665 961.843 612.055C961.753 612.415 961.603 612.865 961.393 613.405L959.278 619.66H956.443ZM978.44 613.27C975.89 613.27 973.64 612.745 971.69 611.695C969.77 610.645 968.27 609.205 967.19 607.375C966.14 605.545 965.615 603.445 965.615 601.075C965.615 598.705 966.125 596.605 967.145 594.775C968.195 592.945 969.62 591.52 971.42 590.5C973.25 589.45 975.305 588.925 977.585 588.925C979.895 588.925 981.935 589.435 983.705 590.455C985.475 591.475 986.855 592.915 987.845 594.775C988.865 596.605 989.375 598.75 989.375 601.21C989.375 601.39 989.36 601.6 989.33 601.84C989.33 602.08 989.315 602.305 989.285 602.515H968.99V599.41H987.035L985.28 600.49C985.31 598.96 984.995 597.595 984.335 596.395C983.675 595.195 982.76 594.265 981.59 593.605C980.45 592.915 979.115 592.57 977.585 592.57C976.085 592.57 974.75 592.915 973.58 593.605C972.41 594.265 971.495 595.21 970.835 596.44C970.175 597.64 969.845 599.02 969.845 600.58V601.3C969.845 602.89 970.205 604.315 970.925 605.575C971.675 606.805 972.71 607.765 974.03 608.455C975.35 609.145 976.865 609.49 978.575 609.49C979.985 609.49 981.26 609.25 982.4 608.77C983.57 608.29 984.59 607.57 985.46 606.61L987.845 609.4C986.765 610.66 985.415 611.62 983.795 612.28C982.205 612.94 980.42 613.27 978.44 613.27ZM996.814 621.73H992.719C994.549 618.55 995.884 615.235 996.724 611.785C997.564 608.305 997.984 604.6 997.984 600.67C997.984 596.74 997.564 593.05 996.724 589.6C995.884 586.12 994.549 582.79 992.719 579.61H996.814C998.584 582.28 999.919 585.43 1000.82 589.06C1001.75 592.66 1002.21 596.53 1002.21 600.67C1002.21 604.81 1001.75 608.68 1000.82 612.28C999.919 615.85 998.584 619 996.814 621.73Z" fill="#F1EAE1"/>
<path d="M1409.24 674.5C1449.84 674.5 1482.74 641.593 1482.74 601C1482.74 560.407 1449.84 527.5 1409.24 527.5C1368.65 527.5 1335.74 560.407 1335.74 601C1335.74 641.593 1368.65 674.5 1409.24 674.5Z" fill="#2A2D39" stroke="white" stroke-width="2"/>
<path d="M1371.48 621.73C1369.77 619 1368.45 615.85 1367.52 612.28C1366.59 608.68 1366.12 604.81 1366.12 600.67C1366.12 596.53 1366.59 592.66 1367.52 589.06C1368.45 585.43 1369.77 582.28 1371.48 579.61H1375.57C1373.77 582.79 1372.45 586.12 1371.61 589.6C1370.77 593.05 1370.35 596.74 1370.35 600.67C1370.35 604.6 1370.77 608.305 1371.61 611.785C1372.45 615.235 1373.77 618.55 1375.57 621.73H1371.48ZM1395.91 613V607.96L1395.68 607.015V598.42C1395.68 596.59 1395.14 595.18 1394.06 594.19C1393.01 593.17 1391.42 592.66 1389.29 592.66C1387.88 592.66 1386.5 592.9 1385.15 593.38C1383.8 593.83 1382.66 594.445 1381.73 595.225L1379.93 591.985C1381.16 590.995 1382.63 590.245 1384.34 589.735C1386.08 589.195 1387.9 588.925 1389.79 588.925C1393.06 588.925 1395.58 589.72 1397.35 591.31C1399.12 592.9 1400 595.33 1400 598.6V613H1395.91ZM1388.08 613.27C1386.31 613.27 1384.75 612.97 1383.4 612.37C1382.08 611.77 1381.06 610.945 1380.34 609.895C1379.62 608.815 1379.26 607.6 1379.26 606.25C1379.26 604.96 1379.56 603.79 1380.16 602.74C1380.79 601.69 1381.79 600.85 1383.17 600.22C1384.58 599.59 1386.47 599.275 1388.84 599.275H1396.4V602.38H1389.02C1386.86 602.38 1385.41 602.74 1384.66 603.46C1383.91 604.18 1383.53 605.05 1383.53 606.07C1383.53 607.24 1384 608.185 1384.93 608.905C1385.86 609.595 1387.15 609.94 1388.8 609.94C1390.42 609.94 1391.83 609.58 1393.03 608.86C1394.26 608.14 1395.14 607.09 1395.68 605.71L1396.54 608.68C1395.97 610.09 1394.96 611.215 1393.52 612.055C1392.08 612.865 1390.27 613.27 1388.08 613.27ZM1406.29 619.66L1408.54 610.57L1409.12 613.18C1408.25 613.18 1407.52 612.91 1406.92 612.37C1406.35 611.83 1406.06 611.095 1406.06 610.165C1406.06 609.265 1406.35 608.53 1406.92 607.96C1407.52 607.39 1408.24 607.105 1409.08 607.105C1409.95 607.105 1410.65 607.405 1411.19 608.005C1411.73 608.575 1412 609.295 1412 610.165C1412 610.465 1411.97 610.765 1411.91 611.065C1411.88 611.335 1411.81 611.665 1411.69 612.055C1411.6 612.415 1411.45 612.865 1411.24 613.405L1409.12 619.66H1406.29ZM1433.44 613V607.96L1433.21 607.015V598.42C1433.21 596.59 1432.67 595.18 1431.59 594.19C1430.54 593.17 1428.95 592.66 1426.82 592.66C1425.41 592.66 1424.03 592.9 1422.68 593.38C1421.33 593.83 1420.19 594.445 1419.26 595.225L1417.46 591.985C1418.69 590.995 1420.16 590.245 1421.87 589.735C1423.61 589.195 1425.43 588.925 1427.32 588.925C1430.59 588.925 1433.11 589.72 1434.88 591.31C1436.65 592.9 1437.53 595.33 1437.53 598.6V613H1433.44ZM1425.61 613.27C1423.84 613.27 1422.28 612.97 1420.93 612.37C1419.61 611.77 1418.59 610.945 1417.87 609.895C1417.15 608.815 1416.79 607.6 1416.79 606.25C1416.79 604.96 1417.09 603.79 1417.69 602.74C1418.32 601.69 1419.32 600.85 1420.7 600.22C1422.11 599.59 1424 599.275 1426.37 599.275H1433.93V602.38H1426.55C1424.39 602.38 1422.94 602.74 1422.19 603.46C1421.44 604.18 1421.06 605.05 1421.06 606.07C1421.06 607.24 1421.53 608.185 1422.46 608.905C1423.39 609.595 1424.68 609.94 1426.33 609.94C1427.95 609.94 1429.36 609.58 1430.56 608.86C1431.79 608.14 1432.67 607.09 1433.21 605.71L1434.07 608.68C1433.5 610.09 1432.49 611.215 1431.05 612.055C1429.61 612.865 1427.8 613.27 1425.61 613.27ZM1446.97 621.73H1442.87C1444.7 618.55 1446.04 615.235 1446.88 611.785C1447.72 608.305 1448.14 604.6 1448.14 600.67C1448.14 596.74 1447.72 593.05 1446.88 589.6C1446.04 586.12 1444.7 582.79 1442.87 579.61H1446.97C1448.74 582.28 1450.07 585.43 1450.97 589.06C1451.9 592.66 1452.37 596.53 1452.37 600.67C1452.37 604.81 1451.9 608.68 1450.97 612.28C1450.07 615.85 1448.74 619 1446.97 621.73Z" fill="#F1EAE1"/>
<path d="M1405.49 586V584.98L1409.76 580.855C1410.14 580.495 1410.42 580.18 1410.6 579.91C1410.8 579.629 1410.92 579.374 1410.98 579.145C1411.05 578.905 1411.08 578.675 1411.08 578.455C1411.08 577.915 1410.89 577.49 1410.51 577.18C1410.14 576.869 1409.58 576.715 1408.85 576.715C1408.29 576.715 1407.78 576.809 1407.33 577C1406.88 577.18 1406.49 577.465 1406.16 577.855L1405.14 576.97C1405.55 576.46 1406.08 576.07 1406.75 575.8C1407.43 575.519 1408.17 575.38 1408.98 575.38C1409.72 575.38 1410.35 575.5 1410.89 575.74C1411.43 575.969 1411.84 576.305 1412.13 576.745C1412.43 577.184 1412.58 577.705 1412.58 578.305C1412.58 578.645 1412.54 578.98 1412.45 579.31C1412.36 579.64 1412.19 579.989 1411.94 580.36C1411.69 580.73 1411.33 581.144 1410.86 581.605L1407.05 585.28L1406.69 584.695H1413.03V586H1405.49Z" fill="#F1EAE1"/>
<path d="M1409.24 899.5C1449.84 899.5 1482.74 866.593 1482.74 826C1482.74 785.407 1449.84 752.5 1409.24 752.5C1368.65 752.5 1335.74 785.407 1335.74 826C1335.74 866.593 1368.65 899.5 1409.24 899.5Z" fill="#2A2D39" stroke="white" stroke-width="2"/>
<path d="M1371.48 846.73C1369.77 844 1368.45 840.85 1367.52 837.28C1366.59 833.68 1366.12 829.81 1366.12 825.67C1366.12 821.53 1366.59 817.66 1367.52 814.06C1368.45 810.43 1369.77 807.28 1371.48 804.61H1375.57C1373.77 807.79 1372.45 811.12 1371.61 814.6C1370.77 818.05 1370.35 821.74 1370.35 825.67C1370.35 829.6 1370.77 833.305 1371.61 836.785C1372.45 840.235 1373.77 843.55 1375.57 846.73H1371.48ZM1395.91 838V832.96L1395.68 832.015V823.42C1395.68 821.59 1395.14 820.18 1394.06 819.19C1393.01 818.17 1391.42 817.66 1389.29 817.66C1387.88 817.66 1386.5 817.9 1385.15 818.38C1383.8 818.83 1382.66 819.445 1381.73 820.225L1379.93 816.985C1381.16 815.995 1382.63 815.245 1384.34 814.735C1386.08 814.195 1387.9 813.925 1389.79 813.925C1393.06 813.925 1395.58 814.72 1397.35 816.31C1399.12 817.9 1400 820.33 1400 823.6V838H1395.91ZM1388.08 838.27C1386.31 838.27 1384.75 837.97 1383.4 837.37C1382.08 836.77 1381.06 835.945 1380.34 834.895C1379.62 833.815 1379.26 832.6 1379.26 831.25C1379.26 829.96 1379.56 828.79 1380.16 827.74C1380.79 826.69 1381.79 825.85 1383.17 825.22C1384.58 824.59 1386.47 824.275 1388.84 824.275H1396.4V827.38H1389.02C1386.86 827.38 1385.41 827.74 1384.66 828.46C1383.91 829.18 1383.53 830.05 1383.53 831.07C1383.53 832.24 1384 833.185 1384.93 833.905C1385.86 834.595 1387.15 834.94 1388.8 834.94C1390.42 834.94 1391.83 834.58 1393.03 833.86C1394.26 833.14 1395.14 832.09 1395.68 830.71L1396.54 833.68C1395.97 835.09 1394.96 836.215 1393.52 837.055C1392.08 837.865 1390.27 838.27 1388.08 838.27ZM1406.29 844.66L1408.54 835.57L1409.12 838.18C1408.25 838.18 1407.52 837.91 1406.92 837.37C1406.35 836.83 1406.06 836.095 1406.06 835.165C1406.06 834.265 1406.35 833.53 1406.92 832.96C1407.52 832.39 1408.24 832.105 1409.08 832.105C1409.95 832.105 1410.65 832.405 1411.19 833.005C1411.73 833.575 1412 834.295 1412 835.165C1412 835.465 1411.97 835.765 1411.91 836.065C1411.88 836.335 1411.81 836.665 1411.69 837.055C1411.6 837.415 1411.45 837.865 1411.24 838.405L1409.12 844.66H1406.29ZM1433.44 838V832.96L1433.21 832.015V823.42C1433.21 821.59 1432.67 820.18 1431.59 819.19C1430.54 818.17 1428.95 817.66 1426.82 817.66C1425.41 817.66 1424.03 817.9 1422.68 818.38C1421.33 818.83 1420.19 819.445 1419.26 820.225L1417.46 816.985C1418.69 815.995 1420.16 815.245 1421.87 814.735C1423.61 814.195 1425.43 813.925 1427.32 813.925C1430.59 813.925 1433.11 814.72 1434.88 816.31C1436.65 817.9 1437.53 820.33 1437.53 823.6V838H1433.44ZM1425.61 838.27C1423.84 838.27 1422.28 837.97 1420.93 837.37C1419.61 836.77 1418.59 835.945 1417.87 834.895C1417.15 833.815 1416.79 832.6 1416.79 831.25C1416.79 829.96 1417.09 828.79 1417.69 827.74C1418.32 826.69 1419.32 825.85 1420.7 825.22C1422.11 824.59 1424 824.275 1426.37 824.275H1433.93V827.38H1426.55C1424.39 827.38 1422.94 827.74 1422.19 828.46C1421.44 829.18 1421.06 830.05 1421.06 831.07C1421.06 832.24 1421.53 833.185 1422.46 833.905C1423.39 834.595 1424.68 834.94 1426.33 834.94C1427.95 834.94 1429.36 834.58 1430.56 833.86C1431.79 833.14 1432.67 832.09 1433.21 830.71L1434.07 833.68C1433.5 835.09 1432.49 836.215 1431.05 837.055C1429.61 837.865 1427.8 838.27 1425.61 838.27ZM1446.97 846.73H1442.87C1444.7 843.55 1446.04 840.235 1446.88 836.785C1447.72 833.305 1448.14 829.6 1448.14 825.67C1448.14 821.74 1447.72 818.05 1446.88 814.6C1446.04 811.12 1444.7 807.79 1442.87 804.61H1446.97C1448.74 807.28 1450.07 810.43 1450.97 814.06C1451.9 817.66 1452.37 821.53 1452.37 825.67C1452.37 829.81 1451.9 833.68 1450.97 837.28C1450.07 840.85 1448.74 844 1446.97 846.73Z" fill="#F1EAE1"/>
<path d="M1405.49 811V809.98L1409.76 805.855C1410.14 805.495 1410.42 805.18 1410.6 804.91C1410.8 804.629 1410.92 804.374 1410.98 804.145C1411.05 803.905 1411.08 803.675 1411.08 803.455C1411.08 802.915 1410.89 802.49 1410.51 802.18C1410.14 801.869 1409.58 801.715 1408.85 801.715C1408.29 801.715 1407.78 801.809 1407.33 802C1406.88 802.18 1406.49 802.465 1406.16 802.855L1405.14 801.97C1405.55 801.46 1406.08 801.07 1406.75 800.8C1407.43 800.519 1408.17 800.38 1408.98 800.38C1409.72 800.38 1410.35 800.5 1410.89 800.74C1411.43 800.969 1411.84 801.305 1412.13 801.745C1412.43 802.184 1412.58 802.705 1412.58 803.305C1412.58 803.645 1412.54 803.98 1412.45 804.31C1412.36 804.64 1412.19 804.989 1411.94 805.36C1411.69 805.73 1411.33 806.144 1410.86 806.605L1407.05 810.28L1406.69 809.695H1413.03V811H1405.49Z" fill="#F1EAE1"/>
<path d="M1433.99 811V809.98L1438.26 805.855C1438.64 805.495 1438.92 805.18 1439.1 804.91C1439.3 804.629 1439.42 804.374 1439.48 804.145C1439.55 803.905 1439.58 803.675 1439.58 803.455C1439.58 802.915 1439.39 802.49 1439.01 802.18C1438.64 801.869 1438.08 801.715 1437.35 801.715C1436.79 801.715 1436.28 801.809 1435.83 802C1435.38 802.18 1434.99 802.465 1434.66 802.855L1433.64 801.97C1434.05 801.46 1434.58 801.07 1435.25 800.8C1435.93 800.519 1436.67 800.38 1437.48 800.38C1438.22 800.38 1438.85 800.5 1439.39 800.74C1439.93 800.969 1440.34 801.305 1440.63 801.745C1440.93 802.184 1441.08 802.705 1441.08 803.305C1441.08 803.645 1441.04 803.98 1440.95 804.31C1440.86 804.64 1440.69 804.989 1440.44 805.36C1440.19 805.73 1439.83 806.144 1439.36 806.605L1435.55 810.28L1435.19 809.695H1441.53V811H1433.99Z" fill="#F1EAE1"/>
<path d="M1184.24 899.5C1224.84 899.5 1257.74 866.593 1257.74 826C1257.74 785.407 1224.84 752.5 1184.24 752.5C1143.65 752.5 1110.74 785.407 1110.74 826C1110.74 866.593 1143.65 899.5 1184.24 899.5Z" fill="#2A2D39" stroke="white" stroke-width="2"/>
<path d="M1146.48 846.73C1144.77 844 1143.45 840.85 1142.52 837.28C1141.59 833.68 1141.12 829.81 1141.12 825.67C1141.12 821.53 1141.59 817.66 1142.52 814.06C1143.45 810.43 1144.77 807.28 1146.48 804.61H1150.57C1148.77 807.79 1147.45 811.12 1146.61 814.6C1145.77 818.05 1145.35 821.74 1145.35 825.67C1145.35 829.6 1145.77 833.305 1146.61 836.785C1147.45 840.235 1148.77 843.55 1150.57 846.73H1146.48ZM1170.91 838V832.96L1170.68 832.015V823.42C1170.68 821.59 1170.14 820.18 1169.06 819.19C1168.01 818.17 1166.42 817.66 1164.29 817.66C1162.88 817.66 1161.5 817.9 1160.15 818.38C1158.8 818.83 1157.66 819.445 1156.73 820.225L1154.93 816.985C1156.16 815.995 1157.63 815.245 1159.34 814.735C1161.08 814.195 1162.9 813.925 1164.79 813.925C1168.06 813.925 1170.58 814.72 1172.35 816.31C1174.12 817.9 1175 820.33 1175 823.6V838H1170.91ZM1163.08 838.27C1161.31 838.27 1159.75 837.97 1158.4 837.37C1157.08 836.77 1156.06 835.945 1155.34 834.895C1154.62 833.815 1154.26 832.6 1154.26 831.25C1154.26 829.96 1154.56 828.79 1155.16 827.74C1155.79 826.69 1156.79 825.85 1158.17 825.22C1159.58 824.59 1161.47 824.275 1163.84 824.275H1171.4V827.38H1164.02C1161.86 827.38 1160.41 827.74 1159.66 828.46C1158.91 829.18 1158.53 830.05 1158.53 831.07C1158.53 832.24 1159 833.185 1159.93 833.905C1160.86 834.595 1162.15 834.94 1163.8 834.94C1165.42 834.94 1166.83 834.58 1168.03 833.86C1169.26 833.14 1170.14 832.09 1170.68 830.71L1171.54 833.68C1170.97 835.09 1169.96 836.215 1168.52 837.055C1167.08 837.865 1165.27 838.27 1163.08 838.27ZM1181.29 844.66L1183.54 835.57L1184.12 838.18C1183.25 838.18 1182.52 837.91 1181.92 837.37C1181.35 836.83 1181.06 836.095 1181.06 835.165C1181.06 834.265 1181.35 833.53 1181.92 832.96C1182.52 832.39 1183.24 832.105 1184.08 832.105C1184.95 832.105 1185.65 832.405 1186.19 833.005C1186.73 833.575 1187 834.295 1187 835.165C1187 835.465 1186.97 835.765 1186.91 836.065C1186.88 836.335 1186.81 836.665 1186.69 837.055C1186.6 837.415 1186.45 837.865 1186.24 838.405L1184.12 844.66H1181.29ZM1208.44 838V832.96L1208.21 832.015V823.42C1208.21 821.59 1207.67 820.18 1206.59 819.19C1205.54 818.17 1203.95 817.66 1201.82 817.66C1200.41 817.66 1199.03 817.9 1197.68 818.38C1196.33 818.83 1195.19 819.445 1194.26 820.225L1192.46 816.985C1193.69 815.995 1195.16 815.245 1196.87 814.735C1198.61 814.195 1200.43 813.925 1202.32 813.925C1205.59 813.925 1208.11 814.72 1209.88 816.31C1211.65 817.9 1212.53 820.33 1212.53 823.6V838H1208.44ZM1200.61 838.27C1198.84 838.27 1197.28 837.97 1195.93 837.37C1194.61 836.77 1193.59 835.945 1192.87 834.895C1192.15 833.815 1191.79 832.6 1191.79 831.25C1191.79 829.96 1192.09 828.79 1192.69 827.74C1193.32 826.69 1194.32 825.85 1195.7 825.22C1197.11 824.59 1199 824.275 1201.37 824.275H1208.93V827.38H1201.55C1199.39 827.38 1197.94 827.74 1197.19 828.46C1196.44 829.18 1196.06 830.05 1196.06 831.07C1196.06 832.24 1196.53 833.185 1197.46 833.905C1198.39 834.595 1199.68 834.94 1201.33 834.94C1202.95 834.94 1204.36 834.58 1205.56 833.86C1206.79 833.14 1207.67 832.09 1208.21 830.71L1209.07 833.68C1208.5 835.09 1207.49 836.215 1206.05 837.055C1204.61 837.865 1202.8 838.27 1200.61 838.27ZM1221.97 846.73H1217.87C1219.7 843.55 1221.04 840.235 1221.88 836.785C1222.72 833.305 1223.14 829.6 1223.14 825.67C1223.14 821.74 1222.72 818.05 1221.88 814.6C1221.04 811.12 1219.7 807.79 1217.87 804.61H1221.97C1223.74 807.28 1225.07 810.43 1225.97 814.06C1226.9 817.66 1227.37 821.53 1227.37 825.67C1227.37 829.81 1226.9 833.68 1225.97 837.28C1225.07 840.85 1223.74 844 1221.97 846.73Z" fill="#F1EAE1"/>
<path d="M1180.49 811V809.98L1184.76 805.855C1185.14 805.495 1185.42 805.18 1185.6 804.91C1185.8 804.629 1185.92 804.374 1185.98 804.145C1186.05 803.905 1186.08 803.675 1186.08 803.455C1186.08 802.915 1185.89 802.49 1185.51 802.18C1185.14 801.869 1184.58 801.715 1183.85 801.715C1183.29 801.715 1182.78 801.809 1182.33 802C1181.88 802.18 1181.49 802.465 1181.16 802.855L1180.14 801.97C1180.55 801.46 1181.08 801.07 1181.75 800.8C1182.43 800.519 1183.17 800.38 1183.98 800.38C1184.72 800.38 1185.35 800.5 1185.89 800.74C1186.43 800.969 1186.84 801.305 1187.13 801.745C1187.43 802.184 1187.58 802.705 1187.58 803.305C1187.58 803.645 1187.54 803.98 1187.45 804.31C1187.36 804.64 1187.19 804.989 1186.94 805.36C1186.69 805.73 1186.33 806.144 1185.86 806.605L1182.05 810.28L1181.69 809.695H1188.03V811H1180.49Z" fill="#F1EAE1"/>
<path d="M963.742 899.5C1004.34 899.5 1037.24 866.593 1037.24 826C1037.24 785.407 1004.34 752.5 963.742 752.5C923.149 752.5 890.242 785.407 890.242 826C890.242 866.593 923.149 899.5 963.742 899.5Z" fill="#2A2D39" stroke="white" stroke-width="2"/>
<path d="M926.132 846.73C924.422 844 923.102 840.85 922.172 837.28C921.242 833.68 920.777 829.81 920.777 825.67C920.777 821.53 921.242 817.66 922.172 814.06C923.102 810.43 924.422 807.28 926.132 804.61H930.227C928.427 807.79 927.107 811.12 926.267 814.6C925.427 818.05 925.007 821.74 925.007 825.67C925.007 829.6 925.427 833.305 926.267 836.785C927.107 840.235 928.427 843.55 930.227 846.73H926.132ZM950.563 838V832.96L950.338 832.015V823.42C950.338 821.59 949.798 820.18 948.718 819.19C947.668 818.17 946.078 817.66 943.948 817.66C942.538 817.66 941.158 817.9 939.808 818.38C938.458 818.83 937.318 819.445 936.388 820.225L934.588 816.985C935.818 815.995 937.288 815.245 938.998 814.735C940.738 814.195 942.553 813.925 944.443 813.925C947.713 813.925 950.233 814.72 952.003 816.31C953.773 817.9 954.658 820.33 954.658 823.6V838H950.563ZM942.733 838.27C940.963 838.27 939.403 837.97 938.053 837.37C936.733 836.77 935.713 835.945 934.993 834.895C934.273 833.815 933.913 832.6 933.913 831.25C933.913 829.96 934.213 828.79 934.813 827.74C935.443 826.69 936.448 825.85 937.828 825.22C939.238 824.59 941.128 824.275 943.498 824.275H951.058V827.38H943.678C941.518 827.38 940.063 827.74 939.313 828.46C938.563 829.18 938.188 830.05 938.188 831.07C938.188 832.24 938.653 833.185 939.583 833.905C940.513 834.595 941.803 834.94 943.453 834.94C945.073 834.94 946.483 834.58 947.683 833.86C948.913 833.14 949.798 832.09 950.338 830.71L951.193 833.68C950.623 835.09 949.618 836.215 948.178 837.055C946.738 837.865 944.923 838.27 942.733 838.27ZM960.943 844.66L963.193 835.57L963.778 838.18C962.908 838.18 962.173 837.91 961.573 837.37C961.003 836.83 960.718 836.095 960.718 835.165C960.718 834.265 961.003 833.53 961.573 832.96C962.173 832.39 962.893 832.105 963.733 832.105C964.603 832.105 965.308 832.405 965.848 833.005C966.388 833.575 966.658 834.295 966.658 835.165C966.658 835.465 966.628 835.765 966.568 836.065C966.538 836.335 966.463 836.665 966.343 837.055C966.253 837.415 966.103 837.865 965.893 838.405L963.778 844.66H960.943ZM982.94 838.27C980.39 838.27 978.14 837.745 976.19 836.695C974.27 835.645 972.77 834.205 971.69 832.375C970.64 830.545 970.115 828.445 970.115 826.075C970.115 823.705 970.625 821.605 971.645 819.775C972.695 817.945 974.12 816.52 975.92 815.5C977.75 814.45 979.805 813.925 982.085 813.925C984.395 813.925 986.435 814.435 988.205 815.455C989.975 816.475 991.355 817.915 992.345 819.775C993.365 821.605 993.875 823.75 993.875 826.21C993.875 826.39 993.86 826.6 993.83 826.84C993.83 827.08 993.815 827.305 993.785 827.515H973.49V824.41H991.535L989.78 825.49C989.81 823.96 989.495 822.595 988.835 821.395C988.175 820.195 987.26 819.265 986.09 818.605C984.95 817.915 983.615 817.57 982.085 817.57C980.585 817.57 979.25 817.915 978.08 818.605C976.91 819.265 975.995 820.21 975.335 821.44C974.675 822.64 974.345 824.02 974.345 825.58V826.3C974.345 827.89 974.705 829.315 975.425 830.575C976.175 831.805 977.21 832.765 978.53 833.455C979.85 834.145 981.365 834.49 983.075 834.49C984.485 834.49 985.76 834.25 986.9 833.77C988.07 833.29 989.09 832.57 989.96 831.61L992.345 834.4C991.265 835.66 989.915 836.62 988.295 837.28C986.705 837.94 984.92 838.27 982.94 838.27ZM1001.31 846.73H997.219C999.049 843.55 1000.38 840.235 1001.22 836.785C1002.06 833.305 1002.48 829.6 1002.48 825.67C1002.48 821.74 1002.06 818.05 1001.22 814.6C1000.38 811.12 999.049 807.79 997.219 804.61H1001.31C1003.08 807.28 1004.42 810.43 1005.32 814.06C1006.25 817.66 1006.71 821.53 1006.71 825.67C1006.71 829.81 1006.25 833.68 1005.32 837.28C1004.42 840.85 1003.08 844 1001.31 846.73Z" fill="#F1EAE1"/>
<path d="M955.49 811V809.98L959.765 805.855C960.144 805.495 960.425 805.18 960.605 804.91C960.795 804.629 960.92 804.374 960.98 804.145C961.05 803.905 961.085 803.675 961.085 803.455C961.085 802.915 960.894 802.49 960.515 802.18C960.135 801.869 959.58 801.715 958.85 801.715C958.29 801.715 957.785 801.809 957.335 802C956.885 802.18 956.495 802.465 956.165 802.855L955.145 801.97C955.545 801.46 956.079 801.07 956.75 800.8C957.429 800.519 958.175 800.38 958.985 800.38C959.715 800.38 960.35 800.5 960.89 800.74C961.43 800.969 961.845 801.305 962.135 801.745C962.435 802.184 962.585 802.705 962.585 803.305C962.585 803.645 962.54 803.98 962.45 804.31C962.36 804.64 962.19 804.989 961.94 805.36C961.689 805.73 961.329 806.144 960.86 806.605L957.05 810.28L956.69 809.695H963.035V811H955.49Z" fill="#F1EAE1"/>
<path d="M1090.82 373.311C1091.4 372.725 1091.4 371.775 1090.82 371.189L1081.27 361.643C1080.69 361.058 1079.74 361.058 1079.15 361.643C1078.57 362.229 1078.57 363.179 1079.15 363.765L1087.64 372.25L1079.15 380.735C1078.57 381.321 1078.57 382.271 1079.15 382.857C1079.74 383.442 1080.69 383.442 1081.27 382.857L1090.82 373.311ZM1049.23 373.75H1089.76V370.75H1049.23V373.75Z" fill="white"/>
<path d="M1183.18 509.089C1183.77 509.674 1184.72 509.674 1185.3 509.089L1194.85 499.543C1195.43 498.957 1195.43 498.007 1194.85 497.421C1194.26 496.836 1193.31 496.836 1192.73 497.421L1184.24 505.906L1175.76 497.421C1175.17 496.836 1174.22 496.836 1173.64 497.421C1173.05 498.007 1173.05 498.957 1173.64 499.543L1183.18 509.089ZM1182.74 467.5V508.028H1185.74V467.5H1182.74Z" fill="white"/>
<path d="M1183.18 732.589C1183.77 733.174 1184.72 733.174 1185.3 732.589L1194.85 723.043C1195.43 722.457 1195.43 721.507 1194.85 720.92C1194.26 720.335 1193.31 720.335 1192.73 720.92L1184.24 729.406L1175.76 720.92C1175.17 720.335 1174.22 720.335 1173.64 720.92C1173.05 721.507 1173.05 722.457 1173.64 723.043L1183.18 732.589ZM1182.74 691V731.529H1185.74V691H1182.74Z" fill="white"/>
<path d="M1408.18 732.589C1408.77 733.174 1409.72 733.174 1410.3 732.589L1419.85 723.043C1420.43 722.457 1420.43 721.507 1419.85 720.92C1419.26 720.335 1418.31 720.335 1417.73 720.92L1409.24 729.406L1400.76 720.92C1400.17 720.335 1399.22 720.335 1398.64 720.92C1398.05 721.507 1398.05 722.457 1398.64 723.043L1408.18 732.589ZM1407.74 691V731.529H1410.74V691H1407.74Z" fill="white"/>
<path d="M1408.18 509.089C1408.77 509.674 1409.72 509.674 1410.3 509.089L1419.85 499.543C1420.43 498.957 1420.43 498.007 1419.85 497.421C1419.26 496.836 1418.31 496.836 1417.73 497.421L1409.24 505.906L1400.76 497.421C1400.17 496.836 1399.22 496.836 1398.64 497.421C1398.05 498.007 1398.05 498.957 1398.64 499.543L1408.18 509.089ZM1407.74 467.5V508.028H1410.74V467.5H1407.74Z" fill="white"/>
<path d="M958.181 509.089C958.766 509.674 959.717 509.674 960.302 509.089L969.848 499.543C970.435 498.957 970.435 498.007 969.848 497.421C969.263 496.836 968.312 496.836 967.727 497.421L959.242 505.906L950.756 497.421C950.171 496.836 949.22 496.836 948.635 497.421C948.049 498.007 948.049 498.957 948.635 499.543L958.181 509.089ZM957.742 467.5V508.028H960.742V467.5H957.742Z" fill="white"/>
<path d="M958.181 732.589C958.766 733.174 959.717 733.174 960.302 732.589L969.848 723.043C970.435 722.457 970.435 721.507 969.848 720.92C969.263 720.335 968.312 720.335 967.727 720.92L959.242 729.406L950.756 720.92C950.171 720.335 949.22 720.335 948.635 720.92C948.049 721.507 948.049 722.457 948.635 723.043L958.181 732.589ZM957.742 691V731.529H960.742V691H957.742Z" fill="white"/>
<path d="M1090.83 602.061C1091.42 601.476 1091.42 600.525 1090.83 599.94L1081.29 590.394C1080.7 589.807 1079.75 589.807 1079.16 590.394C1078.58 590.979 1078.58 591.93 1079.16 592.515L1087.65 601L1079.16 609.486C1078.58 610.071 1078.58 611.022 1079.16 611.607C1079.75 612.193 1080.7 612.193 1081.29 611.607L1090.83 602.061ZM1049.24 602.5H1089.77V599.5H1049.24V602.5Z" fill="white"/>
<path d="M1321.83 602.061C1322.42 601.476 1322.42 600.525 1321.83 599.94L1312.29 590.394C1311.7 589.807 1310.75 589.807 1310.16 590.394C1309.58 590.979 1309.58 591.93 1310.16 592.515L1318.65 601L1310.16 609.486C1309.58 610.071 1309.58 611.022 1310.16 611.607C1310.75 612.193 1311.7 612.193 1312.29 611.607L1321.83 602.061ZM1280.24 602.5H1320.77V599.5H1280.24V602.5Z" fill="white"/>
<path d="M1090.83 827.06C1091.42 826.475 1091.42 825.524 1090.83 824.939L1081.29 815.393C1080.7 814.806 1079.75 814.806 1079.16 815.393C1078.58 815.978 1078.58 816.929 1079.16 817.514L1087.65 826L1079.16 834.485C1078.58 835.07 1078.58 836.021 1079.16 836.606C1079.75 837.193 1080.7 837.193 1081.29 836.606L1090.83 827.06ZM1049.24 827.5H1089.77V824.5H1049.24V827.5Z" fill="white"/>
<path d="M1321.83 827.06C1322.42 826.475 1322.42 825.524 1321.83 824.939L1312.29 815.393C1311.7 814.806 1310.75 814.806 1310.16 815.393C1309.58 815.978 1309.58 816.929 1310.16 817.514L1318.65 826L1310.16 834.485C1309.58 835.07 1309.58 836.021 1310.16 836.606C1310.75 837.193 1311.7 837.193 1312.29 836.606L1321.83 827.06ZM1280.24 827.5H1320.77V824.5H1280.24V827.5Z" fill="white"/>
<path d="M1321.83 374.061C1322.42 373.475 1322.42 372.525 1321.83 371.939L1312.29 362.393C1311.7 361.808 1310.75 361.808 1310.16 362.393C1309.58 362.979 1309.58 363.929 1310.16 364.515L1318.65 373L1310.16 381.485C1309.58 382.071 1309.58 383.021 1310.16 383.607C1310.75 384.192 1311.7 384.192 1312.29 383.607L1321.83 374.061ZM1280.24 374.5H1320.77V371.5H1280.24V374.5Z" fill="white"/>
</g>
<path d="M1035.22 984V963H1044.07C1046.31 963 1048.28 963.44 1049.98 964.32C1051.7 965.2 1053.03 966.43 1053.97 968.01C1054.93 969.59 1055.41 971.42 1055.41 973.5C1055.41 975.58 1054.93 977.41 1053.97 978.99C1053.03 980.57 1051.7 981.8 1049.98 982.68C1048.28 983.56 1046.31 984 1044.07 984H1035.22ZM1038.22 981.39H1043.89C1045.63 981.39 1047.13 981.06 1048.39 980.4C1049.67 979.74 1050.66 978.82 1051.36 977.64C1052.06 976.44 1052.41 975.06 1052.41 973.5C1052.41 971.92 1052.06 970.54 1051.36 969.36C1050.66 968.18 1049.67 967.26 1048.39 966.6C1047.13 965.94 1045.63 965.61 1043.89 965.61H1038.22V981.39ZM1059.58 984V968.1H1062.46V984H1059.58ZM1061.02 965.04C1060.46 965.04 1059.99 964.86 1059.61 964.5C1059.25 964.14 1059.07 963.7 1059.07 963.18C1059.07 962.64 1059.25 962.19 1059.61 961.83C1059.99 961.47 1060.46 961.29 1061.02 961.29C1061.58 961.29 1062.04 961.47 1062.4 961.83C1062.78 962.17 1062.97 962.6 1062.97 963.12C1062.97 963.66 1062.79 964.12 1062.43 964.5C1062.07 964.86 1061.6 965.04 1061.02 965.04ZM1067.96 984V968.1H1070.72V972.42L1070.45 971.34C1070.89 970.24 1071.63 969.4 1072.67 968.82C1073.71 968.24 1074.99 967.95 1076.51 967.95V970.74C1076.39 970.72 1076.27 970.71 1076.15 970.71C1076.05 970.71 1075.95 970.71 1075.85 970.71C1074.31 970.71 1073.09 971.17 1072.19 972.09C1071.29 973.01 1070.84 974.34 1070.84 976.08V984H1067.96ZM1086.99 984.18C1085.29 984.18 1083.79 983.83 1082.49 983.13C1081.21 982.43 1080.21 981.47 1079.49 980.25C1078.79 979.03 1078.44 977.63 1078.44 976.05C1078.44 974.47 1078.78 973.07 1079.46 971.85C1080.16 970.63 1081.11 969.68 1082.31 969C1083.53 968.3 1084.9 967.95 1086.42 967.95C1087.96 967.95 1089.32 968.29 1090.5 968.97C1091.68 969.65 1092.6 970.61 1093.26 971.85C1093.94 973.07 1094.28 974.5 1094.28 976.14C1094.28 976.26 1094.27 976.4 1094.25 976.56C1094.25 976.72 1094.24 976.87 1094.22 977.01H1080.69V974.94H1092.72L1091.55 975.66C1091.57 974.64 1091.36 973.73 1090.92 972.93C1090.48 972.13 1089.87 971.51 1089.09 971.07C1088.33 970.61 1087.44 970.38 1086.42 970.38C1085.42 970.38 1084.53 970.61 1083.75 971.07C1082.97 971.51 1082.36 972.14 1081.92 972.96C1081.48 973.76 1081.26 974.68 1081.26 975.72V976.2C1081.26 977.26 1081.5 978.21 1081.98 979.05C1082.48 979.87 1083.17 980.51 1084.05 980.97C1084.93 981.43 1085.94 981.66 1087.08 981.66C1088.02 981.66 1088.87 981.5 1089.63 981.18C1090.41 980.86 1091.09 980.38 1091.67 979.74L1093.26 981.6C1092.54 982.44 1091.64 983.08 1090.56 983.52C1089.5 983.96 1088.31 984.18 1086.99 984.18ZM1105.21 984.18C1103.59 984.18 1102.14 983.83 1100.86 983.13C1099.6 982.43 1098.61 981.47 1097.89 980.25C1097.17 979.03 1096.81 977.63 1096.81 976.05C1096.81 974.47 1097.17 973.07 1097.89 971.85C1098.61 970.63 1099.6 969.68 1100.86 969C1102.14 968.3 1103.59 967.95 1105.21 967.95C1106.65 967.95 1107.93 968.24 1109.05 968.82C1110.19 969.38 1111.07 970.22 1111.69 971.34L1109.5 972.75C1108.98 971.97 1108.34 971.4 1107.58 971.04C1106.84 970.66 1106.04 970.47 1105.18 970.47C1104.14 970.47 1103.21 970.7 1102.39 971.16C1101.57 971.62 1100.92 972.27 1100.44 973.11C1099.96 973.93 1099.72 974.91 1099.72 976.05C1099.72 977.19 1099.96 978.18 1100.44 979.02C1100.92 979.86 1101.57 980.51 1102.39 980.97C1103.21 981.43 1104.14 981.66 1105.18 981.66C1106.04 981.66 1106.84 981.48 1107.58 981.12C1108.34 980.74 1108.98 980.16 1109.5 979.38L1111.69 980.76C1111.07 981.86 1110.19 982.71 1109.05 983.31C1107.93 983.89 1106.65 984.18 1105.21 984.18ZM1121.09 984.18C1119.49 984.18 1118.25 983.75 1117.37 982.89C1116.49 982.03 1116.05 980.8 1116.05 979.2V964.62H1118.93V979.08C1118.93 979.94 1119.14 980.6 1119.56 981.06C1120 981.52 1120.62 981.75 1121.42 981.75C1122.32 981.75 1123.07 981.5 1123.67 981L1124.57 983.07C1124.13 983.45 1123.6 983.73 1122.98 983.91C1122.38 984.09 1121.75 984.18 1121.09 984.18ZM1113.35 970.47V968.1H1123.49V970.47H1113.35ZM1136.53 984V963H1144.72C1146.56 963 1148.13 963.29 1149.43 963.87C1150.73 964.45 1151.73 965.29 1152.43 966.39C1153.13 967.49 1153.48 968.8 1153.48 970.32C1153.48 971.84 1153.13 973.15 1152.43 974.25C1151.73 975.33 1150.73 976.17 1149.43 976.77C1148.13 977.35 1146.56 977.64 1144.72 977.64H1138.18L1139.53 976.23V984H1136.53ZM1139.53 976.53L1138.18 975.03H1144.63C1146.55 975.03 1148 974.62 1148.98 973.8C1149.98 972.98 1150.48 971.82 1150.48 970.32C1150.48 968.82 1149.98 967.66 1148.98 966.84C1148 966.02 1146.55 965.61 1144.63 965.61H1138.18L1139.53 964.11V976.53ZM1157.17 984V968.1H1159.93V972.42L1159.66 971.34C1160.1 970.24 1160.84 969.4 1161.88 968.82C1162.92 968.24 1164.2 967.95 1165.72 967.95V970.74C1165.6 970.72 1165.48 970.71 1165.36 970.71C1165.26 970.71 1165.16 970.71 1165.06 970.71C1163.52 970.71 1162.3 971.17 1161.4 972.09C1160.5 973.01 1160.05 974.34 1160.05 976.08V984H1157.17ZM1175.93 984.18C1174.33 984.18 1172.91 983.83 1171.67 983.13C1170.43 982.43 1169.45 981.47 1168.73 980.25C1168.01 979.01 1167.65 977.61 1167.65 976.05C1167.65 974.47 1168.01 973.07 1168.73 971.85C1169.45 970.63 1170.43 969.68 1171.67 969C1172.91 968.3 1174.33 967.95 1175.93 967.95C1177.51 967.95 1178.92 968.3 1180.16 969C1181.42 969.68 1182.4 970.63 1183.1 971.85C1183.82 973.05 1184.18 974.45 1184.18 976.05C1184.18 977.63 1183.82 979.03 1183.1 980.25C1182.4 981.47 1181.42 982.43 1180.16 983.13C1178.92 983.83 1177.51 984.18 1175.93 984.18ZM1175.93 981.66C1176.95 981.66 1177.86 981.43 1178.66 980.97C1179.48 980.51 1180.12 979.86 1180.58 979.02C1181.04 978.16 1181.27 977.17 1181.27 976.05C1181.27 974.91 1181.04 973.93 1180.58 973.11C1180.12 972.27 1179.48 971.62 1178.66 971.16C1177.86 970.7 1176.95 970.47 1175.93 970.47C1174.91 970.47 1174 970.7 1173.2 971.16C1172.4 971.62 1171.76 972.27 1171.28 973.11C1170.8 973.93 1170.56 974.91 1170.56 976.05C1170.56 977.17 1170.8 978.16 1171.28 979.02C1171.76 979.86 1172.4 980.51 1173.2 980.97C1174 981.43 1174.91 981.66 1175.93 981.66ZM1194.74 984.18C1193.2 984.18 1191.82 983.84 1190.6 983.16C1189.4 982.48 1188.45 981.53 1187.75 980.31C1187.05 979.09 1186.7 977.67 1186.7 976.05C1186.7 974.43 1187.05 973.02 1187.75 971.82C1188.45 970.6 1189.4 969.65 1190.6 968.97C1191.82 968.29 1193.2 967.95 1194.74 967.95C1196.08 967.95 1197.29 968.25 1198.37 968.85C1199.45 969.45 1200.31 970.35 1200.95 971.55C1201.61 972.75 1201.94 974.25 1201.94 976.05C1201.94 977.85 1201.62 979.35 1200.98 980.55C1200.36 981.75 1199.51 982.66 1198.43 983.28C1197.35 983.88 1196.12 984.18 1194.74 984.18ZM1194.98 981.66C1195.98 981.66 1196.88 981.43 1197.68 980.97C1198.5 980.51 1199.14 979.86 1199.6 979.02C1200.08 978.16 1200.32 977.17 1200.32 976.05C1200.32 974.91 1200.08 973.93 1199.6 973.11C1199.14 972.27 1198.5 971.62 1197.68 971.16C1196.88 970.7 1195.98 970.47 1194.98 970.47C1193.96 970.47 1193.05 970.7 1192.25 971.16C1191.45 971.62 1190.81 972.27 1190.33 973.11C1189.85 973.93 1189.61 974.91 1189.61 976.05C1189.61 977.17 1189.85 978.16 1190.33 979.02C1190.81 979.86 1191.45 980.51 1192.25 980.97C1193.05 981.43 1193.96 981.66 1194.98 981.66ZM1200.41 984V979.71L1200.59 976.02L1200.29 972.33V961.74H1203.17V984H1200.41ZM1215.31 984.18C1213.95 984.18 1212.75 983.93 1211.71 983.43C1210.69 982.93 1209.89 982.17 1209.31 981.15C1208.75 980.11 1208.47 978.81 1208.47 977.25V968.1H1211.35V976.92C1211.35 978.48 1211.72 979.65 1212.46 980.43C1213.22 981.21 1214.28 981.6 1215.64 981.6C1216.64 981.6 1217.51 981.4 1218.25 981C1218.99 980.58 1219.56 979.98 1219.96 979.2C1220.36 978.4 1220.56 977.44 1220.56 976.32V968.1H1223.44V984H1220.71V979.71L1221.16 980.85C1220.64 981.91 1219.86 982.73 1218.82 983.31C1217.78 983.89 1216.61 984.18 1215.31 984.18ZM1235.85 984.18C1234.23 984.18 1232.78 983.83 1231.5 983.13C1230.24 982.43 1229.25 981.47 1228.53 980.25C1227.81 979.03 1227.45 977.63 1227.45 976.05C1227.45 974.47 1227.81 973.07 1228.53 971.85C1229.25 970.63 1230.24 969.68 1231.5 969C1232.78 968.3 1234.23 967.95 1235.85 967.95C1237.29 967.95 1238.57 968.24 1239.69 968.82C1240.83 969.38 1241.71 970.22 1242.33 971.34L1240.14 972.75C1239.62 971.97 1238.98 971.4 1238.22 971.04C1237.48 970.66 1236.68 970.47 1235.82 970.47C1234.78 970.47 1233.85 970.7 1233.03 971.16C1232.21 971.62 1231.56 972.27 1231.08 973.11C1230.6 973.93 1230.36 974.91 1230.36 976.05C1230.36 977.19 1230.6 978.18 1231.08 979.02C1231.56 979.86 1232.21 980.51 1233.03 980.97C1233.85 981.43 1234.78 981.66 1235.82 981.66C1236.68 981.66 1237.48 981.48 1238.22 981.12C1238.98 980.74 1239.62 980.16 1240.14 979.38L1242.33 980.76C1241.71 981.86 1240.83 982.71 1239.69 983.31C1238.57 983.89 1237.29 984.18 1235.85 984.18ZM1251.72 984.18C1250.12 984.18 1248.88 983.75 1248 982.89C1247.12 982.03 1246.68 980.8 1246.68 979.2V964.62H1249.56V979.08C1249.56 979.94 1249.77 980.6 1250.19 981.06C1250.63 981.52 1251.25 981.75 1252.05 981.75C1252.95 981.75 1253.7 981.5 1254.3 981L1255.2 983.07C1254.76 983.45 1254.23 983.73 1253.61 983.91C1253.01 984.09 1252.38 984.18 1251.72 984.18ZM1243.98 970.47V968.1H1254.12V970.47H1243.98ZM1276.64 984.24C1275.02 984.24 1273.53 983.98 1272.17 983.46C1270.81 982.92 1269.63 982.17 1268.63 981.21C1267.63 980.23 1266.85 979.09 1266.29 977.79C1265.73 976.49 1265.45 975.06 1265.45 973.5C1265.45 971.94 1265.73 970.51 1266.29 969.21C1266.85 967.91 1267.63 966.78 1268.63 965.82C1269.65 964.84 1270.84 964.09 1272.2 963.57C1273.56 963.03 1275.06 962.76 1276.7 962.76C1278.36 962.76 1279.88 963.03 1281.26 963.57C1282.64 964.11 1283.81 964.92 1284.77 966L1282.91 967.86C1282.05 967.02 1281.11 966.41 1280.09 966.03C1279.09 965.63 1278 965.43 1276.82 965.43C1275.62 965.43 1274.5 965.63 1273.46 966.03C1272.44 966.43 1271.55 966.99 1270.79 967.71C1270.05 968.43 1269.47 969.29 1269.05 970.29C1268.65 971.27 1268.45 972.34 1268.45 973.5C1268.45 974.64 1268.65 975.71 1269.05 976.71C1269.47 977.69 1270.05 978.55 1270.79 979.29C1271.55 980.01 1272.44 980.57 1273.46 980.97C1274.48 981.37 1275.59 981.57 1276.79 981.57C1277.91 981.57 1278.98 981.4 1280 981.06C1281.04 980.7 1282 980.11 1282.88 979.29L1284.59 981.57C1283.55 982.45 1282.33 983.12 1280.93 983.58C1279.55 984.02 1278.12 984.24 1276.64 984.24ZM1281.71 981.18V973.38H1284.59V981.57L1281.71 981.18ZM1289.91 984V968.1H1292.67V972.42L1292.4 971.34C1292.84 970.24 1293.58 969.4 1294.62 968.82C1295.66 968.24 1296.94 967.95 1298.46 967.95V970.74C1298.34 970.72 1298.22 970.71 1298.1 970.71C1298 970.71 1297.9 970.71 1297.8 970.71C1296.26 970.71 1295.04 971.17 1294.14 972.09C1293.24 973.01 1292.79 974.34 1292.79 976.08V984H1289.91ZM1308.68 984.18C1307.08 984.18 1305.66 983.83 1304.42 983.13C1303.18 982.43 1302.2 981.47 1301.48 980.25C1300.76 979.01 1300.4 977.61 1300.4 976.05C1300.4 974.47 1300.76 973.07 1301.48 971.85C1302.2 970.63 1303.18 969.68 1304.42 969C1305.66 968.3 1307.08 967.95 1308.68 967.95C1310.26 967.95 1311.67 968.3 1312.91 969C1314.17 969.68 1315.15 970.63 1315.85 971.85C1316.57 973.05 1316.93 974.45 1316.93 976.05C1316.93 977.63 1316.57 979.03 1315.85 980.25C1315.15 981.47 1314.17 982.43 1312.91 983.13C1311.67 983.83 1310.26 984.18 1308.68 984.18ZM1308.68 981.66C1309.7 981.66 1310.61 981.43 1311.41 980.97C1312.23 980.51 1312.87 979.86 1313.33 979.02C1313.79 978.16 1314.02 977.17 1314.02 976.05C1314.02 974.91 1313.79 973.93 1313.33 973.11C1312.87 972.27 1312.23 971.62 1311.41 971.16C1310.61 970.7 1309.7 970.47 1308.68 970.47C1307.66 970.47 1306.75 970.7 1305.95 971.16C1305.15 971.62 1304.51 972.27 1304.03 973.11C1303.55 973.93 1303.31 974.91 1303.31 976.05C1303.31 977.17 1303.55 978.16 1304.03 979.02C1304.51 979.86 1305.15 980.51 1305.95 980.97C1306.75 981.43 1307.66 981.66 1308.68 981.66ZM1327.6 984.18C1326.24 984.18 1325.04 983.93 1324 983.43C1322.98 982.93 1322.18 982.17 1321.6 981.15C1321.04 980.11 1320.76 978.81 1320.76 977.25V968.1H1323.64V976.92C1323.64 978.48 1324.01 979.65 1324.75 980.43C1325.51 981.21 1326.57 981.6 1327.93 981.6C1328.93 981.6 1329.8 981.4 1330.54 981C1331.28 980.58 1331.85 979.98 1332.25 979.2C1332.65 978.4 1332.85 977.44 1332.85 976.32V968.1H1335.73V984H1333V979.71L1333.45 980.85C1332.93 981.91 1332.15 982.73 1331.11 983.31C1330.07 983.89 1328.9 984.18 1327.6 984.18ZM1349.64 984.18C1348.32 984.18 1347.11 983.88 1346.01 983.28C1344.93 982.66 1344.06 981.75 1343.4 980.55C1342.76 979.35 1342.44 977.85 1342.44 976.05C1342.44 974.25 1342.75 972.75 1343.37 971.55C1344.01 970.35 1344.87 969.45 1345.95 968.85C1347.05 968.25 1348.28 967.95 1349.64 967.95C1351.2 967.95 1352.58 968.29 1353.78 968.97C1354.98 969.65 1355.93 970.6 1356.63 971.82C1357.33 973.02 1357.68 974.43 1357.68 976.05C1357.68 977.67 1357.33 979.09 1356.63 980.31C1355.93 981.53 1354.98 982.48 1353.78 983.16C1352.58 983.84 1351.2 984.18 1349.64 984.18ZM1341.21 989.82V968.1H1343.97V972.39L1343.79 976.08L1344.09 979.77V989.82H1341.21ZM1349.4 981.66C1350.42 981.66 1351.33 981.43 1352.13 980.97C1352.95 980.51 1353.59 979.86 1354.05 979.02C1354.53 978.16 1354.77 977.17 1354.77 976.05C1354.77 974.91 1354.53 973.93 1354.05 973.11C1353.59 972.27 1352.95 971.62 1352.13 971.16C1351.33 970.7 1350.42 970.47 1349.4 970.47C1348.4 970.47 1347.49 970.7 1346.67 971.16C1345.87 971.62 1345.23 972.27 1344.75 973.11C1344.29 973.93 1344.06 974.91 1344.06 976.05C1344.06 977.17 1344.29 978.16 1344.75 979.02C1345.23 979.86 1345.87 980.51 1346.67 980.97C1347.49 981.43 1348.4 981.66 1349.4 981.66Z" fill="#F1EAE1"/>
<defs>
<clipPath id="clip0_330_110">
<rect width="496.743" height="500" fill="white" transform="translate(57 351)"/>
</clipPath>
<clipPath id="clip1_330_110">
<rect width="832.5" height="600" fill="white" transform="translate(753.742 301)"/>
</clipPath>
</defs>
</svg>
