<svg width="1178" height="176" viewBox="0 0 1178 176" fill="none" xmlns="http://www.w3.org/2000/svg">
<rect x="326" y="1" width="601" height="174" rx="19" fill="#2A2D39" stroke="white" stroke-width="2"/>
<path d="M502.343 74H506.343V102H502.343V74ZM486.263 102H482.263V74H486.263V102ZM502.703 89.52H485.863V86.04H502.703V89.52ZM527.323 102V97.52L527.123 96.68V89.04C527.123 87.4133 526.643 86.16 525.683 85.28C524.75 84.3733 523.337 83.92 521.443 83.92C520.19 83.92 518.963 84.1333 517.763 84.56C516.563 84.96 515.55 85.5067 514.723 86.2L513.123 83.32C514.217 82.44 515.523 81.7733 517.043 81.32C518.59 80.84 520.203 80.6 521.883 80.6C524.79 80.6 527.03 81.3067 528.603 82.72C530.177 84.1333 530.963 86.2933 530.963 89.2V102H527.323ZM520.363 102.24C518.79 102.24 517.403 101.973 516.203 101.44C515.03 100.907 514.123 100.173 513.483 99.24C512.843 98.28 512.523 97.2 512.523 96C512.523 94.8533 512.79 93.8133 513.323 92.88C513.883 91.9467 514.777 91.2 516.003 90.64C517.257 90.08 518.937 89.8 521.043 89.8H527.763V92.56H521.203C519.283 92.56 517.99 92.88 517.323 93.52C516.657 94.16 516.323 94.9333 516.323 95.84C516.323 96.88 516.737 97.72 517.563 98.36C518.39 98.9733 519.537 99.28 521.003 99.28C522.443 99.28 523.697 98.96 524.763 98.32C525.857 97.68 526.643 96.7467 527.123 95.52L527.883 98.16C527.377 99.4133 526.483 100.413 525.203 101.16C523.923 101.88 522.31 102.24 520.363 102.24ZM544.15 102.24C542.39 102.24 540.71 102 539.11 101.52C537.536 101.04 536.296 100.453 535.39 99.76L536.99 96.72C537.896 97.3333 539.016 97.8533 540.35 98.28C541.683 98.7067 543.043 98.92 544.43 98.92C546.216 98.92 547.496 98.6667 548.27 98.16C549.07 97.6533 549.47 96.9467 549.47 96.04C549.47 95.3733 549.23 94.8533 548.75 94.48C548.27 94.1067 547.63 93.8267 546.83 93.64C546.056 93.4533 545.19 93.2933 544.23 93.16C543.27 93 542.31 92.8133 541.35 92.6C540.39 92.36 539.51 92.04 538.71 91.64C537.91 91.2133 537.27 90.64 536.79 89.92C536.31 89.1733 536.07 88.1867 536.07 86.96C536.07 85.68 536.43 84.56 537.15 83.6C537.87 82.64 538.883 81.9067 540.19 81.4C541.523 80.8667 543.096 80.6 544.91 80.6C546.296 80.6 547.696 80.7733 549.11 81.12C550.55 81.44 551.723 81.9067 552.63 82.52L550.99 85.56C550.03 84.92 549.03 84.48 547.99 84.24C546.95 84 545.91 83.88 544.87 83.88C543.19 83.88 541.936 84.16 541.11 84.72C540.283 85.2533 539.87 85.9467 539.87 86.8C539.87 87.52 540.11 88.08 540.59 88.48C541.096 88.8533 541.736 89.1467 542.51 89.36C543.31 89.5733 544.19 89.76 545.15 89.92C546.11 90.0533 547.07 90.24 548.03 90.48C548.99 90.6933 549.856 91 550.63 91.4C551.43 91.8 552.07 92.36 552.55 93.08C553.056 93.8 553.31 94.76 553.31 95.96C553.31 97.24 552.936 98.3467 552.19 99.28C551.443 100.213 550.39 100.947 549.03 101.48C547.67 101.987 546.043 102.24 544.15 102.24ZM569.429 80.6C571.162 80.6 572.682 80.9333 573.989 81.6C575.322 82.2667 576.362 83.28 577.109 84.64C577.855 86 578.229 87.72 578.229 89.8V102H574.389V90.24C574.389 88.1867 573.882 86.64 572.869 85.6C571.882 84.56 570.482 84.04 568.669 84.04C567.309 84.04 566.122 84.3067 565.109 84.84C564.095 85.3733 563.309 86.16 562.749 87.2C562.215 88.24 561.949 89.5333 561.949 91.08V102H558.109V72.32H561.949V86.52L561.189 85C561.882 83.6133 562.949 82.5333 564.389 81.76C565.829 80.9867 567.509 80.6 569.429 80.6ZM600.238 87.24H614.678V90.68H600.238V87.24ZM600.638 102H596.638V74H616.398V77.48H600.638V102ZM629.724 102.24C627.911 102.24 626.311 101.907 624.924 101.24C623.564 100.573 622.497 99.56 621.724 98.2C620.977 96.8133 620.604 95.08 620.604 93V80.8H624.444V92.56C624.444 94.64 624.937 96.2 625.924 97.24C626.937 98.28 628.351 98.8 630.164 98.8C631.497 98.8 632.657 98.5333 633.644 98C634.631 97.44 635.391 96.64 635.924 95.6C636.457 94.5333 636.724 93.2533 636.724 91.76V80.8H640.564V102H636.924V96.28L637.524 97.8C636.831 99.2133 635.791 100.307 634.404 101.08C633.017 101.853 631.457 102.24 629.724 102.24ZM659.194 80.6C660.928 80.6 662.448 80.9333 663.754 81.6C665.088 82.2667 666.128 83.28 666.874 84.64C667.621 86 667.994 87.72 667.994 89.8V102H664.154V90.24C664.154 88.1867 663.648 86.64 662.634 85.6C661.648 84.56 660.248 84.04 658.434 84.04C657.074 84.04 655.888 84.3067 654.874 84.84C653.861 85.3733 653.074 86.16 652.514 87.2C651.981 88.24 651.714 89.5333 651.714 91.08V102H647.874V80.8H651.554V86.52L650.954 85C651.648 83.6133 652.714 82.5333 654.154 81.76C655.594 80.9867 657.274 80.6 659.194 80.6ZM684.341 102.24C682.181 102.24 680.248 101.773 678.541 100.84C676.861 99.9067 675.541 98.6267 674.581 97C673.621 95.3733 673.141 93.5067 673.141 91.4C673.141 89.2933 673.621 87.4267 674.581 85.8C675.541 84.1733 676.861 82.9067 678.541 82C680.248 81.0667 682.181 80.6 684.341 80.6C686.261 80.6 687.968 80.9867 689.461 81.76C690.981 82.5067 692.154 83.6267 692.981 85.12L690.061 87C689.368 85.96 688.514 85.2 687.501 84.72C686.514 84.2133 685.448 83.96 684.301 83.96C682.914 83.96 681.674 84.2667 680.581 84.88C679.488 85.4933 678.621 86.36 677.981 87.48C677.341 88.5733 677.021 89.88 677.021 91.4C677.021 92.92 677.341 94.24 677.981 95.36C678.621 96.48 679.488 97.3467 680.581 97.96C681.674 98.5733 682.914 98.88 684.301 98.88C685.448 98.88 686.514 98.64 687.501 98.16C688.514 97.6533 689.368 96.88 690.061 95.84L692.981 97.68C692.154 99.1467 690.981 100.28 689.461 101.08C687.968 101.853 686.261 102.24 684.341 102.24ZM705.506 102.24C703.373 102.24 701.719 101.667 700.546 100.52C699.373 99.3733 698.786 97.7333 698.786 95.6V76.16H702.626V95.44C702.626 96.5867 702.906 97.4667 703.466 98.08C704.053 98.6933 704.879 99 705.946 99C707.146 99 708.146 98.6667 708.946 98L710.146 100.76C709.559 101.267 708.853 101.64 708.026 101.88C707.226 102.12 706.386 102.24 705.506 102.24ZM695.186 83.96V80.8H708.706V83.96H695.186ZM714.788 102V80.8H718.628V102H714.788ZM716.708 76.72C715.962 76.72 715.335 76.48 714.828 76C714.348 75.52 714.108 74.9333 714.108 74.24C714.108 73.52 714.348 72.92 714.828 72.44C715.335 71.96 715.962 71.72 716.708 71.72C717.455 71.72 718.068 71.96 718.548 72.44C719.055 72.8933 719.308 73.4667 719.308 74.16C719.308 74.88 719.068 75.4933 718.588 76C718.108 76.48 717.482 76.72 716.708 76.72ZM735.04 102.24C732.907 102.24 731.014 101.773 729.36 100.84C727.707 99.9067 726.4 98.6267 725.44 97C724.48 95.3467 724 93.48 724 91.4C724 89.2933 724.48 87.4267 725.44 85.8C726.4 84.1733 727.707 82.9067 729.36 82C731.014 81.0667 732.907 80.6 735.04 80.6C737.147 80.6 739.027 81.0667 740.68 82C742.36 82.9067 743.667 84.1733 744.6 85.8C745.56 87.4 746.04 89.2667 746.04 91.4C746.04 93.5067 745.56 95.3733 744.6 97C743.667 98.6267 742.36 99.9067 740.68 100.84C739.027 101.773 737.147 102.24 735.04 102.24ZM735.04 98.88C736.4 98.88 737.614 98.5733 738.68 97.96C739.774 97.3467 740.627 96.48 741.24 95.36C741.854 94.2133 742.16 92.8933 742.16 91.4C742.16 89.88 741.854 88.5733 741.24 87.48C740.627 86.36 739.774 85.4933 738.68 84.88C737.614 84.2667 736.4 83.96 735.04 83.96C733.68 83.96 732.467 84.2667 731.4 84.88C730.334 85.4933 729.48 86.36 728.84 87.48C728.2 88.5733 727.88 89.88 727.88 91.4C727.88 92.8933 728.2 94.2133 728.84 95.36C729.48 96.48 730.334 97.3467 731.4 97.96C732.467 98.5733 733.68 98.88 735.04 98.88ZM762.671 80.6C764.404 80.6 765.924 80.9333 767.231 81.6C768.564 82.2667 769.604 83.28 770.351 84.64C771.098 86 771.471 87.72 771.471 89.8V102H767.631V90.24C767.631 88.1867 767.124 86.64 766.111 85.6C765.124 84.56 763.724 84.04 761.911 84.04C760.551 84.04 759.364 84.3067 758.351 84.84C757.338 85.3733 756.551 86.16 755.991 87.2C755.458 88.24 755.191 89.5333 755.191 91.08V102H751.351V80.8H755.031V86.52L754.431 85C755.124 83.6133 756.191 82.5333 757.631 81.76C759.071 80.9867 760.751 80.6 762.671 80.6Z" fill="#F1EAE1"/>
<path d="M4.30547 102V74H7.58547L20.1455 95.16H18.3855L30.7855 74H34.0655L34.1055 102H30.2655L30.2255 80.04H31.1455L20.1055 98.6H18.2655L7.14547 80.04H8.14547V102H4.30547ZM51.3886 102.24C49.1219 102.24 47.1219 101.773 45.3886 100.84C43.6819 99.9067 42.3486 98.6267 41.3886 97C40.4553 95.3733 39.9886 93.5067 39.9886 91.4C39.9886 89.2933 40.4419 87.4267 41.3486 85.8C42.2819 84.1733 43.5486 82.9067 45.1486 82C46.7753 81.0667 48.6019 80.6 50.6286 80.6C52.6819 80.6 54.4953 81.0533 56.0686 81.96C57.6419 82.8667 58.8686 84.1467 59.7486 85.8C60.6553 87.4267 61.1086 89.3333 61.1086 91.52C61.1086 91.68 61.0953 91.8667 61.0686 92.08C61.0686 92.2933 61.0553 92.4933 61.0286 92.68H42.9886V89.92H59.0286L57.4686 90.88C57.4953 89.52 57.2153 88.3067 56.6286 87.24C56.0419 86.1733 55.2286 85.3467 54.1886 84.76C53.1753 84.1467 51.9886 83.84 50.6286 83.84C49.2953 83.84 48.1086 84.1467 47.0686 84.76C46.0286 85.3467 45.2153 86.1867 44.6286 87.28C44.0419 88.3467 43.7486 89.5733 43.7486 90.96V91.6C43.7486 93.0133 44.0686 94.28 44.7086 95.4C45.3753 96.4933 46.2953 97.3467 47.4686 97.96C48.6419 98.5733 49.9886 98.88 51.5086 98.88C52.7619 98.88 53.8953 98.6667 54.9086 98.24C55.9486 97.8133 56.8553 97.1733 57.6286 96.32L59.7486 98.8C58.7886 99.92 57.5886 100.773 56.1486 101.36C54.7353 101.947 53.1486 102.24 51.3886 102.24ZM72.5208 102.24C70.7608 102.24 69.0808 102 67.4808 101.52C65.9074 101.04 64.6674 100.453 63.7608 99.76L65.3608 96.72C66.2674 97.3333 67.3874 97.8533 68.7208 98.28C70.0541 98.7067 71.4141 98.92 72.8008 98.92C74.5874 98.92 75.8674 98.6667 76.6408 98.16C77.4408 97.6533 77.8408 96.9467 77.8408 96.04C77.8408 95.3733 77.6008 94.8533 77.1208 94.48C76.6408 94.1067 76.0008 93.8267 75.2008 93.64C74.4274 93.4533 73.5608 93.2933 72.6008 93.16C71.6408 93 70.6808 92.8133 69.7208 92.6C68.7608 92.36 67.8808 92.04 67.0808 91.64C66.2808 91.2133 65.6408 90.64 65.1608 89.92C64.6808 89.1733 64.4408 88.1867 64.4408 86.96C64.4408 85.68 64.8008 84.56 65.5208 83.6C66.2408 82.64 67.2541 81.9067 68.5608 81.4C69.8941 80.8667 71.4674 80.6 73.2808 80.6C74.6674 80.6 76.0674 80.7733 77.4808 81.12C78.9208 81.44 80.0941 81.9067 81.0008 82.52L79.3608 85.56C78.4008 84.92 77.4008 84.48 76.3608 84.24C75.3208 84 74.2808 83.88 73.2408 83.88C71.5608 83.88 70.3074 84.16 69.4808 84.72C68.6541 85.2533 68.2408 85.9467 68.2408 86.8C68.2408 87.52 68.4808 88.08 68.9608 88.48C69.4674 88.8533 70.1074 89.1467 70.8808 89.36C71.6808 89.5733 72.5608 89.76 73.5208 89.92C74.4808 90.0533 75.4408 90.24 76.4008 90.48C77.3608 90.6933 78.2274 91 79.0008 91.4C79.8008 91.8 80.4408 92.36 80.9208 93.08C81.4274 93.8 81.6808 94.76 81.6808 95.96C81.6808 97.24 81.3074 98.3467 80.5608 99.28C79.8141 100.213 78.7608 100.947 77.4008 101.48C76.0408 101.987 74.4141 102.24 72.5208 102.24ZM92.5598 102.24C90.7998 102.24 89.1198 102 87.5198 101.52C85.9465 101.04 84.7065 100.453 83.7998 99.76L85.3998 96.72C86.3065 97.3333 87.4265 97.8533 88.7598 98.28C90.0932 98.7067 91.4532 98.92 92.8398 98.92C94.6265 98.92 95.9065 98.6667 96.6798 98.16C97.4798 97.6533 97.8798 96.9467 97.8798 96.04C97.8798 95.3733 97.6398 94.8533 97.1598 94.48C96.6798 94.1067 96.0398 93.8267 95.2398 93.64C94.4665 93.4533 93.5998 93.2933 92.6398 93.16C91.6798 93 90.7198 92.8133 89.7598 92.6C88.7998 92.36 87.9198 92.04 87.1198 91.64C86.3198 91.2133 85.6798 90.64 85.1998 89.92C84.7198 89.1733 84.4798 88.1867 84.4798 86.96C84.4798 85.68 84.8398 84.56 85.5598 83.6C86.2798 82.64 87.2932 81.9067 88.5998 81.4C89.9332 80.8667 91.5065 80.6 93.3198 80.6C94.7065 80.6 96.1065 80.7733 97.5198 81.12C98.9598 81.44 100.133 81.9067 101.04 82.52L99.3998 85.56C98.4398 84.92 97.4398 84.48 96.3998 84.24C95.3598 84 94.3198 83.88 93.2798 83.88C91.5998 83.88 90.3465 84.16 89.5198 84.72C88.6932 85.2533 88.2798 85.9467 88.2798 86.8C88.2798 87.52 88.5198 88.08 88.9998 88.48C89.5065 88.8533 90.1465 89.1467 90.9198 89.36C91.7198 89.5733 92.5998 89.76 93.5598 89.92C94.5198 90.0533 95.4798 90.24 96.4398 90.48C97.3998 90.6933 98.2665 91 99.0398 91.4C99.8398 91.8 100.48 92.36 100.96 93.08C101.467 93.8 101.72 94.76 101.72 95.96C101.72 97.24 101.347 98.3467 100.6 99.28C99.8532 100.213 98.7998 100.947 97.4398 101.48C96.0798 101.987 94.4532 102.24 92.5598 102.24ZM119.679 102V97.52L119.479 96.68V89.04C119.479 87.4133 118.999 86.16 118.039 85.28C117.106 84.3733 115.692 83.92 113.799 83.92C112.546 83.92 111.319 84.1333 110.119 84.56C108.919 84.96 107.906 85.5067 107.079 86.2L105.479 83.32C106.572 82.44 107.879 81.7733 109.399 81.32C110.946 80.84 112.559 80.6 114.239 80.6C117.146 80.6 119.386 81.3067 120.959 82.72C122.532 84.1333 123.319 86.2933 123.319 89.2V102H119.679ZM112.719 102.24C111.146 102.24 109.759 101.973 108.559 101.44C107.386 100.907 106.479 100.173 105.839 99.24C105.199 98.28 104.879 97.2 104.879 96C104.879 94.8533 105.146 93.8133 105.679 92.88C106.239 91.9467 107.132 91.2 108.359 90.64C109.612 90.08 111.292 89.8 113.399 89.8H120.119V92.56H113.559C111.639 92.56 110.346 92.88 109.679 93.52C109.012 94.16 108.679 94.9333 108.679 95.84C108.679 96.88 109.092 97.72 109.919 98.36C110.746 98.9733 111.892 99.28 113.359 99.28C114.799 99.28 116.052 98.96 117.119 98.32C118.212 97.68 118.999 96.7467 119.479 95.52L120.239 98.16C119.732 99.4133 118.839 100.413 117.559 101.16C116.279 101.88 114.666 102.24 112.719 102.24ZM139.705 110C137.758 110 135.865 109.72 134.025 109.16C132.212 108.627 130.732 107.853 129.585 106.84L131.425 103.88C132.412 104.733 133.625 105.4 135.065 105.88C136.505 106.387 138.012 106.64 139.585 106.64C142.092 106.64 143.932 106.053 145.105 104.88C146.278 103.707 146.865 101.92 146.865 99.52V95.04L147.265 90.84L147.065 86.6V80.8H150.705V99.12C150.705 102.853 149.772 105.6 147.905 107.36C146.038 109.12 143.305 110 139.705 110ZM139.225 101.12C137.172 101.12 135.332 100.693 133.705 99.84C132.105 98.96 130.825 97.7467 129.865 96.2C128.932 94.6533 128.465 92.8667 128.465 90.84C128.465 88.7867 128.932 87 129.865 85.48C130.825 83.9333 132.105 82.7333 133.705 81.88C135.332 81.0267 137.172 80.6 139.225 80.6C141.038 80.6 142.692 80.9733 144.185 81.72C145.678 82.44 146.865 83.56 147.745 85.08C148.652 86.6 149.105 88.52 149.105 90.84C149.105 93.1333 148.652 95.04 147.745 96.56C146.865 98.08 145.678 99.2267 144.185 100C142.692 100.747 141.038 101.12 139.225 101.12ZM139.665 97.76C141.078 97.76 142.332 97.4667 143.425 96.88C144.518 96.2933 145.372 95.48 145.985 94.44C146.625 93.4 146.945 92.2 146.945 90.84C146.945 89.48 146.625 88.28 145.985 87.24C145.372 86.2 144.518 85.4 143.425 84.84C142.332 84.2533 141.078 83.96 139.665 83.96C138.252 83.96 136.985 84.2533 135.865 84.84C134.772 85.4 133.905 86.2 133.265 87.24C132.652 88.28 132.345 89.48 132.345 90.84C132.345 92.2 132.652 93.4 133.265 94.44C133.905 95.48 134.772 96.2933 135.865 96.88C136.985 97.4667 138.252 97.76 139.665 97.76ZM167.482 102.24C165.216 102.24 163.216 101.773 161.482 100.84C159.776 99.9067 158.442 98.6267 157.482 97C156.549 95.3733 156.082 93.5067 156.082 91.4C156.082 89.2933 156.536 87.4267 157.442 85.8C158.376 84.1733 159.642 82.9067 161.242 82C162.869 81.0667 164.696 80.6 166.722 80.6C168.776 80.6 170.589 81.0533 172.162 81.96C173.736 82.8667 174.962 84.1467 175.842 85.8C176.749 87.4267 177.202 89.3333 177.202 91.52C177.202 91.68 177.189 91.8667 177.162 92.08C177.162 92.2933 177.149 92.4933 177.122 92.68H159.082V89.92H175.122L173.562 90.88C173.589 89.52 173.309 88.3067 172.722 87.24C172.136 86.1733 171.322 85.3467 170.282 84.76C169.269 84.1467 168.082 83.84 166.722 83.84C165.389 83.84 164.202 84.1467 163.162 84.76C162.122 85.3467 161.309 86.1867 160.722 87.28C160.136 88.3467 159.842 89.5733 159.842 90.96V91.6C159.842 93.0133 160.162 94.28 160.802 95.4C161.469 96.4933 162.389 97.3467 163.562 97.96C164.736 98.5733 166.082 98.88 167.602 98.88C168.856 98.88 169.989 98.6667 171.002 98.24C172.042 97.8133 172.949 97.1733 173.722 96.32L175.842 98.8C174.882 99.92 173.682 100.773 172.242 101.36C170.829 101.947 169.242 102.24 167.482 102.24Z" fill="#F1EAE1"/>
<path d="M1098.46 74H1102.46V102H1098.46V74ZM1082.38 102H1078.38V74H1082.38V102ZM1098.82 89.52H1081.98V86.04H1098.82V89.52ZM1123.44 102V97.52L1123.24 96.68V89.04C1123.24 87.4133 1122.76 86.16 1121.8 85.28C1120.87 84.3733 1119.46 83.92 1117.56 83.92C1116.31 83.92 1115.08 84.1333 1113.88 84.56C1112.68 84.96 1111.67 85.5067 1110.84 86.2L1109.24 83.32C1110.34 82.44 1111.64 81.7733 1113.16 81.32C1114.71 80.84 1116.32 80.6 1118 80.6C1120.91 80.6 1123.15 81.3067 1124.72 82.72C1126.3 84.1333 1127.08 86.2933 1127.08 89.2V102H1123.44ZM1116.48 102.24C1114.91 102.24 1113.52 101.973 1112.32 101.44C1111.15 100.907 1110.24 100.173 1109.6 99.24C1108.96 98.28 1108.64 97.2 1108.64 96C1108.64 94.8533 1108.91 93.8133 1109.44 92.88C1110 91.9467 1110.9 91.2 1112.12 90.64C1113.38 90.08 1115.06 89.8 1117.16 89.8H1123.88V92.56H1117.32C1115.4 92.56 1114.11 92.88 1113.44 93.52C1112.78 94.16 1112.44 94.9333 1112.44 95.84C1112.44 96.88 1112.86 97.72 1113.68 98.36C1114.51 98.9733 1115.66 99.28 1117.12 99.28C1118.56 99.28 1119.82 98.96 1120.88 98.32C1121.98 97.68 1122.76 96.7467 1123.24 95.52L1124 98.16C1123.5 99.4133 1122.6 100.413 1121.32 101.16C1120.04 101.88 1118.43 102.24 1116.48 102.24ZM1140.27 102.24C1138.51 102.24 1136.83 102 1135.23 101.52C1133.66 101.04 1132.42 100.453 1131.51 99.76L1133.11 96.72C1134.02 97.3333 1135.14 97.8533 1136.47 98.28C1137.8 98.7067 1139.16 98.92 1140.55 98.92C1142.34 98.92 1143.62 98.6667 1144.39 98.16C1145.19 97.6533 1145.59 96.9467 1145.59 96.04C1145.59 95.3733 1145.35 94.8533 1144.87 94.48C1144.39 94.1067 1143.75 93.8267 1142.95 93.64C1142.18 93.4533 1141.31 93.2933 1140.35 93.16C1139.39 93 1138.43 92.8133 1137.47 92.6C1136.51 92.36 1135.63 92.04 1134.83 91.64C1134.03 91.2133 1133.39 90.64 1132.91 89.92C1132.43 89.1733 1132.19 88.1867 1132.19 86.96C1132.19 85.68 1132.55 84.56 1133.27 83.6C1133.99 82.64 1135 81.9067 1136.31 81.4C1137.64 80.8667 1139.22 80.6 1141.03 80.6C1142.42 80.6 1143.82 80.7733 1145.23 81.12C1146.67 81.44 1147.84 81.9067 1148.75 82.52L1147.11 85.56C1146.15 84.92 1145.15 84.48 1144.11 84.24C1143.07 84 1142.03 83.88 1140.99 83.88C1139.31 83.88 1138.06 84.16 1137.23 84.72C1136.4 85.2533 1135.99 85.9467 1135.99 86.8C1135.99 87.52 1136.23 88.08 1136.71 88.48C1137.22 88.8533 1137.86 89.1467 1138.63 89.36C1139.43 89.5733 1140.31 89.76 1141.27 89.92C1142.23 90.0533 1143.19 90.24 1144.15 90.48C1145.11 90.6933 1145.98 91 1146.75 91.4C1147.55 91.8 1148.19 92.36 1148.67 93.08C1149.18 93.8 1149.43 94.76 1149.43 95.96C1149.43 97.24 1149.06 98.3467 1148.31 99.28C1147.56 100.213 1146.51 100.947 1145.15 101.48C1143.79 101.987 1142.16 102.24 1140.27 102.24ZM1165.55 80.6C1167.28 80.6 1168.8 80.9333 1170.11 81.6C1171.44 82.2667 1172.48 83.28 1173.23 84.64C1173.98 86 1174.35 87.72 1174.35 89.8V102H1170.51V90.24C1170.51 88.1867 1170 86.64 1168.99 85.6C1168 84.56 1166.6 84.04 1164.79 84.04C1163.43 84.04 1162.24 84.3067 1161.23 84.84C1160.22 85.3733 1159.43 86.16 1158.87 87.2C1158.34 88.24 1158.07 89.5333 1158.07 91.08V102H1154.23V72.32H1158.07V86.52L1157.31 85C1158 83.6133 1159.07 82.5333 1160.51 81.76C1161.95 80.9867 1163.63 80.6 1165.55 80.6Z" fill="#F1EAE1"/>
<path d="M283.072 89.7678C284.048 88.7915 284.048 87.2085 283.072 86.2322L267.162 70.3223C266.186 69.346 264.603 69.346 263.627 70.3223C262.65 71.2986 262.65 72.8816 263.627 73.8579L277.769 88L263.627 102.142C262.65 103.118 262.65 104.701 263.627 105.678C264.603 106.654 266.186 106.654 267.162 105.678L283.072 89.7678ZM222 90.5H281.304V85.5H222V90.5Z" fill="white"/>
<path d="M1032.07 89.7678C1033.05 88.7915 1033.05 87.2085 1032.07 86.2322L1016.16 70.3223C1015.19 69.346 1013.6 69.346 1012.63 70.3223C1011.65 71.2986 1011.65 72.8816 1012.63 73.8579L1026.77 88L1012.63 102.142C1011.65 103.118 1011.65 104.701 1012.63 105.678C1013.6 106.654 1015.19 106.654 1016.16 105.678L1032.07 89.7678ZM971 90.5H1030.3V85.5H971V90.5Z" fill="white"/>
</svg>
