<svg width="65" height="60" viewBox="0 0 65 60" fill="none" xmlns="http://www.w3.org/2000/svg">
<path d="M32.5001 43.4697C35.1338 48.2154 36.6346 53.6793 36.6346 59.4934H28.3667C28.3667 53.6793 29.8664 48.2154 32.5013 43.4697H32.5001Z" fill="#F1EAE1"/>
<path d="M4.14052 26.4272C7.21732 26.4785 10.1929 26.9514 13.01 27.79C11.452 30.1628 10.0654 32.6559 8.86591 35.2562C7.15658 34.8858 5.38173 34.6892 3.56161 34.6892C2.35257 34.6892 1.16259 34.775 0 34.9441C1.17926 31.9936 2.5646 29.1503 4.14052 26.4284V26.4272Z" fill="#F1EAE1"/>
<path d="M15.9738 11.4509C19.053 12.243 22.0142 13.3246 24.8302 14.6635C22.5074 16.5622 20.3335 18.6384 18.3347 20.8707H18.3335C15.514 19.7903 12.548 19.0125 9.46997 18.5717C11.4628 16.0417 13.6367 13.6617 15.9738 11.4497V11.4509Z" fill="#F1EAE1"/>
<path d="M41.3505 5.20067C38.2678 6.33943 35.3101 7.73549 32.5001 9.36144C29.6901 7.73549 26.7324 6.34062 23.6497 5.20067C26.4489 3.24595 29.4078 1.50684 32.5001 0C35.5924 1.50684 38.5501 3.24595 41.3505 5.20067Z" fill="#F1EAE1"/>
<path d="M20.6895 31.1958C23.0659 32.6383 25.2458 34.3703 27.1802 36.3452C25.5388 38.7729 24.1463 41.3839 23.0433 44.1415C21.2387 41.8509 19.0386 39.8902 16.5466 38.3571C17.7307 35.8473 19.1184 33.4531 20.6907 31.1958H20.6895Z" fill="#F1EAE1"/>
<path d="M32.5 19.1968C34.8227 20.8656 36.9943 22.7322 38.9919 24.7715C36.6548 26.2866 34.4809 28.0293 32.5 29.971C30.519 28.0293 28.3439 26.2866 26.0081 24.7715C28.0057 22.7322 30.1784 20.8656 32.5 19.1968Z" fill="#F1EAE1"/>
<path d="M55.5289 18.573C52.4521 19.0125 49.4837 19.7916 46.6642 20.872C44.6654 18.6397 42.4927 16.5623 40.1687 14.6647C42.9846 13.3259 45.9459 12.2443 49.0251 11.4521C51.3622 13.6642 53.5361 16.0441 55.5289 18.5742V18.573Z" fill="#F1EAE1"/>
<path d="M44.3093 31.1958C45.8817 33.4531 47.2694 35.8473 48.4534 38.3571C45.9615 39.8902 43.7602 41.8509 41.9568 44.1415C40.8537 41.3827 39.4613 38.7717 37.8198 36.3452C39.7543 34.3703 41.9341 32.6383 44.3105 31.1958H44.3093Z" fill="#F1EAE1"/>
<path d="M65 34.9441C63.8374 34.775 62.6474 34.6892 61.4384 34.6892C59.6183 34.6892 57.8434 34.8858 56.1341 35.2562C54.9358 32.6571 53.548 30.1628 51.99 27.79C54.8083 26.9514 57.7827 26.4785 60.8595 26.4272C62.4354 29.1491 63.8207 31.9936 65 34.943V34.9441Z" fill="#F1EAE1"/>
</svg>
