<svg width="443" height="138" viewBox="0 0 443 138" fill="none" xmlns="http://www.w3.org/2000/svg">
<g filter="url(#filter0_d_161_451)">
<rect x="4" width="435" height="130" rx="20" fill="#2A2D39"/>
<rect x="4.375" y="0.375" width="434.25" height="129.25" rx="19.625" stroke="#F1EAE1" stroke-width="0.75"/>
</g>
<path d="M36.92 55L41.96 43.8H44.008L49.064 55H46.888L42.552 44.904H43.384L39.064 55H36.92ZM39.24 52.408L39.8 50.776H45.848L46.408 52.408H39.24ZM61.0804 46.36C61.763 46.36 62.3657 46.4933 62.8884 46.76C63.4217 47.0267 63.8377 47.4373 64.1364 47.992C64.435 48.536 64.5844 49.24 64.5844 50.104V55H62.5844V50.36C62.5844 49.6027 62.419 49.0373 62.0884 48.664C61.7577 48.2907 61.283 48.104 60.6644 48.104C60.227 48.104 59.8377 48.2 59.4964 48.392C59.1657 48.584 58.9044 48.8667 58.7124 49.24C58.531 49.6133 58.4404 50.088 58.4404 50.664V55H56.4404V50.36C56.4404 49.6027 56.275 49.0373 55.9444 48.664C55.6137 48.2907 55.139 48.104 54.5204 48.104C54.083 48.104 53.6937 48.2 53.3524 48.392C53.0217 48.584 52.7604 48.8667 52.5684 49.24C52.387 49.6133 52.2964 50.088 52.2964 50.664V55H50.2964V46.456H52.2004V48.728L51.8644 48.056C52.1524 47.5013 52.5684 47.08 53.1124 46.792C53.667 46.504 54.2964 46.36 55.0004 46.36C55.8004 46.36 56.4937 46.5573 57.0804 46.952C57.6777 47.3467 58.0724 47.944 58.2644 48.744L57.4804 48.472C57.7577 47.832 58.2164 47.32 58.8564 46.936C59.4964 46.552 60.2377 46.36 61.0804 46.36ZM70.9958 55.112C70.1211 55.112 69.3424 54.9253 68.6598 54.552C67.9771 54.168 67.4384 53.6453 67.0438 52.984C66.6491 52.3227 66.4518 51.5707 66.4518 50.728C66.4518 49.8747 66.6491 49.1227 67.0438 48.472C67.4384 47.8107 67.9771 47.2933 68.6598 46.92C69.3424 46.5467 70.1211 46.36 70.9958 46.36C71.8811 46.36 72.6651 46.5467 73.3478 46.92C74.0411 47.2933 74.5798 47.8053 74.9638 48.456C75.3584 49.1067 75.5558 49.864 75.5558 50.728C75.5558 51.5707 75.3584 52.3227 74.9638 52.984C74.5798 53.6453 74.0411 54.168 73.3478 54.552C72.6651 54.9253 71.8811 55.112 70.9958 55.112ZM70.9958 53.4C71.4864 53.4 71.9238 53.2933 72.3078 53.08C72.6918 52.8667 72.9904 52.5573 73.2038 52.152C73.4278 51.7467 73.5398 51.272 73.5398 50.728C73.5398 50.1733 73.4278 49.6987 73.2038 49.304C72.9904 48.8987 72.6918 48.5893 72.3078 48.376C71.9238 48.1627 71.4918 48.056 71.0118 48.056C70.5211 48.056 70.0838 48.1627 69.6998 48.376C69.3264 48.5893 69.0278 48.8987 68.8038 49.304C68.5798 49.6987 68.4678 50.1733 68.4678 50.728C68.4678 51.272 68.5798 51.7467 68.8038 52.152C69.0278 52.5573 69.3264 52.8667 69.6998 53.08C70.0838 53.2933 70.5158 53.4 70.9958 53.4ZM81.0843 55.112C80.3589 55.112 79.7189 54.9787 79.1643 54.712C78.6096 54.4347 78.1776 54.0187 77.8683 53.464C77.5589 52.8987 77.4043 52.1893 77.4043 51.336V46.456H79.4043V51.064C79.4043 51.832 79.5749 52.408 79.9163 52.792C80.2683 53.1653 80.7643 53.352 81.4043 53.352C81.8736 53.352 82.2789 53.256 82.6203 53.064C82.9723 52.872 83.2443 52.584 83.4363 52.2C83.6389 51.816 83.7403 51.3413 83.7403 50.776V46.456H85.7403V55H83.8363V52.696L84.1723 53.4C83.8843 53.9547 83.4629 54.3813 82.9083 54.68C82.3536 54.968 81.7456 55.112 81.0843 55.112ZM93.2069 46.36C93.8895 46.36 94.4975 46.4933 95.0309 46.76C95.5749 47.0267 96.0015 47.4373 96.3109 47.992C96.6202 48.536 96.7749 49.24 96.7749 50.104V55H94.7749V50.36C94.7749 49.6027 94.5935 49.0373 94.2309 48.664C93.8789 48.2907 93.3829 48.104 92.7429 48.104C92.2735 48.104 91.8575 48.2 91.4949 48.392C91.1322 48.584 90.8495 48.872 90.6469 49.256C90.4549 49.6293 90.3589 50.104 90.3589 50.68V55H88.3589V46.456H90.2629V48.76L89.9269 48.056C90.2255 47.512 90.6575 47.096 91.2229 46.808C91.7989 46.5093 92.4602 46.36 93.2069 46.36ZM102.528 55.112C101.589 55.112 100.864 54.872 100.352 54.392C99.84 53.9013 99.584 53.1813 99.584 52.232V44.568H101.584V52.184C101.584 52.5893 101.685 52.904 101.888 53.128C102.101 53.352 102.395 53.464 102.768 53.464C103.216 53.464 103.589 53.3467 103.888 53.112L104.448 54.536C104.213 54.728 103.925 54.872 103.584 54.968C103.243 55.064 102.891 55.112 102.528 55.112ZM98.176 48.12V46.52H103.872V48.12H98.176ZM106.733 49.016C106.371 49.016 106.061 48.8933 105.805 48.648C105.549 48.392 105.421 48.072 105.421 47.688C105.421 47.2827 105.549 46.9627 105.805 46.728C106.061 46.4827 106.371 46.36 106.733 46.36C107.096 46.36 107.405 46.4827 107.661 46.728C107.917 46.9627 108.045 47.2827 108.045 47.688C108.045 48.072 107.917 48.392 107.661 48.648C107.405 48.8933 107.096 49.016 106.733 49.016ZM106.733 55.112C106.371 55.112 106.061 54.9893 105.805 54.744C105.549 54.488 105.421 54.168 105.421 53.784C105.421 53.3787 105.549 53.0587 105.805 52.824C106.061 52.5787 106.371 52.456 106.733 52.456C107.096 52.456 107.405 52.5787 107.661 52.824C107.917 53.0587 108.045 53.3787 108.045 53.784C108.045 54.168 107.917 54.488 107.661 54.744C107.405 54.9893 107.096 55.112 106.733 55.112ZM119.429 55.16C117.893 55.16 116.688 54.728 115.813 53.864C114.949 53 114.517 51.752 114.517 50.12V43.8H116.597V50.04C116.597 51.192 116.843 52.0293 117.333 52.552C117.835 53.0747 118.539 53.336 119.445 53.336C120.352 53.336 121.051 53.0747 121.541 52.552C122.032 52.0293 122.277 51.192 122.277 50.04V43.8H124.325V50.12C124.325 51.752 123.888 53 123.013 53.864C122.149 54.728 120.955 55.16 119.429 55.16ZM131.654 55.08C130.929 55.08 130.273 54.9147 129.686 54.584C129.1 54.2427 128.63 53.7573 128.278 53.128C127.937 52.488 127.766 51.7093 127.766 50.792C127.766 49.8747 127.937 49.1013 128.278 48.472C128.62 47.832 129.084 47.3467 129.67 47.016C130.257 46.6853 130.918 46.52 131.654 46.52C132.454 46.52 133.169 46.7013 133.798 47.064C134.438 47.416 134.94 47.9173 135.302 48.568C135.665 49.208 135.846 49.9493 135.846 50.792C135.846 51.6453 135.665 52.392 135.302 53.032C134.94 53.672 134.438 54.1733 133.798 54.536C133.169 54.8987 132.454 55.08 131.654 55.08ZM127.318 58.104V46.6H128.406V49.128L128.294 50.808L128.454 52.504V58.104H127.318ZM131.574 54.072C132.172 54.072 132.705 53.9387 133.174 53.672C133.644 53.3947 134.017 53.0107 134.294 52.52C134.572 52.0187 134.71 51.4427 134.71 50.792C134.71 50.1413 134.572 49.5707 134.294 49.08C134.017 48.5893 133.644 48.2053 133.174 47.928C132.705 47.6507 132.172 47.512 131.574 47.512C130.977 47.512 130.438 47.6507 129.958 47.928C129.489 48.2053 129.116 48.5893 128.838 49.08C128.572 49.5707 128.438 50.1413 128.438 50.792C128.438 51.4427 128.572 52.0187 128.838 52.52C129.116 53.0107 129.489 53.3947 129.958 53.672C130.438 53.9387 130.977 54.072 131.574 54.072ZM145.006 55.08C144.216 55.08 143.608 54.8667 143.182 54.44C142.755 54.0133 142.542 53.4107 142.542 52.632V44.744H143.678V52.568C143.678 53.0587 143.8 53.4373 144.046 53.704C144.302 53.9707 144.664 54.104 145.134 54.104C145.635 54.104 146.051 53.96 146.382 53.672L146.782 54.488C146.558 54.6907 146.286 54.84 145.966 54.936C145.656 55.032 145.336 55.08 145.006 55.08ZM141.038 47.544V46.6H146.238V47.544H141.038ZM151.977 55.08C151.166 55.08 150.435 54.8987 149.785 54.536C149.145 54.1627 148.638 53.656 148.265 53.016C147.891 52.3653 147.705 51.624 147.705 50.792C147.705 49.9493 147.891 49.208 148.265 48.568C148.638 47.928 149.145 47.4267 149.785 47.064C150.425 46.7013 151.155 46.52 151.977 46.52C152.809 46.52 153.545 46.7013 154.185 47.064C154.835 47.4267 155.342 47.928 155.705 48.568C156.078 49.208 156.265 49.9493 156.265 50.792C156.265 51.624 156.078 52.3653 155.705 53.016C155.342 53.656 154.835 54.1627 154.185 54.536C153.534 54.8987 152.798 55.08 151.977 55.08ZM151.977 54.072C152.585 54.072 153.123 53.9387 153.593 53.672C154.062 53.3947 154.43 53.0107 154.697 52.52C154.974 52.0187 155.113 51.4427 155.113 50.792C155.113 50.1307 154.974 49.5547 154.697 49.064C154.43 48.5733 154.062 48.1947 153.593 47.928C153.123 47.6507 152.59 47.512 151.993 47.512C151.395 47.512 150.862 47.6507 150.393 47.928C149.923 48.1947 149.55 48.5733 149.273 49.064C148.995 49.5547 148.857 50.1307 148.857 50.792C148.857 51.4427 148.995 52.0187 149.273 52.52C149.55 53.0107 149.923 53.3947 150.393 53.672C150.862 53.9387 151.39 54.072 151.977 54.072ZM163.972 55V44.28L164.484 44.824H161.332V43.8H165.124V55H163.972ZM167.865 57.336L168.569 54.376L168.697 55.064C168.451 55.064 168.243 54.984 168.073 54.824C167.913 54.664 167.833 54.456 167.833 54.2C167.833 53.944 167.913 53.736 168.073 53.576C168.243 53.416 168.446 53.336 168.681 53.336C168.926 53.336 169.123 53.4213 169.273 53.592C169.433 53.7627 169.513 53.9653 169.513 54.2C169.513 54.2853 169.507 54.3707 169.497 54.456C169.486 54.5413 169.465 54.6373 169.433 54.744C169.401 54.8507 169.358 54.9787 169.305 55.128L168.633 57.336H167.865ZM175.484 55.096C174.62 55.096 173.852 54.872 173.18 54.424C172.508 53.9653 171.98 53.3147 171.596 52.472C171.212 51.6187 171.02 50.5947 171.02 49.4C171.02 48.2053 171.212 47.1867 171.596 46.344C171.98 45.4907 172.508 44.84 173.18 44.392C173.852 43.9333 174.62 43.704 175.484 43.704C176.348 43.704 177.116 43.9333 177.788 44.392C178.46 44.84 178.988 45.4907 179.372 46.344C179.766 47.1867 179.964 48.2053 179.964 49.4C179.964 50.5947 179.766 51.6187 179.372 52.472C178.988 53.3147 178.46 53.9653 177.788 54.424C177.116 54.872 176.348 55.096 175.484 55.096ZM175.484 54.04C176.145 54.04 176.721 53.864 177.212 53.512C177.702 53.1493 178.086 52.6267 178.364 51.944C178.641 51.2507 178.78 50.4027 178.78 49.4C178.78 48.3973 178.641 47.5547 178.364 46.872C178.086 46.1787 177.702 45.656 177.212 45.304C176.721 44.9413 176.145 44.76 175.484 44.76C174.844 44.76 174.273 44.9413 173.772 45.304C173.27 45.656 172.881 46.1787 172.604 46.872C172.326 47.5547 172.188 48.3973 172.188 49.4C172.188 50.4027 172.326 51.2507 172.604 51.944C172.881 52.6267 173.27 53.1493 173.772 53.512C174.273 53.864 174.844 54.04 175.484 54.04ZM186.077 55.096C185.213 55.096 184.445 54.872 183.773 54.424C183.101 53.9653 182.573 53.3147 182.189 52.472C181.805 51.6187 181.613 50.5947 181.613 49.4C181.613 48.2053 181.805 47.1867 182.189 46.344C182.573 45.4907 183.101 44.84 183.773 44.392C184.445 43.9333 185.213 43.704 186.077 43.704C186.941 43.704 187.709 43.9333 188.381 44.392C189.053 44.84 189.581 45.4907 189.965 46.344C190.36 47.1867 190.557 48.2053 190.557 49.4C190.557 50.5947 190.36 51.6187 189.965 52.472C189.581 53.3147 189.053 53.9653 188.381 54.424C187.709 54.872 186.941 55.096 186.077 55.096ZM186.077 54.04C186.739 54.04 187.315 53.864 187.805 53.512C188.296 53.1493 188.68 52.6267 188.957 51.944C189.235 51.2507 189.373 50.4027 189.373 49.4C189.373 48.3973 189.235 47.5547 188.957 46.872C188.68 46.1787 188.296 45.656 187.805 45.304C187.315 44.9413 186.739 44.76 186.077 44.76C185.437 44.76 184.867 44.9413 184.365 45.304C183.864 45.656 183.475 46.1787 183.197 46.872C182.92 47.5547 182.781 48.3973 182.781 49.4C182.781 50.4027 182.92 51.2507 183.197 51.944C183.475 52.6267 183.864 53.1493 184.365 53.512C184.867 53.864 185.437 54.04 186.077 54.04ZM196.671 55.096C195.807 55.096 195.039 54.872 194.367 54.424C193.695 53.9653 193.167 53.3147 192.783 52.472C192.399 51.6187 192.207 50.5947 192.207 49.4C192.207 48.2053 192.399 47.1867 192.783 46.344C193.167 45.4907 193.695 44.84 194.367 44.392C195.039 43.9333 195.807 43.704 196.671 43.704C197.535 43.704 198.303 43.9333 198.975 44.392C199.647 44.84 200.175 45.4907 200.559 46.344C200.954 47.1867 201.151 48.2053 201.151 49.4C201.151 50.5947 200.954 51.6187 200.559 52.472C200.175 53.3147 199.647 53.9653 198.975 54.424C198.303 54.872 197.535 55.096 196.671 55.096ZM196.671 54.04C197.332 54.04 197.908 53.864 198.399 53.512C198.89 53.1493 199.274 52.6267 199.551 51.944C199.828 51.2507 199.967 50.4027 199.967 49.4C199.967 48.3973 199.828 47.5547 199.551 46.872C199.274 46.1787 198.89 45.656 198.399 45.304C197.908 44.9413 197.332 44.76 196.671 44.76C196.031 44.76 195.46 44.9413 194.959 45.304C194.458 45.656 194.068 46.1787 193.791 46.872C193.514 47.5547 193.375 48.3973 193.375 49.4C193.375 50.4027 193.514 51.2507 193.791 51.944C194.068 52.6267 194.458 53.1493 194.959 53.512C195.46 53.864 196.031 54.04 196.671 54.04ZM207.116 51.16V50.168H211.308V51.16H207.116ZM219.237 55V44.28L219.749 44.824H216.597V43.8H220.389V55H219.237ZM227.53 55.096C226.666 55.096 225.898 54.872 225.226 54.424C224.554 53.9653 224.026 53.3147 223.642 52.472C223.258 51.6187 223.066 50.5947 223.066 49.4C223.066 48.2053 223.258 47.1867 223.642 46.344C224.026 45.4907 224.554 44.84 225.226 44.392C225.898 43.9333 226.666 43.704 227.53 43.704C228.394 43.704 229.162 43.9333 229.834 44.392C230.506 44.84 231.034 45.4907 231.418 46.344C231.813 47.1867 232.01 48.2053 232.01 49.4C232.01 50.5947 231.813 51.6187 231.418 52.472C231.034 53.3147 230.506 53.9653 229.834 54.424C229.162 54.872 228.394 55.096 227.53 55.096ZM227.53 54.04C228.192 54.04 228.768 53.864 229.258 53.512C229.749 53.1493 230.133 52.6267 230.41 51.944C230.688 51.2507 230.826 50.4027 230.826 49.4C230.826 48.3973 230.688 47.5547 230.41 46.872C230.133 46.1787 229.749 45.656 229.258 45.304C228.768 44.9413 228.192 44.76 227.53 44.76C226.89 44.76 226.32 44.9413 225.818 45.304C225.317 45.656 224.928 46.1787 224.65 46.872C224.373 47.5547 224.234 48.3973 224.234 49.4C224.234 50.4027 224.373 51.2507 224.65 51.944C224.928 52.6267 225.317 53.1493 225.818 53.512C226.32 53.864 226.89 54.04 227.53 54.04ZM238.124 55.096C237.26 55.096 236.492 54.872 235.82 54.424C235.148 53.9653 234.62 53.3147 234.236 52.472C233.852 51.6187 233.66 50.5947 233.66 49.4C233.66 48.2053 233.852 47.1867 234.236 46.344C234.62 45.4907 235.148 44.84 235.82 44.392C236.492 43.9333 237.26 43.704 238.124 43.704C238.988 43.704 239.756 43.9333 240.428 44.392C241.1 44.84 241.628 45.4907 242.012 46.344C242.407 47.1867 242.604 48.2053 242.604 49.4C242.604 50.5947 242.407 51.6187 242.012 52.472C241.628 53.3147 241.1 53.9653 240.428 54.424C239.756 54.872 238.988 55.096 238.124 55.096ZM238.124 54.04C238.785 54.04 239.361 53.864 239.852 53.512C240.343 53.1493 240.727 52.6267 241.004 51.944C241.281 51.2507 241.42 50.4027 241.42 49.4C241.42 48.3973 241.281 47.5547 241.004 46.872C240.727 46.1787 240.343 45.656 239.852 45.304C239.361 44.9413 238.785 44.76 238.124 44.76C237.484 44.76 236.913 44.9413 236.412 45.304C235.911 45.656 235.521 46.1787 235.244 46.872C234.967 47.5547 234.828 48.3973 234.828 49.4C234.828 50.4027 234.967 51.2507 235.244 51.944C235.521 52.6267 235.911 53.1493 236.412 53.512C236.913 53.864 237.484 54.04 238.124 54.04ZM244.146 57.336L244.85 54.376L244.978 55.064C244.733 55.064 244.525 54.984 244.354 54.824C244.194 54.664 244.114 54.456 244.114 54.2C244.114 53.944 244.194 53.736 244.354 53.576C244.525 53.416 244.727 53.336 244.962 53.336C245.207 53.336 245.405 53.4213 245.554 53.592C245.714 53.7627 245.794 53.9653 245.794 54.2C245.794 54.2853 245.789 54.3707 245.778 54.456C245.767 54.5413 245.746 54.6373 245.714 54.744C245.682 54.8507 245.639 54.9787 245.586 55.128L244.914 57.336H244.146ZM251.765 55.096C250.901 55.096 250.133 54.872 249.461 54.424C248.789 53.9653 248.261 53.3147 247.877 52.472C247.493 51.6187 247.301 50.5947 247.301 49.4C247.301 48.2053 247.493 47.1867 247.877 46.344C248.261 45.4907 248.789 44.84 249.461 44.392C250.133 43.9333 250.901 43.704 251.765 43.704C252.629 43.704 253.397 43.9333 254.069 44.392C254.741 44.84 255.269 45.4907 255.653 46.344C256.047 47.1867 256.245 48.2053 256.245 49.4C256.245 50.5947 256.047 51.6187 255.653 52.472C255.269 53.3147 254.741 53.9653 254.069 54.424C253.397 54.872 252.629 55.096 251.765 55.096ZM251.765 54.04C252.426 54.04 253.002 53.864 253.493 53.512C253.983 53.1493 254.367 52.6267 254.645 51.944C254.922 51.2507 255.061 50.4027 255.061 49.4C255.061 48.3973 254.922 47.5547 254.645 46.872C254.367 46.1787 253.983 45.656 253.493 45.304C253.002 44.9413 252.426 44.76 251.765 44.76C251.125 44.76 250.554 44.9413 250.053 45.304C249.551 45.656 249.162 46.1787 248.885 46.872C248.607 47.5547 248.469 48.3973 248.469 49.4C248.469 50.4027 248.607 51.2507 248.885 51.944C249.162 52.6267 249.551 53.1493 250.053 53.512C250.554 53.864 251.125 54.04 251.765 54.04ZM262.359 55.096C261.495 55.096 260.727 54.872 260.055 54.424C259.383 53.9653 258.855 53.3147 258.471 52.472C258.087 51.6187 257.895 50.5947 257.895 49.4C257.895 48.2053 258.087 47.1867 258.471 46.344C258.855 45.4907 259.383 44.84 260.055 44.392C260.727 43.9333 261.495 43.704 262.359 43.704C263.223 43.704 263.991 43.9333 264.663 44.392C265.335 44.84 265.863 45.4907 266.247 46.344C266.641 47.1867 266.839 48.2053 266.839 49.4C266.839 50.5947 266.641 51.6187 266.247 52.472C265.863 53.3147 265.335 53.9653 264.663 54.424C263.991 54.872 263.223 55.096 262.359 55.096ZM262.359 54.04C263.02 54.04 263.596 53.864 264.087 53.512C264.577 53.1493 264.961 52.6267 265.239 51.944C265.516 51.2507 265.655 50.4027 265.655 49.4C265.655 48.3973 265.516 47.5547 265.239 46.872C264.961 46.1787 264.577 45.656 264.087 45.304C263.596 44.9413 263.02 44.76 262.359 44.76C261.719 44.76 261.148 44.9413 260.647 45.304C260.145 45.656 259.756 46.1787 259.479 46.872C259.201 47.5547 259.062 48.3973 259.062 49.4C259.062 50.4027 259.201 51.2507 259.479 51.944C259.756 52.6267 260.145 53.1493 260.647 53.512C261.148 53.864 261.719 54.04 262.359 54.04ZM272.952 55.096C272.088 55.096 271.32 54.872 270.648 54.424C269.976 53.9653 269.448 53.3147 269.064 52.472C268.68 51.6187 268.488 50.5947 268.488 49.4C268.488 48.2053 268.68 47.1867 269.064 46.344C269.448 45.4907 269.976 44.84 270.648 44.392C271.32 43.9333 272.088 43.704 272.952 43.704C273.816 43.704 274.584 43.9333 275.256 44.392C275.928 44.84 276.456 45.4907 276.84 46.344C277.235 47.1867 277.432 48.2053 277.432 49.4C277.432 50.5947 277.235 51.6187 276.84 52.472C276.456 53.3147 275.928 53.9653 275.256 54.424C274.584 54.872 273.816 55.096 272.952 55.096ZM272.952 54.04C273.614 54.04 274.19 53.864 274.68 53.512C275.171 53.1493 275.555 52.6267 275.832 51.944C276.11 51.2507 276.248 50.4027 276.248 49.4C276.248 48.3973 276.11 47.5547 275.832 46.872C275.555 46.1787 275.171 45.656 274.68 45.304C274.19 44.9413 273.614 44.76 272.952 44.76C272.312 44.76 271.742 44.9413 271.24 45.304C270.739 45.656 270.35 46.1787 270.072 46.872C269.795 47.5547 269.656 48.3973 269.656 49.4C269.656 50.4027 269.795 51.2507 270.072 51.944C270.35 52.6267 270.739 53.1493 271.24 53.512C271.742 53.864 272.312 54.04 272.952 54.04ZM282.471 52.792V46.008H283.479V52.792H282.471ZM279.495 49.88V48.936H286.455V49.88H279.495ZM298.102 55.096C296.672 55.096 295.547 54.6853 294.726 53.864C293.904 53.0427 293.494 51.8267 293.494 50.216V43.8H294.678V50.168C294.678 51.4907 294.976 52.4667 295.574 53.096C296.171 53.7253 297.014 54.04 298.102 54.04C299.2 54.04 300.048 53.7253 300.646 53.096C301.243 52.4667 301.542 51.4907 301.542 50.168V43.8H302.694V50.216C302.694 51.8267 302.283 53.0427 301.462 53.864C300.651 54.6853 299.531 55.096 298.102 55.096ZM309.35 55.096C308.518 55.096 307.718 54.9627 306.95 54.696C306.192 54.4187 305.606 54.0667 305.19 53.64L305.654 52.728C306.048 53.112 306.576 53.4373 307.238 53.704C307.91 53.96 308.614 54.088 309.35 54.088C310.054 54.088 310.624 54.0027 311.062 53.832C311.51 53.6507 311.835 53.4107 312.038 53.112C312.251 52.8133 312.358 52.4827 312.358 52.12C312.358 51.6827 312.23 51.3307 311.974 51.064C311.728 50.7973 311.403 50.5893 310.998 50.44C310.592 50.28 310.144 50.1413 309.654 50.024C309.163 49.9067 308.672 49.784 308.182 49.656C307.691 49.5173 307.238 49.336 306.822 49.112C306.416 48.888 306.086 48.5947 305.83 48.232C305.584 47.8587 305.462 47.3733 305.462 46.776C305.462 46.2213 305.606 45.7147 305.894 45.256C306.192 44.7867 306.646 44.4133 307.254 44.136C307.862 43.848 308.64 43.704 309.59 43.704C310.219 43.704 310.843 43.7947 311.462 43.976C312.08 44.1467 312.614 44.3867 313.062 44.696L312.661 45.64C312.182 45.32 311.67 45.0853 311.126 44.936C310.592 44.7867 310.075 44.712 309.574 44.712C308.902 44.712 308.347 44.8027 307.91 44.984C307.472 45.1653 307.147 45.4107 306.934 45.72C306.731 46.0187 306.63 46.36 306.63 46.744C306.63 47.1813 306.752 47.5333 306.998 47.8C307.254 48.0667 307.584 48.2747 307.99 48.424C308.406 48.5733 308.859 48.7067 309.35 48.824C309.84 48.9413 310.326 49.0693 310.806 49.208C311.296 49.3467 311.744 49.528 312.15 49.752C312.566 49.9653 312.896 50.2533 313.142 50.616C313.398 50.9787 313.526 51.4533 313.526 52.04C313.526 52.584 313.376 53.0907 313.078 53.56C312.779 54.0187 312.32 54.392 311.702 54.68C311.094 54.9573 310.31 55.096 309.35 55.096ZM316.105 55V43.8H320.665C321.86 43.8 322.905 44.04 323.801 44.52C324.708 44.9893 325.412 45.6453 325.913 46.488C326.415 47.3307 326.665 48.3013 326.665 49.4C326.665 50.4987 326.415 51.4693 325.913 52.312C325.412 53.1547 324.708 53.816 323.801 54.296C322.905 54.7653 321.86 55 320.665 55H316.105ZM317.289 53.976H320.601C321.593 53.976 322.452 53.784 323.177 53.4C323.913 53.0053 324.484 52.4667 324.889 51.784C325.295 51.0907 325.497 50.296 325.497 49.4C325.497 48.4933 325.295 47.6987 324.889 47.016C324.484 46.3333 323.913 45.8 323.177 45.416C322.452 45.0213 321.593 44.824 320.601 44.824H317.289V53.976Z" fill="#F1EAE1"/>
<path d="M36.92 87L41.96 75.8H44.008L49.064 87H46.888L42.552 76.904H43.384L39.064 87H36.92ZM39.24 84.408L39.8 82.776H45.848L46.408 84.408H39.24ZM55.0324 87.112C54.339 87.112 53.7044 86.952 53.1284 86.632C52.563 86.312 52.1097 85.832 51.7684 85.192C51.4377 84.5413 51.2724 83.72 51.2724 82.728C51.2724 81.7253 51.4324 80.904 51.7524 80.264C52.083 79.624 52.531 79.1493 53.0964 78.84C53.6617 78.52 54.307 78.36 55.0324 78.36C55.875 78.36 56.6164 78.5413 57.2564 78.904C57.907 79.2667 58.419 79.7733 58.7924 80.424C59.1764 81.0747 59.3684 81.8427 59.3684 82.728C59.3684 83.6133 59.1764 84.3867 58.7924 85.048C58.419 85.6987 57.907 86.2053 57.2564 86.568C56.6164 86.9307 55.875 87.112 55.0324 87.112ZM50.2964 90.104V78.456H52.2004V80.472L52.1364 82.744L52.2964 85.016V90.104H50.2964ZM54.8084 85.4C55.2884 85.4 55.715 85.2933 56.0884 85.08C56.4724 84.8667 56.7764 84.5573 57.0004 84.152C57.2244 83.7467 57.3364 83.272 57.3364 82.728C57.3364 82.1733 57.2244 81.6987 57.0004 81.304C56.7764 80.8987 56.4724 80.5893 56.0884 80.376C55.715 80.1627 55.2884 80.056 54.8084 80.056C54.3284 80.056 53.8964 80.1627 53.5124 80.376C53.1284 80.5893 52.8244 80.8987 52.6004 81.304C52.3764 81.6987 52.2644 82.1733 52.2644 82.728C52.2644 83.272 52.3764 83.7467 52.6004 84.152C52.8244 84.5573 53.1284 84.8667 53.5124 85.08C53.8964 85.2933 54.3284 85.4 54.8084 85.4ZM66.0011 87.112C65.3078 87.112 64.6731 86.952 64.0971 86.632C63.5318 86.312 63.0785 85.832 62.7371 85.192C62.4065 84.5413 62.2411 83.72 62.2411 82.728C62.2411 81.7253 62.4011 80.904 62.7211 80.264C63.0518 79.624 63.4998 79.1493 64.0651 78.84C64.6305 78.52 65.2758 78.36 66.0011 78.36C66.8438 78.36 67.5851 78.5413 68.2251 78.904C68.8758 79.2667 69.3878 79.7733 69.7611 80.424C70.1451 81.0747 70.3371 81.8427 70.3371 82.728C70.3371 83.6133 70.1451 84.3867 69.7611 85.048C69.3878 85.6987 68.8758 86.2053 68.2251 86.568C67.5851 86.9307 66.8438 87.112 66.0011 87.112ZM61.2651 90.104V78.456H63.1691V80.472L63.1051 82.744L63.2651 85.016V90.104H61.2651ZM65.7771 85.4C66.2571 85.4 66.6838 85.2933 67.0571 85.08C67.4411 84.8667 67.7451 84.5573 67.9691 84.152C68.1931 83.7467 68.3051 83.272 68.3051 82.728C68.3051 82.1733 68.1931 81.6987 67.9691 81.304C67.7451 80.8987 67.4411 80.5893 67.0571 80.376C66.6838 80.1627 66.2571 80.056 65.7771 80.056C65.2971 80.056 64.8651 80.1627 64.4811 80.376C64.0971 80.5893 63.7931 80.8987 63.5691 81.304C63.3451 81.6987 63.2331 82.1733 63.2331 82.728C63.2331 83.272 63.3451 83.7467 63.5691 84.152C63.7931 84.5573 64.0971 84.8667 64.4811 85.08C64.8651 85.2933 65.2971 85.4 65.7771 85.4ZM72.2339 87V75.128H74.2339V87H72.2339ZM76.8589 87V78.456H78.8589V87H76.8589ZM77.8669 77.048C77.4935 77.048 77.1842 76.9307 76.9389 76.696C76.7042 76.4613 76.5869 76.1787 76.5869 75.848C76.5869 75.5067 76.7042 75.224 76.9389 75C77.1842 74.7653 77.4935 74.648 77.8669 74.648C78.2402 74.648 78.5442 74.76 78.7789 74.984C79.0242 75.1973 79.1469 75.4693 79.1469 75.8C79.1469 76.152 79.0295 76.4507 78.7949 76.696C78.5602 76.9307 78.2509 77.048 77.8669 77.048ZM85.4039 87.112C84.5079 87.112 83.7079 86.9253 83.0039 86.552C82.3105 86.168 81.7665 85.6453 81.3719 84.984C80.9772 84.3227 80.7799 83.5707 80.7799 82.728C80.7799 81.8747 80.9772 81.1227 81.3719 80.472C81.7665 79.8107 82.3105 79.2933 83.0039 78.92C83.7079 78.5467 84.5079 78.36 85.4039 78.36C86.2359 78.36 86.9665 78.5307 87.5959 78.872C88.2359 79.2027 88.7212 79.6933 89.0519 80.344L87.5159 81.24C87.2599 80.8347 86.9452 80.536 86.5719 80.344C86.2092 80.152 85.8145 80.056 85.3879 80.056C84.8972 80.056 84.4545 80.1627 84.0599 80.376C83.6652 80.5893 83.3559 80.8987 83.1319 81.304C82.9079 81.6987 82.7959 82.1733 82.7959 82.728C82.7959 83.2827 82.9079 83.7627 83.1319 84.168C83.3559 84.5627 83.6652 84.8667 84.0599 85.08C84.4545 85.2933 84.8972 85.4 85.3879 85.4C85.8145 85.4 86.2092 85.304 86.5719 85.112C86.9452 84.92 87.2599 84.6213 87.5159 84.216L89.0519 85.112C88.7212 85.752 88.2359 86.248 87.5959 86.6C86.9665 86.9413 86.2359 87.112 85.4039 87.112ZM96.0448 87V85.272L95.9328 84.904V81.88C95.9328 81.2933 95.7568 80.84 95.4048 80.52C95.0528 80.1893 94.5194 80.024 93.8048 80.024C93.3248 80.024 92.8501 80.0987 92.3808 80.248C91.9221 80.3973 91.5328 80.6053 91.2128 80.872L90.4288 79.416C90.8874 79.064 91.4314 78.8027 92.0608 78.632C92.7008 78.4507 93.3621 78.36 94.0448 78.36C95.2821 78.36 96.2368 78.6587 96.9088 79.256C97.5914 79.8427 97.9328 80.7547 97.9328 81.992V87H96.0448ZM93.3568 87.112C92.7168 87.112 92.1568 87.0053 91.6768 86.792C91.1968 86.568 90.8234 86.264 90.5568 85.88C90.3008 85.4853 90.1728 85.0427 90.1728 84.552C90.1728 84.072 90.2848 83.64 90.5088 83.256C90.7434 82.872 91.1221 82.568 91.6448 82.344C92.1674 82.12 92.8608 82.008 93.7248 82.008H96.2048V83.336H93.8688C93.1861 83.336 92.7274 83.448 92.4928 83.672C92.2581 83.8853 92.1408 84.152 92.1408 84.472C92.1408 84.8347 92.2848 85.1227 92.5728 85.336C92.8608 85.5493 93.2608 85.656 93.7728 85.656C94.2634 85.656 94.7008 85.544 95.0848 85.32C95.4794 85.096 95.7621 84.7653 95.9328 84.328L96.2688 85.528C96.0768 86.0293 95.7301 86.4187 95.2288 86.696C94.7381 86.9733 94.1141 87.112 93.3568 87.112ZM103.716 87.112C102.777 87.112 102.052 86.872 101.539 86.392C101.028 85.9013 100.772 85.1813 100.772 84.232V76.568H102.772V84.184C102.772 84.5893 102.873 84.904 103.076 85.128C103.289 85.352 103.582 85.464 103.956 85.464C104.404 85.464 104.777 85.3467 105.076 85.112L105.636 86.536C105.401 86.728 105.113 86.872 104.772 86.968C104.43 87.064 104.078 87.112 103.716 87.112ZM99.3635 80.12V78.52H105.06V80.12H99.3635ZM107.281 87V78.456H109.281V87H107.281ZM108.289 77.048C107.915 77.048 107.606 76.9307 107.361 76.696C107.126 76.4613 107.009 76.1787 107.009 75.848C107.009 75.5067 107.126 75.224 107.361 75C107.606 74.7653 107.915 74.648 108.289 74.648C108.662 74.648 108.966 74.76 109.201 74.984C109.446 75.1973 109.569 75.4693 109.569 75.8C109.569 76.152 109.451 76.4507 109.217 76.696C108.982 76.9307 108.673 77.048 108.289 77.048ZM115.746 87.112C114.871 87.112 114.092 86.9253 113.41 86.552C112.727 86.168 112.188 85.6453 111.794 84.984C111.399 84.3227 111.202 83.5707 111.202 82.728C111.202 81.8747 111.399 81.1227 111.794 80.472C112.188 79.8107 112.727 79.2933 113.41 78.92C114.092 78.5467 114.871 78.36 115.746 78.36C116.631 78.36 117.415 78.5467 118.098 78.92C118.791 79.2933 119.33 79.8053 119.714 80.456C120.108 81.1067 120.306 81.864 120.306 82.728C120.306 83.5707 120.108 84.3227 119.714 84.984C119.33 85.6453 118.791 86.168 118.098 86.552C117.415 86.9253 116.631 87.112 115.746 87.112ZM115.746 85.4C116.236 85.4 116.674 85.2933 117.058 85.08C117.442 84.8667 117.74 84.5573 117.954 84.152C118.178 83.7467 118.29 83.272 118.29 82.728C118.29 82.1733 118.178 81.6987 117.954 81.304C117.74 80.8987 117.442 80.5893 117.058 80.376C116.674 80.1627 116.242 80.056 115.762 80.056C115.271 80.056 114.834 80.1627 114.45 80.376C114.076 80.5893 113.778 80.8987 113.554 81.304C113.33 81.6987 113.218 82.1733 113.218 82.728C113.218 83.272 113.33 83.7467 113.554 84.152C113.778 84.5573 114.076 84.8667 114.45 85.08C114.834 85.2933 115.266 85.4 115.746 85.4ZM127.066 78.36C127.749 78.36 128.357 78.4933 128.89 78.76C129.434 79.0267 129.861 79.4373 130.17 79.992C130.48 80.536 130.634 81.24 130.634 82.104V87H128.634V82.36C128.634 81.6027 128.453 81.0373 128.09 80.664C127.738 80.2907 127.242 80.104 126.602 80.104C126.133 80.104 125.717 80.2 125.354 80.392C124.992 80.584 124.709 80.872 124.506 81.256C124.314 81.6293 124.218 82.104 124.218 82.68V87H122.218V78.456H124.122V80.76L123.786 80.056C124.085 79.512 124.517 79.096 125.082 78.808C125.658 78.5093 126.32 78.36 127.066 78.36ZM135.811 87.112C135.097 87.112 134.409 87.0213 133.747 86.84C133.097 86.648 132.579 86.4187 132.195 86.152L132.963 84.632C133.347 84.8773 133.806 85.08 134.339 85.24C134.873 85.4 135.406 85.48 135.939 85.48C136.569 85.48 137.022 85.3947 137.299 85.224C137.587 85.0533 137.731 84.824 137.731 84.536C137.731 84.3013 137.635 84.1253 137.443 84.008C137.251 83.88 137.001 83.784 136.691 83.72C136.382 83.656 136.035 83.5973 135.651 83.544C135.278 83.4907 134.899 83.4213 134.515 83.336C134.142 83.24 133.801 83.1067 133.491 82.936C133.182 82.7547 132.931 82.5147 132.739 82.216C132.547 81.9173 132.451 81.5227 132.451 81.032C132.451 80.488 132.606 80.0187 132.915 79.624C133.225 79.2187 133.657 78.9093 134.211 78.696C134.777 78.472 135.443 78.36 136.211 78.36C136.787 78.36 137.369 78.424 137.955 78.552C138.542 78.68 139.027 78.8613 139.411 79.096L138.643 80.616C138.238 80.3707 137.827 80.2053 137.411 80.12C137.006 80.024 136.601 79.976 136.195 79.976C135.587 79.976 135.134 80.0667 134.835 80.248C134.547 80.4293 134.403 80.6587 134.403 80.936C134.403 81.192 134.499 81.384 134.691 81.512C134.883 81.64 135.134 81.7413 135.443 81.816C135.753 81.8907 136.094 81.9547 136.467 82.008C136.851 82.0507 137.23 82.12 137.603 82.216C137.977 82.312 138.318 82.4453 138.627 82.616C138.947 82.776 139.203 83.0053 139.395 83.304C139.587 83.6027 139.683 83.992 139.683 84.472C139.683 85.0053 139.523 85.4693 139.203 85.864C138.894 86.2587 138.451 86.568 137.875 86.792C137.299 87.0053 136.611 87.112 135.811 87.112ZM142.046 81.016C141.683 81.016 141.374 80.8933 141.118 80.648C140.862 80.392 140.734 80.072 140.734 79.688C140.734 79.2827 140.862 78.9627 141.118 78.728C141.374 78.4827 141.683 78.36 142.046 78.36C142.408 78.36 142.718 78.4827 142.974 78.728C143.23 78.9627 143.358 79.2827 143.358 79.688C143.358 80.072 143.23 80.392 142.974 80.648C142.718 80.8933 142.408 81.016 142.046 81.016ZM142.046 87.112C141.683 87.112 141.374 86.9893 141.118 86.744C140.862 86.488 140.734 86.168 140.734 85.784C140.734 85.3787 140.862 85.0587 141.118 84.824C141.374 84.5787 141.683 84.456 142.046 84.456C142.408 84.456 142.718 84.5787 142.974 84.824C143.23 85.0587 143.358 85.3787 143.358 85.784C143.358 86.168 143.23 86.488 142.974 86.744C142.718 86.9893 142.408 87.112 142.046 87.112ZM155.142 87.096C154.299 87.096 153.515 86.9573 152.79 86.68C152.075 86.392 151.451 85.992 150.918 85.48C150.395 84.9573 149.985 84.3547 149.686 83.672C149.398 82.9787 149.254 82.2213 149.254 81.4C149.254 80.5787 149.398 79.8267 149.686 79.144C149.985 78.4507 150.395 77.848 150.918 77.336C151.451 76.8133 152.075 76.4133 152.79 76.136C153.505 75.848 154.289 75.704 155.142 75.704C155.985 75.704 156.763 75.848 157.478 76.136C158.193 76.4133 158.811 76.808 159.334 77.32C159.867 77.832 160.278 78.4347 160.566 79.128C160.865 79.8213 161.014 80.5787 161.014 81.4C161.014 82.2213 160.865 82.9787 160.566 83.672C160.278 84.3653 159.867 84.968 159.334 85.48C158.811 85.992 158.193 86.392 157.478 86.68C156.763 86.9573 155.985 87.096 155.142 87.096ZM155.142 86.04C155.814 86.04 156.433 85.928 156.998 85.704C157.574 85.4693 158.07 85.144 158.486 84.728C158.913 84.3013 159.243 83.8107 159.478 83.256C159.713 82.6907 159.83 82.072 159.83 81.4C159.83 80.728 159.713 80.1147 159.478 79.56C159.243 78.9947 158.913 78.504 158.486 78.088C158.07 77.6613 157.574 77.336 156.998 77.112C156.433 76.8773 155.814 76.76 155.142 76.76C154.47 76.76 153.846 76.8773 153.27 77.112C152.694 77.336 152.193 77.6613 151.766 78.088C151.35 78.504 151.019 78.9947 150.774 79.56C150.539 80.1147 150.422 80.728 150.422 81.4C150.422 82.0613 150.539 82.6747 150.774 83.24C151.019 83.8053 151.35 84.3013 151.766 84.728C152.193 85.144 152.694 85.4693 153.27 85.704C153.846 85.928 154.47 86.04 155.142 86.04ZM167.716 78.52C168.398 78.52 168.996 78.6533 169.508 78.92C170.03 79.176 170.436 79.5707 170.724 80.104C171.022 80.6373 171.172 81.3093 171.172 82.12V87H170.036V82.232C170.036 81.3467 169.812 80.68 169.364 80.232C168.926 79.7733 168.308 79.544 167.508 79.544C166.91 79.544 166.388 79.6667 165.94 79.912C165.502 80.1467 165.161 80.4933 164.916 80.952C164.681 81.4 164.564 81.944 164.564 82.584V87H163.428V78.6H164.516V80.904L164.34 80.472C164.606 79.864 165.033 79.3893 165.62 79.048C166.206 78.696 166.905 78.52 167.716 78.52ZM183.692 87V85.144L183.644 84.84V81.736C183.644 81.0213 183.441 80.472 183.036 80.088C182.641 79.704 182.049 79.512 181.26 79.512C180.716 79.512 180.198 79.6027 179.708 79.784C179.217 79.9653 178.801 80.2053 178.46 80.504L177.948 79.656C178.374 79.2933 178.886 79.016 179.484 78.824C180.081 78.6213 180.71 78.52 181.372 78.52C182.46 78.52 183.297 78.792 183.884 79.336C184.481 79.8693 184.78 80.6853 184.78 81.784V87H183.692ZM180.796 87.08C180.166 87.08 179.617 86.9787 179.148 86.776C178.689 86.5627 178.337 86.2747 178.092 85.912C177.846 85.5387 177.724 85.112 177.724 84.632C177.724 84.1947 177.825 83.8 178.028 83.448C178.241 83.0853 178.582 82.7973 179.052 82.584C179.532 82.36 180.172 82.248 180.972 82.248H183.868V83.096H181.004C180.193 83.096 179.628 83.24 179.308 83.528C178.998 83.816 178.844 84.1733 178.844 84.6C178.844 85.08 179.03 85.464 179.404 85.752C179.777 86.04 180.3 86.184 180.972 86.184C181.612 86.184 182.161 86.04 182.62 85.752C183.089 85.4533 183.43 85.0267 183.644 84.472L183.9 85.256C183.686 85.8107 183.313 86.2533 182.78 86.584C182.257 86.9147 181.596 87.08 180.796 87.08ZM192.053 87V78.6H193.141V80.888L193.029 80.488C193.263 79.848 193.658 79.3627 194.213 79.032C194.767 78.6907 195.455 78.52 196.277 78.52V79.624C196.234 79.624 196.191 79.624 196.149 79.624C196.106 79.6133 196.063 79.608 196.021 79.608C195.135 79.608 194.442 79.88 193.941 80.424C193.439 80.9573 193.189 81.72 193.189 82.712V87H192.053ZM201.696 87.08C200.885 87.08 200.154 86.8987 199.504 86.536C198.864 86.1627 198.357 85.656 197.984 85.016C197.61 84.3653 197.424 83.624 197.424 82.792C197.424 81.9493 197.61 81.208 197.984 80.568C198.357 79.928 198.864 79.4267 199.504 79.064C200.144 78.7013 200.874 78.52 201.696 78.52C202.528 78.52 203.264 78.7013 203.904 79.064C204.554 79.4267 205.061 79.928 205.424 80.568C205.797 81.208 205.984 81.9493 205.984 82.792C205.984 83.624 205.797 84.3653 205.424 85.016C205.061 85.656 204.554 86.1627 203.904 86.536C203.253 86.8987 202.517 87.08 201.696 87.08ZM201.696 86.072C202.304 86.072 202.842 85.9387 203.312 85.672C203.781 85.3947 204.149 85.0107 204.416 84.52C204.693 84.0187 204.832 83.4427 204.832 82.792C204.832 82.1307 204.693 81.5547 204.416 81.064C204.149 80.5733 203.781 80.1947 203.312 79.928C202.842 79.6507 202.309 79.512 201.712 79.512C201.114 79.512 200.581 79.6507 200.112 79.928C199.642 80.1947 199.269 80.5733 198.992 81.064C198.714 81.5547 198.576 82.1307 198.576 82.792C198.576 83.4427 198.714 84.0187 198.992 84.52C199.269 85.0107 199.642 85.3947 200.112 85.672C200.581 85.9387 201.109 86.072 201.696 86.072ZM208.303 87V75.128H209.439V87H208.303ZM212.6 87V75.128H213.736V87H212.6ZM216.897 87V78.6H218.033V87H216.897ZM217.473 76.744C217.238 76.744 217.041 76.664 216.881 76.504C216.721 76.344 216.641 76.152 216.641 75.928C216.641 75.704 216.721 75.5173 216.881 75.368C217.041 75.208 217.238 75.128 217.473 75.128C217.707 75.128 217.905 75.2027 218.065 75.352C218.225 75.5013 218.305 75.688 218.305 75.912C218.305 76.1467 218.225 76.344 218.065 76.504C217.915 76.664 217.718 76.744 217.473 76.744ZM225.481 78.52C226.164 78.52 226.761 78.6533 227.273 78.92C227.796 79.176 228.201 79.5707 228.489 80.104C228.788 80.6373 228.937 81.3093 228.937 82.12V87H227.801V82.232C227.801 81.3467 227.577 80.68 227.129 80.232C226.692 79.7733 226.073 79.544 225.273 79.544C224.676 79.544 224.153 79.6667 223.705 79.912C223.268 80.1467 222.927 80.4933 222.681 80.952C222.447 81.4 222.329 81.944 222.329 82.584V87H221.193V78.6H222.281V80.904L222.105 80.472C222.372 79.864 222.799 79.3893 223.385 79.048C223.972 78.696 224.671 78.52 225.481 78.52ZM235.59 90.184C234.822 90.184 234.086 90.072 233.382 89.848C232.678 89.624 232.107 89.304 231.67 88.888L232.246 88.024C232.641 88.376 233.126 88.6533 233.702 88.856C234.289 89.0693 234.907 89.176 235.558 89.176C236.625 89.176 237.409 88.9253 237.91 88.424C238.411 87.9333 238.662 87.1653 238.662 86.12V84.024L238.822 82.584L238.71 81.144V78.6H239.798V85.976C239.798 87.4267 239.441 88.488 238.726 89.16C238.022 89.8427 236.977 90.184 235.59 90.184ZM235.382 86.68C234.582 86.68 233.862 86.5093 233.222 86.168C232.582 85.816 232.075 85.3307 231.702 84.712C231.339 84.0933 231.158 83.384 231.158 82.584C231.158 81.784 231.339 81.08 231.702 80.472C232.075 79.8533 232.582 79.3733 233.222 79.032C233.862 78.6907 234.582 78.52 235.382 78.52C236.129 78.52 236.801 78.6747 237.398 78.984C237.995 79.2933 238.47 79.752 238.822 80.36C239.174 80.968 239.35 81.7093 239.35 82.584C239.35 83.4587 239.174 84.2 238.822 84.808C238.47 85.416 237.995 85.88 237.398 86.2C236.801 86.52 236.129 86.68 235.382 86.68ZM235.494 85.672C236.113 85.672 236.662 85.544 237.142 85.288C237.622 85.0213 238.001 84.6587 238.278 84.2C238.555 83.7307 238.694 83.192 238.694 82.584C238.694 81.976 238.555 81.4427 238.278 80.984C238.001 80.5253 237.622 80.168 237.142 79.912C236.662 79.6453 236.113 79.512 235.494 79.512C234.886 79.512 234.337 79.6453 233.846 79.912C233.366 80.168 232.987 80.5253 232.71 80.984C232.443 81.4427 232.31 81.976 232.31 82.584C232.31 83.192 232.443 83.7307 232.71 84.2C232.987 84.6587 233.366 85.0213 233.846 85.288C234.337 85.544 234.886 85.672 235.494 85.672ZM251.483 87.08C250.747 87.08 250.085 86.9147 249.499 86.584C248.912 86.2427 248.448 85.752 248.107 85.112C247.765 84.472 247.595 83.6987 247.595 82.792C247.595 81.8747 247.765 81.1013 248.107 80.472C248.459 79.832 248.928 79.3467 249.515 79.016C250.101 78.6853 250.757 78.52 251.483 78.52C252.283 78.52 252.997 78.7013 253.627 79.064C254.267 79.416 254.768 79.912 255.131 80.552C255.493 81.192 255.675 81.9387 255.675 82.792C255.675 83.6347 255.493 84.3813 255.131 85.032C254.768 85.672 254.267 86.1733 253.627 86.536C252.997 86.8987 252.283 87.08 251.483 87.08ZM247.147 87V75.128H248.283V81.08L248.123 82.776L248.235 84.472V87H247.147ZM251.403 86.072C252 86.072 252.533 85.9387 253.003 85.672C253.472 85.3947 253.845 85.0107 254.123 84.52C254.4 84.0187 254.539 83.4427 254.539 82.792C254.539 82.1307 254.4 81.5547 254.123 81.064C253.845 80.5733 253.472 80.1947 253.003 79.928C252.533 79.6507 252 79.512 251.403 79.512C250.805 79.512 250.267 79.6507 249.786 79.928C249.317 80.1947 248.944 80.5733 248.667 81.064C248.4 81.5547 248.267 82.1307 248.267 82.792C248.267 83.4427 248.4 84.0187 248.667 84.52C248.944 85.0107 249.317 85.3947 249.786 85.672C250.267 85.9387 250.805 86.072 251.403 86.072ZM263.207 87V85.144L263.159 84.84V81.736C263.159 81.0213 262.957 80.472 262.551 80.088C262.157 79.704 261.565 79.512 260.775 79.512C260.231 79.512 259.714 79.6027 259.223 79.784C258.733 79.9653 258.317 80.2053 257.975 80.504L257.463 79.656C257.89 79.2933 258.402 79.016 258.999 78.824C259.597 78.6213 260.226 78.52 260.887 78.52C261.975 78.52 262.813 78.792 263.399 79.336C263.997 79.8693 264.295 80.6853 264.295 81.784V87H263.207ZM260.311 87.08C259.682 87.08 259.133 86.9787 258.663 86.776C258.205 86.5627 257.853 86.2747 257.607 85.912C257.362 85.5387 257.239 85.112 257.239 84.632C257.239 84.1947 257.341 83.8 257.543 83.448C257.757 83.0853 258.098 82.7973 258.567 82.584C259.047 82.36 259.687 82.248 260.487 82.248H263.383V83.096H260.519C259.709 83.096 259.143 83.24 258.823 83.528C258.514 83.816 258.359 84.1733 258.359 84.6C258.359 85.08 258.546 85.464 258.919 85.752C259.293 86.04 259.815 86.184 260.487 86.184C261.127 86.184 261.677 86.04 262.135 85.752C262.605 85.4533 262.946 85.0267 263.159 84.472L263.415 85.256C263.202 85.8107 262.829 86.2533 262.295 86.584C261.773 86.9147 261.111 87.08 260.311 87.08ZM269.637 87.08C268.944 87.08 268.288 86.984 267.669 86.792C267.05 86.5893 266.565 86.3387 266.213 86.04L266.725 85.144C267.066 85.4 267.504 85.624 268.037 85.816C268.57 85.9973 269.13 86.088 269.717 86.088C270.517 86.088 271.093 85.9653 271.445 85.72C271.797 85.464 271.973 85.128 271.973 84.712C271.973 84.4027 271.872 84.1627 271.669 83.992C271.477 83.8107 271.221 83.6773 270.901 83.592C270.581 83.496 270.224 83.416 269.829 83.352C269.434 83.288 269.04 83.2133 268.645 83.128C268.261 83.0427 267.909 82.92 267.589 82.76C267.269 82.5893 267.008 82.36 266.805 82.072C266.613 81.784 266.517 81.4 266.517 80.92C266.517 80.4613 266.645 80.0507 266.901 79.688C267.157 79.3253 267.53 79.0427 268.021 78.84C268.522 78.6267 269.13 78.52 269.845 78.52C270.389 78.52 270.933 78.5947 271.477 78.744C272.021 78.8827 272.469 79.0693 272.821 79.304L272.325 80.216C271.952 79.96 271.552 79.7787 271.125 79.672C270.698 79.5547 270.272 79.496 269.845 79.496C269.088 79.496 268.528 79.6293 268.165 79.896C267.813 80.152 267.637 80.4827 267.637 80.888C267.637 81.208 267.733 81.4587 267.925 81.64C268.128 81.8213 268.389 81.9653 268.709 82.072C269.04 82.168 269.397 82.248 269.781 82.312C270.176 82.376 270.565 82.456 270.949 82.552C271.344 82.6373 271.701 82.76 272.021 82.92C272.352 83.0693 272.613 83.288 272.805 83.576C273.008 83.8533 273.109 84.2213 273.109 84.68C273.109 85.1707 272.97 85.5973 272.693 85.96C272.426 86.312 272.032 86.5893 271.509 86.792C270.997 86.984 270.373 87.08 269.637 87.08ZM275.193 87V78.6H276.329V87H275.193ZM275.769 76.744C275.535 76.744 275.337 76.664 275.177 76.504C275.017 76.344 274.937 76.152 274.937 75.928C274.937 75.704 275.017 75.5173 275.177 75.368C275.337 75.208 275.535 75.128 275.769 75.128C276.004 75.128 276.201 75.2027 276.361 75.352C276.521 75.5013 276.601 75.688 276.601 75.912C276.601 76.1467 276.521 76.344 276.361 76.504C276.212 76.664 276.015 76.744 275.769 76.744ZM281.746 87.08C281.053 87.08 280.397 86.984 279.778 86.792C279.16 86.5893 278.674 86.3387 278.322 86.04L278.834 85.144C279.176 85.4 279.613 85.624 280.146 85.816C280.68 85.9973 281.24 86.088 281.826 86.088C282.626 86.088 283.202 85.9653 283.554 85.72C283.906 85.464 284.082 85.128 284.082 84.712C284.082 84.4027 283.981 84.1627 283.778 83.992C283.586 83.8107 283.33 83.6773 283.01 83.592C282.69 83.496 282.333 83.416 281.938 83.352C281.544 83.288 281.149 83.2133 280.754 83.128C280.37 83.0427 280.018 82.92 279.698 82.76C279.378 82.5893 279.117 82.36 278.914 82.072C278.722 81.784 278.626 81.4 278.626 80.92C278.626 80.4613 278.754 80.0507 279.01 79.688C279.266 79.3253 279.64 79.0427 280.13 78.84C280.632 78.6267 281.24 78.52 281.954 78.52C282.498 78.52 283.042 78.5947 283.586 78.744C284.13 78.8827 284.578 79.0693 284.93 79.304L284.434 80.216C284.061 79.96 283.661 79.7787 283.234 79.672C282.808 79.5547 282.381 79.496 281.954 79.496C281.197 79.496 280.637 79.6293 280.274 79.896C279.922 80.152 279.746 80.4827 279.746 80.888C279.746 81.208 279.842 81.4587 280.034 81.64C280.237 81.8213 280.498 81.9653 280.818 82.072C281.149 82.168 281.506 82.248 281.89 82.312C282.285 82.376 282.674 82.456 283.058 82.552C283.453 82.6373 283.81 82.76 284.13 82.92C284.461 83.0693 284.722 83.288 284.914 83.576C285.117 83.8533 285.218 84.2213 285.218 84.68C285.218 85.1707 285.08 85.5973 284.802 85.96C284.536 86.312 284.141 86.5893 283.618 86.792C283.106 86.984 282.482 87.08 281.746 87.08Z" fill="#F1EAE1"/>
<defs>
<filter id="filter0_d_161_451" x="0" y="0" width="443" height="138" filterUnits="userSpaceOnUse" color-interpolation-filters="sRGB">
<feFlood flood-opacity="0" result="BackgroundImageFix"/>
<feColorMatrix in="SourceAlpha" type="matrix" values="0 0 0 0 0 0 0 0 0 0 0 0 0 0 0 0 0 0 127 0" result="hardAlpha"/>
<feOffset dy="4"/>
<feGaussianBlur stdDeviation="2"/>
<feComposite in2="hardAlpha" operator="out"/>
<feColorMatrix type="matrix" values="0 0 0 0 0 0 0 0 0 0 0 0 0 0 0 0 0 0 0.25 0"/>
<feBlend mode="normal" in2="BackgroundImageFix" result="effect1_dropShadow_161_451"/>
<feBlend mode="normal" in="SourceGraphic" in2="effect1_dropShadow_161_451" result="shape"/>
</filter>
</defs>
</svg>
