<svg width="565" height="502" viewBox="0 0 565 502" fill="none" xmlns="http://www.w3.org/2000/svg">
<path d="M314 501C452.071 501 564 389.071 564 251C564 112.929 452.071 1 314 1C175.929 1 64 112.929 64 251C64 389.071 175.929 501 314 501Z" fill="#2A2D39" stroke="white" stroke-width="2"/>
<path d="M314.02 66.32C311.833 66.32 309.873 65.76 308.14 64.64C306.433 63.52 305.073 61.8933 304.06 59.76C303.073 57.6267 302.58 55.04 302.58 52C302.58 48.96 303.073 46.3733 304.06 44.24C305.073 42.1067 306.433 40.48 308.14 39.36C309.873 38.24 311.833 37.68 314.02 37.68C316.18 37.68 318.127 38.24 319.86 39.36C321.593 40.48 322.953 42.1067 323.94 44.24C324.927 46.3733 325.42 48.96 325.42 52C325.42 55.04 324.927 57.6267 323.94 59.76C322.953 61.8933 321.593 63.52 319.86 64.64C318.127 65.76 316.18 66.32 314.02 66.32ZM314.02 62.76C315.487 62.76 316.767 62.36 317.86 61.56C318.98 60.76 319.847 59.56 320.46 57.96C321.1 56.36 321.42 54.3733 321.42 52C321.42 49.6267 321.1 47.64 320.46 46.04C319.847 44.44 318.98 43.24 317.86 42.44C316.767 41.64 315.487 41.24 314.02 41.24C312.553 41.24 311.26 41.64 310.14 42.44C309.02 43.24 308.14 44.44 307.5 46.04C306.887 47.64 306.58 49.6267 306.58 52C306.58 54.3733 306.887 56.36 307.5 57.96C308.14 59.56 309.02 60.76 310.14 61.56C311.26 62.36 312.553 62.76 314.02 62.76Z" fill="#F1EAE1"/>
<path d="M477.238 167V140.6L478.958 142.48H470.918V139H481.198V167H477.238Z" fill="#F1EAE1"/>
<path d="M467.996 359V356.28L479.396 345.28C480.409 344.32 481.156 343.48 481.636 342.76C482.142 342.013 482.476 341.333 482.636 340.72C482.822 340.08 482.916 339.467 482.916 338.88C482.916 337.44 482.409 336.307 481.396 335.48C480.382 334.653 478.902 334.24 476.956 334.24C475.462 334.24 474.116 334.493 472.916 335C471.716 335.48 470.676 336.24 469.796 337.28L467.076 334.92C468.142 333.56 469.569 332.52 471.356 331.8C473.169 331.053 475.156 330.68 477.316 330.68C479.262 330.68 480.956 331 482.396 331.64C483.836 332.253 484.942 333.147 485.716 334.32C486.516 335.493 486.916 336.88 486.916 338.48C486.916 339.387 486.796 340.28 486.556 341.16C486.316 342.04 485.862 342.973 485.196 343.96C484.529 344.947 483.569 346.053 482.316 347.28L472.156 357.08L471.196 355.52H488.116V359H467.996Z" fill="#F1EAE1"/>
<path d="M313.035 448.32C311.061 448.32 309.141 448.013 307.275 447.4C305.435 446.787 303.928 445.96 302.755 444.92L304.595 441.76C305.528 442.64 306.741 443.36 308.235 443.92C309.728 444.48 311.328 444.76 313.035 444.76C315.115 444.76 316.728 444.32 317.875 443.44C319.048 442.533 319.635 441.32 319.635 439.8C319.635 438.333 319.075 437.16 317.955 436.28C316.861 435.373 315.115 434.92 312.715 434.92H310.475V432.12L318.795 421.88L319.355 423.48H304.035V420H322.515V422.72L314.235 432.92L312.155 431.68H313.475C316.861 431.68 319.395 432.44 321.075 433.96C322.781 435.48 323.635 437.413 323.635 439.76C323.635 441.333 323.248 442.773 322.475 444.08C321.701 445.387 320.528 446.427 318.955 447.2C317.408 447.947 315.435 448.32 313.035 448.32Z" fill="#F1EAE1"/>
<path d="M138.141 352.12V349.32L152.461 331H156.781L142.581 349.32L140.541 348.68H162.901V352.12H138.141ZM153.701 359V352.12L153.821 348.68V342.6H157.581V359H153.701Z" fill="#F1EAE1"/>
<path d="M149.476 167.32C147.502 167.32 145.582 167.013 143.716 166.4C141.876 165.787 140.369 164.96 139.196 163.92L141.036 160.76C141.969 161.64 143.182 162.36 144.676 162.92C146.169 163.48 147.756 163.76 149.436 163.76C151.569 163.76 153.209 163.307 154.356 162.4C155.502 161.493 156.076 160.28 156.076 158.76C156.076 157.72 155.822 156.813 155.316 156.04C154.809 155.267 153.929 154.68 152.676 154.28C151.449 153.853 149.756 153.64 147.596 153.64H141.236L142.716 139H158.516V142.48H144.196L146.276 140.52L145.116 152.08L143.036 150.16H148.436C151.236 150.16 153.489 150.52 155.196 151.24C156.902 151.96 158.142 152.96 158.916 154.24C159.689 155.493 160.076 156.947 160.076 158.6C160.076 160.2 159.689 161.667 158.916 163C158.142 164.307 156.969 165.36 155.396 166.16C153.849 166.933 151.876 167.32 149.476 167.32Z" fill="#F1EAE1"/>
<path d="M35.8978 431V404.6L37.6178 406.48H29.5778V403H39.8578V431H35.8978ZM57.4225 431.32C55.2358 431.32 53.2758 430.76 51.5425 429.64C49.8358 428.52 48.4758 426.893 47.4625 424.76C46.4758 422.627 45.9825 420.04 45.9825 417C45.9825 413.96 46.4758 411.373 47.4625 409.24C48.4758 407.107 49.8358 405.48 51.5425 404.36C53.2758 403.24 55.2358 402.68 57.4225 402.68C59.5825 402.68 61.5292 403.24 63.2625 404.36C64.9958 405.48 66.3558 407.107 67.3425 409.24C68.3292 411.373 68.8225 413.96 68.8225 417C68.8225 420.04 68.3292 422.627 67.3425 424.76C66.3558 426.893 64.9958 428.52 63.2625 429.64C61.5292 430.76 59.5825 431.32 57.4225 431.32ZM57.4225 427.76C58.8892 427.76 60.1692 427.36 61.2625 426.56C62.3825 425.76 63.2492 424.56 63.8625 422.96C64.5025 421.36 64.8225 419.373 64.8225 417C64.8225 414.627 64.5025 412.64 63.8625 411.04C63.2492 409.44 62.3825 408.24 61.2625 407.44C60.1692 406.64 58.8892 406.24 57.4225 406.24C55.9558 406.24 54.6625 406.64 53.5425 407.44C52.4225 408.24 51.5425 409.44 50.9025 411.04C50.2892 412.64 49.9825 414.627 49.9825 417C49.9825 419.373 50.2892 421.36 50.9025 422.96C51.5425 424.56 52.4225 425.76 53.5425 426.56C54.6625 427.36 55.9558 427.76 57.4225 427.76Z" fill="#F1EAE1"/>
</svg>
