<svg width="502" height="502" viewBox="0 0 502 502" fill="none" xmlns="http://www.w3.org/2000/svg">
<path d="M251 501C389.071 501 501 389.071 501 251C501 112.929 389.071 1 251 1C112.929 1 1 112.929 1 251C1 389.071 112.929 501 251 501Z" fill="#2A2D39" stroke="white" stroke-width="2"/>
<path d="M251.02 66.32C248.833 66.32 246.873 65.76 245.14 64.64C243.433 63.52 242.073 61.8933 241.06 59.76C240.073 57.6267 239.58 55.04 239.58 52C239.58 48.96 240.073 46.3733 241.06 44.24C242.073 42.1067 243.433 40.48 245.14 39.36C246.873 38.24 248.833 37.68 251.02 37.68C253.18 37.68 255.127 38.24 256.86 39.36C258.593 40.48 259.953 42.1067 260.94 44.24C261.927 46.3733 262.42 48.96 262.42 52C262.42 55.04 261.927 57.6267 260.94 59.76C259.953 61.8933 258.593 63.52 256.86 64.64C255.127 65.76 253.18 66.32 251.02 66.32ZM251.02 62.76C252.487 62.76 253.767 62.36 254.86 61.56C255.98 60.76 256.847 59.56 257.46 57.96C258.1 56.36 258.42 54.3733 258.42 52C258.42 49.6267 258.1 47.64 257.46 46.04C256.847 44.44 255.98 43.24 254.86 42.44C253.767 41.64 252.487 41.24 251.02 41.24C249.553 41.24 248.26 41.64 247.14 42.44C246.02 43.24 245.14 44.44 244.5 46.04C243.887 47.64 243.58 49.6267 243.58 52C243.58 54.3733 243.887 56.36 244.5 57.96C245.14 59.56 246.02 60.76 247.14 61.56C248.26 62.36 249.553 62.76 251.02 62.76Z" fill="#F1EAE1"/>
<path d="M414.238 167V140.6L415.958 142.48H407.918V139H418.198V167H414.238Z" fill="#F1EAE1"/>
<path d="M404.996 359V356.28L416.396 345.28C417.409 344.32 418.156 343.48 418.636 342.76C419.142 342.013 419.476 341.333 419.636 340.72C419.822 340.08 419.916 339.467 419.916 338.88C419.916 337.44 419.409 336.307 418.396 335.48C417.382 334.653 415.902 334.24 413.956 334.24C412.462 334.24 411.116 334.493 409.916 335C408.716 335.48 407.676 336.24 406.796 337.28L404.076 334.92C405.142 333.56 406.569 332.52 408.356 331.8C410.169 331.053 412.156 330.68 414.316 330.68C416.262 330.68 417.956 331 419.396 331.64C420.836 332.253 421.942 333.147 422.716 334.32C423.516 335.493 423.916 336.88 423.916 338.48C423.916 339.387 423.796 340.28 423.556 341.16C423.316 342.04 422.862 342.973 422.196 343.96C421.529 344.947 420.569 346.053 419.316 347.28L409.156 357.08L408.196 355.52H425.116V359H404.996Z" fill="#F1EAE1"/>
<path d="M250.035 448.32C248.061 448.32 246.141 448.013 244.275 447.4C242.435 446.787 240.928 445.96 239.755 444.92L241.595 441.76C242.528 442.64 243.741 443.36 245.235 443.92C246.728 444.48 248.328 444.76 250.035 444.76C252.115 444.76 253.728 444.32 254.875 443.44C256.048 442.533 256.635 441.32 256.635 439.8C256.635 438.333 256.075 437.16 254.955 436.28C253.861 435.373 252.115 434.92 249.715 434.92H247.475V432.12L255.795 421.88L256.355 423.48H241.035V420H259.515V422.72L251.235 432.92L249.155 431.68H250.475C253.861 431.68 256.395 432.44 258.075 433.96C259.781 435.48 260.635 437.413 260.635 439.76C260.635 441.333 260.248 442.773 259.475 444.08C258.701 445.387 257.528 446.427 255.955 447.2C254.408 447.947 252.435 448.32 250.035 448.32Z" fill="#F1EAE1"/>
<path d="M75.1411 352.12V349.32L89.4611 331H93.7811L79.5811 349.32L77.5411 348.68H99.9011V352.12H75.1411ZM90.7011 359V352.12L90.8211 348.68V342.6H94.5811V359H90.7011Z" fill="#F1EAE1"/>
<path d="M86.4756 167.32C84.5023 167.32 82.5823 167.013 80.7156 166.4C78.8756 165.787 77.369 164.96 76.1956 163.92L78.0356 160.76C78.969 161.64 80.1823 162.36 81.6756 162.92C83.169 163.48 84.7556 163.76 86.4356 163.76C88.569 163.76 90.209 163.307 91.3556 162.4C92.5023 161.493 93.0756 160.28 93.0756 158.76C93.0756 157.72 92.8223 156.813 92.3156 156.04C91.809 155.267 90.929 154.68 89.6756 154.28C88.449 153.853 86.7556 153.64 84.5956 153.64H78.2356L79.7156 139H95.5156V142.48H81.1956L83.2756 140.52L82.1156 152.08L80.0356 150.16H85.4356C88.2356 150.16 90.489 150.52 92.1956 151.24C93.9023 151.96 95.1423 152.96 95.9156 154.24C96.689 155.493 97.0756 156.947 97.0756 158.6C97.0756 160.2 96.689 161.667 95.9156 163C95.1423 164.307 93.969 165.36 92.3956 166.16C90.849 166.933 88.8756 167.32 86.4756 167.32Z" fill="#F1EAE1"/>
</svg>
