<svg width="443" height="138" viewBox="0 0 443 138" fill="none" xmlns="http://www.w3.org/2000/svg">
<g filter="url(#filter0_d_173_201)">
<rect x="4" width="435" height="130" rx="20" fill="#2A2D39"/>
<rect x="4.375" y="0.375" width="434.25" height="129.25" rx="19.625" stroke="#F1EAE1" stroke-width="0.75"/>
</g>
<path d="M36.92 55L41.96 43.8H44.008L49.064 55H46.888L42.552 44.904H43.384L39.064 55H36.92ZM39.24 52.408L39.8 50.776H45.848L46.408 52.408H39.24ZM61.0804 46.36C61.763 46.36 62.3657 46.4933 62.8884 46.76C63.4217 47.0267 63.8377 47.4373 64.1364 47.992C64.435 48.536 64.5844 49.24 64.5844 50.104V55H62.5844V50.36C62.5844 49.6027 62.419 49.0373 62.0884 48.664C61.7577 48.2907 61.283 48.104 60.6644 48.104C60.227 48.104 59.8377 48.2 59.4964 48.392C59.1657 48.584 58.9044 48.8667 58.7124 49.24C58.531 49.6133 58.4404 50.088 58.4404 50.664V55H56.4404V50.36C56.4404 49.6027 56.275 49.0373 55.9444 48.664C55.6137 48.2907 55.139 48.104 54.5204 48.104C54.083 48.104 53.6937 48.2 53.3524 48.392C53.0217 48.584 52.7604 48.8667 52.5684 49.24C52.387 49.6133 52.2964 50.088 52.2964 50.664V55H50.2964V46.456H52.2004V48.728L51.8644 48.056C52.1524 47.5013 52.5684 47.08 53.1124 46.792C53.667 46.504 54.2964 46.36 55.0004 46.36C55.8004 46.36 56.4937 46.5573 57.0804 46.952C57.6777 47.3467 58.0724 47.944 58.2644 48.744L57.4804 48.472C57.7577 47.832 58.2164 47.32 58.8564 46.936C59.4964 46.552 60.2377 46.36 61.0804 46.36ZM70.9958 55.112C70.1211 55.112 69.3424 54.9253 68.6598 54.552C67.9771 54.168 67.4384 53.6453 67.0438 52.984C66.6491 52.3227 66.4518 51.5707 66.4518 50.728C66.4518 49.8747 66.6491 49.1227 67.0438 48.472C67.4384 47.8107 67.9771 47.2933 68.6598 46.92C69.3424 46.5467 70.1211 46.36 70.9958 46.36C71.8811 46.36 72.6651 46.5467 73.3478 46.92C74.0411 47.2933 74.5798 47.8053 74.9638 48.456C75.3584 49.1067 75.5558 49.864 75.5558 50.728C75.5558 51.5707 75.3584 52.3227 74.9638 52.984C74.5798 53.6453 74.0411 54.168 73.3478 54.552C72.6651 54.9253 71.8811 55.112 70.9958 55.112ZM70.9958 53.4C71.4864 53.4 71.9238 53.2933 72.3078 53.08C72.6918 52.8667 72.9904 52.5573 73.2038 52.152C73.4278 51.7467 73.5398 51.272 73.5398 50.728C73.5398 50.1733 73.4278 49.6987 73.2038 49.304C72.9904 48.8987 72.6918 48.5893 72.3078 48.376C71.9238 48.1627 71.4918 48.056 71.0118 48.056C70.5211 48.056 70.0838 48.1627 69.6998 48.376C69.3264 48.5893 69.0278 48.8987 68.8038 49.304C68.5798 49.6987 68.4678 50.1733 68.4678 50.728C68.4678 51.272 68.5798 51.7467 68.8038 52.152C69.0278 52.5573 69.3264 52.8667 69.6998 53.08C70.0838 53.2933 70.5158 53.4 70.9958 53.4ZM81.0843 55.112C80.3589 55.112 79.7189 54.9787 79.1643 54.712C78.6096 54.4347 78.1776 54.0187 77.8683 53.464C77.5589 52.8987 77.4043 52.1893 77.4043 51.336V46.456H79.4043V51.064C79.4043 51.832 79.5749 52.408 79.9163 52.792C80.2683 53.1653 80.7643 53.352 81.4043 53.352C81.8736 53.352 82.2789 53.256 82.6203 53.064C82.9723 52.872 83.2443 52.584 83.4363 52.2C83.6389 51.816 83.7403 51.3413 83.7403 50.776V46.456H85.7403V55H83.8363V52.696L84.1723 53.4C83.8843 53.9547 83.4629 54.3813 82.9083 54.68C82.3536 54.968 81.7456 55.112 81.0843 55.112ZM93.2069 46.36C93.8895 46.36 94.4975 46.4933 95.0309 46.76C95.5749 47.0267 96.0015 47.4373 96.3109 47.992C96.6202 48.536 96.7749 49.24 96.7749 50.104V55H94.7749V50.36C94.7749 49.6027 94.5935 49.0373 94.2309 48.664C93.8789 48.2907 93.3829 48.104 92.7429 48.104C92.2735 48.104 91.8575 48.2 91.4949 48.392C91.1322 48.584 90.8495 48.872 90.6469 49.256C90.4549 49.6293 90.3589 50.104 90.3589 50.68V55H88.3589V46.456H90.2629V48.76L89.9269 48.056C90.2255 47.512 90.6575 47.096 91.2229 46.808C91.7989 46.5093 92.4602 46.36 93.2069 46.36ZM102.528 55.112C101.589 55.112 100.864 54.872 100.352 54.392C99.84 53.9013 99.584 53.1813 99.584 52.232V44.568H101.584V52.184C101.584 52.5893 101.685 52.904 101.888 53.128C102.101 53.352 102.395 53.464 102.768 53.464C103.216 53.464 103.589 53.3467 103.888 53.112L104.448 54.536C104.213 54.728 103.925 54.872 103.584 54.968C103.243 55.064 102.891 55.112 102.528 55.112ZM98.176 48.12V46.52H103.872V48.12H98.176ZM106.733 49.016C106.371 49.016 106.061 48.8933 105.805 48.648C105.549 48.392 105.421 48.072 105.421 47.688C105.421 47.2827 105.549 46.9627 105.805 46.728C106.061 46.4827 106.371 46.36 106.733 46.36C107.096 46.36 107.405 46.4827 107.661 46.728C107.917 46.9627 108.045 47.2827 108.045 47.688C108.045 48.072 107.917 48.392 107.661 48.648C107.405 48.8933 107.096 49.016 106.733 49.016ZM106.733 55.112C106.371 55.112 106.061 54.9893 105.805 54.744C105.549 54.488 105.421 54.168 105.421 53.784C105.421 53.3787 105.549 53.0587 105.805 52.824C106.061 52.5787 106.371 52.456 106.733 52.456C107.096 52.456 107.405 52.5787 107.661 52.824C107.917 53.0587 108.045 53.3787 108.045 53.784C108.045 54.168 107.917 54.488 107.661 54.744C107.405 54.9893 107.096 55.112 106.733 55.112ZM118.021 55.096C117.189 55.096 116.389 54.9627 115.621 54.696C114.864 54.4187 114.277 54.0667 113.861 53.64L114.325 52.728C114.72 53.112 115.248 53.4373 115.909 53.704C116.581 53.96 117.285 54.088 118.021 54.088C118.725 54.088 119.296 54.0027 119.733 53.832C120.181 53.6507 120.507 53.4107 120.709 53.112C120.923 52.8133 121.029 52.4827 121.029 52.12C121.029 51.6827 120.901 51.3307 120.645 51.064C120.4 50.7973 120.075 50.5893 119.669 50.44C119.264 50.28 118.816 50.1413 118.325 50.024C117.835 49.9067 117.344 49.784 116.853 49.656C116.363 49.5173 115.909 49.336 115.493 49.112C115.088 48.888 114.757 48.5947 114.501 48.232C114.256 47.8587 114.133 47.3733 114.133 46.776C114.133 46.2213 114.277 45.7147 114.565 45.256C114.864 44.7867 115.317 44.4133 115.925 44.136C116.533 43.848 117.312 43.704 118.261 43.704C118.891 43.704 119.515 43.7947 120.133 43.976C120.752 44.1467 121.285 44.3867 121.733 44.696L121.333 45.64C120.853 45.32 120.341 45.0853 119.797 44.936C119.264 44.7867 118.747 44.712 118.245 44.712C117.573 44.712 117.019 44.8027 116.581 44.984C116.144 45.1653 115.819 45.4107 115.605 45.72C115.403 46.0187 115.301 46.36 115.301 46.744C115.301 47.1813 115.424 47.5333 115.669 47.8C115.925 48.0667 116.256 48.2747 116.661 48.424C117.077 48.5733 117.531 48.7067 118.021 48.824C118.512 48.9413 118.997 49.0693 119.477 49.208C119.968 49.3467 120.416 49.528 120.821 49.752C121.237 49.9653 121.568 50.2533 121.813 50.616C122.069 50.9787 122.197 51.4533 122.197 52.04C122.197 52.584 122.048 53.0907 121.749 53.56C121.451 54.0187 120.992 54.392 120.373 54.68C119.765 54.9573 118.981 55.096 118.021 55.096ZM128.105 55.08C127.23 55.08 126.462 54.8987 125.801 54.536C125.14 54.1627 124.622 53.656 124.249 53.016C123.876 52.3653 123.689 51.624 123.689 50.792C123.689 49.96 123.865 49.224 124.217 48.584C124.58 47.944 125.07 47.4427 125.689 47.08C126.318 46.7067 127.022 46.52 127.801 46.52C128.59 46.52 129.289 46.7013 129.897 47.064C130.516 47.416 131.001 47.9173 131.353 48.568C131.705 49.208 131.881 49.9493 131.881 50.792C131.881 50.8453 131.876 50.904 131.865 50.968C131.865 51.0213 131.865 51.08 131.865 51.144H124.553V50.296H131.257L130.809 50.632C130.809 50.024 130.676 49.4853 130.409 49.016C130.153 48.536 129.801 48.1627 129.353 47.896C128.905 47.6293 128.388 47.496 127.801 47.496C127.225 47.496 126.708 47.6293 126.249 47.896C125.79 48.1627 125.433 48.536 125.177 49.016C124.921 49.496 124.793 50.0453 124.793 50.664V50.84C124.793 51.48 124.932 52.0453 125.209 52.536C125.497 53.016 125.892 53.3947 126.393 53.672C126.905 53.9387 127.486 54.072 128.137 54.072C128.649 54.072 129.124 53.9813 129.561 53.8C130.009 53.6187 130.393 53.3413 130.713 52.968L131.353 53.704C130.98 54.152 130.51 54.4933 129.945 54.728C129.39 54.9627 128.777 55.08 128.105 55.08ZM136.849 55.08C136.06 55.08 135.452 54.8667 135.025 54.44C134.599 54.0133 134.385 53.4107 134.385 52.632V44.744H135.521V52.568C135.521 53.0587 135.644 53.4373 135.889 53.704C136.145 53.9707 136.508 54.104 136.977 54.104C137.479 54.104 137.895 53.96 138.225 53.672L138.625 54.488C138.401 54.6907 138.129 54.84 137.809 54.936C137.5 55.032 137.18 55.08 136.849 55.08ZM132.881 47.544V46.6H138.081V47.544H132.881ZM148.305 55.08C147.494 55.08 146.764 54.8987 146.113 54.536C145.473 54.1627 144.966 53.656 144.593 53.016C144.22 52.3653 144.033 51.624 144.033 50.792C144.033 49.9493 144.22 49.208 144.593 48.568C144.966 47.928 145.473 47.4267 146.113 47.064C146.753 46.7013 147.484 46.52 148.305 46.52C149.137 46.52 149.873 46.7013 150.513 47.064C151.164 47.4267 151.67 47.928 152.033 48.568C152.406 49.208 152.593 49.9493 152.593 50.792C152.593 51.624 152.406 52.3653 152.033 53.016C151.67 53.656 151.164 54.1627 150.513 54.536C149.862 54.8987 149.126 55.08 148.305 55.08ZM148.305 54.072C148.913 54.072 149.452 53.9387 149.921 53.672C150.39 53.3947 150.758 53.0107 151.025 52.52C151.302 52.0187 151.441 51.4427 151.441 50.792C151.441 50.1307 151.302 49.5547 151.025 49.064C150.758 48.5733 150.39 48.1947 149.921 47.928C149.452 47.6507 148.918 47.512 148.321 47.512C147.724 47.512 147.19 47.6507 146.721 47.928C146.252 48.1947 145.878 48.5733 145.601 49.064C145.324 49.5547 145.185 50.1307 145.185 50.792C145.185 51.4427 145.324 52.0187 145.601 52.52C145.878 53.0107 146.252 53.3947 146.721 53.672C147.19 53.9387 147.718 54.072 148.305 54.072ZM159.2 46.52C159.883 46.52 160.48 46.6533 160.992 46.92C161.515 47.176 161.92 47.5707 162.208 48.104C162.507 48.6373 162.656 49.3093 162.656 50.12V55H161.52V50.232C161.52 49.3467 161.296 48.68 160.848 48.232C160.411 47.7733 159.792 47.544 158.992 47.544C158.395 47.544 157.872 47.6667 157.424 47.912C156.987 48.1467 156.645 48.4933 156.4 48.952C156.165 49.4 156.048 49.944 156.048 50.584V55H154.912V46.6H156V48.904L155.824 48.472C156.091 47.864 156.517 47.3893 157.104 47.048C157.691 46.696 158.389 46.52 159.2 46.52ZM173.4 55.08C172.568 55.08 171.821 54.8987 171.16 54.536C170.509 54.1627 169.997 53.656 169.624 53.016C169.251 52.3653 169.064 51.624 169.064 50.792C169.064 49.9493 169.251 49.208 169.624 48.568C169.997 47.928 170.509 47.4267 171.16 47.064C171.821 46.7013 172.568 46.52 173.4 46.52C174.115 46.52 174.76 46.6587 175.336 46.936C175.912 47.2133 176.365 47.6293 176.696 48.184L175.848 48.76C175.56 48.3333 175.203 48.0187 174.776 47.816C174.349 47.6133 173.885 47.512 173.384 47.512C172.787 47.512 172.248 47.6507 171.768 47.928C171.288 48.1947 170.909 48.5733 170.632 49.064C170.355 49.5547 170.216 50.1307 170.216 50.792C170.216 51.4533 170.355 52.0293 170.632 52.52C170.909 53.0107 171.288 53.3947 171.768 53.672C172.248 53.9387 172.787 54.072 173.384 54.072C173.885 54.072 174.349 53.9707 174.776 53.768C175.203 53.5653 175.56 53.256 175.848 52.84L176.696 53.416C176.365 53.96 175.912 54.376 175.336 54.664C174.76 54.9413 174.115 55.08 173.4 55.08ZM184.192 55V53.144L184.144 52.84V49.736C184.144 49.0213 183.941 48.472 183.536 48.088C183.141 47.704 182.549 47.512 181.76 47.512C181.216 47.512 180.698 47.6027 180.208 47.784C179.717 47.9653 179.301 48.2053 178.96 48.504L178.448 47.656C178.874 47.2933 179.386 47.016 179.984 46.824C180.581 46.6213 181.21 46.52 181.872 46.52C182.96 46.52 183.797 46.792 184.384 47.336C184.981 47.8693 185.28 48.6853 185.28 49.784V55H184.192ZM181.296 55.08C180.666 55.08 180.117 54.9787 179.648 54.776C179.189 54.5627 178.837 54.2747 178.592 53.912C178.346 53.5387 178.224 53.112 178.224 52.632C178.224 52.1947 178.325 51.8 178.528 51.448C178.741 51.0853 179.082 50.7973 179.552 50.584C180.032 50.36 180.672 50.248 181.472 50.248H184.368V51.096H181.504C180.693 51.096 180.128 51.24 179.808 51.528C179.498 51.816 179.344 52.1733 179.344 52.6C179.344 53.08 179.53 53.464 179.904 53.752C180.277 54.04 180.8 54.184 181.472 54.184C182.112 54.184 182.661 54.04 183.12 53.752C183.589 53.4533 183.93 53.0267 184.144 52.472L184.4 53.256C184.186 53.8107 183.813 54.2533 183.28 54.584C182.757 54.9147 182.096 55.08 181.296 55.08ZM190.621 55.08C189.928 55.08 189.272 54.984 188.653 54.792C188.035 54.5893 187.549 54.3387 187.197 54.04L187.709 53.144C188.051 53.4 188.488 53.624 189.021 53.816C189.555 53.9973 190.115 54.088 190.701 54.088C191.501 54.088 192.077 53.9653 192.429 53.72C192.781 53.464 192.957 53.128 192.957 52.712C192.957 52.4027 192.856 52.1627 192.653 51.992C192.461 51.8107 192.205 51.6773 191.885 51.592C191.565 51.496 191.208 51.416 190.813 51.352C190.419 51.288 190.024 51.2133 189.629 51.128C189.245 51.0427 188.893 50.92 188.573 50.76C188.253 50.5893 187.992 50.36 187.789 50.072C187.597 49.784 187.501 49.4 187.501 48.92C187.501 48.4613 187.629 48.0507 187.885 47.688C188.141 47.3253 188.515 47.0427 189.005 46.84C189.507 46.6267 190.115 46.52 190.829 46.52C191.373 46.52 191.917 46.5947 192.461 46.744C193.005 46.8827 193.453 47.0693 193.805 47.304L193.309 48.216C192.936 47.96 192.536 47.7787 192.109 47.672C191.683 47.5547 191.256 47.496 190.829 47.496C190.072 47.496 189.512 47.6293 189.149 47.896C188.797 48.152 188.621 48.4827 188.621 48.888C188.621 49.208 188.717 49.4587 188.909 49.64C189.112 49.8213 189.373 49.9653 189.693 50.072C190.024 50.168 190.381 50.248 190.765 50.312C191.16 50.376 191.549 50.456 191.933 50.552C192.328 50.6373 192.685 50.76 193.005 50.92C193.336 51.0693 193.597 51.288 193.789 51.576C193.992 51.8533 194.093 52.2213 194.093 52.68C194.093 53.1707 193.955 53.5973 193.677 53.96C193.411 54.312 193.016 54.5893 192.493 54.792C191.981 54.984 191.357 55.08 190.621 55.08ZM199.746 55.08C198.871 55.08 198.103 54.8987 197.442 54.536C196.78 54.1627 196.263 53.656 195.89 53.016C195.516 52.3653 195.33 51.624 195.33 50.792C195.33 49.96 195.506 49.224 195.858 48.584C196.22 47.944 196.711 47.4427 197.33 47.08C197.959 46.7067 198.663 46.52 199.442 46.52C200.231 46.52 200.93 46.7013 201.538 47.064C202.156 47.416 202.642 47.9173 202.994 48.568C203.346 49.208 203.522 49.9493 203.522 50.792C203.522 50.8453 203.516 50.904 203.506 50.968C203.506 51.0213 203.506 51.08 203.506 51.144H196.194V50.296H202.898L202.45 50.632C202.45 50.024 202.316 49.4853 202.05 49.016C201.794 48.536 201.442 48.1627 200.994 47.896C200.546 47.6293 200.028 47.496 199.442 47.496C198.866 47.496 198.348 47.6293 197.89 47.896C197.431 48.1627 197.074 48.536 196.818 49.016C196.562 49.496 196.434 50.0453 196.434 50.664V50.84C196.434 51.48 196.572 52.0453 196.85 52.536C197.138 53.016 197.532 53.3947 198.034 53.672C198.546 53.9387 199.127 54.072 199.778 54.072C200.29 54.072 200.764 53.9813 201.202 53.8C201.65 53.6187 202.034 53.3413 202.354 52.968L202.994 53.704C202.62 54.152 202.151 54.4933 201.586 54.728C201.031 54.9627 200.418 55.08 199.746 55.08ZM205.366 51.16V50.168H209.558V51.16H205.366ZM216.436 55.08C215.7 55.08 215.038 54.9147 214.452 54.584C213.865 54.2427 213.401 53.752 213.06 53.112C212.718 52.472 212.548 51.6987 212.548 50.792C212.548 49.8747 212.718 49.1013 213.06 48.472C213.412 47.832 213.881 47.3467 214.468 47.016C215.054 46.6853 215.71 46.52 216.436 46.52C217.236 46.52 217.95 46.7013 218.58 47.064C219.22 47.416 219.721 47.912 220.084 48.552C220.446 49.192 220.628 49.9387 220.628 50.792C220.628 51.6347 220.446 52.3813 220.084 53.032C219.721 53.672 219.22 54.1733 218.58 54.536C217.95 54.8987 217.236 55.08 216.436 55.08ZM212.1 55V43.128H213.236V49.08L213.076 50.776L213.188 52.472V55H212.1ZM216.356 54.072C216.953 54.072 217.486 53.9387 217.956 53.672C218.425 53.3947 218.798 53.0107 219.076 52.52C219.353 52.0187 219.492 51.4427 219.492 50.792C219.492 50.1307 219.353 49.5547 219.076 49.064C218.798 48.5733 218.425 48.1947 217.956 47.928C217.486 47.6507 216.953 47.512 216.356 47.512C215.758 47.512 215.22 47.6507 214.74 47.928C214.27 48.1947 213.897 48.5733 213.62 49.064C213.353 49.5547 213.22 50.1307 213.22 50.792C213.22 51.4427 213.353 52.0187 213.62 52.52C213.897 53.0107 214.27 53.3947 214.74 53.672C215.22 53.9387 215.758 54.072 216.356 54.072ZM222.773 58.184C222.378 58.184 222 58.12 221.637 57.992C221.285 57.864 220.981 57.672 220.725 57.416L221.253 56.568C221.466 56.7707 221.696 56.9253 221.941 57.032C222.197 57.1493 222.48 57.208 222.789 57.208C223.162 57.208 223.482 57.1013 223.749 56.888C224.026 56.6853 224.288 56.3227 224.533 55.8L225.077 54.568L225.205 54.392L228.661 46.6H229.781L225.573 56.008C225.338 56.552 225.077 56.984 224.789 57.304C224.512 57.624 224.208 57.848 223.877 57.976C223.546 58.1147 223.178 58.184 222.773 58.184ZM225.013 55.24L221.141 46.6H222.325L225.749 54.312L225.013 55.24ZM230.569 51.16V50.168H234.761V51.16H230.569ZM240.947 55.08C240.115 55.08 239.368 54.8987 238.707 54.536C238.056 54.1627 237.544 53.656 237.171 53.016C236.798 52.3653 236.611 51.624 236.611 50.792C236.611 49.9493 236.798 49.208 237.171 48.568C237.544 47.928 238.056 47.4267 238.707 47.064C239.368 46.7013 240.115 46.52 240.947 46.52C241.662 46.52 242.307 46.6587 242.883 46.936C243.459 47.2133 243.912 47.6293 244.243 48.184L243.395 48.76C243.107 48.3333 242.75 48.0187 242.323 47.816C241.896 47.6133 241.432 47.512 240.931 47.512C240.334 47.512 239.795 47.6507 239.315 47.928C238.835 48.1947 238.456 48.5733 238.179 49.064C237.902 49.5547 237.763 50.1307 237.763 50.792C237.763 51.4533 237.902 52.0293 238.179 52.52C238.456 53.0107 238.835 53.3947 239.315 53.672C239.795 53.9387 240.334 54.072 240.931 54.072C241.432 54.072 241.896 53.9707 242.323 53.768C242.75 53.5653 243.107 53.256 243.395 52.84L244.243 53.416C243.912 53.96 243.459 54.376 242.883 54.664C242.307 54.9413 241.662 55.08 240.947 55.08ZM251.739 55V53.144L251.691 52.84V49.736C251.691 49.0213 251.488 48.472 251.083 48.088C250.688 47.704 250.096 47.512 249.307 47.512C248.763 47.512 248.245 47.6027 247.755 47.784C247.264 47.9653 246.848 48.2053 246.507 48.504L245.995 47.656C246.421 47.2933 246.933 47.016 247.531 46.824C248.128 46.6213 248.757 46.52 249.419 46.52C250.507 46.52 251.344 46.792 251.931 47.336C252.528 47.8693 252.827 48.6853 252.827 49.784V55H251.739ZM248.843 55.08C248.213 55.08 247.664 54.9787 247.195 54.776C246.736 54.5627 246.384 54.2747 246.139 53.912C245.893 53.5387 245.771 53.112 245.771 52.632C245.771 52.1947 245.872 51.8 246.075 51.448C246.288 51.0853 246.629 50.7973 247.099 50.584C247.579 50.36 248.219 50.248 249.019 50.248H251.915V51.096H249.051C248.24 51.096 247.675 51.24 247.355 51.528C247.045 51.816 246.891 52.1733 246.891 52.6C246.891 53.08 247.077 53.464 247.451 53.752C247.824 54.04 248.347 54.184 249.019 54.184C249.659 54.184 250.208 54.04 250.667 53.752C251.136 53.4533 251.477 53.0267 251.691 52.472L251.947 53.256C251.733 53.8107 251.36 54.2533 250.827 54.584C250.304 54.9147 249.643 55.08 248.843 55.08ZM258.168 55.08C257.475 55.08 256.819 54.984 256.2 54.792C255.581 54.5893 255.096 54.3387 254.744 54.04L255.256 53.144C255.597 53.4 256.035 53.624 256.568 53.816C257.101 53.9973 257.661 54.088 258.248 54.088C259.048 54.088 259.624 53.9653 259.976 53.72C260.328 53.464 260.504 53.128 260.504 52.712C260.504 52.4027 260.403 52.1627 260.2 51.992C260.008 51.8107 259.752 51.6773 259.432 51.592C259.112 51.496 258.755 51.416 258.36 51.352C257.965 51.288 257.571 51.2133 257.176 51.128C256.792 51.0427 256.44 50.92 256.12 50.76C255.8 50.5893 255.539 50.36 255.336 50.072C255.144 49.784 255.048 49.4 255.048 48.92C255.048 48.4613 255.176 48.0507 255.432 47.688C255.688 47.3253 256.061 47.0427 256.552 46.84C257.053 46.6267 257.661 46.52 258.376 46.52C258.92 46.52 259.464 46.5947 260.008 46.744C260.552 46.8827 261 47.0693 261.352 47.304L260.856 48.216C260.483 47.96 260.083 47.7787 259.656 47.672C259.229 47.5547 258.803 47.496 258.376 47.496C257.619 47.496 257.059 47.6293 256.696 47.896C256.344 48.152 256.168 48.4827 256.168 48.888C256.168 49.208 256.264 49.4587 256.456 49.64C256.659 49.8213 256.92 49.9653 257.24 50.072C257.571 50.168 257.928 50.248 258.312 50.312C258.707 50.376 259.096 50.456 259.48 50.552C259.875 50.6373 260.232 50.76 260.552 50.92C260.883 51.0693 261.144 51.288 261.336 51.576C261.539 51.8533 261.64 52.2213 261.64 52.68C261.64 53.1707 261.501 53.5973 261.224 53.96C260.957 54.312 260.563 54.5893 260.04 54.792C259.528 54.984 258.904 55.08 258.168 55.08ZM267.293 55.08C266.418 55.08 265.65 54.8987 264.989 54.536C264.327 54.1627 263.81 53.656 263.437 53.016C263.063 52.3653 262.877 51.624 262.877 50.792C262.877 49.96 263.053 49.224 263.405 48.584C263.767 47.944 264.258 47.4427 264.877 47.08C265.506 46.7067 266.21 46.52 266.989 46.52C267.778 46.52 268.477 46.7013 269.085 47.064C269.703 47.416 270.189 47.9173 270.541 48.568C270.893 49.208 271.069 49.9493 271.069 50.792C271.069 50.8453 271.063 50.904 271.053 50.968C271.053 51.0213 271.053 51.08 271.053 51.144H263.741V50.296H270.445L269.997 50.632C269.997 50.024 269.863 49.4853 269.597 49.016C269.341 48.536 268.989 48.1627 268.541 47.896C268.093 47.6293 267.575 47.496 266.989 47.496C266.413 47.496 265.895 47.6293 265.437 47.896C264.978 48.1627 264.621 48.536 264.365 49.016C264.109 49.496 263.981 50.0453 263.981 50.664V50.84C263.981 51.48 264.119 52.0453 264.397 52.536C264.685 53.016 265.079 53.3947 265.581 53.672C266.093 53.9387 266.674 54.072 267.325 54.072C267.837 54.072 268.311 53.9813 268.749 53.8C269.197 53.6187 269.581 53.3413 269.901 52.968L270.541 53.704C270.167 54.152 269.698 54.4933 269.133 54.728C268.578 54.9627 267.965 55.08 267.293 55.08ZM281.904 55.08C281.168 55.08 280.507 54.9147 279.92 54.584C279.334 54.2427 278.87 53.752 278.528 53.112C278.187 52.472 278.016 51.6987 278.016 50.792C278.016 49.8747 278.187 49.1013 278.528 48.472C278.88 47.832 279.35 47.3467 279.936 47.016C280.523 46.6853 281.179 46.52 281.904 46.52C282.704 46.52 283.419 46.7013 284.048 47.064C284.688 47.416 285.19 47.912 285.552 48.552C285.915 49.192 286.096 49.9387 286.096 50.792C286.096 51.6347 285.915 52.3813 285.552 53.032C285.19 53.672 284.688 54.1733 284.048 54.536C283.419 54.8987 282.704 55.08 281.904 55.08ZM277.568 55V43.128H278.704V49.08L278.544 50.776L278.656 52.472V55H277.568ZM281.824 54.072C282.422 54.072 282.955 53.9387 283.424 53.672C283.894 53.3947 284.267 53.0107 284.544 52.52C284.822 52.0187 284.96 51.4427 284.96 50.792C284.96 50.1307 284.822 49.5547 284.544 49.064C284.267 48.5733 283.894 48.1947 283.424 47.928C282.955 47.6507 282.422 47.512 281.824 47.512C281.227 47.512 280.688 47.6507 280.208 47.928C279.739 48.1947 279.366 48.5733 279.088 49.064C278.822 49.5547 278.688 50.1307 278.688 50.792C278.688 51.4427 278.822 52.0187 279.088 52.52C279.366 53.0107 279.739 53.3947 280.208 53.672C280.688 53.9387 281.227 54.072 281.824 54.072ZM293.629 55V53.144L293.581 52.84V49.736C293.581 49.0213 293.379 48.472 292.973 48.088C292.579 47.704 291.987 47.512 291.197 47.512C290.653 47.512 290.136 47.6027 289.645 47.784C289.155 47.9653 288.739 48.2053 288.397 48.504L287.885 47.656C288.312 47.2933 288.824 47.016 289.421 46.824C290.019 46.6213 290.648 46.52 291.309 46.52C292.397 46.52 293.235 46.792 293.821 47.336C294.419 47.8693 294.717 48.6853 294.717 49.784V55H293.629ZM290.733 55.08C290.104 55.08 289.555 54.9787 289.085 54.776C288.627 54.5627 288.275 54.2747 288.029 53.912C287.784 53.5387 287.661 53.112 287.661 52.632C287.661 52.1947 287.763 51.8 287.965 51.448C288.179 51.0853 288.52 50.7973 288.989 50.584C289.469 50.36 290.109 50.248 290.909 50.248H293.805V51.096H290.941C290.131 51.096 289.565 51.24 289.245 51.528C288.936 51.816 288.781 52.1733 288.781 52.6C288.781 53.08 288.968 53.464 289.341 53.752C289.715 54.04 290.237 54.184 290.909 54.184C291.549 54.184 292.099 54.04 292.557 53.752C293.027 53.4533 293.368 53.0267 293.581 52.472L293.837 53.256C293.624 53.8107 293.251 54.2533 292.717 54.584C292.195 54.9147 291.533 55.08 290.733 55.08ZM300.059 55.08C299.365 55.08 298.709 54.984 298.091 54.792C297.472 54.5893 296.987 54.3387 296.635 54.04L297.147 53.144C297.488 53.4 297.925 53.624 298.459 53.816C298.992 53.9973 299.552 54.088 300.139 54.088C300.939 54.088 301.515 53.9653 301.867 53.72C302.219 53.464 302.395 53.128 302.395 52.712C302.395 52.4027 302.293 52.1627 302.091 51.992C301.899 51.8107 301.643 51.6773 301.323 51.592C301.003 51.496 300.645 51.416 300.251 51.352C299.856 51.288 299.461 51.2133 299.067 51.128C298.683 51.0427 298.331 50.92 298.011 50.76C297.691 50.5893 297.429 50.36 297.227 50.072C297.035 49.784 296.939 49.4 296.939 48.92C296.939 48.4613 297.067 48.0507 297.323 47.688C297.579 47.3253 297.952 47.0427 298.443 46.84C298.944 46.6267 299.552 46.52 300.267 46.52C300.811 46.52 301.355 46.5947 301.899 46.744C302.443 46.8827 302.891 47.0693 303.243 47.304L302.747 48.216C302.373 47.96 301.973 47.7787 301.547 47.672C301.12 47.5547 300.693 47.496 300.267 47.496C299.509 47.496 298.949 47.6293 298.587 47.896C298.235 48.152 298.059 48.4827 298.059 48.888C298.059 49.208 298.155 49.4587 298.347 49.64C298.549 49.8213 298.811 49.9653 299.131 50.072C299.461 50.168 299.819 50.248 300.203 50.312C300.597 50.376 300.987 50.456 301.371 50.552C301.765 50.6373 302.123 50.76 302.443 50.92C302.773 51.0693 303.035 51.288 303.227 51.576C303.429 51.8533 303.531 52.2213 303.531 52.68C303.531 53.1707 303.392 53.5973 303.115 53.96C302.848 54.312 302.453 54.5893 301.931 54.792C301.419 54.984 300.795 55.08 300.059 55.08ZM305.615 55V46.6H306.751V55H305.615ZM306.191 44.744C305.957 44.744 305.759 44.664 305.599 44.504C305.439 44.344 305.359 44.152 305.359 43.928C305.359 43.704 305.439 43.5173 305.599 43.368C305.759 43.208 305.957 43.128 306.191 43.128C306.426 43.128 306.623 43.2027 306.783 43.352C306.943 43.5013 307.023 43.688 307.023 43.912C307.023 44.1467 306.943 44.344 306.783 44.504C306.634 44.664 306.437 44.744 306.191 44.744ZM312.168 55.08C311.475 55.08 310.819 54.984 310.2 54.792C309.581 54.5893 309.096 54.3387 308.744 54.04L309.256 53.144C309.597 53.4 310.035 53.624 310.568 53.816C311.101 53.9973 311.661 54.088 312.248 54.088C313.048 54.088 313.624 53.9653 313.976 53.72C314.328 53.464 314.504 53.128 314.504 52.712C314.504 52.4027 314.403 52.1627 314.2 51.992C314.008 51.8107 313.752 51.6773 313.432 51.592C313.112 51.496 312.755 51.416 312.36 51.352C311.965 51.288 311.571 51.2133 311.176 51.128C310.792 51.0427 310.44 50.92 310.12 50.76C309.8 50.5893 309.539 50.36 309.336 50.072C309.144 49.784 309.048 49.4 309.048 48.92C309.048 48.4613 309.176 48.0507 309.432 47.688C309.688 47.3253 310.061 47.0427 310.552 46.84C311.053 46.6267 311.661 46.52 312.376 46.52C312.92 46.52 313.464 46.5947 314.008 46.744C314.552 46.8827 315 47.0693 315.352 47.304L314.856 48.216C314.483 47.96 314.083 47.7787 313.656 47.672C313.229 47.5547 312.803 47.496 312.376 47.496C311.619 47.496 311.059 47.6293 310.696 47.896C310.344 48.152 310.168 48.4827 310.168 48.888C310.168 49.208 310.264 49.4587 310.456 49.64C310.659 49.8213 310.92 49.9653 311.24 50.072C311.571 50.168 311.928 50.248 312.312 50.312C312.707 50.376 313.096 50.456 313.48 50.552C313.875 50.6373 314.232 50.76 314.552 50.92C314.883 51.0693 315.144 51.288 315.336 51.576C315.539 51.8533 315.64 52.2213 315.64 52.68C315.64 53.1707 315.501 53.5973 315.224 53.96C314.957 54.312 314.563 54.5893 314.04 54.792C313.528 54.984 312.904 55.08 312.168 55.08Z" fill="#F1EAE1"/>
<path d="M36.92 87L41.96 75.8H44.008L49.064 87H46.888L42.552 76.904H43.384L39.064 87H36.92ZM39.24 84.408L39.8 82.776H45.848L46.408 84.408H39.24ZM55.0324 87.112C54.339 87.112 53.7044 86.952 53.1284 86.632C52.563 86.312 52.1097 85.832 51.7684 85.192C51.4377 84.5413 51.2724 83.72 51.2724 82.728C51.2724 81.7253 51.4324 80.904 51.7524 80.264C52.083 79.624 52.531 79.1493 53.0964 78.84C53.6617 78.52 54.307 78.36 55.0324 78.36C55.875 78.36 56.6164 78.5413 57.2564 78.904C57.907 79.2667 58.419 79.7733 58.7924 80.424C59.1764 81.0747 59.3684 81.8427 59.3684 82.728C59.3684 83.6133 59.1764 84.3867 58.7924 85.048C58.419 85.6987 57.907 86.2053 57.2564 86.568C56.6164 86.9307 55.875 87.112 55.0324 87.112ZM50.2964 90.104V78.456H52.2004V80.472L52.1364 82.744L52.2964 85.016V90.104H50.2964ZM54.8084 85.4C55.2884 85.4 55.715 85.2933 56.0884 85.08C56.4724 84.8667 56.7764 84.5573 57.0004 84.152C57.2244 83.7467 57.3364 83.272 57.3364 82.728C57.3364 82.1733 57.2244 81.6987 57.0004 81.304C56.7764 80.8987 56.4724 80.5893 56.0884 80.376C55.715 80.1627 55.2884 80.056 54.8084 80.056C54.3284 80.056 53.8964 80.1627 53.5124 80.376C53.1284 80.5893 52.8244 80.8987 52.6004 81.304C52.3764 81.6987 52.2644 82.1733 52.2644 82.728C52.2644 83.272 52.3764 83.7467 52.6004 84.152C52.8244 84.5573 53.1284 84.8667 53.5124 85.08C53.8964 85.2933 54.3284 85.4 54.8084 85.4ZM66.0011 87.112C65.3078 87.112 64.6731 86.952 64.0971 86.632C63.5318 86.312 63.0785 85.832 62.7371 85.192C62.4065 84.5413 62.2411 83.72 62.2411 82.728C62.2411 81.7253 62.4011 80.904 62.7211 80.264C63.0518 79.624 63.4998 79.1493 64.0651 78.84C64.6305 78.52 65.2758 78.36 66.0011 78.36C66.8438 78.36 67.5851 78.5413 68.2251 78.904C68.8758 79.2667 69.3878 79.7733 69.7611 80.424C70.1451 81.0747 70.3371 81.8427 70.3371 82.728C70.3371 83.6133 70.1451 84.3867 69.7611 85.048C69.3878 85.6987 68.8758 86.2053 68.2251 86.568C67.5851 86.9307 66.8438 87.112 66.0011 87.112ZM61.2651 90.104V78.456H63.1691V80.472L63.1051 82.744L63.2651 85.016V90.104H61.2651ZM65.7771 85.4C66.2571 85.4 66.6838 85.2933 67.0571 85.08C67.4411 84.8667 67.7451 84.5573 67.9691 84.152C68.1931 83.7467 68.3051 83.272 68.3051 82.728C68.3051 82.1733 68.1931 81.6987 67.9691 81.304C67.7451 80.8987 67.4411 80.5893 67.0571 80.376C66.6838 80.1627 66.2571 80.056 65.7771 80.056C65.2971 80.056 64.8651 80.1627 64.4811 80.376C64.0971 80.5893 63.7931 80.8987 63.5691 81.304C63.3451 81.6987 63.2331 82.1733 63.2331 82.728C63.2331 83.272 63.3451 83.7467 63.5691 84.152C63.7931 84.5573 64.0971 84.8667 64.4811 85.08C64.8651 85.2933 65.2971 85.4 65.7771 85.4ZM72.2339 87V75.128H74.2339V87H72.2339ZM76.8589 87V78.456H78.8589V87H76.8589ZM77.8669 77.048C77.4935 77.048 77.1842 76.9307 76.9389 76.696C76.7042 76.4613 76.5869 76.1787 76.5869 75.848C76.5869 75.5067 76.7042 75.224 76.9389 75C77.1842 74.7653 77.4935 74.648 77.8669 74.648C78.2402 74.648 78.5442 74.76 78.7789 74.984C79.0242 75.1973 79.1469 75.4693 79.1469 75.8C79.1469 76.152 79.0295 76.4507 78.7949 76.696C78.5602 76.9307 78.2509 77.048 77.8669 77.048ZM85.4039 87.112C84.5079 87.112 83.7079 86.9253 83.0039 86.552C82.3105 86.168 81.7665 85.6453 81.3719 84.984C80.9772 84.3227 80.7799 83.5707 80.7799 82.728C80.7799 81.8747 80.9772 81.1227 81.3719 80.472C81.7665 79.8107 82.3105 79.2933 83.0039 78.92C83.7079 78.5467 84.5079 78.36 85.4039 78.36C86.2359 78.36 86.9665 78.5307 87.5959 78.872C88.2359 79.2027 88.7212 79.6933 89.0519 80.344L87.5159 81.24C87.2599 80.8347 86.9452 80.536 86.5719 80.344C86.2092 80.152 85.8145 80.056 85.3879 80.056C84.8972 80.056 84.4545 80.1627 84.0599 80.376C83.6652 80.5893 83.3559 80.8987 83.1319 81.304C82.9079 81.6987 82.7959 82.1733 82.7959 82.728C82.7959 83.2827 82.9079 83.7627 83.1319 84.168C83.3559 84.5627 83.6652 84.8667 84.0599 85.08C84.4545 85.2933 84.8972 85.4 85.3879 85.4C85.8145 85.4 86.2092 85.304 86.5719 85.112C86.9452 84.92 87.2599 84.6213 87.5159 84.216L89.0519 85.112C88.7212 85.752 88.2359 86.248 87.5959 86.6C86.9665 86.9413 86.2359 87.112 85.4039 87.112ZM96.0448 87V85.272L95.9328 84.904V81.88C95.9328 81.2933 95.7568 80.84 95.4048 80.52C95.0528 80.1893 94.5194 80.024 93.8048 80.024C93.3248 80.024 92.8501 80.0987 92.3808 80.248C91.9221 80.3973 91.5328 80.6053 91.2128 80.872L90.4288 79.416C90.8874 79.064 91.4314 78.8027 92.0608 78.632C92.7008 78.4507 93.3621 78.36 94.0448 78.36C95.2821 78.36 96.2368 78.6587 96.9088 79.256C97.5914 79.8427 97.9328 80.7547 97.9328 81.992V87H96.0448ZM93.3568 87.112C92.7168 87.112 92.1568 87.0053 91.6768 86.792C91.1968 86.568 90.8234 86.264 90.5568 85.88C90.3008 85.4853 90.1728 85.0427 90.1728 84.552C90.1728 84.072 90.2848 83.64 90.5088 83.256C90.7434 82.872 91.1221 82.568 91.6448 82.344C92.1674 82.12 92.8608 82.008 93.7248 82.008H96.2048V83.336H93.8688C93.1861 83.336 92.7274 83.448 92.4928 83.672C92.2581 83.8853 92.1408 84.152 92.1408 84.472C92.1408 84.8347 92.2848 85.1227 92.5728 85.336C92.8608 85.5493 93.2608 85.656 93.7728 85.656C94.2634 85.656 94.7008 85.544 95.0848 85.32C95.4794 85.096 95.7621 84.7653 95.9328 84.328L96.2688 85.528C96.0768 86.0293 95.7301 86.4187 95.2288 86.696C94.7381 86.9733 94.1141 87.112 93.3568 87.112ZM103.716 87.112C102.777 87.112 102.052 86.872 101.539 86.392C101.028 85.9013 100.772 85.1813 100.772 84.232V76.568H102.772V84.184C102.772 84.5893 102.873 84.904 103.076 85.128C103.289 85.352 103.582 85.464 103.956 85.464C104.404 85.464 104.777 85.3467 105.076 85.112L105.636 86.536C105.401 86.728 105.113 86.872 104.772 86.968C104.43 87.064 104.078 87.112 103.716 87.112ZM99.3635 80.12V78.52H105.06V80.12H99.3635ZM107.281 87V78.456H109.281V87H107.281ZM108.289 77.048C107.915 77.048 107.606 76.9307 107.361 76.696C107.126 76.4613 107.009 76.1787 107.009 75.848C107.009 75.5067 107.126 75.224 107.361 75C107.606 74.7653 107.915 74.648 108.289 74.648C108.662 74.648 108.966 74.76 109.201 74.984C109.446 75.1973 109.569 75.4693 109.569 75.8C109.569 76.152 109.451 76.4507 109.217 76.696C108.982 76.9307 108.673 77.048 108.289 77.048ZM115.746 87.112C114.871 87.112 114.092 86.9253 113.41 86.552C112.727 86.168 112.188 85.6453 111.794 84.984C111.399 84.3227 111.202 83.5707 111.202 82.728C111.202 81.8747 111.399 81.1227 111.794 80.472C112.188 79.8107 112.727 79.2933 113.41 78.92C114.092 78.5467 114.871 78.36 115.746 78.36C116.631 78.36 117.415 78.5467 118.098 78.92C118.791 79.2933 119.33 79.8053 119.714 80.456C120.108 81.1067 120.306 81.864 120.306 82.728C120.306 83.5707 120.108 84.3227 119.714 84.984C119.33 85.6453 118.791 86.168 118.098 86.552C117.415 86.9253 116.631 87.112 115.746 87.112ZM115.746 85.4C116.236 85.4 116.674 85.2933 117.058 85.08C117.442 84.8667 117.74 84.5573 117.954 84.152C118.178 83.7467 118.29 83.272 118.29 82.728C118.29 82.1733 118.178 81.6987 117.954 81.304C117.74 80.8987 117.442 80.5893 117.058 80.376C116.674 80.1627 116.242 80.056 115.762 80.056C115.271 80.056 114.834 80.1627 114.45 80.376C114.076 80.5893 113.778 80.8987 113.554 81.304C113.33 81.6987 113.218 82.1733 113.218 82.728C113.218 83.272 113.33 83.7467 113.554 84.152C113.778 84.5573 114.076 84.8667 114.45 85.08C114.834 85.2933 115.266 85.4 115.746 85.4ZM127.066 78.36C127.749 78.36 128.357 78.4933 128.89 78.76C129.434 79.0267 129.861 79.4373 130.17 79.992C130.48 80.536 130.634 81.24 130.634 82.104V87H128.634V82.36C128.634 81.6027 128.453 81.0373 128.09 80.664C127.738 80.2907 127.242 80.104 126.602 80.104C126.133 80.104 125.717 80.2 125.354 80.392C124.992 80.584 124.709 80.872 124.506 81.256C124.314 81.6293 124.218 82.104 124.218 82.68V87H122.218V78.456H124.122V80.76L123.786 80.056C124.085 79.512 124.517 79.096 125.082 78.808C125.658 78.5093 126.32 78.36 127.066 78.36ZM135.811 87.112C135.097 87.112 134.409 87.0213 133.747 86.84C133.097 86.648 132.579 86.4187 132.195 86.152L132.963 84.632C133.347 84.8773 133.806 85.08 134.339 85.24C134.873 85.4 135.406 85.48 135.939 85.48C136.569 85.48 137.022 85.3947 137.299 85.224C137.587 85.0533 137.731 84.824 137.731 84.536C137.731 84.3013 137.635 84.1253 137.443 84.008C137.251 83.88 137.001 83.784 136.691 83.72C136.382 83.656 136.035 83.5973 135.651 83.544C135.278 83.4907 134.899 83.4213 134.515 83.336C134.142 83.24 133.801 83.1067 133.491 82.936C133.182 82.7547 132.931 82.5147 132.739 82.216C132.547 81.9173 132.451 81.5227 132.451 81.032C132.451 80.488 132.606 80.0187 132.915 79.624C133.225 79.2187 133.657 78.9093 134.211 78.696C134.777 78.472 135.443 78.36 136.211 78.36C136.787 78.36 137.369 78.424 137.955 78.552C138.542 78.68 139.027 78.8613 139.411 79.096L138.643 80.616C138.238 80.3707 137.827 80.2053 137.411 80.12C137.006 80.024 136.601 79.976 136.195 79.976C135.587 79.976 135.134 80.0667 134.835 80.248C134.547 80.4293 134.403 80.6587 134.403 80.936C134.403 81.192 134.499 81.384 134.691 81.512C134.883 81.64 135.134 81.7413 135.443 81.816C135.753 81.8907 136.094 81.9547 136.467 82.008C136.851 82.0507 137.23 82.12 137.603 82.216C137.977 82.312 138.318 82.4453 138.627 82.616C138.947 82.776 139.203 83.0053 139.395 83.304C139.587 83.6027 139.683 83.992 139.683 84.472C139.683 85.0053 139.523 85.4693 139.203 85.864C138.894 86.2587 138.451 86.568 137.875 86.792C137.299 87.0053 136.611 87.112 135.811 87.112ZM142.046 81.016C141.683 81.016 141.374 80.8933 141.118 80.648C140.862 80.392 140.734 80.072 140.734 79.688C140.734 79.2827 140.862 78.9627 141.118 78.728C141.374 78.4827 141.683 78.36 142.046 78.36C142.408 78.36 142.718 78.4827 142.974 78.728C143.23 78.9627 143.358 79.2827 143.358 79.688C143.358 80.072 143.23 80.392 142.974 80.648C142.718 80.8933 142.408 81.016 142.046 81.016ZM142.046 87.112C141.683 87.112 141.374 86.9893 141.118 86.744C140.862 86.488 140.734 86.168 140.734 85.784C140.734 85.3787 140.862 85.0587 141.118 84.824C141.374 84.5787 141.683 84.456 142.046 84.456C142.408 84.456 142.718 84.5787 142.974 84.824C143.23 85.0587 143.358 85.3787 143.358 85.784C143.358 86.168 143.23 86.488 142.974 86.744C142.718 86.9893 142.408 87.112 142.046 87.112ZM155.142 87.096C154.299 87.096 153.515 86.9573 152.79 86.68C152.075 86.392 151.451 85.992 150.918 85.48C150.395 84.9573 149.985 84.3547 149.686 83.672C149.398 82.9787 149.254 82.2213 149.254 81.4C149.254 80.5787 149.398 79.8267 149.686 79.144C149.985 78.4507 150.395 77.848 150.918 77.336C151.451 76.8133 152.075 76.4133 152.79 76.136C153.505 75.848 154.289 75.704 155.142 75.704C155.985 75.704 156.763 75.848 157.478 76.136C158.193 76.4133 158.811 76.808 159.334 77.32C159.867 77.832 160.278 78.4347 160.566 79.128C160.865 79.8213 161.014 80.5787 161.014 81.4C161.014 82.2213 160.865 82.9787 160.566 83.672C160.278 84.3653 159.867 84.968 159.334 85.48C158.811 85.992 158.193 86.392 157.478 86.68C156.763 86.9573 155.985 87.096 155.142 87.096ZM155.142 86.04C155.814 86.04 156.433 85.928 156.998 85.704C157.574 85.4693 158.07 85.144 158.486 84.728C158.913 84.3013 159.243 83.8107 159.478 83.256C159.713 82.6907 159.83 82.072 159.83 81.4C159.83 80.728 159.713 80.1147 159.478 79.56C159.243 78.9947 158.913 78.504 158.486 78.088C158.07 77.6613 157.574 77.336 156.998 77.112C156.433 76.8773 155.814 76.76 155.142 76.76C154.47 76.76 153.846 76.8773 153.27 77.112C152.694 77.336 152.193 77.6613 151.766 78.088C151.35 78.504 151.019 78.9947 150.774 79.56C150.539 80.1147 150.422 80.728 150.422 81.4C150.422 82.0613 150.539 82.6747 150.774 83.24C151.019 83.8053 151.35 84.3013 151.766 84.728C152.193 85.144 152.694 85.4693 153.27 85.704C153.846 85.928 154.47 86.04 155.142 86.04ZM167.716 78.52C168.398 78.52 168.996 78.6533 169.508 78.92C170.03 79.176 170.436 79.5707 170.724 80.104C171.022 80.6373 171.172 81.3093 171.172 82.12V87H170.036V82.232C170.036 81.3467 169.812 80.68 169.364 80.232C168.926 79.7733 168.308 79.544 167.508 79.544C166.91 79.544 166.388 79.6667 165.94 79.912C165.502 80.1467 165.161 80.4933 164.916 80.952C164.681 81.4 164.564 81.944 164.564 82.584V87H163.428V78.6H164.516V80.904L164.34 80.472C164.606 79.864 165.033 79.3893 165.62 79.048C166.206 78.696 166.905 78.52 167.716 78.52ZM183.692 87V85.144L183.644 84.84V81.736C183.644 81.0213 183.441 80.472 183.036 80.088C182.641 79.704 182.049 79.512 181.26 79.512C180.716 79.512 180.198 79.6027 179.708 79.784C179.217 79.9653 178.801 80.2053 178.46 80.504L177.948 79.656C178.374 79.2933 178.886 79.016 179.484 78.824C180.081 78.6213 180.71 78.52 181.372 78.52C182.46 78.52 183.297 78.792 183.884 79.336C184.481 79.8693 184.78 80.6853 184.78 81.784V87H183.692ZM180.796 87.08C180.166 87.08 179.617 86.9787 179.148 86.776C178.689 86.5627 178.337 86.2747 178.092 85.912C177.846 85.5387 177.724 85.112 177.724 84.632C177.724 84.1947 177.825 83.8 178.028 83.448C178.241 83.0853 178.582 82.7973 179.052 82.584C179.532 82.36 180.172 82.248 180.972 82.248H183.868V83.096H181.004C180.193 83.096 179.628 83.24 179.308 83.528C178.998 83.816 178.844 84.1733 178.844 84.6C178.844 85.08 179.03 85.464 179.404 85.752C179.777 86.04 180.3 86.184 180.972 86.184C181.612 86.184 182.161 86.04 182.62 85.752C183.089 85.4533 183.43 85.0267 183.644 84.472L183.9 85.256C183.686 85.8107 183.313 86.2533 182.78 86.584C182.257 86.9147 181.596 87.08 180.796 87.08ZM192.053 87V78.6H193.141V80.888L193.029 80.488C193.263 79.848 193.658 79.3627 194.213 79.032C194.767 78.6907 195.455 78.52 196.277 78.52V79.624C196.234 79.624 196.191 79.624 196.149 79.624C196.106 79.6133 196.063 79.608 196.021 79.608C195.135 79.608 194.442 79.88 193.941 80.424C193.439 80.9573 193.189 81.72 193.189 82.712V87H192.053ZM201.696 87.08C200.885 87.08 200.154 86.8987 199.504 86.536C198.864 86.1627 198.357 85.656 197.984 85.016C197.61 84.3653 197.424 83.624 197.424 82.792C197.424 81.9493 197.61 81.208 197.984 80.568C198.357 79.928 198.864 79.4267 199.504 79.064C200.144 78.7013 200.874 78.52 201.696 78.52C202.528 78.52 203.264 78.7013 203.904 79.064C204.554 79.4267 205.061 79.928 205.424 80.568C205.797 81.208 205.984 81.9493 205.984 82.792C205.984 83.624 205.797 84.3653 205.424 85.016C205.061 85.656 204.554 86.1627 203.904 86.536C203.253 86.8987 202.517 87.08 201.696 87.08ZM201.696 86.072C202.304 86.072 202.842 85.9387 203.312 85.672C203.781 85.3947 204.149 85.0107 204.416 84.52C204.693 84.0187 204.832 83.4427 204.832 82.792C204.832 82.1307 204.693 81.5547 204.416 81.064C204.149 80.5733 203.781 80.1947 203.312 79.928C202.842 79.6507 202.309 79.512 201.712 79.512C201.114 79.512 200.581 79.6507 200.112 79.928C199.642 80.1947 199.269 80.5733 198.992 81.064C198.714 81.5547 198.576 82.1307 198.576 82.792C198.576 83.4427 198.714 84.0187 198.992 84.52C199.269 85.0107 199.642 85.3947 200.112 85.672C200.581 85.9387 201.109 86.072 201.696 86.072ZM208.303 87V75.128H209.439V87H208.303ZM212.6 87V75.128H213.736V87H212.6ZM216.897 87V78.6H218.033V87H216.897ZM217.473 76.744C217.238 76.744 217.041 76.664 216.881 76.504C216.721 76.344 216.641 76.152 216.641 75.928C216.641 75.704 216.721 75.5173 216.881 75.368C217.041 75.208 217.238 75.128 217.473 75.128C217.707 75.128 217.905 75.2027 218.065 75.352C218.225 75.5013 218.305 75.688 218.305 75.912C218.305 76.1467 218.225 76.344 218.065 76.504C217.915 76.664 217.718 76.744 217.473 76.744ZM225.481 78.52C226.164 78.52 226.761 78.6533 227.273 78.92C227.796 79.176 228.201 79.5707 228.489 80.104C228.788 80.6373 228.937 81.3093 228.937 82.12V87H227.801V82.232C227.801 81.3467 227.577 80.68 227.129 80.232C226.692 79.7733 226.073 79.544 225.273 79.544C224.676 79.544 224.153 79.6667 223.705 79.912C223.268 80.1467 222.927 80.4933 222.681 80.952C222.447 81.4 222.329 81.944 222.329 82.584V87H221.193V78.6H222.281V80.904L222.105 80.472C222.372 79.864 222.799 79.3893 223.385 79.048C223.972 78.696 224.671 78.52 225.481 78.52ZM235.59 90.184C234.822 90.184 234.086 90.072 233.382 89.848C232.678 89.624 232.107 89.304 231.67 88.888L232.246 88.024C232.641 88.376 233.126 88.6533 233.702 88.856C234.289 89.0693 234.907 89.176 235.558 89.176C236.625 89.176 237.409 88.9253 237.91 88.424C238.411 87.9333 238.662 87.1653 238.662 86.12V84.024L238.822 82.584L238.71 81.144V78.6H239.798V85.976C239.798 87.4267 239.441 88.488 238.726 89.16C238.022 89.8427 236.977 90.184 235.59 90.184ZM235.382 86.68C234.582 86.68 233.862 86.5093 233.222 86.168C232.582 85.816 232.075 85.3307 231.702 84.712C231.339 84.0933 231.158 83.384 231.158 82.584C231.158 81.784 231.339 81.08 231.702 80.472C232.075 79.8533 232.582 79.3733 233.222 79.032C233.862 78.6907 234.582 78.52 235.382 78.52C236.129 78.52 236.801 78.6747 237.398 78.984C237.995 79.2933 238.47 79.752 238.822 80.36C239.174 80.968 239.35 81.7093 239.35 82.584C239.35 83.4587 239.174 84.2 238.822 84.808C238.47 85.416 237.995 85.88 237.398 86.2C236.801 86.52 236.129 86.68 235.382 86.68ZM235.494 85.672C236.113 85.672 236.662 85.544 237.142 85.288C237.622 85.0213 238.001 84.6587 238.278 84.2C238.555 83.7307 238.694 83.192 238.694 82.584C238.694 81.976 238.555 81.4427 238.278 80.984C238.001 80.5253 237.622 80.168 237.142 79.912C236.662 79.6453 236.113 79.512 235.494 79.512C234.886 79.512 234.337 79.6453 233.846 79.912C233.366 80.168 232.987 80.5253 232.71 80.984C232.443 81.4427 232.31 81.976 232.31 82.584C232.31 83.192 232.443 83.7307 232.71 84.2C232.987 84.6587 233.366 85.0213 233.846 85.288C234.337 85.544 234.886 85.672 235.494 85.672ZM251.483 87.08C250.747 87.08 250.085 86.9147 249.499 86.584C248.912 86.2427 248.448 85.752 248.107 85.112C247.765 84.472 247.595 83.6987 247.595 82.792C247.595 81.8747 247.765 81.1013 248.107 80.472C248.459 79.832 248.928 79.3467 249.515 79.016C250.101 78.6853 250.757 78.52 251.483 78.52C252.283 78.52 252.997 78.7013 253.627 79.064C254.267 79.416 254.768 79.912 255.131 80.552C255.493 81.192 255.675 81.9387 255.675 82.792C255.675 83.6347 255.493 84.3813 255.131 85.032C254.768 85.672 254.267 86.1733 253.627 86.536C252.997 86.8987 252.283 87.08 251.483 87.08ZM247.147 87V75.128H248.283V81.08L248.123 82.776L248.235 84.472V87H247.147ZM251.403 86.072C252 86.072 252.533 85.9387 253.003 85.672C253.472 85.3947 253.845 85.0107 254.123 84.52C254.4 84.0187 254.539 83.4427 254.539 82.792C254.539 82.1307 254.4 81.5547 254.123 81.064C253.845 80.5733 253.472 80.1947 253.003 79.928C252.533 79.6507 252 79.512 251.403 79.512C250.805 79.512 250.267 79.6507 249.786 79.928C249.317 80.1947 248.944 80.5733 248.667 81.064C248.4 81.5547 248.267 82.1307 248.267 82.792C248.267 83.4427 248.4 84.0187 248.667 84.52C248.944 85.0107 249.317 85.3947 249.786 85.672C250.267 85.9387 250.805 86.072 251.403 86.072ZM263.207 87V85.144L263.159 84.84V81.736C263.159 81.0213 262.957 80.472 262.551 80.088C262.157 79.704 261.565 79.512 260.775 79.512C260.231 79.512 259.714 79.6027 259.223 79.784C258.733 79.9653 258.317 80.2053 257.975 80.504L257.463 79.656C257.89 79.2933 258.402 79.016 258.999 78.824C259.597 78.6213 260.226 78.52 260.887 78.52C261.975 78.52 262.813 78.792 263.399 79.336C263.997 79.8693 264.295 80.6853 264.295 81.784V87H263.207ZM260.311 87.08C259.682 87.08 259.133 86.9787 258.663 86.776C258.205 86.5627 257.853 86.2747 257.607 85.912C257.362 85.5387 257.239 85.112 257.239 84.632C257.239 84.1947 257.341 83.8 257.543 83.448C257.757 83.0853 258.098 82.7973 258.567 82.584C259.047 82.36 259.687 82.248 260.487 82.248H263.383V83.096H260.519C259.709 83.096 259.143 83.24 258.823 83.528C258.514 83.816 258.359 84.1733 258.359 84.6C258.359 85.08 258.546 85.464 258.919 85.752C259.293 86.04 259.815 86.184 260.487 86.184C261.127 86.184 261.677 86.04 262.135 85.752C262.605 85.4533 262.946 85.0267 263.159 84.472L263.415 85.256C263.202 85.8107 262.829 86.2533 262.295 86.584C261.773 86.9147 261.111 87.08 260.311 87.08ZM269.637 87.08C268.944 87.08 268.288 86.984 267.669 86.792C267.05 86.5893 266.565 86.3387 266.213 86.04L266.725 85.144C267.066 85.4 267.504 85.624 268.037 85.816C268.57 85.9973 269.13 86.088 269.717 86.088C270.517 86.088 271.093 85.9653 271.445 85.72C271.797 85.464 271.973 85.128 271.973 84.712C271.973 84.4027 271.872 84.1627 271.669 83.992C271.477 83.8107 271.221 83.6773 270.901 83.592C270.581 83.496 270.224 83.416 269.829 83.352C269.434 83.288 269.04 83.2133 268.645 83.128C268.261 83.0427 267.909 82.92 267.589 82.76C267.269 82.5893 267.008 82.36 266.805 82.072C266.613 81.784 266.517 81.4 266.517 80.92C266.517 80.4613 266.645 80.0507 266.901 79.688C267.157 79.3253 267.53 79.0427 268.021 78.84C268.522 78.6267 269.13 78.52 269.845 78.52C270.389 78.52 270.933 78.5947 271.477 78.744C272.021 78.8827 272.469 79.0693 272.821 79.304L272.325 80.216C271.952 79.96 271.552 79.7787 271.125 79.672C270.698 79.5547 270.272 79.496 269.845 79.496C269.088 79.496 268.528 79.6293 268.165 79.896C267.813 80.152 267.637 80.4827 267.637 80.888C267.637 81.208 267.733 81.4587 267.925 81.64C268.128 81.8213 268.389 81.9653 268.709 82.072C269.04 82.168 269.397 82.248 269.781 82.312C270.176 82.376 270.565 82.456 270.949 82.552C271.344 82.6373 271.701 82.76 272.021 82.92C272.352 83.0693 272.613 83.288 272.805 83.576C273.008 83.8533 273.109 84.2213 273.109 84.68C273.109 85.1707 272.97 85.5973 272.693 85.96C272.426 86.312 272.032 86.5893 271.509 86.792C270.997 86.984 270.373 87.08 269.637 87.08ZM275.193 87V78.6H276.329V87H275.193ZM275.769 76.744C275.535 76.744 275.337 76.664 275.177 76.504C275.017 76.344 274.937 76.152 274.937 75.928C274.937 75.704 275.017 75.5173 275.177 75.368C275.337 75.208 275.535 75.128 275.769 75.128C276.004 75.128 276.201 75.2027 276.361 75.352C276.521 75.5013 276.601 75.688 276.601 75.912C276.601 76.1467 276.521 76.344 276.361 76.504C276.212 76.664 276.015 76.744 275.769 76.744ZM281.746 87.08C281.053 87.08 280.397 86.984 279.778 86.792C279.16 86.5893 278.674 86.3387 278.322 86.04L278.834 85.144C279.176 85.4 279.613 85.624 280.146 85.816C280.68 85.9973 281.24 86.088 281.826 86.088C282.626 86.088 283.202 85.9653 283.554 85.72C283.906 85.464 284.082 85.128 284.082 84.712C284.082 84.4027 283.981 84.1627 283.778 83.992C283.586 83.8107 283.33 83.6773 283.01 83.592C282.69 83.496 282.333 83.416 281.938 83.352C281.544 83.288 281.149 83.2133 280.754 83.128C280.37 83.0427 280.018 82.92 279.698 82.76C279.378 82.5893 279.117 82.36 278.914 82.072C278.722 81.784 278.626 81.4 278.626 80.92C278.626 80.4613 278.754 80.0507 279.01 79.688C279.266 79.3253 279.64 79.0427 280.13 78.84C280.632 78.6267 281.24 78.52 281.954 78.52C282.498 78.52 283.042 78.5947 283.586 78.744C284.13 78.8827 284.578 79.0693 284.93 79.304L284.434 80.216C284.061 79.96 283.661 79.7787 283.234 79.672C282.808 79.5547 282.381 79.496 281.954 79.496C281.197 79.496 280.637 79.6293 280.274 79.896C279.922 80.152 279.746 80.4827 279.746 80.888C279.746 81.208 279.842 81.4587 280.034 81.64C280.237 81.8213 280.498 81.9653 280.818 82.072C281.149 82.168 281.506 82.248 281.89 82.312C282.285 82.376 282.674 82.456 283.058 82.552C283.453 82.6373 283.81 82.76 284.13 82.92C284.461 83.0693 284.722 83.288 284.914 83.576C285.117 83.8533 285.218 84.2213 285.218 84.68C285.218 85.1707 285.08 85.5973 284.802 85.96C284.536 86.312 284.141 86.5893 283.618 86.792C283.106 86.984 282.482 87.08 281.746 87.08Z" fill="#F1EAE1"/>
<defs>
<filter id="filter0_d_173_201" x="0" y="0" width="443" height="138" filterUnits="userSpaceOnUse" color-interpolation-filters="sRGB">
<feFlood flood-opacity="0" result="BackgroundImageFix"/>
<feColorMatrix in="SourceAlpha" type="matrix" values="0 0 0 0 0 0 0 0 0 0 0 0 0 0 0 0 0 0 127 0" result="hardAlpha"/>
<feOffset dy="4"/>
<feGaussianBlur stdDeviation="2"/>
<feComposite in2="hardAlpha" operator="out"/>
<feColorMatrix type="matrix" values="0 0 0 0 0 0 0 0 0 0 0 0 0 0 0 0 0 0 0.25 0"/>
<feBlend mode="normal" in2="BackgroundImageFix" result="effect1_dropShadow_173_201"/>
<feBlend mode="normal" in="SourceGraphic" in2="effect1_dropShadow_173_201" result="shape"/>
</filter>
</defs>
</svg>
