<svg width="443" height="138" viewBox="0 0 443 138" fill="none" xmlns="http://www.w3.org/2000/svg">
<g filter="url(#filter0_d_207_284)">
<rect x="4" width="435" height="130" rx="20" fill="#2A2D39"/>
<rect x="4.375" y="0.375" width="434.25" height="129.25" rx="19.625" stroke="#F1EAE1" stroke-width="0.75"/>
</g>
<path d="M36.92 55L41.96 43.8H44.008L49.064 55H46.888L42.552 44.904H43.384L39.064 55H36.92ZM39.24 52.408L39.8 50.776H45.848L46.408 52.408H39.24ZM61.0804 46.36C61.763 46.36 62.3657 46.4933 62.8884 46.76C63.4217 47.0267 63.8377 47.4373 64.1364 47.992C64.435 48.536 64.5844 49.24 64.5844 50.104V55H62.5844V50.36C62.5844 49.6027 62.419 49.0373 62.0884 48.664C61.7577 48.2907 61.283 48.104 60.6644 48.104C60.227 48.104 59.8377 48.2 59.4964 48.392C59.1657 48.584 58.9044 48.8667 58.7124 49.24C58.531 49.6133 58.4404 50.088 58.4404 50.664V55H56.4404V50.36C56.4404 49.6027 56.275 49.0373 55.9444 48.664C55.6137 48.2907 55.139 48.104 54.5204 48.104C54.083 48.104 53.6937 48.2 53.3524 48.392C53.0217 48.584 52.7604 48.8667 52.5684 49.24C52.387 49.6133 52.2964 50.088 52.2964 50.664V55H50.2964V46.456H52.2004V48.728L51.8644 48.056C52.1524 47.5013 52.5684 47.08 53.1124 46.792C53.667 46.504 54.2964 46.36 55.0004 46.36C55.8004 46.36 56.4937 46.5573 57.0804 46.952C57.6777 47.3467 58.0724 47.944 58.2644 48.744L57.4804 48.472C57.7577 47.832 58.2164 47.32 58.8564 46.936C59.4964 46.552 60.2377 46.36 61.0804 46.36ZM70.9958 55.112C70.1211 55.112 69.3424 54.9253 68.6598 54.552C67.9771 54.168 67.4384 53.6453 67.0438 52.984C66.6491 52.3227 66.4518 51.5707 66.4518 50.728C66.4518 49.8747 66.6491 49.1227 67.0438 48.472C67.4384 47.8107 67.9771 47.2933 68.6598 46.92C69.3424 46.5467 70.1211 46.36 70.9958 46.36C71.8811 46.36 72.6651 46.5467 73.3478 46.92C74.0411 47.2933 74.5798 47.8053 74.9638 48.456C75.3584 49.1067 75.5558 49.864 75.5558 50.728C75.5558 51.5707 75.3584 52.3227 74.9638 52.984C74.5798 53.6453 74.0411 54.168 73.3478 54.552C72.6651 54.9253 71.8811 55.112 70.9958 55.112ZM70.9958 53.4C71.4864 53.4 71.9238 53.2933 72.3078 53.08C72.6918 52.8667 72.9904 52.5573 73.2038 52.152C73.4278 51.7467 73.5398 51.272 73.5398 50.728C73.5398 50.1733 73.4278 49.6987 73.2038 49.304C72.9904 48.8987 72.6918 48.5893 72.3078 48.376C71.9238 48.1627 71.4918 48.056 71.0118 48.056C70.5211 48.056 70.0838 48.1627 69.6998 48.376C69.3264 48.5893 69.0278 48.8987 68.8038 49.304C68.5798 49.6987 68.4678 50.1733 68.4678 50.728C68.4678 51.272 68.5798 51.7467 68.8038 52.152C69.0278 52.5573 69.3264 52.8667 69.6998 53.08C70.0838 53.2933 70.5158 53.4 70.9958 53.4ZM81.0843 55.112C80.3589 55.112 79.7189 54.9787 79.1643 54.712C78.6096 54.4347 78.1776 54.0187 77.8683 53.464C77.5589 52.8987 77.4043 52.1893 77.4043 51.336V46.456H79.4043V51.064C79.4043 51.832 79.5749 52.408 79.9163 52.792C80.2683 53.1653 80.7643 53.352 81.4043 53.352C81.8736 53.352 82.2789 53.256 82.6203 53.064C82.9723 52.872 83.2443 52.584 83.4363 52.2C83.6389 51.816 83.7403 51.3413 83.7403 50.776V46.456H85.7403V55H83.8363V52.696L84.1723 53.4C83.8843 53.9547 83.4629 54.3813 82.9083 54.68C82.3536 54.968 81.7456 55.112 81.0843 55.112ZM93.2069 46.36C93.8895 46.36 94.4975 46.4933 95.0309 46.76C95.5749 47.0267 96.0015 47.4373 96.3109 47.992C96.6202 48.536 96.7749 49.24 96.7749 50.104V55H94.7749V50.36C94.7749 49.6027 94.5935 49.0373 94.2309 48.664C93.8789 48.2907 93.3829 48.104 92.7429 48.104C92.2735 48.104 91.8575 48.2 91.4949 48.392C91.1322 48.584 90.8495 48.872 90.6469 49.256C90.4549 49.6293 90.3589 50.104 90.3589 50.68V55H88.3589V46.456H90.2629V48.76L89.9269 48.056C90.2255 47.512 90.6575 47.096 91.2229 46.808C91.7989 46.5093 92.4602 46.36 93.2069 46.36ZM102.528 55.112C101.589 55.112 100.864 54.872 100.352 54.392C99.84 53.9013 99.584 53.1813 99.584 52.232V44.568H101.584V52.184C101.584 52.5893 101.685 52.904 101.888 53.128C102.101 53.352 102.395 53.464 102.768 53.464C103.216 53.464 103.589 53.3467 103.888 53.112L104.448 54.536C104.213 54.728 103.925 54.872 103.584 54.968C103.243 55.064 102.891 55.112 102.528 55.112ZM98.176 48.12V46.52H103.872V48.12H98.176ZM106.733 49.016C106.371 49.016 106.061 48.8933 105.805 48.648C105.549 48.392 105.421 48.072 105.421 47.688C105.421 47.2827 105.549 46.9627 105.805 46.728C106.061 46.4827 106.371 46.36 106.733 46.36C107.096 46.36 107.405 46.4827 107.661 46.728C107.917 46.9627 108.045 47.2827 108.045 47.688C108.045 48.072 107.917 48.392 107.661 48.648C107.405 48.8933 107.096 49.016 106.733 49.016ZM106.733 55.112C106.371 55.112 106.061 54.9893 105.805 54.744C105.549 54.488 105.421 54.168 105.421 53.784C105.421 53.3787 105.549 53.0587 105.805 52.824C106.061 52.5787 106.371 52.456 106.733 52.456C107.096 52.456 107.405 52.5787 107.661 52.824C107.917 53.0587 108.045 53.3787 108.045 53.784C108.045 54.168 107.917 54.488 107.661 54.744C107.405 54.9893 107.096 55.112 106.733 55.112ZM117.685 56.92V41.88H118.485V56.92H117.685ZM118.021 55.096C117.189 55.096 116.389 54.9627 115.621 54.696C114.864 54.4187 114.277 54.0667 113.861 53.64L114.325 52.728C114.72 53.112 115.248 53.4373 115.909 53.704C116.581 53.96 117.285 54.088 118.021 54.088C118.725 54.088 119.296 54.0027 119.733 53.832C120.181 53.6507 120.507 53.4107 120.709 53.112C120.923 52.8133 121.029 52.4827 121.029 52.12C121.029 51.6827 120.901 51.3307 120.645 51.064C120.4 50.7973 120.075 50.5893 119.669 50.44C119.264 50.28 118.816 50.1413 118.325 50.024C117.835 49.9067 117.344 49.784 116.853 49.656C116.363 49.5173 115.909 49.336 115.493 49.112C115.088 48.888 114.757 48.5947 114.501 48.232C114.256 47.8587 114.133 47.3733 114.133 46.776C114.133 46.2213 114.277 45.7147 114.565 45.256C114.864 44.7867 115.317 44.4133 115.925 44.136C116.533 43.848 117.312 43.704 118.261 43.704C118.891 43.704 119.515 43.7947 120.133 43.976C120.752 44.1467 121.285 44.3867 121.733 44.696L121.333 45.64C120.853 45.32 120.341 45.0853 119.797 44.936C119.264 44.7867 118.747 44.712 118.245 44.712C117.573 44.712 117.019 44.8027 116.581 44.984C116.144 45.1653 115.819 45.4107 115.605 45.72C115.403 46.0187 115.301 46.36 115.301 46.744C115.301 47.1813 115.424 47.5333 115.669 47.8C115.925 48.0667 116.256 48.2747 116.661 48.424C117.077 48.5733 117.531 48.7067 118.021 48.824C118.512 48.9413 118.997 49.0693 119.477 49.208C119.968 49.3467 120.416 49.528 120.821 49.752C121.237 49.9653 121.568 50.2533 121.813 50.616C122.069 50.9787 122.197 51.4533 122.197 52.04C122.197 52.584 122.048 53.0907 121.749 53.56C121.451 54.0187 120.992 54.392 120.373 54.68C119.765 54.9573 118.981 55.096 118.021 55.096ZM123.577 55V54.184L128.233 49.624C128.66 49.208 128.98 48.8453 129.193 48.536C129.406 48.216 129.55 47.9173 129.625 47.64C129.7 47.3627 129.737 47.1013 129.737 46.856C129.737 46.2053 129.513 45.6933 129.065 45.32C128.628 44.9467 127.977 44.76 127.113 44.76C126.452 44.76 125.865 44.8613 125.353 45.064C124.852 45.2667 124.42 45.5813 124.057 46.008L123.241 45.304C123.678 44.792 124.238 44.3973 124.921 44.12C125.604 43.8427 126.366 43.704 127.209 43.704C127.966 43.704 128.622 43.8267 129.177 44.072C129.732 44.3067 130.158 44.6533 130.457 45.112C130.766 45.5707 130.921 46.1093 130.921 46.728C130.921 47.0907 130.868 47.448 130.761 47.8C130.665 48.152 130.484 48.5253 130.217 48.92C129.961 49.304 129.582 49.7413 129.081 50.232L124.809 54.424L124.489 53.976H131.433V55H123.577ZM136.415 55.096C135.615 55.096 134.852 54.968 134.127 54.712C133.402 54.4453 132.826 54.0933 132.399 53.656L132.959 52.744C133.311 53.1173 133.791 53.4267 134.399 53.672C135.018 53.9173 135.684 54.04 136.399 54.04C137.348 54.04 138.068 53.832 138.559 53.416C139.06 52.9893 139.311 52.4347 139.311 51.752C139.311 51.272 139.194 50.8613 138.959 50.52C138.735 50.168 138.351 49.896 137.807 49.704C137.263 49.512 136.516 49.416 135.567 49.416H133.183L133.759 43.8H139.887V44.824H134.223L134.815 44.264L134.319 48.968L133.727 48.392H135.823C136.954 48.392 137.86 48.5307 138.543 48.808C139.226 49.0853 139.716 49.4747 140.015 49.976C140.324 50.4667 140.479 51.0427 140.479 51.704C140.479 52.3333 140.33 52.9093 140.031 53.432C139.732 53.944 139.284 54.3493 138.687 54.648C138.09 54.9467 137.332 55.096 136.415 55.096ZM142.005 57.336L142.709 54.376L142.837 55.064C142.592 55.064 142.384 54.984 142.213 54.824C142.053 54.664 141.973 54.456 141.973 54.2C141.973 53.944 142.053 53.736 142.213 53.576C142.384 53.416 142.587 53.336 142.821 53.336C143.067 53.336 143.264 53.4213 143.413 53.592C143.573 53.7627 143.653 53.9653 143.653 54.2C143.653 54.2853 143.648 54.3707 143.637 54.456C143.627 54.5413 143.605 54.6373 143.573 54.744C143.541 54.8507 143.499 54.9787 143.445 55.128L142.773 57.336H142.005ZM149.624 55.096C148.76 55.096 147.992 54.872 147.32 54.424C146.648 53.9653 146.12 53.3147 145.736 52.472C145.352 51.6187 145.16 50.5947 145.16 49.4C145.16 48.2053 145.352 47.1867 145.736 46.344C146.12 45.4907 146.648 44.84 147.32 44.392C147.992 43.9333 148.76 43.704 149.624 43.704C150.488 43.704 151.256 43.9333 151.928 44.392C152.6 44.84 153.128 45.4907 153.512 46.344C153.907 47.1867 154.104 48.2053 154.104 49.4C154.104 50.5947 153.907 51.6187 153.512 52.472C153.128 53.3147 152.6 53.9653 151.928 54.424C151.256 54.872 150.488 55.096 149.624 55.096ZM149.624 54.04C150.285 54.04 150.861 53.864 151.352 53.512C151.843 53.1493 152.227 52.6267 152.504 51.944C152.781 51.2507 152.92 50.4027 152.92 49.4C152.92 48.3973 152.781 47.5547 152.504 46.872C152.227 46.1787 151.843 45.656 151.352 45.304C150.861 44.9413 150.285 44.76 149.624 44.76C148.984 44.76 148.413 44.9413 147.912 45.304C147.411 45.656 147.021 46.1787 146.744 46.872C146.467 47.5547 146.328 48.3973 146.328 49.4C146.328 50.4027 146.467 51.2507 146.744 51.944C147.021 52.6267 147.411 53.1493 147.912 53.512C148.413 53.864 148.984 54.04 149.624 54.04ZM160.218 55.096C159.354 55.096 158.586 54.872 157.914 54.424C157.242 53.9653 156.714 53.3147 156.33 52.472C155.946 51.6187 155.754 50.5947 155.754 49.4C155.754 48.2053 155.946 47.1867 156.33 46.344C156.714 45.4907 157.242 44.84 157.914 44.392C158.586 43.9333 159.354 43.704 160.218 43.704C161.082 43.704 161.85 43.9333 162.522 44.392C163.194 44.84 163.722 45.4907 164.106 46.344C164.501 47.1867 164.698 48.2053 164.698 49.4C164.698 50.5947 164.501 51.6187 164.106 52.472C163.722 53.3147 163.194 53.9653 162.522 54.424C161.85 54.872 161.082 55.096 160.218 55.096ZM160.218 54.04C160.879 54.04 161.455 53.864 161.946 53.512C162.437 53.1493 162.821 52.6267 163.098 51.944C163.375 51.2507 163.514 50.4027 163.514 49.4C163.514 48.3973 163.375 47.5547 163.098 46.872C162.821 46.1787 162.437 45.656 161.946 45.304C161.455 44.9413 160.879 44.76 160.218 44.76C159.578 44.76 159.007 44.9413 158.506 45.304C158.005 45.656 157.615 46.1787 157.338 46.872C157.061 47.5547 156.922 48.3973 156.922 49.4C156.922 50.4027 157.061 51.2507 157.338 51.944C157.615 52.6267 158.005 53.1493 158.506 53.512C159.007 53.864 159.578 54.04 160.218 54.04ZM170.812 55.096C169.948 55.096 169.18 54.872 168.508 54.424C167.836 53.9653 167.308 53.3147 166.924 52.472C166.54 51.6187 166.348 50.5947 166.348 49.4C166.348 48.2053 166.54 47.1867 166.924 46.344C167.308 45.4907 167.836 44.84 168.508 44.392C169.18 43.9333 169.948 43.704 170.812 43.704C171.676 43.704 172.444 43.9333 173.116 44.392C173.788 44.84 174.316 45.4907 174.7 46.344C175.094 47.1867 175.292 48.2053 175.292 49.4C175.292 50.5947 175.094 51.6187 174.7 52.472C174.316 53.3147 173.788 53.9653 173.116 54.424C172.444 54.872 171.676 55.096 170.812 55.096ZM170.812 54.04C171.473 54.04 172.049 53.864 172.54 53.512C173.03 53.1493 173.414 52.6267 173.692 51.944C173.969 51.2507 174.108 50.4027 174.108 49.4C174.108 48.3973 173.969 47.5547 173.692 46.872C173.414 46.1787 173.03 45.656 172.54 45.304C172.049 44.9413 171.473 44.76 170.812 44.76C170.172 44.76 169.601 44.9413 169.1 45.304C168.598 45.656 168.209 46.1787 167.932 46.872C167.654 47.5547 167.516 48.3973 167.516 49.4C167.516 50.4027 167.654 51.2507 167.932 51.944C168.209 52.6267 168.598 53.1493 169.1 53.512C169.601 53.864 170.172 54.04 170.812 54.04ZM180.329 55L185.449 43.8H186.617L191.737 55H190.489L185.785 44.488H186.265L181.561 55H180.329ZM182.345 52.008L182.697 51.048H189.209L189.561 52.008H182.345ZM193.59 55V43.8H197.782C198.731 43.8 199.547 43.9547 200.23 44.264C200.912 44.5627 201.435 45 201.798 45.576C202.171 46.1413 202.358 46.8293 202.358 47.64C202.358 48.4293 202.171 49.112 201.798 49.688C201.435 50.2533 200.912 50.6907 200.23 51C199.547 51.2987 198.731 51.448 197.782 51.448H194.246L194.774 50.904V55H193.59ZM201.238 55L198.358 50.936H199.638L202.534 55H201.238ZM194.774 51L194.246 50.44H197.75C198.87 50.44 199.718 50.1947 200.294 49.704C200.88 49.2133 201.174 48.5253 201.174 47.64C201.174 46.744 200.88 46.0507 200.294 45.56C199.718 45.0693 198.87 44.824 197.75 44.824H194.246L194.774 44.264V51ZM205.152 55V43.8H209.984C211.232 43.8 212.197 44.0507 212.88 44.552C213.573 45.0533 213.92 45.7627 213.92 46.68C213.92 47.288 213.776 47.8 213.488 48.216C213.211 48.632 212.827 48.9467 212.336 49.16C211.856 49.3733 211.328 49.48 210.752 49.48L211.024 49.096C211.739 49.096 212.352 49.208 212.864 49.432C213.387 49.6453 213.792 49.9707 214.08 50.408C214.368 50.8347 214.512 51.368 214.512 52.008C214.512 52.9573 214.16 53.6933 213.456 54.216C212.763 54.7387 211.712 55 210.304 55H205.152ZM206.336 54.024H210.288C211.269 54.024 212.021 53.8587 212.544 53.528C213.067 53.1867 213.328 52.648 213.328 51.912C213.328 51.1867 213.067 50.6587 212.544 50.328C212.021 49.9867 211.269 49.816 210.288 49.816H206.208V48.84H209.904C210.8 48.84 211.493 48.6693 211.984 48.328C212.485 47.9867 212.736 47.48 212.736 46.808C212.736 46.1253 212.485 45.6187 211.984 45.288C211.493 44.9467 210.8 44.776 209.904 44.776H206.336V54.024ZM221.354 55V45.544C221.354 44.7973 221.573 44.1947 222.01 43.736C222.447 43.2773 223.077 43.048 223.898 43.048C224.218 43.048 224.527 43.0907 224.826 43.176C225.125 43.2613 225.375 43.3947 225.578 43.576L225.194 44.424C225.034 44.2853 224.847 44.184 224.634 44.12C224.421 44.0453 224.191 44.008 223.946 44.008C223.466 44.008 223.098 44.1413 222.842 44.408C222.586 44.6747 222.458 45.0693 222.458 45.592V46.872L222.49 47.4V55H221.354ZM219.85 47.544V46.6H225.05V47.544H219.85ZM229.867 55.08C229.057 55.08 228.326 54.8987 227.675 54.536C227.035 54.1627 226.529 53.656 226.155 53.016C225.782 52.3653 225.595 51.624 225.595 50.792C225.595 49.9493 225.782 49.208 226.155 48.568C226.529 47.928 227.035 47.4267 227.675 47.064C228.315 46.7013 229.046 46.52 229.867 46.52C230.699 46.52 231.435 46.7013 232.075 47.064C232.726 47.4267 233.233 47.928 233.595 48.568C233.969 49.208 234.155 49.9493 234.155 50.792C234.155 51.624 233.969 52.3653 233.595 53.016C233.233 53.656 232.726 54.1627 232.075 54.536C231.425 54.8987 230.689 55.08 229.867 55.08ZM229.867 54.072C230.475 54.072 231.014 53.9387 231.483 53.672C231.953 53.3947 232.321 53.0107 232.587 52.52C232.865 52.0187 233.003 51.4427 233.003 50.792C233.003 50.1307 232.865 49.5547 232.587 49.064C232.321 48.5733 231.953 48.1947 231.483 47.928C231.014 47.6507 230.481 47.512 229.883 47.512C229.286 47.512 228.753 47.6507 228.283 47.928C227.814 48.1947 227.441 48.5733 227.163 49.064C226.886 49.5547 226.747 50.1307 226.747 50.792C226.747 51.4427 226.886 52.0187 227.163 52.52C227.441 53.0107 227.814 53.3947 228.283 53.672C228.753 53.9387 229.281 54.072 229.867 54.072ZM236.475 55V46.6H237.563V48.888L237.451 48.488C237.685 47.848 238.08 47.3627 238.635 47.032C239.189 46.6907 239.877 46.52 240.699 46.52V47.624C240.656 47.624 240.613 47.624 240.571 47.624C240.528 47.6133 240.485 47.608 240.443 47.608C239.557 47.608 238.864 47.88 238.363 48.424C237.861 48.9573 237.611 49.72 237.611 50.712V55H236.475ZM247.084 55V46.6H248.22V55H247.084ZM247.66 44.744C247.425 44.744 247.228 44.664 247.068 44.504C246.908 44.344 246.828 44.152 246.828 43.928C246.828 43.704 246.908 43.5173 247.068 43.368C247.228 43.208 247.425 43.128 247.66 43.128C247.895 43.128 248.092 43.2027 248.252 43.352C248.412 43.5013 248.492 43.688 248.492 43.912C248.492 44.1467 248.412 44.344 248.252 44.504C248.103 44.664 247.905 44.744 247.66 44.744ZM255.669 46.52C256.352 46.52 256.949 46.6533 257.461 46.92C257.984 47.176 258.389 47.5707 258.677 48.104C258.976 48.6373 259.125 49.3093 259.125 50.12V55H257.989V50.232C257.989 49.3467 257.765 48.68 257.317 48.232C256.88 47.7733 256.261 47.544 255.461 47.544C254.864 47.544 254.341 47.6667 253.893 47.912C253.456 48.1467 253.114 48.4933 252.869 48.952C252.634 49.4 252.517 49.944 252.517 50.584V55H251.381V46.6H252.469V48.904L252.293 48.472C252.56 47.864 252.986 47.3893 253.573 47.048C254.16 46.696 254.858 46.52 255.669 46.52ZM265.537 55.08C264.737 55.08 264.017 54.8987 263.377 54.536C262.748 54.1733 262.252 53.672 261.889 53.032C261.527 52.3813 261.345 51.6347 261.345 50.792C261.345 49.9387 261.527 49.192 261.889 48.552C262.252 47.912 262.748 47.416 263.377 47.064C264.017 46.7013 264.737 46.52 265.537 46.52C266.273 46.52 266.929 46.6853 267.505 47.016C268.092 47.3467 268.556 47.832 268.897 48.472C269.249 49.1013 269.425 49.8747 269.425 50.792C269.425 51.6987 269.255 52.472 268.913 53.112C268.572 53.752 268.108 54.2427 267.521 54.584C266.945 54.9147 266.284 55.08 265.537 55.08ZM265.617 54.072C266.215 54.072 266.748 53.9387 267.217 53.672C267.697 53.3947 268.071 53.0107 268.337 52.52C268.615 52.0187 268.753 51.4427 268.753 50.792C268.753 50.1307 268.615 49.5547 268.337 49.064C268.071 48.5733 267.697 48.1947 267.217 47.928C266.748 47.6507 266.215 47.512 265.617 47.512C265.031 47.512 264.503 47.6507 264.033 47.928C263.564 48.1947 263.191 48.5733 262.913 49.064C262.636 49.5547 262.497 50.1307 262.497 50.792C262.497 51.4427 262.636 52.0187 262.913 52.52C263.191 53.0107 263.564 53.3947 264.033 53.672C264.503 53.9387 265.031 54.072 265.617 54.072ZM268.785 55V52.472L268.897 50.776L268.737 49.08V43.128H269.873V55H268.785ZM273.037 55V46.6H274.173V55H273.037ZM273.613 44.744C273.378 44.744 273.181 44.664 273.021 44.504C272.861 44.344 272.781 44.152 272.781 43.928C272.781 43.704 272.861 43.5173 273.021 43.368C273.181 43.208 273.378 43.128 273.613 43.128C273.848 43.128 274.045 43.2027 274.205 43.352C274.365 43.5013 274.445 43.688 274.445 43.912C274.445 44.1467 274.365 44.344 274.205 44.504C274.056 44.664 273.858 44.744 273.613 44.744ZM279.494 55L275.766 46.6H276.95L280.374 54.392H279.814L283.286 46.6H284.406L280.662 55H279.494ZM286.006 55V46.6H287.142V55H286.006ZM286.582 44.744C286.347 44.744 286.15 44.664 285.99 44.504C285.83 44.344 285.75 44.152 285.75 43.928C285.75 43.704 285.83 43.5173 285.99 43.368C286.15 43.208 286.347 43.128 286.582 43.128C286.817 43.128 287.014 43.2027 287.174 43.352C287.334 43.5013 287.414 43.688 287.414 43.912C287.414 44.1467 287.334 44.344 287.174 44.504C287.025 44.664 286.827 44.744 286.582 44.744ZM293.647 55.08C292.847 55.08 292.127 54.8987 291.487 54.536C290.857 54.1733 290.361 53.672 289.999 53.032C289.636 52.3813 289.455 51.6347 289.455 50.792C289.455 49.9387 289.636 49.192 289.999 48.552C290.361 47.912 290.857 47.416 291.487 47.064C292.127 46.7013 292.847 46.52 293.647 46.52C294.383 46.52 295.039 46.6853 295.615 47.016C296.201 47.3467 296.665 47.832 297.007 48.472C297.359 49.1013 297.535 49.8747 297.535 50.792C297.535 51.6987 297.364 52.472 297.023 53.112C296.681 53.752 296.217 54.2427 295.631 54.584C295.055 54.9147 294.393 55.08 293.647 55.08ZM293.727 54.072C294.324 54.072 294.857 53.9387 295.327 53.672C295.807 53.3947 296.18 53.0107 296.447 52.52C296.724 52.0187 296.863 51.4427 296.863 50.792C296.863 50.1307 296.724 49.5547 296.447 49.064C296.18 48.5733 295.807 48.1947 295.327 47.928C294.857 47.6507 294.324 47.512 293.727 47.512C293.14 47.512 292.612 47.6507 292.143 47.928C291.673 48.1947 291.3 48.5733 291.023 49.064C290.745 49.5547 290.607 50.1307 290.607 50.792C290.607 51.4427 290.745 52.0187 291.023 52.52C291.3 53.0107 291.673 53.3947 292.143 53.672C292.612 53.9387 293.14 54.072 293.727 54.072ZM296.895 55V52.472L297.007 50.776L296.847 49.08V43.128H297.983V55H296.895ZM304.619 55.08C303.904 55.08 303.28 54.9467 302.747 54.68C302.213 54.4133 301.797 54.0133 301.499 53.48C301.211 52.9467 301.067 52.28 301.067 51.48V46.6H302.203V51.352C302.203 52.248 302.421 52.9253 302.859 53.384C303.307 53.832 303.931 54.056 304.731 54.056C305.317 54.056 305.824 53.9387 306.251 53.704C306.688 53.4587 307.019 53.1067 307.243 52.648C307.477 52.1893 307.595 51.64 307.595 51V46.6H308.731V55H307.642V52.696L307.819 53.112C307.552 53.7307 307.136 54.216 306.571 54.568C306.016 54.9093 305.365 55.08 304.619 55.08ZM317.161 55V53.144L317.113 52.84V49.736C317.113 49.0213 316.91 48.472 316.505 48.088C316.11 47.704 315.518 47.512 314.729 47.512C314.185 47.512 313.667 47.6027 313.177 47.784C312.686 47.9653 312.27 48.2053 311.929 48.504L311.417 47.656C311.843 47.2933 312.355 47.016 312.953 46.824C313.55 46.6213 314.179 46.52 314.841 46.52C315.929 46.52 316.766 46.792 317.353 47.336C317.95 47.8693 318.249 48.6853 318.249 49.784V55H317.161ZM314.265 55.08C313.635 55.08 313.086 54.9787 312.617 54.776C312.158 54.5627 311.806 54.2747 311.561 53.912C311.315 53.5387 311.193 53.112 311.193 52.632C311.193 52.1947 311.294 51.8 311.497 51.448C311.71 51.0853 312.051 50.7973 312.521 50.584C313.001 50.36 313.641 50.248 314.441 50.248H317.337V51.096H314.473C313.662 51.096 313.097 51.24 312.777 51.528C312.467 51.816 312.312 52.1733 312.312 52.6C312.312 53.08 312.499 53.464 312.873 53.752C313.246 54.04 313.769 54.184 314.441 54.184C315.081 54.184 315.63 54.04 316.089 53.752C316.558 53.4533 316.899 53.0267 317.113 52.472L317.369 53.256C317.155 53.8107 316.782 54.2533 316.249 54.584C315.726 54.9147 315.065 55.08 314.265 55.08ZM321.334 55V43.128H322.47V55H321.334ZM333.402 58.184C332.634 58.184 331.898 58.072 331.194 57.848C330.49 57.624 329.92 57.304 329.482 56.888L330.058 56.024C330.453 56.376 330.938 56.6533 331.514 56.856C332.101 57.0693 332.72 57.176 333.37 57.176C334.437 57.176 335.221 56.9253 335.722 56.424C336.224 55.9333 336.474 55.1653 336.474 54.12V52.024L336.634 50.584L336.522 49.144V46.6H337.61V53.976C337.61 55.4267 337.253 56.488 336.538 57.16C335.834 57.8427 334.789 58.184 333.402 58.184ZM333.194 54.68C332.394 54.68 331.674 54.5093 331.034 54.168C330.394 53.816 329.888 53.3307 329.514 52.712C329.152 52.0933 328.97 51.384 328.97 50.584C328.97 49.784 329.152 49.08 329.514 48.472C329.888 47.8533 330.394 47.3733 331.034 47.032C331.674 46.6907 332.394 46.52 333.194 46.52C333.941 46.52 334.613 46.6747 335.21 46.984C335.808 47.2933 336.282 47.752 336.634 48.36C336.986 48.968 337.162 49.7093 337.162 50.584C337.162 51.4587 336.986 52.2 336.634 52.808C336.282 53.416 335.808 53.88 335.21 54.2C334.613 54.52 333.941 54.68 333.194 54.68ZM333.306 53.672C333.925 53.672 334.474 53.544 334.954 53.288C335.434 53.0213 335.813 52.6587 336.09 52.2C336.368 51.7307 336.506 51.192 336.506 50.584C336.506 49.976 336.368 49.4427 336.09 48.984C335.813 48.5253 335.434 48.168 334.954 47.912C334.474 47.6453 333.925 47.512 333.306 47.512C332.698 47.512 332.149 47.6453 331.658 47.912C331.178 48.168 330.8 48.5253 330.522 48.984C330.256 49.4427 330.122 49.976 330.122 50.584C330.122 51.192 330.256 51.7307 330.522 52.2C330.8 52.6587 331.178 53.0213 331.658 53.288C332.149 53.544 332.698 53.672 333.306 53.672ZM340.772 55V46.6H341.86V48.888L341.748 48.488C341.982 47.848 342.377 47.3627 342.932 47.032C343.486 46.6907 344.174 46.52 344.996 46.52V47.624C344.953 47.624 344.91 47.624 344.868 47.624C344.825 47.6133 344.782 47.608 344.74 47.608C343.854 47.608 343.161 47.88 342.66 48.424C342.158 48.9573 341.908 49.72 341.908 50.712V55H340.772ZM351.707 55V53.144L351.659 52.84V49.736C351.659 49.0213 351.457 48.472 351.051 48.088C350.657 47.704 350.065 47.512 349.275 47.512C348.731 47.512 348.214 47.6027 347.723 47.784C347.233 47.9653 346.817 48.2053 346.475 48.504L345.963 47.656C346.39 47.2933 346.902 47.016 347.499 46.824C348.097 46.6213 348.726 46.52 349.387 46.52C350.475 46.52 351.313 46.792 351.899 47.336C352.497 47.8693 352.795 48.6853 352.795 49.784V55H351.707ZM348.811 55.08C348.182 55.08 347.633 54.9787 347.163 54.776C346.705 54.5627 346.353 54.2747 346.107 53.912C345.862 53.5387 345.739 53.112 345.739 52.632C345.739 52.1947 345.841 51.8 346.043 51.448C346.257 51.0853 346.598 50.7973 347.067 50.584C347.547 50.36 348.187 50.248 348.987 50.248H351.883V51.096H349.019C348.209 51.096 347.643 51.24 347.323 51.528C347.014 51.816 346.859 52.1733 346.859 52.6C346.859 53.08 347.046 53.464 347.419 53.752C347.793 54.04 348.315 54.184 348.987 54.184C349.627 54.184 350.177 54.04 350.635 53.752C351.105 53.4533 351.446 53.0267 351.659 52.472L351.915 53.256C351.702 53.8107 351.329 54.2533 350.795 54.584C350.273 54.9147 349.611 55.08 348.811 55.08ZM360.169 46.52C360.852 46.52 361.449 46.6533 361.961 46.92C362.484 47.176 362.889 47.5707 363.177 48.104C363.476 48.6373 363.625 49.3093 363.625 50.12V55H362.489V50.232C362.489 49.3467 362.265 48.68 361.817 48.232C361.38 47.7733 360.761 47.544 359.961 47.544C359.364 47.544 358.841 47.6667 358.393 47.912C357.956 48.1467 357.614 48.4933 357.369 48.952C357.134 49.4 357.017 49.944 357.017 50.584V55H355.881V46.6H356.969V48.904L356.793 48.472C357.06 47.864 357.486 47.3893 358.073 47.048C358.66 46.696 359.358 46.52 360.169 46.52ZM369.349 55.08C368.56 55.08 367.952 54.8667 367.525 54.44C367.099 54.0133 366.885 53.4107 366.885 52.632V44.744H368.021V52.568C368.021 53.0587 368.144 53.4373 368.389 53.704C368.645 53.9707 369.008 54.104 369.477 54.104C369.979 54.104 370.395 53.96 370.725 53.672L371.125 54.488C370.901 54.6907 370.629 54.84 370.309 54.936C370 55.032 369.68 55.08 369.349 55.08ZM365.381 47.544V46.6H370.581V47.544H365.381ZM375.449 55.08C374.756 55.08 374.1 54.984 373.481 54.792C372.863 54.5893 372.377 54.3387 372.025 54.04L372.537 53.144C372.879 53.4 373.316 53.624 373.849 53.816C374.383 53.9973 374.943 54.088 375.529 54.088C376.329 54.088 376.905 53.9653 377.257 53.72C377.609 53.464 377.785 53.128 377.785 52.712C377.785 52.4027 377.684 52.1627 377.481 51.992C377.289 51.8107 377.033 51.6773 376.713 51.592C376.393 51.496 376.036 51.416 375.641 51.352C375.247 51.288 374.852 51.2133 374.457 51.128C374.073 51.0427 373.721 50.92 373.401 50.76C373.081 50.5893 372.82 50.36 372.617 50.072C372.425 49.784 372.329 49.4 372.329 48.92C372.329 48.4613 372.457 48.0507 372.713 47.688C372.969 47.3253 373.343 47.0427 373.833 46.84C374.335 46.6267 374.943 46.52 375.657 46.52C376.201 46.52 376.745 46.5947 377.289 46.744C377.833 46.8827 378.281 47.0693 378.633 47.304L378.137 48.216C377.764 47.96 377.364 47.7787 376.937 47.672C376.511 47.5547 376.084 47.496 375.657 47.496C374.9 47.496 374.34 47.6293 373.977 47.896C373.625 48.152 373.449 48.4827 373.449 48.888C373.449 49.208 373.545 49.4587 373.737 49.64C373.94 49.8213 374.201 49.9653 374.521 50.072C374.852 50.168 375.209 50.248 375.593 50.312C375.988 50.376 376.377 50.456 376.761 50.552C377.156 50.6373 377.513 50.76 377.833 50.92C378.164 51.0693 378.425 51.288 378.617 51.576C378.82 51.8533 378.921 52.2213 378.921 52.68C378.921 53.1707 378.783 53.5973 378.505 53.96C378.239 54.312 377.844 54.5893 377.321 54.792C376.809 54.984 376.185 55.08 375.449 55.08Z" fill="#F1EAE1"/>
<path d="M36.92 87L41.96 75.8H44.008L49.064 87H46.888L42.552 76.904H43.384L39.064 87H36.92ZM39.24 84.408L39.8 82.776H45.848L46.408 84.408H39.24ZM55.0324 87.112C54.339 87.112 53.7044 86.952 53.1284 86.632C52.563 86.312 52.1097 85.832 51.7684 85.192C51.4377 84.5413 51.2724 83.72 51.2724 82.728C51.2724 81.7253 51.4324 80.904 51.7524 80.264C52.083 79.624 52.531 79.1493 53.0964 78.84C53.6617 78.52 54.307 78.36 55.0324 78.36C55.875 78.36 56.6164 78.5413 57.2564 78.904C57.907 79.2667 58.419 79.7733 58.7924 80.424C59.1764 81.0747 59.3684 81.8427 59.3684 82.728C59.3684 83.6133 59.1764 84.3867 58.7924 85.048C58.419 85.6987 57.907 86.2053 57.2564 86.568C56.6164 86.9307 55.875 87.112 55.0324 87.112ZM50.2964 90.104V78.456H52.2004V80.472L52.1364 82.744L52.2964 85.016V90.104H50.2964ZM54.8084 85.4C55.2884 85.4 55.715 85.2933 56.0884 85.08C56.4724 84.8667 56.7764 84.5573 57.0004 84.152C57.2244 83.7467 57.3364 83.272 57.3364 82.728C57.3364 82.1733 57.2244 81.6987 57.0004 81.304C56.7764 80.8987 56.4724 80.5893 56.0884 80.376C55.715 80.1627 55.2884 80.056 54.8084 80.056C54.3284 80.056 53.8964 80.1627 53.5124 80.376C53.1284 80.5893 52.8244 80.8987 52.6004 81.304C52.3764 81.6987 52.2644 82.1733 52.2644 82.728C52.2644 83.272 52.3764 83.7467 52.6004 84.152C52.8244 84.5573 53.1284 84.8667 53.5124 85.08C53.8964 85.2933 54.3284 85.4 54.8084 85.4ZM66.0011 87.112C65.3078 87.112 64.6731 86.952 64.0971 86.632C63.5318 86.312 63.0785 85.832 62.7371 85.192C62.4065 84.5413 62.2411 83.72 62.2411 82.728C62.2411 81.7253 62.4011 80.904 62.7211 80.264C63.0518 79.624 63.4998 79.1493 64.0651 78.84C64.6305 78.52 65.2758 78.36 66.0011 78.36C66.8438 78.36 67.5851 78.5413 68.2251 78.904C68.8758 79.2667 69.3878 79.7733 69.7611 80.424C70.1451 81.0747 70.3371 81.8427 70.3371 82.728C70.3371 83.6133 70.1451 84.3867 69.7611 85.048C69.3878 85.6987 68.8758 86.2053 68.2251 86.568C67.5851 86.9307 66.8438 87.112 66.0011 87.112ZM61.2651 90.104V78.456H63.1691V80.472L63.1051 82.744L63.2651 85.016V90.104H61.2651ZM65.7771 85.4C66.2571 85.4 66.6838 85.2933 67.0571 85.08C67.4411 84.8667 67.7451 84.5573 67.9691 84.152C68.1931 83.7467 68.3051 83.272 68.3051 82.728C68.3051 82.1733 68.1931 81.6987 67.9691 81.304C67.7451 80.8987 67.4411 80.5893 67.0571 80.376C66.6838 80.1627 66.2571 80.056 65.7771 80.056C65.2971 80.056 64.8651 80.1627 64.4811 80.376C64.0971 80.5893 63.7931 80.8987 63.5691 81.304C63.3451 81.6987 63.2331 82.1733 63.2331 82.728C63.2331 83.272 63.3451 83.7467 63.5691 84.152C63.7931 84.5573 64.0971 84.8667 64.4811 85.08C64.8651 85.2933 65.2971 85.4 65.7771 85.4ZM72.2339 87V75.128H74.2339V87H72.2339ZM76.8589 87V78.456H78.8589V87H76.8589ZM77.8669 77.048C77.4935 77.048 77.1842 76.9307 76.9389 76.696C76.7042 76.4613 76.5869 76.1787 76.5869 75.848C76.5869 75.5067 76.7042 75.224 76.9389 75C77.1842 74.7653 77.4935 74.648 77.8669 74.648C78.2402 74.648 78.5442 74.76 78.7789 74.984C79.0242 75.1973 79.1469 75.4693 79.1469 75.8C79.1469 76.152 79.0295 76.4507 78.7949 76.696C78.5602 76.9307 78.2509 77.048 77.8669 77.048ZM85.4039 87.112C84.5079 87.112 83.7079 86.9253 83.0039 86.552C82.3105 86.168 81.7665 85.6453 81.3719 84.984C80.9772 84.3227 80.7799 83.5707 80.7799 82.728C80.7799 81.8747 80.9772 81.1227 81.3719 80.472C81.7665 79.8107 82.3105 79.2933 83.0039 78.92C83.7079 78.5467 84.5079 78.36 85.4039 78.36C86.2359 78.36 86.9665 78.5307 87.5959 78.872C88.2359 79.2027 88.7212 79.6933 89.0519 80.344L87.5159 81.24C87.2599 80.8347 86.9452 80.536 86.5719 80.344C86.2092 80.152 85.8145 80.056 85.3879 80.056C84.8972 80.056 84.4545 80.1627 84.0599 80.376C83.6652 80.5893 83.3559 80.8987 83.1319 81.304C82.9079 81.6987 82.7959 82.1733 82.7959 82.728C82.7959 83.2827 82.9079 83.7627 83.1319 84.168C83.3559 84.5627 83.6652 84.8667 84.0599 85.08C84.4545 85.2933 84.8972 85.4 85.3879 85.4C85.8145 85.4 86.2092 85.304 86.5719 85.112C86.9452 84.92 87.2599 84.6213 87.5159 84.216L89.0519 85.112C88.7212 85.752 88.2359 86.248 87.5959 86.6C86.9665 86.9413 86.2359 87.112 85.4039 87.112ZM96.0448 87V85.272L95.9328 84.904V81.88C95.9328 81.2933 95.7568 80.84 95.4048 80.52C95.0528 80.1893 94.5194 80.024 93.8048 80.024C93.3248 80.024 92.8501 80.0987 92.3808 80.248C91.9221 80.3973 91.5328 80.6053 91.2128 80.872L90.4288 79.416C90.8874 79.064 91.4314 78.8027 92.0608 78.632C92.7008 78.4507 93.3621 78.36 94.0448 78.36C95.2821 78.36 96.2368 78.6587 96.9088 79.256C97.5914 79.8427 97.9328 80.7547 97.9328 81.992V87H96.0448ZM93.3568 87.112C92.7168 87.112 92.1568 87.0053 91.6768 86.792C91.1968 86.568 90.8234 86.264 90.5568 85.88C90.3008 85.4853 90.1728 85.0427 90.1728 84.552C90.1728 84.072 90.2848 83.64 90.5088 83.256C90.7434 82.872 91.1221 82.568 91.6448 82.344C92.1674 82.12 92.8608 82.008 93.7248 82.008H96.2048V83.336H93.8688C93.1861 83.336 92.7274 83.448 92.4928 83.672C92.2581 83.8853 92.1408 84.152 92.1408 84.472C92.1408 84.8347 92.2848 85.1227 92.5728 85.336C92.8608 85.5493 93.2608 85.656 93.7728 85.656C94.2634 85.656 94.7008 85.544 95.0848 85.32C95.4794 85.096 95.7621 84.7653 95.9328 84.328L96.2688 85.528C96.0768 86.0293 95.7301 86.4187 95.2288 86.696C94.7381 86.9733 94.1141 87.112 93.3568 87.112ZM103.716 87.112C102.777 87.112 102.052 86.872 101.539 86.392C101.028 85.9013 100.772 85.1813 100.772 84.232V76.568H102.772V84.184C102.772 84.5893 102.873 84.904 103.076 85.128C103.289 85.352 103.582 85.464 103.956 85.464C104.404 85.464 104.777 85.3467 105.076 85.112L105.636 86.536C105.401 86.728 105.113 86.872 104.772 86.968C104.43 87.064 104.078 87.112 103.716 87.112ZM99.3635 80.12V78.52H105.06V80.12H99.3635ZM107.281 87V78.456H109.281V87H107.281ZM108.289 77.048C107.915 77.048 107.606 76.9307 107.361 76.696C107.126 76.4613 107.009 76.1787 107.009 75.848C107.009 75.5067 107.126 75.224 107.361 75C107.606 74.7653 107.915 74.648 108.289 74.648C108.662 74.648 108.966 74.76 109.201 74.984C109.446 75.1973 109.569 75.4693 109.569 75.8C109.569 76.152 109.451 76.4507 109.217 76.696C108.982 76.9307 108.673 77.048 108.289 77.048ZM115.746 87.112C114.871 87.112 114.092 86.9253 113.41 86.552C112.727 86.168 112.188 85.6453 111.794 84.984C111.399 84.3227 111.202 83.5707 111.202 82.728C111.202 81.8747 111.399 81.1227 111.794 80.472C112.188 79.8107 112.727 79.2933 113.41 78.92C114.092 78.5467 114.871 78.36 115.746 78.36C116.631 78.36 117.415 78.5467 118.098 78.92C118.791 79.2933 119.33 79.8053 119.714 80.456C120.108 81.1067 120.306 81.864 120.306 82.728C120.306 83.5707 120.108 84.3227 119.714 84.984C119.33 85.6453 118.791 86.168 118.098 86.552C117.415 86.9253 116.631 87.112 115.746 87.112ZM115.746 85.4C116.236 85.4 116.674 85.2933 117.058 85.08C117.442 84.8667 117.74 84.5573 117.954 84.152C118.178 83.7467 118.29 83.272 118.29 82.728C118.29 82.1733 118.178 81.6987 117.954 81.304C117.74 80.8987 117.442 80.5893 117.058 80.376C116.674 80.1627 116.242 80.056 115.762 80.056C115.271 80.056 114.834 80.1627 114.45 80.376C114.076 80.5893 113.778 80.8987 113.554 81.304C113.33 81.6987 113.218 82.1733 113.218 82.728C113.218 83.272 113.33 83.7467 113.554 84.152C113.778 84.5573 114.076 84.8667 114.45 85.08C114.834 85.2933 115.266 85.4 115.746 85.4ZM127.066 78.36C127.749 78.36 128.357 78.4933 128.89 78.76C129.434 79.0267 129.861 79.4373 130.17 79.992C130.48 80.536 130.634 81.24 130.634 82.104V87H128.634V82.36C128.634 81.6027 128.453 81.0373 128.09 80.664C127.738 80.2907 127.242 80.104 126.602 80.104C126.133 80.104 125.717 80.2 125.354 80.392C124.992 80.584 124.709 80.872 124.506 81.256C124.314 81.6293 124.218 82.104 124.218 82.68V87H122.218V78.456H124.122V80.76L123.786 80.056C124.085 79.512 124.517 79.096 125.082 78.808C125.658 78.5093 126.32 78.36 127.066 78.36ZM135.811 87.112C135.097 87.112 134.409 87.0213 133.747 86.84C133.097 86.648 132.579 86.4187 132.195 86.152L132.963 84.632C133.347 84.8773 133.806 85.08 134.339 85.24C134.873 85.4 135.406 85.48 135.939 85.48C136.569 85.48 137.022 85.3947 137.299 85.224C137.587 85.0533 137.731 84.824 137.731 84.536C137.731 84.3013 137.635 84.1253 137.443 84.008C137.251 83.88 137.001 83.784 136.691 83.72C136.382 83.656 136.035 83.5973 135.651 83.544C135.278 83.4907 134.899 83.4213 134.515 83.336C134.142 83.24 133.801 83.1067 133.491 82.936C133.182 82.7547 132.931 82.5147 132.739 82.216C132.547 81.9173 132.451 81.5227 132.451 81.032C132.451 80.488 132.606 80.0187 132.915 79.624C133.225 79.2187 133.657 78.9093 134.211 78.696C134.777 78.472 135.443 78.36 136.211 78.36C136.787 78.36 137.369 78.424 137.955 78.552C138.542 78.68 139.027 78.8613 139.411 79.096L138.643 80.616C138.238 80.3707 137.827 80.2053 137.411 80.12C137.006 80.024 136.601 79.976 136.195 79.976C135.587 79.976 135.134 80.0667 134.835 80.248C134.547 80.4293 134.403 80.6587 134.403 80.936C134.403 81.192 134.499 81.384 134.691 81.512C134.883 81.64 135.134 81.7413 135.443 81.816C135.753 81.8907 136.094 81.9547 136.467 82.008C136.851 82.0507 137.23 82.12 137.603 82.216C137.977 82.312 138.318 82.4453 138.627 82.616C138.947 82.776 139.203 83.0053 139.395 83.304C139.587 83.6027 139.683 83.992 139.683 84.472C139.683 85.0053 139.523 85.4693 139.203 85.864C138.894 86.2587 138.451 86.568 137.875 86.792C137.299 87.0053 136.611 87.112 135.811 87.112ZM142.046 81.016C141.683 81.016 141.374 80.8933 141.118 80.648C140.862 80.392 140.734 80.072 140.734 79.688C140.734 79.2827 140.862 78.9627 141.118 78.728C141.374 78.4827 141.683 78.36 142.046 78.36C142.408 78.36 142.718 78.4827 142.974 78.728C143.23 78.9627 143.358 79.2827 143.358 79.688C143.358 80.072 143.23 80.392 142.974 80.648C142.718 80.8933 142.408 81.016 142.046 81.016ZM142.046 87.112C141.683 87.112 141.374 86.9893 141.118 86.744C140.862 86.488 140.734 86.168 140.734 85.784C140.734 85.3787 140.862 85.0587 141.118 84.824C141.374 84.5787 141.683 84.456 142.046 84.456C142.408 84.456 142.718 84.5787 142.974 84.824C143.23 85.0587 143.358 85.3787 143.358 85.784C143.358 86.168 143.23 86.488 142.974 86.744C142.718 86.9893 142.408 87.112 142.046 87.112ZM154.908 87.096C154.065 87.096 153.281 86.9573 152.556 86.68C151.841 86.392 151.217 85.992 150.684 85.48C150.161 84.9573 149.75 84.3547 149.452 83.672C149.164 82.9787 149.02 82.2213 149.02 81.4C149.02 80.5787 149.164 79.8267 149.452 79.144C149.75 78.4507 150.161 77.848 150.684 77.336C151.217 76.8133 151.841 76.4133 152.556 76.136C153.27 75.848 154.054 75.704 154.908 75.704C155.75 75.704 156.529 75.848 157.244 76.136C157.958 76.4133 158.577 76.808 159.1 77.32C159.633 77.832 160.044 78.4347 160.332 79.128C160.63 79.8213 160.78 80.5787 160.78 81.4C160.78 82.2213 160.63 82.9787 160.332 83.672C160.044 84.3653 159.633 84.968 159.1 85.48C158.577 85.992 157.958 86.392 157.244 86.68C156.529 86.9573 155.75 87.096 154.908 87.096ZM154.908 86.04C155.58 86.04 156.198 85.928 156.764 85.704C157.34 85.4693 157.836 85.144 158.252 84.728C158.678 84.3013 159.009 83.8107 159.244 83.256C159.478 82.6907 159.596 82.072 159.596 81.4C159.596 80.728 159.478 80.1147 159.244 79.56C159.009 78.9947 158.678 78.504 158.252 78.088C157.836 77.6613 157.34 77.336 156.764 77.112C156.198 76.8773 155.58 76.76 154.908 76.76C154.236 76.76 153.612 76.8773 153.036 77.112C152.46 77.336 151.958 77.6613 151.532 78.088C151.116 78.504 150.785 78.9947 150.539 79.56C150.305 80.1147 150.188 80.728 150.188 81.4C150.188 82.0613 150.305 82.6747 150.539 83.24C150.785 83.8053 151.116 84.3013 151.532 84.728C151.958 85.144 152.46 85.4693 153.036 85.704C153.612 85.928 154.236 86.04 154.908 86.04ZM167.481 78.52C168.164 78.52 168.761 78.6533 169.273 78.92C169.796 79.176 170.201 79.5707 170.489 80.104C170.788 80.6373 170.937 81.3093 170.937 82.12V87H169.801V82.232C169.801 81.3467 169.577 80.68 169.129 80.232C168.692 79.7733 168.073 79.544 167.273 79.544C166.676 79.544 166.153 79.6667 165.705 79.912C165.268 80.1467 164.927 80.4933 164.681 80.952C164.447 81.4 164.329 81.944 164.329 82.584V87H163.193V78.6H164.281V80.904L164.105 80.472C164.372 79.864 164.799 79.3893 165.385 79.048C165.972 78.696 166.671 78.52 167.481 78.52ZM183.457 87V85.144L183.409 84.84V81.736C183.409 81.0213 183.207 80.472 182.801 80.088C182.407 79.704 181.815 79.512 181.025 79.512C180.481 79.512 179.964 79.6027 179.473 79.784C178.983 79.9653 178.567 80.2053 178.225 80.504L177.713 79.656C178.14 79.2933 178.652 79.016 179.249 78.824C179.847 78.6213 180.476 78.52 181.137 78.52C182.225 78.52 183.063 78.792 183.649 79.336C184.247 79.8693 184.545 80.6853 184.545 81.784V87H183.457ZM180.561 87.08C179.932 87.08 179.383 86.9787 178.913 86.776C178.455 86.5627 178.103 86.2747 177.857 85.912C177.612 85.5387 177.489 85.112 177.489 84.632C177.489 84.1947 177.591 83.8 177.793 83.448C178.007 83.0853 178.348 82.7973 178.817 82.584C179.297 82.36 179.937 82.248 180.737 82.248H183.633V83.096H180.769C179.959 83.096 179.393 83.24 179.073 83.528C178.764 83.816 178.609 84.1733 178.609 84.6C178.609 85.08 178.796 85.464 179.169 85.752C179.543 86.04 180.065 86.184 180.737 86.184C181.377 86.184 181.927 86.04 182.385 85.752C182.855 85.4533 183.196 85.0267 183.409 84.472L183.665 85.256C183.452 85.8107 183.079 86.2533 182.545 86.584C182.023 86.9147 181.361 87.08 180.561 87.08ZM191.818 87V78.6H192.906V80.888L192.794 80.488C193.029 79.848 193.424 79.3627 193.978 79.032C194.533 78.6907 195.221 78.52 196.042 78.52V79.624C196 79.624 195.957 79.624 195.914 79.624C195.872 79.6133 195.829 79.608 195.786 79.608C194.901 79.608 194.208 79.88 193.706 80.424C193.205 80.9573 192.954 81.72 192.954 82.712V87H191.818ZM201.461 87.08C200.65 87.08 199.92 86.8987 199.269 86.536C198.629 86.1627 198.122 85.656 197.749 85.016C197.376 84.3653 197.189 83.624 197.189 82.792C197.189 81.9493 197.376 81.208 197.749 80.568C198.122 79.928 198.629 79.4267 199.269 79.064C199.909 78.7013 200.64 78.52 201.461 78.52C202.293 78.52 203.029 78.7013 203.669 79.064C204.32 79.4267 204.826 79.928 205.189 80.568C205.562 81.208 205.749 81.9493 205.749 82.792C205.749 83.624 205.562 84.3653 205.189 85.016C204.826 85.656 204.32 86.1627 203.669 86.536C203.018 86.8987 202.282 87.08 201.461 87.08ZM201.461 86.072C202.069 86.072 202.608 85.9387 203.077 85.672C203.546 85.3947 203.914 85.0107 204.181 84.52C204.458 84.0187 204.597 83.4427 204.597 82.792C204.597 82.1307 204.458 81.5547 204.181 81.064C203.914 80.5733 203.546 80.1947 203.077 79.928C202.608 79.6507 202.074 79.512 201.477 79.512C200.88 79.512 200.346 79.6507 199.877 79.928C199.408 80.1947 199.034 80.5733 198.757 81.064C198.48 81.5547 198.341 82.1307 198.341 82.792C198.341 83.4427 198.48 84.0187 198.757 84.52C199.034 85.0107 199.408 85.3947 199.877 85.672C200.346 85.9387 200.874 86.072 201.461 86.072ZM208.068 87V75.128H209.204V87H208.068ZM212.365 87V75.128H213.501V87H212.365ZM216.662 87V78.6H217.798V87H216.662ZM217.238 76.744C217.003 76.744 216.806 76.664 216.646 76.504C216.486 76.344 216.406 76.152 216.406 75.928C216.406 75.704 216.486 75.5173 216.646 75.368C216.806 75.208 217.003 75.128 217.238 75.128C217.473 75.128 217.67 75.2027 217.83 75.352C217.99 75.5013 218.07 75.688 218.07 75.912C218.07 76.1467 217.99 76.344 217.83 76.504C217.681 76.664 217.483 76.744 217.238 76.744ZM225.247 78.52C225.93 78.52 226.527 78.6533 227.039 78.92C227.562 79.176 227.967 79.5707 228.255 80.104C228.554 80.6373 228.703 81.3093 228.703 82.12V87H227.567V82.232C227.567 81.3467 227.343 80.68 226.895 80.232C226.458 79.7733 225.839 79.544 225.039 79.544C224.442 79.544 223.919 79.6667 223.471 79.912C223.034 80.1467 222.692 80.4933 222.447 80.952C222.212 81.4 222.095 81.944 222.095 82.584V87H220.959V78.6H222.047V80.904L221.871 80.472C222.138 79.864 222.564 79.3893 223.151 79.048C223.738 78.696 224.436 78.52 225.247 78.52ZM235.356 90.184C234.588 90.184 233.852 90.072 233.148 89.848C232.444 89.624 231.873 89.304 231.436 88.888L232.012 88.024C232.406 88.376 232.892 88.6533 233.468 88.856C234.054 89.0693 234.673 89.176 235.324 89.176C236.39 89.176 237.174 88.9253 237.676 88.424C238.177 87.9333 238.428 87.1653 238.428 86.12V84.024L238.588 82.584L238.476 81.144V78.6H239.564V85.976C239.564 87.4267 239.206 88.488 238.492 89.16C237.788 89.8427 236.742 90.184 235.356 90.184ZM235.148 86.68C234.348 86.68 233.628 86.5093 232.988 86.168C232.348 85.816 231.841 85.3307 231.468 84.712C231.105 84.0933 230.924 83.384 230.924 82.584C230.924 81.784 231.105 81.08 231.468 80.472C231.841 79.8533 232.348 79.3733 232.988 79.032C233.628 78.6907 234.348 78.52 235.148 78.52C235.894 78.52 236.566 78.6747 237.164 78.984C237.761 79.2933 238.236 79.752 238.588 80.36C238.94 80.968 239.116 81.7093 239.116 82.584C239.116 83.4587 238.94 84.2 238.588 84.808C238.236 85.416 237.761 85.88 237.164 86.2C236.566 86.52 235.894 86.68 235.148 86.68ZM235.26 85.672C235.878 85.672 236.428 85.544 236.908 85.288C237.388 85.0213 237.766 84.6587 238.044 84.2C238.321 83.7307 238.46 83.192 238.46 82.584C238.46 81.976 238.321 81.4427 238.044 80.984C237.766 80.5253 237.388 80.168 236.908 79.912C236.428 79.6453 235.878 79.512 235.26 79.512C234.652 79.512 234.102 79.6453 233.612 79.912C233.132 80.168 232.753 80.5253 232.476 80.984C232.209 81.4427 232.076 81.976 232.076 82.584C232.076 83.192 232.209 83.7307 232.476 84.2C232.753 84.6587 233.132 85.0213 233.612 85.288C234.102 85.544 234.652 85.672 235.26 85.672ZM251.248 87.08C250.512 87.08 249.851 86.9147 249.264 86.584C248.677 86.2427 248.213 85.752 247.872 85.112C247.531 84.472 247.36 83.6987 247.36 82.792C247.36 81.8747 247.531 81.1013 247.872 80.472C248.224 79.832 248.693 79.3467 249.28 79.016C249.867 78.6853 250.523 78.52 251.248 78.52C252.048 78.52 252.763 78.7013 253.392 79.064C254.032 79.416 254.533 79.912 254.896 80.552C255.259 81.192 255.44 81.9387 255.44 82.792C255.44 83.6347 255.259 84.3813 254.896 85.032C254.533 85.672 254.032 86.1733 253.392 86.536C252.763 86.8987 252.048 87.08 251.248 87.08ZM246.912 87V75.128H248.048V81.08L247.888 82.776L248 84.472V87H246.912ZM251.168 86.072C251.765 86.072 252.299 85.9387 252.768 85.672C253.237 85.3947 253.611 85.0107 253.888 84.52C254.165 84.0187 254.304 83.4427 254.304 82.792C254.304 82.1307 254.165 81.5547 253.888 81.064C253.611 80.5733 253.237 80.1947 252.768 79.928C252.299 79.6507 251.765 79.512 251.168 79.512C250.571 79.512 250.032 79.6507 249.552 79.928C249.083 80.1947 248.709 80.5733 248.432 81.064C248.165 81.5547 248.032 82.1307 248.032 82.792C248.032 83.4427 248.165 84.0187 248.432 84.52C248.709 85.0107 249.083 85.3947 249.552 85.672C250.032 85.9387 250.571 86.072 251.168 86.072ZM262.973 87V85.144L262.925 84.84V81.736C262.925 81.0213 262.722 80.472 262.317 80.088C261.922 79.704 261.33 79.512 260.541 79.512C259.997 79.512 259.48 79.6027 258.989 79.784C258.498 79.9653 258.082 80.2053 257.741 80.504L257.229 79.656C257.656 79.2933 258.168 79.016 258.765 78.824C259.362 78.6213 259.992 78.52 260.653 78.52C261.741 78.52 262.578 78.792 263.165 79.336C263.762 79.8693 264.061 80.6853 264.061 81.784V87H262.973ZM260.077 87.08C259.448 87.08 258.898 86.9787 258.429 86.776C257.97 86.5627 257.618 86.2747 257.373 85.912C257.128 85.5387 257.005 85.112 257.005 84.632C257.005 84.1947 257.106 83.8 257.309 83.448C257.522 83.0853 257.864 82.7973 258.333 82.584C258.813 82.36 259.453 82.248 260.253 82.248H263.149V83.096H260.285C259.474 83.096 258.909 83.24 258.589 83.528C258.28 83.816 258.125 84.1733 258.125 84.6C258.125 85.08 258.312 85.464 258.685 85.752C259.058 86.04 259.581 86.184 260.253 86.184C260.893 86.184 261.442 86.04 261.901 85.752C262.37 85.4533 262.712 85.0267 262.925 84.472L263.181 85.256C262.968 85.8107 262.594 86.2533 262.061 86.584C261.538 86.9147 260.877 87.08 260.077 87.08ZM269.403 87.08C268.709 87.08 268.053 86.984 267.435 86.792C266.816 86.5893 266.331 86.3387 265.979 86.04L266.491 85.144C266.832 85.4 267.269 85.624 267.803 85.816C268.336 85.9973 268.896 86.088 269.483 86.088C270.283 86.088 270.859 85.9653 271.211 85.72C271.563 85.464 271.739 85.128 271.739 84.712C271.739 84.4027 271.637 84.1627 271.435 83.992C271.243 83.8107 270.987 83.6773 270.667 83.592C270.347 83.496 269.989 83.416 269.595 83.352C269.2 83.288 268.805 83.2133 268.411 83.128C268.027 83.0427 267.675 82.92 267.355 82.76C267.035 82.5893 266.773 82.36 266.571 82.072C266.379 81.784 266.283 81.4 266.283 80.92C266.283 80.4613 266.411 80.0507 266.667 79.688C266.923 79.3253 267.296 79.0427 267.787 78.84C268.288 78.6267 268.896 78.52 269.611 78.52C270.155 78.52 270.699 78.5947 271.243 78.744C271.787 78.8827 272.235 79.0693 272.587 79.304L272.091 80.216C271.717 79.96 271.317 79.7787 270.891 79.672C270.464 79.5547 270.037 79.496 269.611 79.496C268.853 79.496 268.293 79.6293 267.931 79.896C267.579 80.152 267.403 80.4827 267.403 80.888C267.403 81.208 267.499 81.4587 267.691 81.64C267.893 81.8213 268.155 81.9653 268.475 82.072C268.805 82.168 269.163 82.248 269.547 82.312C269.941 82.376 270.331 82.456 270.715 82.552C271.109 82.6373 271.467 82.76 271.787 82.92C272.117 83.0693 272.379 83.288 272.571 83.576C272.773 83.8533 272.875 84.2213 272.875 84.68C272.875 85.1707 272.736 85.5973 272.459 85.96C272.192 86.312 271.797 86.5893 271.275 86.792C270.763 86.984 270.139 87.08 269.403 87.08ZM274.959 87V78.6H276.095V87H274.959ZM275.535 76.744C275.3 76.744 275.103 76.664 274.943 76.504C274.783 76.344 274.703 76.152 274.703 75.928C274.703 75.704 274.783 75.5173 274.943 75.368C275.103 75.208 275.3 75.128 275.535 75.128C275.77 75.128 275.967 75.2027 276.127 75.352C276.287 75.5013 276.367 75.688 276.367 75.912C276.367 76.1467 276.287 76.344 276.127 76.504C275.978 76.664 275.78 76.744 275.535 76.744ZM281.512 87.08C280.819 87.08 280.163 86.984 279.544 86.792C278.925 86.5893 278.44 86.3387 278.088 86.04L278.6 85.144C278.941 85.4 279.379 85.624 279.912 85.816C280.445 85.9973 281.005 86.088 281.592 86.088C282.392 86.088 282.968 85.9653 283.32 85.72C283.672 85.464 283.848 85.128 283.848 84.712C283.848 84.4027 283.747 84.1627 283.544 83.992C283.352 83.8107 283.096 83.6773 282.776 83.592C282.456 83.496 282.099 83.416 281.704 83.352C281.309 83.288 280.915 83.2133 280.52 83.128C280.136 83.0427 279.784 82.92 279.464 82.76C279.144 82.5893 278.883 82.36 278.68 82.072C278.488 81.784 278.392 81.4 278.392 80.92C278.392 80.4613 278.52 80.0507 278.776 79.688C279.032 79.3253 279.405 79.0427 279.896 78.84C280.397 78.6267 281.005 78.52 281.72 78.52C282.264 78.52 282.808 78.5947 283.352 78.744C283.896 78.8827 284.344 79.0693 284.696 79.304L284.2 80.216C283.827 79.96 283.427 79.7787 283 79.672C282.573 79.5547 282.147 79.496 281.72 79.496C280.963 79.496 280.403 79.6293 280.04 79.896C279.688 80.152 279.512 80.4827 279.512 80.888C279.512 81.208 279.608 81.4587 279.8 81.64C280.003 81.8213 280.264 81.9653 280.584 82.072C280.915 82.168 281.272 82.248 281.656 82.312C282.051 82.376 282.44 82.456 282.824 82.552C283.219 82.6373 283.576 82.76 283.896 82.92C284.227 83.0693 284.488 83.288 284.68 83.576C284.883 83.8533 284.984 84.2213 284.984 84.68C284.984 85.1707 284.845 85.5973 284.568 85.96C284.301 86.312 283.907 86.5893 283.384 86.792C282.872 86.984 282.248 87.08 281.512 87.08Z" fill="#F1EAE1"/>
<defs>
<filter id="filter0_d_207_284" x="0" y="0" width="443" height="138" filterUnits="userSpaceOnUse" color-interpolation-filters="sRGB">
<feFlood flood-opacity="0" result="BackgroundImageFix"/>
<feColorMatrix in="SourceAlpha" type="matrix" values="0 0 0 0 0 0 0 0 0 0 0 0 0 0 0 0 0 0 127 0" result="hardAlpha"/>
<feOffset dy="4"/>
<feGaussianBlur stdDeviation="2"/>
<feComposite in2="hardAlpha" operator="out"/>
<feColorMatrix type="matrix" values="0 0 0 0 0 0 0 0 0 0 0 0 0 0 0 0 0 0 0.25 0"/>
<feBlend mode="normal" in2="BackgroundImageFix" result="effect1_dropShadow_207_284"/>
<feBlend mode="normal" in="SourceGraphic" in2="effect1_dropShadow_207_284" result="shape"/>
</filter>
</defs>
</svg>
