<svg width="443" height="138" viewBox="0 0 443 138" fill="none" xmlns="http://www.w3.org/2000/svg">
<g filter="url(#filter0_d_180_216)">
<rect x="4" width="435" height="130" rx="20" fill="#2A2D39"/>
<rect x="4.375" y="0.375" width="434.25" height="129.25" rx="19.625" stroke="#F1EAE1" stroke-width="0.75"/>
</g>
<path d="M36.92 55L41.96 43.8H44.008L49.064 55H46.888L42.552 44.904H43.384L39.064 55H36.92ZM39.24 52.408L39.8 50.776H45.848L46.408 52.408H39.24ZM61.0804 46.36C61.763 46.36 62.3657 46.4933 62.8884 46.76C63.4217 47.0267 63.8377 47.4373 64.1364 47.992C64.435 48.536 64.5844 49.24 64.5844 50.104V55H62.5844V50.36C62.5844 49.6027 62.419 49.0373 62.0884 48.664C61.7577 48.2907 61.283 48.104 60.6644 48.104C60.227 48.104 59.8377 48.2 59.4964 48.392C59.1657 48.584 58.9044 48.8667 58.7124 49.24C58.531 49.6133 58.4404 50.088 58.4404 50.664V55H56.4404V50.36C56.4404 49.6027 56.275 49.0373 55.9444 48.664C55.6137 48.2907 55.139 48.104 54.5204 48.104C54.083 48.104 53.6937 48.2 53.3524 48.392C53.0217 48.584 52.7604 48.8667 52.5684 49.24C52.387 49.6133 52.2964 50.088 52.2964 50.664V55H50.2964V46.456H52.2004V48.728L51.8644 48.056C52.1524 47.5013 52.5684 47.08 53.1124 46.792C53.667 46.504 54.2964 46.36 55.0004 46.36C55.8004 46.36 56.4937 46.5573 57.0804 46.952C57.6777 47.3467 58.0724 47.944 58.2644 48.744L57.4804 48.472C57.7577 47.832 58.2164 47.32 58.8564 46.936C59.4964 46.552 60.2377 46.36 61.0804 46.36ZM70.9958 55.112C70.1211 55.112 69.3424 54.9253 68.6598 54.552C67.9771 54.168 67.4384 53.6453 67.0438 52.984C66.6491 52.3227 66.4518 51.5707 66.4518 50.728C66.4518 49.8747 66.6491 49.1227 67.0438 48.472C67.4384 47.8107 67.9771 47.2933 68.6598 46.92C69.3424 46.5467 70.1211 46.36 70.9958 46.36C71.8811 46.36 72.6651 46.5467 73.3478 46.92C74.0411 47.2933 74.5798 47.8053 74.9638 48.456C75.3584 49.1067 75.5558 49.864 75.5558 50.728C75.5558 51.5707 75.3584 52.3227 74.9638 52.984C74.5798 53.6453 74.0411 54.168 73.3478 54.552C72.6651 54.9253 71.8811 55.112 70.9958 55.112ZM70.9958 53.4C71.4864 53.4 71.9238 53.2933 72.3078 53.08C72.6918 52.8667 72.9904 52.5573 73.2038 52.152C73.4278 51.7467 73.5398 51.272 73.5398 50.728C73.5398 50.1733 73.4278 49.6987 73.2038 49.304C72.9904 48.8987 72.6918 48.5893 72.3078 48.376C71.9238 48.1627 71.4918 48.056 71.0118 48.056C70.5211 48.056 70.0838 48.1627 69.6998 48.376C69.3264 48.5893 69.0278 48.8987 68.8038 49.304C68.5798 49.6987 68.4678 50.1733 68.4678 50.728C68.4678 51.272 68.5798 51.7467 68.8038 52.152C69.0278 52.5573 69.3264 52.8667 69.6998 53.08C70.0838 53.2933 70.5158 53.4 70.9958 53.4ZM81.0843 55.112C80.3589 55.112 79.7189 54.9787 79.1643 54.712C78.6096 54.4347 78.1776 54.0187 77.8683 53.464C77.5589 52.8987 77.4043 52.1893 77.4043 51.336V46.456H79.4043V51.064C79.4043 51.832 79.5749 52.408 79.9163 52.792C80.2683 53.1653 80.7643 53.352 81.4043 53.352C81.8736 53.352 82.2789 53.256 82.6203 53.064C82.9723 52.872 83.2443 52.584 83.4363 52.2C83.6389 51.816 83.7403 51.3413 83.7403 50.776V46.456H85.7403V55H83.8363V52.696L84.1723 53.4C83.8843 53.9547 83.4629 54.3813 82.9083 54.68C82.3536 54.968 81.7456 55.112 81.0843 55.112ZM93.2069 46.36C93.8895 46.36 94.4975 46.4933 95.0309 46.76C95.5749 47.0267 96.0015 47.4373 96.3109 47.992C96.6202 48.536 96.7749 49.24 96.7749 50.104V55H94.7749V50.36C94.7749 49.6027 94.5935 49.0373 94.2309 48.664C93.8789 48.2907 93.3829 48.104 92.7429 48.104C92.2735 48.104 91.8575 48.2 91.4949 48.392C91.1322 48.584 90.8495 48.872 90.6469 49.256C90.4549 49.6293 90.3589 50.104 90.3589 50.68V55H88.3589V46.456H90.2629V48.76L89.9269 48.056C90.2255 47.512 90.6575 47.096 91.2229 46.808C91.7989 46.5093 92.4602 46.36 93.2069 46.36ZM102.528 55.112C101.589 55.112 100.864 54.872 100.352 54.392C99.84 53.9013 99.584 53.1813 99.584 52.232V44.568H101.584V52.184C101.584 52.5893 101.685 52.904 101.888 53.128C102.101 53.352 102.395 53.464 102.768 53.464C103.216 53.464 103.589 53.3467 103.888 53.112L104.448 54.536C104.213 54.728 103.925 54.872 103.584 54.968C103.243 55.064 102.891 55.112 102.528 55.112ZM98.176 48.12V46.52H103.872V48.12H98.176ZM106.733 49.016C106.371 49.016 106.061 48.8933 105.805 48.648C105.549 48.392 105.421 48.072 105.421 47.688C105.421 47.2827 105.549 46.9627 105.805 46.728C106.061 46.4827 106.371 46.36 106.733 46.36C107.096 46.36 107.405 46.4827 107.661 46.728C107.917 46.9627 108.045 47.2827 108.045 47.688C108.045 48.072 107.917 48.392 107.661 48.648C107.405 48.8933 107.096 49.016 106.733 49.016ZM106.733 55.112C106.371 55.112 106.061 54.9893 105.805 54.744C105.549 54.488 105.421 54.168 105.421 53.784C105.421 53.3787 105.549 53.0587 105.805 52.824C106.061 52.5787 106.371 52.456 106.733 52.456C107.096 52.456 107.405 52.5787 107.661 52.824C107.917 53.0587 108.045 53.3787 108.045 53.784C108.045 54.168 107.917 54.488 107.661 54.744C107.405 54.9893 107.096 55.112 106.733 55.112ZM118.197 55.096C117.301 55.096 116.528 54.968 115.877 54.712C115.237 54.456 114.741 54.088 114.389 53.608C114.048 53.1173 113.877 52.5413 113.877 51.88C113.877 51.24 114.043 50.696 114.373 50.248C114.715 49.7893 115.205 49.4373 115.845 49.192C116.496 48.9467 117.28 48.824 118.197 48.824C119.104 48.824 119.883 48.9467 120.533 49.192C121.184 49.4373 121.68 49.7893 122.021 50.248C122.373 50.696 122.549 51.24 122.549 51.88C122.549 52.5413 122.373 53.1173 122.021 53.608C121.669 54.088 121.168 54.456 120.517 54.712C119.867 54.968 119.093 55.096 118.197 55.096ZM118.197 54.12C119.189 54.12 119.963 53.9173 120.517 53.512C121.083 53.1067 121.365 52.5573 121.365 51.864C121.365 51.1707 121.083 50.6267 120.517 50.232C119.963 49.8267 119.189 49.624 118.197 49.624C117.205 49.624 116.432 49.8267 115.877 50.232C115.323 50.6267 115.045 51.1707 115.045 51.864C115.045 52.5573 115.323 53.1067 115.877 53.512C116.432 53.9173 117.205 54.12 118.197 54.12ZM118.197 49.48C117.365 49.48 116.656 49.368 116.069 49.144C115.493 48.92 115.051 48.6 114.741 48.184C114.432 47.7573 114.277 47.2507 114.277 46.664C114.277 46.0453 114.437 45.5173 114.757 45.08C115.088 44.632 115.547 44.2907 116.133 44.056C116.72 43.8213 117.408 43.704 118.197 43.704C118.987 43.704 119.675 43.8213 120.261 44.056C120.859 44.2907 121.323 44.632 121.653 45.08C121.984 45.5173 122.149 46.0453 122.149 46.664C122.149 47.2507 121.995 47.7573 121.685 48.184C121.376 48.6 120.923 48.92 120.325 49.144C119.739 49.368 119.029 49.48 118.197 49.48ZM118.197 48.712C119.072 48.712 119.755 48.5307 120.245 48.168C120.736 47.8053 120.981 47.32 120.981 46.712C120.981 46.072 120.725 45.576 120.213 45.224C119.712 44.8613 119.04 44.68 118.197 44.68C117.355 44.68 116.683 44.8613 116.181 45.224C115.68 45.576 115.429 46.0667 115.429 46.696C115.429 47.3147 115.669 47.8053 116.149 48.168C116.64 48.5307 117.323 48.712 118.197 48.712ZM135.393 46.52C136.075 46.52 136.667 46.6533 137.169 46.92C137.681 47.176 138.075 47.5707 138.353 48.104C138.641 48.6373 138.785 49.3093 138.785 50.12V55H137.649V50.232C137.649 49.3467 137.435 48.68 137.009 48.232C136.593 47.7733 136.001 47.544 135.233 47.544C134.657 47.544 134.155 47.6667 133.729 47.912C133.313 48.1467 132.987 48.4933 132.753 48.952C132.529 49.4 132.417 49.944 132.417 50.584V55H131.281V50.232C131.281 49.3467 131.067 48.68 130.641 48.232C130.214 47.7733 129.617 47.544 128.849 47.544C128.283 47.544 127.787 47.6667 127.361 47.912C126.934 48.1467 126.603 48.4933 126.369 48.952C126.145 49.4 126.033 49.944 126.033 50.584V55H124.897V46.6H125.985V48.872L125.809 48.472C126.065 47.864 126.475 47.3893 127.041 47.048C127.617 46.696 128.294 46.52 129.073 46.52C129.894 46.52 130.593 46.728 131.169 47.144C131.745 47.5493 132.118 48.1627 132.289 48.984L131.841 48.808C132.086 48.1253 132.518 47.576 133.137 47.16C133.766 46.7333 134.518 46.52 135.393 46.52ZM151.189 55.096C150.346 55.096 149.562 54.9573 148.837 54.68C148.122 54.392 147.498 53.992 146.965 53.48C146.442 52.9573 146.031 52.3547 145.733 51.672C145.445 50.9787 145.301 50.2213 145.301 49.4C145.301 48.5787 145.445 47.8267 145.733 47.144C146.031 46.4507 146.442 45.848 146.965 45.336C147.498 44.8133 148.122 44.4133 148.837 44.136C149.551 43.848 150.335 43.704 151.189 43.704C152.031 43.704 152.81 43.848 153.525 44.136C154.239 44.4133 154.858 44.808 155.381 45.32C155.914 45.832 156.325 46.4347 156.613 47.128C156.911 47.8213 157.061 48.5787 157.061 49.4C157.061 50.2213 156.911 50.9787 156.613 51.672C156.325 52.3653 155.914 52.968 155.381 53.48C154.858 53.992 154.239 54.392 153.525 54.68C152.81 54.9573 152.031 55.096 151.189 55.096ZM151.189 54.04C151.861 54.04 152.479 53.928 153.045 53.704C153.621 53.4693 154.117 53.144 154.533 52.728C154.959 52.3013 155.29 51.8107 155.525 51.256C155.759 50.6907 155.877 50.072 155.877 49.4C155.877 48.728 155.759 48.1147 155.525 47.56C155.29 46.9947 154.959 46.504 154.533 46.088C154.117 45.6613 153.621 45.336 153.045 45.112C152.479 44.8773 151.861 44.76 151.189 44.76C150.517 44.76 149.893 44.8773 149.317 45.112C148.741 45.336 148.239 45.6613 147.813 46.088C147.397 46.504 147.066 46.9947 146.821 47.56C146.586 48.1147 146.469 48.728 146.469 49.4C146.469 50.0613 146.586 50.6747 146.821 51.24C147.066 51.8053 147.397 52.3013 147.813 52.728C148.239 53.144 148.741 53.4693 149.317 53.704C149.893 53.928 150.517 54.04 151.189 54.04ZM159.715 55V43.8H163.907C164.856 43.8 165.672 43.9547 166.355 44.264C167.037 44.5627 167.56 45 167.923 45.576C168.296 46.1413 168.483 46.8293 168.483 47.64C168.483 48.4293 168.296 49.112 167.923 49.688C167.56 50.2533 167.037 50.6907 166.355 51C165.672 51.3093 164.856 51.464 163.907 51.464H160.371L160.899 50.904V55H159.715ZM160.899 51L160.371 50.424H163.875C164.995 50.424 165.843 50.184 166.419 49.704C167.005 49.2133 167.299 48.5253 167.299 47.64C167.299 46.744 167.005 46.0507 166.419 45.56C165.843 45.0693 164.995 44.824 163.875 44.824H160.371L160.899 44.264V51ZM178.491 55.08C177.691 55.08 176.971 54.8987 176.331 54.536C175.701 54.1733 175.205 53.672 174.843 53.032C174.48 52.3813 174.299 51.6347 174.299 50.792C174.299 49.9387 174.48 49.192 174.843 48.552C175.205 47.912 175.701 47.416 176.331 47.064C176.971 46.7013 177.691 46.52 178.491 46.52C179.227 46.52 179.883 46.6853 180.459 47.016C181.045 47.3467 181.509 47.832 181.851 48.472C182.203 49.1013 182.378 49.8747 182.378 50.792C182.378 51.6987 182.208 52.472 181.867 53.112C181.525 53.752 181.061 54.2427 180.475 54.584C179.899 54.9147 179.237 55.08 178.491 55.08ZM178.571 54.072C179.168 54.072 179.701 53.9387 180.171 53.672C180.651 53.3947 181.024 53.0107 181.291 52.52C181.568 52.0187 181.707 51.4427 181.707 50.792C181.707 50.1307 181.568 49.5547 181.291 49.064C181.024 48.5733 180.651 48.1947 180.171 47.928C179.701 47.6507 179.168 47.512 178.571 47.512C177.984 47.512 177.456 47.6507 176.987 47.928C176.517 48.1947 176.144 48.5733 175.867 49.064C175.589 49.5547 175.451 50.1307 175.451 50.792C175.451 51.4427 175.589 52.0187 175.867 52.52C176.144 53.0107 176.517 53.3947 176.987 53.672C177.456 53.9387 177.984 54.072 178.571 54.072ZM181.739 55V52.472L181.851 50.776L181.691 49.08V43.128H182.827V55H181.739ZM185.99 55V46.6H187.126V55H185.99ZM186.566 44.744C186.332 44.744 186.134 44.664 185.974 44.504C185.814 44.344 185.734 44.152 185.734 43.928C185.734 43.704 185.814 43.5173 185.974 43.368C186.134 43.208 186.332 43.128 186.566 43.128C186.801 43.128 186.998 43.2027 187.158 43.352C187.318 43.5013 187.398 43.688 187.398 43.912C187.398 44.1467 187.318 44.344 187.158 44.504C187.009 44.664 186.812 44.744 186.566 44.744ZM192.543 55.08C191.85 55.08 191.194 54.984 190.575 54.792C189.956 54.5893 189.471 54.3387 189.119 54.04L189.631 53.144C189.972 53.4 190.41 53.624 190.943 53.816C191.476 53.9973 192.036 54.088 192.623 54.088C193.423 54.088 193.999 53.9653 194.351 53.72C194.703 53.464 194.879 53.128 194.879 52.712C194.879 52.4027 194.778 52.1627 194.575 51.992C194.383 51.8107 194.127 51.6773 193.807 51.592C193.487 51.496 193.13 51.416 192.735 51.352C192.34 51.288 191.946 51.2133 191.551 51.128C191.167 51.0427 190.815 50.92 190.495 50.76C190.175 50.5893 189.914 50.36 189.711 50.072C189.519 49.784 189.423 49.4 189.423 48.92C189.423 48.4613 189.551 48.0507 189.807 47.688C190.063 47.3253 190.436 47.0427 190.927 46.84C191.428 46.6267 192.036 46.52 192.751 46.52C193.295 46.52 193.839 46.5947 194.383 46.744C194.927 46.8827 195.375 47.0693 195.727 47.304L195.231 48.216C194.858 47.96 194.458 47.7787 194.031 47.672C193.604 47.5547 193.178 47.496 192.751 47.496C191.994 47.496 191.434 47.6293 191.071 47.896C190.719 48.152 190.543 48.4827 190.543 48.888C190.543 49.208 190.639 49.4587 190.831 49.64C191.034 49.8213 191.295 49.9653 191.615 50.072C191.946 50.168 192.303 50.248 192.687 50.312C193.082 50.376 193.471 50.456 193.855 50.552C194.25 50.6373 194.607 50.76 194.927 50.92C195.258 51.0693 195.519 51.288 195.711 51.576C195.914 51.8533 196.015 52.2213 196.015 52.68C196.015 53.1707 195.876 53.5973 195.599 53.96C195.332 54.312 194.938 54.5893 194.415 54.792C193.903 54.984 193.279 55.08 192.543 55.08ZM200.756 55.08C199.966 55.08 199.358 54.8667 198.932 54.44C198.505 54.0133 198.292 53.4107 198.292 52.632V44.744H199.428V52.568C199.428 53.0587 199.55 53.4373 199.796 53.704C200.052 53.9707 200.414 54.104 200.884 54.104C201.385 54.104 201.801 53.96 202.132 53.672L202.532 54.488C202.308 54.6907 202.036 54.84 201.716 54.936C201.406 55.032 201.086 55.08 200.756 55.08ZM196.788 47.544V46.6H201.988V47.544H196.788ZM204.6 55V46.6H205.688V48.888L205.576 48.488C205.81 47.848 206.205 47.3627 206.76 47.032C207.314 46.6907 208.002 46.52 208.824 46.52V47.624C208.781 47.624 208.738 47.624 208.696 47.624C208.653 47.6133 208.61 47.608 208.568 47.608C207.682 47.608 206.989 47.88 206.488 48.424C205.986 48.9573 205.736 49.72 205.736 50.712V55H204.6ZM210.897 55V46.6H212.033V55H210.897ZM211.473 44.744C211.238 44.744 211.041 44.664 210.881 44.504C210.721 44.344 210.641 44.152 210.641 43.928C210.641 43.704 210.721 43.5173 210.881 43.368C211.041 43.208 211.238 43.128 211.473 43.128C211.707 43.128 211.905 43.2027 212.065 43.352C212.225 43.5013 212.305 43.688 212.305 43.912C212.305 44.1467 212.225 44.344 212.065 44.504C211.915 44.664 211.718 44.744 211.473 44.744ZM219.529 55.08C218.793 55.08 218.132 54.9147 217.545 54.584C216.959 54.2427 216.495 53.752 216.153 53.112C215.812 52.472 215.641 51.6987 215.641 50.792C215.641 49.8747 215.812 49.1013 216.153 48.472C216.505 47.832 216.975 47.3467 217.561 47.016C218.148 46.6853 218.804 46.52 219.529 46.52C220.329 46.52 221.044 46.7013 221.673 47.064C222.313 47.416 222.815 47.912 223.177 48.552C223.54 49.192 223.721 49.9387 223.721 50.792C223.721 51.6347 223.54 52.3813 223.177 53.032C222.815 53.672 222.313 54.1733 221.673 54.536C221.044 54.8987 220.329 55.08 219.529 55.08ZM215.193 55V43.128H216.329V49.08L216.169 50.776L216.281 52.472V55H215.193ZM219.449 54.072C220.047 54.072 220.58 53.9387 221.049 53.672C221.519 53.3947 221.892 53.0107 222.169 52.52C222.447 52.0187 222.585 51.4427 222.585 50.792C222.585 50.1307 222.447 49.5547 222.169 49.064C221.892 48.5733 221.519 48.1947 221.049 47.928C220.58 47.6507 220.047 47.512 219.449 47.512C218.852 47.512 218.313 47.6507 217.833 47.928C217.364 48.1947 216.991 48.5733 216.713 49.064C216.447 49.5547 216.313 50.1307 216.313 50.792C216.313 51.4427 216.447 52.0187 216.713 52.52C216.991 53.0107 217.364 53.3947 217.833 53.672C218.313 53.9387 218.852 54.072 219.449 54.072ZM229.509 55.08C228.794 55.08 228.17 54.9467 227.637 54.68C227.104 54.4133 226.688 54.0133 226.389 53.48C226.101 52.9467 225.957 52.28 225.957 51.48V46.6H227.093V51.352C227.093 52.248 227.312 52.9253 227.749 53.384C228.197 53.832 228.821 54.056 229.621 54.056C230.208 54.056 230.714 53.9387 231.141 53.704C231.578 53.4587 231.909 53.1067 232.133 52.648C232.368 52.1893 232.485 51.64 232.485 51V46.6H233.621V55H232.533V52.696L232.709 53.112C232.442 53.7307 232.026 54.216 231.461 54.568C230.906 54.9093 230.256 55.08 229.509 55.08ZM239.443 55.08C238.654 55.08 238.046 54.8667 237.619 54.44C237.192 54.0133 236.979 53.4107 236.979 52.632V44.744H238.115V52.568C238.115 53.0587 238.238 53.4373 238.483 53.704C238.739 53.9707 239.102 54.104 239.571 54.104C240.072 54.104 240.488 53.96 240.819 53.672L241.219 54.488C240.995 54.6907 240.723 54.84 240.403 54.936C240.094 55.032 239.774 55.08 239.443 55.08ZM235.475 47.544V46.6H240.675V47.544H235.475ZM246.558 55.08C245.684 55.08 244.916 54.8987 244.254 54.536C243.593 54.1627 243.076 53.656 242.702 53.016C242.329 52.3653 242.142 51.624 242.142 50.792C242.142 49.96 242.318 49.224 242.67 48.584C243.033 47.944 243.524 47.4427 244.142 47.08C244.772 46.7067 245.476 46.52 246.254 46.52C247.044 46.52 247.742 46.7013 248.35 47.064C248.969 47.416 249.454 47.9173 249.806 48.568C250.158 49.208 250.334 49.9493 250.334 50.792C250.334 50.8453 250.329 50.904 250.318 50.968C250.318 51.0213 250.318 51.08 250.318 51.144H243.006V50.296H249.71L249.262 50.632C249.262 50.024 249.129 49.4853 248.862 49.016C248.606 48.536 248.254 48.1627 247.806 47.896C247.358 47.6293 246.841 47.496 246.254 47.496C245.678 47.496 245.161 47.6293 244.702 47.896C244.244 48.1627 243.886 48.536 243.63 49.016C243.374 49.496 243.246 50.0453 243.246 50.664V50.84C243.246 51.48 243.385 52.0453 243.662 52.536C243.95 53.016 244.345 53.3947 244.846 53.672C245.358 53.9387 245.94 54.072 246.59 54.072C247.102 54.072 247.577 53.9813 248.014 53.8C248.462 53.6187 248.846 53.3413 249.166 52.968L249.806 53.704C249.433 54.152 248.964 54.4933 248.398 54.728C247.844 54.9627 247.23 55.08 246.558 55.08ZM255.991 55.08C255.191 55.08 254.471 54.8987 253.831 54.536C253.201 54.1733 252.705 53.672 252.343 53.032C251.98 52.3813 251.799 51.6347 251.799 50.792C251.799 49.9387 251.98 49.192 252.343 48.552C252.705 47.912 253.201 47.416 253.831 47.064C254.471 46.7013 255.191 46.52 255.991 46.52C256.727 46.52 257.383 46.6853 257.959 47.016C258.545 47.3467 259.009 47.832 259.351 48.472C259.703 49.1013 259.878 49.8747 259.878 50.792C259.878 51.6987 259.708 52.472 259.367 53.112C259.025 53.752 258.561 54.2427 257.975 54.584C257.399 54.9147 256.737 55.08 255.991 55.08ZM256.071 54.072C256.668 54.072 257.201 53.9387 257.671 53.672C258.151 53.3947 258.524 53.0107 258.791 52.52C259.068 52.0187 259.207 51.4427 259.207 50.792C259.207 50.1307 259.068 49.5547 258.791 49.064C258.524 48.5733 258.151 48.1947 257.671 47.928C257.201 47.6507 256.668 47.512 256.071 47.512C255.484 47.512 254.956 47.6507 254.487 47.928C254.017 48.1947 253.644 48.5733 253.367 49.064C253.089 49.5547 252.951 50.1307 252.951 50.792C252.951 51.4427 253.089 52.0187 253.367 52.52C253.644 53.0107 254.017 53.3947 254.487 53.672C254.956 53.9387 255.484 54.072 256.071 54.072ZM259.239 55V52.472L259.351 50.776L259.191 49.08V43.128H260.327V55H259.239ZM267.678 55V46.6H268.814V55H267.678ZM268.254 44.744C268.019 44.744 267.822 44.664 267.662 44.504C267.502 44.344 267.422 44.152 267.422 43.928C267.422 43.704 267.502 43.5173 267.662 43.368C267.822 43.208 268.019 43.128 268.254 43.128C268.488 43.128 268.686 43.2027 268.846 43.352C269.006 43.5013 269.086 43.688 269.086 43.912C269.086 44.1467 269.006 44.344 268.846 44.504C268.696 44.664 268.499 44.744 268.254 44.744ZM276.263 46.52C276.945 46.52 277.543 46.6533 278.055 46.92C278.577 47.176 278.983 47.5707 279.271 48.104C279.569 48.6373 279.719 49.3093 279.719 50.12V55H278.583V50.232C278.583 49.3467 278.359 48.68 277.911 48.232C277.473 47.7733 276.855 47.544 276.055 47.544C275.457 47.544 274.935 47.6667 274.487 47.912C274.049 48.1467 273.708 48.4933 273.463 48.952C273.228 49.4 273.111 49.944 273.111 50.584V55H271.975V46.6H273.063V48.904L272.887 48.472C273.153 47.864 273.58 47.3893 274.167 47.048C274.753 46.696 275.452 46.52 276.263 46.52ZM289.631 55.08C288.841 55.08 288.233 54.8667 287.807 54.44C287.38 54.0133 287.167 53.4107 287.167 52.632V44.744H288.303V52.568C288.303 53.0587 288.425 53.4373 288.671 53.704C288.927 53.9707 289.289 54.104 289.759 54.104C290.26 54.104 290.676 53.96 291.007 53.672L291.407 54.488C291.183 54.6907 290.911 54.84 290.591 54.936C290.281 55.032 289.961 55.08 289.631 55.08ZM285.663 47.544V46.6H290.863V47.544H285.663ZM297.763 46.52C298.445 46.52 299.043 46.6533 299.555 46.92C300.077 47.176 300.483 47.5707 300.771 48.104C301.069 48.6373 301.219 49.3093 301.219 50.12V55H300.083V50.232C300.083 49.3467 299.859 48.68 299.411 48.232C298.973 47.7733 298.355 47.544 297.555 47.544C296.957 47.544 296.435 47.6667 295.987 47.912C295.549 48.1467 295.208 48.4933 294.963 48.952C294.728 49.4 294.611 49.944 294.611 50.584V55H293.475V43.128H294.611V48.904L294.387 48.472C294.653 47.864 295.08 47.3893 295.667 47.048C296.253 46.696 296.952 46.52 297.763 46.52ZM307.855 55.08C306.98 55.08 306.212 54.8987 305.551 54.536C304.89 54.1627 304.372 53.656 303.999 53.016C303.626 52.3653 303.439 51.624 303.439 50.792C303.439 49.96 303.615 49.224 303.967 48.584C304.33 47.944 304.82 47.4427 305.439 47.08C306.068 46.7067 306.772 46.52 307.551 46.52C308.34 46.52 309.039 46.7013 309.647 47.064C310.266 47.416 310.751 47.9173 311.103 48.568C311.455 49.208 311.631 49.9493 311.631 50.792C311.631 50.8453 311.626 50.904 311.615 50.968C311.615 51.0213 311.615 51.08 311.615 51.144H304.303V50.296H311.007L310.559 50.632C310.559 50.024 310.426 49.4853 310.159 49.016C309.903 48.536 309.551 48.1627 309.103 47.896C308.655 47.6293 308.138 47.496 307.551 47.496C306.975 47.496 306.458 47.6293 305.999 47.896C305.54 48.1627 305.183 48.536 304.927 49.016C304.671 49.496 304.543 50.0453 304.543 50.664V50.84C304.543 51.48 304.682 52.0453 304.959 52.536C305.247 53.016 305.642 53.3947 306.143 53.672C306.655 53.9387 307.236 54.072 307.887 54.072C308.399 54.072 308.874 53.9813 309.311 53.8C309.759 53.6187 310.143 53.3413 310.463 52.968L311.103 53.704C310.73 54.152 310.26 54.4933 309.695 54.728C309.14 54.9627 308.527 55.08 307.855 55.08ZM318.131 55V46.6H319.219V48.888L319.107 48.488C319.342 47.848 319.736 47.3627 320.291 47.032C320.846 46.6907 321.534 46.52 322.355 46.52V47.624C322.312 47.624 322.27 47.624 322.227 47.624C322.184 47.6133 322.142 47.608 322.099 47.608C321.214 47.608 320.52 47.88 320.019 48.424C319.518 48.9573 319.267 49.72 319.267 50.712V55H318.131ZM327.774 55.08C326.963 55.08 326.232 54.8987 325.582 54.536C324.942 54.1627 324.435 53.656 324.062 53.016C323.688 52.3653 323.502 51.624 323.502 50.792C323.502 49.9493 323.688 49.208 324.062 48.568C324.435 47.928 324.942 47.4267 325.582 47.064C326.222 46.7013 326.952 46.52 327.774 46.52C328.606 46.52 329.342 46.7013 329.982 47.064C330.632 47.4267 331.139 47.928 331.502 48.568C331.875 49.208 332.062 49.9493 332.062 50.792C332.062 51.624 331.875 52.3653 331.502 53.016C331.139 53.656 330.632 54.1627 329.982 54.536C329.331 54.8987 328.595 55.08 327.774 55.08ZM327.774 54.072C328.382 54.072 328.92 53.9387 329.39 53.672C329.859 53.3947 330.227 53.0107 330.494 52.52C330.771 52.0187 330.91 51.4427 330.91 50.792C330.91 50.1307 330.771 49.5547 330.494 49.064C330.227 48.5733 329.859 48.1947 329.39 47.928C328.92 47.6507 328.387 47.512 327.79 47.512C327.192 47.512 326.659 47.6507 326.19 47.928C325.72 48.1947 325.347 48.5733 325.07 49.064C324.792 49.5547 324.654 50.1307 324.654 50.792C324.654 51.4427 324.792 52.0187 325.07 52.52C325.347 53.0107 325.72 53.3947 326.19 53.672C326.659 53.9387 327.187 54.072 327.774 54.072ZM337.853 55.08C337.138 55.08 336.514 54.9467 335.981 54.68C335.448 54.4133 335.032 54.0133 334.733 53.48C334.445 52.9467 334.301 52.28 334.301 51.48V46.6H335.437V51.352C335.437 52.248 335.656 52.9253 336.093 53.384C336.541 53.832 337.165 54.056 337.965 54.056C338.552 54.056 339.058 53.9387 339.485 53.704C339.922 53.4587 340.253 53.1067 340.477 52.648C340.712 52.1893 340.829 51.64 340.829 51V46.6H341.965V55H340.877V52.696L341.053 53.112C340.786 53.7307 340.37 54.216 339.805 54.568C339.25 54.9093 338.6 55.08 337.853 55.08ZM349.419 46.52C350.102 46.52 350.699 46.6533 351.211 46.92C351.734 47.176 352.139 47.5707 352.427 48.104C352.726 48.6373 352.875 49.3093 352.875 50.12V55H351.739V50.232C351.739 49.3467 351.515 48.68 351.067 48.232C350.63 47.7733 350.011 47.544 349.211 47.544C348.614 47.544 348.091 47.6667 347.643 47.912C347.206 48.1467 346.864 48.4933 346.619 48.952C346.384 49.4 346.267 49.944 346.267 50.584V55H345.131V46.6H346.219V48.904L346.043 48.472C346.31 47.864 346.736 47.3893 347.323 47.048C347.91 46.696 348.608 46.52 349.419 46.52ZM359.287 55.08C358.487 55.08 357.767 54.8987 357.127 54.536C356.498 54.1733 356.002 53.672 355.639 53.032C355.277 52.3813 355.095 51.6347 355.095 50.792C355.095 49.9387 355.277 49.192 355.639 48.552C356.002 47.912 356.498 47.416 357.127 47.064C357.767 46.7013 358.487 46.52 359.287 46.52C360.023 46.52 360.679 46.6853 361.255 47.016C361.842 47.3467 362.306 47.832 362.647 48.472C362.999 49.1013 363.175 49.8747 363.175 50.792C363.175 51.6987 363.005 52.472 362.663 53.112C362.322 53.752 361.858 54.2427 361.271 54.584C360.695 54.9147 360.034 55.08 359.287 55.08ZM359.367 54.072C359.965 54.072 360.498 53.9387 360.967 53.672C361.447 53.3947 361.821 53.0107 362.087 52.52C362.365 52.0187 362.503 51.4427 362.503 50.792C362.503 50.1307 362.365 49.5547 362.087 49.064C361.821 48.5733 361.447 48.1947 360.967 47.928C360.498 47.6507 359.965 47.512 359.367 47.512C358.781 47.512 358.253 47.6507 357.783 47.928C357.314 48.1947 356.941 48.5733 356.663 49.064C356.386 49.5547 356.247 50.1307 356.247 50.792C356.247 51.4427 356.386 52.0187 356.663 52.52C356.941 53.0107 357.314 53.3947 357.783 53.672C358.253 53.9387 358.781 54.072 359.367 54.072ZM362.535 55V52.472L362.647 50.776L362.487 49.08V43.128H363.623V55H362.535Z" fill="#F1EAE1"/>
<path d="M36.92 87L41.96 75.8H44.008L49.064 87H46.888L42.552 76.904H43.384L39.064 87H36.92ZM39.24 84.408L39.8 82.776H45.848L46.408 84.408H39.24ZM55.0324 87.112C54.339 87.112 53.7044 86.952 53.1284 86.632C52.563 86.312 52.1097 85.832 51.7684 85.192C51.4377 84.5413 51.2724 83.72 51.2724 82.728C51.2724 81.7253 51.4324 80.904 51.7524 80.264C52.083 79.624 52.531 79.1493 53.0964 78.84C53.6617 78.52 54.307 78.36 55.0324 78.36C55.875 78.36 56.6164 78.5413 57.2564 78.904C57.907 79.2667 58.419 79.7733 58.7924 80.424C59.1764 81.0747 59.3684 81.8427 59.3684 82.728C59.3684 83.6133 59.1764 84.3867 58.7924 85.048C58.419 85.6987 57.907 86.2053 57.2564 86.568C56.6164 86.9307 55.875 87.112 55.0324 87.112ZM50.2964 90.104V78.456H52.2004V80.472L52.1364 82.744L52.2964 85.016V90.104H50.2964ZM54.8084 85.4C55.2884 85.4 55.715 85.2933 56.0884 85.08C56.4724 84.8667 56.7764 84.5573 57.0004 84.152C57.2244 83.7467 57.3364 83.272 57.3364 82.728C57.3364 82.1733 57.2244 81.6987 57.0004 81.304C56.7764 80.8987 56.4724 80.5893 56.0884 80.376C55.715 80.1627 55.2884 80.056 54.8084 80.056C54.3284 80.056 53.8964 80.1627 53.5124 80.376C53.1284 80.5893 52.8244 80.8987 52.6004 81.304C52.3764 81.6987 52.2644 82.1733 52.2644 82.728C52.2644 83.272 52.3764 83.7467 52.6004 84.152C52.8244 84.5573 53.1284 84.8667 53.5124 85.08C53.8964 85.2933 54.3284 85.4 54.8084 85.4ZM66.0011 87.112C65.3078 87.112 64.6731 86.952 64.0971 86.632C63.5318 86.312 63.0785 85.832 62.7371 85.192C62.4065 84.5413 62.2411 83.72 62.2411 82.728C62.2411 81.7253 62.4011 80.904 62.7211 80.264C63.0518 79.624 63.4998 79.1493 64.0651 78.84C64.6305 78.52 65.2758 78.36 66.0011 78.36C66.8438 78.36 67.5851 78.5413 68.2251 78.904C68.8758 79.2667 69.3878 79.7733 69.7611 80.424C70.1451 81.0747 70.3371 81.8427 70.3371 82.728C70.3371 83.6133 70.1451 84.3867 69.7611 85.048C69.3878 85.6987 68.8758 86.2053 68.2251 86.568C67.5851 86.9307 66.8438 87.112 66.0011 87.112ZM61.2651 90.104V78.456H63.1691V80.472L63.1051 82.744L63.2651 85.016V90.104H61.2651ZM65.7771 85.4C66.2571 85.4 66.6838 85.2933 67.0571 85.08C67.4411 84.8667 67.7451 84.5573 67.9691 84.152C68.1931 83.7467 68.3051 83.272 68.3051 82.728C68.3051 82.1733 68.1931 81.6987 67.9691 81.304C67.7451 80.8987 67.4411 80.5893 67.0571 80.376C66.6838 80.1627 66.2571 80.056 65.7771 80.056C65.2971 80.056 64.8651 80.1627 64.4811 80.376C64.0971 80.5893 63.7931 80.8987 63.5691 81.304C63.3451 81.6987 63.2331 82.1733 63.2331 82.728C63.2331 83.272 63.3451 83.7467 63.5691 84.152C63.7931 84.5573 64.0971 84.8667 64.4811 85.08C64.8651 85.2933 65.2971 85.4 65.7771 85.4ZM72.2339 87V75.128H74.2339V87H72.2339ZM76.8589 87V78.456H78.8589V87H76.8589ZM77.8669 77.048C77.4935 77.048 77.1842 76.9307 76.9389 76.696C76.7042 76.4613 76.5869 76.1787 76.5869 75.848C76.5869 75.5067 76.7042 75.224 76.9389 75C77.1842 74.7653 77.4935 74.648 77.8669 74.648C78.2402 74.648 78.5442 74.76 78.7789 74.984C79.0242 75.1973 79.1469 75.4693 79.1469 75.8C79.1469 76.152 79.0295 76.4507 78.7949 76.696C78.5602 76.9307 78.2509 77.048 77.8669 77.048ZM85.4039 87.112C84.5079 87.112 83.7079 86.9253 83.0039 86.552C82.3105 86.168 81.7665 85.6453 81.3719 84.984C80.9772 84.3227 80.7799 83.5707 80.7799 82.728C80.7799 81.8747 80.9772 81.1227 81.3719 80.472C81.7665 79.8107 82.3105 79.2933 83.0039 78.92C83.7079 78.5467 84.5079 78.36 85.4039 78.36C86.2359 78.36 86.9665 78.5307 87.5959 78.872C88.2359 79.2027 88.7212 79.6933 89.0519 80.344L87.5159 81.24C87.2599 80.8347 86.9452 80.536 86.5719 80.344C86.2092 80.152 85.8145 80.056 85.3879 80.056C84.8972 80.056 84.4545 80.1627 84.0599 80.376C83.6652 80.5893 83.3559 80.8987 83.1319 81.304C82.9079 81.6987 82.7959 82.1733 82.7959 82.728C82.7959 83.2827 82.9079 83.7627 83.1319 84.168C83.3559 84.5627 83.6652 84.8667 84.0599 85.08C84.4545 85.2933 84.8972 85.4 85.3879 85.4C85.8145 85.4 86.2092 85.304 86.5719 85.112C86.9452 84.92 87.2599 84.6213 87.5159 84.216L89.0519 85.112C88.7212 85.752 88.2359 86.248 87.5959 86.6C86.9665 86.9413 86.2359 87.112 85.4039 87.112ZM96.0448 87V85.272L95.9328 84.904V81.88C95.9328 81.2933 95.7568 80.84 95.4048 80.52C95.0528 80.1893 94.5194 80.024 93.8048 80.024C93.3248 80.024 92.8501 80.0987 92.3808 80.248C91.9221 80.3973 91.5328 80.6053 91.2128 80.872L90.4288 79.416C90.8874 79.064 91.4314 78.8027 92.0608 78.632C92.7008 78.4507 93.3621 78.36 94.0448 78.36C95.2821 78.36 96.2368 78.6587 96.9088 79.256C97.5914 79.8427 97.9328 80.7547 97.9328 81.992V87H96.0448ZM93.3568 87.112C92.7168 87.112 92.1568 87.0053 91.6768 86.792C91.1968 86.568 90.8234 86.264 90.5568 85.88C90.3008 85.4853 90.1728 85.0427 90.1728 84.552C90.1728 84.072 90.2848 83.64 90.5088 83.256C90.7434 82.872 91.1221 82.568 91.6448 82.344C92.1674 82.12 92.8608 82.008 93.7248 82.008H96.2048V83.336H93.8688C93.1861 83.336 92.7274 83.448 92.4928 83.672C92.2581 83.8853 92.1408 84.152 92.1408 84.472C92.1408 84.8347 92.2848 85.1227 92.5728 85.336C92.8608 85.5493 93.2608 85.656 93.7728 85.656C94.2634 85.656 94.7008 85.544 95.0848 85.32C95.4794 85.096 95.7621 84.7653 95.9328 84.328L96.2688 85.528C96.0768 86.0293 95.7301 86.4187 95.2288 86.696C94.7381 86.9733 94.1141 87.112 93.3568 87.112ZM103.716 87.112C102.777 87.112 102.052 86.872 101.539 86.392C101.028 85.9013 100.772 85.1813 100.772 84.232V76.568H102.772V84.184C102.772 84.5893 102.873 84.904 103.076 85.128C103.289 85.352 103.582 85.464 103.956 85.464C104.404 85.464 104.777 85.3467 105.076 85.112L105.636 86.536C105.401 86.728 105.113 86.872 104.772 86.968C104.43 87.064 104.078 87.112 103.716 87.112ZM99.3635 80.12V78.52H105.06V80.12H99.3635ZM107.281 87V78.456H109.281V87H107.281ZM108.289 77.048C107.915 77.048 107.606 76.9307 107.361 76.696C107.126 76.4613 107.009 76.1787 107.009 75.848C107.009 75.5067 107.126 75.224 107.361 75C107.606 74.7653 107.915 74.648 108.289 74.648C108.662 74.648 108.966 74.76 109.201 74.984C109.446 75.1973 109.569 75.4693 109.569 75.8C109.569 76.152 109.451 76.4507 109.217 76.696C108.982 76.9307 108.673 77.048 108.289 77.048ZM115.746 87.112C114.871 87.112 114.092 86.9253 113.41 86.552C112.727 86.168 112.188 85.6453 111.794 84.984C111.399 84.3227 111.202 83.5707 111.202 82.728C111.202 81.8747 111.399 81.1227 111.794 80.472C112.188 79.8107 112.727 79.2933 113.41 78.92C114.092 78.5467 114.871 78.36 115.746 78.36C116.631 78.36 117.415 78.5467 118.098 78.92C118.791 79.2933 119.33 79.8053 119.714 80.456C120.108 81.1067 120.306 81.864 120.306 82.728C120.306 83.5707 120.108 84.3227 119.714 84.984C119.33 85.6453 118.791 86.168 118.098 86.552C117.415 86.9253 116.631 87.112 115.746 87.112ZM115.746 85.4C116.236 85.4 116.674 85.2933 117.058 85.08C117.442 84.8667 117.74 84.5573 117.954 84.152C118.178 83.7467 118.29 83.272 118.29 82.728C118.29 82.1733 118.178 81.6987 117.954 81.304C117.74 80.8987 117.442 80.5893 117.058 80.376C116.674 80.1627 116.242 80.056 115.762 80.056C115.271 80.056 114.834 80.1627 114.45 80.376C114.076 80.5893 113.778 80.8987 113.554 81.304C113.33 81.6987 113.218 82.1733 113.218 82.728C113.218 83.272 113.33 83.7467 113.554 84.152C113.778 84.5573 114.076 84.8667 114.45 85.08C114.834 85.2933 115.266 85.4 115.746 85.4ZM127.066 78.36C127.749 78.36 128.357 78.4933 128.89 78.76C129.434 79.0267 129.861 79.4373 130.17 79.992C130.48 80.536 130.634 81.24 130.634 82.104V87H128.634V82.36C128.634 81.6027 128.453 81.0373 128.09 80.664C127.738 80.2907 127.242 80.104 126.602 80.104C126.133 80.104 125.717 80.2 125.354 80.392C124.992 80.584 124.709 80.872 124.506 81.256C124.314 81.6293 124.218 82.104 124.218 82.68V87H122.218V78.456H124.122V80.76L123.786 80.056C124.085 79.512 124.517 79.096 125.082 78.808C125.658 78.5093 126.32 78.36 127.066 78.36ZM135.811 87.112C135.097 87.112 134.409 87.0213 133.747 86.84C133.097 86.648 132.579 86.4187 132.195 86.152L132.963 84.632C133.347 84.8773 133.806 85.08 134.339 85.24C134.873 85.4 135.406 85.48 135.939 85.48C136.569 85.48 137.022 85.3947 137.299 85.224C137.587 85.0533 137.731 84.824 137.731 84.536C137.731 84.3013 137.635 84.1253 137.443 84.008C137.251 83.88 137.001 83.784 136.691 83.72C136.382 83.656 136.035 83.5973 135.651 83.544C135.278 83.4907 134.899 83.4213 134.515 83.336C134.142 83.24 133.801 83.1067 133.491 82.936C133.182 82.7547 132.931 82.5147 132.739 82.216C132.547 81.9173 132.451 81.5227 132.451 81.032C132.451 80.488 132.606 80.0187 132.915 79.624C133.225 79.2187 133.657 78.9093 134.211 78.696C134.777 78.472 135.443 78.36 136.211 78.36C136.787 78.36 137.369 78.424 137.955 78.552C138.542 78.68 139.027 78.8613 139.411 79.096L138.643 80.616C138.238 80.3707 137.827 80.2053 137.411 80.12C137.006 80.024 136.601 79.976 136.195 79.976C135.587 79.976 135.134 80.0667 134.835 80.248C134.547 80.4293 134.403 80.6587 134.403 80.936C134.403 81.192 134.499 81.384 134.691 81.512C134.883 81.64 135.134 81.7413 135.443 81.816C135.753 81.8907 136.094 81.9547 136.467 82.008C136.851 82.0507 137.23 82.12 137.603 82.216C137.977 82.312 138.318 82.4453 138.627 82.616C138.947 82.776 139.203 83.0053 139.395 83.304C139.587 83.6027 139.683 83.992 139.683 84.472C139.683 85.0053 139.523 85.4693 139.203 85.864C138.894 86.2587 138.451 86.568 137.875 86.792C137.299 87.0053 136.611 87.112 135.811 87.112ZM142.046 81.016C141.683 81.016 141.374 80.8933 141.118 80.648C140.862 80.392 140.734 80.072 140.734 79.688C140.734 79.2827 140.862 78.9627 141.118 78.728C141.374 78.4827 141.683 78.36 142.046 78.36C142.408 78.36 142.718 78.4827 142.974 78.728C143.23 78.9627 143.358 79.2827 143.358 79.688C143.358 80.072 143.23 80.392 142.974 80.648C142.718 80.8933 142.408 81.016 142.046 81.016ZM142.046 87.112C141.683 87.112 141.374 86.9893 141.118 86.744C140.862 86.488 140.734 86.168 140.734 85.784C140.734 85.3787 140.862 85.0587 141.118 84.824C141.374 84.5787 141.683 84.456 142.046 84.456C142.408 84.456 142.718 84.5787 142.974 84.824C143.23 85.0587 143.358 85.3787 143.358 85.784C143.358 86.168 143.23 86.488 142.974 86.744C142.718 86.9893 142.408 87.112 142.046 87.112ZM148.22 87L153.34 75.8H154.508L159.628 87H158.38L153.676 76.488H154.156L149.452 87H148.22ZM150.236 84.008L150.588 83.048H157.1L157.452 84.008H150.236ZM164.556 87.08C163.841 87.08 163.217 86.9467 162.684 86.68C162.151 86.4133 161.735 86.0133 161.436 85.48C161.148 84.9467 161.004 84.28 161.004 83.48V78.6H162.14V83.352C162.14 84.248 162.359 84.9253 162.796 85.384C163.244 85.832 163.868 86.056 164.668 86.056C165.255 86.056 165.761 85.9387 166.188 85.704C166.625 85.4587 166.956 85.1067 167.18 84.648C167.415 84.1893 167.532 83.64 167.532 83V78.6H168.668V87H167.58V84.696L167.756 85.112C167.489 85.7307 167.073 86.216 166.508 86.568C165.953 86.9093 165.303 87.08 164.556 87.08ZM175.418 90.184C174.65 90.184 173.914 90.072 173.21 89.848C172.506 89.624 171.935 89.304 171.498 88.888L172.074 88.024C172.469 88.376 172.954 88.6533 173.53 88.856C174.117 89.0693 174.735 89.176 175.386 89.176C176.453 89.176 177.237 88.9253 177.738 88.424C178.239 87.9333 178.49 87.1653 178.49 86.12V84.024L178.65 82.584L178.538 81.144V78.6H179.626V85.976C179.626 87.4267 179.269 88.488 178.554 89.16C177.85 89.8427 176.805 90.184 175.418 90.184ZM175.21 86.68C174.41 86.68 173.69 86.5093 173.05 86.168C172.41 85.816 171.903 85.3307 171.53 84.712C171.167 84.0933 170.986 83.384 170.986 82.584C170.986 81.784 171.167 81.08 171.53 80.472C171.903 79.8533 172.41 79.3733 173.05 79.032C173.69 78.6907 174.41 78.52 175.21 78.52C175.957 78.52 176.629 78.6747 177.226 78.984C177.823 79.2933 178.298 79.752 178.65 80.36C179.002 80.968 179.178 81.7093 179.178 82.584C179.178 83.4587 179.002 84.2 178.65 84.808C178.298 85.416 177.823 85.88 177.226 86.2C176.629 86.52 175.957 86.68 175.21 86.68ZM175.322 85.672C175.941 85.672 176.49 85.544 176.97 85.288C177.45 85.0213 177.829 84.6587 178.106 84.2C178.383 83.7307 178.522 83.192 178.522 82.584C178.522 81.976 178.383 81.4427 178.106 80.984C177.829 80.5253 177.45 80.168 176.97 79.912C176.49 79.6453 175.941 79.512 175.322 79.512C174.714 79.512 174.165 79.6453 173.674 79.912C173.194 80.168 172.815 80.5253 172.538 80.984C172.271 81.4427 172.138 81.976 172.138 82.584C172.138 83.192 172.271 83.7307 172.538 84.2C172.815 84.6587 173.194 85.0213 173.674 85.288C174.165 85.544 174.714 85.672 175.322 85.672ZM186.259 87.08C185.544 87.08 184.92 86.9467 184.387 86.68C183.854 86.4133 183.438 86.0133 183.139 85.48C182.851 84.9467 182.707 84.28 182.707 83.48V78.6H183.843V83.352C183.843 84.248 184.062 84.9253 184.499 85.384C184.947 85.832 185.571 86.056 186.371 86.056C186.958 86.056 187.464 85.9387 187.891 85.704C188.328 85.4587 188.659 85.1067 188.883 84.648C189.118 84.1893 189.235 83.64 189.235 83V78.6H190.371V87H189.283V84.696L189.459 85.112C189.192 85.7307 188.776 86.216 188.211 86.568C187.656 86.9093 187.006 87.08 186.259 87.08ZM195.793 87.08C195.1 87.08 194.444 86.984 193.825 86.792C193.206 86.5893 192.721 86.3387 192.369 86.04L192.881 85.144C193.222 85.4 193.66 85.624 194.193 85.816C194.726 85.9973 195.286 86.088 195.873 86.088C196.673 86.088 197.249 85.9653 197.601 85.72C197.953 85.464 198.129 85.128 198.129 84.712C198.129 84.4027 198.028 84.1627 197.825 83.992C197.633 83.8107 197.377 83.6773 197.057 83.592C196.737 83.496 196.38 83.416 195.985 83.352C195.59 83.288 195.196 83.2133 194.801 83.128C194.417 83.0427 194.065 82.92 193.745 82.76C193.425 82.5893 193.164 82.36 192.961 82.072C192.769 81.784 192.673 81.4 192.673 80.92C192.673 80.4613 192.801 80.0507 193.057 79.688C193.313 79.3253 193.686 79.0427 194.177 78.84C194.678 78.6267 195.286 78.52 196.001 78.52C196.545 78.52 197.089 78.5947 197.633 78.744C198.177 78.8827 198.625 79.0693 198.977 79.304L198.481 80.216C198.108 79.96 197.708 79.7787 197.281 79.672C196.854 79.5547 196.428 79.496 196.001 79.496C195.244 79.496 194.684 79.6293 194.321 79.896C193.969 80.152 193.793 80.4827 193.793 80.888C193.793 81.208 193.889 81.4587 194.081 81.64C194.284 81.8213 194.545 81.9653 194.865 82.072C195.196 82.168 195.553 82.248 195.937 82.312C196.332 82.376 196.721 82.456 197.105 82.552C197.5 82.6373 197.857 82.76 198.177 82.92C198.508 83.0693 198.769 83.288 198.961 83.576C199.164 83.8533 199.265 84.2213 199.265 84.68C199.265 85.1707 199.126 85.5973 198.849 85.96C198.582 86.312 198.188 86.5893 197.665 86.792C197.153 86.984 196.529 87.08 195.793 87.08ZM204.006 87.08C203.216 87.08 202.608 86.8667 202.182 86.44C201.755 86.0133 201.542 85.4107 201.542 84.632V76.744H202.678V84.568C202.678 85.0587 202.8 85.4373 203.046 85.704C203.302 85.9707 203.664 86.104 204.134 86.104C204.635 86.104 205.051 85.96 205.382 85.672L205.782 86.488C205.558 86.6907 205.286 86.84 204.966 86.936C204.656 87.032 204.336 87.08 204.006 87.08ZM200.038 79.544V78.6H205.238V79.544H200.038ZM213.237 87V76.28L213.749 76.824H210.597V75.8H214.389V87H213.237ZM220.602 87.096C219.802 87.096 219.04 86.968 218.314 86.712C217.589 86.4453 217.013 86.0933 216.586 85.656L217.146 84.744C217.498 85.1173 217.978 85.4267 218.586 85.672C219.205 85.9173 219.872 86.04 220.586 86.04C221.536 86.04 222.256 85.832 222.746 85.416C223.248 84.9893 223.498 84.4347 223.498 83.752C223.498 83.272 223.381 82.8613 223.146 82.52C222.922 82.168 222.538 81.896 221.994 81.704C221.45 81.512 220.704 81.416 219.754 81.416H217.37L217.946 75.8H224.074V76.824H218.41L219.002 76.264L218.506 80.968L217.914 80.392H220.01C221.141 80.392 222.048 80.5307 222.73 80.808C223.413 81.0853 223.904 81.4747 224.202 81.976C224.512 82.4667 224.666 83.0427 224.666 83.704C224.666 84.3333 224.517 84.9093 224.218 85.432C223.92 85.944 223.472 86.3493 222.874 86.648C222.277 86.9467 221.52 87.096 220.602 87.096ZM229.537 87.08C228.748 87.08 228.14 86.8667 227.713 86.44C227.286 86.0133 227.073 85.4107 227.073 84.632V76.744H228.209V84.568C228.209 85.0587 228.332 85.4373 228.577 85.704C228.833 85.9707 229.196 86.104 229.665 86.104C230.166 86.104 230.582 85.96 230.913 85.672L231.313 86.488C231.089 86.6907 230.817 86.84 230.497 86.936C230.188 87.032 229.868 87.08 229.537 87.08ZM225.569 79.544V78.6H230.769V79.544H225.569ZM237.669 78.52C238.352 78.52 238.949 78.6533 239.461 78.92C239.984 79.176 240.389 79.5707 240.677 80.104C240.976 80.6373 241.125 81.3093 241.125 82.12V87H239.989V82.232C239.989 81.3467 239.765 80.68 239.317 80.232C238.88 79.7733 238.261 79.544 237.461 79.544C236.864 79.544 236.341 79.6667 235.893 79.912C235.456 80.1467 235.114 80.4933 234.869 80.952C234.634 81.4 234.517 81.944 234.517 82.584V87H233.381V75.128H234.517V80.904L234.293 80.472C234.56 79.864 234.986 79.3893 235.573 79.048C236.16 78.696 236.858 78.52 237.669 78.52ZM247.757 83.16V82.168H251.949V83.16H247.757ZM257.126 87L262.246 75.8H263.414L268.534 87H267.286L262.582 76.488H263.062L258.358 87H257.126ZM259.142 84.008L259.494 83.048H266.006L266.358 84.008H259.142ZM273.462 87.08C272.748 87.08 272.124 86.9467 271.59 86.68C271.057 86.4133 270.641 86.0133 270.342 85.48C270.054 84.9467 269.91 84.28 269.91 83.48V78.6H271.046V83.352C271.046 84.248 271.265 84.9253 271.702 85.384C272.15 85.832 272.774 86.056 273.574 86.056C274.161 86.056 274.668 85.9387 275.094 85.704C275.532 85.4587 275.862 85.1067 276.086 84.648C276.321 84.1893 276.438 83.64 276.438 83V78.6H277.574V87H276.486V84.696L276.662 85.112C276.396 85.7307 275.98 86.216 275.414 86.568C274.86 86.9093 274.209 87.08 273.462 87.08ZM284.324 90.184C283.556 90.184 282.82 90.072 282.116 89.848C281.412 89.624 280.842 89.304 280.404 88.888L280.98 88.024C281.375 88.376 281.86 88.6533 282.436 88.856C283.023 89.0693 283.642 89.176 284.292 89.176C285.359 89.176 286.143 88.9253 286.644 88.424C287.146 87.9333 287.396 87.1653 287.396 86.12V84.024L287.556 82.584L287.444 81.144V78.6H288.532V85.976C288.532 87.4267 288.175 88.488 287.46 89.16C286.756 89.8427 285.711 90.184 284.324 90.184ZM284.116 86.68C283.316 86.68 282.596 86.5093 281.956 86.168C281.316 85.816 280.81 85.3307 280.436 84.712C280.074 84.0933 279.892 83.384 279.892 82.584C279.892 81.784 280.074 81.08 280.436 80.472C280.81 79.8533 281.316 79.3733 281.956 79.032C282.596 78.6907 283.316 78.52 284.116 78.52C284.863 78.52 285.535 78.6747 286.132 78.984C286.73 79.2933 287.204 79.752 287.556 80.36C287.908 80.968 288.084 81.7093 288.084 82.584C288.084 83.4587 287.908 84.2 287.556 84.808C287.204 85.416 286.73 85.88 286.132 86.2C285.535 86.52 284.863 86.68 284.116 86.68ZM284.228 85.672C284.847 85.672 285.396 85.544 285.876 85.288C286.356 85.0213 286.735 84.6587 287.012 84.2C287.29 83.7307 287.428 83.192 287.428 82.584C287.428 81.976 287.29 81.4427 287.012 80.984C286.735 80.5253 286.356 80.168 285.876 79.912C285.396 79.6453 284.847 79.512 284.228 79.512C283.62 79.512 283.071 79.6453 282.58 79.912C282.1 80.168 281.722 80.5253 281.444 80.984C281.178 81.4427 281.044 81.976 281.044 82.584C281.044 83.192 281.178 83.7307 281.444 84.2C281.722 84.6587 282.1 85.0213 282.58 85.288C283.071 85.544 283.62 85.672 284.228 85.672ZM295.165 87.08C294.451 87.08 293.827 86.9467 293.293 86.68C292.76 86.4133 292.344 86.0133 292.045 85.48C291.757 84.9467 291.613 84.28 291.613 83.48V78.6H292.749V83.352C292.749 84.248 292.968 84.9253 293.405 85.384C293.853 85.832 294.477 86.056 295.277 86.056C295.864 86.056 296.371 85.9387 296.797 85.704C297.235 85.4587 297.565 85.1067 297.789 84.648C298.024 84.1893 298.141 83.64 298.141 83V78.6H299.277V87H298.189V84.696L298.365 85.112C298.099 85.7307 297.683 86.216 297.117 86.568C296.563 86.9093 295.912 87.08 295.165 87.08ZM304.699 87.08C304.006 87.08 303.35 86.984 302.731 86.792C302.113 86.5893 301.627 86.3387 301.275 86.04L301.787 85.144C302.129 85.4 302.566 85.624 303.099 85.816C303.633 85.9973 304.193 86.088 304.779 86.088C305.579 86.088 306.155 85.9653 306.507 85.72C306.859 85.464 307.035 85.128 307.035 84.712C307.035 84.4027 306.934 84.1627 306.731 83.992C306.539 83.8107 306.283 83.6773 305.963 83.592C305.643 83.496 305.286 83.416 304.891 83.352C304.497 83.288 304.102 83.2133 303.707 83.128C303.323 83.0427 302.971 82.92 302.651 82.76C302.331 82.5893 302.07 82.36 301.867 82.072C301.675 81.784 301.579 81.4 301.579 80.92C301.579 80.4613 301.707 80.0507 301.963 79.688C302.219 79.3253 302.593 79.0427 303.083 78.84C303.585 78.6267 304.193 78.52 304.907 78.52C305.451 78.52 305.995 78.5947 306.539 78.744C307.083 78.8827 307.531 79.0693 307.883 79.304L307.387 80.216C307.014 79.96 306.614 79.7787 306.187 79.672C305.761 79.5547 305.334 79.496 304.907 79.496C304.15 79.496 303.59 79.6293 303.227 79.896C302.875 80.152 302.699 80.4827 302.699 80.888C302.699 81.208 302.795 81.4587 302.987 81.64C303.19 81.8213 303.451 81.9653 303.771 82.072C304.102 82.168 304.459 82.248 304.843 82.312C305.238 82.376 305.627 82.456 306.011 82.552C306.406 82.6373 306.763 82.76 307.083 82.92C307.414 83.0693 307.675 83.288 307.867 83.576C308.07 83.8533 308.171 84.2213 308.171 84.68C308.171 85.1707 308.033 85.5973 307.755 85.96C307.489 86.312 307.094 86.5893 306.571 86.792C306.059 86.984 305.435 87.08 304.699 87.08ZM312.912 87.08C312.123 87.08 311.515 86.8667 311.088 86.44C310.661 86.0133 310.448 85.4107 310.448 84.632V76.744H311.584V84.568C311.584 85.0587 311.707 85.4373 311.952 85.704C312.208 85.9707 312.571 86.104 313.04 86.104C313.541 86.104 313.957 85.96 314.288 85.672L314.688 86.488C314.464 86.6907 314.192 86.84 313.872 86.936C313.563 87.032 313.243 87.08 312.912 87.08ZM308.944 79.544V78.6H314.144V79.544H308.944ZM319.983 87V86.184L324.639 81.624C325.066 81.208 325.386 80.8453 325.599 80.536C325.813 80.216 325.957 79.9173 326.031 79.64C326.106 79.3627 326.143 79.1013 326.143 78.856C326.143 78.2053 325.919 77.6933 325.471 77.32C325.034 76.9467 324.383 76.76 323.519 76.76C322.858 76.76 322.271 76.8613 321.759 77.064C321.258 77.2667 320.826 77.5813 320.463 78.008L319.647 77.304C320.085 76.792 320.645 76.3973 321.327 76.12C322.01 75.8427 322.773 75.704 323.615 75.704C324.373 75.704 325.029 75.8267 325.583 76.072C326.138 76.3067 326.565 76.6533 326.863 77.112C327.173 77.5707 327.327 78.1093 327.327 78.728C327.327 79.0907 327.274 79.448 327.167 79.8C327.071 80.152 326.89 80.5253 326.623 80.92C326.367 81.304 325.989 81.7413 325.487 82.232L321.215 86.424L320.895 85.976H327.839V87H319.983ZM332.773 75.704C333.765 75.704 334.602 75.928 335.285 76.376C335.968 76.8133 336.485 77.448 336.837 78.28C337.189 79.112 337.365 80.12 337.365 81.304C337.365 82.5627 337.146 83.624 336.709 84.488C336.282 85.352 335.685 86.0027 334.917 86.44C334.149 86.8773 333.258 87.096 332.245 87.096C331.744 87.096 331.264 87.048 330.805 86.952C330.357 86.856 329.952 86.7013 329.589 86.488L330.053 85.56C330.341 85.752 330.672 85.8907 331.045 85.976C331.429 86.0507 331.824 86.088 332.229 86.088C333.434 86.088 334.394 85.704 335.109 84.936C335.834 84.168 336.197 83.0213 336.197 81.496C336.197 81.2507 336.181 80.9573 336.149 80.616C336.128 80.2747 336.069 79.9333 335.973 79.592L336.373 79.896C336.266 80.4507 336.037 80.9253 335.685 81.32C335.344 81.704 334.917 81.9973 334.405 82.2C333.904 82.4027 333.344 82.504 332.725 82.504C331.989 82.504 331.333 82.3653 330.757 82.088C330.192 81.8107 329.749 81.4213 329.429 80.92C329.109 80.4187 328.949 79.8267 328.949 79.144C328.949 78.44 329.114 77.832 329.445 77.32C329.776 76.808 330.229 76.4133 330.805 76.136C331.392 75.848 332.048 75.704 332.773 75.704ZM332.821 76.68C332.288 76.68 331.813 76.7813 331.397 76.984C330.992 77.176 330.672 77.4533 330.437 77.816C330.202 78.1787 330.085 78.6107 330.085 79.112C330.085 79.848 330.336 80.4347 330.837 80.872C331.349 81.3093 332.037 81.528 332.901 81.528C333.477 81.528 333.978 81.4213 334.405 81.208C334.842 80.9947 335.178 80.7013 335.413 80.328C335.658 79.9547 335.781 79.5387 335.781 79.08C335.781 78.664 335.669 78.2747 335.445 77.912C335.221 77.5493 334.89 77.256 334.453 77.032C334.016 76.7973 333.472 76.68 332.821 76.68ZM342.599 87.08C341.81 87.08 341.202 86.8667 340.775 86.44C340.349 86.0133 340.135 85.4107 340.135 84.632V76.744H341.271V84.568C341.271 85.0587 341.394 85.4373 341.639 85.704C341.895 85.9707 342.258 86.104 342.727 86.104C343.229 86.104 343.645 85.96 343.975 85.672L344.375 86.488C344.151 86.6907 343.879 86.84 343.559 86.936C343.25 87.032 342.93 87.08 342.599 87.08ZM338.631 79.544V78.6H343.831V79.544H338.631ZM350.731 78.52C351.414 78.52 352.011 78.6533 352.523 78.92C353.046 79.176 353.451 79.5707 353.739 80.104C354.038 80.6373 354.187 81.3093 354.187 82.12V87H353.051V82.232C353.051 81.3467 352.827 80.68 352.379 80.232C351.942 79.7733 351.323 79.544 350.523 79.544C349.926 79.544 349.403 79.6667 348.955 79.912C348.518 80.1467 348.177 80.4933 347.931 80.952C347.697 81.4 347.579 81.944 347.579 82.584V87H346.443V75.128H347.579V80.904L347.355 80.472C347.622 79.864 348.049 79.3893 348.635 79.048C349.222 78.696 349.921 78.52 350.731 78.52Z" fill="#F1EAE1"/>
<defs>
<filter id="filter0_d_180_216" x="0" y="0" width="443" height="138" filterUnits="userSpaceOnUse" color-interpolation-filters="sRGB">
<feFlood flood-opacity="0" result="BackgroundImageFix"/>
<feColorMatrix in="SourceAlpha" type="matrix" values="0 0 0 0 0 0 0 0 0 0 0 0 0 0 0 0 0 0 127 0" result="hardAlpha"/>
<feOffset dy="4"/>
<feGaussianBlur stdDeviation="2"/>
<feComposite in2="hardAlpha" operator="out"/>
<feColorMatrix type="matrix" values="0 0 0 0 0 0 0 0 0 0 0 0 0 0 0 0 0 0 0.25 0"/>
<feBlend mode="normal" in2="BackgroundImageFix" result="effect1_dropShadow_180_216"/>
<feBlend mode="normal" in="SourceGraphic" in2="effect1_dropShadow_180_216" result="shape"/>
</filter>
</defs>
</svg>
