<svg width="1644" height="1080" viewBox="0 0 1644 1080" fill="none" xmlns="http://www.w3.org/2000/svg">
<rect x="0.375" y="0.375" width="1643.25" height="1079.25" rx="19.625" fill="#2A2D39"/>
<rect x="0.375" y="0.375" width="1643.25" height="1079.25" rx="19.625" stroke="#F1EAE1" stroke-width="0.75"/>
<path d="M822.5 1010.62C825.539 1016.58 827.27 1023.44 827.27 1030.75H817.73C817.73 1023.44 819.461 1016.58 822.501 1010.62H822.5Z" fill="#F1EAE1"/>
<path d="M789.778 989.204C793.328 989.268 796.761 989.863 800.012 990.916C798.214 993.897 796.614 997.03 795.23 1000.3C793.258 999.831 791.21 999.585 789.11 999.585C787.715 999.585 786.341 999.692 785 999.905C786.361 996.198 787.959 992.625 789.778 989.206V989.204Z" fill="#F1EAE1"/>
<path d="M803.432 970.387C806.985 971.382 810.402 972.741 813.651 974.424C810.971 976.809 808.463 979.418 806.156 982.222H806.155C802.902 980.865 799.479 979.888 795.928 979.334C798.227 976.155 800.735 973.165 803.432 970.386V970.387Z" fill="#F1EAE1"/>
<path d="M832.711 962.534C829.154 963.965 825.741 965.719 822.499 967.762C819.257 965.719 815.844 963.966 812.287 962.534C815.517 960.078 818.931 957.893 822.499 956C826.067 957.893 829.48 960.078 832.711 962.534Z" fill="#F1EAE1"/>
<path d="M808.872 995.194C811.614 997.007 814.129 999.183 816.361 1001.66C814.467 1004.71 812.861 1007.99 811.588 1011.46C809.506 1008.58 806.967 1006.12 804.092 1004.19C805.458 1001.04 807.059 998.03 808.873 995.194H808.872Z" fill="#F1EAE1"/>
<path d="M822.5 980.119C825.181 982.216 827.686 984.561 829.991 987.123C827.294 989.027 824.786 991.216 822.5 993.656C820.215 991.216 817.705 989.027 815.01 987.123C817.315 984.561 819.822 982.216 822.5 980.119Z" fill="#F1EAE1"/>
<path d="M849.071 979.335C845.521 979.888 842.096 980.866 838.842 982.224C836.536 979.419 834.029 976.809 831.348 974.425C834.597 972.743 838.014 971.384 841.567 970.389C844.263 973.168 846.772 976.158 849.071 979.337V979.335Z" fill="#F1EAE1"/>
<path d="M836.127 995.194C837.941 998.03 839.542 1001.04 840.908 1004.19C838.033 1006.12 835.493 1008.58 833.412 1011.46C832.139 1007.99 830.533 1004.71 828.639 1001.66C830.871 999.183 833.386 997.007 836.128 995.194H836.127Z" fill="#F1EAE1"/>
<path d="M860 999.905C858.658 999.692 857.285 999.585 855.89 999.585C853.79 999.585 851.742 999.831 849.77 1000.3C848.387 997.031 846.786 993.897 844.988 990.916C848.24 989.863 851.672 989.268 855.222 989.204C857.041 992.624 858.639 996.198 860 999.903V999.905Z" fill="#F1EAE1"/>
<path d="M839 579C839 588.389 831.389 596 822 596C812.611 596 805 588.389 805 579C805 569.611 812.611 562 822 562C831.389 562 839 569.611 839 579Z" fill="#F1EAE1"/>
<path fill-rule="evenodd" clip-rule="evenodd" d="M822 782.449C935.463 782.449 1027.44 690.69 1027.44 577.5C1027.44 464.31 935.463 372.551 822 372.551C708.537 372.551 616.557 464.31 616.557 577.5C616.557 690.69 708.537 782.449 822 782.449ZM822 785C936.875 785 1030 692.099 1030 577.5C1030 462.901 936.875 370 822 370C707.125 370 614 462.901 614 577.5C614 692.099 707.125 785 822 785Z" fill="#F1EAE1"/>
<path fill-rule="evenodd" clip-rule="evenodd" d="M822 866.404C987.83 866.404 1122.26 737.057 1122.26 577.5C1122.26 417.943 987.83 288.596 822 288.596C656.17 288.596 521.738 417.943 521.738 577.5C521.738 737.057 656.17 866.404 822 866.404ZM822 870C989.895 870 1126 739.043 1126 577.5C1126 415.957 989.895 285 822 285C654.105 285 518 415.957 518 577.5C518 739.043 654.105 870 822 870Z" fill="#F1EAE1"/>
<path d="M497.972 191V143.4H516.536C520.707 143.4 524.265 144.057 527.212 145.372C530.159 146.687 532.425 148.591 534.012 151.084C535.599 153.577 536.392 156.547 536.392 159.992C536.392 163.437 535.599 166.407 534.012 168.9C532.425 171.348 530.159 173.229 527.212 174.544C524.265 175.859 520.707 176.516 516.536 176.516H501.712L504.772 173.388V191H497.972ZM529.796 191L517.692 173.728H524.968L537.208 191H529.796ZM504.772 174.068L501.712 170.736H516.332C520.684 170.736 523.971 169.807 526.192 167.948C528.459 166.044 529.592 163.392 529.592 159.992C529.592 156.592 528.459 153.963 526.192 152.104C523.971 150.245 520.684 149.316 516.332 149.316H501.712L504.772 145.916V174.068ZM561.862 191.408C558.236 191.408 555.017 190.615 552.206 189.028C549.396 187.441 547.174 185.265 545.542 182.5C543.91 179.689 543.094 176.516 543.094 172.98C543.094 169.399 543.91 166.225 545.542 163.46C547.174 160.695 549.396 158.541 552.206 157C555.017 155.413 558.236 154.62 561.862 154.62C565.444 154.62 568.64 155.413 571.45 157C574.306 158.541 576.528 160.695 578.114 163.46C579.746 166.18 580.562 169.353 580.562 172.98C580.562 176.561 579.746 179.735 578.114 182.5C576.528 185.265 574.306 187.441 571.45 189.028C568.64 190.615 565.444 191.408 561.862 191.408ZM561.862 185.696C564.174 185.696 566.237 185.175 568.05 184.132C569.909 183.089 571.36 181.616 572.402 179.712C573.445 177.763 573.966 175.519 573.966 172.98C573.966 170.396 573.445 168.175 572.402 166.316C571.36 164.412 569.909 162.939 568.05 161.896C566.237 160.853 564.174 160.332 561.862 160.332C559.55 160.332 557.488 160.853 555.674 161.896C553.861 162.939 552.41 164.412 551.322 166.316C550.234 168.175 549.69 170.396 549.69 172.98C549.69 175.519 550.234 177.763 551.322 179.712C552.41 181.616 553.861 183.089 555.674 184.132C557.488 185.175 559.55 185.696 561.862 185.696ZM589.59 191V140.544H596.118V191H589.59ZM624.631 191.408C620.777 191.408 617.377 190.615 614.431 189.028C611.529 187.441 609.263 185.265 607.631 182.5C606.044 179.735 605.251 176.561 605.251 172.98C605.251 169.399 606.021 166.225 607.563 163.46C609.149 160.695 611.303 158.541 614.023 157C616.788 155.413 619.893 154.62 623.339 154.62C626.829 154.62 629.912 155.391 632.587 156.932C635.261 158.473 637.347 160.649 638.843 163.46C640.384 166.225 641.155 169.467 641.155 173.184C641.155 173.456 641.132 173.773 641.087 174.136C641.087 174.499 641.064 174.839 641.019 175.156H610.351V170.464H637.619L634.967 172.096C635.012 169.784 634.536 167.721 633.539 165.908C632.541 164.095 631.159 162.689 629.391 161.692C627.668 160.649 625.651 160.128 623.339 160.128C621.072 160.128 619.055 160.649 617.287 161.692C615.519 162.689 614.136 164.117 613.139 165.976C612.141 167.789 611.643 169.875 611.643 172.232V173.32C611.643 175.723 612.187 177.876 613.275 179.78C614.408 181.639 615.972 183.089 617.967 184.132C619.961 185.175 622.251 185.696 624.835 185.696C626.965 185.696 628.892 185.333 630.615 184.608C632.383 183.883 633.924 182.795 635.239 181.344L638.843 185.56C637.211 187.464 635.171 188.915 632.723 189.912C630.32 190.909 627.623 191.408 624.631 191.408ZM660.555 191.408C657.563 191.408 654.707 191 651.987 190.184C649.313 189.368 647.205 188.371 645.663 187.192L648.383 182.024C649.925 183.067 651.829 183.951 654.095 184.676C656.362 185.401 658.674 185.764 661.031 185.764C664.069 185.764 666.245 185.333 667.559 184.472C668.919 183.611 669.599 182.409 669.599 180.868C669.599 179.735 669.191 178.851 668.375 178.216C667.559 177.581 666.471 177.105 665.111 176.788C663.797 176.471 662.323 176.199 660.691 175.972C659.059 175.7 657.427 175.383 655.795 175.02C654.163 174.612 652.667 174.068 651.307 173.388C649.947 172.663 648.859 171.688 648.043 170.464C647.227 169.195 646.819 167.517 646.819 165.432C646.819 163.256 647.431 161.352 648.655 159.72C649.879 158.088 651.602 156.841 653.823 155.98C656.09 155.073 658.765 154.62 661.847 154.62C664.205 154.62 666.585 154.915 668.987 155.504C671.435 156.048 673.43 156.841 674.971 157.884L672.183 163.052C670.551 161.964 668.851 161.216 667.083 160.808C665.315 160.4 663.547 160.196 661.779 160.196C658.923 160.196 656.793 160.672 655.387 161.624C653.982 162.531 653.279 163.709 653.279 165.16C653.279 166.384 653.687 167.336 654.503 168.016C655.365 168.651 656.453 169.149 657.767 169.512C659.127 169.875 660.623 170.192 662.255 170.464C663.887 170.691 665.519 171.008 667.151 171.416C668.783 171.779 670.257 172.3 671.571 172.98C672.931 173.66 674.019 174.612 674.835 175.836C675.697 177.06 676.127 178.692 676.127 180.732C676.127 182.908 675.493 184.789 674.223 186.376C672.954 187.963 671.163 189.209 668.851 190.116C666.539 190.977 663.774 191.408 660.555 191.408ZM724.919 191V183.384L724.579 181.956V168.968C724.579 166.203 723.763 164.072 722.131 162.576C720.545 161.035 718.142 160.264 714.923 160.264C712.793 160.264 710.707 160.627 708.667 161.352C706.627 162.032 704.905 162.961 703.499 164.14L700.779 159.244C702.638 157.748 704.859 156.615 707.443 155.844C710.073 155.028 712.815 154.62 715.671 154.62C720.613 154.62 724.421 155.821 727.095 158.224C729.77 160.627 731.107 164.299 731.107 169.24V191H724.919ZM713.087 191.408C710.413 191.408 708.055 190.955 706.015 190.048C704.021 189.141 702.479 187.895 701.391 186.308C700.303 184.676 699.759 182.84 699.759 180.8C699.759 178.851 700.213 177.083 701.119 175.496C702.071 173.909 703.59 172.64 705.675 171.688C707.806 170.736 710.662 170.26 714.243 170.26H725.667V174.952H714.515C711.251 174.952 709.053 175.496 707.919 176.584C706.786 177.672 706.219 178.987 706.219 180.528C706.219 182.296 706.922 183.724 708.327 184.812C709.733 185.855 711.682 186.376 714.175 186.376C716.623 186.376 718.754 185.832 720.567 184.744C722.426 183.656 723.763 182.069 724.579 179.984L725.871 184.472C725.01 186.603 723.491 188.303 721.315 189.572C719.139 190.796 716.397 191.408 713.087 191.408ZM758.896 191.408C755.224 191.408 751.937 190.615 749.036 189.028C746.18 187.441 743.936 185.265 742.304 182.5C740.672 179.735 739.856 176.561 739.856 172.98C739.856 169.399 740.672 166.225 742.304 163.46C743.936 160.695 746.18 158.541 749.036 157C751.937 155.413 755.224 154.62 758.896 154.62C762.16 154.62 765.061 155.277 767.6 156.592C770.184 157.861 772.179 159.765 773.584 162.304L768.62 165.5C767.441 163.732 765.991 162.44 764.268 161.624C762.591 160.763 760.777 160.332 758.828 160.332C756.471 160.332 754.363 160.853 752.504 161.896C750.645 162.939 749.172 164.412 748.084 166.316C746.996 168.175 746.452 170.396 746.452 172.98C746.452 175.564 746.996 177.808 748.084 179.712C749.172 181.616 750.645 183.089 752.504 184.132C754.363 185.175 756.471 185.696 758.828 185.696C760.777 185.696 762.591 185.288 764.268 184.472C765.991 183.611 767.441 182.296 768.62 180.528L773.584 183.656C772.179 186.149 770.184 188.076 767.6 189.436C765.061 190.751 762.16 191.408 758.896 191.408ZM782.036 191V154.96H788.292V164.752L787.68 162.304C788.677 159.811 790.354 157.907 792.712 156.592C795.069 155.277 797.97 154.62 801.416 154.62V160.944C801.144 160.899 800.872 160.876 800.6 160.876C800.373 160.876 800.146 160.876 799.92 160.876C796.429 160.876 793.664 161.919 791.624 164.004C789.584 166.089 788.564 169.104 788.564 173.048V191H782.036ZM824.565 191.408C820.939 191.408 817.72 190.615 814.909 189.028C812.099 187.441 809.877 185.265 808.245 182.5C806.613 179.689 805.797 176.516 805.797 172.98C805.797 169.399 806.613 166.225 808.245 163.46C809.877 160.695 812.099 158.541 814.909 157C817.72 155.413 820.939 154.62 824.565 154.62C828.147 154.62 831.343 155.413 834.153 157C837.009 158.541 839.231 160.695 840.817 163.46C842.449 166.18 843.265 169.353 843.265 172.98C843.265 176.561 842.449 179.735 840.817 182.5C839.231 185.265 837.009 187.441 834.153 189.028C831.343 190.615 828.147 191.408 824.565 191.408ZM824.565 185.696C826.877 185.696 828.94 185.175 830.753 184.132C832.612 183.089 834.063 181.616 835.105 179.712C836.148 177.763 836.669 175.519 836.669 172.98C836.669 170.396 836.148 168.175 835.105 166.316C834.063 164.412 832.612 162.939 830.753 161.896C828.94 160.853 826.877 160.332 824.565 160.332C822.253 160.332 820.191 160.853 818.377 161.896C816.564 162.939 815.113 164.412 814.025 166.316C812.937 168.175 812.393 170.396 812.393 172.98C812.393 175.519 812.937 177.763 814.025 179.712C815.113 181.616 816.564 183.089 818.377 184.132C820.191 185.175 822.253 185.696 824.565 185.696ZM862.629 191.408C859.637 191.408 856.781 191 854.061 190.184C851.387 189.368 849.279 188.371 847.737 187.192L850.457 182.024C851.999 183.067 853.903 183.951 856.169 184.676C858.436 185.401 860.748 185.764 863.105 185.764C866.143 185.764 868.319 185.333 869.633 184.472C870.993 183.611 871.673 182.409 871.673 180.868C871.673 179.735 871.265 178.851 870.449 178.216C869.633 177.581 868.545 177.105 867.185 176.788C865.871 176.471 864.397 176.199 862.765 175.972C861.133 175.7 859.501 175.383 857.869 175.02C856.237 174.612 854.741 174.068 853.381 173.388C852.021 172.663 850.933 171.688 850.117 170.464C849.301 169.195 848.893 167.517 848.893 165.432C848.893 163.256 849.505 161.352 850.729 159.72C851.953 158.088 853.676 156.841 855.897 155.98C858.164 155.073 860.839 154.62 863.921 154.62C866.279 154.62 868.659 154.915 871.061 155.504C873.509 156.048 875.504 156.841 877.045 157.884L874.257 163.052C872.625 161.964 870.925 161.216 869.157 160.808C867.389 160.4 865.621 160.196 863.853 160.196C860.997 160.196 858.867 160.672 857.461 161.624C856.056 162.531 855.353 163.709 855.353 165.16C855.353 166.384 855.761 167.336 856.577 168.016C857.439 168.651 858.527 169.149 859.841 169.512C861.201 169.875 862.697 170.192 864.329 170.464C865.961 170.691 867.593 171.008 869.225 171.416C870.857 171.779 872.331 172.3 873.645 172.98C875.005 173.66 876.093 174.612 876.909 175.836C877.771 177.06 878.201 178.692 878.201 180.732C878.201 182.908 877.567 184.789 876.297 186.376C875.028 187.963 873.237 189.209 870.925 190.116C868.613 190.977 865.848 191.408 862.629 191.408ZM896.696 191.408C893.704 191.408 890.848 191 888.128 190.184C885.453 189.368 883.345 188.371 881.804 187.192L884.524 182.024C886.065 183.067 887.969 183.951 890.236 184.676C892.503 185.401 894.815 185.764 897.172 185.764C900.209 185.764 902.385 185.333 903.7 184.472C905.06 183.611 905.74 182.409 905.74 180.868C905.74 179.735 905.332 178.851 904.516 178.216C903.7 177.581 902.612 177.105 901.252 176.788C899.937 176.471 898.464 176.199 896.832 175.972C895.2 175.7 893.568 175.383 891.936 175.02C890.304 174.612 888.808 174.068 887.448 173.388C886.088 172.663 885 171.688 884.184 170.464C883.368 169.195 882.96 167.517 882.96 165.432C882.96 163.256 883.572 161.352 884.796 159.72C886.02 158.088 887.743 156.841 889.964 155.98C892.231 155.073 894.905 154.62 897.988 154.62C900.345 154.62 902.725 154.915 905.128 155.504C907.576 156.048 909.571 156.841 911.112 157.884L908.324 163.052C906.692 161.964 904.992 161.216 903.224 160.808C901.456 160.4 899.688 160.196 897.92 160.196C895.064 160.196 892.933 160.672 891.528 161.624C890.123 162.531 889.42 163.709 889.42 165.16C889.42 166.384 889.828 167.336 890.644 168.016C891.505 168.651 892.593 169.149 893.908 169.512C895.268 169.875 896.764 170.192 898.396 170.464C900.028 170.691 901.66 171.008 903.292 171.416C904.924 171.779 906.397 172.3 907.712 172.98C909.072 173.66 910.16 174.612 910.976 175.836C911.837 177.06 912.268 178.692 912.268 180.732C912.268 182.908 911.633 184.789 910.364 186.376C909.095 187.963 907.304 189.209 904.992 190.116C902.68 190.977 899.915 191.408 896.696 191.408ZM961.06 191V183.384L960.72 181.956V168.968C960.72 166.203 959.904 164.072 958.272 162.576C956.685 161.035 954.283 160.264 951.064 160.264C948.933 160.264 946.848 160.627 944.808 161.352C942.768 162.032 941.045 162.961 939.64 164.14L936.92 159.244C938.779 157.748 941 156.615 943.584 155.844C946.213 155.028 948.956 154.62 951.812 154.62C956.753 154.62 960.561 155.821 963.236 158.224C965.911 160.627 967.248 164.299 967.248 169.24V191H961.06ZM949.228 191.408C946.553 191.408 944.196 190.955 942.156 190.048C940.161 189.141 938.62 187.895 937.532 186.308C936.444 184.676 935.9 182.84 935.9 180.8C935.9 178.851 936.353 177.083 937.26 175.496C938.212 173.909 939.731 172.64 941.816 171.688C943.947 170.736 946.803 170.26 950.384 170.26H961.808V174.952H950.656C947.392 174.952 945.193 175.496 944.06 176.584C942.927 177.672 942.36 178.987 942.36 180.528C942.36 182.296 943.063 183.724 944.468 184.812C945.873 185.855 947.823 186.376 950.316 186.376C952.764 186.376 954.895 185.832 956.708 184.744C958.567 183.656 959.904 182.069 960.72 179.984L962.012 184.472C961.151 186.603 959.632 188.303 957.456 189.572C955.28 190.796 952.537 191.408 949.228 191.408ZM998.542 191V143.4H1018.6C1023.68 143.4 1028.15 144.397 1032 146.392C1035.9 148.387 1038.91 151.175 1041.04 154.756C1043.22 158.337 1044.31 162.485 1044.31 167.2C1044.31 171.915 1043.22 176.063 1041.04 179.644C1038.91 183.225 1035.9 186.013 1032 188.008C1028.15 190.003 1023.68 191 1018.6 191H998.542ZM1005.34 185.084H1018.19C1022.14 185.084 1025.54 184.336 1028.39 182.84C1031.3 181.344 1033.54 179.259 1035.13 176.584C1036.71 173.864 1037.51 170.736 1037.51 167.2C1037.51 163.619 1036.71 160.491 1035.13 157.816C1033.54 155.141 1031.3 153.056 1028.39 151.56C1025.54 150.064 1022.14 149.316 1018.19 149.316H1005.34V185.084ZM1046.85 191L1068.41 143.4H1075.14L1096.76 191H1089.62L1070.38 147.208H1073.1L1053.85 191H1046.85ZM1056.03 179.1L1057.87 173.66H1084.66L1086.63 179.1H1056.03ZM1124.69 191.544C1121.06 191.544 1117.68 190.932 1114.55 189.708C1111.47 188.484 1108.8 186.784 1106.53 184.608C1104.26 182.387 1102.5 179.803 1101.23 176.856C1099.96 173.909 1099.32 170.691 1099.32 167.2C1099.32 163.709 1099.96 160.491 1101.23 157.544C1102.5 154.597 1104.26 152.036 1106.53 149.86C1108.8 147.639 1111.47 145.916 1114.55 144.692C1117.64 143.468 1121.01 142.856 1124.69 142.856C1128.31 142.856 1131.65 143.468 1134.68 144.692C1137.77 145.871 1140.44 147.571 1142.71 149.792C1145.02 151.968 1146.79 154.529 1148.01 157.476C1149.28 160.423 1149.91 163.664 1149.91 167.2C1149.91 170.736 1149.28 173.977 1148.01 176.924C1146.79 179.871 1145.02 182.455 1142.71 184.676C1140.44 186.852 1137.77 188.552 1134.68 189.776C1131.65 190.955 1128.31 191.544 1124.69 191.544ZM1124.69 185.492C1127.32 185.492 1129.74 185.039 1131.96 184.132C1134.23 183.225 1136.18 181.956 1137.81 180.324C1139.49 178.647 1140.78 176.697 1141.69 174.476C1142.64 172.255 1143.11 169.829 1143.11 167.2C1143.11 164.571 1142.64 162.145 1141.69 159.924C1140.78 157.703 1139.49 155.776 1137.81 154.144C1136.18 152.467 1134.23 151.175 1131.96 150.268C1129.74 149.361 1127.32 148.908 1124.69 148.908C1122.01 148.908 1119.54 149.361 1117.27 150.268C1115.05 151.175 1113.1 152.467 1111.43 154.144C1109.75 155.776 1108.43 157.703 1107.48 159.924C1106.58 162.145 1106.12 164.571 1106.12 167.2C1106.12 169.829 1106.58 172.255 1107.48 174.476C1108.43 176.697 1109.75 178.647 1111.43 180.324C1113.1 181.956 1115.05 183.225 1117.27 184.132C1119.54 185.039 1122.01 185.492 1124.69 185.492Z" fill="#F1EAE1"/>
<path fill-rule="evenodd" clip-rule="evenodd" d="M822 673.453C875.262 673.453 918.44 630.493 918.44 577.5C918.44 524.507 875.262 481.547 822 481.547C768.738 481.547 725.56 524.507 725.56 577.5C725.56 630.493 768.738 673.453 822 673.453ZM822 676C876.676 676 921 631.9 921 577.5C921 523.1 876.676 479 822 479C767.324 479 723 523.1 723 577.5C723 631.9 767.324 676 822 676Z" fill="#F1EAE1"/>
<path fill-rule="evenodd" clip-rule="evenodd" d="M1292 578H871V579H1292V578Z" fill="#F1EAE1"/>
<path fill-rule="evenodd" clip-rule="evenodd" d="M817 433H373V434H817V433Z" fill="#F1EAE1"/>
<path fill-rule="evenodd" clip-rule="evenodd" d="M803 733H383V734H803V733Z" fill="#F1EAE1"/>
<path d="M1336.53 568.7H1346.96V571H1333.82V549.672H1336.53V568.7ZM1363.22 561.142H1354.31V568.7H1364.7V571H1351.6V549.672H1364.57V551.986H1354.31V558.842H1363.22V561.142ZM1379.69 565.478H1372.57L1370.85 571H1368.14L1375.03 549.672H1377.3L1384.07 571H1381.37L1379.69 565.478ZM1373.3 563.119H1378.97L1376.16 553.861L1373.3 563.119ZM1387.24 571V549.672H1392.18C1393.01 549.682 1393.79 549.77 1394.52 549.936C1395.27 550.092 1395.95 550.316 1396.58 550.609C1397.44 551.01 1398.21 551.537 1398.88 552.191C1399.55 552.836 1400.09 553.583 1400.49 554.433C1400.85 555.155 1401.12 555.946 1401.31 556.806C1401.5 557.665 1401.6 558.583 1401.61 559.56V561.127C1401.61 562.064 1401.52 562.953 1401.34 563.793C1401.16 564.633 1400.9 565.404 1400.56 566.107C1400.21 566.84 1399.76 567.504 1399.23 568.1C1398.69 568.695 1398.09 569.203 1397.42 569.623C1396.72 570.062 1395.93 570.399 1395.04 570.634C1394.16 570.868 1393.21 570.99 1392.18 571H1387.24ZM1390 551.898V568.788H1392.18C1392.96 568.778 1393.67 568.681 1394.3 568.495C1394.95 568.31 1395.52 568.046 1396.02 567.704C1396.55 567.353 1397 566.923 1397.38 566.415C1397.77 565.897 1398.08 565.321 1398.3 564.687C1398.5 564.169 1398.65 563.612 1398.74 563.017C1398.84 562.411 1398.89 561.781 1398.9 561.127V559.53C1398.89 558.866 1398.84 558.231 1398.73 557.626C1398.63 557.011 1398.48 556.439 1398.27 555.912C1398.01 555.229 1397.65 554.613 1397.21 554.066C1396.77 553.51 1396.22 553.061 1395.58 552.719C1395.12 552.465 1394.61 552.27 1394.04 552.133C1393.47 551.986 1392.85 551.908 1392.18 551.898H1390ZM1417.27 561.142H1408.37V568.7H1418.75V571H1405.66V549.672H1418.62V551.986H1408.37V558.842H1417.27V561.142ZM1430.62 562.299H1426.36V571H1423.66V549.672H1429.92C1430.91 549.691 1431.85 549.833 1432.73 550.097C1433.61 550.36 1434.38 550.756 1435.04 551.283C1435.7 551.811 1436.21 552.475 1436.58 553.275C1436.96 554.066 1437.15 554.999 1437.15 556.073C1437.15 556.767 1437.05 557.401 1436.84 557.978C1436.65 558.554 1436.38 559.076 1436.02 559.545C1435.67 560.014 1435.25 560.429 1434.76 560.79C1434.28 561.151 1433.74 561.459 1433.15 561.713L1437.68 570.824L1437.66 571H1434.81L1430.62 562.299ZM1426.36 560.072H1429.99C1430.59 560.062 1431.17 559.97 1431.7 559.794C1432.24 559.608 1432.71 559.345 1433.12 559.003C1433.52 558.661 1433.84 558.246 1434.08 557.758C1434.31 557.26 1434.43 556.688 1434.43 556.044C1434.43 555.36 1434.31 554.765 1434.09 554.257C1433.87 553.739 1433.55 553.305 1433.15 552.953C1432.75 552.611 1432.27 552.353 1431.72 552.177C1431.17 552.001 1430.57 551.908 1429.92 551.898H1426.36V560.072ZM1452.74 565.609C1452.74 564.955 1452.59 564.403 1452.28 563.954C1451.99 563.505 1451.61 563.124 1451.14 562.812C1450.67 562.509 1450.15 562.255 1449.59 562.05C1449.03 561.845 1448.49 561.659 1447.98 561.493C1447.22 561.249 1446.46 560.956 1445.68 560.614C1444.91 560.263 1444.2 559.843 1443.57 559.354C1442.92 558.856 1442.4 558.271 1441.99 557.597C1441.58 556.913 1441.38 556.112 1441.38 555.194C1441.38 554.276 1441.58 553.456 1441.99 552.733C1442.4 552.011 1442.93 551.4 1443.58 550.902C1444.24 550.404 1444.98 550.028 1445.81 549.774C1446.64 549.511 1447.47 549.379 1448.31 549.379C1449.24 549.379 1450.13 549.535 1450.99 549.848C1451.85 550.15 1452.62 550.58 1453.28 551.137C1453.94 551.693 1454.48 552.367 1454.88 553.158C1455.28 553.949 1455.49 554.833 1455.51 555.81H1452.72C1452.64 555.194 1452.49 554.638 1452.27 554.14C1452.04 553.632 1451.75 553.197 1451.38 552.836C1451 552.475 1450.56 552.196 1450.04 552.001C1449.53 551.796 1448.96 551.693 1448.31 551.693C1447.8 551.693 1447.29 551.767 1446.79 551.913C1446.3 552.06 1445.87 552.279 1445.49 552.572C1445.1 552.865 1444.78 553.227 1444.55 553.656C1444.32 554.086 1444.21 554.584 1444.21 555.15C1444.22 555.766 1444.38 556.288 1444.68 556.718C1444.98 557.138 1445.37 557.494 1445.84 557.787C1446.3 558.08 1446.79 558.324 1447.33 558.52C1447.88 558.715 1448.39 558.886 1448.87 559.032C1449.66 559.276 1450.45 559.574 1451.24 559.926C1452.03 560.268 1452.76 560.707 1453.41 561.244C1454.06 561.742 1454.57 562.353 1454.96 563.075C1455.36 563.798 1455.56 564.633 1455.56 565.58C1455.56 566.537 1455.35 567.372 1454.92 568.085C1454.5 568.798 1453.95 569.389 1453.28 569.857C1452.61 570.336 1451.84 570.697 1450.99 570.941C1450.14 571.176 1449.29 571.293 1448.45 571.293C1447.43 571.293 1446.43 571.122 1445.44 570.78C1444.47 570.438 1443.62 569.945 1442.89 569.301C1442.25 568.744 1441.74 568.095 1441.36 567.353C1440.98 566.601 1440.78 565.766 1440.75 564.848H1443.52C1443.61 565.512 1443.79 566.103 1444.07 566.62C1444.34 567.128 1444.69 567.558 1445.12 567.909C1445.55 568.271 1446.04 568.544 1446.6 568.729C1447.17 568.905 1447.78 568.993 1448.45 568.993C1448.97 568.993 1449.49 568.93 1450 568.803C1450.52 568.666 1450.97 568.456 1451.38 568.173C1451.78 567.899 1452.1 567.553 1452.36 567.133C1452.61 566.703 1452.74 566.195 1452.74 565.609ZM1476.63 565.536C1476.63 564.882 1476.73 564.276 1476.92 563.72C1477.12 563.163 1477.39 562.641 1477.74 562.152C1478.04 561.742 1478.39 561.352 1478.78 560.98C1479.18 560.609 1479.62 560.243 1480.1 559.882L1480.63 559.501C1480.27 559.013 1479.94 558.544 1479.66 558.095C1479.38 557.636 1479.14 557.187 1478.96 556.747C1478.81 556.386 1478.69 556.02 1478.61 555.648C1478.53 555.277 1478.49 554.896 1478.49 554.506C1478.49 553.676 1478.61 552.943 1478.86 552.309C1479.11 551.664 1479.47 551.122 1479.92 550.683C1480.38 550.253 1480.94 549.926 1481.58 549.701C1482.22 549.477 1482.95 549.364 1483.75 549.364C1484.44 549.364 1485.07 549.486 1485.64 549.73C1486.2 549.975 1486.69 550.302 1487.09 550.712C1487.48 551.132 1487.78 551.615 1488 552.162C1488.21 552.709 1488.32 553.285 1488.32 553.891C1488.32 554.408 1488.24 554.882 1488.08 555.312C1487.94 555.731 1487.73 556.127 1487.47 556.498C1487.2 556.869 1486.87 557.221 1486.5 557.553C1486.13 557.885 1485.73 558.212 1485.3 558.534L1483.92 559.706L1488.42 565.609C1488.76 564.984 1489.03 564.301 1489.23 563.559C1489.42 562.816 1489.52 562.016 1489.53 561.156H1491.98C1491.98 562.406 1491.8 563.568 1491.44 564.643C1491.09 565.707 1490.57 566.669 1489.89 567.528L1492.54 571H1489.3L1488.08 569.389C1487.81 569.623 1487.52 569.838 1487.22 570.033C1486.93 570.229 1486.62 570.399 1486.31 570.546C1485.79 570.79 1485.25 570.976 1484.69 571.103C1484.13 571.229 1483.55 571.293 1482.96 571.293C1481.99 571.293 1481.12 571.151 1480.33 570.868C1479.55 570.585 1478.89 570.189 1478.34 569.682C1477.8 569.174 1477.37 568.568 1477.07 567.865C1476.78 567.152 1476.63 566.376 1476.63 565.536ZM1482.96 569.096C1483.36 569.096 1483.75 569.052 1484.14 568.964C1484.53 568.876 1484.91 568.749 1485.27 568.583C1485.54 568.466 1485.79 568.329 1486.03 568.173C1486.29 568.007 1486.53 567.826 1486.77 567.631L1482.03 561.317L1481.62 561.669C1481.14 562.069 1480.74 562.46 1480.44 562.841C1480.13 563.222 1479.91 563.578 1479.75 563.91C1479.58 564.252 1479.47 564.564 1479.41 564.848C1479.36 565.121 1479.34 565.351 1479.34 565.536C1479.34 566.034 1479.42 566.498 1479.57 566.928C1479.73 567.357 1479.96 567.733 1480.26 568.056C1480.56 568.378 1480.94 568.632 1481.39 568.817C1481.84 569.003 1482.36 569.096 1482.96 569.096ZM1481.21 554.477C1481.21 554.721 1481.24 554.97 1481.29 555.224C1481.34 555.468 1481.41 555.712 1481.51 555.956C1481.62 556.278 1481.78 556.605 1481.96 556.938C1482.15 557.27 1482.36 557.611 1482.61 557.963L1484.32 556.601C1484.62 556.396 1484.87 556.181 1485.07 555.956C1485.26 555.731 1485.41 555.502 1485.52 555.268C1485.63 555.043 1485.7 554.813 1485.74 554.579C1485.79 554.345 1485.81 554.115 1485.81 553.891C1485.81 553.598 1485.76 553.314 1485.67 553.041C1485.58 552.758 1485.45 552.509 1485.27 552.294C1485.09 552.089 1484.87 551.923 1484.61 551.796C1484.36 551.659 1484.07 551.591 1483.75 551.591C1483.33 551.591 1482.96 551.669 1482.63 551.825C1482.32 551.981 1482.06 552.191 1481.86 552.455C1481.64 552.719 1481.48 553.026 1481.38 553.378C1481.27 553.72 1481.21 554.086 1481.21 554.477ZM1354.34 600.581H1345.47V610H1342.73V588.672H1355.82V590.986H1345.47V598.281H1354.34V600.581ZM1374.37 600.566C1374.36 601.328 1374.29 602.1 1374.16 602.881C1374.05 603.652 1373.86 604.399 1373.61 605.122C1373.35 605.845 1373.03 606.519 1372.62 607.144C1372.23 607.769 1371.77 608.315 1371.22 608.784C1370.67 609.253 1370.04 609.624 1369.33 609.897C1368.63 610.161 1367.83 610.293 1366.96 610.293C1366.08 610.293 1365.28 610.161 1364.57 609.897C1363.87 609.624 1363.24 609.253 1362.69 608.784C1362.15 608.315 1361.67 607.769 1361.27 607.144C1360.87 606.509 1360.54 605.83 1360.29 605.107C1360.03 604.385 1359.83 603.638 1359.71 602.866C1359.58 602.095 1359.51 601.328 1359.5 600.566V598.135C1359.51 597.373 1359.57 596.606 1359.69 595.835C1359.82 595.054 1360.01 594.302 1360.28 593.579C1360.53 592.856 1360.85 592.183 1361.24 591.558C1361.64 590.923 1362.12 590.366 1362.66 589.888C1363.21 589.419 1363.84 589.053 1364.54 588.789C1365.25 588.516 1366.05 588.379 1366.93 588.379C1367.81 588.379 1368.6 588.516 1369.31 588.789C1370.03 589.053 1370.66 589.419 1371.2 589.888C1371.75 590.356 1372.22 590.908 1372.61 591.543C1373.01 592.168 1373.34 592.842 1373.61 593.564C1373.86 594.287 1374.05 595.039 1374.16 595.82C1374.29 596.602 1374.36 597.373 1374.37 598.135V600.566ZM1371.69 598.105C1371.68 597.598 1371.64 597.07 1371.58 596.523C1371.53 595.967 1371.43 595.415 1371.29 594.868C1371.15 594.331 1370.96 593.818 1370.72 593.33C1370.49 592.832 1370.19 592.393 1369.84 592.012C1369.49 591.641 1369.08 591.348 1368.6 591.133C1368.12 590.908 1367.56 590.796 1366.93 590.796C1366.3 590.796 1365.75 590.908 1365.27 591.133C1364.79 591.357 1364.38 591.655 1364.03 592.026C1363.67 592.407 1363.38 592.847 1363.15 593.345C1362.91 593.833 1362.73 594.346 1362.59 594.883C1362.44 595.43 1362.34 595.981 1362.27 596.538C1362.21 597.085 1362.18 597.607 1362.17 598.105V600.566C1362.18 601.064 1362.21 601.592 1362.27 602.148C1362.34 602.705 1362.44 603.252 1362.59 603.789C1362.74 604.336 1362.93 604.858 1363.16 605.356C1363.4 605.854 1363.69 606.289 1364.04 606.66C1364.39 607.041 1364.81 607.344 1365.29 607.568C1365.76 607.793 1366.32 607.905 1366.96 607.905C1367.59 607.905 1368.15 607.793 1368.63 607.568C1369.11 607.344 1369.53 607.041 1369.89 606.66C1370.23 606.289 1370.51 605.859 1370.74 605.371C1370.97 604.873 1371.16 604.351 1371.31 603.804C1371.44 603.267 1371.54 602.72 1371.58 602.163C1371.64 601.606 1371.68 601.074 1371.69 600.566V598.105ZM1391.9 588.672L1391.93 603.115C1391.93 604.111 1391.76 605.044 1391.4 605.913C1391.05 606.782 1390.57 607.539 1389.95 608.184C1389.34 608.838 1388.61 609.355 1387.76 609.736C1386.91 610.107 1385.97 610.293 1384.96 610.293C1383.92 610.293 1382.98 610.107 1382.13 609.736C1381.28 609.365 1380.55 608.853 1379.95 608.198C1379.34 607.554 1378.87 606.797 1378.53 605.928C1378.19 605.049 1378.01 604.111 1378 603.115L1378.03 588.672H1380.61L1380.67 603.115C1380.68 603.75 1380.77 604.36 1380.96 604.946C1381.16 605.532 1381.43 606.05 1381.79 606.499C1382.15 606.948 1382.59 607.31 1383.11 607.583C1383.65 607.856 1384.27 607.993 1384.96 607.993C1385.65 607.993 1386.26 607.861 1386.79 607.598C1387.32 607.324 1387.76 606.958 1388.12 606.499C1388.47 606.05 1388.74 605.532 1388.93 604.946C1389.11 604.36 1389.22 603.75 1389.24 603.115L1389.28 588.672H1391.9ZM1409.89 610H1407.14L1398.86 594.062L1398.82 610H1396.08V588.672H1398.83L1407.11 604.58L1407.15 588.672H1409.89V610ZM1414.27 610V588.672H1419.21C1420.04 588.682 1420.82 588.77 1421.55 588.936C1422.29 589.092 1422.98 589.316 1423.6 589.609C1424.47 590.01 1425.24 590.537 1425.9 591.191C1426.58 591.836 1427.11 592.583 1427.51 593.433C1427.87 594.155 1428.15 594.946 1428.33 595.806C1428.53 596.665 1428.63 597.583 1428.64 598.56V600.127C1428.64 601.064 1428.55 601.953 1428.36 602.793C1428.19 603.633 1427.93 604.404 1427.59 605.107C1427.23 605.84 1426.79 606.504 1426.25 607.1C1425.72 607.695 1425.12 608.203 1424.45 608.623C1423.75 609.062 1422.95 609.399 1422.06 609.634C1421.18 609.868 1420.23 609.99 1419.21 610H1414.27ZM1417.02 590.898V607.788H1419.21C1419.99 607.778 1420.7 607.681 1421.33 607.495C1421.98 607.31 1422.55 607.046 1423.04 606.704C1423.57 606.353 1424.03 605.923 1424.41 605.415C1424.8 604.897 1425.11 604.321 1425.33 603.687C1425.53 603.169 1425.67 602.612 1425.77 602.017C1425.87 601.411 1425.92 600.781 1425.93 600.127V598.53C1425.92 597.866 1425.86 597.231 1425.75 596.626C1425.66 596.011 1425.51 595.439 1425.3 594.912C1425.04 594.229 1424.68 593.613 1424.23 593.066C1423.79 592.51 1423.25 592.061 1422.61 591.719C1422.15 591.465 1421.63 591.27 1421.07 591.133C1420.5 590.986 1419.88 590.908 1419.21 590.898H1417.02ZM1444.3 600.142H1435.39V607.7H1445.78V610H1432.68V588.672H1445.65V590.986H1435.39V597.842H1444.3V600.142ZM1457.64 601.299H1453.38V610H1450.69V588.672H1456.94C1457.94 588.691 1458.88 588.833 1459.75 589.097C1460.63 589.36 1461.4 589.756 1462.07 590.283C1462.72 590.811 1463.24 591.475 1463.61 592.275C1463.99 593.066 1464.18 593.999 1464.18 595.073C1464.18 595.767 1464.08 596.401 1463.87 596.978C1463.67 597.554 1463.4 598.076 1463.05 598.545C1462.7 599.014 1462.28 599.429 1461.79 599.79C1461.3 600.151 1460.76 600.459 1460.18 600.713L1464.71 609.824L1464.69 610H1461.83L1457.64 601.299ZM1453.38 599.072H1457.01C1457.62 599.062 1458.19 598.97 1458.73 598.794C1459.27 598.608 1459.74 598.345 1460.15 598.003C1460.55 597.661 1460.87 597.246 1461.1 596.758C1461.34 596.26 1461.45 595.688 1461.45 595.044C1461.45 594.36 1461.34 593.765 1461.12 593.257C1460.89 592.739 1460.58 592.305 1460.18 591.953C1459.78 591.611 1459.3 591.353 1458.74 591.177C1458.2 591.001 1457.6 590.908 1456.94 590.898H1453.38V599.072ZM1479.76 604.609C1479.76 603.955 1479.61 603.403 1479.31 602.954C1479.02 602.505 1478.64 602.124 1478.17 601.812C1477.7 601.509 1477.18 601.255 1476.61 601.05C1476.06 600.845 1475.52 600.659 1475 600.493C1474.25 600.249 1473.48 599.956 1472.7 599.614C1471.93 599.263 1471.23 598.843 1470.59 598.354C1469.95 597.856 1469.42 597.271 1469.01 596.597C1468.61 595.913 1468.41 595.112 1468.41 594.194C1468.41 593.276 1468.61 592.456 1469.01 591.733C1469.42 591.011 1469.95 590.4 1470.61 589.902C1471.26 589.404 1472 589.028 1472.83 588.774C1473.67 588.511 1474.5 588.379 1475.34 588.379C1476.27 588.379 1477.16 588.535 1478.02 588.848C1478.88 589.15 1479.64 589.58 1480.31 590.137C1480.97 590.693 1481.5 591.367 1481.9 592.158C1482.3 592.949 1482.51 593.833 1482.53 594.81H1479.75C1479.67 594.194 1479.52 593.638 1479.29 593.14C1479.07 592.632 1478.77 592.197 1478.4 591.836C1478.03 591.475 1477.59 591.196 1477.07 591.001C1476.56 590.796 1475.98 590.693 1475.34 590.693C1474.82 590.693 1474.31 590.767 1473.82 590.913C1473.33 591.06 1472.89 591.279 1472.51 591.572C1472.12 591.865 1471.81 592.227 1471.58 592.656C1471.35 593.086 1471.24 593.584 1471.24 594.15C1471.25 594.766 1471.4 595.288 1471.71 595.718C1472.01 596.138 1472.4 596.494 1472.86 596.787C1473.32 597.08 1473.82 597.324 1474.36 597.52C1474.91 597.715 1475.42 597.886 1475.9 598.032C1476.69 598.276 1477.48 598.574 1478.27 598.926C1479.06 599.268 1479.78 599.707 1480.44 600.244C1481.08 600.742 1481.6 601.353 1481.99 602.075C1482.39 602.798 1482.59 603.633 1482.59 604.58C1482.59 605.537 1482.38 606.372 1481.95 607.085C1481.53 607.798 1480.98 608.389 1480.31 608.857C1479.63 609.336 1478.87 609.697 1478.02 609.941C1477.17 610.176 1476.32 610.293 1475.47 610.293C1474.46 610.293 1473.46 610.122 1472.47 609.78C1471.49 609.438 1470.64 608.945 1469.92 608.301C1469.28 607.744 1468.76 607.095 1468.38 606.353C1468.01 605.601 1467.81 604.766 1467.78 603.848H1470.55C1470.64 604.512 1470.82 605.103 1471.09 605.62C1471.37 606.128 1471.72 606.558 1472.15 606.909C1472.58 607.271 1473.07 607.544 1473.63 607.729C1474.19 607.905 1474.81 607.993 1475.47 607.993C1476 607.993 1476.52 607.93 1477.02 607.803C1477.54 607.666 1478 607.456 1478.4 607.173C1478.8 606.899 1479.13 606.553 1479.38 606.133C1479.64 605.703 1479.76 605.195 1479.76 604.609Z" fill="#F1EAE1"/>
<path d="M159.674 708V686.672H164.61C165.44 686.682 166.222 686.77 166.954 686.936C167.696 687.092 168.38 687.316 169.005 687.609C169.874 688.01 170.641 688.537 171.305 689.191C171.979 689.836 172.516 690.583 172.916 691.433C173.277 692.155 173.551 692.946 173.736 693.806C173.932 694.665 174.034 695.583 174.044 696.56V698.127C174.044 699.064 173.951 699.953 173.766 700.793C173.59 701.633 173.331 702.404 172.989 703.107C172.638 703.84 172.193 704.504 171.656 705.1C171.119 705.695 170.519 706.203 169.854 706.623C169.151 707.062 168.355 707.399 167.467 707.634C166.588 707.868 165.636 707.99 164.61 708H159.674ZM162.428 688.898V705.788H164.61C165.392 705.778 166.1 705.681 166.734 705.495C167.379 705.31 167.95 705.046 168.448 704.704C168.976 704.353 169.43 703.923 169.811 703.415C170.201 702.897 170.509 702.321 170.733 701.687C170.929 701.169 171.075 700.612 171.173 700.017C171.271 699.411 171.324 698.781 171.334 698.127V696.53C171.324 695.866 171.266 695.231 171.158 694.626C171.061 694.011 170.909 693.439 170.704 692.912C170.44 692.229 170.084 691.613 169.635 691.066C169.195 690.51 168.653 690.061 168.009 689.719C167.55 689.465 167.037 689.27 166.471 689.133C165.904 688.986 165.284 688.908 164.61 688.898H162.428ZM189.703 698.142H180.797V705.7H191.183V708H178.087V686.672H191.051V688.986H180.797V695.842H189.703V698.142ZM199.049 705.7H209.479V708H196.339V686.672H199.049V705.7ZM225.738 698.142H216.832V705.7H227.218V708H214.122V686.672H227.086V688.986H216.832V695.842H225.738V698.142ZM245.821 705.202C245.489 705.593 245.138 705.949 244.767 706.271C244.396 706.584 244.01 706.857 243.609 707.092C242.926 707.502 242.188 707.805 241.397 708C240.606 708.205 239.776 708.303 238.907 708.293C238.028 708.283 237.218 708.151 236.476 707.897C235.743 707.634 235.084 707.272 234.498 706.813C233.912 706.364 233.399 705.832 232.96 705.217C232.521 704.602 232.154 703.933 231.861 703.21C231.559 702.497 231.329 701.75 231.173 700.969C231.026 700.178 230.948 699.382 230.938 698.581V696.105C230.948 695.314 231.017 694.528 231.144 693.747C231.28 692.956 231.485 692.199 231.759 691.477C232.032 690.754 232.374 690.085 232.784 689.47C233.194 688.845 233.688 688.303 234.264 687.844C234.83 687.395 235.475 687.038 236.197 686.774C236.92 686.511 237.73 686.379 238.629 686.379C239.625 686.379 240.543 686.535 241.383 686.848C242.223 687.15 242.955 687.585 243.58 688.151C244.205 688.728 244.708 689.421 245.089 690.231C245.47 691.032 245.704 691.931 245.792 692.927H243.111C243.004 692.312 242.838 691.745 242.613 691.228C242.389 690.7 242.096 690.251 241.734 689.88C241.363 689.509 240.924 689.221 240.416 689.016C239.908 688.801 239.317 688.693 238.644 688.693C237.999 688.693 237.428 688.806 236.93 689.03C236.432 689.245 235.997 689.538 235.626 689.909C235.255 690.28 234.947 690.715 234.703 691.213C234.459 691.701 234.259 692.219 234.103 692.766C233.946 693.312 233.834 693.869 233.766 694.436C233.697 695.002 233.663 695.549 233.663 696.076V698.581C233.673 699.118 233.717 699.675 233.795 700.251C233.883 700.817 234.015 701.374 234.19 701.921C234.366 702.468 234.591 702.985 234.864 703.474C235.138 703.962 235.47 704.392 235.86 704.763C236.241 705.134 236.686 705.432 237.193 705.656C237.701 705.871 238.277 705.983 238.922 705.993C239.293 706.003 239.679 705.988 240.079 705.949C240.489 705.91 240.885 705.832 241.266 705.715C241.646 705.598 242.003 705.441 242.335 705.246C242.667 705.041 242.945 704.777 243.17 704.455L243.199 699.665H238.863V697.38H245.777L245.821 705.202ZM260.221 702.478H253.102L251.388 708H248.678L255.562 686.672H257.833L264.601 708H261.905L260.221 702.478ZM253.834 700.119H259.503L256.69 690.861L253.834 700.119ZM282.442 688.986H275.851V708H273.214V688.986H266.622V686.672H282.442V688.986ZM297.809 698.142H288.902V705.7H299.288V708H286.192V686.672H299.156V688.986H288.902V695.842H297.809V698.142ZM315.255 702.609C315.255 701.955 315.104 701.403 314.801 700.954C314.508 700.505 314.127 700.124 313.658 699.812C313.189 699.509 312.672 699.255 312.105 699.05C311.549 698.845 311.012 698.659 310.494 698.493C309.742 698.249 308.976 697.956 308.194 697.614C307.423 697.263 306.72 696.843 306.085 696.354C305.44 695.856 304.913 695.271 304.503 694.597C304.103 693.913 303.902 693.112 303.902 692.194C303.902 691.276 304.103 690.456 304.503 689.733C304.913 689.011 305.445 688.4 306.1 687.902C306.754 687.404 307.496 687.028 308.326 686.774C309.156 686.511 309.991 686.379 310.831 686.379C311.759 686.379 312.652 686.535 313.512 686.848C314.371 687.15 315.133 687.58 315.797 688.137C316.461 688.693 316.993 689.367 317.394 690.158C317.794 690.949 318.004 691.833 318.023 692.81H315.24C315.162 692.194 315.011 691.638 314.786 691.14C314.562 690.632 314.264 690.197 313.893 689.836C313.521 689.475 313.077 689.196 312.56 689.001C312.052 688.796 311.476 688.693 310.831 688.693C310.313 688.693 309.806 688.767 309.308 688.913C308.819 689.06 308.385 689.279 308.004 689.572C307.613 689.865 307.301 690.227 307.066 690.656C306.842 691.086 306.729 691.584 306.729 692.15C306.739 692.766 306.896 693.288 307.198 693.718C307.501 694.138 307.887 694.494 308.355 694.787C308.814 695.08 309.312 695.324 309.85 695.52C310.396 695.715 310.909 695.886 311.388 696.032C312.179 696.276 312.97 696.574 313.761 696.926C314.552 697.268 315.274 697.707 315.929 698.244C316.573 698.742 317.091 699.353 317.481 700.075C317.882 700.798 318.082 701.633 318.082 702.58C318.082 703.537 317.867 704.372 317.438 705.085C317.018 705.798 316.471 706.389 315.797 706.857C315.123 707.336 314.361 707.697 313.512 707.941C312.662 708.176 311.812 708.293 310.963 708.293C309.947 708.293 308.946 708.122 307.96 707.78C306.983 707.438 306.134 706.945 305.411 706.301C304.767 705.744 304.254 705.095 303.873 704.353C303.502 703.601 303.302 702.766 303.272 701.848H306.041C306.129 702.512 306.31 703.103 306.583 703.62C306.856 704.128 307.208 704.558 307.638 704.909C308.067 705.271 308.561 705.544 309.117 705.729C309.684 705.905 310.299 705.993 310.963 705.993C311.49 705.993 312.008 705.93 312.516 705.803C313.033 705.666 313.492 705.456 313.893 705.173C314.293 704.899 314.62 704.553 314.874 704.133C315.128 703.703 315.255 703.195 315.255 702.609ZM339.146 702.536C339.146 701.882 339.244 701.276 339.439 700.72C339.635 700.163 339.908 699.641 340.26 699.152C340.562 698.742 340.909 698.352 341.3 697.98C341.7 697.609 342.14 697.243 342.618 696.882L343.146 696.501C342.784 696.013 342.462 695.544 342.179 695.095C341.896 694.636 341.661 694.187 341.476 693.747C341.329 693.386 341.212 693.02 341.124 692.648C341.046 692.277 341.007 691.896 341.007 691.506C341.007 690.676 341.129 689.943 341.373 689.309C341.627 688.664 341.983 688.122 342.442 687.683C342.901 687.253 343.453 686.926 344.098 686.701C344.742 686.477 345.465 686.364 346.266 686.364C346.959 686.364 347.589 686.486 348.155 686.73C348.722 686.975 349.205 687.302 349.605 687.712C349.996 688.132 350.299 688.615 350.514 689.162C350.729 689.709 350.836 690.285 350.836 690.891C350.836 691.408 350.758 691.882 350.602 692.312C350.455 692.731 350.25 693.127 349.986 693.498C349.713 693.869 349.391 694.221 349.02 694.553C348.648 694.885 348.248 695.212 347.818 695.534L346.441 696.706L350.938 702.609C351.28 701.984 351.549 701.301 351.744 700.559C351.939 699.816 352.042 699.016 352.052 698.156H354.498C354.498 699.406 354.317 700.568 353.956 701.643C353.604 702.707 353.087 703.669 352.403 704.528L355.055 708H351.817L350.602 706.389C350.328 706.623 350.04 706.838 349.737 707.033C349.444 707.229 349.142 707.399 348.829 707.546C348.312 707.79 347.77 707.976 347.203 708.103C346.646 708.229 346.07 708.293 345.475 708.293C344.508 708.293 343.634 708.151 342.853 707.868C342.071 707.585 341.407 707.189 340.86 706.682C340.313 706.174 339.889 705.568 339.586 704.865C339.293 704.152 339.146 703.376 339.146 702.536ZM345.475 706.096C345.875 706.096 346.271 706.052 346.661 705.964C347.052 705.876 347.428 705.749 347.789 705.583C348.053 705.466 348.307 705.329 348.551 705.173C348.805 705.007 349.049 704.826 349.283 704.631L344.552 698.317L344.142 698.669C343.653 699.069 343.258 699.46 342.955 699.841C342.652 700.222 342.423 700.578 342.267 700.91C342.101 701.252 341.988 701.564 341.93 701.848C341.881 702.121 341.856 702.351 341.856 702.536C341.856 703.034 341.935 703.498 342.091 703.928C342.247 704.357 342.477 704.733 342.779 705.056C343.082 705.378 343.458 705.632 343.907 705.817C344.356 706.003 344.879 706.096 345.475 706.096ZM343.731 691.477C343.731 691.721 343.756 691.97 343.805 692.224C343.854 692.468 343.927 692.712 344.024 692.956C344.142 693.278 344.293 693.605 344.479 693.938C344.664 694.27 344.879 694.611 345.123 694.963L346.837 693.601C347.14 693.396 347.389 693.181 347.584 692.956C347.779 692.731 347.931 692.502 348.038 692.268C348.146 692.043 348.219 691.813 348.258 691.579C348.307 691.345 348.331 691.115 348.331 690.891C348.331 690.598 348.282 690.314 348.185 690.041C348.097 689.758 347.965 689.509 347.789 689.294C347.604 689.089 347.384 688.923 347.13 688.796C346.876 688.659 346.588 688.591 346.266 688.591C345.846 688.591 345.475 688.669 345.152 688.825C344.84 688.981 344.581 689.191 344.376 689.455C344.161 689.719 344 690.026 343.893 690.378C343.785 690.72 343.731 691.086 343.731 691.477ZM215.177 741.478H208.058L206.344 747H203.634L210.519 725.672H212.789L219.557 747H216.861L215.177 741.478ZM208.79 739.119H214.459L211.646 729.861L208.79 739.119ZM236.827 740.584C236.7 741.57 236.446 742.479 236.065 743.309C235.685 744.129 235.191 744.832 234.586 745.418C233.971 746.014 233.243 746.478 232.403 746.81C231.573 747.132 230.646 747.293 229.62 747.293C228.741 747.293 227.94 747.171 227.218 746.927C226.505 746.673 225.87 746.326 225.313 745.887C224.747 745.447 224.259 744.93 223.849 744.334C223.448 743.738 223.116 743.089 222.853 742.386C222.579 741.683 222.374 740.945 222.237 740.174C222.11 739.402 222.042 738.621 222.032 737.83V734.856C222.042 734.065 222.11 733.284 222.237 732.513C222.374 731.741 222.579 731.004 222.853 730.301C223.116 729.598 223.448 728.948 223.849 728.353C224.259 727.747 224.747 727.225 225.313 726.785C225.87 726.346 226.505 726.004 227.218 725.76C227.931 725.506 228.731 725.379 229.62 725.379C230.685 725.379 231.637 725.545 232.477 725.877C233.316 726.199 234.039 726.658 234.645 727.254C235.25 727.859 235.733 728.582 236.095 729.422C236.466 730.262 236.71 731.189 236.827 732.205H234.117C234.029 731.561 233.878 730.96 233.663 730.403C233.448 729.847 233.16 729.358 232.799 728.938C232.438 728.519 231.993 728.191 231.466 727.957C230.948 727.713 230.333 727.591 229.62 727.591C228.976 727.591 228.404 727.698 227.906 727.913C227.418 728.118 226.998 728.401 226.646 728.763C226.285 729.124 225.982 729.544 225.738 730.022C225.504 730.501 225.313 731.009 225.167 731.546C225.021 732.083 224.913 732.635 224.845 733.201C224.786 733.758 224.757 734.3 224.757 734.827V737.83C224.757 738.357 224.786 738.904 224.845 739.471C224.913 740.027 225.021 740.574 225.167 741.111C225.313 741.658 225.504 742.171 225.738 742.649C225.973 743.128 226.271 743.548 226.632 743.909C226.993 744.28 227.418 744.573 227.906 744.788C228.395 744.993 228.966 745.096 229.62 745.096C230.333 745.096 230.948 744.983 231.466 744.759C231.993 744.534 232.438 744.217 232.799 743.807C233.16 743.406 233.448 742.933 233.663 742.386C233.878 741.829 234.029 741.229 234.117 740.584H236.827ZM255.416 727.986H248.824V747H246.188V727.986H239.596V725.672H255.416V727.986ZM259.049 725.672H271.939V728.03H266.827V744.656H271.939V747H259.049V744.656H264.044V728.03H259.049V725.672ZM282.296 747L275.558 725.672H278.458L283.146 741.595L283.453 742.635L283.775 741.565L288.492 725.672H291.378L284.654 747H282.296ZM306.817 737.142H297.911V744.7H308.297V747H295.201V725.672H308.165V727.986H297.911V734.842H306.817V737.142ZM164.757 779.584C164.63 780.57 164.376 781.479 163.995 782.309C163.614 783.129 163.121 783.832 162.516 784.418C161.9 785.014 161.173 785.478 160.333 785.81C159.503 786.132 158.575 786.293 157.55 786.293C156.671 786.293 155.87 786.171 155.147 785.927C154.435 785.673 153.8 785.326 153.243 784.887C152.677 784.447 152.188 783.93 151.778 783.334C151.378 782.738 151.046 782.089 150.782 781.386C150.509 780.683 150.304 779.945 150.167 779.174C150.04 778.402 149.972 777.621 149.962 776.83V773.856C149.972 773.065 150.04 772.284 150.167 771.513C150.304 770.741 150.509 770.004 150.782 769.301C151.046 768.598 151.378 767.948 151.778 767.353C152.188 766.747 152.677 766.225 153.243 765.785C153.8 765.346 154.435 765.004 155.147 764.76C155.86 764.506 156.661 764.379 157.55 764.379C158.614 764.379 159.566 764.545 160.406 764.877C161.246 765.199 161.969 765.658 162.574 766.254C163.18 766.859 163.663 767.582 164.024 768.422C164.396 769.262 164.64 770.189 164.757 771.205H162.047C161.959 770.561 161.808 769.96 161.593 769.403C161.378 768.847 161.09 768.358 160.729 767.938C160.367 767.519 159.923 767.191 159.396 766.957C158.878 766.713 158.263 766.591 157.55 766.591C156.905 766.591 156.334 766.698 155.836 766.913C155.348 767.118 154.928 767.401 154.576 767.763C154.215 768.124 153.912 768.544 153.668 769.022C153.434 769.501 153.243 770.009 153.097 770.546C152.95 771.083 152.843 771.635 152.774 772.201C152.716 772.758 152.687 773.3 152.687 773.827V776.83C152.687 777.357 152.716 777.904 152.774 778.471C152.843 779.027 152.95 779.574 153.097 780.111C153.243 780.658 153.434 781.171 153.668 781.649C153.902 782.128 154.2 782.548 154.562 782.909C154.923 783.28 155.348 783.573 155.836 783.788C156.324 783.993 156.896 784.096 157.55 784.096C158.263 784.096 158.878 783.983 159.396 783.759C159.923 783.534 160.367 783.217 160.729 782.807C161.09 782.406 161.378 781.933 161.593 781.386C161.808 780.829 161.959 780.229 162.047 779.584H164.757ZM182.833 776.566C182.823 777.328 182.755 778.1 182.628 778.881C182.511 779.652 182.325 780.399 182.071 781.122C181.817 781.845 181.49 782.519 181.09 783.144C180.699 783.769 180.23 784.315 179.684 784.784C179.137 785.253 178.507 785.624 177.794 785.897C177.091 786.161 176.3 786.293 175.421 786.293C174.542 786.293 173.746 786.161 173.033 785.897C172.33 785.624 171.705 785.253 171.158 784.784C170.611 784.315 170.138 783.769 169.737 783.144C169.337 782.509 169.01 781.83 168.756 781.107C168.492 780.385 168.297 779.638 168.17 778.866C168.043 778.095 167.975 777.328 167.965 776.566V774.135C167.975 773.373 168.038 772.606 168.155 771.835C168.282 771.054 168.478 770.302 168.741 769.579C168.995 768.856 169.317 768.183 169.708 767.558C170.108 766.923 170.582 766.366 171.129 765.888C171.676 765.419 172.301 765.053 173.004 764.789C173.717 764.516 174.513 764.379 175.392 764.379C176.271 764.379 177.066 764.516 177.779 764.789C178.492 765.053 179.122 765.419 179.669 765.888C180.216 766.356 180.685 766.908 181.075 767.543C181.476 768.168 181.808 768.842 182.071 769.564C182.325 770.287 182.511 771.039 182.628 771.82C182.755 772.602 182.823 773.373 182.833 774.135V776.566ZM180.152 774.105C180.143 773.598 180.108 773.07 180.05 772.523C179.991 771.967 179.894 771.415 179.757 770.868C179.61 770.331 179.42 769.818 179.186 769.33C178.951 768.832 178.658 768.393 178.307 768.012C177.955 767.641 177.54 767.348 177.062 767.133C176.583 766.908 176.026 766.796 175.392 766.796C174.767 766.796 174.215 766.908 173.736 767.133C173.258 767.357 172.843 767.655 172.491 768.026C172.14 768.407 171.847 768.847 171.612 769.345C171.378 769.833 171.192 770.346 171.056 770.883C170.909 771.43 170.802 771.981 170.733 772.538C170.675 773.085 170.641 773.607 170.631 774.105V776.566C170.641 777.064 170.675 777.592 170.733 778.148C170.802 778.705 170.909 779.252 171.056 779.789C171.202 780.336 171.393 780.858 171.627 781.356C171.861 781.854 172.154 782.289 172.506 782.66C172.857 783.041 173.272 783.344 173.751 783.568C174.229 783.793 174.786 783.905 175.421 783.905C176.056 783.905 176.612 783.793 177.091 783.568C177.579 783.344 177.999 783.041 178.351 782.66C178.692 782.289 178.976 781.859 179.2 781.371C179.435 780.873 179.625 780.351 179.771 779.804C179.908 779.267 180.001 778.72 180.05 778.163C180.108 777.606 180.143 777.074 180.152 776.566V774.105ZM200.338 786H197.584L189.308 770.062L189.264 786H186.524V764.672H189.278L197.555 780.58L197.599 764.672H200.338V786ZM219.381 766.986H212.789V786H210.152V766.986H203.561V764.672H219.381V766.986ZM230.074 777.299H225.812V786H223.116V764.672H229.371C230.367 764.691 231.305 764.833 232.184 765.097C233.062 765.36 233.834 765.756 234.498 766.283C235.152 766.811 235.665 767.475 236.036 768.275C236.417 769.066 236.607 769.999 236.607 771.073C236.607 771.767 236.505 772.401 236.3 772.978C236.104 773.554 235.831 774.076 235.479 774.545C235.128 775.014 234.708 775.429 234.22 775.79C233.731 776.151 233.194 776.459 232.608 776.713L237.135 785.824L237.12 786H234.264L230.074 777.299ZM225.812 775.072H229.444C230.05 775.062 230.621 774.97 231.158 774.794C231.695 774.608 232.169 774.345 232.579 774.003C232.979 773.661 233.297 773.246 233.531 772.758C233.766 772.26 233.883 771.688 233.883 771.044C233.883 770.36 233.771 769.765 233.546 769.257C233.321 768.739 233.009 768.305 232.608 767.953C232.208 767.611 231.729 767.353 231.173 767.177C230.626 767.001 230.025 766.908 229.371 766.898H225.812V775.072ZM241.031 764.672H253.922V767.03H248.81V783.656H253.922V786H241.031V783.656H246.026V767.03H241.031V764.672ZM259.02 786V764.672H265.362C266.241 764.682 267.101 764.799 267.94 765.023C268.78 765.238 269.527 765.575 270.182 766.034C270.836 766.493 271.358 767.079 271.749 767.792C272.14 768.505 272.33 769.359 272.32 770.355C272.311 770.912 272.218 771.42 272.042 771.879C271.876 772.338 271.646 772.748 271.354 773.109C271.051 773.48 270.714 773.793 270.343 774.047C269.981 774.301 269.542 774.54 269.024 774.765V774.809C269.562 774.936 270.079 775.165 270.577 775.497C271.075 775.829 271.485 776.195 271.808 776.596C272.149 777.035 272.413 777.528 272.599 778.075C272.794 778.622 272.892 779.213 272.892 779.848C272.901 780.844 272.711 781.723 272.32 782.484C271.93 783.246 271.407 783.881 270.753 784.389C270.099 784.906 269.342 785.302 268.482 785.575C267.633 785.849 266.754 785.99 265.846 786H259.02ZM261.744 776.024V783.7H265.919C266.485 783.69 267.022 783.598 267.53 783.422C268.038 783.236 268.487 782.982 268.878 782.66C269.269 782.338 269.576 781.942 269.801 781.474C270.035 781.005 270.152 780.473 270.152 779.877C270.162 779.271 270.06 778.734 269.845 778.266C269.64 777.797 269.352 777.396 268.98 777.064C268.609 776.742 268.175 776.493 267.677 776.317C267.179 776.142 266.642 776.044 266.065 776.024H261.744ZM261.744 773.769H265.523C266.031 773.759 266.529 773.681 267.018 773.534C267.506 773.378 267.94 773.153 268.321 772.86C268.702 772.577 269.01 772.226 269.244 771.806C269.479 771.386 269.596 770.897 269.596 770.341C269.596 769.745 269.479 769.237 269.244 768.817C269.02 768.397 268.717 768.051 268.336 767.777C267.945 767.514 267.496 767.318 266.988 767.191C266.49 767.064 265.978 766.996 265.45 766.986H261.744V773.769ZM290.455 764.672L290.484 779.115C290.484 780.111 290.309 781.044 289.957 781.913C289.605 782.782 289.122 783.539 288.507 784.184C287.892 784.838 287.159 785.355 286.31 785.736C285.46 786.107 284.527 786.293 283.512 786.293C282.477 786.293 281.534 786.107 280.685 785.736C279.835 785.365 279.107 784.853 278.502 784.198C277.896 783.554 277.423 782.797 277.081 781.928C276.739 781.049 276.563 780.111 276.554 779.115L276.583 764.672H279.161L279.22 779.115C279.229 779.75 279.327 780.36 279.513 780.946C279.708 781.532 279.986 782.05 280.348 782.499C280.699 782.948 281.139 783.31 281.666 783.583C282.203 783.856 282.818 783.993 283.512 783.993C284.205 783.993 284.815 783.861 285.343 783.598C285.87 783.324 286.314 782.958 286.676 782.499C287.027 782.05 287.296 781.532 287.481 780.946C287.667 780.36 287.77 779.75 287.789 779.115L287.833 764.672H290.455ZM309.469 766.986H302.877V786H300.24V766.986H293.648V764.672H309.469V766.986ZM326.974 776.566C326.964 777.328 326.896 778.1 326.769 778.881C326.651 779.652 326.466 780.399 326.212 781.122C325.958 781.845 325.631 782.519 325.23 783.144C324.84 783.769 324.371 784.315 323.824 784.784C323.277 785.253 322.647 785.624 321.935 785.897C321.231 786.161 320.44 786.293 319.562 786.293C318.683 786.293 317.887 786.161 317.174 785.897C316.471 785.624 315.846 785.253 315.299 784.784C314.752 784.315 314.278 783.769 313.878 783.144C313.478 782.509 313.15 781.83 312.896 781.107C312.633 780.385 312.438 779.638 312.311 778.866C312.184 778.095 312.115 777.328 312.105 776.566V774.135C312.115 773.373 312.179 772.606 312.296 771.835C312.423 771.054 312.618 770.302 312.882 769.579C313.136 768.856 313.458 768.183 313.849 767.558C314.249 766.923 314.723 766.366 315.27 765.888C315.816 765.419 316.441 765.053 317.145 764.789C317.857 764.516 318.653 764.379 319.532 764.379C320.411 764.379 321.207 764.516 321.92 764.789C322.633 765.053 323.263 765.419 323.81 765.888C324.356 766.356 324.825 766.908 325.216 767.543C325.616 768.168 325.948 768.842 326.212 769.564C326.466 770.287 326.651 771.039 326.769 771.82C326.896 772.602 326.964 773.373 326.974 774.135V776.566ZM324.293 774.105C324.283 773.598 324.249 773.07 324.19 772.523C324.132 771.967 324.034 771.415 323.897 770.868C323.751 770.331 323.561 769.818 323.326 769.33C323.092 768.832 322.799 768.393 322.447 768.012C322.096 767.641 321.681 767.348 321.202 767.133C320.724 766.908 320.167 766.796 319.532 766.796C318.907 766.796 318.355 766.908 317.877 767.133C317.398 767.357 316.983 767.655 316.632 768.026C316.28 768.407 315.987 768.847 315.753 769.345C315.519 769.833 315.333 770.346 315.196 770.883C315.05 771.43 314.942 771.981 314.874 772.538C314.815 773.085 314.781 773.607 314.771 774.105V776.566C314.781 777.064 314.815 777.592 314.874 778.148C314.942 778.705 315.05 779.252 315.196 779.789C315.343 780.336 315.533 780.858 315.768 781.356C316.002 781.854 316.295 782.289 316.646 782.66C316.998 783.041 317.413 783.344 317.892 783.568C318.37 783.793 318.927 783.905 319.562 783.905C320.196 783.905 320.753 783.793 321.231 783.568C321.72 783.344 322.14 783.041 322.491 782.66C322.833 782.289 323.116 781.859 323.341 781.371C323.575 780.873 323.766 780.351 323.912 779.804C324.049 779.267 324.142 778.72 324.19 778.163C324.249 777.606 324.283 777.074 324.293 776.566V774.105ZM338.18 777.299H333.917V786H331.222V764.672H337.477C338.473 764.691 339.41 764.833 340.289 765.097C341.168 765.36 341.939 765.756 342.604 766.283C343.258 766.811 343.771 767.475 344.142 768.275C344.522 769.066 344.713 769.999 344.713 771.073C344.713 771.767 344.61 772.401 344.405 772.978C344.21 773.554 343.937 774.076 343.585 774.545C343.233 775.014 342.813 775.429 342.325 775.79C341.837 776.151 341.3 776.459 340.714 776.713L345.24 785.824L345.226 786H342.369L338.18 777.299ZM333.917 775.072H337.55C338.155 775.062 338.727 774.97 339.264 774.794C339.801 774.608 340.274 774.345 340.685 774.003C341.085 773.661 341.402 773.246 341.637 772.758C341.871 772.26 341.988 771.688 341.988 771.044C341.988 770.36 341.876 769.765 341.651 769.257C341.427 768.739 341.114 768.305 340.714 767.953C340.313 767.611 339.835 767.353 339.278 767.177C338.731 767.001 338.131 766.908 337.477 766.898H333.917V775.072ZM360.299 780.609C360.299 779.955 360.147 779.403 359.845 778.954C359.552 778.505 359.171 778.124 358.702 777.812C358.233 777.509 357.716 777.255 357.149 777.05C356.593 776.845 356.056 776.659 355.538 776.493C354.786 776.249 354.02 775.956 353.238 775.614C352.467 775.263 351.764 774.843 351.129 774.354C350.484 773.856 349.957 773.271 349.547 772.597C349.146 771.913 348.946 771.112 348.946 770.194C348.946 769.276 349.146 768.456 349.547 767.733C349.957 767.011 350.489 766.4 351.144 765.902C351.798 765.404 352.54 765.028 353.37 764.774C354.2 764.511 355.035 764.379 355.875 764.379C356.803 764.379 357.696 764.535 358.556 764.848C359.415 765.15 360.177 765.58 360.841 766.137C361.505 766.693 362.037 767.367 362.438 768.158C362.838 768.949 363.048 769.833 363.067 770.81H360.284C360.206 770.194 360.055 769.638 359.83 769.14C359.605 768.632 359.308 768.197 358.937 767.836C358.565 767.475 358.121 767.196 357.604 767.001C357.096 766.796 356.52 766.693 355.875 766.693C355.357 766.693 354.85 766.767 354.352 766.913C353.863 767.06 353.429 767.279 353.048 767.572C352.657 767.865 352.345 768.227 352.11 768.656C351.886 769.086 351.773 769.584 351.773 770.15C351.783 770.766 351.939 771.288 352.242 771.718C352.545 772.138 352.931 772.494 353.399 772.787C353.858 773.08 354.356 773.324 354.894 773.52C355.44 773.715 355.953 773.886 356.432 774.032C357.223 774.276 358.014 774.574 358.805 774.926C359.596 775.268 360.318 775.707 360.973 776.244C361.617 776.742 362.135 777.353 362.525 778.075C362.926 778.798 363.126 779.633 363.126 780.58C363.126 781.537 362.911 782.372 362.481 783.085C362.062 783.798 361.515 784.389 360.841 784.857C360.167 785.336 359.405 785.697 358.556 785.941C357.706 786.176 356.856 786.293 356.007 786.293C354.991 786.293 353.99 786.122 353.004 785.78C352.027 785.438 351.178 784.945 350.455 784.301C349.811 783.744 349.298 783.095 348.917 782.353C348.546 781.601 348.346 780.766 348.316 779.848H351.085C351.173 780.512 351.354 781.103 351.627 781.62C351.9 782.128 352.252 782.558 352.682 782.909C353.111 783.271 353.604 783.544 354.161 783.729C354.728 783.905 355.343 783.993 356.007 783.993C356.534 783.993 357.052 783.93 357.56 783.803C358.077 783.666 358.536 783.456 358.937 783.173C359.337 782.899 359.664 782.553 359.918 782.133C360.172 781.703 360.299 781.195 360.299 780.609Z" fill="#F1EAE1"/>
<path d="M233.327 410.584C233.2 411.57 232.946 412.479 232.565 413.309C232.185 414.129 231.691 414.832 231.086 415.418C230.471 416.014 229.743 416.478 228.903 416.81C228.073 417.132 227.146 417.293 226.12 417.293C225.241 417.293 224.44 417.171 223.718 416.927C223.005 416.673 222.37 416.326 221.813 415.887C221.247 415.447 220.759 414.93 220.349 414.334C219.948 413.738 219.616 413.089 219.353 412.386C219.079 411.683 218.874 410.945 218.737 410.174C218.61 409.402 218.542 408.621 218.532 407.83V404.856C218.542 404.065 218.61 403.284 218.737 402.513C218.874 401.741 219.079 401.004 219.353 400.301C219.616 399.598 219.948 398.948 220.349 398.353C220.759 397.747 221.247 397.225 221.813 396.785C222.37 396.346 223.005 396.004 223.718 395.76C224.431 395.506 225.231 395.379 226.12 395.379C227.185 395.379 228.137 395.545 228.977 395.877C229.816 396.199 230.539 396.658 231.145 397.254C231.75 397.859 232.233 398.582 232.595 399.422C232.966 400.262 233.21 401.189 233.327 402.205H230.617C230.529 401.561 230.378 400.96 230.163 400.403C229.948 399.847 229.66 399.358 229.299 398.938C228.938 398.519 228.493 398.191 227.966 397.957C227.448 397.713 226.833 397.591 226.12 397.591C225.476 397.591 224.904 397.698 224.406 397.913C223.918 398.118 223.498 398.401 223.146 398.763C222.785 399.124 222.482 399.544 222.238 400.022C222.004 400.501 221.813 401.009 221.667 401.546C221.521 402.083 221.413 402.635 221.345 403.201C221.286 403.758 221.257 404.3 221.257 404.827V407.83C221.257 408.357 221.286 408.904 221.345 409.471C221.413 410.027 221.521 410.574 221.667 411.111C221.813 411.658 222.004 412.171 222.238 412.649C222.473 413.128 222.771 413.548 223.132 413.909C223.493 414.28 223.918 414.573 224.406 414.788C224.895 414.993 225.466 415.096 226.12 415.096C226.833 415.096 227.448 414.983 227.966 414.759C228.493 414.534 228.938 414.217 229.299 413.807C229.66 413.406 229.948 412.933 230.163 412.386C230.378 411.829 230.529 411.229 230.617 410.584H233.327ZM251.403 407.566C251.394 408.328 251.325 409.1 251.198 409.881C251.081 410.652 250.896 411.399 250.642 412.122C250.388 412.845 250.061 413.519 249.66 414.144C249.27 414.769 248.801 415.315 248.254 415.784C247.707 416.253 247.077 416.624 246.364 416.897C245.661 417.161 244.87 417.293 243.991 417.293C243.112 417.293 242.316 417.161 241.604 416.897C240.9 416.624 240.275 416.253 239.729 415.784C239.182 415.315 238.708 414.769 238.308 414.144C237.907 413.509 237.58 412.83 237.326 412.107C237.062 411.385 236.867 410.638 236.74 409.866C236.613 409.095 236.545 408.328 236.535 407.566V405.135C236.545 404.373 236.608 403.606 236.726 402.835C236.853 402.054 237.048 401.302 237.312 400.579C237.565 399.856 237.888 399.183 238.278 398.558C238.679 397.923 239.152 397.366 239.699 396.888C240.246 396.419 240.871 396.053 241.574 395.789C242.287 395.516 243.083 395.379 243.962 395.379C244.841 395.379 245.637 395.516 246.35 395.789C247.062 396.053 247.692 396.419 248.239 396.888C248.786 397.356 249.255 397.908 249.646 398.543C250.046 399.168 250.378 399.842 250.642 400.564C250.896 401.287 251.081 402.039 251.198 402.82C251.325 403.602 251.394 404.373 251.403 405.135V407.566ZM248.723 405.105C248.713 404.598 248.679 404.07 248.62 403.523C248.562 402.967 248.464 402.415 248.327 401.868C248.181 401.331 247.99 400.818 247.756 400.33C247.521 399.832 247.229 399.393 246.877 399.012C246.525 398.641 246.11 398.348 245.632 398.133C245.153 397.908 244.597 397.796 243.962 397.796C243.337 397.796 242.785 397.908 242.307 398.133C241.828 398.357 241.413 398.655 241.062 399.026C240.71 399.407 240.417 399.847 240.183 400.345C239.948 400.833 239.763 401.346 239.626 401.883C239.479 402.43 239.372 402.981 239.304 403.538C239.245 404.085 239.211 404.607 239.201 405.105V407.566C239.211 408.064 239.245 408.592 239.304 409.148C239.372 409.705 239.479 410.252 239.626 410.789C239.772 411.336 239.963 411.858 240.197 412.356C240.432 412.854 240.725 413.289 241.076 413.66C241.428 414.041 241.843 414.344 242.321 414.568C242.8 414.793 243.356 414.905 243.991 414.905C244.626 414.905 245.183 414.793 245.661 414.568C246.149 414.344 246.569 414.041 246.921 413.66C247.263 413.289 247.546 412.859 247.771 412.371C248.005 411.873 248.195 411.351 248.342 410.804C248.479 410.267 248.571 409.72 248.62 409.163C248.679 408.606 248.713 408.074 248.723 407.566V405.105ZM262.609 408.299H258.347V417H255.651V395.672H261.906C262.902 395.691 263.84 395.833 264.719 396.097C265.598 396.36 266.369 396.756 267.033 397.283C267.688 397.811 268.2 398.475 268.571 399.275C268.952 400.066 269.143 400.999 269.143 402.073C269.143 402.767 269.04 403.401 268.835 403.978C268.64 404.554 268.366 405.076 268.015 405.545C267.663 406.014 267.243 406.429 266.755 406.79C266.267 407.151 265.729 407.459 265.144 407.713L269.67 416.824L269.655 417H266.799L262.609 408.299ZM258.347 406.072H261.979C262.585 406.062 263.156 405.97 263.693 405.794C264.23 405.608 264.704 405.345 265.114 405.003C265.515 404.661 265.832 404.246 266.066 403.758C266.301 403.26 266.418 402.688 266.418 402.044C266.418 401.36 266.306 400.765 266.081 400.257C265.856 399.739 265.544 399.305 265.144 398.953C264.743 398.611 264.265 398.353 263.708 398.177C263.161 398.001 262.561 397.908 261.906 397.898H258.347V406.072ZM285.3 407.142H276.394V414.7H286.779V417H273.684V395.672H286.647V397.986H276.394V404.842H285.3V407.142ZM179.26 453.202C178.928 453.593 178.576 453.949 178.205 454.271C177.834 454.584 177.448 454.857 177.048 455.092C176.364 455.502 175.627 455.805 174.836 456C174.045 456.205 173.215 456.303 172.346 456.293C171.467 456.283 170.656 456.151 169.914 455.897C169.182 455.634 168.522 455.272 167.937 454.813C167.351 454.364 166.838 453.832 166.398 453.217C165.959 452.602 165.593 451.933 165.3 451.21C164.997 450.497 164.768 449.75 164.611 448.969C164.465 448.178 164.387 447.382 164.377 446.581V444.105C164.387 443.314 164.455 442.528 164.582 441.747C164.719 440.956 164.924 440.199 165.197 439.477C165.471 438.754 165.812 438.085 166.223 437.47C166.633 436.845 167.126 436.303 167.702 435.844C168.269 435.395 168.913 435.038 169.636 434.774C170.358 434.511 171.169 434.379 172.067 434.379C173.063 434.379 173.981 434.535 174.821 434.848C175.661 435.15 176.394 435.585 177.019 436.151C177.644 436.728 178.146 437.421 178.527 438.231C178.908 439.032 179.143 439.931 179.23 440.927H176.55C176.442 440.312 176.276 439.745 176.052 439.228C175.827 438.7 175.534 438.251 175.173 437.88C174.802 437.509 174.362 437.221 173.854 437.016C173.347 436.801 172.756 436.693 172.082 436.693C171.438 436.693 170.866 436.806 170.368 437.03C169.87 437.245 169.436 437.538 169.064 437.909C168.693 438.28 168.386 438.715 168.142 439.213C167.897 439.701 167.697 440.219 167.541 440.766C167.385 441.312 167.272 441.869 167.204 442.436C167.136 443.002 167.102 443.549 167.102 444.076V446.581C167.111 447.118 167.155 447.675 167.233 448.251C167.321 448.817 167.453 449.374 167.629 449.921C167.805 450.468 168.029 450.985 168.303 451.474C168.576 451.962 168.908 452.392 169.299 452.763C169.68 453.134 170.124 453.432 170.632 453.656C171.14 453.871 171.716 453.983 172.36 453.993C172.731 454.003 173.117 453.988 173.518 453.949C173.928 453.91 174.323 453.832 174.704 453.715C175.085 453.598 175.441 453.441 175.773 453.246C176.105 453.041 176.384 452.777 176.608 452.455L176.638 447.665H172.302V445.38H179.216L179.26 453.202ZM197.351 446.566C197.341 447.328 197.272 448.1 197.146 448.881C197.028 449.652 196.843 450.399 196.589 451.122C196.335 451.845 196.008 452.519 195.607 453.144C195.217 453.769 194.748 454.315 194.201 454.784C193.654 455.253 193.024 455.624 192.312 455.897C191.608 456.161 190.817 456.293 189.938 456.293C189.06 456.293 188.264 456.161 187.551 455.897C186.848 455.624 186.223 455.253 185.676 454.784C185.129 454.315 184.655 453.769 184.255 453.144C183.854 452.509 183.527 451.83 183.273 451.107C183.01 450.385 182.814 449.638 182.688 448.866C182.561 448.095 182.492 447.328 182.482 446.566V444.135C182.492 443.373 182.556 442.606 182.673 441.835C182.8 441.054 182.995 440.302 183.259 439.579C183.513 438.856 183.835 438.183 184.226 437.558C184.626 436.923 185.1 436.366 185.646 435.888C186.193 435.419 186.818 435.053 187.521 434.789C188.234 434.516 189.03 434.379 189.909 434.379C190.788 434.379 191.584 434.516 192.297 434.789C193.01 435.053 193.64 435.419 194.187 435.888C194.733 436.356 195.202 436.908 195.593 437.543C195.993 438.168 196.325 438.842 196.589 439.564C196.843 440.287 197.028 441.039 197.146 441.82C197.272 442.602 197.341 443.373 197.351 444.135V446.566ZM194.67 444.105C194.66 443.598 194.626 443.07 194.567 442.523C194.509 441.967 194.411 441.415 194.274 440.868C194.128 440.331 193.938 439.818 193.703 439.33C193.469 438.832 193.176 438.393 192.824 438.012C192.473 437.641 192.058 437.348 191.579 437.133C191.101 436.908 190.544 436.796 189.909 436.796C189.284 436.796 188.732 436.908 188.254 437.133C187.775 437.357 187.36 437.655 187.009 438.026C186.657 438.407 186.364 438.847 186.13 439.345C185.896 439.833 185.71 440.346 185.573 440.883C185.427 441.43 185.319 441.981 185.251 442.538C185.192 443.085 185.158 443.607 185.148 444.105V446.566C185.158 447.064 185.192 447.592 185.251 448.148C185.319 448.705 185.427 449.252 185.573 449.789C185.72 450.336 185.91 450.858 186.145 451.356C186.379 451.854 186.672 452.289 187.023 452.66C187.375 453.041 187.79 453.344 188.269 453.568C188.747 453.793 189.304 453.905 189.938 453.905C190.573 453.905 191.13 453.793 191.608 453.568C192.097 453.344 192.517 453.041 192.868 452.66C193.21 452.289 193.493 451.859 193.718 451.371C193.952 450.873 194.143 450.351 194.289 449.804C194.426 449.267 194.519 448.72 194.567 448.163C194.626 447.606 194.66 447.074 194.67 446.566V444.105ZM206.726 456L199.987 434.672H202.888L207.575 450.595L207.883 451.635L208.205 450.565L212.922 434.672H215.808L209.084 456H206.726ZM231.247 446.142H222.341V453.7H232.727V456H219.631V434.672H232.595V436.986H222.341V443.842H231.247V446.142ZM244.592 447.299H240.329V456H237.634V434.672H243.889C244.885 434.691 245.822 434.833 246.701 435.097C247.58 435.36 248.352 435.756 249.016 436.283C249.67 436.811 250.183 437.475 250.554 438.275C250.935 439.066 251.125 439.999 251.125 441.073C251.125 441.767 251.022 442.401 250.817 442.978C250.622 443.554 250.349 444.076 249.997 444.545C249.646 445.014 249.226 445.429 248.737 445.79C248.249 446.151 247.712 446.459 247.126 446.713L251.652 455.824L251.638 456H248.781L244.592 447.299ZM240.329 445.072H243.962C244.567 445.062 245.139 444.97 245.676 444.794C246.213 444.608 246.687 444.345 247.097 444.003C247.497 443.661 247.814 443.246 248.049 442.758C248.283 442.26 248.4 441.688 248.4 441.044C248.4 440.36 248.288 439.765 248.063 439.257C247.839 438.739 247.526 438.305 247.126 437.953C246.726 437.611 246.247 437.353 245.69 437.177C245.144 437.001 244.543 436.908 243.889 436.898H240.329V445.072ZM268.908 456H266.154L257.878 440.062L257.834 456H255.095V434.672H257.849L266.125 450.58L266.169 434.672H268.908V456ZM283.747 450.478H276.628L274.914 456H272.204L279.089 434.672H281.359L288.127 456H285.432L283.747 450.478ZM277.36 448.119H283.029L280.217 438.861L277.36 448.119ZM304.943 456H302.189L293.913 440.062L293.869 456H291.13V434.672H293.884L302.16 450.58L302.204 434.672H304.943V456ZM323.415 449.584C323.288 450.57 323.034 451.479 322.653 452.309C322.272 453.129 321.779 453.832 321.174 454.418C320.559 455.014 319.831 455.478 318.991 455.81C318.161 456.132 317.233 456.293 316.208 456.293C315.329 456.293 314.528 456.171 313.806 455.927C313.093 455.673 312.458 455.326 311.901 454.887C311.335 454.447 310.847 453.93 310.437 453.334C310.036 452.738 309.704 452.089 309.44 451.386C309.167 450.683 308.962 449.945 308.825 449.174C308.698 448.402 308.63 447.621 308.62 446.83V443.856C308.63 443.065 308.698 442.284 308.825 441.513C308.962 440.741 309.167 440.004 309.44 439.301C309.704 438.598 310.036 437.948 310.437 437.353C310.847 436.747 311.335 436.225 311.901 435.785C312.458 435.346 313.093 435.004 313.806 434.76C314.519 434.506 315.319 434.379 316.208 434.379C317.272 434.379 318.225 434.545 319.064 434.877C319.904 435.199 320.627 435.658 321.232 436.254C321.838 436.859 322.321 437.582 322.683 438.422C323.054 439.262 323.298 440.189 323.415 441.205H320.705C320.617 440.561 320.466 439.96 320.251 439.403C320.036 438.847 319.748 438.358 319.387 437.938C319.025 437.519 318.581 437.191 318.054 436.957C317.536 436.713 316.921 436.591 316.208 436.591C315.563 436.591 314.992 436.698 314.494 436.913C314.006 437.118 313.586 437.401 313.234 437.763C312.873 438.124 312.57 438.544 312.326 439.022C312.092 439.501 311.901 440.009 311.755 440.546C311.608 441.083 311.501 441.635 311.433 442.201C311.374 442.758 311.345 443.3 311.345 443.827V446.83C311.345 447.357 311.374 447.904 311.433 448.471C311.501 449.027 311.608 449.574 311.755 450.111C311.901 450.658 312.092 451.171 312.326 451.649C312.561 452.128 312.858 452.548 313.22 452.909C313.581 453.28 314.006 453.573 314.494 453.788C314.982 453.993 315.554 454.096 316.208 454.096C316.921 454.096 317.536 453.983 318.054 453.759C318.581 453.534 319.025 453.217 319.387 452.807C319.748 452.406 320.036 451.933 320.251 451.386C320.466 450.829 320.617 450.229 320.705 449.584H323.415ZM339.353 446.142H330.446V453.7H340.832V456H327.736V434.672H340.7V436.986H330.446V443.842H339.353V446.142ZM233.898 475.986H227.307V495H224.67V475.986H218.078V473.672H233.898V475.986ZM249.265 485.142H240.358V492.7H250.744V495H237.648V473.672H250.612V475.986H240.358V482.842H249.265V485.142ZM265.729 489.478H258.61L256.896 495H254.187L261.071 473.672H263.342L270.109 495H267.414L265.729 489.478ZM259.343 487.119H265.012L262.199 477.861L259.343 487.119ZM276.54 473.672L280.012 484.336L283.762 473.672H287.131V495H284.494V486.489L284.714 477.583L280.773 489.067H279.221L275.603 477.891L275.822 486.489V495H273.186V473.672H276.54Z" fill="#F1EAE1"/>
<path fill-rule="evenodd" clip-rule="evenodd" d="M1278 829H834V830H1278V829Z" fill="#F1EAE1"/>
<path d="M1347.28 833.584C1347.16 834.57 1346.9 835.479 1346.52 836.309C1346.14 837.129 1345.65 837.832 1345.04 838.418C1344.43 839.014 1343.7 839.478 1342.86 839.81C1342.03 840.132 1341.1 840.293 1340.08 840.293C1339.2 840.293 1338.4 840.171 1337.67 839.927C1336.96 839.673 1336.33 839.326 1335.77 838.887C1335.2 838.447 1334.71 837.93 1334.3 837.334C1333.9 836.738 1333.57 836.089 1333.31 835.386C1333.04 834.683 1332.83 833.945 1332.69 833.174C1332.57 832.402 1332.5 831.621 1332.49 830.83V827.856C1332.5 827.065 1332.57 826.284 1332.69 825.513C1332.83 824.741 1333.04 824.004 1333.31 823.301C1333.57 822.598 1333.9 821.948 1334.3 821.353C1334.71 820.747 1335.2 820.225 1335.77 819.785C1336.33 819.346 1336.96 819.004 1337.67 818.76C1338.39 818.506 1339.19 818.379 1340.08 818.379C1341.14 818.379 1342.09 818.545 1342.93 818.877C1343.77 819.199 1344.5 819.658 1345.1 820.254C1345.71 820.859 1346.19 821.582 1346.55 822.422C1346.92 823.262 1347.17 824.189 1347.28 825.205H1344.57C1344.49 824.561 1344.33 823.96 1344.12 823.403C1343.9 822.847 1343.62 822.358 1343.25 821.938C1342.89 821.519 1342.45 821.191 1341.92 820.957C1341.4 820.713 1340.79 820.591 1340.08 820.591C1339.43 820.591 1338.86 820.698 1338.36 820.913C1337.87 821.118 1337.45 821.401 1337.1 821.763C1336.74 822.124 1336.44 822.544 1336.19 823.022C1335.96 823.501 1335.77 824.009 1335.62 824.546C1335.48 825.083 1335.37 825.635 1335.3 826.201C1335.24 826.758 1335.21 827.3 1335.21 827.827V830.83C1335.21 831.357 1335.24 831.904 1335.3 832.471C1335.37 833.027 1335.48 833.574 1335.62 834.111C1335.77 834.658 1335.96 835.171 1336.19 835.649C1336.43 836.128 1336.73 836.548 1337.09 836.909C1337.45 837.28 1337.87 837.573 1338.36 837.788C1338.85 837.993 1339.42 838.096 1340.08 838.096C1340.79 838.096 1341.4 837.983 1341.92 837.759C1342.45 837.534 1342.89 837.217 1343.25 836.807C1343.62 836.406 1343.9 835.933 1344.12 835.386C1344.33 834.829 1344.49 834.229 1344.57 833.584H1347.28ZM1365.36 830.566C1365.35 831.328 1365.28 832.1 1365.15 832.881C1365.04 833.652 1364.85 834.399 1364.6 835.122C1364.34 835.845 1364.02 836.519 1363.62 837.144C1363.23 837.769 1362.76 838.315 1362.21 838.784C1361.66 839.253 1361.03 839.624 1360.32 839.897C1359.62 840.161 1358.83 840.293 1357.95 840.293C1357.07 840.293 1356.27 840.161 1355.56 839.897C1354.86 839.624 1354.23 839.253 1353.68 838.784C1353.14 838.315 1352.66 837.769 1352.26 837.144C1351.86 836.509 1351.54 835.83 1351.28 835.107C1351.02 834.385 1350.82 833.638 1350.7 832.866C1350.57 832.095 1350.5 831.328 1350.49 830.566V828.135C1350.5 827.373 1350.56 826.606 1350.68 825.835C1350.81 825.054 1351 824.302 1351.27 823.579C1351.52 822.856 1351.84 822.183 1352.23 821.558C1352.63 820.923 1353.11 820.366 1353.66 819.888C1354.2 819.419 1354.83 819.053 1355.53 818.789C1356.24 818.516 1357.04 818.379 1357.92 818.379C1358.8 818.379 1359.59 818.516 1360.31 818.789C1361.02 819.053 1361.65 819.419 1362.2 819.888C1362.74 820.356 1363.21 820.908 1363.6 821.543C1364 822.168 1364.33 822.842 1364.6 823.564C1364.85 824.287 1365.04 825.039 1365.15 825.82C1365.28 826.602 1365.35 827.373 1365.36 828.135V830.566ZM1362.68 828.105C1362.67 827.598 1362.63 827.07 1362.58 826.523C1362.52 825.967 1362.42 825.415 1362.28 824.868C1362.14 824.331 1361.95 823.818 1361.71 823.33C1361.48 822.832 1361.18 822.393 1360.83 822.012C1360.48 821.641 1360.07 821.348 1359.59 821.133C1359.11 820.908 1358.55 820.796 1357.92 820.796C1357.29 820.796 1356.74 820.908 1356.26 821.133C1355.78 821.357 1355.37 821.655 1355.02 822.026C1354.67 822.407 1354.37 822.847 1354.14 823.345C1353.9 823.833 1353.72 824.346 1353.58 824.883C1353.44 825.43 1353.33 825.981 1353.26 826.538C1353.2 827.085 1353.17 827.607 1353.16 828.105V830.566C1353.17 831.064 1353.2 831.592 1353.26 832.148C1353.33 832.705 1353.44 833.252 1353.58 833.789C1353.73 834.336 1353.92 834.858 1354.15 835.356C1354.39 835.854 1354.68 836.289 1355.03 836.66C1355.38 837.041 1355.8 837.344 1356.28 837.568C1356.76 837.793 1357.31 837.905 1357.95 837.905C1358.58 837.905 1359.14 837.793 1359.62 837.568C1360.11 837.344 1360.53 837.041 1360.88 836.66C1361.22 836.289 1361.5 835.859 1361.73 835.371C1361.96 834.873 1362.15 834.351 1362.3 833.804C1362.43 833.267 1362.53 832.72 1362.58 832.163C1362.63 831.606 1362.67 831.074 1362.68 830.566V828.105ZM1372.48 818.672L1375.95 829.336L1379.7 818.672H1383.07V840H1380.43V831.489L1380.65 822.583L1376.71 834.067H1375.16L1371.54 822.891L1371.76 831.489V840H1369.12V818.672H1372.48ZM1390.5 818.672L1393.97 829.336L1397.72 818.672H1401.09V840H1398.45V831.489L1398.67 822.583L1394.73 834.067H1393.18L1389.56 822.891L1389.78 831.489V840H1387.14V818.672H1390.5ZM1418.93 818.672L1418.96 833.115C1418.96 834.111 1418.78 835.044 1418.43 835.913C1418.08 836.782 1417.6 837.539 1416.98 838.184C1416.37 838.838 1415.63 839.355 1414.78 839.736C1413.93 840.107 1413 840.293 1411.99 840.293C1410.95 840.293 1410.01 840.107 1409.16 839.736C1408.31 839.365 1407.58 838.853 1406.98 838.198C1406.37 837.554 1405.9 836.797 1405.55 835.928C1405.21 835.049 1405.04 834.111 1405.03 833.115L1405.06 818.672H1407.63L1407.69 833.115C1407.7 833.75 1407.8 834.36 1407.99 834.946C1408.18 835.532 1408.46 836.05 1408.82 836.499C1409.17 836.948 1409.61 837.31 1410.14 837.583C1410.68 837.856 1411.29 837.993 1411.99 837.993C1412.68 837.993 1413.29 837.861 1413.82 837.598C1414.34 837.324 1414.79 836.958 1415.15 836.499C1415.5 836.05 1415.77 835.532 1415.96 834.946C1416.14 834.36 1416.24 833.75 1416.26 833.115L1416.31 818.672H1418.93ZM1436.92 840H1434.16L1425.89 824.062L1425.84 840H1423.1V818.672H1425.86L1434.13 834.58L1434.18 818.672H1436.92V840ZM1441.58 818.672H1454.47V821.03H1449.35V837.656H1454.47V840H1441.58V837.656H1446.57V821.03H1441.58V818.672ZM1473.98 820.986H1467.39V840H1464.75V820.986H1458.16V818.672H1473.98V820.986ZM1483.89 829.38L1488.76 818.672H1491.83L1485.2 832.046L1485.15 840H1482.63L1482.59 832.046L1475.96 818.672H1479.05L1483.89 829.38Z" fill="#F1EAE1"/>
</svg>
