<svg width="1591" height="114" viewBox="0 0 1591 114" fill="none" xmlns="http://www.w3.org/2000/svg">
<path d="M50.0202 50.32C47.8335 50.32 45.8735 49.76 44.1402 48.64C42.4335 47.52 41.0735 45.8933 40.0602 43.76C39.0735 41.6267 38.5802 39.04 38.5802 36C38.5802 32.96 39.0735 30.3733 40.0602 28.24C41.0735 26.1067 42.4335 24.48 44.1402 23.36C45.8735 22.24 47.8335 21.68 50.0202 21.68C52.1802 21.68 54.1268 22.24 55.8602 23.36C57.5935 24.48 58.9535 26.1067 59.9402 28.24C60.9268 30.3733 61.4202 32.96 61.4202 36C61.4202 39.04 60.9268 41.6267 59.9402 43.76C58.9535 45.8933 57.5935 47.52 55.8602 48.64C54.1268 49.76 52.1802 50.32 50.0202 50.32ZM50.0202 46.76C51.4868 46.76 52.7668 46.36 53.8602 45.56C54.9802 44.76 55.8468 43.56 56.4602 41.96C57.1002 40.36 57.4202 38.3733 57.4202 36C57.4202 33.6267 57.1002 31.64 56.4602 30.04C55.8468 28.44 54.9802 27.24 53.8602 26.44C52.7668 25.64 51.4868 25.24 50.0202 25.24C48.5535 25.24 47.2602 25.64 46.1402 26.44C45.0202 27.24 44.1402 28.44 43.5002 30.04C42.8868 31.64 42.5802 33.6267 42.5802 36C42.5802 38.3733 42.8868 40.36 43.5002 41.96C44.1402 43.56 45.0202 44.76 46.1402 45.56C47.2602 46.36 48.5535 46.76 50.0202 46.76Z" fill="#F1EAE1"/>
<path d="M198.238 50V23.6L199.958 25.48H191.918V22H202.198V50H198.238Z" fill="#F1EAE1"/>
<path d="M337.996 50V47.28L349.396 36.28C350.409 35.32 351.156 34.48 351.636 33.76C352.142 33.0133 352.476 32.3333 352.636 31.72C352.822 31.08 352.916 30.4667 352.916 29.88C352.916 28.44 352.409 27.3067 351.396 26.48C350.382 25.6533 348.902 25.24 346.956 25.24C345.462 25.24 344.116 25.4933 342.916 26C341.716 26.48 340.676 27.24 339.796 28.28L337.076 25.92C338.142 24.56 339.569 23.52 341.356 22.8C343.169 22.0533 345.156 21.68 347.316 21.68C349.262 21.68 350.956 22 352.396 22.64C353.836 23.2533 354.942 24.1467 355.716 25.32C356.516 26.4933 356.916 27.88 356.916 29.48C356.916 30.3867 356.796 31.28 356.556 32.16C356.316 33.04 355.862 33.9733 355.196 34.96C354.529 35.9467 353.569 37.0533 352.316 38.28L342.156 48.08L341.196 46.52H358.116V50H337.996Z" fill="#F1EAE1"/>
<path d="M496.035 50.32C494.061 50.32 492.141 50.0133 490.275 49.4C488.435 48.7867 486.928 47.96 485.755 46.92L487.595 43.76C488.528 44.64 489.741 45.36 491.235 45.92C492.728 46.48 494.328 46.76 496.035 46.76C498.115 46.76 499.728 46.32 500.875 45.44C502.048 44.5333 502.635 43.32 502.635 41.8C502.635 40.3333 502.075 39.16 500.955 38.28C499.861 37.3733 498.115 36.92 495.715 36.92H493.475V34.12L501.795 23.88L502.355 25.48H487.035V22H505.515V24.72L497.235 34.92L495.155 33.68H496.475C499.861 33.68 502.395 34.44 504.075 35.96C505.781 37.48 506.635 39.4133 506.635 41.76C506.635 43.3333 506.248 44.7733 505.475 46.08C504.701 47.3867 503.528 48.4267 501.955 49.2C500.408 49.9467 498.435 50.32 496.035 50.32Z" fill="#F1EAE1"/>
<path d="M634.141 43.12V40.32L648.461 22H652.781L638.581 40.32L636.541 39.68H658.901V43.12H634.141ZM649.701 50V43.12L649.821 39.68V33.6H653.581V50H649.701Z" fill="#F1EAE1"/>
<path d="M795.476 50.32C793.502 50.32 791.582 50.0133 789.716 49.4C787.876 48.7867 786.369 47.96 785.196 46.92L787.036 43.76C787.969 44.64 789.182 45.36 790.676 45.92C792.169 46.48 793.756 46.76 795.436 46.76C797.569 46.76 799.209 46.3067 800.356 45.4C801.502 44.4933 802.076 43.28 802.076 41.76C802.076 40.72 801.822 39.8133 801.316 39.04C800.809 38.2667 799.929 37.68 798.676 37.28C797.449 36.8533 795.756 36.64 793.596 36.64H787.236L788.716 22H804.516V25.48H790.196L792.276 23.52L791.116 35.08L789.036 33.16H794.436C797.236 33.16 799.489 33.52 801.196 34.24C802.902 34.96 804.142 35.96 804.916 37.24C805.689 38.4933 806.076 39.9467 806.076 41.6C806.076 43.2 805.689 44.6667 804.916 46C804.142 47.3067 802.969 48.36 801.396 49.16C799.849 49.9333 797.876 50.32 795.476 50.32Z" fill="#F1EAE1"/>
<path d="M946.336 50.32C943.856 50.32 941.736 49.7733 939.976 48.68C938.216 47.5867 936.87 46.0133 935.936 43.96C935.03 41.88 934.576 39.3467 934.576 36.36C934.576 33.1867 935.136 30.5067 936.256 28.32C937.376 26.1333 938.936 24.48 940.936 23.36C942.936 22.24 945.23 21.68 947.816 21.68C949.15 21.68 950.416 21.8133 951.616 22.08C952.843 22.3467 953.896 22.76 954.776 23.32L953.256 26.44C952.536 25.9333 951.71 25.5867 950.776 25.4C949.87 25.2133 948.91 25.12 947.896 25.12C945.043 25.12 942.776 26.0133 941.096 27.8C939.416 29.56 938.576 32.1867 938.576 35.68C938.576 36.24 938.603 36.9067 938.656 37.68C938.71 38.4533 938.843 39.2133 939.056 39.96L937.696 38.6C938.096 37.3733 938.723 36.3467 939.576 35.52C940.456 34.6667 941.496 34.04 942.696 33.64C943.923 33.2133 945.243 33 946.656 33C948.523 33 950.176 33.3467 951.616 34.04C953.056 34.7333 954.19 35.72 955.016 37C955.843 38.2533 956.256 39.7467 956.256 41.48C956.256 43.2667 955.816 44.8267 954.936 46.16C954.056 47.4933 952.87 48.52 951.376 49.24C949.883 49.96 948.203 50.32 946.336 50.32ZM946.176 47.08C947.403 47.08 948.47 46.8533 949.376 46.4C950.31 45.9467 951.043 45.32 951.576 44.52C952.11 43.6933 952.376 42.7333 952.376 41.64C952.376 39.9867 951.803 38.68 950.656 37.72C949.51 36.7333 947.95 36.24 945.976 36.24C944.696 36.24 943.576 36.48 942.616 36.96C941.656 37.44 940.896 38.0933 940.336 38.92C939.803 39.72 939.536 40.64 939.536 41.68C939.536 42.64 939.79 43.5333 940.296 44.36C940.803 45.16 941.55 45.8133 942.536 46.32C943.523 46.8267 944.736 47.08 946.176 47.08Z" fill="#F1EAE1"/>
<path d="M1089.81 50L1101.69 23.68L1102.73 25.48H1086.09L1088.09 23.52V30.48H1084.25V22H1105.37V24.72L1094.05 50H1089.81Z" fill="#F1EAE1"/>
<path d="M1241.97 50.32C1239.7 50.32 1237.74 49.9867 1236.09 49.32C1234.44 48.6533 1233.16 47.7067 1232.25 46.48C1231.34 45.2267 1230.89 43.76 1230.89 42.08C1230.89 40.4267 1231.32 39.0267 1232.17 37.88C1233.05 36.7067 1234.32 35.8267 1235.97 35.24C1237.62 34.6267 1239.62 34.32 1241.97 34.32C1244.32 34.32 1246.32 34.6267 1247.97 35.24C1249.65 35.8267 1250.93 36.7067 1251.81 37.88C1252.69 39.0533 1253.13 40.4533 1253.13 42.08C1253.13 43.76 1252.68 45.2267 1251.77 46.48C1250.86 47.7067 1249.57 48.6533 1247.89 49.32C1246.21 49.9867 1244.24 50.32 1241.97 50.32ZM1241.97 47.08C1244.21 47.08 1245.96 46.6267 1247.21 45.72C1248.49 44.7867 1249.13 43.5333 1249.13 41.96C1249.13 40.4133 1248.49 39.2 1247.21 38.32C1245.96 37.4133 1244.21 36.96 1241.97 36.96C1239.76 36.96 1238.02 37.4133 1236.77 38.32C1235.52 39.2 1234.89 40.4133 1234.89 41.96C1234.89 43.5333 1235.52 44.7867 1236.77 45.72C1238.02 46.6267 1239.76 47.08 1241.97 47.08ZM1241.97 36.48C1239.84 36.48 1238.02 36.2 1236.53 35.64C1235.04 35.0533 1233.89 34.2267 1233.09 33.16C1232.29 32.0667 1231.89 30.7733 1231.89 29.28C1231.89 27.7067 1232.3 26.36 1233.13 25.24C1233.98 24.0933 1235.17 23.2133 1236.69 22.6C1238.21 21.9867 1239.97 21.68 1241.97 21.68C1244 21.68 1245.77 21.9867 1247.29 22.6C1248.81 23.2133 1250 24.0933 1250.85 25.24C1251.7 26.36 1252.13 27.7067 1252.13 29.28C1252.13 30.7733 1251.73 32.0667 1250.93 33.16C1250.13 34.2267 1248.97 35.0533 1247.45 35.64C1245.93 36.2 1244.1 36.48 1241.97 36.48ZM1241.97 33.92C1243.92 33.92 1245.44 33.52 1246.53 32.72C1247.65 31.92 1248.21 30.8267 1248.21 29.44C1248.21 28.0267 1247.64 26.92 1246.49 26.12C1245.34 25.32 1243.84 24.92 1241.97 24.92C1240.1 24.92 1238.61 25.32 1237.49 26.12C1236.4 26.92 1235.85 28.0267 1235.85 29.44C1235.85 30.8267 1236.38 31.92 1237.45 32.72C1238.54 33.52 1240.05 33.92 1241.97 33.92Z" fill="#F1EAE1"/>
<path d="M1389.66 21.68C1392.19 21.68 1394.32 22.2267 1396.06 23.32C1397.82 24.4133 1399.15 26 1400.06 28.08C1400.96 30.1333 1401.42 32.6533 1401.42 35.64C1401.42 38.8133 1400.86 41.4933 1399.74 43.68C1398.62 45.8667 1397.07 47.52 1395.1 48.64C1393.12 49.76 1390.82 50.32 1388.18 50.32C1386.87 50.32 1385.6 50.1867 1384.38 49.92C1383.18 49.6533 1382.12 49.24 1381.22 48.68L1382.74 45.56C1383.48 46.04 1384.31 46.3867 1385.22 46.6C1386.15 46.7867 1387.12 46.88 1388.14 46.88C1390.96 46.88 1393.22 46 1394.9 44.24C1396.58 42.4533 1397.42 39.8133 1397.42 36.32C1397.42 35.76 1397.39 35.0933 1397.34 34.32C1397.28 33.5467 1397.16 32.7867 1396.98 32.04L1398.3 33.4C1397.92 34.6267 1397.3 35.6667 1396.42 36.52C1395.56 37.3467 1394.52 37.9733 1393.3 38.4C1392.1 38.8 1390.78 39 1389.34 39C1387.5 39 1385.86 38.6533 1384.42 37.96C1382.98 37.2667 1381.84 36.2933 1381.02 35.04C1380.19 33.76 1379.78 32.2533 1379.78 30.52C1379.78 28.7067 1380.2 27.1467 1381.06 25.84C1381.94 24.5067 1383.12 23.48 1384.62 22.76C1386.14 22.04 1387.82 21.68 1389.66 21.68ZM1389.82 24.92C1388.62 24.92 1387.55 25.1467 1386.62 25.6C1385.68 26.0533 1384.95 26.68 1384.42 27.48C1383.91 28.28 1383.66 29.24 1383.66 30.36C1383.66 32.0133 1384.23 33.3333 1385.38 34.32C1386.52 35.28 1388.07 35.76 1390.02 35.76C1391.3 35.76 1392.42 35.52 1393.38 35.04C1394.36 34.56 1395.12 33.9067 1395.66 33.08C1396.22 32.2533 1396.5 31.3333 1396.5 30.32C1396.5 29.3333 1396.24 28.44 1395.74 27.64C1395.23 26.84 1394.48 26.1867 1393.5 25.68C1392.51 25.1733 1391.28 24.92 1389.82 24.92Z" fill="#F1EAE1"/>
<path d="M1526.9 50V23.6L1528.62 25.48H1520.58V22H1530.86V50H1526.9ZM1548.42 50.32C1546.24 50.32 1544.28 49.76 1542.54 48.64C1540.84 47.52 1539.48 45.8933 1538.46 43.76C1537.48 41.6267 1536.98 39.04 1536.98 36C1536.98 32.96 1537.48 30.3733 1538.46 28.24C1539.48 26.1067 1540.84 24.48 1542.54 23.36C1544.28 22.24 1546.24 21.68 1548.42 21.68C1550.58 21.68 1552.53 22.24 1554.26 23.36C1556 24.48 1557.36 26.1067 1558.34 28.24C1559.33 30.3733 1559.82 32.96 1559.82 36C1559.82 39.04 1559.33 41.6267 1558.34 43.76C1557.36 45.8933 1556 47.52 1554.26 48.64C1552.53 49.76 1550.58 50.32 1548.42 50.32ZM1548.42 46.76C1549.89 46.76 1551.17 46.36 1552.26 45.56C1553.38 44.76 1554.25 43.56 1554.86 41.96C1555.5 40.36 1555.82 38.3733 1555.82 36C1555.82 33.6267 1555.5 31.64 1554.86 30.04C1554.25 28.44 1553.38 27.24 1552.26 26.44C1551.17 25.64 1549.89 25.24 1548.42 25.24C1546.96 25.24 1545.66 25.64 1544.54 26.44C1543.42 27.24 1542.54 28.44 1541.9 30.04C1541.29 31.64 1540.98 33.6267 1540.98 36C1540.98 38.3733 1541.29 40.36 1541.9 41.96C1542.54 43.56 1543.42 44.76 1544.54 45.56C1545.66 46.36 1546.96 46.76 1548.42 46.76Z" fill="#F1EAE1"/>
<path d="M50 112.5H1540" stroke="white" stroke-width="3"/>
<line x1="50" y1="112.5" x2="200" y2="112.5" stroke="white" stroke-width="3"/>
<path d="M198.5 114V88" stroke="white" stroke-width="3"/>
<path d="M50 114V88" stroke="white" stroke-width="3"/>
<line x1="199" y1="112.5" x2="349" y2="112.5" stroke="white" stroke-width="3"/>
<path d="M347.5 114V88" stroke="white" stroke-width="3"/>
<line x1="348" y1="112.5" x2="498" y2="112.5" stroke="white" stroke-width="3"/>
<path d="M496.5 114V88" stroke="white" stroke-width="3"/>
<line x1="497" y1="112.5" x2="647" y2="112.5" stroke="white" stroke-width="3"/>
<path d="M645.5 114V88" stroke="white" stroke-width="3"/>
<line x1="646" y1="112.5" x2="796" y2="112.5" stroke="white" stroke-width="3"/>
<path d="M794.5 114V88" stroke="white" stroke-width="3"/>
<line x1="795" y1="112.5" x2="945" y2="112.5" stroke="white" stroke-width="3"/>
<path d="M943.5 114V88" stroke="white" stroke-width="3"/>
<line x1="944" y1="112.5" x2="1094" y2="112.5" stroke="white" stroke-width="3"/>
<path d="M1092.5 114V88" stroke="white" stroke-width="3"/>
<line x1="1093" y1="112.5" x2="1243" y2="112.5" stroke="white" stroke-width="3"/>
<path d="M1241.5 114V88" stroke="white" stroke-width="3"/>
<line x1="1242" y1="112.5" x2="1392" y2="112.5" stroke="white" stroke-width="3"/>
<path d="M1390.5 114V88" stroke="white" stroke-width="3"/>
<line x1="1391" y1="112.5" x2="1541" y2="112.5" stroke="white" stroke-width="3"/>
<path d="M1539.5 114V88" stroke="white" stroke-width="3"/>
</svg>
