<svg width="586" height="147" viewBox="0 0 586 147" fill="none" xmlns="http://www.w3.org/2000/svg">
<g filter="url(#filter0_d_203_267)">
<rect x="4" width="578" height="139" rx="20" fill="#2A2D39"/>
<rect x="4.375" y="0.375" width="577.25" height="138.25" rx="19.625" stroke="#F1EAE1" stroke-width="0.75"/>
</g>
<path fill-rule="evenodd" clip-rule="evenodd" d="M336.877 74.8986V50.7054L337.51 50.7072V74.9004L336.877 74.8986Z" fill="#F1EAE1"/>
<path d="M248.432 82L253.235 88.5L248.432 95" stroke="#F1EAE1" stroke-width="0.75" stroke-miterlimit="10"/>
<path d="M238.814 88.5254L252.537 88.5254" stroke="#F1EAE1" stroke-width="0.75" stroke-miterlimit="10"/>
<path d="M135.948 82L140.751 88.5L135.948 95" stroke="#F1EAE1" stroke-width="0.75" stroke-miterlimit="10"/>
<path d="M126.33 88.5254L140.053 88.5254" stroke="#F1EAE1" stroke-width="0.75" stroke-miterlimit="10"/>
<path d="M460.902 82L465.705 88.5L460.902 95" stroke="#F1EAE1" stroke-width="0.75" stroke-miterlimit="10"/>
<path d="M451.284 88.5254L465.008 88.5254" stroke="#F1EAE1" stroke-width="0.75" stroke-miterlimit="10"/>
<path d="M347.457 82L352.26 88.5L347.457 95" stroke="#F1EAE1" stroke-width="0.75" stroke-miterlimit="10"/>
<path d="M337.839 88.5254L351.562 88.5254" stroke="#F1EAE1" stroke-width="0.75" stroke-miterlimit="10"/>
<g clip-path="url(#clip0_203_267)">
<rect x="145.558" y="71.4399" width="88.4491" height="34" rx="17" fill="#2A2D39"/>
<path d="M160.911 89.1738H157.384V91.8398H161.503V93H155.972V84.4688H161.474V85.6348H157.384V88.0371H160.911V89.1738ZM165.136 93L162.511 84.4688H164.052L165.675 90.375L165.816 90.8848L165.962 90.3691L167.597 84.4688H169.132L166.507 93H165.136ZM174.452 91.0371H171.775L171.195 93H169.73L172.507 84.4688H173.755L176.486 93H175.027L174.452 91.0371ZM172.132 89.8301H174.107L173.128 86.4551L172.132 89.8301ZM179.052 91.8398H183.124V93H177.64V84.4688H179.052V91.8398ZM190.273 84.4688L190.279 90.1758C190.279 90.6172 190.21 91.0195 190.073 91.3828C189.941 91.7422 189.751 92.0508 189.505 92.3086C189.255 92.5664 188.954 92.7656 188.603 92.9062C188.255 93.0469 187.865 93.1172 187.431 93.1172C187.005 93.1172 186.62 93.0488 186.277 92.9121C185.933 92.7715 185.64 92.5723 185.398 92.3145C185.152 92.0566 184.96 91.7461 184.823 91.3828C184.691 91.0195 184.622 90.6172 184.618 90.1758L184.63 84.4688H186.019L186.031 90.1758C186.034 90.4453 186.068 90.6934 186.13 90.9199C186.193 91.1426 186.284 91.332 186.406 91.4883C186.523 91.6367 186.665 91.7539 186.833 91.8398C187.005 91.9219 187.204 91.9629 187.431 91.9629C187.661 91.9629 187.865 91.9219 188.04 91.8398C188.22 91.7539 188.37 91.6328 188.491 91.4766C188.613 91.3164 188.704 91.127 188.767 90.9082C188.829 90.6855 188.865 90.4414 188.872 90.1758L188.884 84.4688H190.273ZM196.073 91.0371H193.396L192.816 93H191.351L194.128 84.4688H195.376L198.107 93H196.648L196.073 91.0371ZM193.753 89.8301H195.728L194.749 86.4551L193.753 89.8301ZM205.191 85.6348H202.56V93H201.159V85.6348H198.546V84.4688H205.191V85.6348ZM206.556 84.4688H211.583V85.6348H209.761V91.8398H211.583V93H206.556V91.8398H208.337V85.6348H206.556V84.4688ZM219.335 89.3027C219.335 89.6465 219.304 89.9785 219.241 90.2988C219.183 90.6191 219.097 90.9219 218.984 91.207C218.863 91.4922 218.712 91.7559 218.532 91.998C218.353 92.2363 218.146 92.4414 217.911 92.6133C217.685 92.7695 217.433 92.8926 217.156 92.9824C216.882 93.0723 216.581 93.1172 216.253 93.1172C215.913 93.1172 215.601 93.0703 215.316 92.9766C215.034 92.8789 214.782 92.7461 214.56 92.5781C214.333 92.4062 214.134 92.1992 213.962 91.957C213.794 91.7148 213.654 91.4492 213.54 91.1602C213.431 90.8828 213.349 90.5879 213.294 90.2754C213.24 89.959 213.212 89.6348 213.212 89.3027V88.1777C213.212 87.8301 213.241 87.4941 213.3 87.1699C213.359 86.8457 213.447 86.5391 213.564 86.25C213.677 85.9727 213.816 85.7188 213.98 85.4883C214.148 85.2539 214.345 85.0508 214.572 84.8789C214.79 84.7109 215.038 84.582 215.316 84.4922C215.597 84.3984 215.906 84.3516 216.241 84.3516C216.581 84.3516 216.894 84.3984 217.179 84.4922C217.464 84.5859 217.72 84.7168 217.947 84.8848C218.173 85.0527 218.37 85.25 218.538 85.4766C218.706 85.7031 218.847 85.9512 218.96 86.2207C219.085 86.5098 219.179 86.8203 219.241 87.1523C219.304 87.4805 219.335 87.8223 219.335 88.1777V89.3027ZM217.917 88.166C217.913 87.9512 217.9 87.7402 217.876 87.5332C217.857 87.3262 217.822 87.1289 217.771 86.9414C217.712 86.7266 217.634 86.5312 217.536 86.3555C217.443 86.1758 217.327 86.0234 217.191 85.8984C217.07 85.7891 216.931 85.7031 216.775 85.6406C216.618 85.5781 216.441 85.5469 216.241 85.5469C216.05 85.5469 215.878 85.5781 215.726 85.6406C215.573 85.6992 215.441 85.7812 215.327 85.8867C215.191 86.0156 215.075 86.1699 214.982 86.3496C214.888 86.5254 214.816 86.7227 214.765 86.9414C214.718 87.1289 214.683 87.3281 214.659 87.5391C214.64 87.7461 214.63 87.9551 214.63 88.166V89.3027C214.63 89.5098 214.64 89.7148 214.659 89.918C214.679 90.1211 214.712 90.3164 214.759 90.5039C214.81 90.7148 214.878 90.9121 214.964 91.0957C215.054 91.2754 215.161 91.4277 215.286 91.5527C215.407 91.6699 215.546 91.7637 215.702 91.834C215.863 91.9004 216.046 91.9336 216.253 91.9336C216.452 91.9336 216.632 91.9004 216.792 91.834C216.956 91.7676 217.097 91.6777 217.214 91.5645C217.351 91.4355 217.464 91.2832 217.554 91.1074C217.648 90.9277 217.722 90.7305 217.777 90.5156C217.823 90.3281 217.857 90.1328 217.876 89.9297C217.9 89.7227 217.913 89.5137 217.917 89.3027V88.166ZM226.267 93H224.855L222.083 87.1289L222.077 93H220.654V84.4688H222.083L224.837 90.3164L224.849 84.4688H226.267V93Z" fill="#F1EAE1"/>
</g>
<rect x="145.933" y="71.8149" width="87.6991" height="33.25" rx="16.625" stroke="#F1EAE1" stroke-width="0.75"/>
<g clip-path="url(#clip1_203_267)">
<rect x="27.3053" y="71" width="95.1789" height="34" rx="17" fill="#2A2D39"/>
<path d="M42.6823 91.0371H40.0045L39.4244 93H37.9596L40.7369 84.4688H41.985L44.7155 93H43.2565L42.6823 91.0371ZM40.3619 89.8301H42.3365L41.358 86.4551L40.3619 89.8301ZM47.2584 89.748V93H45.8522V84.4688H48.7057C49.1354 84.4727 49.5299 84.5371 49.8893 84.6621C50.2526 84.7871 50.5651 84.9648 50.8268 85.1953C51.0885 85.4258 51.2916 85.7051 51.4362 86.0332C51.5807 86.3613 51.653 86.7305 51.653 87.1406C51.653 87.5352 51.5807 87.8926 51.4362 88.2129C51.2916 88.5293 51.0885 88.8008 50.8268 89.0273C50.5651 89.2578 50.2526 89.4355 49.8893 89.5605C49.5299 89.6855 49.1354 89.748 48.7057 89.748H47.2584ZM47.2584 88.5996H48.7057C48.944 88.5957 49.1569 88.5586 49.3444 88.4883C49.5358 88.4141 49.6979 88.3125 49.8307 88.1836C49.9635 88.0547 50.0631 87.9023 50.1295 87.7266C50.1998 87.5508 50.235 87.3594 50.235 87.1523C50.235 86.9258 50.1998 86.7207 50.1295 86.5371C50.0631 86.3496 49.9635 86.1875 49.8307 86.0508C49.6979 85.9141 49.5358 85.8086 49.3444 85.7344C49.1569 85.6602 48.944 85.6211 48.7057 85.6172H47.2584V88.5996ZM54.4655 89.748V93H53.0592V84.4688H55.9127C56.3424 84.4727 56.7369 84.5371 57.0963 84.6621C57.4596 84.7871 57.7721 84.9648 58.0338 85.1953C58.2955 85.4258 58.4987 85.7051 58.6432 86.0332C58.7877 86.3613 58.86 86.7305 58.86 87.1406C58.86 87.5352 58.7877 87.8926 58.6432 88.2129C58.4987 88.5293 58.2955 88.8008 58.0338 89.0273C57.7721 89.2578 57.4596 89.4355 57.0963 89.5605C56.7369 89.6855 56.3424 89.748 55.9127 89.748H54.4655ZM54.4655 88.5996H55.9127C56.151 88.5957 56.3639 88.5586 56.5514 88.4883C56.7428 88.4141 56.9049 88.3125 57.0377 88.1836C57.1705 88.0547 57.2701 87.9023 57.3365 87.7266C57.4069 87.5508 57.442 87.3594 57.442 87.1523C57.442 86.9258 57.4069 86.7207 57.3365 86.5371C57.2701 86.3496 57.1705 86.1875 57.0377 86.0508C56.9049 85.9141 56.7428 85.8086 56.5514 85.7344C56.3639 85.6602 56.151 85.6211 55.9127 85.6172H54.4655V88.5996ZM61.6959 91.8398H65.7682V93H60.2838V84.4688H61.6959V91.8398ZM67.5787 84.4688H72.6061V85.6348H70.7838V91.8398H72.6061V93H67.5787V91.8398H69.36V85.6348H67.5787V84.4688ZM80.3346 90.375C80.2955 90.7891 80.1979 91.166 80.0416 91.5059C79.8854 91.8418 79.6803 92.1289 79.4264 92.3672C79.1686 92.6094 78.8619 92.7969 78.5065 92.9297C78.1549 93.0586 77.7643 93.123 77.3346 93.123C76.983 93.123 76.6588 93.0762 76.3619 92.9824C76.069 92.8848 75.8073 92.748 75.5768 92.5723C75.3541 92.4082 75.1588 92.2109 74.9908 91.9805C74.8268 91.7461 74.6881 91.4902 74.5748 91.2129C74.4615 90.9395 74.3756 90.6426 74.317 90.3223C74.2623 90.002 74.235 89.668 74.235 89.3203V88.1543C74.235 87.8223 74.2623 87.502 74.317 87.1934C74.3717 86.8848 74.4537 86.5938 74.5631 86.3203C74.6803 86.0156 74.8307 85.7402 75.0143 85.4941C75.2018 85.2441 75.4166 85.0312 75.6588 84.8555C75.8893 84.6953 76.1432 84.5703 76.4205 84.4805C76.7018 84.3906 77.0084 84.3457 77.3405 84.3457C77.7897 84.3457 78.1901 84.4121 78.5416 84.5449C78.8971 84.6777 79.1998 84.8652 79.4498 85.1074C79.7037 85.3535 79.903 85.6504 80.0475 85.998C80.1959 86.3457 80.2916 86.7324 80.3346 87.1582H78.9283C78.9049 86.9043 78.8561 86.6758 78.7819 86.4727C78.7115 86.2656 78.6139 86.0898 78.4889 85.9453C78.36 85.8008 78.2018 85.6914 78.0143 85.6172C77.8268 85.5391 77.6022 85.5 77.3405 85.5C77.1569 85.5 76.9908 85.5254 76.8424 85.5762C76.6979 85.627 76.569 85.6992 76.4557 85.793C76.2994 85.9062 76.1686 86.0547 76.0631 86.2383C75.9615 86.418 75.8776 86.6191 75.8112 86.8418C75.7604 87.0371 75.7213 87.2461 75.694 87.4688C75.6705 87.6875 75.6588 87.9121 75.6588 88.1426V89.3203C75.6588 89.6055 75.6744 89.873 75.7057 90.123C75.7408 90.373 75.7936 90.6016 75.8639 90.8086C75.9186 90.9805 75.9869 91.1367 76.069 91.2773C76.1549 91.418 76.2565 91.5391 76.3737 91.6406C76.4948 91.75 76.6334 91.834 76.7897 91.8926C76.9498 91.9473 77.1315 91.9746 77.3346 91.9746C77.5768 91.9746 77.7916 91.9395 77.9791 91.8691C78.1666 91.7988 78.3268 91.6953 78.4596 91.5586C78.5885 91.4258 78.692 91.2598 78.7701 91.0605C78.8483 90.8613 78.899 90.6328 78.9225 90.375H80.3346ZM85.9244 91.0371H83.2467L82.6666 93H81.2018L83.9791 84.4688H85.2272L87.9576 93H86.4987L85.9244 91.0371ZM83.6041 89.8301H85.5787L84.6002 86.4551L83.6041 89.8301ZM95.0416 85.6348H92.4108V93H91.0104V85.6348H88.3971V84.4688H95.0416V85.6348ZM96.4069 84.4688H101.434V85.6348H99.6119V91.8398H101.434V93H96.4069V91.8398H98.1881V85.6348H96.4069V84.4688ZM109.186 89.3027C109.186 89.6465 109.155 89.9785 109.092 90.2988C109.034 90.6191 108.948 90.9219 108.835 91.207C108.714 91.4922 108.563 91.7559 108.383 91.998C108.204 92.2363 107.997 92.4414 107.762 92.6133C107.536 92.7695 107.284 92.8926 107.006 92.9824C106.733 93.0723 106.432 93.1172 106.104 93.1172C105.764 93.1172 105.452 93.0703 105.167 92.9766C104.885 92.8789 104.633 92.7461 104.411 92.5781C104.184 92.4062 103.985 92.1992 103.813 91.957C103.645 91.7148 103.505 91.4492 103.391 91.1602C103.282 90.8828 103.2 90.5879 103.145 90.2754C103.09 89.959 103.063 89.6348 103.063 89.3027V88.1777C103.063 87.8301 103.092 87.4941 103.151 87.1699C103.21 86.8457 103.297 86.5391 103.415 86.25C103.528 85.9727 103.667 85.7188 103.831 85.4883C103.999 85.2539 104.196 85.0508 104.422 84.8789C104.641 84.7109 104.889 84.582 105.167 84.4922C105.448 84.3984 105.756 84.3516 106.092 84.3516C106.432 84.3516 106.745 84.3984 107.03 84.4922C107.315 84.5859 107.571 84.7168 107.797 84.8848C108.024 85.0527 108.221 85.25 108.389 85.4766C108.557 85.7031 108.698 85.9512 108.811 86.2207C108.936 86.5098 109.03 86.8203 109.092 87.1523C109.155 87.4805 109.186 87.8223 109.186 88.1777V89.3027ZM107.768 88.166C107.764 87.9512 107.751 87.7402 107.727 87.5332C107.708 87.3262 107.672 87.1289 107.622 86.9414C107.563 86.7266 107.485 86.5312 107.387 86.3555C107.294 86.1758 107.178 86.0234 107.042 85.8984C106.921 85.7891 106.782 85.7031 106.626 85.6406C106.469 85.5781 106.292 85.5469 106.092 85.5469C105.901 85.5469 105.729 85.5781 105.577 85.6406C105.424 85.6992 105.292 85.7812 105.178 85.8867C105.042 86.0156 104.926 86.1699 104.833 86.3496C104.739 86.5254 104.667 86.7227 104.616 86.9414C104.569 87.1289 104.534 87.3281 104.51 87.5391C104.491 87.7461 104.481 87.9551 104.481 88.166V89.3027C104.481 89.5098 104.491 89.7148 104.51 89.918C104.53 90.1211 104.563 90.3164 104.61 90.5039C104.661 90.7148 104.729 90.9121 104.815 91.0957C104.905 91.2754 105.012 91.4277 105.137 91.5527C105.258 91.6699 105.397 91.7637 105.553 91.834C105.714 91.9004 105.897 91.9336 106.104 91.9336C106.303 91.9336 106.483 91.9004 106.643 91.834C106.807 91.7676 106.948 91.6777 107.065 91.5645C107.202 91.4355 107.315 91.2832 107.405 91.1074C107.499 90.9277 107.573 90.7305 107.628 90.5156C107.674 90.3281 107.708 90.1328 107.727 89.9297C107.751 89.7227 107.764 89.5137 107.768 89.3027V88.166ZM116.118 93H114.706L111.934 87.1289L111.928 93H110.505V84.4688H111.934L114.688 90.3164L114.7 84.4688H116.118V93Z" fill="#F1EAE1"/>
</g>
<rect x="27.6803" y="71.375" width="94.4289" height="33.25" rx="16.625" stroke="#F1EAE1" stroke-width="0.75"/>
<g clip-path="url(#clip2_203_267)">
<rect x="258.042" y="71.4399" width="74.9895" height="34" rx="17" fill="#2A2D39"/>
<path d="M269.023 93V84.4688H271.132C271.499 84.4688 271.845 84.5117 272.169 84.5977C272.493 84.6797 272.788 84.7949 273.054 84.9434C273.343 85.0957 273.599 85.2871 273.821 85.5176C274.048 85.748 274.237 86.0059 274.39 86.291C274.546 86.5879 274.667 86.9141 274.753 87.2695C274.839 87.625 274.882 88.0039 274.882 88.4062V89.0742C274.882 89.4609 274.841 89.8281 274.759 90.1758C274.681 90.5195 274.568 90.834 274.419 91.1191C274.275 91.3965 274.099 91.6484 273.892 91.875C273.689 92.1016 273.462 92.2949 273.212 92.4551C272.931 92.6309 272.618 92.7656 272.275 92.8594C271.935 92.9531 271.569 93 271.179 93H269.023ZM270.446 85.6172V91.8574H271.179C271.429 91.8574 271.657 91.8281 271.864 91.7695C272.075 91.707 272.265 91.6191 272.433 91.5059C272.605 91.3887 272.757 91.2422 272.89 91.0664C273.026 90.8867 273.138 90.6816 273.224 90.4512C273.298 90.2559 273.355 90.043 273.394 89.8125C273.433 89.582 273.452 89.3359 273.452 89.0742V88.3945C273.452 88.1367 273.433 87.8926 273.394 87.6621C273.355 87.4316 273.298 87.2188 273.224 87.0234C273.13 86.7852 273.005 86.5703 272.849 86.3789C272.693 86.1836 272.507 86.0254 272.292 85.9043C272.136 85.8145 271.96 85.7461 271.765 85.6992C271.569 85.6484 271.359 85.6211 271.132 85.6172H270.446ZM281.31 89.1738H277.782V91.8398H281.901V93H276.37V84.4688H281.872V85.6348H277.782V88.0371H281.31V89.1738ZM289.261 90.375C289.222 90.7891 289.124 91.166 288.968 91.5059C288.812 91.8418 288.607 92.1289 288.353 92.3672C288.095 92.6094 287.788 92.7969 287.433 92.9297C287.081 93.0586 286.691 93.123 286.261 93.123C285.909 93.123 285.585 93.0762 285.288 92.9824C284.995 92.8848 284.734 92.748 284.503 92.5723C284.28 92.4082 284.085 92.2109 283.917 91.9805C283.753 91.7461 283.614 91.4902 283.501 91.2129C283.388 90.9395 283.302 90.6426 283.243 90.3223C283.189 90.002 283.161 89.668 283.161 89.3203V88.1543C283.161 87.8223 283.189 87.502 283.243 87.1934C283.298 86.8848 283.38 86.5938 283.489 86.3203C283.607 86.0156 283.757 85.7402 283.941 85.4941C284.128 85.2441 284.343 85.0312 284.585 84.8555C284.816 84.6953 285.069 84.5703 285.347 84.4805C285.628 84.3906 285.935 84.3457 286.267 84.3457C286.716 84.3457 287.116 84.4121 287.468 84.5449C287.823 84.6777 288.126 84.8652 288.376 85.1074C288.63 85.3535 288.829 85.6504 288.974 85.998C289.122 86.3457 289.218 86.7324 289.261 87.1582H287.855C287.831 86.9043 287.782 86.6758 287.708 86.4727C287.638 86.2656 287.54 86.0898 287.415 85.9453C287.286 85.8008 287.128 85.6914 286.941 85.6172C286.753 85.5391 286.528 85.5 286.267 85.5C286.083 85.5 285.917 85.5254 285.769 85.5762C285.624 85.627 285.495 85.6992 285.382 85.793C285.226 85.9062 285.095 86.0547 284.989 86.2383C284.888 86.418 284.804 86.6191 284.737 86.8418C284.687 87.0371 284.648 87.2461 284.62 87.4688C284.597 87.6875 284.585 87.9121 284.585 88.1426V89.3203C284.585 89.6055 284.601 89.873 284.632 90.123C284.667 90.373 284.72 90.6016 284.79 90.8086C284.845 90.9805 284.913 91.1367 284.995 91.2773C285.081 91.418 285.183 91.5391 285.3 91.6406C285.421 91.75 285.56 91.834 285.716 91.8926C285.876 91.9473 286.058 91.9746 286.261 91.9746C286.503 91.9746 286.718 91.9395 286.905 91.8691C287.093 91.7988 287.253 91.6953 287.386 91.5586C287.515 91.4258 287.618 91.2598 287.696 91.0605C287.775 90.8613 287.825 90.6328 287.849 90.375H289.261ZM290.919 84.4688H295.946V85.6348H294.124V91.8398H295.946V93H290.919V91.8398H292.7V85.6348H290.919V84.4688ZM302.362 90.8027C302.362 90.6035 302.321 90.4277 302.239 90.2754C302.157 90.123 302.042 89.9863 301.894 89.8652C301.737 89.752 301.552 89.6504 301.337 89.5605C301.126 89.4668 300.89 89.3828 300.628 89.3086C300.226 89.1953 299.855 89.0566 299.515 88.8926C299.179 88.7246 298.892 88.5371 298.653 88.3301C298.415 88.1191 298.228 87.8809 298.091 87.6152C297.958 87.3457 297.892 87.043 297.892 86.707C297.892 86.3438 297.97 86.0176 298.126 85.7285C298.282 85.4355 298.493 85.1855 298.759 84.9785C299.025 84.7754 299.333 84.6211 299.685 84.5156C300.04 84.4062 300.413 84.3516 300.804 84.3516C301.218 84.3516 301.603 84.416 301.958 84.5449C302.318 84.6699 302.63 84.8457 302.896 85.0723C303.161 85.3027 303.37 85.5781 303.523 85.8984C303.679 86.2148 303.757 86.5664 303.757 86.9531H302.362C302.343 86.7383 302.296 86.543 302.222 86.3672C302.151 86.1875 302.052 86.0332 301.923 85.9043C301.79 85.7793 301.628 85.6816 301.437 85.6113C301.249 85.5371 301.032 85.5 300.786 85.5C300.571 85.5 300.372 85.5293 300.189 85.5879C300.009 85.6426 299.853 85.7207 299.72 85.8223C299.587 85.9277 299.484 86.0547 299.409 86.2031C299.335 86.3516 299.298 86.5176 299.298 86.7012C299.302 86.8965 299.353 87.0684 299.45 87.2168C299.548 87.3613 299.679 87.4883 299.843 87.5977C300.011 87.707 300.202 87.8027 300.417 87.8848C300.636 87.9668 300.864 88.043 301.103 88.1133C301.403 88.1992 301.696 88.3066 301.982 88.4355C302.271 88.5605 302.536 88.7129 302.778 88.8926C303.079 89.1191 303.319 89.3906 303.499 89.707C303.683 90.0195 303.775 90.3809 303.775 90.791C303.775 91.1699 303.694 91.5039 303.534 91.793C303.378 92.082 303.167 92.3223 302.901 92.5137C302.632 92.7129 302.319 92.8633 301.964 92.9648C301.609 93.0625 301.234 93.1113 300.839 93.1113C300.421 93.1113 300.009 93.0469 299.603 92.918C299.196 92.7852 298.843 92.5938 298.542 92.3438C298.265 92.1094 298.044 91.834 297.88 91.5176C297.72 91.2012 297.638 90.8379 297.634 90.4277H299.04C299.06 90.6895 299.114 90.918 299.204 91.1133C299.298 91.3047 299.425 91.4629 299.585 91.5879C299.741 91.7168 299.925 91.8125 300.136 91.875C300.351 91.9375 300.585 91.9688 300.839 91.9688C301.054 91.9688 301.253 91.9434 301.437 91.8926C301.624 91.8418 301.786 91.7656 301.923 91.6641C302.056 91.5664 302.161 91.4453 302.239 91.3008C302.321 91.1562 302.362 90.9902 302.362 90.8027ZM305.333 84.4688H310.36V85.6348H308.538V91.8398H310.36V93H305.333V91.8398H307.114V85.6348H305.333V84.4688ZM318.112 89.3027C318.112 89.6465 318.081 89.9785 318.019 90.2988C317.96 90.6191 317.874 90.9219 317.761 91.207C317.64 91.4922 317.489 91.7559 317.31 91.998C317.13 92.2363 316.923 92.4414 316.689 92.6133C316.462 92.7695 316.21 92.8926 315.933 92.9824C315.659 93.0723 315.359 93.1172 315.03 93.1172C314.691 93.1172 314.378 93.0703 314.093 92.9766C313.812 92.8789 313.56 92.7461 313.337 92.5781C313.11 92.4062 312.911 92.1992 312.739 91.957C312.571 91.7148 312.431 91.4492 312.318 91.1602C312.208 90.8828 312.126 90.5879 312.071 90.2754C312.017 89.959 311.989 89.6348 311.989 89.3027V88.1777C311.989 87.8301 312.019 87.4941 312.077 87.1699C312.136 86.8457 312.224 86.5391 312.341 86.25C312.454 85.9727 312.593 85.7188 312.757 85.4883C312.925 85.2539 313.122 85.0508 313.349 84.8789C313.568 84.7109 313.816 84.582 314.093 84.4922C314.374 84.3984 314.683 84.3516 315.019 84.3516C315.359 84.3516 315.671 84.3984 315.956 84.4922C316.241 84.5859 316.497 84.7168 316.724 84.8848C316.95 85.0527 317.148 85.25 317.316 85.4766C317.484 85.7031 317.624 85.9512 317.737 86.2207C317.862 86.5098 317.956 86.8203 318.019 87.1523C318.081 87.4805 318.112 87.8223 318.112 88.1777V89.3027ZM316.694 88.166C316.691 87.9512 316.677 87.7402 316.653 87.5332C316.634 87.3262 316.599 87.1289 316.548 86.9414C316.489 86.7266 316.411 86.5312 316.314 86.3555C316.22 86.1758 316.105 86.0234 315.968 85.8984C315.847 85.7891 315.708 85.7031 315.552 85.6406C315.396 85.5781 315.218 85.5469 315.019 85.5469C314.827 85.5469 314.655 85.5781 314.503 85.6406C314.351 85.6992 314.218 85.7812 314.105 85.8867C313.968 86.0156 313.853 86.1699 313.759 86.3496C313.665 86.5254 313.593 86.7227 313.542 86.9414C313.495 87.1289 313.46 87.3281 313.437 87.5391C313.417 87.7461 313.407 87.9551 313.407 88.166V89.3027C313.407 89.5098 313.417 89.7148 313.437 89.918C313.456 90.1211 313.489 90.3164 313.536 90.5039C313.587 90.7148 313.655 90.9121 313.741 91.0957C313.831 91.2754 313.939 91.4277 314.064 91.5527C314.185 91.6699 314.323 91.7637 314.48 91.834C314.64 91.9004 314.823 91.9336 315.03 91.9336C315.23 91.9336 315.409 91.9004 315.569 91.834C315.734 91.7676 315.874 91.6777 315.991 91.5645C316.128 91.4355 316.241 91.2832 316.331 91.1074C316.425 90.9277 316.499 90.7305 316.554 90.5156C316.601 90.3281 316.634 90.1328 316.653 89.9297C316.677 89.7227 316.691 89.5137 316.694 89.3027V88.166ZM325.044 93H323.632L320.86 87.1289L320.855 93H319.431V84.4688H320.86L323.614 90.3164L323.626 84.4688H325.044V93Z" fill="#F1EAE1"/>
</g>
<rect x="258.417" y="71.8149" width="74.2395" height="33.25" rx="16.625" stroke="#F1EAE1" stroke-width="0.75"/>
<g clip-path="url(#clip3_203_267)">
<rect x="357.067" y="71" width="89.4105" height="34" rx="17" fill="#2A2D39"/>
<path d="M370.48 91.0371H367.803L367.223 93H365.758L368.535 84.4688H369.783L372.514 93H371.055L370.48 91.0371ZM368.16 89.8301H370.135L369.156 86.4551L368.16 89.8301ZM379.305 90.375C379.266 90.7891 379.168 91.166 379.012 91.5059C378.855 91.8418 378.65 92.1289 378.396 92.3672C378.139 92.6094 377.832 92.7969 377.477 92.9297C377.125 93.0586 376.734 93.123 376.305 93.123C375.953 93.123 375.629 93.0762 375.332 92.9824C375.039 92.8848 374.777 92.748 374.547 92.5723C374.324 92.4082 374.129 92.2109 373.961 91.9805C373.797 91.7461 373.658 91.4902 373.545 91.2129C373.432 90.9395 373.346 90.6426 373.287 90.3223C373.232 90.002 373.205 89.668 373.205 89.3203V88.1543C373.205 87.8223 373.232 87.502 373.287 87.1934C373.342 86.8848 373.424 86.5938 373.533 86.3203C373.65 86.0156 373.801 85.7402 373.984 85.4941C374.172 85.2441 374.387 85.0312 374.629 84.8555C374.859 84.6953 375.113 84.5703 375.391 84.4805C375.672 84.3906 375.979 84.3457 376.311 84.3457C376.76 84.3457 377.16 84.4121 377.512 84.5449C377.867 84.6777 378.17 84.8652 378.42 85.1074C378.674 85.3535 378.873 85.6504 379.018 85.998C379.166 86.3457 379.262 86.7324 379.305 87.1582H377.898C377.875 86.9043 377.826 86.6758 377.752 86.4727C377.682 86.2656 377.584 86.0898 377.459 85.9453C377.33 85.8008 377.172 85.6914 376.984 85.6172C376.797 85.5391 376.572 85.5 376.311 85.5C376.127 85.5 375.961 85.5254 375.812 85.5762C375.668 85.627 375.539 85.6992 375.426 85.793C375.27 85.9062 375.139 86.0547 375.033 86.2383C374.932 86.418 374.848 86.6191 374.781 86.8418C374.73 87.0371 374.691 87.2461 374.664 87.4688C374.641 87.6875 374.629 87.9121 374.629 88.1426V89.3203C374.629 89.6055 374.645 89.873 374.676 90.123C374.711 90.373 374.764 90.6016 374.834 90.8086C374.889 90.9805 374.957 91.1367 375.039 91.2773C375.125 91.418 375.227 91.5391 375.344 91.6406C375.465 91.75 375.604 91.834 375.76 91.8926C375.92 91.9473 376.102 91.9746 376.305 91.9746C376.547 91.9746 376.762 91.9395 376.949 91.8691C377.137 91.7988 377.297 91.6953 377.43 91.5586C377.559 91.4258 377.662 91.2598 377.74 91.0605C377.818 90.8613 377.869 90.6328 377.893 90.375H379.305ZM386.805 85.6348H384.174V93H382.773V85.6348H380.16V84.4688H386.805V85.6348ZM388.17 84.4688H393.197V85.6348H391.375V91.8398H393.197V93H388.17V91.8398H389.951V85.6348H388.17V84.4688ZM397.199 93L394.574 84.4688H396.115L397.738 90.375L397.879 90.8848L398.025 90.3691L399.66 84.4688H401.195L398.57 93H397.199ZM406.516 91.0371H403.838L403.258 93H401.793L404.57 84.4688H405.818L408.549 93H407.09L406.516 91.0371ZM404.195 89.8301H406.17L405.191 86.4551L404.195 89.8301ZM415.633 85.6348H413.002V93H411.602V85.6348H408.988V84.4688H415.633V85.6348ZM416.998 84.4688H422.025V85.6348H420.203V91.8398H422.025V93H416.998V91.8398H418.779V85.6348H416.998V84.4688ZM429.777 89.3027C429.777 89.6465 429.746 89.9785 429.684 90.2988C429.625 90.6191 429.539 90.9219 429.426 91.207C429.305 91.4922 429.154 91.7559 428.975 91.998C428.795 92.2363 428.588 92.4414 428.354 92.6133C428.127 92.7695 427.875 92.8926 427.598 92.9824C427.324 93.0723 427.023 93.1172 426.695 93.1172C426.355 93.1172 426.043 93.0703 425.758 92.9766C425.477 92.8789 425.225 92.7461 425.002 92.5781C424.775 92.4062 424.576 92.1992 424.404 91.957C424.236 91.7148 424.096 91.4492 423.982 91.1602C423.873 90.8828 423.791 90.5879 423.736 90.2754C423.682 89.959 423.654 89.6348 423.654 89.3027V88.1777C423.654 87.8301 423.684 87.4941 423.742 87.1699C423.801 86.8457 423.889 86.5391 424.006 86.25C424.119 85.9727 424.258 85.7188 424.422 85.4883C424.59 85.2539 424.787 85.0508 425.014 84.8789C425.232 84.7109 425.48 84.582 425.758 84.4922C426.039 84.3984 426.348 84.3516 426.684 84.3516C427.023 84.3516 427.336 84.3984 427.621 84.4922C427.906 84.5859 428.162 84.7168 428.389 84.8848C428.615 85.0527 428.812 85.25 428.98 85.4766C429.148 85.7031 429.289 85.9512 429.402 86.2207C429.527 86.5098 429.621 86.8203 429.684 87.1523C429.746 87.4805 429.777 87.8223 429.777 88.1777V89.3027ZM428.359 88.166C428.355 87.9512 428.342 87.7402 428.318 87.5332C428.299 87.3262 428.264 87.1289 428.213 86.9414C428.154 86.7266 428.076 86.5312 427.979 86.3555C427.885 86.1758 427.77 86.0234 427.633 85.8984C427.512 85.7891 427.373 85.7031 427.217 85.6406C427.061 85.5781 426.883 85.5469 426.684 85.5469C426.492 85.5469 426.32 85.5781 426.168 85.6406C426.016 85.6992 425.883 85.7812 425.77 85.8867C425.633 86.0156 425.518 86.1699 425.424 86.3496C425.33 86.5254 425.258 86.7227 425.207 86.9414C425.16 87.1289 425.125 87.3281 425.102 87.5391C425.082 87.7461 425.072 87.9551 425.072 88.166V89.3027C425.072 89.5098 425.082 89.7148 425.102 89.918C425.121 90.1211 425.154 90.3164 425.201 90.5039C425.252 90.7148 425.32 90.9121 425.406 91.0957C425.496 91.2754 425.604 91.4277 425.729 91.5527C425.85 91.6699 425.988 91.7637 426.145 91.834C426.305 91.9004 426.488 91.9336 426.695 91.9336C426.895 91.9336 427.074 91.9004 427.234 91.834C427.398 91.7676 427.539 91.6777 427.656 91.5645C427.793 91.4355 427.906 91.2832 427.996 91.1074C428.09 90.9277 428.164 90.7305 428.219 90.5156C428.266 90.3281 428.299 90.1328 428.318 89.9297C428.342 89.7227 428.355 89.5137 428.359 89.3027V88.166ZM436.709 93H435.297L432.525 87.1289L432.52 93H431.096V84.4688H432.525L435.279 90.3164L435.291 84.4688H436.709V93Z" fill="#F1EAE1"/>
</g>
<rect x="357.442" y="71.375" width="88.6605" height="33.25" rx="16.625" stroke="#F1EAE1" stroke-width="0.75"/>
<g clip-path="url(#clip4_203_267)">
<rect x="471" y="71" width="88" height="34" rx="17" fill="#2A2D39"/>
<path d="M485.098 90.375C485.059 90.7891 484.961 91.166 484.805 91.5059C484.648 91.8418 484.443 92.1289 484.189 92.3672C483.932 92.6094 483.625 92.7969 483.27 92.9297C482.918 93.0586 482.527 93.123 482.098 93.123C481.746 93.123 481.422 93.0762 481.125 92.9824C480.832 92.8848 480.57 92.748 480.34 92.5723C480.117 92.4082 479.922 92.2109 479.754 91.9805C479.59 91.7461 479.451 91.4902 479.338 91.2129C479.225 90.9395 479.139 90.6426 479.08 90.3223C479.025 90.002 478.998 89.668 478.998 89.3203V88.1543C478.998 87.8223 479.025 87.502 479.08 87.1934C479.135 86.8848 479.217 86.5938 479.326 86.3203C479.443 86.0156 479.594 85.7402 479.777 85.4941C479.965 85.2441 480.18 85.0312 480.422 84.8555C480.652 84.6953 480.906 84.5703 481.184 84.4805C481.465 84.3906 481.771 84.3457 482.104 84.3457C482.553 84.3457 482.953 84.4121 483.305 84.5449C483.66 84.6777 483.963 84.8652 484.213 85.1074C484.467 85.3535 484.666 85.6504 484.811 85.998C484.959 86.3457 485.055 86.7324 485.098 87.1582H483.691C483.668 86.9043 483.619 86.6758 483.545 86.4727C483.475 86.2656 483.377 86.0898 483.252 85.9453C483.123 85.8008 482.965 85.6914 482.777 85.6172C482.59 85.5391 482.365 85.5 482.104 85.5C481.92 85.5 481.754 85.5254 481.605 85.5762C481.461 85.627 481.332 85.6992 481.219 85.793C481.062 85.9062 480.932 86.0547 480.826 86.2383C480.725 86.418 480.641 86.6191 480.574 86.8418C480.523 87.0371 480.484 87.2461 480.457 87.4688C480.434 87.6875 480.422 87.9121 480.422 88.1426V89.3203C480.422 89.6055 480.438 89.873 480.469 90.123C480.504 90.373 480.557 90.6016 480.627 90.8086C480.682 90.9805 480.75 91.1367 480.832 91.2773C480.918 91.418 481.02 91.5391 481.137 91.6406C481.258 91.75 481.396 91.834 481.553 91.8926C481.713 91.9473 481.895 91.9746 482.098 91.9746C482.34 91.9746 482.555 91.9395 482.742 91.8691C482.93 91.7988 483.09 91.6953 483.223 91.5586C483.352 91.4258 483.455 91.2598 483.533 91.0605C483.611 90.8613 483.662 90.6328 483.686 90.375H485.098ZM492.328 89.3027C492.328 89.6465 492.297 89.9785 492.234 90.2988C492.176 90.6191 492.09 90.9219 491.977 91.207C491.855 91.4922 491.705 91.7559 491.525 91.998C491.346 92.2363 491.139 92.4414 490.904 92.6133C490.678 92.7695 490.426 92.8926 490.148 92.9824C489.875 93.0723 489.574 93.1172 489.246 93.1172C488.906 93.1172 488.594 93.0703 488.309 92.9766C488.027 92.8789 487.775 92.7461 487.553 92.5781C487.326 92.4062 487.127 92.1992 486.955 91.957C486.787 91.7148 486.646 91.4492 486.533 91.1602C486.424 90.8828 486.342 90.5879 486.287 90.2754C486.232 89.959 486.205 89.6348 486.205 89.3027V88.1777C486.205 87.8301 486.234 87.4941 486.293 87.1699C486.352 86.8457 486.439 86.5391 486.557 86.25C486.67 85.9727 486.809 85.7188 486.973 85.4883C487.141 85.2539 487.338 85.0508 487.564 84.8789C487.783 84.7109 488.031 84.582 488.309 84.4922C488.59 84.3984 488.898 84.3516 489.234 84.3516C489.574 84.3516 489.887 84.3984 490.172 84.4922C490.457 84.5859 490.713 84.7168 490.939 84.8848C491.166 85.0527 491.363 85.25 491.531 85.4766C491.699 85.7031 491.84 85.9512 491.953 86.2207C492.078 86.5098 492.172 86.8203 492.234 87.1523C492.297 87.4805 492.328 87.8223 492.328 88.1777V89.3027ZM490.91 88.166C490.906 87.9512 490.893 87.7402 490.869 87.5332C490.85 87.3262 490.814 87.1289 490.764 86.9414C490.705 86.7266 490.627 86.5312 490.529 86.3555C490.436 86.1758 490.32 86.0234 490.184 85.8984C490.062 85.7891 489.924 85.7031 489.768 85.6406C489.611 85.5781 489.434 85.5469 489.234 85.5469C489.043 85.5469 488.871 85.5781 488.719 85.6406C488.566 85.6992 488.434 85.7812 488.32 85.8867C488.184 86.0156 488.068 86.1699 487.975 86.3496C487.881 86.5254 487.809 86.7227 487.758 86.9414C487.711 87.1289 487.676 87.3281 487.652 87.5391C487.633 87.7461 487.623 87.9551 487.623 88.166V89.3027C487.623 89.5098 487.633 89.7148 487.652 89.918C487.672 90.1211 487.705 90.3164 487.752 90.5039C487.803 90.7148 487.871 90.9121 487.957 91.0957C488.047 91.2754 488.154 91.4277 488.279 91.5527C488.4 91.6699 488.539 91.7637 488.695 91.834C488.855 91.9004 489.039 91.9336 489.246 91.9336C489.445 91.9336 489.625 91.9004 489.785 91.834C489.949 91.7676 490.09 91.6777 490.207 91.5645C490.344 91.4355 490.457 91.2832 490.547 91.1074C490.641 90.9277 490.715 90.7305 490.77 90.5156C490.816 90.3281 490.85 90.1328 490.869 89.9297C490.893 89.7227 490.906 89.5137 490.91 89.3027V88.166ZM495.422 84.4688L496.477 88.1191L497.643 84.4688H499.395V93H498.07V90.1055L498.152 86.2969L496.84 90.3691H496.107L494.918 86.4375L494.994 90.1055V93H493.676V84.4688H495.422ZM502.471 89.748V93H501.064V84.4688H503.918C504.348 84.4727 504.742 84.5371 505.102 84.6621C505.465 84.7871 505.777 84.9648 506.039 85.1953C506.301 85.4258 506.504 85.7051 506.648 86.0332C506.793 86.3613 506.865 86.7305 506.865 87.1406C506.865 87.5352 506.793 87.8926 506.648 88.2129C506.504 88.5293 506.301 88.8008 506.039 89.0273C505.777 89.2578 505.465 89.4355 505.102 89.5605C504.742 89.6855 504.348 89.748 503.918 89.748H502.471ZM502.471 88.5996H503.918C504.156 88.5957 504.369 88.5586 504.557 88.4883C504.748 88.4141 504.91 88.3125 505.043 88.1836C505.176 88.0547 505.275 87.9023 505.342 87.7266C505.412 87.5508 505.447 87.3594 505.447 87.1523C505.447 86.9258 505.412 86.7207 505.342 86.5371C505.275 86.3496 505.176 86.1875 505.043 86.0508C504.91 85.9141 504.748 85.8086 504.557 85.7344C504.369 85.6602 504.156 85.6211 503.918 85.6172H502.471V88.5996ZM509.701 91.8398H513.773V93H508.289V84.4688H509.701V91.8398ZM520.389 89.1738H516.861V91.8398H520.98V93H515.449V84.4688H520.951V85.6348H516.861V88.0371H520.389V89.1738ZM528.633 85.6348H526.002V93H524.602V85.6348H521.988V84.4688H528.633V85.6348ZM529.998 84.4688H535.025V85.6348H533.203V91.8398H535.025V93H529.998V91.8398H531.779V85.6348H529.998V84.4688ZM542.777 89.3027C542.777 89.6465 542.746 89.9785 542.684 90.2988C542.625 90.6191 542.539 90.9219 542.426 91.207C542.305 91.4922 542.154 91.7559 541.975 91.998C541.795 92.2363 541.588 92.4414 541.354 92.6133C541.127 92.7695 540.875 92.8926 540.598 92.9824C540.324 93.0723 540.023 93.1172 539.695 93.1172C539.355 93.1172 539.043 93.0703 538.758 92.9766C538.477 92.8789 538.225 92.7461 538.002 92.5781C537.775 92.4062 537.576 92.1992 537.404 91.957C537.236 91.7148 537.096 91.4492 536.982 91.1602C536.873 90.8828 536.791 90.5879 536.736 90.2754C536.682 89.959 536.654 89.6348 536.654 89.3027V88.1777C536.654 87.8301 536.684 87.4941 536.742 87.1699C536.801 86.8457 536.889 86.5391 537.006 86.25C537.119 85.9727 537.258 85.7188 537.422 85.4883C537.59 85.2539 537.787 85.0508 538.014 84.8789C538.232 84.7109 538.48 84.582 538.758 84.4922C539.039 84.3984 539.348 84.3516 539.684 84.3516C540.023 84.3516 540.336 84.3984 540.621 84.4922C540.906 84.5859 541.162 84.7168 541.389 84.8848C541.615 85.0527 541.812 85.25 541.98 85.4766C542.148 85.7031 542.289 85.9512 542.402 86.2207C542.527 86.5098 542.621 86.8203 542.684 87.1523C542.746 87.4805 542.777 87.8223 542.777 88.1777V89.3027ZM541.359 88.166C541.355 87.9512 541.342 87.7402 541.318 87.5332C541.299 87.3262 541.264 87.1289 541.213 86.9414C541.154 86.7266 541.076 86.5312 540.979 86.3555C540.885 86.1758 540.77 86.0234 540.633 85.8984C540.512 85.7891 540.373 85.7031 540.217 85.6406C540.061 85.5781 539.883 85.5469 539.684 85.5469C539.492 85.5469 539.32 85.5781 539.168 85.6406C539.016 85.6992 538.883 85.7812 538.77 85.8867C538.633 86.0156 538.518 86.1699 538.424 86.3496C538.33 86.5254 538.258 86.7227 538.207 86.9414C538.16 87.1289 538.125 87.3281 538.102 87.5391C538.082 87.7461 538.072 87.9551 538.072 88.166V89.3027C538.072 89.5098 538.082 89.7148 538.102 89.918C538.121 90.1211 538.154 90.3164 538.201 90.5039C538.252 90.7148 538.32 90.9121 538.406 91.0957C538.496 91.2754 538.604 91.4277 538.729 91.5527C538.85 91.6699 538.988 91.7637 539.145 91.834C539.305 91.9004 539.488 91.9336 539.695 91.9336C539.895 91.9336 540.074 91.9004 540.234 91.834C540.398 91.7676 540.539 91.6777 540.656 91.5645C540.793 91.4355 540.906 91.2832 540.996 91.1074C541.09 90.9277 541.164 90.7305 541.219 90.5156C541.266 90.3281 541.299 90.1328 541.318 89.9297C541.342 89.7227 541.355 89.5137 541.359 89.3027V88.166ZM549.709 93H548.297L545.525 87.1289L545.52 93H544.096V84.4688H545.525L548.279 90.3164L548.291 84.4688H549.709V93Z" fill="#F1EAE1"/>
</g>
<rect x="471.375" y="71.375" width="87.25" height="33.25" rx="16.625" stroke="#F1EAE1" stroke-width="0.75"/>
<path d="M350.875 59.0674C350.764 59.1976 350.647 59.3164 350.523 59.4238C350.4 59.528 350.271 59.6191 350.138 59.6973C349.91 59.834 349.664 59.9349 349.4 60C349.137 60.0684 348.86 60.1009 348.57 60.0977C348.277 60.0944 348.007 60.0505 347.76 59.9658C347.516 59.8779 347.296 59.7575 347.1 59.6045C346.905 59.4548 346.734 59.2773 346.588 59.0723C346.441 58.8672 346.319 58.6442 346.222 58.4033C346.121 58.1657 346.044 57.9167 345.992 57.6562C345.943 57.3926 345.917 57.1273 345.914 56.8604V56.0352C345.917 55.7715 345.94 55.5094 345.982 55.249C346.028 54.9854 346.096 54.7331 346.187 54.4922C346.279 54.2513 346.392 54.0283 346.529 53.8232C346.666 53.6149 346.83 53.4342 347.022 53.2812C347.211 53.1315 347.426 53.0127 347.667 52.9248C347.908 52.8369 348.178 52.793 348.477 52.793C348.809 52.793 349.115 52.8451 349.395 52.9492C349.675 53.0501 349.919 53.195 350.128 53.3838C350.336 53.5758 350.504 53.807 350.631 54.0771C350.758 54.3441 350.836 54.6436 350.865 54.9756H349.972C349.936 54.7705 349.88 54.5817 349.806 54.4092C349.731 54.2334 349.633 54.0837 349.513 53.96C349.389 53.8363 349.242 53.7402 349.073 53.6719C348.904 53.6003 348.707 53.5645 348.482 53.5645C348.267 53.5645 348.077 53.6019 347.911 53.6768C347.745 53.7484 347.6 53.846 347.476 53.9697C347.353 54.0934 347.25 54.2383 347.169 54.4043C347.087 54.5671 347.021 54.7396 346.969 54.9219C346.917 55.1042 346.879 55.2897 346.856 55.4785C346.834 55.6673 346.822 55.8496 346.822 56.0254V56.8604C346.825 57.0394 346.84 57.2249 346.866 57.417C346.895 57.6058 346.939 57.7913 346.998 57.9736C347.057 58.1559 347.131 58.3285 347.223 58.4912C347.314 58.654 347.424 58.7972 347.555 58.9209C347.682 59.0446 347.83 59.1439 347.999 59.2188C348.168 59.2904 348.36 59.3278 348.575 59.3311C348.699 59.3343 348.827 59.3294 348.961 59.3164C349.098 59.3034 349.229 59.2773 349.356 59.2383C349.483 59.1992 349.602 59.1471 349.713 59.082C349.823 59.0137 349.916 58.9258 349.991 58.8184L350.001 57.2217H348.556V56.46H350.86L350.875 59.0674ZM354.635 57.0996H353.214V60H352.315V52.8906H354.4C354.732 52.8971 355.045 52.9443 355.338 53.0322C355.631 53.1201 355.888 53.252 356.109 53.4277C356.327 53.6035 356.498 53.8249 356.622 54.0918C356.749 54.3555 356.812 54.6663 356.812 55.0244C356.812 55.2555 356.778 55.4671 356.71 55.6592C356.645 55.8512 356.554 56.0254 356.436 56.1816C356.319 56.3379 356.179 56.4762 356.016 56.5967C355.854 56.7171 355.675 56.8197 355.479 56.9043L356.988 59.9414L356.983 60H356.031L354.635 57.0996ZM353.214 56.3574H354.425C354.627 56.3542 354.817 56.3232 354.996 56.2646C355.175 56.2028 355.333 56.1149 355.47 56.001C355.603 55.887 355.709 55.7487 355.787 55.5859C355.865 55.4199 355.904 55.2295 355.904 55.0146C355.904 54.7868 355.867 54.5882 355.792 54.4189C355.717 54.2464 355.613 54.1016 355.479 53.9844C355.346 53.8704 355.186 53.7842 355.001 53.7256C354.819 53.667 354.618 53.6361 354.4 53.6328H353.214V56.3574ZM361.681 58.1592H359.308L358.736 60H357.833L360.128 52.8906H360.885L363.141 60H362.242L361.681 58.1592ZM359.552 57.373H361.441L360.504 54.2871L359.552 57.373ZM368.746 60H367.828L365.069 54.6875L365.055 60H364.141V52.8906H365.059L367.818 58.1934L367.833 52.8906H368.746V60ZM375.094 53.6621H372.896V60H372.017V53.6621H369.82V52.8906H375.094V53.6621ZM385.704 58.1592H383.331L382.76 60H381.856L384.151 52.8906H384.908L387.164 60H386.266L385.704 58.1592ZM383.575 57.373H385.465L384.527 54.2871L383.575 57.373ZM389.303 57.1484V60H388.399V52.8906H390.704C391.023 52.8971 391.324 52.9476 391.607 53.042C391.894 53.1364 392.144 53.2731 392.359 53.4521C392.574 53.6312 392.743 53.8525 392.867 54.1162C392.994 54.3799 393.058 54.6826 393.058 55.0244C393.058 55.3662 392.994 55.6689 392.867 55.9326C392.743 56.193 392.574 56.4128 392.359 56.5918C392.144 56.7708 391.894 56.9076 391.607 57.002C391.324 57.0964 391.023 57.1452 390.704 57.1484H389.303ZM389.303 56.4062H390.704C390.912 56.403 391.104 56.3704 391.28 56.3086C391.456 56.2435 391.609 56.1523 391.739 56.0352C391.869 55.918 391.97 55.7764 392.042 55.6104C392.117 55.4411 392.154 55.249 392.154 55.0342C392.154 54.8193 392.117 54.6257 392.042 54.4531C391.97 54.2806 391.871 54.1341 391.744 54.0137C391.614 53.8932 391.459 53.8005 391.28 53.7354C391.104 53.6702 390.912 53.6361 390.704 53.6328H389.303V56.4062ZM395.308 57.1484V60H394.405V52.8906H396.71C397.029 52.8971 397.33 52.9476 397.613 53.042C397.9 53.1364 398.15 53.2731 398.365 53.4521C398.58 53.6312 398.749 53.8525 398.873 54.1162C399 54.3799 399.063 54.6826 399.063 55.0244C399.063 55.3662 399 55.6689 398.873 55.9326C398.749 56.193 398.58 56.4128 398.365 56.5918C398.15 56.7708 397.9 56.9076 397.613 57.002C397.33 57.0964 397.029 57.1452 396.71 57.1484H395.308ZM395.308 56.4062H396.71C396.918 56.403 397.11 56.3704 397.286 56.3086C397.462 56.2435 397.615 56.1523 397.745 56.0352C397.875 55.918 397.976 55.7764 398.048 55.6104C398.123 55.4411 398.16 55.249 398.16 55.0342C398.16 54.8193 398.123 54.6257 398.048 54.4531C397.976 54.2806 397.877 54.1341 397.75 54.0137C397.62 53.8932 397.465 53.8005 397.286 53.7354C397.11 53.6702 396.918 53.6361 396.71 53.6328H395.308V56.4062ZM402.682 57.0996H401.261V60H400.362V52.8906H402.447C402.779 52.8971 403.092 52.9443 403.385 53.0322C403.678 53.1201 403.935 53.252 404.156 53.4277C404.374 53.6035 404.545 53.8249 404.669 54.0918C404.796 54.3555 404.859 54.6663 404.859 55.0244C404.859 55.2555 404.825 55.4671 404.757 55.6592C404.692 55.8512 404.6 56.0254 404.483 56.1816C404.366 56.3379 404.226 56.4762 404.063 56.5967C403.901 56.7171 403.722 56.8197 403.526 56.9043L405.035 59.9414L405.03 60H404.078L402.682 57.0996ZM401.261 56.3574H402.472C402.673 56.3542 402.864 56.3232 403.043 56.2646C403.222 56.2028 403.38 56.1149 403.516 56.001C403.65 55.887 403.756 55.7487 403.834 55.5859C403.912 55.4199 403.951 55.2295 403.951 55.0146C403.951 54.7868 403.914 54.5882 403.839 54.4189C403.764 54.2464 403.66 54.1016 403.526 53.9844C403.393 53.8704 403.233 53.7842 403.048 53.7256C402.865 53.667 402.665 53.6361 402.447 53.6328H401.261V56.3574ZM410.958 56.8555C410.955 57.1094 410.932 57.3665 410.89 57.627C410.85 57.8841 410.789 58.1331 410.704 58.374C410.619 58.6149 410.51 58.8395 410.377 59.0479C410.247 59.2562 410.09 59.4385 409.908 59.5947C409.726 59.751 409.516 59.8747 409.278 59.9658C409.044 60.0537 408.78 60.0977 408.487 60.0977C408.194 60.0977 407.929 60.0537 407.691 59.9658C407.457 59.8747 407.249 59.751 407.066 59.5947C406.884 59.4385 406.726 59.2562 406.593 59.0479C406.459 58.8363 406.35 58.61 406.266 58.3691C406.178 58.1283 406.113 57.8792 406.07 57.6221C406.028 57.3649 406.005 57.1094 406.002 56.8555V56.0449C406.005 55.791 406.026 55.5355 406.065 55.2783C406.108 55.0179 406.173 54.7673 406.261 54.5264C406.345 54.2855 406.453 54.0609 406.583 53.8525C406.716 53.641 406.874 53.4554 407.057 53.2959C407.239 53.1396 407.447 53.0176 407.682 52.9297C407.919 52.8385 408.184 52.793 408.477 52.793C408.77 52.793 409.036 52.8385 409.273 52.9297C409.511 53.0176 409.721 53.1396 409.903 53.2959C410.086 53.4521 410.242 53.6361 410.372 53.8477C410.505 54.056 410.616 54.2806 410.704 54.5215C410.789 54.7624 410.85 55.013 410.89 55.2734C410.932 55.5339 410.955 55.791 410.958 56.0449V56.8555ZM410.064 56.0352C410.061 55.8659 410.05 55.6901 410.03 55.5078C410.011 55.3223 409.978 55.1383 409.933 54.9561C409.884 54.777 409.82 54.6061 409.742 54.4434C409.664 54.2773 409.566 54.1309 409.449 54.0039C409.332 53.8802 409.194 53.7826 409.034 53.7109C408.875 53.6361 408.689 53.5986 408.477 53.5986C408.269 53.5986 408.085 53.6361 407.926 53.7109C407.766 53.7858 407.628 53.8851 407.511 54.0088C407.393 54.1357 407.296 54.2822 407.218 54.4482C407.14 54.611 407.078 54.7819 407.032 54.9609C406.983 55.1432 406.947 55.3271 406.925 55.5127C406.905 55.695 406.894 55.8691 406.891 56.0352V56.8555C406.894 57.0215 406.905 57.1973 406.925 57.3828C406.947 57.5684 406.983 57.7507 407.032 57.9297C407.081 58.112 407.144 58.2861 407.223 58.4521C407.301 58.6182 407.398 58.763 407.516 58.8867C407.633 59.0137 407.771 59.1146 407.931 59.1895C408.09 59.2643 408.276 59.3018 408.487 59.3018C408.699 59.3018 408.884 59.2643 409.044 59.1895C409.207 59.1146 409.347 59.0137 409.464 58.8867C409.578 58.763 409.672 58.6198 409.747 58.457C409.825 58.291 409.889 58.1169 409.937 57.9346C409.983 57.7555 410.014 57.5732 410.03 57.3877C410.05 57.2021 410.061 57.0247 410.064 56.8555V56.0352ZM414.083 60L411.837 52.8906H412.804L414.366 58.1982L414.469 58.5449L414.576 58.1885L416.148 52.8906H417.11L414.869 60H414.083ZM421.739 58.1592H419.366L418.795 60H417.891L420.186 52.8906H420.943L423.199 60H422.301L421.739 58.1592ZM419.61 57.373H421.5L420.562 54.2871L419.61 57.373ZM425.372 59.2334H428.849V60H424.469V52.8906H425.372V59.2334Z" fill="#F1EAE1"/>
<path d="M34.3989 43.0703C34.3989 42.8047 34.3442 42.5703 34.2349 42.3672C34.1255 42.1641 33.9718 41.9818 33.7739 41.8203C33.5656 41.6693 33.3182 41.5339 33.0317 41.4141C32.7505 41.2891 32.4354 41.1771 32.0864 41.0781C31.55 40.9271 31.0552 40.7422 30.6021 40.5234C30.1541 40.2995 29.7713 40.0495 29.4536 39.7734C29.1359 39.4922 28.8859 39.1745 28.7036 38.8203C28.5265 38.4609 28.438 38.0573 28.438 37.6094C28.438 37.125 28.5422 36.6901 28.7505 36.3047C28.9588 35.9141 29.2401 35.5807 29.5942 35.3047C29.9484 35.0339 30.3599 34.8281 30.8286 34.6875C31.3026 34.5417 31.8 34.4688 32.3208 34.4688C32.8729 34.4688 33.3859 34.5547 33.8599 34.7266C34.339 34.8932 34.7557 35.1276 35.1099 35.4297C35.464 35.737 35.7427 36.1042 35.9458 36.5312C36.1541 36.9531 36.2583 37.4219 36.2583 37.9375H34.3989C34.3729 37.651 34.3104 37.3906 34.2114 37.1562C34.1177 36.9167 33.9849 36.7109 33.813 36.5391C33.6359 36.3724 33.4198 36.2422 33.1646 36.1484C32.9146 36.0495 32.6255 36 32.2974 36C32.0109 36 31.7453 36.0391 31.5005 36.1172C31.2609 36.1901 31.0526 36.2943 30.8755 36.4297C30.6984 36.5703 30.5604 36.7396 30.4614 36.9375C30.3625 37.1354 30.313 37.3568 30.313 37.6016C30.3182 37.862 30.3859 38.0911 30.5161 38.2891C30.6463 38.4818 30.8208 38.651 31.0396 38.7969C31.2635 38.9427 31.5187 39.0703 31.8052 39.1797C32.0968 39.2891 32.4015 39.3906 32.7192 39.4844C33.1203 39.599 33.5109 39.7422 33.8911 39.9141C34.2765 40.0807 34.6307 40.2839 34.9536 40.5234C35.3547 40.8255 35.675 41.1875 35.9146 41.6094C36.1593 42.026 36.2817 42.5078 36.2817 43.0547C36.2817 43.5599 36.175 44.0052 35.9614 44.3906C35.7531 44.776 35.4718 45.0964 35.1177 45.3516C34.7583 45.6172 34.3416 45.8177 33.8677 45.9531C33.3937 46.0833 32.8937 46.1484 32.3677 46.1484C31.8104 46.1484 31.2609 46.0625 30.7192 45.8906C30.1776 45.7135 29.7062 45.4583 29.3052 45.125C28.9354 44.8125 28.6411 44.4453 28.4224 44.0234C28.2088 43.6016 28.0994 43.1172 28.0942 42.5703H29.9692C29.9953 42.9193 30.0682 43.224 30.188 43.4844C30.313 43.7396 30.4823 43.9505 30.6958 44.1172C30.9041 44.2891 31.1489 44.4167 31.4302 44.5C31.7166 44.5833 32.0291 44.625 32.3677 44.625C32.6541 44.625 32.9198 44.5911 33.1646 44.5234C33.4146 44.4557 33.6307 44.3542 33.813 44.2188C33.9901 44.0885 34.1307 43.9271 34.2349 43.7344C34.3442 43.5417 34.3989 43.3203 34.3989 43.0703ZM40.3052 34.625L41.7114 39.4922L43.2661 34.625H45.6021V46H43.8364V42.1406L43.9458 37.0625L42.1958 42.4922H41.2192L39.6333 37.25L39.7349 42.1406V46H37.9771V34.625H40.3052ZM53.2114 43.3828H49.6411L48.8677 46H46.9146L50.6177 34.625H52.2817L55.9224 46H53.9771L53.2114 43.3828ZM50.1177 41.7734H52.7505L51.4458 37.2734L50.1177 41.7734ZM59.3442 44.4531H64.7739V46H57.4614V34.625H59.3442V44.4531ZM68.9536 44.4531H74.3833V46H67.0708V34.625H68.9536V44.4531ZM93.7505 44.6016C93.5942 44.7891 93.4041 44.9714 93.1802 45.1484C92.9562 45.3203 92.7036 45.474 92.4224 45.6094C92.0682 45.7812 91.6828 45.9141 91.2661 46.0078C90.8494 46.1068 90.4041 46.1562 89.9302 46.1562C89.4927 46.1562 89.0838 46.099 88.7036 45.9844C88.3234 45.8698 87.9797 45.7083 87.6724 45.5C87.3651 45.2917 87.089 45.0391 86.8442 44.7422C86.6047 44.4453 86.4041 44.1146 86.2427 43.75C86.0604 43.3698 85.9224 42.9505 85.8286 42.4922C85.7349 42.0339 85.6854 41.5521 85.6802 41.0469V39.5938C85.6854 39.1042 85.7297 38.6354 85.813 38.1875C85.9015 37.7396 86.0291 37.3255 86.1958 36.9453C86.3573 36.5859 86.55 36.2578 86.7739 35.9609C86.9979 35.6641 87.2531 35.4062 87.5396 35.1875C87.8521 34.9583 88.1958 34.7812 88.5708 34.6562C88.951 34.5312 89.3625 34.4688 89.8052 34.4688C90.4041 34.4688 90.9354 34.5495 91.3989 34.7109C91.8625 34.8724 92.2583 35.1042 92.5864 35.4062C92.9198 35.7135 93.1828 36.0859 93.3755 36.5234C93.5682 36.9557 93.6906 37.4427 93.7427 37.9844H91.8989C91.8521 37.6875 91.7817 37.4193 91.688 37.1797C91.5942 36.9349 91.4692 36.7292 91.313 36.5625C91.1463 36.3854 90.9406 36.25 90.6958 36.1562C90.4562 36.0625 90.1724 36.0156 89.8442 36.0156C89.6047 36.0156 89.3833 36.0573 89.1802 36.1406C88.9771 36.2188 88.7948 36.3281 88.6333 36.4688C88.4458 36.6302 88.2817 36.8307 88.1411 37.0703C88.0057 37.3047 87.8937 37.5677 87.8052 37.8594C87.7271 38.1146 87.6698 38.388 87.6333 38.6797C87.5968 38.9714 87.5786 39.2708 87.5786 39.5781V41.0469C87.5786 41.4062 87.6021 41.7474 87.6489 42.0703C87.701 42.3932 87.7765 42.6927 87.8755 42.9688C87.9536 43.1771 88.0448 43.3724 88.1489 43.5547C88.2583 43.737 88.3859 43.8984 88.5317 44.0391C88.714 44.2214 88.925 44.362 89.1646 44.4609C89.4093 44.5599 89.6854 44.612 89.9927 44.6172C90.175 44.6172 90.3599 44.6068 90.5474 44.5859C90.7349 44.5599 90.9146 44.5208 91.0864 44.4688C91.2531 44.4167 91.4067 44.3516 91.5474 44.2734C91.688 44.1901 91.8 44.0938 91.8833 43.9844L91.8911 41.7109H89.8286V40.25H93.7349L93.7505 44.6016ZM99.5552 41.5859H97.6333V46H95.7583V34.625H99.3677C99.9562 34.6302 100.498 34.7057 100.993 34.8516C101.487 34.9974 101.915 35.2109 102.274 35.4922C102.628 35.7786 102.904 36.1354 103.102 36.5625C103.3 36.9844 103.399 37.4792 103.399 38.0469C103.399 38.4375 103.347 38.7917 103.243 39.1094C103.144 39.4271 103.003 39.7135 102.821 39.9688C102.639 40.224 102.42 40.4479 102.165 40.6406C101.909 40.8333 101.625 41 101.313 41.1406L103.743 45.8984V46H101.735L99.5552 41.5859ZM97.6333 40.0547H99.3911C99.7244 40.0495 100.024 40 100.29 39.9062C100.56 39.8073 100.79 39.6667 100.977 39.4844C101.144 39.3281 101.274 39.1354 101.368 38.9062C101.461 38.6771 101.508 38.4167 101.508 38.125C101.508 37.7969 101.456 37.5104 101.352 37.2656C101.253 37.0156 101.105 36.8073 100.907 36.6406C100.724 36.4844 100.503 36.3672 100.243 36.2891C99.9823 36.2057 99.6906 36.1615 99.3677 36.1562H97.6333V40.0547ZM110.868 43.3828H107.297L106.524 46H104.571L108.274 34.625H109.938L113.579 46H111.633L110.868 43.3828ZM107.774 41.7734H110.407L109.102 37.2734L107.774 41.7734ZM122.297 46H120.415L116.719 38.1719L116.711 46H114.813V34.625H116.719L120.391 42.4219L120.407 34.625H122.297V46ZM132.633 36.1797H129.125V46H127.258V36.1797H123.774V34.625H132.633V36.1797ZM140.102 43.0703C140.102 42.8047 140.047 42.5703 139.938 42.3672C139.829 42.1641 139.675 41.9818 139.477 41.8203C139.269 41.6693 139.021 41.5339 138.735 41.4141C138.454 41.2891 138.139 41.1771 137.79 41.0781C137.253 40.9271 136.758 40.7422 136.305 40.5234C135.857 40.2995 135.474 40.0495 135.157 39.7734C134.839 39.4922 134.589 39.1745 134.407 38.8203C134.23 38.4609 134.141 38.0573 134.141 37.6094C134.141 37.125 134.245 36.6901 134.454 36.3047C134.662 35.9141 134.943 35.5807 135.297 35.3047C135.652 35.0339 136.063 34.8281 136.532 34.6875C137.006 34.5417 137.503 34.4688 138.024 34.4688C138.576 34.4688 139.089 34.5547 139.563 34.7266C140.042 34.8932 140.459 35.1276 140.813 35.4297C141.167 35.737 141.446 36.1042 141.649 36.5312C141.857 36.9531 141.961 37.4219 141.961 37.9375H140.102C140.076 37.651 140.014 37.3906 139.915 37.1562C139.821 36.9167 139.688 36.7109 139.516 36.5391C139.339 36.3724 139.123 36.2422 138.868 36.1484C138.618 36.0495 138.329 36 138 36C137.714 36 137.448 36.0391 137.204 36.1172C136.964 36.1901 136.756 36.2943 136.579 36.4297C136.402 36.5703 136.264 36.7396 136.165 36.9375C136.066 37.1354 136.016 37.3568 136.016 37.6016C136.021 37.862 136.089 38.0911 136.219 38.2891C136.349 38.4818 136.524 38.651 136.743 38.7969C136.967 38.9427 137.222 39.0703 137.508 39.1797C137.8 39.2891 138.105 39.3906 138.422 39.4844C138.823 39.599 139.214 39.7422 139.594 39.9141C139.98 40.0807 140.334 40.2839 140.657 40.5234C141.058 40.8255 141.378 41.1875 141.618 41.6094C141.862 42.026 141.985 42.5078 141.985 43.0547C141.985 43.5599 141.878 44.0052 141.665 44.3906C141.456 44.776 141.175 45.0964 140.821 45.3516C140.461 45.6172 140.045 45.8177 139.571 45.9531C139.097 46.0833 138.597 46.1484 138.071 46.1484C137.514 46.1484 136.964 46.0625 136.422 45.8906C135.881 45.7135 135.409 45.4583 135.008 45.125C134.639 44.8125 134.344 44.4453 134.125 44.0234C133.912 43.6016 133.803 43.1172 133.797 42.5703H135.672C135.698 42.9193 135.771 43.224 135.891 43.4844C136.016 43.7396 136.185 43.9505 136.399 44.1172C136.607 44.2891 136.852 44.4167 137.133 44.5C137.42 44.5833 137.732 44.625 138.071 44.625C138.357 44.625 138.623 44.5911 138.868 44.5234C139.118 44.4557 139.334 44.3542 139.516 44.2188C139.693 44.0885 139.834 43.9271 139.938 43.7344C140.047 43.5417 140.102 43.3203 140.102 43.0703ZM161.461 36.1797H157.954V46H156.086V36.1797H152.602V34.625H161.461V36.1797ZM163.282 34.625H169.985V36.1797H167.555V44.4531H169.985V46H163.282V44.4531H165.657V36.1797H163.282V34.625ZM174.836 34.625L176.243 39.4922L177.797 34.625H180.133V46H178.368V42.1406L178.477 37.0625L176.727 42.4922H175.75L174.165 37.25L174.266 42.1406V46H172.508V34.625H174.836ZM188.907 40.8984H184.204V44.4531H189.696V46H182.321V34.625H189.657V36.1797H184.204V39.3828H188.907V40.8984ZM193.875 44.4531H199.305V46H191.993V34.625H193.875V44.4531ZM201.719 34.625H208.422V36.1797H205.993V44.4531H208.422V46H201.719V44.4531H204.094V36.1797H201.719V34.625ZM218.391 46H216.508L212.813 38.1719L212.805 46H210.907V34.625H212.813L216.485 42.4219L216.5 34.625H218.391V46ZM227.344 40.8984H222.641V44.4531H228.133V46H220.758V34.625H228.094V36.1797H222.641V39.3828H227.344V40.8984Z" fill="#6E8391"/>
<defs>
<filter id="filter0_d_203_267" x="0" y="0" width="586" height="147" filterUnits="userSpaceOnUse" color-interpolation-filters="sRGB">
<feFlood flood-opacity="0" result="BackgroundImageFix"/>
<feColorMatrix in="SourceAlpha" type="matrix" values="0 0 0 0 0 0 0 0 0 0 0 0 0 0 0 0 0 0 127 0" result="hardAlpha"/>
<feOffset dy="4"/>
<feGaussianBlur stdDeviation="2"/>
<feComposite in2="hardAlpha" operator="out"/>
<feColorMatrix type="matrix" values="0 0 0 0 0 0 0 0 0 0 0 0 0 0 0 0 0 0 0.25 0"/>
<feBlend mode="normal" in2="BackgroundImageFix" result="effect1_dropShadow_203_267"/>
<feBlend mode="normal" in="SourceGraphic" in2="effect1_dropShadow_203_267" result="shape"/>
</filter>
<clipPath id="clip0_203_267">
<rect x="145.558" y="71.4399" width="88.4491" height="34" rx="17" fill="white"/>
</clipPath>
<clipPath id="clip1_203_267">
<rect x="27.3053" y="71" width="95.1789" height="34" rx="17" fill="white"/>
</clipPath>
<clipPath id="clip2_203_267">
<rect x="258.042" y="71.4399" width="74.9895" height="34" rx="17" fill="white"/>
</clipPath>
<clipPath id="clip3_203_267">
<rect x="357.067" y="71" width="89.4105" height="34" rx="17" fill="white"/>
</clipPath>
<clipPath id="clip4_203_267">
<rect x="471" y="71" width="88" height="34" rx="17" fill="white"/>
</clipPath>
</defs>
</svg>
