<svg width="586" height="147" viewBox="0 0 586 147" fill="none" xmlns="http://www.w3.org/2000/svg">
<g filter="url(#filter0_d_203_319)">
<rect x="4" width="578" height="139" rx="20" fill="#2A2D39"/>
<rect x="4.375" y="0.375" width="577.25" height="138.25" rx="19.625" stroke="#F1EAE1" stroke-width="0.75"/>
</g>
<path fill-rule="evenodd" clip-rule="evenodd" d="M402.258 75.1932V50.9999L403.024 51.0017V75.195L402.258 75.1932Z" fill="#F1EAE1"/>
<path d="M295.137 82.2944L300.955 88.7944L295.137 95.2944" stroke="#F1EAE1" stroke-width="0.75" stroke-miterlimit="10"/>
<path d="M283.489 88.8198L300.11 88.8198" stroke="#F1EAE1" stroke-width="0.75" stroke-miterlimit="10"/>
<path d="M158.902 82.2944L164.719 88.7944L158.902 95.2944" stroke="#F1EAE1" stroke-width="0.75" stroke-miterlimit="10"/>
<path d="M147.253 88.8198L163.875 88.8198" stroke="#F1EAE1" stroke-width="0.75" stroke-miterlimit="10"/>
<path d="M415.071 82.2944L420.888 88.7944L415.071 95.2944" stroke="#F1EAE1" stroke-width="0.75" stroke-miterlimit="10"/>
<path d="M403.422 88.8198L420.043 88.8198" stroke="#F1EAE1" stroke-width="0.75" stroke-miterlimit="10"/>
<g clip-path="url(#clip0_203_319)">
<rect x="170" y="71" width="107" height="35" rx="17.5" fill="#2A2D39"/>
<path d="M193.354 90.1738H189.826V92.8398H193.945V94H188.414V85.4688H193.916V86.6348H189.826V89.0371H193.354V90.1738ZM197.578 94L194.953 85.4688H196.494L198.117 91.375L198.258 91.8848L198.404 91.3691L200.039 85.4688H201.574L198.949 94H197.578ZM206.895 92.0371H204.217L203.637 94H202.172L204.949 85.4688H206.197L208.928 94H207.469L206.895 92.0371ZM204.574 90.8301H206.549L205.57 87.4551L204.574 90.8301ZM211.494 92.8398H215.566V94H210.082V85.4688H211.494V92.8398ZM222.715 85.4688L222.721 91.1758C222.721 91.6172 222.652 92.0195 222.516 92.3828C222.383 92.7422 222.193 93.0508 221.947 93.3086C221.697 93.5664 221.396 93.7656 221.045 93.9062C220.697 94.0469 220.307 94.1172 219.873 94.1172C219.447 94.1172 219.062 94.0488 218.719 93.9121C218.375 93.7715 218.082 93.5723 217.84 93.3145C217.594 93.0566 217.402 92.7461 217.266 92.3828C217.133 92.0195 217.064 91.6172 217.061 91.1758L217.072 85.4688H218.461L218.473 91.1758C218.477 91.4453 218.51 91.6934 218.572 91.9199C218.635 92.1426 218.727 92.332 218.848 92.4883C218.965 92.6367 219.107 92.7539 219.275 92.8398C219.447 92.9219 219.646 92.9629 219.873 92.9629C220.104 92.9629 220.307 92.9219 220.482 92.8398C220.662 92.7539 220.812 92.6328 220.934 92.4766C221.055 92.3164 221.146 92.127 221.209 91.9082C221.271 91.6855 221.307 91.4414 221.314 91.1758L221.326 85.4688H222.715ZM228.516 92.0371H225.838L225.258 94H223.793L226.57 85.4688H227.818L230.549 94H229.09L228.516 92.0371ZM226.195 90.8301H228.17L227.191 87.4551L226.195 90.8301ZM237.633 86.6348H235.002V94H233.602V86.6348H230.988V85.4688H237.633V86.6348ZM238.998 85.4688H244.025V86.6348H242.203V92.8398H244.025V94H238.998V92.8398H240.779V86.6348H238.998V85.4688ZM251.777 90.3027C251.777 90.6465 251.746 90.9785 251.684 91.2988C251.625 91.6191 251.539 91.9219 251.426 92.207C251.305 92.4922 251.154 92.7559 250.975 92.998C250.795 93.2363 250.588 93.4414 250.354 93.6133C250.127 93.7695 249.875 93.8926 249.598 93.9824C249.324 94.0723 249.023 94.1172 248.695 94.1172C248.355 94.1172 248.043 94.0703 247.758 93.9766C247.477 93.8789 247.225 93.7461 247.002 93.5781C246.775 93.4062 246.576 93.1992 246.404 92.957C246.236 92.7148 246.096 92.4492 245.982 92.1602C245.873 91.8828 245.791 91.5879 245.736 91.2754C245.682 90.959 245.654 90.6348 245.654 90.3027V89.1777C245.654 88.8301 245.684 88.4941 245.742 88.1699C245.801 87.8457 245.889 87.5391 246.006 87.25C246.119 86.9727 246.258 86.7188 246.422 86.4883C246.59 86.2539 246.787 86.0508 247.014 85.8789C247.232 85.7109 247.48 85.582 247.758 85.4922C248.039 85.3984 248.348 85.3516 248.684 85.3516C249.023 85.3516 249.336 85.3984 249.621 85.4922C249.906 85.5859 250.162 85.7168 250.389 85.8848C250.615 86.0527 250.812 86.25 250.98 86.4766C251.148 86.7031 251.289 86.9512 251.402 87.2207C251.527 87.5098 251.621 87.8203 251.684 88.1523C251.746 88.4805 251.777 88.8223 251.777 89.1777V90.3027ZM250.359 89.166C250.355 88.9512 250.342 88.7402 250.318 88.5332C250.299 88.3262 250.264 88.1289 250.213 87.9414C250.154 87.7266 250.076 87.5312 249.979 87.3555C249.885 87.1758 249.77 87.0234 249.633 86.8984C249.512 86.7891 249.373 86.7031 249.217 86.6406C249.061 86.5781 248.883 86.5469 248.684 86.5469C248.492 86.5469 248.32 86.5781 248.168 86.6406C248.016 86.6992 247.883 86.7812 247.77 86.8867C247.633 87.0156 247.518 87.1699 247.424 87.3496C247.33 87.5254 247.258 87.7227 247.207 87.9414C247.16 88.1289 247.125 88.3281 247.102 88.5391C247.082 88.7461 247.072 88.9551 247.072 89.166V90.3027C247.072 90.5098 247.082 90.7148 247.102 90.918C247.121 91.1211 247.154 91.3164 247.201 91.5039C247.252 91.7148 247.32 91.9121 247.406 92.0957C247.496 92.2754 247.604 92.4277 247.729 92.5527C247.85 92.6699 247.988 92.7637 248.145 92.834C248.305 92.9004 248.488 92.9336 248.695 92.9336C248.895 92.9336 249.074 92.9004 249.234 92.834C249.398 92.7676 249.539 92.6777 249.656 92.5645C249.793 92.4355 249.906 92.2832 249.996 92.1074C250.09 91.9277 250.164 91.7305 250.219 91.5156C250.266 91.3281 250.299 91.1328 250.318 90.9297C250.342 90.7227 250.355 90.5137 250.359 90.3027V89.166ZM258.709 94H257.297L254.525 88.1289L254.52 94H253.096V85.4688H254.525L257.279 91.3164L257.291 85.4688H258.709V94Z" fill="#F1EAE1"/>
</g>
<rect x="170.375" y="71.375" width="106.25" height="34.25" rx="17.125" stroke="#F1EAE1" stroke-width="0.75"/>
<g clip-path="url(#clip1_203_319)">
<rect x="27" y="71" width="115" height="35" rx="17.5" fill="#2A2D39"/>
<path d="M50.377 92.0371H47.6992L47.1191 94H45.6543L48.4316 85.4688H49.6797L52.4102 94H50.9512L50.377 92.0371ZM48.0566 90.8301H50.0312L49.0527 87.4551L48.0566 90.8301ZM54.9531 90.748V94H53.5469V85.4688H56.4004C56.8301 85.4727 57.2246 85.5371 57.584 85.6621C57.9473 85.7871 58.2598 85.9648 58.5215 86.1953C58.7832 86.4258 58.9863 86.7051 59.1309 87.0332C59.2754 87.3613 59.3477 87.7305 59.3477 88.1406C59.3477 88.5352 59.2754 88.8926 59.1309 89.2129C58.9863 89.5293 58.7832 89.8008 58.5215 90.0273C58.2598 90.2578 57.9473 90.4355 57.584 90.5605C57.2246 90.6855 56.8301 90.748 56.4004 90.748H54.9531ZM54.9531 89.5996H56.4004C56.6387 89.5957 56.8516 89.5586 57.0391 89.4883C57.2305 89.4141 57.3926 89.3125 57.5254 89.1836C57.6582 89.0547 57.7578 88.9023 57.8242 88.7266C57.8945 88.5508 57.9297 88.3594 57.9297 88.1523C57.9297 87.9258 57.8945 87.7207 57.8242 87.5371C57.7578 87.3496 57.6582 87.1875 57.5254 87.0508C57.3926 86.9141 57.2305 86.8086 57.0391 86.7344C56.8516 86.6602 56.6387 86.6211 56.4004 86.6172H54.9531V89.5996ZM62.1602 90.748V94H60.7539V85.4688H63.6074C64.0371 85.4727 64.4316 85.5371 64.791 85.6621C65.1543 85.7871 65.4668 85.9648 65.7285 86.1953C65.9902 86.4258 66.1934 86.7051 66.3379 87.0332C66.4824 87.3613 66.5547 87.7305 66.5547 88.1406C66.5547 88.5352 66.4824 88.8926 66.3379 89.2129C66.1934 89.5293 65.9902 89.8008 65.7285 90.0273C65.4668 90.2578 65.1543 90.4355 64.791 90.5605C64.4316 90.6855 64.0371 90.748 63.6074 90.748H62.1602ZM62.1602 89.5996H63.6074C63.8457 89.5957 64.0586 89.5586 64.2461 89.4883C64.4375 89.4141 64.5996 89.3125 64.7324 89.1836C64.8652 89.0547 64.9648 88.9023 65.0312 88.7266C65.1016 88.5508 65.1367 88.3594 65.1367 88.1523C65.1367 87.9258 65.1016 87.7207 65.0312 87.5371C64.9648 87.3496 64.8652 87.1875 64.7324 87.0508C64.5996 86.9141 64.4375 86.8086 64.2461 86.7344C64.0586 86.6602 63.8457 86.6211 63.6074 86.6172H62.1602V89.5996ZM69.3906 92.8398H73.4629V94H67.9785V85.4688H69.3906V92.8398ZM75.2734 85.4688H80.3008V86.6348H78.4785V92.8398H80.3008V94H75.2734V92.8398H77.0547V86.6348H75.2734V85.4688ZM88.0293 91.375C87.9902 91.7891 87.8926 92.166 87.7363 92.5059C87.5801 92.8418 87.375 93.1289 87.1211 93.3672C86.8633 93.6094 86.5566 93.7969 86.2012 93.9297C85.8496 94.0586 85.459 94.123 85.0293 94.123C84.6777 94.123 84.3535 94.0762 84.0566 93.9824C83.7637 93.8848 83.502 93.748 83.2715 93.5723C83.0488 93.4082 82.8535 93.2109 82.6855 92.9805C82.5215 92.7461 82.3828 92.4902 82.2695 92.2129C82.1562 91.9395 82.0703 91.6426 82.0117 91.3223C81.957 91.002 81.9297 90.668 81.9297 90.3203V89.1543C81.9297 88.8223 81.957 88.502 82.0117 88.1934C82.0664 87.8848 82.1484 87.5938 82.2578 87.3203C82.375 87.0156 82.5254 86.7402 82.709 86.4941C82.8965 86.2441 83.1113 86.0312 83.3535 85.8555C83.584 85.6953 83.8379 85.5703 84.1152 85.4805C84.3965 85.3906 84.7031 85.3457 85.0352 85.3457C85.4844 85.3457 85.8848 85.4121 86.2363 85.5449C86.5918 85.6777 86.8945 85.8652 87.1445 86.1074C87.3984 86.3535 87.5977 86.6504 87.7422 86.998C87.8906 87.3457 87.9863 87.7324 88.0293 88.1582H86.623C86.5996 87.9043 86.5508 87.6758 86.4766 87.4727C86.4062 87.2656 86.3086 87.0898 86.1836 86.9453C86.0547 86.8008 85.8965 86.6914 85.709 86.6172C85.5215 86.5391 85.2969 86.5 85.0352 86.5C84.8516 86.5 84.6855 86.5254 84.5371 86.5762C84.3926 86.627 84.2637 86.6992 84.1504 86.793C83.9941 86.9062 83.8633 87.0547 83.7578 87.2383C83.6562 87.418 83.5723 87.6191 83.5059 87.8418C83.4551 88.0371 83.416 88.2461 83.3887 88.4688C83.3652 88.6875 83.3535 88.9121 83.3535 89.1426V90.3203C83.3535 90.6055 83.3691 90.873 83.4004 91.123C83.4355 91.373 83.4883 91.6016 83.5586 91.8086C83.6133 91.9805 83.6816 92.1367 83.7637 92.2773C83.8496 92.418 83.9512 92.5391 84.0684 92.6406C84.1895 92.75 84.3281 92.834 84.4844 92.8926C84.6445 92.9473 84.8262 92.9746 85.0293 92.9746C85.2715 92.9746 85.4863 92.9395 85.6738 92.8691C85.8613 92.7988 86.0215 92.6953 86.1543 92.5586C86.2832 92.4258 86.3867 92.2598 86.4648 92.0605C86.543 91.8613 86.5938 91.6328 86.6172 91.375H88.0293ZM93.6191 92.0371H90.9414L90.3613 94H88.8965L91.6738 85.4688H92.9219L95.6523 94H94.1934L93.6191 92.0371ZM91.2988 90.8301H93.2734L92.2949 87.4551L91.2988 90.8301ZM102.736 86.6348H100.105V94H98.7051V86.6348H96.0918V85.4688H102.736V86.6348ZM104.102 85.4688H109.129V86.6348H107.307V92.8398H109.129V94H104.102V92.8398H105.883V86.6348H104.102V85.4688ZM116.881 90.3027C116.881 90.6465 116.85 90.9785 116.787 91.2988C116.729 91.6191 116.643 91.9219 116.529 92.207C116.408 92.4922 116.258 92.7559 116.078 92.998C115.898 93.2363 115.691 93.4414 115.457 93.6133C115.23 93.7695 114.979 93.8926 114.701 93.9824C114.428 94.0723 114.127 94.1172 113.799 94.1172C113.459 94.1172 113.146 94.0703 112.861 93.9766C112.58 93.8789 112.328 93.7461 112.105 93.5781C111.879 93.4062 111.68 93.1992 111.508 92.957C111.34 92.7148 111.199 92.4492 111.086 92.1602C110.977 91.8828 110.895 91.5879 110.84 91.2754C110.785 90.959 110.758 90.6348 110.758 90.3027V89.1777C110.758 88.8301 110.787 88.4941 110.846 88.1699C110.904 87.8457 110.992 87.5391 111.109 87.25C111.223 86.9727 111.361 86.7188 111.525 86.4883C111.693 86.2539 111.891 86.0508 112.117 85.8789C112.336 85.7109 112.584 85.582 112.861 85.4922C113.143 85.3984 113.451 85.3516 113.787 85.3516C114.127 85.3516 114.439 85.3984 114.725 85.4922C115.01 85.5859 115.266 85.7168 115.492 85.8848C115.719 86.0527 115.916 86.25 116.084 86.4766C116.252 86.7031 116.393 86.9512 116.506 87.2207C116.631 87.5098 116.725 87.8203 116.787 88.1523C116.85 88.4805 116.881 88.8223 116.881 89.1777V90.3027ZM115.463 89.166C115.459 88.9512 115.445 88.7402 115.422 88.5332C115.402 88.3262 115.367 88.1289 115.316 87.9414C115.258 87.7266 115.18 87.5312 115.082 87.3555C114.988 87.1758 114.873 87.0234 114.736 86.8984C114.615 86.7891 114.477 86.7031 114.32 86.6406C114.164 86.5781 113.986 86.5469 113.787 86.5469C113.596 86.5469 113.424 86.5781 113.271 86.6406C113.119 86.6992 112.986 86.7812 112.873 86.8867C112.736 87.0156 112.621 87.1699 112.527 87.3496C112.434 87.5254 112.361 87.7227 112.311 87.9414C112.264 88.1289 112.229 88.3281 112.205 88.5391C112.186 88.7461 112.176 88.9551 112.176 89.166V90.3027C112.176 90.5098 112.186 90.7148 112.205 90.918C112.225 91.1211 112.258 91.3164 112.305 91.5039C112.355 91.7148 112.424 91.9121 112.51 92.0957C112.6 92.2754 112.707 92.4277 112.832 92.5527C112.953 92.6699 113.092 92.7637 113.248 92.834C113.408 92.9004 113.592 92.9336 113.799 92.9336C113.998 92.9336 114.178 92.9004 114.338 92.834C114.502 92.7676 114.643 92.6777 114.76 92.5645C114.896 92.4355 115.01 92.2832 115.1 92.1074C115.193 91.9277 115.268 91.7305 115.322 91.5156C115.369 91.3281 115.402 91.1328 115.422 90.9297C115.445 90.7227 115.459 90.5137 115.463 90.3027V89.166ZM123.812 94H122.4L119.629 88.1289L119.623 94H118.199V85.4688H119.629L122.383 91.3164L122.395 85.4688H123.812V94Z" fill="#F1EAE1"/>
</g>
<rect x="27.375" y="71.375" width="114.25" height="34.25" rx="17.125" stroke="#F1EAE1" stroke-width="0.75"/>
<g clip-path="url(#clip2_203_319)">
<rect x="307" y="71" width="91" height="35" rx="17.5" fill="#2A2D39"/>
<path d="M324.98 94V85.4688H327.09C327.457 85.4688 327.803 85.5117 328.127 85.5977C328.451 85.6797 328.746 85.7949 329.012 85.9434C329.301 86.0957 329.557 86.2871 329.779 86.5176C330.006 86.748 330.195 87.0059 330.348 87.291C330.504 87.5879 330.625 87.9141 330.711 88.2695C330.797 88.625 330.84 89.0039 330.84 89.4062V90.0742C330.84 90.4609 330.799 90.8281 330.717 91.1758C330.639 91.5195 330.525 91.834 330.377 92.1191C330.232 92.3965 330.057 92.6484 329.85 92.875C329.646 93.1016 329.42 93.2949 329.17 93.4551C328.889 93.6309 328.576 93.7656 328.232 93.8594C327.893 93.9531 327.527 94 327.137 94H324.98ZM326.404 86.6172V92.8574H327.137C327.387 92.8574 327.615 92.8281 327.822 92.7695C328.033 92.707 328.223 92.6191 328.391 92.5059C328.562 92.3887 328.715 92.2422 328.848 92.0664C328.984 91.8867 329.096 91.6816 329.182 91.4512C329.256 91.2559 329.312 91.043 329.352 90.8125C329.391 90.582 329.41 90.3359 329.41 90.0742V89.3945C329.41 89.1367 329.391 88.8926 329.352 88.6621C329.312 88.4316 329.256 88.2188 329.182 88.0234C329.088 87.7852 328.963 87.5703 328.807 87.3789C328.65 87.1836 328.465 87.0254 328.25 86.9043C328.094 86.8145 327.918 86.7461 327.723 86.6992C327.527 86.6484 327.316 86.6211 327.09 86.6172H326.404ZM337.268 90.1738H333.74V92.8398H337.859V94H332.328V85.4688H337.83V86.6348H333.74V89.0371H337.268V90.1738ZM345.219 91.375C345.18 91.7891 345.082 92.166 344.926 92.5059C344.77 92.8418 344.564 93.1289 344.311 93.3672C344.053 93.6094 343.746 93.7969 343.391 93.9297C343.039 94.0586 342.648 94.123 342.219 94.123C341.867 94.123 341.543 94.0762 341.246 93.9824C340.953 93.8848 340.691 93.748 340.461 93.5723C340.238 93.4082 340.043 93.2109 339.875 92.9805C339.711 92.7461 339.572 92.4902 339.459 92.2129C339.346 91.9395 339.26 91.6426 339.201 91.3223C339.146 91.002 339.119 90.668 339.119 90.3203V89.1543C339.119 88.8223 339.146 88.502 339.201 88.1934C339.256 87.8848 339.338 87.5938 339.447 87.3203C339.564 87.0156 339.715 86.7402 339.898 86.4941C340.086 86.2441 340.301 86.0312 340.543 85.8555C340.773 85.6953 341.027 85.5703 341.305 85.4805C341.586 85.3906 341.893 85.3457 342.225 85.3457C342.674 85.3457 343.074 85.4121 343.426 85.5449C343.781 85.6777 344.084 85.8652 344.334 86.1074C344.588 86.3535 344.787 86.6504 344.932 86.998C345.08 87.3457 345.176 87.7324 345.219 88.1582H343.812C343.789 87.9043 343.74 87.6758 343.666 87.4727C343.596 87.2656 343.498 87.0898 343.373 86.9453C343.244 86.8008 343.086 86.6914 342.898 86.6172C342.711 86.5391 342.486 86.5 342.225 86.5C342.041 86.5 341.875 86.5254 341.727 86.5762C341.582 86.627 341.453 86.6992 341.34 86.793C341.184 86.9062 341.053 87.0547 340.947 87.2383C340.846 87.418 340.762 87.6191 340.695 87.8418C340.645 88.0371 340.605 88.2461 340.578 88.4688C340.555 88.6875 340.543 88.9121 340.543 89.1426V90.3203C340.543 90.6055 340.559 90.873 340.59 91.123C340.625 91.373 340.678 91.6016 340.748 91.8086C340.803 91.9805 340.871 92.1367 340.953 92.2773C341.039 92.418 341.141 92.5391 341.258 92.6406C341.379 92.75 341.518 92.834 341.674 92.8926C341.834 92.9473 342.016 92.9746 342.219 92.9746C342.461 92.9746 342.676 92.9395 342.863 92.8691C343.051 92.7988 343.211 92.6953 343.344 92.5586C343.473 92.4258 343.576 92.2598 343.654 92.0605C343.732 91.8613 343.783 91.6328 343.807 91.375H345.219ZM346.877 85.4688H351.904V86.6348H350.082V92.8398H351.904V94H346.877V92.8398H348.658V86.6348H346.877V85.4688ZM358.32 91.8027C358.32 91.6035 358.279 91.4277 358.197 91.2754C358.115 91.123 358 90.9863 357.852 90.8652C357.695 90.752 357.51 90.6504 357.295 90.5605C357.084 90.4668 356.848 90.3828 356.586 90.3086C356.184 90.1953 355.812 90.0566 355.473 89.8926C355.137 89.7246 354.85 89.5371 354.611 89.3301C354.373 89.1191 354.186 88.8809 354.049 88.6152C353.916 88.3457 353.85 88.043 353.85 87.707C353.85 87.3438 353.928 87.0176 354.084 86.7285C354.24 86.4355 354.451 86.1855 354.717 85.9785C354.982 85.7754 355.291 85.6211 355.643 85.5156C355.998 85.4062 356.371 85.3516 356.762 85.3516C357.176 85.3516 357.561 85.416 357.916 85.5449C358.275 85.6699 358.588 85.8457 358.854 86.0723C359.119 86.3027 359.328 86.5781 359.48 86.8984C359.637 87.2148 359.715 87.5664 359.715 87.9531H358.32C358.301 87.7383 358.254 87.543 358.18 87.3672C358.109 87.1875 358.01 87.0332 357.881 86.9043C357.748 86.7793 357.586 86.6816 357.395 86.6113C357.207 86.5371 356.99 86.5 356.744 86.5C356.529 86.5 356.33 86.5293 356.146 86.5879C355.967 86.6426 355.811 86.7207 355.678 86.8223C355.545 86.9277 355.441 87.0547 355.367 87.2031C355.293 87.3516 355.256 87.5176 355.256 87.7012C355.26 87.8965 355.311 88.0684 355.408 88.2168C355.506 88.3613 355.637 88.4883 355.801 88.5977C355.969 88.707 356.16 88.8027 356.375 88.8848C356.594 88.9668 356.822 89.043 357.061 89.1133C357.361 89.1992 357.654 89.3066 357.939 89.4355C358.229 89.5605 358.494 89.7129 358.736 89.8926C359.037 90.1191 359.277 90.3906 359.457 90.707C359.641 91.0195 359.732 91.3809 359.732 91.791C359.732 92.1699 359.652 92.5039 359.492 92.793C359.336 93.082 359.125 93.3223 358.859 93.5137C358.59 93.7129 358.277 93.8633 357.922 93.9648C357.566 94.0625 357.191 94.1113 356.797 94.1113C356.379 94.1113 355.967 94.0469 355.561 93.918C355.154 93.7852 354.801 93.5938 354.5 93.3438C354.223 93.1094 354.002 92.834 353.838 92.5176C353.678 92.2012 353.596 91.8379 353.592 91.4277H354.998C355.018 91.6895 355.072 91.918 355.162 92.1133C355.256 92.3047 355.383 92.4629 355.543 92.5879C355.699 92.7168 355.883 92.8125 356.094 92.875C356.309 92.9375 356.543 92.9688 356.797 92.9688C357.012 92.9688 357.211 92.9434 357.395 92.8926C357.582 92.8418 357.744 92.7656 357.881 92.6641C358.014 92.5664 358.119 92.4453 358.197 92.3008C358.279 92.1562 358.32 91.9902 358.32 91.8027ZM361.291 85.4688H366.318V86.6348H364.496V92.8398H366.318V94H361.291V92.8398H363.072V86.6348H361.291V85.4688ZM374.07 90.3027C374.07 90.6465 374.039 90.9785 373.977 91.2988C373.918 91.6191 373.832 91.9219 373.719 92.207C373.598 92.4922 373.447 92.7559 373.268 92.998C373.088 93.2363 372.881 93.4414 372.646 93.6133C372.42 93.7695 372.168 93.8926 371.891 93.9824C371.617 94.0723 371.316 94.1172 370.988 94.1172C370.648 94.1172 370.336 94.0703 370.051 93.9766C369.77 93.8789 369.518 93.7461 369.295 93.5781C369.068 93.4062 368.869 93.1992 368.697 92.957C368.529 92.7148 368.389 92.4492 368.275 92.1602C368.166 91.8828 368.084 91.5879 368.029 91.2754C367.975 90.959 367.947 90.6348 367.947 90.3027V89.1777C367.947 88.8301 367.977 88.4941 368.035 88.1699C368.094 87.8457 368.182 87.5391 368.299 87.25C368.412 86.9727 368.551 86.7188 368.715 86.4883C368.883 86.2539 369.08 86.0508 369.307 85.8789C369.525 85.7109 369.773 85.582 370.051 85.4922C370.332 85.3984 370.641 85.3516 370.977 85.3516C371.316 85.3516 371.629 85.3984 371.914 85.4922C372.199 85.5859 372.455 85.7168 372.682 85.8848C372.908 86.0527 373.105 86.25 373.273 86.4766C373.441 86.7031 373.582 86.9512 373.695 87.2207C373.82 87.5098 373.914 87.8203 373.977 88.1523C374.039 88.4805 374.07 88.8223 374.07 89.1777V90.3027ZM372.652 89.166C372.648 88.9512 372.635 88.7402 372.611 88.5332C372.592 88.3262 372.557 88.1289 372.506 87.9414C372.447 87.7266 372.369 87.5312 372.271 87.3555C372.178 87.1758 372.062 87.0234 371.926 86.8984C371.805 86.7891 371.666 86.7031 371.51 86.6406C371.354 86.5781 371.176 86.5469 370.977 86.5469C370.785 86.5469 370.613 86.5781 370.461 86.6406C370.309 86.6992 370.176 86.7812 370.062 86.8867C369.926 87.0156 369.811 87.1699 369.717 87.3496C369.623 87.5254 369.551 87.7227 369.5 87.9414C369.453 88.1289 369.418 88.3281 369.395 88.5391C369.375 88.7461 369.365 88.9551 369.365 89.166V90.3027C369.365 90.5098 369.375 90.7148 369.395 90.918C369.414 91.1211 369.447 91.3164 369.494 91.5039C369.545 91.7148 369.613 91.9121 369.699 92.0957C369.789 92.2754 369.896 92.4277 370.021 92.5527C370.143 92.6699 370.281 92.7637 370.438 92.834C370.598 92.9004 370.781 92.9336 370.988 92.9336C371.188 92.9336 371.367 92.9004 371.527 92.834C371.691 92.7676 371.832 92.6777 371.949 92.5645C372.086 92.4355 372.199 92.2832 372.289 92.1074C372.383 91.9277 372.457 91.7305 372.512 91.5156C372.559 91.3281 372.592 91.1328 372.611 90.9297C372.635 90.7227 372.648 90.5137 372.652 90.3027V89.166ZM381.002 94H379.59L376.818 88.1289L376.812 94H375.389V85.4688H376.818L379.572 91.3164L379.584 85.4688H381.002V94Z" fill="#F1EAE1"/>
</g>
<rect x="307.375" y="71.375" width="90.25" height="34.25" rx="17.125" stroke="#F1EAE1" stroke-width="0.75"/>
<g clip-path="url(#clip3_203_319)">
<rect x="427" y="71" width="108" height="35" rx="17.5" fill="#2A2D39"/>
<path d="M449.48 92.0371H446.803L446.223 94H444.758L447.535 85.4688H448.783L451.514 94H450.055L449.48 92.0371ZM447.16 90.8301H449.135L448.156 87.4551L447.16 90.8301ZM458.305 91.375C458.266 91.7891 458.168 92.166 458.012 92.5059C457.855 92.8418 457.65 93.1289 457.396 93.3672C457.139 93.6094 456.832 93.7969 456.477 93.9297C456.125 94.0586 455.734 94.123 455.305 94.123C454.953 94.123 454.629 94.0762 454.332 93.9824C454.039 93.8848 453.777 93.748 453.547 93.5723C453.324 93.4082 453.129 93.2109 452.961 92.9805C452.797 92.7461 452.658 92.4902 452.545 92.2129C452.432 91.9395 452.346 91.6426 452.287 91.3223C452.232 91.002 452.205 90.668 452.205 90.3203V89.1543C452.205 88.8223 452.232 88.502 452.287 88.1934C452.342 87.8848 452.424 87.5938 452.533 87.3203C452.65 87.0156 452.801 86.7402 452.984 86.4941C453.172 86.2441 453.387 86.0312 453.629 85.8555C453.859 85.6953 454.113 85.5703 454.391 85.4805C454.672 85.3906 454.979 85.3457 455.311 85.3457C455.76 85.3457 456.16 85.4121 456.512 85.5449C456.867 85.6777 457.17 85.8652 457.42 86.1074C457.674 86.3535 457.873 86.6504 458.018 86.998C458.166 87.3457 458.262 87.7324 458.305 88.1582H456.898C456.875 87.9043 456.826 87.6758 456.752 87.4727C456.682 87.2656 456.584 87.0898 456.459 86.9453C456.33 86.8008 456.172 86.6914 455.984 86.6172C455.797 86.5391 455.572 86.5 455.311 86.5C455.127 86.5 454.961 86.5254 454.812 86.5762C454.668 86.627 454.539 86.6992 454.426 86.793C454.27 86.9062 454.139 87.0547 454.033 87.2383C453.932 87.418 453.848 87.6191 453.781 87.8418C453.73 88.0371 453.691 88.2461 453.664 88.4688C453.641 88.6875 453.629 88.9121 453.629 89.1426V90.3203C453.629 90.6055 453.645 90.873 453.676 91.123C453.711 91.373 453.764 91.6016 453.834 91.8086C453.889 91.9805 453.957 92.1367 454.039 92.2773C454.125 92.418 454.227 92.5391 454.344 92.6406C454.465 92.75 454.604 92.834 454.76 92.8926C454.92 92.9473 455.102 92.9746 455.305 92.9746C455.547 92.9746 455.762 92.9395 455.949 92.8691C456.137 92.7988 456.297 92.6953 456.43 92.5586C456.559 92.4258 456.662 92.2598 456.74 92.0605C456.818 91.8613 456.869 91.6328 456.893 91.375H458.305ZM465.805 86.6348H463.174V94H461.773V86.6348H459.16V85.4688H465.805V86.6348ZM467.17 85.4688H472.197V86.6348H470.375V92.8398H472.197V94H467.17V92.8398H468.951V86.6348H467.17V85.4688ZM476.199 94L473.574 85.4688H475.115L476.738 91.375L476.879 91.8848L477.025 91.3691L478.66 85.4688H480.195L477.57 94H476.199ZM485.516 92.0371H482.838L482.258 94H480.793L483.57 85.4688H484.818L487.549 94H486.09L485.516 92.0371ZM483.195 90.8301H485.17L484.191 87.4551L483.195 90.8301ZM494.633 86.6348H492.002V94H490.602V86.6348H487.988V85.4688H494.633V86.6348ZM495.998 85.4688H501.025V86.6348H499.203V92.8398H501.025V94H495.998V92.8398H497.779V86.6348H495.998V85.4688ZM508.777 90.3027C508.777 90.6465 508.746 90.9785 508.684 91.2988C508.625 91.6191 508.539 91.9219 508.426 92.207C508.305 92.4922 508.154 92.7559 507.975 92.998C507.795 93.2363 507.588 93.4414 507.354 93.6133C507.127 93.7695 506.875 93.8926 506.598 93.9824C506.324 94.0723 506.023 94.1172 505.695 94.1172C505.355 94.1172 505.043 94.0703 504.758 93.9766C504.477 93.8789 504.225 93.7461 504.002 93.5781C503.775 93.4062 503.576 93.1992 503.404 92.957C503.236 92.7148 503.096 92.4492 502.982 92.1602C502.873 91.8828 502.791 91.5879 502.736 91.2754C502.682 90.959 502.654 90.6348 502.654 90.3027V89.1777C502.654 88.8301 502.684 88.4941 502.742 88.1699C502.801 87.8457 502.889 87.5391 503.006 87.25C503.119 86.9727 503.258 86.7188 503.422 86.4883C503.59 86.2539 503.787 86.0508 504.014 85.8789C504.232 85.7109 504.48 85.582 504.758 85.4922C505.039 85.3984 505.348 85.3516 505.684 85.3516C506.023 85.3516 506.336 85.3984 506.621 85.4922C506.906 85.5859 507.162 85.7168 507.389 85.8848C507.615 86.0527 507.812 86.25 507.98 86.4766C508.148 86.7031 508.289 86.9512 508.402 87.2207C508.527 87.5098 508.621 87.8203 508.684 88.1523C508.746 88.4805 508.777 88.8223 508.777 89.1777V90.3027ZM507.359 89.166C507.355 88.9512 507.342 88.7402 507.318 88.5332C507.299 88.3262 507.264 88.1289 507.213 87.9414C507.154 87.7266 507.076 87.5312 506.979 87.3555C506.885 87.1758 506.77 87.0234 506.633 86.8984C506.512 86.7891 506.373 86.7031 506.217 86.6406C506.061 86.5781 505.883 86.5469 505.684 86.5469C505.492 86.5469 505.32 86.5781 505.168 86.6406C505.016 86.6992 504.883 86.7812 504.77 86.8867C504.633 87.0156 504.518 87.1699 504.424 87.3496C504.33 87.5254 504.258 87.7227 504.207 87.9414C504.16 88.1289 504.125 88.3281 504.102 88.5391C504.082 88.7461 504.072 88.9551 504.072 89.166V90.3027C504.072 90.5098 504.082 90.7148 504.102 90.918C504.121 91.1211 504.154 91.3164 504.201 91.5039C504.252 91.7148 504.32 91.9121 504.406 92.0957C504.496 92.2754 504.604 92.4277 504.729 92.5527C504.85 92.6699 504.988 92.7637 505.145 92.834C505.305 92.9004 505.488 92.9336 505.695 92.9336C505.895 92.9336 506.074 92.9004 506.234 92.834C506.398 92.7676 506.539 92.6777 506.656 92.5645C506.793 92.4355 506.906 92.2832 506.996 92.1074C507.09 91.9277 507.164 91.7305 507.219 91.5156C507.266 91.3281 507.299 91.1328 507.318 90.9297C507.342 90.7227 507.355 90.5137 507.359 90.3027V89.166ZM515.709 94H514.297L511.525 88.1289L511.52 94H510.096V85.4688H511.525L514.279 91.3164L514.291 85.4688H515.709V94Z" fill="#F1EAE1"/>
</g>
<rect x="427.375" y="71.375" width="107.25" height="34.25" rx="17.125" stroke="#F1EAE1" stroke-width="0.75"/>
<path d="M426.908 59.0674C426.798 59.1976 426.68 59.3164 426.557 59.4238C426.433 59.528 426.304 59.6191 426.171 59.6973C425.943 59.834 425.697 59.9349 425.434 60C425.17 60.0684 424.893 60.1009 424.604 60.0977C424.311 60.0944 424.04 60.0505 423.793 59.9658C423.549 59.8779 423.329 59.7575 423.134 59.6045C422.938 59.4548 422.768 59.2773 422.621 59.0723C422.475 58.8672 422.353 58.6442 422.255 58.4033C422.154 58.1657 422.077 57.9167 422.025 57.6562C421.977 57.3926 421.951 57.1273 421.947 56.8604V56.0352C421.951 55.7715 421.973 55.5094 422.016 55.249C422.061 54.9854 422.13 54.7331 422.221 54.4922C422.312 54.2513 422.426 54.0283 422.562 53.8232C422.699 53.6149 422.864 53.4342 423.056 53.2812C423.244 53.1315 423.459 53.0127 423.7 52.9248C423.941 52.8369 424.211 52.793 424.511 52.793C424.843 52.793 425.149 52.8451 425.429 52.9492C425.709 53.0501 425.953 53.195 426.161 53.3838C426.369 53.5758 426.537 53.807 426.664 54.0771C426.791 54.3441 426.869 54.6436 426.898 54.9756H426.005C425.969 54.7705 425.914 54.5817 425.839 54.4092C425.764 54.2334 425.666 54.0837 425.546 53.96C425.422 53.8363 425.276 53.7402 425.106 53.6719C424.937 53.6003 424.74 53.5645 424.516 53.5645C424.301 53.5645 424.11 53.6019 423.944 53.6768C423.778 53.7484 423.633 53.846 423.51 53.9697C423.386 54.0934 423.284 54.2383 423.202 54.4043C423.121 54.5671 423.054 54.7396 423.002 54.9219C422.95 55.1042 422.912 55.2897 422.89 55.4785C422.867 55.6673 422.855 55.8496 422.855 56.0254V56.8604C422.859 57.0394 422.873 57.2249 422.899 57.417C422.929 57.6058 422.973 57.7913 423.031 57.9736C423.09 58.1559 423.165 58.3285 423.256 58.4912C423.347 58.654 423.458 58.7972 423.588 58.9209C423.715 59.0446 423.863 59.1439 424.032 59.2188C424.201 59.2904 424.394 59.3278 424.608 59.3311C424.732 59.3343 424.861 59.3294 424.994 59.3164C425.131 59.3034 425.263 59.2773 425.39 59.2383C425.517 59.1992 425.635 59.1471 425.746 59.082C425.857 59.0137 425.95 58.9258 426.024 58.8184L426.034 57.2217H424.589V56.46H426.894L426.908 59.0674ZM430.668 57.0996H429.247V60H428.349V52.8906H430.434C430.766 52.8971 431.078 52.9443 431.371 53.0322C431.664 53.1201 431.921 53.252 432.143 53.4277C432.361 53.6035 432.532 53.8249 432.655 54.0918C432.782 54.3555 432.846 54.6663 432.846 55.0244C432.846 55.2555 432.812 55.4671 432.743 55.6592C432.678 55.8512 432.587 56.0254 432.47 56.1816C432.353 56.3379 432.213 56.4762 432.05 56.5967C431.887 56.7171 431.708 56.8197 431.513 56.9043L433.021 59.9414L433.017 60H432.064L430.668 57.0996ZM429.247 56.3574H430.458C430.66 56.3542 430.85 56.3232 431.029 56.2646C431.208 56.2028 431.366 56.1149 431.503 56.001C431.636 55.887 431.742 55.7487 431.82 55.5859C431.898 55.4199 431.938 55.2295 431.938 55.0146C431.938 54.7868 431.9 54.5882 431.825 54.4189C431.75 54.2464 431.646 54.1016 431.513 53.9844C431.379 53.8704 431.22 53.7842 431.034 53.7256C430.852 53.667 430.652 53.6361 430.434 53.6328H429.247V56.3574ZM437.714 58.1592H435.341L434.77 60H433.866L436.161 52.8906H436.918L439.174 60H438.275L437.714 58.1592ZM435.585 57.373H437.475L436.537 54.2871L435.585 57.373ZM444.779 60H443.861L441.103 54.6875L441.088 60H440.175V52.8906H441.093L443.852 58.1934L443.866 52.8906H444.779V60ZM451.127 53.6621H448.93V60H448.051V53.6621H445.854V52.8906H451.127V53.6621ZM461.737 58.1592H459.364L458.793 60H457.89L460.185 52.8906H460.941L463.197 60H462.299L461.737 58.1592ZM459.608 57.373H461.498L460.561 54.2871L459.608 57.373ZM465.336 57.1484V60H464.433V52.8906H466.737C467.056 52.8971 467.357 52.9476 467.641 53.042C467.927 53.1364 468.178 53.2731 468.393 53.4521C468.607 53.6312 468.777 53.8525 468.9 54.1162C469.027 54.3799 469.091 54.6826 469.091 55.0244C469.091 55.3662 469.027 55.6689 468.9 55.9326C468.777 56.193 468.607 56.4128 468.393 56.5918C468.178 56.7708 467.927 56.9076 467.641 57.002C467.357 57.0964 467.056 57.1452 466.737 57.1484H465.336ZM465.336 56.4062H466.737C466.946 56.403 467.138 56.3704 467.313 56.3086C467.489 56.2435 467.642 56.1523 467.772 56.0352C467.903 55.918 468.004 55.7764 468.075 55.6104C468.15 55.4411 468.188 55.249 468.188 55.0342C468.188 54.8193 468.15 54.6257 468.075 54.4531C468.004 54.2806 467.904 54.1341 467.777 54.0137C467.647 53.8932 467.493 53.8005 467.313 53.7354C467.138 53.6702 466.946 53.6361 466.737 53.6328H465.336V56.4062ZM471.342 57.1484V60H470.438V52.8906H472.743C473.062 52.8971 473.363 52.9476 473.646 53.042C473.933 53.1364 474.184 53.2731 474.398 53.4521C474.613 53.6312 474.783 53.8525 474.906 54.1162C475.033 54.3799 475.097 54.6826 475.097 55.0244C475.097 55.3662 475.033 55.6689 474.906 55.9326C474.783 56.193 474.613 56.4128 474.398 56.5918C474.184 56.7708 473.933 56.9076 473.646 57.002C473.363 57.0964 473.062 57.1452 472.743 57.1484H471.342ZM471.342 56.4062H472.743C472.951 56.403 473.144 56.3704 473.319 56.3086C473.495 56.2435 473.648 56.1523 473.778 56.0352C473.909 55.918 474.009 55.7764 474.081 55.6104C474.156 55.4411 474.193 55.249 474.193 55.0342C474.193 54.8193 474.156 54.6257 474.081 54.4531C474.009 54.2806 473.91 54.1341 473.783 54.0137C473.653 53.8932 473.498 53.8005 473.319 53.7354C473.144 53.6702 472.951 53.6361 472.743 53.6328H471.342V56.4062ZM478.715 57.0996H477.294V60H476.396V52.8906H478.48C478.812 52.8971 479.125 52.9443 479.418 53.0322C479.711 53.1201 479.968 53.252 480.189 53.4277C480.408 53.6035 480.578 53.8249 480.702 54.0918C480.829 54.3555 480.893 54.6663 480.893 55.0244C480.893 55.2555 480.858 55.4671 480.79 55.6592C480.725 55.8512 480.634 56.0254 480.517 56.1816C480.399 56.3379 480.259 56.4762 480.097 56.5967C479.934 56.7171 479.755 56.8197 479.56 56.9043L481.068 59.9414L481.063 60H480.111L478.715 57.0996ZM477.294 56.3574H478.505C478.707 56.3542 478.897 56.3232 479.076 56.2646C479.255 56.2028 479.413 56.1149 479.55 56.001C479.683 55.887 479.789 55.7487 479.867 55.5859C479.945 55.4199 479.984 55.2295 479.984 55.0146C479.984 54.7868 479.947 54.5882 479.872 54.4189C479.797 54.2464 479.693 54.1016 479.56 53.9844C479.426 53.8704 479.267 53.7842 479.081 53.7256C478.899 53.667 478.699 53.6361 478.48 53.6328H477.294V56.3574ZM486.991 56.8555C486.988 57.1094 486.965 57.3665 486.923 57.627C486.884 57.8841 486.822 58.1331 486.737 58.374C486.653 58.6149 486.544 58.8395 486.41 59.0479C486.28 59.2562 486.124 59.4385 485.941 59.5947C485.759 59.751 485.549 59.8747 485.312 59.9658C485.077 60.0537 484.813 60.0977 484.521 60.0977C484.228 60.0977 483.962 60.0537 483.725 59.9658C483.49 59.8747 483.282 59.751 483.1 59.5947C482.917 59.4385 482.759 59.2562 482.626 59.0479C482.493 58.8363 482.383 58.61 482.299 58.3691C482.211 58.1283 482.146 57.8792 482.104 57.6221C482.061 57.3649 482.038 57.1094 482.035 56.8555V56.0449C482.038 55.791 482.06 55.5355 482.099 55.2783C482.141 55.0179 482.206 54.7673 482.294 54.5264C482.379 54.2855 482.486 54.0609 482.616 53.8525C482.75 53.641 482.908 53.4554 483.09 53.2959C483.272 53.1396 483.48 53.0176 483.715 52.9297C483.952 52.8385 484.218 52.793 484.511 52.793C484.804 52.793 485.069 52.8385 485.307 52.9297C485.544 53.0176 485.754 53.1396 485.937 53.2959C486.119 53.4521 486.275 53.6361 486.405 53.8477C486.539 54.056 486.649 54.2806 486.737 54.5215C486.822 54.7624 486.884 55.013 486.923 55.2734C486.965 55.5339 486.988 55.791 486.991 56.0449V56.8555ZM486.098 56.0352C486.094 55.8659 486.083 55.6901 486.063 55.5078C486.044 55.3223 486.011 55.1383 485.966 54.9561C485.917 54.777 485.854 54.6061 485.775 54.4434C485.697 54.2773 485.6 54.1309 485.482 54.0039C485.365 53.8802 485.227 53.7826 485.067 53.7109C484.908 53.6361 484.722 53.5986 484.511 53.5986C484.302 53.5986 484.118 53.6361 483.959 53.7109C483.799 53.7858 483.661 53.8851 483.544 54.0088C483.427 54.1357 483.329 54.2822 483.251 54.4482C483.173 54.611 483.111 54.7819 483.065 54.9609C483.017 55.1432 482.981 55.3271 482.958 55.5127C482.938 55.695 482.927 55.8691 482.924 56.0352V56.8555C482.927 57.0215 482.938 57.1973 482.958 57.3828C482.981 57.5684 483.017 57.7507 483.065 57.9297C483.114 58.112 483.178 58.2861 483.256 58.4521C483.334 58.6182 483.432 58.763 483.549 58.8867C483.666 59.0137 483.804 59.1146 483.964 59.1895C484.123 59.2643 484.309 59.3018 484.521 59.3018C484.732 59.3018 484.918 59.2643 485.077 59.1895C485.24 59.1146 485.38 59.0137 485.497 58.8867C485.611 58.763 485.705 58.6198 485.78 58.457C485.858 58.291 485.922 58.1169 485.971 57.9346C486.016 57.7555 486.047 57.5732 486.063 57.3877C486.083 57.2021 486.094 57.0247 486.098 56.8555V56.0352ZM490.116 60L487.87 52.8906H488.837L490.399 58.1982L490.502 58.5449L490.609 58.1885L492.182 52.8906H493.144L490.902 60H490.116ZM497.772 58.1592H495.399L494.828 60H493.925L496.22 52.8906H496.977L499.232 60H498.334L497.772 58.1592ZM495.644 57.373H497.533L496.596 54.2871L495.644 57.373ZM501.405 59.2334H504.882V60H500.502V52.8906H501.405V59.2334Z" fill="#F1EAE1"/>
<path d="M30.4849 41.6641V46H28.6099V34.625H32.4146C32.9875 34.6302 33.5135 34.7161 33.9927 34.8828C34.4771 35.0495 34.8937 35.2865 35.2427 35.5938C35.5916 35.901 35.8625 36.2734 36.0552 36.7109C36.2479 37.1484 36.3442 37.6406 36.3442 38.1875C36.3442 38.7135 36.2479 39.1901 36.0552 39.6172C35.8625 40.0391 35.5916 40.401 35.2427 40.7031C34.8937 41.0104 34.4771 41.2474 33.9927 41.4141C33.5135 41.5807 32.9875 41.6641 32.4146 41.6641H30.4849ZM30.4849 40.1328H32.4146C32.7323 40.1276 33.0161 40.0781 33.2661 39.9844C33.5213 39.8854 33.7375 39.75 33.9146 39.5781C34.0916 39.4062 34.2244 39.2031 34.313 38.9688C34.4067 38.7344 34.4536 38.4792 34.4536 38.2031C34.4536 37.901 34.4067 37.6276 34.313 37.3828C34.2244 37.1328 34.0916 36.9167 33.9146 36.7344C33.7375 36.5521 33.5213 36.4115 33.2661 36.3125C33.0161 36.2135 32.7323 36.1615 32.4146 36.1562H30.4849V40.1328ZM41.8989 41.5859H39.9771V46H38.1021V34.625H41.7114C42.3 34.6302 42.8416 34.7057 43.3364 34.8516C43.8312 34.9974 44.2583 35.2109 44.6177 35.4922C44.9718 35.7786 45.2479 36.1354 45.4458 36.5625C45.6437 36.9844 45.7427 37.4792 45.7427 38.0469C45.7427 38.4375 45.6906 38.7917 45.5864 39.1094C45.4875 39.4271 45.3468 39.7135 45.1646 39.9688C44.9823 40.224 44.7635 40.4479 44.5083 40.6406C44.2531 40.8333 43.9692 41 43.6567 41.1406L46.0864 45.8984V46H44.0786L41.8989 41.5859ZM39.9771 40.0547H41.7349C42.0682 40.0495 42.3677 40 42.6333 39.9062C42.9041 39.8073 43.1333 39.6667 43.3208 39.4844C43.4875 39.3281 43.6177 39.1354 43.7114 38.9062C43.8052 38.6771 43.8521 38.4167 43.8521 38.125C43.8521 37.7969 43.8 37.5104 43.6958 37.2656C43.5968 37.0156 43.4484 36.8073 43.2505 36.6406C43.0682 36.4844 42.8468 36.3672 42.5864 36.2891C42.326 36.2057 42.0343 36.1615 41.7114 36.1562H39.9771V40.0547ZM55.3989 41.0703C55.3989 41.5286 55.3573 41.9714 55.2739 42.3984C55.1958 42.8255 55.0812 43.2292 54.9302 43.6094C54.7687 43.9896 54.5682 44.3411 54.3286 44.6641C54.089 44.9818 53.813 45.2552 53.5005 45.4844C53.1984 45.6927 52.8625 45.8568 52.4927 45.9766C52.1281 46.0964 51.7271 46.1562 51.2896 46.1562C50.8364 46.1562 50.4198 46.0938 50.0396 45.9688C49.6646 45.8385 49.3286 45.6615 49.0317 45.4375C48.7297 45.2083 48.464 44.9323 48.2349 44.6094C48.0109 44.2865 47.8234 43.9323 47.6724 43.5469C47.5265 43.1771 47.4172 42.7839 47.3442 42.3672C47.2713 41.9453 47.2349 41.513 47.2349 41.0703V39.5703C47.2349 39.1068 47.2739 38.6589 47.3521 38.2266C47.4302 37.7943 47.5474 37.3854 47.7036 37C47.8547 36.6302 48.0396 36.2917 48.2583 35.9844C48.4823 35.6719 48.7453 35.401 49.0474 35.1719C49.339 34.9479 49.6698 34.776 50.0396 34.6562C50.4146 34.5312 50.826 34.4688 51.2739 34.4688C51.7271 34.4688 52.1437 34.5312 52.5239 34.6562C52.9041 34.7812 53.2453 34.9557 53.5474 35.1797C53.8494 35.4036 54.1125 35.6667 54.3364 35.9688C54.5604 36.2708 54.7479 36.6016 54.8989 36.9609C55.0656 37.3464 55.1906 37.7604 55.2739 38.2031C55.3573 38.6406 55.3989 39.0964 55.3989 39.5703V41.0703ZM53.5083 39.5547C53.5031 39.2682 53.4849 38.987 53.4536 38.7109C53.4276 38.4349 53.3807 38.1719 53.313 37.9219C53.2349 37.6354 53.1307 37.375 53.0005 37.1406C52.8755 36.901 52.7218 36.6979 52.5396 36.5312C52.3781 36.3854 52.1932 36.2708 51.9849 36.1875C51.7765 36.1042 51.5396 36.0625 51.2739 36.0625C51.0187 36.0625 50.7896 36.1042 50.5864 36.1875C50.3833 36.2656 50.2062 36.375 50.0552 36.5156C49.8729 36.6875 49.7192 36.8932 49.5942 37.1328C49.4692 37.3672 49.3729 37.6302 49.3052 37.9219C49.2427 38.1719 49.1958 38.4375 49.1646 38.7188C49.1385 38.9948 49.1255 39.2734 49.1255 39.5547V41.0703C49.1255 41.3464 49.1385 41.6198 49.1646 41.8906C49.1906 42.1615 49.2349 42.4219 49.2974 42.6719C49.3651 42.9531 49.4562 43.2161 49.5708 43.4609C49.6906 43.7005 49.8338 43.9036 50.0005 44.0703C50.1619 44.2266 50.3468 44.3516 50.5552 44.4453C50.7687 44.5339 51.0135 44.5781 51.2896 44.5781C51.5552 44.5781 51.7948 44.5339 52.0083 44.4453C52.2271 44.3568 52.4146 44.237 52.5708 44.0859C52.7531 43.9141 52.9041 43.7109 53.0239 43.4766C53.1489 43.237 53.2479 42.974 53.3208 42.6875C53.3833 42.4375 53.4276 42.1771 53.4536 41.9062C53.4849 41.6302 53.5031 41.3516 53.5083 41.0703V39.5547ZM62.6489 34.625H64.5474V42.5234C64.5422 43.0547 64.4406 43.5443 64.2427 43.9922C64.05 44.4349 63.7817 44.8177 63.438 45.1406C63.0994 45.4635 62.6984 45.7135 62.2349 45.8906C61.7765 46.0677 61.2791 46.1562 60.7427 46.1562C60.1906 46.1562 59.6854 46.0807 59.2271 45.9297C58.7739 45.7734 58.3833 45.5495 58.0552 45.2578C57.7271 44.9661 57.4666 44.6042 57.2739 44.1719C57.0864 43.7396 56.9823 43.2422 56.9614 42.6797H58.8521C58.8573 42.9714 58.8989 43.2344 58.9771 43.4688C59.0552 43.6979 59.1646 43.8932 59.3052 44.0547C59.4666 44.2422 59.6672 44.3828 59.9067 44.4766C60.1463 44.5703 60.425 44.6172 60.7427 44.6172C61.0343 44.6172 61.2974 44.5625 61.5317 44.4531C61.7661 44.3438 61.9666 44.1953 62.1333 44.0078C62.2948 43.8203 62.4198 43.599 62.5083 43.3438C62.6021 43.0833 62.6489 42.8099 62.6489 42.5234V34.625ZM73.5942 40.8984H68.8911V44.4531H74.3833V46H67.0083V34.625H74.3442V36.1797H68.8911V39.3828H73.5942V40.8984ZM84.1958 42.5C84.1437 43.0521 84.0135 43.5547 83.8052 44.0078C83.5968 44.4557 83.3234 44.8385 82.9849 45.1562C82.6411 45.4792 82.2323 45.7292 81.7583 45.9062C81.2896 46.0781 80.7687 46.1641 80.1958 46.1641C79.7271 46.1641 79.2948 46.1016 78.8989 45.9766C78.5083 45.8464 78.1593 45.6641 77.8521 45.4297C77.5552 45.2109 77.2948 44.9479 77.0708 44.6406C76.8521 44.3281 76.6672 43.987 76.5161 43.6172C76.3651 43.2526 76.2505 42.8568 76.1724 42.4297C76.0994 42.0026 76.063 41.5573 76.063 41.0938V39.5391C76.063 39.0964 76.0994 38.6693 76.1724 38.2578C76.2453 37.8464 76.3547 37.4583 76.5005 37.0938C76.6567 36.6875 76.8573 36.3203 77.1021 35.9922C77.3521 35.6589 77.6385 35.375 77.9614 35.1406C78.2687 34.9271 78.6073 34.7604 78.9771 34.6406C79.3521 34.5208 79.7609 34.4609 80.2036 34.4609C80.8026 34.4609 81.3364 34.5495 81.8052 34.7266C82.2791 34.9036 82.6828 35.1536 83.0161 35.4766C83.3547 35.8047 83.6203 36.2005 83.813 36.6641C84.0109 37.1276 84.1385 37.6432 84.1958 38.2109H82.3208C82.2896 37.8724 82.2244 37.5677 82.1255 37.2969C82.0317 37.0208 81.9015 36.7865 81.7349 36.5938C81.563 36.401 81.3521 36.2552 81.1021 36.1562C80.8521 36.0521 80.5526 36 80.2036 36C79.9588 36 79.7375 36.0339 79.5396 36.1016C79.3468 36.1693 79.175 36.2656 79.0239 36.3906C78.8156 36.5417 78.6411 36.7396 78.5005 36.9844C78.3651 37.224 78.2531 37.4922 78.1646 37.7891C78.0968 38.0495 78.0448 38.3281 78.0083 38.625C77.9771 38.9167 77.9614 39.2161 77.9614 39.5234V41.0938C77.9614 41.474 77.9823 41.8307 78.0239 42.1641C78.0708 42.4974 78.1411 42.8021 78.2349 43.0781C78.3078 43.3073 78.3989 43.5156 78.5083 43.7031C78.6229 43.8906 78.7583 44.0521 78.9146 44.1875C79.076 44.3333 79.2609 44.4453 79.4692 44.5234C79.6828 44.5964 79.925 44.6328 80.1958 44.6328C80.5187 44.6328 80.8052 44.5859 81.0552 44.4922C81.3052 44.3984 81.5187 44.2604 81.6958 44.0781C81.8677 43.901 82.0057 43.6797 82.1099 43.4141C82.214 43.1484 82.2817 42.8438 82.313 42.5H84.1958ZM94.1958 36.1797H90.688V46H88.8208V36.1797H85.3364V34.625H94.1958V36.1797ZM101.665 43.0703C101.665 42.8047 101.61 42.5703 101.5 42.3672C101.391 42.1641 101.237 41.9818 101.04 41.8203C100.831 41.6693 100.584 41.5339 100.297 41.4141C100.016 41.2891 99.701 41.1771 99.3521 41.0781C98.8156 40.9271 98.3208 40.7422 97.8677 40.5234C97.4198 40.2995 97.0369 40.0495 96.7192 39.7734C96.4015 39.4922 96.1515 39.1745 95.9692 38.8203C95.7922 38.4609 95.7036 38.0573 95.7036 37.6094C95.7036 37.125 95.8078 36.6901 96.0161 36.3047C96.2244 35.9141 96.5057 35.5807 96.8599 35.3047C97.214 35.0339 97.6255 34.8281 98.0942 34.6875C98.5682 34.5417 99.0656 34.4688 99.5864 34.4688C100.139 34.4688 100.652 34.5547 101.125 34.7266C101.605 34.8932 102.021 35.1276 102.375 35.4297C102.73 35.737 103.008 36.1042 103.211 36.5312C103.42 36.9531 103.524 37.4219 103.524 37.9375H101.665C101.639 37.651 101.576 37.3906 101.477 37.1562C101.383 36.9167 101.25 36.7109 101.079 36.5391C100.902 36.3724 100.685 36.2422 100.43 36.1484C100.18 36.0495 99.8911 36 99.563 36C99.2765 36 99.0109 36.0391 98.7661 36.1172C98.5265 36.1901 98.3182 36.2943 98.1411 36.4297C97.964 36.5703 97.826 36.7396 97.7271 36.9375C97.6281 37.1354 97.5786 37.3568 97.5786 37.6016C97.5838 37.862 97.6515 38.0911 97.7817 38.2891C97.9119 38.4818 98.0864 38.651 98.3052 38.7969C98.5291 38.9427 98.7843 39.0703 99.0708 39.1797C99.3625 39.2891 99.6672 39.3906 99.9849 39.4844C100.386 39.599 100.777 39.7422 101.157 39.9141C101.542 40.0807 101.896 40.2839 102.219 40.5234C102.62 40.8255 102.941 41.1875 103.18 41.6094C103.425 42.026 103.547 42.5078 103.547 43.0547C103.547 43.5599 103.441 44.0052 103.227 44.3906C103.019 44.776 102.737 45.0964 102.383 45.3516C102.024 45.6172 101.607 45.8177 101.133 45.9531C100.659 46.0833 100.159 46.1484 99.6333 46.1484C99.076 46.1484 98.5265 46.0625 97.9849 45.8906C97.4432 45.7135 96.9718 45.4583 96.5708 45.125C96.201 44.8125 95.9067 44.4453 95.688 44.0234C95.4744 43.6016 95.3651 43.1172 95.3599 42.5703H97.2349C97.2609 42.9193 97.3338 43.224 97.4536 43.4844C97.5786 43.7396 97.7479 43.9505 97.9614 44.1172C98.1698 44.2891 98.4146 44.4167 98.6958 44.5C98.9823 44.5833 99.2948 44.625 99.6333 44.625C99.9198 44.625 100.185 44.5911 100.43 44.5234C100.68 44.4557 100.896 44.3542 101.079 44.2188C101.256 44.0885 101.396 43.9271 101.5 43.7344C101.61 43.5417 101.665 43.3203 101.665 43.0703ZM122.579 44.6016C122.422 44.7891 122.232 44.9714 122.008 45.1484C121.784 45.3203 121.532 45.474 121.25 45.6094C120.896 45.7812 120.511 45.9141 120.094 46.0078C119.678 46.1068 119.232 46.1562 118.758 46.1562C118.321 46.1562 117.912 46.099 117.532 45.9844C117.152 45.8698 116.808 45.7083 116.5 45.5C116.193 45.2917 115.917 45.0391 115.672 44.7422C115.433 44.4453 115.232 44.1146 115.071 43.75C114.889 43.3698 114.75 42.9505 114.657 42.4922C114.563 42.0339 114.514 41.5521 114.508 41.0469V39.5938C114.514 39.1042 114.558 38.6354 114.641 38.1875C114.73 37.7396 114.857 37.3255 115.024 36.9453C115.185 36.5859 115.378 36.2578 115.602 35.9609C115.826 35.6641 116.081 35.4062 116.368 35.1875C116.68 34.9583 117.024 34.7812 117.399 34.6562C117.779 34.5312 118.191 34.4688 118.633 34.4688C119.232 34.4688 119.764 34.5495 120.227 34.7109C120.691 34.8724 121.086 35.1042 121.415 35.4062C121.748 35.7135 122.011 36.0859 122.204 36.5234C122.396 36.9557 122.519 37.4427 122.571 37.9844H120.727C120.68 37.6875 120.61 37.4193 120.516 37.1797C120.422 36.9349 120.297 36.7292 120.141 36.5625C119.974 36.3854 119.769 36.25 119.524 36.1562C119.284 36.0625 119 36.0156 118.672 36.0156C118.433 36.0156 118.211 36.0573 118.008 36.1406C117.805 36.2188 117.623 36.3281 117.461 36.4688C117.274 36.6302 117.11 36.8307 116.969 37.0703C116.834 37.3047 116.722 37.5677 116.633 37.8594C116.555 38.1146 116.498 38.388 116.461 38.6797C116.425 38.9714 116.407 39.2708 116.407 39.5781V41.0469C116.407 41.4062 116.43 41.7474 116.477 42.0703C116.529 42.3932 116.605 42.6927 116.704 42.9688C116.782 43.1771 116.873 43.3724 116.977 43.5547C117.086 43.737 117.214 43.8984 117.36 44.0391C117.542 44.2214 117.753 44.362 117.993 44.4609C118.237 44.5599 118.514 44.612 118.821 44.6172C119.003 44.6172 119.188 44.6068 119.375 44.5859C119.563 44.5599 119.743 44.5208 119.915 44.4688C120.081 44.4167 120.235 44.3516 120.375 44.2734C120.516 44.1901 120.628 44.0938 120.711 43.9844L120.719 41.7109H118.657V40.25H122.563L122.579 44.6016ZM128.383 41.5859H126.461V46H124.586V34.625H128.196C128.784 34.6302 129.326 34.7057 129.821 34.8516C130.316 34.9974 130.743 35.2109 131.102 35.4922C131.456 35.7786 131.732 36.1354 131.93 36.5625C132.128 36.9844 132.227 37.4792 132.227 38.0469C132.227 38.4375 132.175 38.7917 132.071 39.1094C131.972 39.4271 131.831 39.7135 131.649 39.9688C131.467 40.224 131.248 40.4479 130.993 40.6406C130.737 40.8333 130.454 41 130.141 41.1406L132.571 45.8984V46H130.563L128.383 41.5859ZM126.461 40.0547H128.219C128.553 40.0495 128.852 40 129.118 39.9062C129.389 39.8073 129.618 39.6667 129.805 39.4844C129.972 39.3281 130.102 39.1354 130.196 38.9062C130.29 38.6771 130.336 38.4167 130.336 38.125C130.336 37.7969 130.284 37.5104 130.18 37.2656C130.081 37.0156 129.933 36.8073 129.735 36.6406C129.553 36.4844 129.331 36.3672 129.071 36.2891C128.81 36.2057 128.519 36.1615 128.196 36.1562H126.461V40.0547ZM139.696 43.3828H136.125L135.352 46H133.399L137.102 34.625H138.766L142.407 46H140.461L139.696 43.3828ZM136.602 41.7734H139.235L137.93 37.2734L136.602 41.7734ZM151.125 46H149.243L145.547 38.1719L145.54 46H143.641V34.625H145.547L149.219 42.4219L149.235 34.625H151.125V46ZM161.461 36.1797H157.954V46H156.086V36.1797H152.602V34.625H161.461V36.1797ZM168.93 43.0703C168.93 42.8047 168.875 42.5703 168.766 42.3672C168.657 42.1641 168.503 41.9818 168.305 41.8203C168.097 41.6693 167.849 41.5339 167.563 41.4141C167.282 41.2891 166.967 41.1771 166.618 41.0781C166.081 40.9271 165.586 40.7422 165.133 40.5234C164.685 40.2995 164.303 40.0495 163.985 39.7734C163.667 39.4922 163.417 39.1745 163.235 38.8203C163.058 38.4609 162.969 38.0573 162.969 37.6094C162.969 37.125 163.073 36.6901 163.282 36.3047C163.49 35.9141 163.771 35.5807 164.125 35.3047C164.48 35.0339 164.891 34.8281 165.36 34.6875C165.834 34.5417 166.331 34.4688 166.852 34.4688C167.404 34.4688 167.917 34.5547 168.391 34.7266C168.87 34.8932 169.287 35.1276 169.641 35.4297C169.995 35.737 170.274 36.1042 170.477 36.5312C170.685 36.9531 170.79 37.4219 170.79 37.9375H168.93C168.904 37.651 168.842 37.3906 168.743 37.1562C168.649 36.9167 168.516 36.7109 168.344 36.5391C168.167 36.3724 167.951 36.2422 167.696 36.1484C167.446 36.0495 167.157 36 166.829 36C166.542 36 166.277 36.0391 166.032 36.1172C165.792 36.1901 165.584 36.2943 165.407 36.4297C165.23 36.5703 165.092 36.7396 164.993 36.9375C164.894 37.1354 164.844 37.3568 164.844 37.6016C164.849 37.862 164.917 38.0911 165.047 38.2891C165.178 38.4818 165.352 38.651 165.571 38.7969C165.795 38.9427 166.05 39.0703 166.336 39.1797C166.628 39.2891 166.933 39.3906 167.25 39.4844C167.652 39.599 168.042 39.7422 168.422 39.9141C168.808 40.0807 169.162 40.2839 169.485 40.5234C169.886 40.8255 170.206 41.1875 170.446 41.6094C170.691 42.026 170.813 42.5078 170.813 43.0547C170.813 43.5599 170.706 44.0052 170.493 44.3906C170.284 44.776 170.003 45.0964 169.649 45.3516C169.29 45.6172 168.873 45.8177 168.399 45.9531C167.925 46.0833 167.425 46.1484 166.899 46.1484C166.342 46.1484 165.792 46.0625 165.25 45.8906C164.709 45.7135 164.237 45.4583 163.836 45.125C163.467 44.8125 163.172 44.4453 162.954 44.0234C162.74 43.6016 162.631 43.1172 162.625 42.5703H164.5C164.527 42.9193 164.599 43.224 164.719 43.4844C164.844 43.7396 165.014 43.9505 165.227 44.1172C165.435 44.2891 165.68 44.4167 165.961 44.5C166.248 44.5833 166.56 44.625 166.899 44.625C167.185 44.625 167.451 44.5911 167.696 44.5234C167.946 44.4557 168.162 44.3542 168.344 44.2188C168.521 44.0885 168.662 43.9271 168.766 43.7344C168.875 43.5417 168.93 43.3203 168.93 43.0703ZM190.29 36.1797H186.782V46H184.915V36.1797H181.43V34.625H190.29V36.1797ZM192.11 34.625H198.813V36.1797H196.383V44.4531H198.813V46H192.11V44.4531H194.485V36.1797H192.11V34.625ZM203.665 34.625L205.071 39.4922L206.625 34.625H208.961V46H207.196V42.1406L207.305 37.0625L205.555 42.4922H204.579L202.993 37.25L203.094 42.1406V46H201.336V34.625H203.665ZM217.735 40.8984H213.032V44.4531H218.524V46H211.149V34.625H218.485V36.1797H213.032V39.3828H217.735V40.8984ZM222.704 44.4531H228.133V46H220.821V34.625H222.704V44.4531ZM230.547 34.625H237.25V36.1797H234.821V44.4531H237.25V46H230.547V44.4531H232.922V36.1797H230.547V34.625ZM247.219 46H245.336L241.641 38.1719L241.633 46H239.735V34.625H241.641L245.313 42.4219L245.329 34.625H247.219V46ZM256.172 40.8984H251.469V44.4531H256.961V46H249.586V34.625H256.922V36.1797H251.469V39.3828H256.172V40.8984Z" fill="#6E8391"/>
<defs>
<filter id="filter0_d_203_319" x="0" y="0" width="586" height="147" filterUnits="userSpaceOnUse" color-interpolation-filters="sRGB">
<feFlood flood-opacity="0" result="BackgroundImageFix"/>
<feColorMatrix in="SourceAlpha" type="matrix" values="0 0 0 0 0 0 0 0 0 0 0 0 0 0 0 0 0 0 127 0" result="hardAlpha"/>
<feOffset dy="4"/>
<feGaussianBlur stdDeviation="2"/>
<feComposite in2="hardAlpha" operator="out"/>
<feColorMatrix type="matrix" values="0 0 0 0 0 0 0 0 0 0 0 0 0 0 0 0 0 0 0.25 0"/>
<feBlend mode="normal" in2="BackgroundImageFix" result="effect1_dropShadow_203_319"/>
<feBlend mode="normal" in="SourceGraphic" in2="effect1_dropShadow_203_319" result="shape"/>
</filter>
<clipPath id="clip0_203_319">
<rect x="170" y="71" width="107" height="35" rx="17.5" fill="white"/>
</clipPath>
<clipPath id="clip1_203_319">
<rect x="27" y="71" width="115" height="35" rx="17.5" fill="white"/>
</clipPath>
<clipPath id="clip2_203_319">
<rect x="307" y="71" width="91" height="35" rx="17.5" fill="white"/>
</clipPath>
<clipPath id="clip3_203_319">
<rect x="427" y="71" width="108" height="35" rx="17.5" fill="white"/>
</clipPath>
</defs>
</svg>
