<svg width="754" height="312" viewBox="0 0 754 312" fill="none" xmlns="http://www.w3.org/2000/svg">
<path d="M623.322 169.268V202.258C623.322 204.379 624.392 206.298 626.174 207.375L653.681 223.87C655.431 224.914 657.602 224.914 659.351 223.87L686.859 207.375C688.608 206.332 689.71 204.379 689.71 202.258V169.268C689.71 167.148 688.641 165.229 686.859 164.152L659.351 147.657C657.602 146.613 655.431 146.613 653.681 147.657L626.174 164.152C624.424 165.195 623.355 167.148 623.355 169.268H623.322Z" fill="#808080" fill-opacity="0.3"/>
<path d="M662.494 192.159L658.574 203.335C658.476 203.638 658.476 203.975 658.574 204.311L665.313 223.533L673.121 218.854L663.758 192.159C663.531 191.553 662.721 191.553 662.494 192.159Z" fill="white" fill-opacity="0.3"/>
<path d="M670.367 173.375C670.14 172.769 669.33 172.769 669.104 173.375L665.183 184.552C665.086 184.854 665.086 185.191 665.183 185.528L676.232 217.003L684.04 212.324L670.367 173.409V173.375Z" fill="white" fill-opacity="0.3"/>
<path d="M656.5 148.902C656.694 148.902 656.889 148.969 657.051 149.07L686.794 166.912C687.15 167.114 687.345 167.518 687.345 167.922V203.605C687.345 204.008 687.118 204.412 686.794 204.614L657.051 222.456C656.889 222.557 656.694 222.624 656.5 222.624C656.306 222.624 656.111 222.557 655.949 222.456L626.206 204.614C625.85 204.412 625.655 204.008 625.655 203.605V167.888C625.655 167.484 625.882 167.08 626.206 166.878L655.949 149.037C656.111 148.936 656.306 148.868 656.5 148.868V148.902ZM656.5 143.684C655.431 143.684 654.394 143.953 653.422 144.526L623.679 162.367C621.767 163.512 620.601 165.599 620.601 167.888V203.571C620.601 205.86 621.767 207.947 623.679 209.092L653.422 226.933C654.362 227.505 655.431 227.775 656.5 227.775C657.569 227.775 658.606 227.505 659.578 226.933L689.321 209.092C691.233 207.947 692.399 205.86 692.399 203.571V167.888C692.399 165.599 691.233 163.512 689.321 162.367L659.546 144.526C658.606 143.953 657.537 143.684 656.468 143.684H656.5Z" fill="#808080" fill-opacity="0.3"/>
<path d="M636.801 217.036L639.555 209.227L645.063 213.973L639.911 218.888L636.801 217.036Z" fill="#808080" fill-opacity="0.3"/>
<path d="M653.973 165.363H646.424C645.873 165.363 645.354 165.734 645.16 166.272L628.992 212.323L636.801 217.003L654.621 166.272C654.783 165.801 654.459 165.33 654.005 165.33L653.973 165.363Z" fill="white" fill-opacity="0.3"/>
<path d="M667.192 165.363H659.643C659.092 165.363 658.574 165.734 658.379 166.272L639.911 218.854L647.72 223.533L667.808 166.272C667.97 165.801 667.646 165.33 667.192 165.33V165.363Z" fill="white" fill-opacity="0.3"/>
<path d="M680.322 253.426V286.416C680.322 288.537 681.392 290.456 683.174 291.533L710.681 308.028C712.431 309.071 714.602 309.071 716.351 308.028L743.859 291.533C745.608 290.489 746.71 288.537 746.71 286.416V253.426C746.71 251.305 745.641 249.387 743.859 248.309L716.351 231.814C714.602 230.771 712.431 230.771 710.681 231.814L683.174 248.309C681.424 249.353 680.355 251.305 680.355 253.426H680.322Z" fill="#808080" fill-opacity="0.3"/>
<path d="M719.494 276.317L715.574 287.493C715.476 287.796 715.476 288.133 715.574 288.469L722.313 307.691L730.121 303.012L720.758 276.317C720.531 275.711 719.721 275.711 719.494 276.317Z" fill="white" fill-opacity="0.3"/>
<path d="M727.367 257.533C727.14 256.927 726.33 256.927 726.104 257.533L722.183 268.709C722.086 269.012 722.086 269.349 722.183 269.685L733.232 301.161L741.04 296.481L727.367 257.567V257.533Z" fill="white" fill-opacity="0.3"/>
<path d="M713.5 233.06C713.694 233.06 713.889 233.127 714.051 233.228L743.794 251.07C744.15 251.272 744.345 251.676 744.345 252.08V287.763C744.345 288.167 744.118 288.571 743.794 288.773L714.051 306.614C713.889 306.715 713.694 306.782 713.5 306.782C713.306 306.782 713.111 306.715 712.949 306.614L683.206 288.773C682.85 288.571 682.655 288.167 682.655 287.763V252.046C682.655 251.642 682.882 251.238 683.206 251.036L712.949 233.195C713.111 233.094 713.306 233.026 713.5 233.026V233.06ZM713.5 227.842C712.431 227.842 711.394 228.112 710.422 228.684L680.679 246.525C678.767 247.67 677.601 249.757 677.601 252.046V287.729C677.601 290.018 678.767 292.105 680.679 293.25L710.422 311.091C711.362 311.664 712.431 311.933 713.5 311.933C714.569 311.933 715.606 311.664 716.578 311.091L746.321 293.25C748.233 292.105 749.399 290.018 749.399 287.729V252.046C749.399 249.757 748.233 247.67 746.321 246.525L716.546 228.684C715.606 228.112 714.537 227.842 713.468 227.842H713.5Z" fill="#808080" fill-opacity="0.3"/>
<path d="M693.801 301.194L696.555 293.384L702.063 298.131L696.911 303.046L693.801 301.194Z" fill="#808080" fill-opacity="0.3"/>
<path d="M710.973 249.521H703.424C702.873 249.521 702.354 249.891 702.16 250.43L685.992 296.481L693.801 301.16L711.621 250.43C711.783 249.959 711.459 249.487 711.005 249.487L710.973 249.521Z" fill="white" fill-opacity="0.3"/>
<path d="M724.192 249.521H716.643C716.092 249.521 715.574 249.891 715.379 250.43L696.911 303.012L704.72 307.691L724.808 250.43C724.97 249.959 724.646 249.487 724.192 249.487V249.521Z" fill="white" fill-opacity="0.3"/>
<path d="M340.322 25.5839V58.5738C340.322 60.6945 341.392 62.6133 343.174 63.6906L370.681 80.1855C372.431 81.2291 374.602 81.2291 376.351 80.1855L403.859 63.6906C405.608 62.647 406.71 60.6945 406.71 58.5738V25.5839C406.71 23.4631 405.641 21.5443 403.859 20.4671L376.351 3.97212C374.602 2.92856 372.431 2.92856 370.681 3.97212L343.174 20.4671C341.424 21.5106 340.355 23.4631 340.355 25.5839H340.322Z" fill="#213147"/>
<path d="M379.494 48.475L375.574 59.6511C375.476 59.9541 375.476 60.2907 375.574 60.6274L382.313 79.849L390.121 75.1698L380.758 48.475C380.531 47.869 379.721 47.869 379.494 48.475Z" fill="#12AAFF"/>
<path d="M387.367 29.6908C387.14 29.0848 386.33 29.0848 386.104 29.6908L382.183 40.867C382.086 41.1699 382.086 41.5066 382.183 41.8432L393.232 73.3182L401.04 68.6391L387.367 29.7244V29.6908Z" fill="#12AAFF"/>
<path d="M373.5 5.21779C373.694 5.21779 373.889 5.28512 374.051 5.38611L403.794 23.2276C404.15 23.4296 404.345 23.8335 404.345 24.2375V59.9204C404.345 60.3244 404.118 60.7283 403.794 60.9303L374.051 78.7718C373.889 78.8728 373.694 78.9401 373.5 78.9401C373.306 78.9401 373.111 78.8728 372.949 78.7718L343.206 60.9303C342.85 60.7283 342.655 60.3244 342.655 59.9204V24.2038C342.655 23.7999 342.882 23.3959 343.206 23.1939L372.949 5.35244C373.111 5.25145 373.306 5.18413 373.5 5.18413V5.21779ZM373.5 0C372.431 0 371.394 0.269305 370.422 0.841579L340.679 18.6831C338.767 19.8276 337.601 21.9147 337.601 24.2038V59.8868C337.601 62.1759 338.767 64.263 340.679 65.4075L370.422 83.249C371.362 83.8213 372.431 84.0906 373.5 84.0906C374.569 84.0906 375.606 83.8213 376.578 83.249L406.321 65.4075C408.233 64.263 409.399 62.1759 409.399 59.8868V24.2038C409.399 21.9147 408.233 19.8276 406.321 18.6831L376.546 0.841579C375.606 0.269305 374.537 0 373.468 0H373.5Z" fill="#9DCCED"/>
<path d="M353.801 73.3523L356.555 65.5425L362.063 70.289L356.911 75.2038L353.801 73.3523Z" fill="#213147"/>
<path d="M370.973 21.6792H363.424C362.873 21.6792 362.354 22.0495 362.16 22.5881L345.992 68.6393L353.801 73.3184L371.621 22.5881C371.783 22.1168 371.459 21.6455 371.005 21.6455L370.973 21.6792Z" fill="white"/>
<path d="M384.192 21.6792H376.643C376.092 21.6792 375.574 22.0495 375.379 22.5881L356.911 75.1699L364.72 79.8491L384.808 22.5881C384.97 22.1168 384.646 21.6455 384.192 21.6455V21.6792Z" fill="white"/>
<path d="M452.322 27.6366V60.6265C452.322 62.7473 453.392 64.6661 455.174 65.7433L482.681 82.2382C484.431 83.2818 486.602 83.2818 488.351 82.2382L515.859 65.7433C517.608 64.6997 518.71 62.7473 518.71 60.6265V27.6366C518.71 25.5158 517.641 23.597 515.859 22.5198L488.351 6.02486C486.602 4.9813 484.431 4.9813 482.681 6.02486L455.174 22.5198C453.424 23.5634 452.355 25.5158 452.355 27.6366H452.322Z" fill="#808080" fill-opacity="0.3"/>
<path d="M491.494 50.5272L487.574 61.7034C487.476 62.0063 487.476 62.343 487.574 62.6796L494.313 81.9013L502.121 77.2221L492.758 50.5272C492.531 49.9213 491.721 49.9213 491.494 50.5272Z" fill="white" fill-opacity="0.3"/>
<path d="M499.367 31.7435C499.14 31.1376 498.33 31.1376 498.104 31.7435L494.183 42.9197C494.086 43.2227 494.086 43.5593 494.183 43.8959L505.232 75.371L513.04 70.6918L499.367 31.7772V31.7435Z" fill="white" fill-opacity="0.3"/>
<path d="M485.5 7.27052C485.694 7.27052 485.889 7.33785 486.051 7.43884L515.794 25.2803C516.15 25.4823 516.345 25.8862 516.345 26.2902V61.9732C516.345 62.3771 516.118 62.7811 515.794 62.983L486.051 80.8245C485.889 80.9255 485.694 80.9928 485.5 80.9928C485.306 80.9928 485.111 80.9255 484.949 80.8245L455.206 62.983C454.85 62.7811 454.655 62.3771 454.655 61.9732V26.2565C454.655 25.8526 454.882 25.4486 455.206 25.2466L484.949 7.40518C485.111 7.30419 485.306 7.23686 485.5 7.23686V7.27052ZM485.5 2.05273C484.431 2.05273 483.394 2.32204 482.422 2.89431L452.679 20.7358C450.767 21.8803 449.601 23.9674 449.601 26.2565V61.9395C449.601 64.2286 450.767 66.3157 452.679 67.4602L482.422 85.3017C483.362 85.874 484.431 86.1433 485.5 86.1433C486.569 86.1433 487.606 85.874 488.578 85.3017L518.321 67.4602C520.233 66.3157 521.399 64.2286 521.399 61.9395V26.2565C521.399 23.9674 520.233 21.8803 518.321 20.7358L488.546 2.89431C487.606 2.32204 486.537 2.05273 485.468 2.05273H485.5Z" fill="#808080" fill-opacity="0.3"/>
<path d="M465.801 75.4051L468.555 67.5952L474.063 72.3417L468.911 77.2565L465.801 75.4051Z" fill="#808080" fill-opacity="0.3"/>
<path d="M482.973 23.7314H475.424C474.873 23.7314 474.354 24.1017 474.16 24.6403L457.992 70.6915L465.801 75.3707L483.621 24.6403C483.783 24.169 483.459 23.6978 483.005 23.6978L482.973 23.7314Z" fill="white" fill-opacity="0.3"/>
<path d="M496.192 23.7314H488.643C488.092 23.7314 487.574 24.1017 487.379 24.6403L468.911 77.2222L476.72 81.9014L496.808 24.6403C496.97 24.169 496.646 23.6978 496.192 23.6978V23.7314Z" fill="white" fill-opacity="0.3"/>
<path d="M67.3224 166.189V199.179C67.3224 201.3 68.3916 203.219 70.1736 204.296L97.6812 220.791C99.4308 221.835 101.602 221.835 103.351 220.791L130.859 204.296C132.608 203.252 133.71 201.3 133.71 199.179V166.189C133.71 164.069 132.641 162.15 130.859 161.073L103.351 144.578C101.602 143.534 99.4308 143.534 97.6812 144.578L70.1736 161.073C68.424 162.116 67.3548 164.069 67.3548 166.189H67.3224Z" fill="#808080" fill-opacity="0.3"/>
<path d="M106.494 189.08L102.574 200.256C102.476 200.559 102.476 200.896 102.574 201.232L109.313 220.454L117.121 215.775L107.758 189.08C107.531 188.474 106.721 188.474 106.494 189.08Z" fill="white" fill-opacity="0.3"/>
<path d="M114.367 170.296C114.14 169.69 113.33 169.69 113.104 170.296L109.183 181.472C109.086 181.775 109.086 182.112 109.183 182.449L120.232 213.924L128.04 209.245L114.367 170.33V170.296Z" fill="white" fill-opacity="0.3"/>
<path d="M100.5 145.823C100.694 145.823 100.889 145.891 101.051 145.992L130.794 163.833C131.15 164.035 131.345 164.439 131.345 164.843V200.526C131.345 200.93 131.118 201.334 130.794 201.536L101.051 219.377C100.889 219.478 100.694 219.546 100.5 219.546C100.306 219.546 100.111 219.478 99.9492 219.377L70.206 201.536C69.8496 201.334 69.6552 200.93 69.6552 200.526V164.809C69.6552 164.405 69.882 164.001 70.206 163.799L99.9492 145.958C100.111 145.857 100.306 145.79 100.5 145.79V145.823ZM100.5 140.605C99.4308 140.605 98.394 140.875 97.422 141.447L67.6788 159.289C65.7672 160.433 64.6008 162.52 64.6008 164.809V200.492C64.6008 202.781 65.7672 204.868 67.6788 206.013L97.422 223.854C98.3616 224.427 99.4308 224.696 100.5 224.696C101.569 224.696 102.606 224.427 103.578 223.854L133.321 206.013C135.233 204.868 136.399 202.781 136.399 200.492V164.809C136.399 162.52 135.233 160.433 133.321 159.289L103.546 141.447C102.606 140.875 101.537 140.605 100.468 140.605H100.5Z" fill="#808080" fill-opacity="0.3"/>
<path d="M80.8008 213.957L83.5548 206.147L89.0628 210.894L83.9112 215.809L80.8008 213.957Z" fill="#808080" fill-opacity="0.3"/>
<path d="M97.9728 162.284H90.4236C89.8728 162.284 89.3544 162.654 89.16 163.193L72.9924 209.244L80.8008 213.923L98.6208 163.193C98.7828 162.722 98.4588 162.25 98.0052 162.25L97.9728 162.284Z" fill="white" fill-opacity="0.3"/>
<path d="M111.192 162.284H103.643C103.092 162.284 102.574 162.654 102.379 163.193L83.9112 215.775L91.7196 220.454L111.808 163.193C111.97 162.722 111.646 162.25 111.192 162.25V162.284Z" fill="white" fill-opacity="0.3"/>
<path d="M7.32239 244.189V277.179C7.32239 279.3 8.39159 281.219 10.1736 282.296L37.6812 298.791C39.4308 299.835 41.6016 299.835 43.3512 298.791L70.8588 282.296C72.6084 281.252 73.71 279.3 73.71 277.179V244.189C73.71 242.069 72.6408 240.15 70.8588 239.073L43.3512 222.578C41.6016 221.534 39.4308 221.534 37.6812 222.578L10.1736 239.073C8.42399 240.116 7.35479 242.069 7.35479 244.189H7.32239Z" fill="#808080" fill-opacity="0.3"/>
<path d="M46.494 267.08L42.5736 278.256C42.4764 278.559 42.4764 278.896 42.5736 279.232L49.3128 298.454L57.1212 293.775L47.7576 267.08C47.5308 266.474 46.7208 266.474 46.494 267.08Z" fill="white" fill-opacity="0.3"/>
<path d="M54.3672 248.296C54.1404 247.69 53.3304 247.69 53.1036 248.296L49.1832 259.472C49.086 259.775 49.086 260.112 49.1832 260.449L60.2316 291.924L68.04 287.245L54.3672 248.33V248.296Z" fill="white" fill-opacity="0.3"/>
<path d="M40.5 223.823C40.6944 223.823 40.8888 223.891 41.0508 223.992L70.794 241.833C71.1504 242.035 71.3448 242.439 71.3448 242.843V278.526C71.3448 278.93 71.118 279.334 70.794 279.536L41.0508 297.377C40.8888 297.478 40.6944 297.546 40.5 297.546C40.3056 297.546 40.1112 297.478 39.9492 297.377L10.206 279.536C9.8496 279.334 9.6552 278.93 9.6552 278.526V242.809C9.6552 242.405 9.882 242.001 10.206 241.799L39.9492 223.958C40.1112 223.857 40.3056 223.79 40.5 223.79V223.823ZM40.5 218.605C39.4308 218.605 38.394 218.875 37.422 219.447L7.6788 237.289C5.7672 238.433 4.6008 240.52 4.6008 242.809V278.492C4.6008 280.781 5.7672 282.868 7.6788 284.013L37.422 301.854C38.3616 302.427 39.4308 302.696 40.5 302.696C41.5692 302.696 42.606 302.427 43.578 301.854L73.3212 284.013C75.2328 282.868 76.3992 280.781 76.3992 278.492V242.809C76.3992 240.52 75.2328 238.433 73.3212 237.289L43.5456 219.447C42.606 218.875 41.5368 218.605 40.4676 218.605H40.5Z" fill="#808080" fill-opacity="0.3"/>
<path d="M20.8008 291.957L23.5548 284.147L29.0628 288.894L23.9112 293.809L20.8008 291.957Z" fill="#808080" fill-opacity="0.3"/>
<path d="M37.9728 240.284H30.4236C29.8728 240.284 29.3544 240.654 29.16 241.193L12.9924 287.244L20.8008 291.923L38.6208 241.193C38.7828 240.722 38.4588 240.25 38.0052 240.25L37.9728 240.284Z" fill="white" fill-opacity="0.3"/>
<path d="M51.192 240.284H43.6428C43.092 240.284 42.5736 240.654 42.3792 241.193L23.9112 293.775L31.7196 298.454L51.8076 241.193C51.9696 240.722 51.6456 240.25 51.192 240.25V240.284Z" fill="white" fill-opacity="0.3"/>
<path d="M228.322 30.7157V63.7056C228.322 65.8264 229.392 67.7452 231.174 68.8224L258.681 85.3173C260.431 86.3609 262.602 86.3609 264.351 85.3173L291.859 68.8224C293.608 67.7788 294.71 65.8264 294.71 63.7056V30.7157C294.71 28.5949 293.641 26.6761 291.859 25.5989L264.351 9.10396C262.602 8.0604 260.431 8.0604 258.681 9.10396L231.174 25.5989C229.424 26.6425 228.355 28.5949 228.355 30.7157H228.322Z" fill="#808080" fill-opacity="0.3"/>
<path d="M267.494 53.6063L263.574 64.7825C263.476 65.0854 263.476 65.4221 263.574 65.7587L270.313 84.9804L278.121 80.3012L268.758 53.6063C268.531 53.0004 267.721 53.0004 267.494 53.6063Z" fill="white" fill-opacity="0.3"/>
<path d="M275.367 34.8226C275.14 34.2167 274.33 34.2167 274.104 34.8226L270.183 45.9988C270.086 46.3018 270.086 46.6384 270.183 46.975L281.232 78.4501L289.04 73.7709L275.367 34.8563V34.8226Z" fill="white" fill-opacity="0.3"/>
<path d="M261.5 10.3491C261.694 10.3491 261.889 10.4165 262.051 10.5175L291.794 28.3589C292.15 28.5609 292.345 28.9649 292.345 29.3688V65.0518C292.345 65.4557 292.118 65.8597 291.794 66.0617L262.051 83.9031C261.889 84.0041 261.694 84.0715 261.5 84.0715C261.306 84.0715 261.111 84.0041 260.949 83.9031L231.206 66.0617C230.85 65.8597 230.655 65.4557 230.655 65.0518V29.3352C230.655 28.9312 230.882 28.5272 231.206 28.3253L260.949 10.4838C261.111 10.3828 261.306 10.3155 261.5 10.3155V10.3491ZM261.5 5.13135C260.431 5.13135 259.394 5.40065 258.422 5.97293L228.679 23.8144C226.767 24.9589 225.601 27.0461 225.601 29.3352V65.0181C225.601 67.3072 226.767 69.3943 228.679 70.5389L258.422 88.3803C259.362 88.9526 260.431 89.2219 261.5 89.2219C262.569 89.2219 263.606 88.9526 264.578 88.3803L294.321 70.5389C296.233 69.3943 297.399 67.3072 297.399 65.0181V29.3352C297.399 27.0461 296.233 24.9589 294.321 23.8144L264.546 5.97293C263.606 5.40065 262.537 5.13135 261.468 5.13135H261.5Z" fill="#808080" fill-opacity="0.3"/>
<path d="M241.801 78.4837L244.555 70.6738L250.063 75.4203L244.911 80.3352L241.801 78.4837Z" fill="#808080" fill-opacity="0.3"/>
<path d="M258.973 26.8105H251.424C250.873 26.8105 250.354 27.1808 250.16 27.7194L233.992 73.7706L241.801 78.4498L259.621 27.7194C259.783 27.2481 259.459 26.7769 259.005 26.7769L258.973 26.8105Z" fill="white" fill-opacity="0.3"/>
<path d="M272.192 26.8105H264.643C264.092 26.8105 263.574 27.1808 263.379 27.7194L244.911 80.3013L252.72 84.9805L272.808 27.7194C272.97 27.2481 272.646 26.7769 272.192 26.7769V26.8105Z" fill="white" fill-opacity="0.3"/>
<path d="M127.322 82.0316V115.022C127.322 117.142 128.392 119.061 130.174 120.138L157.681 136.633C159.431 137.677 161.602 137.677 163.351 136.633L190.859 120.138C192.608 119.095 193.71 117.142 193.71 115.022V82.0316C193.71 79.9108 192.641 77.992 190.859 76.9148L163.351 60.4199C161.602 59.3763 159.431 59.3763 157.681 60.4199L130.174 76.9148C128.424 77.9584 127.355 79.9108 127.355 82.0316H127.322Z" fill="#808080" fill-opacity="0.3"/>
<path d="M166.494 104.923L162.574 116.099C162.476 116.402 162.476 116.738 162.574 117.075L169.313 136.297L177.121 131.618L167.758 104.923C167.531 104.317 166.721 104.317 166.494 104.923Z" fill="white" fill-opacity="0.3"/>
<path d="M174.367 86.139C174.14 85.5331 173.33 85.5331 173.104 86.139L169.183 97.3152C169.086 97.6182 169.086 97.9548 169.183 98.2914L180.232 129.766L188.04 125.087L174.367 86.1727V86.139Z" fill="white" fill-opacity="0.3"/>
<path d="M160.5 61.6651C160.694 61.6651 160.889 61.7324 161.051 61.8334L190.794 79.6748C191.15 79.8768 191.345 80.2808 191.345 80.6847V116.368C191.345 116.772 191.118 117.176 190.794 117.378L161.051 135.219C160.889 135.32 160.694 135.387 160.5 135.387C160.306 135.387 160.111 135.32 159.949 135.219L130.206 117.378C129.85 117.176 129.655 116.772 129.655 116.368V80.6511C129.655 80.2471 129.882 79.8432 130.206 79.6412L159.949 61.7997C160.111 61.6987 160.306 61.6314 160.5 61.6314V61.6651ZM160.5 56.4473C159.431 56.4473 158.394 56.7166 157.422 57.2888L127.679 75.1303C125.767 76.2749 124.601 78.362 124.601 80.6511V116.334C124.601 118.623 125.767 120.71 127.679 121.855L157.422 139.696C158.362 140.269 159.431 140.538 160.5 140.538C161.569 140.538 162.606 140.269 163.578 139.696L193.321 121.855C195.233 120.71 196.399 118.623 196.399 116.334V80.6511C196.399 78.362 195.233 76.2749 193.321 75.1303L163.546 57.2888C162.606 56.7166 161.537 56.4473 160.468 56.4473H160.5Z" fill="#808080" fill-opacity="0.3"/>
<path d="M140.801 129.8L143.555 121.99L149.063 126.736L143.911 131.651L140.801 129.8Z" fill="#808080" fill-opacity="0.3"/>
<path d="M157.973 78.1264H150.424C149.873 78.1264 149.354 78.4967 149.16 79.0353L132.992 125.087L140.801 129.766L158.621 79.0353C158.783 78.5641 158.459 78.0928 158.005 78.0928L157.973 78.1264Z" fill="white" fill-opacity="0.3"/>
<path d="M171.192 78.1264H163.643C163.092 78.1264 162.574 78.4967 162.379 79.0353L143.911 131.617L151.72 136.296L171.808 79.0353C171.97 78.5641 171.646 78.0928 171.192 78.0928V78.1264Z" fill="white" fill-opacity="0.3"/>
<path d="M558.322 85.1102V118.1C558.322 120.221 559.392 122.14 561.174 123.217L588.681 139.712C590.431 140.755 592.602 140.755 594.351 139.712L621.859 123.217C623.608 122.173 624.71 120.221 624.71 118.1V85.1102C624.71 82.9895 623.641 81.0707 621.859 79.9934L594.351 63.4985C592.602 62.4549 590.431 62.4549 588.681 63.4985L561.174 79.9934C559.424 81.037 558.355 82.9895 558.355 85.1102H558.322Z" fill="#808080" fill-opacity="0.3"/>
<path d="M597.494 108.001L593.574 119.177C593.476 119.48 593.476 119.817 593.574 120.154L600.313 139.375L608.121 134.696L598.758 108.001C598.531 107.395 597.721 107.395 597.494 108.001Z" fill="white" fill-opacity="0.3"/>
<path d="M605.367 89.2171C605.14 88.6112 604.33 88.6112 604.104 89.2171L600.183 100.393C600.086 100.696 600.086 101.033 600.183 101.37L611.232 132.845L619.04 128.165L605.367 89.2508V89.2171Z" fill="white" fill-opacity="0.3"/>
<path d="M591.5 64.7442C591.694 64.7442 591.889 64.8115 592.051 64.9125L621.794 82.7539C622.15 82.9559 622.345 83.3599 622.345 83.7638V119.447C622.345 119.851 622.118 120.255 621.794 120.457L592.051 138.298C591.889 138.399 591.694 138.466 591.5 138.466C591.306 138.466 591.111 138.399 590.949 138.298L561.206 120.457C560.85 120.255 560.655 119.851 560.655 119.447V83.7302C560.655 83.3262 560.882 82.9223 561.206 82.7203L590.949 64.8788C591.111 64.7778 591.306 64.7105 591.5 64.7105V64.7442ZM591.5 59.5264C590.431 59.5264 589.394 59.7957 588.422 60.3679L558.679 78.2094C556.767 79.354 555.601 81.4411 555.601 83.7302V119.413C555.601 121.702 556.767 123.789 558.679 124.934L588.422 142.775C589.362 143.348 590.431 143.617 591.5 143.617C592.569 143.617 593.606 143.348 594.578 142.775L624.321 124.934C626.233 123.789 627.399 121.702 627.399 119.413V83.7302C627.399 81.4411 626.233 79.354 624.321 78.2094L594.546 60.3679C593.606 59.7957 592.537 59.5264 591.468 59.5264H591.5Z" fill="#808080" fill-opacity="0.3"/>
<path d="M571.801 132.879L574.555 125.069L580.063 129.815L574.911 134.73L571.801 132.879Z" fill="#808080" fill-opacity="0.3"/>
<path d="M588.973 81.2055H581.424C580.873 81.2055 580.354 81.5758 580.16 82.1144L563.992 128.166L571.801 132.845L589.621 82.1144C589.783 81.6432 589.459 81.1719 589.005 81.1719L588.973 81.2055Z" fill="white" fill-opacity="0.3"/>
<path d="M602.192 81.2055H594.643C594.092 81.2055 593.574 81.5758 593.379 82.1144L574.911 134.696L582.72 139.375L602.808 82.1144C602.97 81.6432 602.646 81.1719 602.192 81.1719V81.2055Z" fill="white" fill-opacity="0.3"/>
</svg>
