<svg width="11" height="11" viewBox="0 0 11 11" fill="none" xmlns="http://www.w3.org/2000/svg">
<path d="M5.43606 7.53032C6.60213 7.53032 7.5474 6.58504 7.5474 5.41897C7.5474 4.2529 6.60213 3.30762 5.43606 3.30762C4.26999 3.30762 3.32471 4.2529 3.32471 5.41897C3.32471 6.58504 4.26999 7.53032 5.43606 7.53032Z" fill="#F1EAE1"/>
<path d="M5.43606 7.53032C6.60213 7.53032 7.5474 6.58504 7.5474 5.41897C7.5474 4.2529 6.60213 3.30762 5.43606 3.30762C4.26999 3.30762 3.32471 4.2529 3.32471 5.41897C3.32471 6.58504 4.26999 7.53032 5.43606 7.53032Z" fill="#F1EAE1"/>
<path d="M5.43606 9.91313C7.91812 9.91313 9.93022 7.90102 9.93022 5.41897C9.93022 2.93691 7.91812 0.924805 5.43606 0.924805C2.954 0.924805 0.941895 2.93691 0.941895 5.41897C0.941895 7.90102 2.954 9.91313 5.43606 9.91313Z" stroke="#F1EAE1" stroke-width="0.75" stroke-miterlimit="10"/>
</svg>
