<svg width="180" height="180" viewBox="0 0 180 180" fill="none" xmlns="http://www.w3.org/2000/svg">
<path d="M112.625 90C112.625 121.276 87.4939 146.625 56.5 146.625C25.5062 146.625 0.375031 121.276 0.375031 90C0.375031 58.7238 25.5062 33.375 56.5 33.375C87.4939 33.375 112.625 58.7238 112.625 90Z" stroke="#F1EAE1" stroke-width="0.75"/>
<path d="M179.625 90C179.625 121.276 154.494 146.625 123.5 146.625C92.5062 146.625 67.375 121.276 67.375 90C67.375 58.7238 92.5062 33.375 123.5 33.375C154.494 33.375 179.625 58.7238 179.625 90Z" stroke="#F1EAE1" stroke-width="0.75"/>
<path d="M90 112.625C58.7238 112.625 33.375 87.4939 33.375 56.5C33.375 25.5061 58.7238 0.374996 90 0.374998C121.276 0.374999 146.625 25.5061 146.625 56.5C146.625 87.4939 121.276 112.625 90 112.625Z" stroke="#F1EAE1" stroke-width="0.75"/>
<path d="M90 179.625C58.7238 179.625 33.375 154.494 33.375 123.5C33.375 92.5061 58.7238 67.375 90 67.375C121.276 67.375 146.625 92.5061 146.625 123.5C146.625 154.494 121.276 179.625 90 179.625Z" stroke="#F1EAE1" stroke-width="0.75"/>
</svg>
