<svg width="272" height="146" viewBox="0 0 272 146" fill="none" xmlns="http://www.w3.org/2000/svg">
<mask id="mask0_388_21" style="mask-type:alpha" maskUnits="userSpaceOnUse" x="0" y="0" width="272" height="146">
<path d="M272 0H0V146H272V0Z" fill="#D9D9D9"/>
</mask>
<g mask="url(#mask0_388_21)">
<path d="M197.112 73C197.112 113.129 166.814 145.625 129.48 145.625C92.1455 145.625 61.8477 113.129 61.8477 73C61.8477 32.8714 92.1455 0.375 129.48 0.375C166.814 0.375 197.112 32.8714 197.112 73Z" stroke="#F1EAE1" stroke-width="0.75"/>
<path d="M83.4674 73C83.4674 113.129 53.1695 145.625 15.8356 145.625C-21.4983 145.625 -51.7962 113.129 -51.7962 73C-51.7962 32.8714 -21.4983 0.375 15.8356 0.375C53.1695 0.375 83.4674 32.8714 83.4674 73Z" stroke="#F1EAE1" stroke-width="0.75"/>
<path d="M315.413 73C315.413 113.129 285.115 145.625 247.781 145.625C210.446 145.625 180.149 113.129 180.149 73C180.149 32.8714 210.446 0.375 247.781 0.375C285.115 0.375 315.413 32.8714 315.413 73Z" stroke="#F1EAE1" stroke-width="0.75"/>
</g>
</svg>
