<svg width="285" height="146" viewBox="0 0 285 146" fill="none" xmlns="http://www.w3.org/2000/svg">
<mask id="mask0_333_8" style="mask-type:alpha" maskUnits="userSpaceOnUse" x="4" y="0" width="277" height="146">
<rect x="4" width="277" height="146" fill="#D9D9D9"/>
</mask>
<g mask="url(#mask0_333_8)">
<path d="M204.735 73C204.735 113.129 173.88 145.625 135.86 145.625C97.8394 145.625 66.9846 113.129 66.9846 73C66.9846 32.8714 97.8394 0.375 135.86 0.375C173.88 0.375 204.735 32.8714 204.735 73Z" stroke="#F1EAE1" stroke-width="0.75"/>
<path d="M89.0017 73C89.0017 113.129 58.1469 145.625 20.1267 145.625C-17.8935 145.625 -48.7483 113.129 -48.7483 73C-48.7483 32.8714 -17.8935 0.375 20.1267 0.375C58.1469 0.375 89.0017 32.8714 89.0017 73Z" stroke="#F1EAE1" stroke-width="0.75"/>
<path d="M325.211 73C325.211 113.129 294.356 145.625 256.336 145.625C218.315 145.625 187.461 113.129 187.461 73C187.461 32.8714 218.315 0.375 256.336 0.375C294.356 0.375 325.211 32.8714 325.211 73Z" stroke="#F1EAE1" stroke-width="0.75"/>
</g>
</svg>
