<svg width="18" height="14" viewBox="0 0 18 14" fill="none" xmlns="http://www.w3.org/2000/svg">
<path d="M2.03595 8.85217C3.16038 8.85217 4.0719 7.94064 4.0719 6.81622C4.0719 5.6918 3.16038 4.78027 2.03595 4.78027C0.911533 4.78027 0 5.6918 0 6.81622C0 7.94064 0.911533 8.85217 2.03595 8.85217Z" fill="#F1EAE1"/>
<path d="M8.58135 13.6334C9.70578 13.6334 10.6173 12.7219 10.6173 11.5975C10.6173 10.473 9.70578 9.56152 8.58135 9.56152C7.45693 9.56152 6.54541 10.473 6.54541 11.5975C6.54541 12.7219 7.45693 13.6334 8.58135 13.6334Z" fill="#F1EAE1"/>
<path d="M15.0208 4.07189C16.1452 4.07189 17.0568 3.16037 17.0568 2.03595C17.0568 0.911524 16.1452 0 15.0208 0C13.8964 0 12.9849 0.911524 12.9849 2.03595C12.9849 3.16037 13.8964 4.07189 15.0208 4.07189Z" fill="#F1EAE1"/>
<path d="M2.03613 6.81586L8.58132 11.5966L15.0209 2.03516" stroke="#F1EAE1" stroke-width="0.75" stroke-miterlimit="10"/>
</svg>
