<svg width="17" height="11" viewBox="0 0 17 11" fill="none" xmlns="http://www.w3.org/2000/svg">
<path d="M7.28881 9.62638C6.73081 9.86767 6.12757 10.0034 5.49416 10.0034C3.00578 10.0034 1 7.98254 1 5.50924C1 3.03595 3.00578 1 5.49416 1C7.98254 1 9.98832 3.02086 9.98832 5.49416C9.98832 6.42919 9.70178 7.28881 9.21919 8.0127" stroke="#F1EAE1" stroke-width="0.75" stroke-miterlimit="10"/>
<path d="M9.40015 1.43735C9.98832 1.16589 10.6368 1 11.3155 1C13.8038 1 15.8096 3.02086 15.8096 5.49416C15.8096 7.96746 13.7887 9.98832 11.3155 9.98832C8.84215 9.98832 6.82129 7.96746 6.82129 5.49416C6.82129 4.49881 7.15307 3.57886 7.69599 2.82481" stroke="#F1EAE1" stroke-width="0.75" stroke-miterlimit="10"/>
</svg>
