<svg width="100" height="92" viewBox="0 0 100 92" fill="none" xmlns="http://www.w3.org/2000/svg">
<path d="M49.9999 66.8762C54.0517 74.1772 56.3608 82.5832 56.3608 91.528H43.6409C43.6409 82.5832 45.9481 74.1772 50.0017 66.8762H49.9999Z" fill="#F1EAE1"/>
<path d="M6.37003 40.6575C11.1036 40.7363 15.6814 41.4638 20.0154 42.7539C17.6184 46.4044 15.4853 50.24 13.6399 54.2405C11.0101 53.6706 8.27958 53.3682 5.4794 53.3682C3.61934 53.3682 1.78859 53.5002 0 53.7604C1.81425 49.2211 3.94554 44.8467 6.37003 40.6593V40.6575Z" fill="#F1EAE1"/>
<path d="M24.5747 17.6166C29.3119 18.8352 33.8677 20.4992 38.1999 22.559C34.6264 25.4802 31.2819 28.6743 28.2069 32.1086H28.205C23.8673 30.4464 19.3042 29.2498 14.5688 28.5717C17.6347 24.6793 20.9792 21.0178 24.5747 17.6147V17.6166Z" fill="#F1EAE1"/>
<path d="M63.6161 8.00103C58.8734 9.75297 54.3231 11.9007 50.0001 14.4022C45.677 11.9007 41.1267 9.7548 36.384 8.00103C40.6906 4.99377 45.2427 2.31821 50.0001 0C54.7574 2.31821 59.3077 4.99377 63.6161 8.00103Z" fill="#F1EAE1"/>
<path d="M31.83 47.9934C35.486 50.2127 38.8396 52.8772 41.8157 55.9156C39.2904 59.6504 37.1481 63.6674 35.4512 67.9098C32.6748 64.3858 29.29 61.3694 25.4563 59.0109C27.2779 55.1496 29.4128 51.4661 31.8318 47.9934H31.83Z" fill="#F1EAE1"/>
<path d="M50 29.5338C53.5735 32.1013 56.9143 34.9729 59.9875 38.1103C56.392 40.4413 53.0476 43.1224 50 46.1095C46.9524 43.1224 43.6061 40.4413 40.0125 38.1103C43.0857 34.9729 46.4283 32.1013 50 29.5338Z" fill="#F1EAE1"/>
<path d="M85.4292 28.5735C80.6956 29.2498 76.1288 30.4483 71.7911 32.1104C68.7161 28.6762 65.3735 25.4802 61.7981 22.5609C66.1303 20.5011 70.6861 18.8371 75.4233 17.6184C79.0188 21.0215 82.3633 24.683 85.4292 28.5754V28.5735Z" fill="#F1EAE1"/>
<path d="M68.1682 47.9934C70.5872 51.4661 72.7221 55.1496 74.5437 59.0109C70.71 61.3694 67.3234 64.3858 64.5489 67.9098C62.8519 63.6656 60.7096 59.6486 58.1843 55.9156C61.1604 52.8772 64.514 50.2127 68.17 47.9934H68.1682Z" fill="#F1EAE1"/>
<path d="M100 53.7604C98.2114 53.5002 96.3807 53.3682 94.5206 53.3682C91.7204 53.3682 88.9899 53.6706 86.3602 54.2405C84.5166 50.2418 82.3816 46.4044 79.9846 42.7539C84.3205 41.4638 88.8964 40.7363 93.63 40.6575C96.0545 44.8449 98.1858 49.2211 100 53.7586V53.7604Z" fill="#F1EAE1"/>
</svg>
