<svg width="177" height="37" viewBox="0 0 177 37" fill="none" xmlns="http://www.w3.org/2000/svg">
<path d="M105.637 6.37137C104.958 6.37137 104.383 6.13541 103.926 5.66349C103.454 5.19157 103.218 4.63116 103.218 3.95278C103.218 3.27439 103.454 2.71398 103.926 2.24206C104.398 1.77014 104.958 1.53418 105.637 1.53418C106.315 1.53418 106.875 1.77014 107.347 2.24206C107.819 2.71398 108.055 3.28914 108.055 3.95278C108.055 4.61642 107.819 5.20632 107.347 5.66349C106.89 6.13541 106.315 6.37137 105.637 6.37137Z" fill="#F1EAE1"/>
<path d="M81.893 10.5449H78.3831V32.5188H81.893V10.5449Z" fill="#F1EAE1"/>
<path d="M104.103 10.5449H107.613V32.5188H104.103V10.5449Z" fill="#F1EAE1"/>
<path d="M111.786 29.2301L124.971 13.8926V13.8484H112.229V10.5449H129.587V13.8484L116.402 29.1858V29.2301H130.029V32.5335H111.786V29.2301Z" fill="#F1EAE1"/>
<path d="M92.4525 29.2301V13.8336H99.4871V10.5449H86.0815V13.8336H88.9278V32.5188H99.7083V29.2301H92.4525Z" fill="#F1EAE1"/>
<path d="M57.5598 4.39525L58.0759 0.0889662H59.3442L58.3561 7.25627H57.1026L56.4242 3.02373L55.7753 7.24152H54.5218L53.5337 0.0742188H54.802L55.3181 4.35101L55.9228 0.0742188H56.9109L57.5598 4.39525Z" fill="#F1EAE1"/>
<path d="M70.7441 4.11495H67.8094V6.13536H71.2455V7.25617H66.4231V0.0888672H71.2308V1.20968H67.8094V3.00888H70.7441V4.11495Z" fill="#F1EAE1"/>
<path d="M78.6194 7.24143V0.0888672H81.0232C81.4067 0.0888672 81.7754 0.13311 82.0851 0.206848C82.4095 0.280585 82.675 0.398566 82.9109 0.560789C83.1321 0.723012 83.3091 0.929477 83.4418 1.16544C83.5598 1.41615 83.6335 1.69635 83.6335 2.03554C83.6335 2.37474 83.5451 2.66969 83.3681 2.93514C83.1911 3.2006 82.9404 3.40706 82.5865 3.53979C82.7929 3.59878 82.9699 3.67252 83.1174 3.77575C83.2649 3.87899 83.3976 4.01171 83.5008 4.14444C83.6041 4.29192 83.6778 4.43939 83.722 4.61636C83.7663 4.77859 83.7958 4.95556 83.7958 5.14727C83.7958 5.48647 83.7368 5.79617 83.6188 6.06162C83.5008 6.32708 83.3386 6.54829 83.1174 6.72526C82.8962 6.90223 82.6307 7.03496 82.321 7.12344C82.0113 7.21193 81.6574 7.25617 81.2592 7.25617H78.6194V7.24143ZM80.0056 3.08262H81.038C81.4214 3.08262 81.7164 2.99413 81.9228 2.84666C82.1293 2.69918 82.2325 2.46322 82.2325 2.15352C82.2325 1.81433 82.1293 1.57837 81.9228 1.43089C81.7164 1.28342 81.4214 1.20968 81.0232 1.20968H80.0056V3.08262ZM80.0056 4.08545V6.12061H81.2297C81.6131 6.12061 81.8933 6.01738 82.0998 5.84041C82.2915 5.66344 82.3948 5.41273 82.3948 5.11778C82.3948 4.79333 82.3063 4.52788 82.1293 4.35091C81.9523 4.17394 81.6721 4.0707 81.2887 4.0707H80.0056V4.08545Z" fill="#F1EAE1"/>
<path d="M92.349 3.06749H93.0864C93.4551 3.06749 93.7353 2.979 93.9122 2.78729C94.0892 2.59557 94.1777 2.34486 94.1777 2.04991C94.1777 1.90243 94.1629 1.78445 94.1187 1.66647C94.0745 1.54849 94.0155 1.44526 93.927 1.37152C93.8385 1.28304 93.7353 1.22405 93.6173 1.1798C93.4845 1.13556 93.3371 1.10607 93.1749 1.10607C93.0421 1.10607 92.9094 1.12081 92.7914 1.16506C92.6734 1.2093 92.5702 1.26829 92.4817 1.34203C92.3932 1.41576 92.3195 1.50425 92.2605 1.60748C92.2015 1.71071 92.1868 1.8287 92.1868 1.96142H90.8152C90.8152 1.66647 90.8742 1.40102 90.9922 1.16506C91.1102 0.929095 91.2724 0.72263 91.4936 0.545659C91.7001 0.368689 91.9508 0.235961 92.231 0.147475C92.5112 0.0589902 92.8209 0 93.1454 0C93.4993 0 93.8237 0.0442426 94.1187 0.132728C94.4136 0.221213 94.6644 0.353941 94.8708 0.516164C95.0773 0.693134 95.2395 0.8996 95.3575 1.15031C95.4755 1.40102 95.5345 1.69597 95.5345 2.03516C95.5345 2.18264 95.505 2.34486 95.4607 2.49233C95.4165 2.63981 95.3427 2.78729 95.2543 2.92001C95.1658 3.05274 95.0625 3.18547 94.9298 3.2887C94.7971 3.40668 94.6496 3.49517 94.4726 3.58365C94.6791 3.65739 94.8413 3.74588 94.9888 3.86386C95.1363 3.98184 95.2543 4.09982 95.3575 4.24729C95.446 4.39477 95.5197 4.54224 95.564 4.71921C95.6082 4.89618 95.6377 5.07315 95.6377 5.26487C95.6377 5.60407 95.5787 5.89902 95.446 6.16447C95.3132 6.42993 95.1363 6.65114 94.9151 6.82811C94.6939 7.00508 94.4284 7.13781 94.1187 7.24104C93.809 7.34428 93.4846 7.38852 93.1306 7.38852C92.8209 7.38852 92.526 7.34428 92.231 7.25579C91.9361 7.16731 91.6854 7.04933 91.4494 6.87235C91.2282 6.71013 91.0365 6.48892 90.9037 6.23821C90.771 5.9875 90.6973 5.6778 90.6973 5.33861H92.0688C92.0688 5.47134 92.0983 5.60407 92.1425 5.72205C92.2015 5.84003 92.2753 5.94326 92.3637 6.017C92.467 6.10548 92.5702 6.16447 92.7029 6.20872C92.8357 6.25296 92.9831 6.28245 93.1306 6.28245C93.4846 6.28245 93.75 6.19397 93.9417 6.00225C94.1334 5.81053 94.2367 5.57457 94.2367 5.25013C94.2367 5.05841 94.2072 4.89618 94.1482 4.74871C94.0892 4.61598 94.0155 4.498 93.8975 4.40952C93.7943 4.32103 93.6615 4.26204 93.5141 4.2178C93.3666 4.17355 93.1896 4.15881 93.0126 4.15881H92.2753V3.06749H92.349Z" fill="#F1EAE1"/>
<path d="M19.8797 26.752C21.4872 29.6572 22.4016 32.9902 22.4016 36.5443H17.3579C17.3579 32.9902 18.2723 29.6425 19.8797 26.752Z" fill="#F1EAE1"/>
<path d="M2.55132 16.3398C4.43901 16.3693 6.25296 16.6643 7.96367 17.1657C7.00508 18.611 6.16447 20.1447 5.4271 21.7227C4.38002 21.5015 3.30345 21.3688 2.18264 21.3688C1.44526 21.3688 0.72263 21.4277 0 21.531C0.752125 19.7318 1.59273 18.0063 2.55132 16.3398Z" fill="#F1EAE1"/>
<path d="M9.79228 7.19629C11.68 7.68296 13.4792 8.3466 15.2046 9.15771C13.7889 10.3228 12.4616 11.5911 11.2375 12.9478C9.51208 12.2842 7.69813 11.8123 5.8252 11.5468C7.03449 9.99832 8.36177 8.53832 9.79228 7.19629Z" fill="#F1EAE1"/>
<path d="M25.2919 3.37678C23.4042 4.06991 21.605 4.92527 19.8795 5.91335C18.1688 4.92527 16.3549 4.06991 14.4819 3.37678C16.1926 2.18223 17.9918 1.1204 19.8943 0.206055C21.7672 1.1204 23.5812 2.18223 25.2919 3.37678Z" fill="#F1EAE1"/>
<path d="M12.6681 19.2451C14.1133 20.13 15.4554 21.177 16.6352 22.3863C15.6323 23.8758 14.777 25.4686 14.1133 27.1498C13.0073 25.7488 11.6652 24.5542 10.1462 23.6104C10.8541 22.0914 11.7095 20.6314 12.6681 19.2451Z" fill="#F1EAE1"/>
<path d="M19.8797 11.916C21.2955 12.9336 22.6227 14.0692 23.8468 15.3227C22.4163 16.2518 21.089 17.3136 19.8797 18.4934C18.6704 17.3136 17.3431 16.237 15.9126 15.3227C17.1366 14.0839 18.4639 12.9336 19.8797 11.916Z" fill="#F1EAE1"/>
<path d="M33.9488 11.5468C32.0611 11.8123 30.2619 12.2989 28.5364 12.9478C27.3124 11.5911 25.9851 10.3228 24.5693 9.15771C26.2948 8.33185 28.094 7.68296 29.9817 7.19629C31.4122 8.53832 32.7395 9.99832 33.9488 11.5468Z" fill="#F1EAE1"/>
<path d="M27.1059 19.2451C28.0645 20.6314 28.9199 22.0914 29.6425 23.6251C28.1235 24.569 26.7815 25.7635 25.6754 27.1645C24.997 25.4833 24.1564 23.8906 23.1536 22.4011C24.3186 21.1918 25.6459 20.13 27.1059 19.2451Z" fill="#F1EAE1"/>
<path d="M39.7298 21.5456C39.0219 21.4424 38.2845 21.3834 37.5471 21.3834C36.4411 21.3834 35.3498 21.5014 34.3027 21.7373C33.5653 20.1446 32.7247 18.6256 31.7661 17.1804C33.4916 16.6642 35.3055 16.384 37.1785 16.3545C38.1665 18.0062 39.0219 19.7464 39.7298 21.5456Z" fill="#F1EAE1"/>
<path d="M150.41 24.5394C149.319 27.6659 146.532 29.6568 143.272 29.6568C141.399 29.6568 139.674 29.0079 138.347 27.8576L149.776 17.1951L152.357 14.7913C150.337 11.9008 147.018 10.1016 143.272 10.1016C137.123 10.1016 132.123 14.8208 132.123 21.5309C132.123 28.241 137.108 32.9603 143.272 32.9603C148.464 32.9603 152.829 29.6273 154.068 24.5394H150.41ZM135.648 21.5309C135.648 16.7527 139.069 13.405 143.272 13.405C144.939 13.405 146.473 13.9507 147.741 14.8798L136.474 25.38C135.943 24.2592 135.648 22.9762 135.648 21.5309Z" fill="#F1EAE1"/>
<path d="M74.0918 24.8352C72.7645 29.7757 68.473 32.9759 63.3703 32.9759C57.2206 32.9759 52.2212 28.3451 52.2212 21.5465C52.2212 14.7479 57.2059 10.1172 63.3703 10.1172C68.2813 10.1172 72.4548 13.2142 73.9443 17.8154H70.1984C68.9449 15.1461 66.3641 13.4206 63.3851 13.4206C59.1673 13.4206 55.7606 16.7831 55.7606 21.5613C55.7606 26.3395 59.1673 29.7019 63.3851 29.7019C66.5411 29.7019 69.2546 27.829 70.4197 24.8647L74.0918 24.8352Z" fill="#F1EAE1"/>
<path d="M177 19.2155C177 13.405 173.475 10.1016 167.635 10.1016C164.907 10.1016 162.444 11.4141 160.734 13.7V10.544H157.224V32.5326H160.734V21.3244C160.734 15.8384 163.86 13.4198 167.06 13.4198C171.337 13.4198 173.475 15.2042 173.475 20.3216V32.5326H176.985L177 19.2155Z" fill="#F1EAE1"/>
</svg>
