<svg width="163" height="34" viewBox="0 0 163 34" fill="none" xmlns="http://www.w3.org/2000/svg">
<path d="M96.9229 5.84542C96.3005 5.84542 95.7728 5.62892 95.3533 5.19593C94.9204 4.76293 94.7039 4.24875 94.7039 3.62632C94.7039 3.00389 94.9204 2.48971 95.3533 2.05672C95.7863 1.62372 96.3005 1.40723 96.9229 1.40723C97.5454 1.40723 98.0596 1.62372 98.4926 2.05672C98.9256 2.48971 99.142 3.01742 99.142 3.62632C99.142 4.23522 98.9256 4.77646 98.4926 5.19593C98.0731 5.62892 97.5454 5.84542 96.9229 5.84542Z" fill="#F1EAE1"/>
<path d="M75.1381 9.6748H71.9177V29.8361H75.1381V9.6748Z" fill="#F1EAE1"/>
<path d="M95.5159 9.6748H98.7363V29.8361H95.5159V9.6748Z" fill="#F1EAE1"/>
<path d="M102.565 26.8187L114.662 12.7464V12.7058H102.971V9.6748H118.897V12.7058L106.801 26.7781V26.8187H119.303V29.8496H102.565V26.8187Z" fill="#F1EAE1"/>
<path d="M84.8264 26.8187V12.6922H91.2807V9.6748H78.981V12.6922H81.5925V29.8361H91.4837V26.8187H84.8264Z" fill="#F1EAE1"/>
<path d="M52.8119 4.03199L53.2855 0.0809138H54.4492L53.5426 6.65702H52.3924L51.77 2.7736L51.1746 6.64348H50.0245L49.1179 0.0673828H50.2816L50.7552 3.99139L51.31 0.0673828H52.2165L52.8119 4.03199Z" fill="#F1EAE1"/>
<path d="M64.9087 3.77504H62.216V5.62879H65.3688V6.65716H60.9441V0.0810547H65.3552V1.10942H62.216V2.76021H64.9087V3.77504Z" fill="#F1EAE1"/>
<path d="M72.1343 6.64362V0.0810547H74.3398C74.6916 0.0810547 75.0299 0.121648 75.3141 0.189303C75.6118 0.256959 75.8553 0.365207 76.0718 0.514049C76.2748 0.662891 76.4372 0.852326 76.5589 1.06882C76.6672 1.29885 76.7348 1.55594 76.7348 1.86716C76.7348 2.17837 76.6536 2.44899 76.4913 2.69255C76.3289 2.93611 76.0989 3.12555 75.7741 3.24733C75.9636 3.30145 76.1259 3.36911 76.2613 3.46382C76.3966 3.55854 76.5183 3.68032 76.6131 3.8021C76.7078 3.93741 76.7754 4.07272 76.816 4.23509C76.8566 4.38394 76.8837 4.54631 76.8837 4.72221C76.8837 5.03343 76.8296 5.31758 76.7213 5.56114C76.6131 5.8047 76.4642 6.00766 76.2613 6.17004C76.0583 6.33241 75.8147 6.45419 75.5306 6.53538C75.2464 6.61656 74.9217 6.65716 74.5563 6.65716H72.1343V6.64362ZM73.4062 2.82786H74.3534C74.7052 2.82786 74.9758 2.74668 75.1652 2.61137C75.3547 2.47605 75.4494 2.25956 75.4494 1.9754C75.4494 1.66419 75.3547 1.44769 75.1652 1.31238C74.9758 1.17707 74.7052 1.10942 74.3398 1.10942H73.4062V2.82786ZM73.4062 3.74798V5.61526H74.5293C74.8811 5.61526 75.1382 5.52055 75.3276 5.35817C75.5035 5.1958 75.5982 4.96577 75.5982 4.69515C75.5982 4.39747 75.517 4.15391 75.3547 3.99153C75.1923 3.82916 74.9352 3.73444 74.5834 3.73444H73.4062V3.74798Z" fill="#F1EAE1"/>
<path d="M84.7315 2.81446H85.4081C85.7464 2.81446 86.0035 2.73328 86.1658 2.55737C86.3282 2.38147 86.4094 2.15144 86.4094 1.88082C86.4094 1.74551 86.3959 1.63726 86.3553 1.52901C86.3147 1.42076 86.2606 1.32605 86.1794 1.25839C86.0982 1.1772 86.0035 1.12308 85.8952 1.08249C85.7734 1.04189 85.6381 1.01483 85.4893 1.01483C85.3675 1.01483 85.2457 1.02836 85.1375 1.06895C85.0292 1.10955 84.9345 1.16367 84.8533 1.23133C84.7721 1.29898 84.7045 1.38017 84.6504 1.47489C84.5962 1.5696 84.5827 1.67785 84.5827 1.79963H83.3243C83.3243 1.52901 83.3784 1.28545 83.4867 1.06895C83.5949 0.852458 83.7438 0.663023 83.9467 0.50065C84.1362 0.338277 84.3662 0.216497 84.6233 0.135311C84.8804 0.0541243 85.1645 0 85.4622 0C85.787 0 86.0847 0.0405932 86.3553 0.12178C86.6259 0.202966 86.8559 0.324746 87.0454 0.473588C87.2348 0.63596 87.3836 0.825396 87.4919 1.05542C87.6001 1.28545 87.6543 1.55607 87.6543 1.86729C87.6543 2.0026 87.6272 2.15144 87.5866 2.28675C87.546 2.42206 87.4784 2.55737 87.3972 2.67915C87.316 2.80093 87.2213 2.92271 87.0995 3.01743C86.9777 3.12568 86.8424 3.20686 86.68 3.28805C86.8695 3.35571 87.0183 3.43689 87.1536 3.54514C87.2889 3.65339 87.3972 3.76164 87.4919 3.89695C87.5731 4.03226 87.6407 4.16757 87.6813 4.32994C87.7219 4.49232 87.749 4.65469 87.749 4.83059C87.749 5.14181 87.6949 5.41243 87.5731 5.65599C87.4513 5.89955 87.2889 6.10251 87.086 6.26489C86.883 6.42726 86.6394 6.54904 86.3553 6.64376C86.0711 6.73848 85.7734 6.77907 85.4487 6.77907C85.1645 6.77907 84.8939 6.73847 84.6233 6.65729C84.3527 6.5761 84.1227 6.46785 83.9062 6.30548C83.7032 6.15664 83.5273 5.95367 83.4055 5.72364C83.2837 5.49362 83.2161 5.20946 83.2161 4.89825H84.4745C84.4745 5.02003 84.5015 5.14181 84.5421 5.25006C84.5962 5.3583 84.6639 5.45302 84.7451 5.52068C84.8398 5.60186 84.9345 5.65599 85.0563 5.69658C85.1781 5.73718 85.3134 5.76424 85.4487 5.76424C85.7734 5.76424 86.017 5.68305 86.1929 5.50715C86.3688 5.33124 86.4635 5.11475 86.4635 4.81706C86.4635 4.64116 86.4365 4.49232 86.3823 4.35701C86.3282 4.23523 86.2606 4.12698 86.1523 4.04579C86.0576 3.9646 85.9358 3.91048 85.8005 3.86989C85.6652 3.82929 85.5028 3.81576 85.3404 3.81576H84.6639V2.81446H84.7315Z" fill="#F1EAE1"/>
<path d="M18.2401 24.5454C19.715 27.211 20.5539 30.2691 20.5539 33.53H15.9263C15.9263 30.2691 16.7652 27.1975 18.2401 24.5454Z" fill="#F1EAE1"/>
<path d="M2.34088 14.9927C4.07285 15.0197 5.73717 15.2904 7.30678 15.7504C6.42726 17.0765 5.65599 18.4837 4.97943 19.9315C4.01873 19.7286 3.03096 19.6068 2.0026 19.6068C1.32605 19.6068 0.663023 19.6609 0 19.7556C0.690085 18.1048 1.46136 16.5217 2.34088 14.9927Z" fill="#F1EAE1"/>
<path d="M8.98459 6.60303C10.7166 7.04955 12.3674 7.65845 13.9505 8.40266C12.6515 9.47162 11.4337 10.6353 10.3106 11.8801C8.7275 11.2712 7.06317 10.8383 5.34473 10.5947C6.45427 9.17393 7.67207 7.83435 8.98459 6.60303Z" fill="#F1EAE1"/>
<path d="M23.2056 3.09863C21.4737 3.73459 19.8229 4.5194 18.2397 5.42598C16.6701 4.5194 15.0058 3.73459 13.2874 3.09863C14.857 2.00262 16.5077 1.02838 18.2533 0.189453C19.9717 1.02838 21.636 2.00262 23.2056 3.09863Z" fill="#F1EAE1"/>
<path d="M11.6231 17.6582C12.9492 18.4701 14.1805 19.4308 15.263 20.5403C14.3429 21.907 13.5581 23.3683 12.9492 24.9109C11.9344 23.6254 10.703 22.5294 9.30933 21.6634C9.95882 20.2697 10.7436 18.9301 11.6231 17.6582Z" fill="#F1EAE1"/>
<path d="M18.24 10.9331C19.5389 11.8667 20.7567 12.9086 21.8798 14.0588C20.5673 14.9112 19.3495 15.8855 18.24 16.968C17.1304 15.8855 15.9126 14.8977 14.6001 14.0588C15.7232 12.9222 16.941 11.8667 18.24 10.9331Z" fill="#F1EAE1"/>
<path d="M31.1487 10.5947C29.4168 10.8383 27.766 11.2848 26.1828 11.8801C25.0597 10.6353 23.842 9.47162 22.543 8.40266C24.1261 7.64492 25.7769 7.04955 27.5089 6.60303C28.8214 7.83435 30.0392 9.17393 31.1487 10.5947Z" fill="#F1EAE1"/>
<path d="M24.87 17.6582C25.7495 18.9301 26.5343 20.2697 27.1973 21.6769C25.8036 22.5429 24.5723 23.6389 23.5575 24.9244C22.935 23.3818 22.1638 21.9205 21.2437 20.5539C22.3126 19.4443 23.5304 18.4701 24.87 17.6582Z" fill="#F1EAE1"/>
<path d="M36.4528 19.7688C35.8033 19.6741 35.1267 19.62 34.4502 19.62C33.4353 19.62 32.434 19.7282 31.4733 19.9447C30.7968 18.4833 30.0255 17.0896 29.146 15.7636C30.7291 15.29 32.3935 15.0329 34.1119 15.0059C35.0185 16.5213 35.8033 18.118 36.4528 19.7688Z" fill="#F1EAE1"/>
<path d="M138.003 22.5155C137.002 25.3841 134.445 27.2108 131.454 27.2108C129.736 27.2108 128.153 26.6154 126.935 25.56L137.422 15.777L139.789 13.5714C137.936 10.9193 134.891 9.26855 131.454 9.26855C125.812 9.26855 121.225 13.5985 121.225 19.7551C121.225 25.9118 125.798 30.2417 131.454 30.2417C136.217 30.2417 140.222 27.1837 141.359 22.5155H138.003ZM124.459 19.7551C124.459 15.3711 127.598 12.2995 131.454 12.2995C132.983 12.2995 134.391 12.8002 135.554 13.6526L125.217 23.2867C124.729 22.2584 124.459 21.0812 124.459 19.7551Z" fill="#F1EAE1"/>
<path d="M67.9802 22.7862C66.7624 27.3191 62.8248 30.2554 58.1431 30.2554C52.5006 30.2554 47.9136 26.0066 47.9136 19.7688C47.9136 13.531 52.4871 9.28223 58.1431 9.28223C62.6489 9.28223 66.4782 12.1238 67.8448 16.3454H64.408C63.2578 13.8963 60.8899 12.3132 58.1566 12.3132C54.2867 12.3132 51.161 15.3983 51.161 19.7823C51.161 24.1664 54.2867 27.2515 58.1566 27.2515C61.0522 27.2515 63.542 25.533 64.6109 22.8133L67.9802 22.7862Z" fill="#F1EAE1"/>
<path d="M162.4 17.6308C162.4 12.2995 159.166 9.26855 153.808 9.26855C151.305 9.26855 149.045 10.4728 147.475 12.5701V9.67449H144.255V29.8493H147.475V19.5657C147.475 14.5321 150.344 12.313 153.28 12.313C157.204 12.313 159.166 13.9503 159.166 18.6456V29.8493H162.387L162.4 17.6308Z" fill="#F1EAE1"/>
</svg>
