<svg width="444" height="108" viewBox="0 0 444 108" fill="none" xmlns="http://www.w3.org/2000/svg">
<path d="M264.581 15.9568C262.882 15.9568 261.441 15.3658 260.296 14.1838C259.114 13.0019 258.523 11.5982 258.523 9.89913C258.523 8.20002 259.114 6.7964 260.296 5.61442C261.478 4.43243 262.882 3.84143 264.581 3.84143C266.28 3.84143 267.684 4.43243 268.866 5.61442C270.048 6.7964 270.639 8.23695 270.639 9.89913C270.639 11.5613 270.048 13.0388 268.866 14.1838C267.721 15.3658 266.28 15.9568 264.581 15.9568Z" fill="#09344E"/>
<path d="M205.112 26.41H196.321V81.4464H205.112V26.41Z" fill="#09344E"/>
<path d="M260.74 26.41H269.531V81.4464H260.74V26.41Z" fill="#09344E"/>
<path d="M279.984 73.2094L313.006 34.7948V34.684H281.092V26.41H324.567V34.684L291.545 73.0986V73.2094H325.675V81.4834H279.984V73.2094Z" fill="#09344E"/>
<path d="M231.559 73.2094V34.647H249.178V26.41H215.603V34.647H222.731V81.4464H249.732V73.2094H231.559Z" fill="#09344E"/>
<path d="M144.166 11.0074L145.459 0.221751H148.635L146.16 18.1732H143.021L141.322 7.57225L139.696 18.1363H136.557L134.082 0.184814H137.259L138.551 10.8966L140.066 0.184814H142.541L144.166 11.0074Z" fill="#09344E"/>
<path d="M177.188 10.3054H169.837V15.3658H178.444V18.173H166.365V0.221558H178.407V3.02878H169.837V7.53512H177.188V10.3054Z" fill="#09344E"/>
<path d="M196.912 18.1361V0.221558H202.933C203.893 0.221558 204.817 0.332369 205.593 0.517055C206.405 0.701741 207.07 0.997239 207.661 1.40355C208.215 1.80986 208.658 2.32698 208.991 2.91797C209.286 3.5459 209.471 4.24771 209.471 5.09727C209.471 5.94682 209.249 6.68556 208.806 7.35043C208.363 8.0153 207.735 8.53242 206.848 8.86486C207.366 9.01261 207.809 9.19729 208.178 9.45585C208.548 9.71441 208.88 10.0468 209.139 10.3793C209.397 10.7487 209.582 11.118 209.693 11.5613C209.803 11.9676 209.877 12.4108 209.877 12.891C209.877 13.7406 209.73 14.5162 209.434 15.1811C209.139 15.846 208.732 16.4 208.178 16.8433C207.624 17.2865 206.959 17.619 206.184 17.8406C205.408 18.0622 204.521 18.173 203.524 18.173H196.912V18.1361ZM200.384 7.71981H202.97C203.93 7.71981 204.669 7.49818 205.186 7.12881C205.703 6.75944 205.962 6.16844 205.962 5.39276C205.962 4.54321 205.703 3.95221 205.186 3.58284C204.669 3.21347 203.93 3.02878 202.933 3.02878H200.384V7.71981ZM200.384 10.2315V15.3289H203.45C204.411 15.3289 205.112 15.0703 205.63 14.6271C206.11 14.1838 206.368 13.5559 206.368 12.8171C206.368 12.0045 206.147 11.3396 205.703 10.8964C205.26 10.4532 204.558 10.1946 203.598 10.1946H200.384V10.2315Z" fill="#09344E"/>
<path d="M231.301 7.68293H233.147C234.071 7.68293 234.773 7.46131 235.216 6.98113C235.659 6.50094 235.881 5.87301 235.881 5.13427C235.881 4.7649 235.844 4.4694 235.733 4.1739C235.622 3.8784 235.474 3.61984 235.253 3.43516C235.031 3.21353 234.773 3.06579 234.477 2.95497C234.145 2.84416 233.775 2.77029 233.369 2.77029C233.037 2.77029 232.704 2.80723 232.409 2.91804C232.113 3.02885 231.855 3.1766 231.633 3.36128C231.411 3.54597 231.227 3.76759 231.079 4.02615C230.931 4.28471 230.894 4.58021 230.894 4.91264H227.459C227.459 4.1739 227.607 3.50903 227.902 2.91804C228.198 2.32704 228.604 1.80992 229.158 1.36668C229.675 0.923429 230.303 0.590995 231.005 0.369372C231.707 0.147749 232.483 0 233.295 0C234.182 0 234.994 0.110811 235.733 0.332434C236.472 0.554058 237.1 0.886492 237.617 1.2928C238.134 1.73605 238.54 2.25317 238.836 2.8811C239.131 3.50903 239.279 4.24778 239.279 5.09733C239.279 5.4667 239.205 5.87301 239.094 6.24238C238.983 6.61176 238.799 6.98113 238.577 7.31356C238.356 7.646 238.097 7.97843 237.765 8.23699C237.432 8.53249 237.063 8.75411 236.62 8.97573C237.137 9.16042 237.543 9.38204 237.912 9.67754C238.282 9.97304 238.577 10.2685 238.836 10.6379C239.057 11.0073 239.242 11.3767 239.353 11.8199C239.464 12.2631 239.538 12.7064 239.538 13.1866C239.538 14.0361 239.39 14.7749 239.057 15.4397C238.725 16.1046 238.282 16.6587 237.728 17.1019C237.174 17.5452 236.509 17.8776 235.733 18.1362C234.957 18.3947 234.145 18.5055 233.258 18.5055C232.483 18.5055 231.744 18.3947 231.005 18.1731C230.266 17.9515 229.638 17.656 229.047 17.2127C228.493 16.8064 228.013 16.2524 227.681 15.6244C227.348 14.9965 227.164 14.2208 227.164 13.3713H230.599C230.599 13.7037 230.673 14.0361 230.783 14.3316C230.931 14.6271 231.116 14.8857 231.337 15.0704C231.596 15.292 231.855 15.4397 232.187 15.5506C232.519 15.6614 232.889 15.7352 233.258 15.7352C234.145 15.7352 234.81 15.5136 235.29 15.0334C235.77 14.5532 236.028 13.9623 236.028 13.1496C236.028 12.6695 235.955 12.2631 235.807 11.8938C235.659 11.5613 235.474 11.2658 235.179 11.0442C234.92 10.8226 234.588 10.6748 234.219 10.564C233.849 10.4532 233.406 10.4163 232.963 10.4163H231.116V7.68293H231.301Z" fill="#09344E"/>
<path d="M49.7914 67.004C53.8175 74.2807 56.1076 82.6285 56.1076 91.5303H43.4751C43.4751 82.6285 45.7652 74.2437 49.7914 67.004Z" fill="#09344E"/>
<path d="M6.39013 40.9265C11.1181 41.0004 15.6614 41.7391 19.9461 42.995C17.5452 46.6148 15.4397 50.4563 13.5929 54.4086C10.9703 53.8545 8.27393 53.5221 5.4667 53.5221C3.61984 53.5221 1.80992 53.6698 0 53.9284C1.8838 49.4221 3.98922 45.1004 6.39013 40.9265Z" fill="#09344E"/>
<path d="M24.5262 18.0254C29.2541 19.2443 33.7605 20.9065 38.0821 22.938C34.5362 25.8561 31.2118 29.0327 28.146 32.4309C23.8244 30.7687 19.2811 29.5867 14.5901 28.9219C17.6189 25.0435 20.9433 21.3867 24.5262 18.0254Z" fill="#09344E"/>
<path d="M63.3474 8.45858C58.6195 10.1946 54.1131 12.337 49.7915 14.8118C45.5068 12.337 40.9635 10.1946 36.2725 8.45858C40.5572 5.46667 45.0635 2.80719 49.8284 0.51709C54.5194 2.80719 59.0627 5.46667 63.3474 8.45858Z" fill="#09344E"/>
<path d="M31.7291 48.2401C35.3489 50.4563 38.7102 53.0789 41.6652 56.1077C39.1535 59.8384 37.0111 63.8276 35.3489 68.0384C32.5787 64.5294 29.2174 61.5375 25.4128 59.1735C27.1858 55.3321 29.3282 51.6753 31.7291 48.2401Z" fill="#09344E"/>
<path d="M49.7913 29.8453C53.3373 32.394 56.6616 35.2382 59.7274 38.3778C56.1445 40.7049 52.8202 43.3643 49.7913 46.3193C46.7625 43.3643 43.4381 40.6679 39.8552 38.3778C42.921 35.2751 46.2454 32.394 49.7913 29.8453Z" fill="#09344E"/>
<path d="M85.0296 28.9219C80.3017 29.5867 75.7954 30.8057 71.4737 32.4309C68.4079 29.0327 65.0836 25.8561 61.5376 22.938C65.8592 20.8696 70.3656 19.2443 75.0935 18.0254C78.6765 21.3867 82.0008 25.0435 85.0296 28.9219Z" fill="#09344E"/>
<path d="M67.8906 48.2401C70.2915 51.7122 72.4339 55.369 74.2438 59.2105C70.4393 61.5744 67.078 64.5663 64.3077 68.0754C62.6086 63.8645 60.5032 59.8753 57.9915 56.1447C60.9095 53.0789 64.2338 50.4194 67.8906 48.2401Z" fill="#09344E"/>
<path d="M99.5088 53.9651C97.7358 53.7066 95.889 53.5588 94.0421 53.5588C91.2718 53.5588 88.5385 53.8543 85.9159 54.4453C84.0691 50.4561 81.9637 46.6516 79.5627 43.0317C83.8844 41.7389 88.4277 41.0371 93.1187 40.9633C95.5935 45.1002 97.7358 49.4588 99.5088 53.9651Z" fill="#09344E"/>
<path d="M376.722 61.4636C373.989 69.2943 367.008 74.2808 358.845 74.2808C354.154 74.2808 349.832 72.6556 346.508 69.7745L375.134 43.0689L381.598 37.0481C376.538 29.8085 368.227 25.3021 358.845 25.3021C343.442 25.3021 330.92 37.122 330.92 53.9284C330.92 70.7349 343.405 82.5547 358.845 82.5547C371.847 82.5547 382.78 74.2069 385.883 61.4636H376.722ZM339.748 53.9284C339.748 41.9608 348.318 33.576 358.845 33.576C363.019 33.576 366.86 34.9427 370.037 37.2698L341.817 63.569C340.487 60.7618 339.748 57.5483 339.748 53.9284Z" fill="#09344E"/>
<path d="M185.572 62.2022C182.248 74.5761 171.499 82.5915 158.719 82.5915C143.316 82.5915 130.794 70.9932 130.794 53.9652C130.794 36.9371 143.279 25.3389 158.719 25.3389C171.019 25.3389 181.472 33.0957 185.203 44.6201H175.821C172.681 37.9344 166.217 33.6128 158.756 33.6128C148.192 33.6128 139.659 42.0345 139.659 54.0021C139.659 65.9698 148.192 74.3914 158.756 74.3914C166.66 74.3914 173.457 69.7004 176.375 62.276L185.572 62.2022Z" fill="#09344E"/>
<path d="M443.32 48.1293C443.32 33.5761 434.492 25.3021 419.865 25.3021C413.031 25.3021 406.863 28.5895 402.578 34.3148V26.4102H393.787V81.4466H402.578V53.3744C402.578 39.6337 410.409 33.576 418.424 33.576C429.136 33.576 434.492 38.0455 434.492 50.8627V81.4466H443.283L443.32 48.1293Z" fill="#09344E"/>
<path d="M135.781 103.203L137.739 98.881H138.995L136.335 104.274V107.487H135.264V104.274L132.604 98.881H133.86L135.781 103.203Z" fill="#09344E"/>
<path d="M146.087 103.683C146.087 103.978 146.05 104.311 146.013 104.606C145.976 104.902 145.902 105.234 145.791 105.53C145.68 105.825 145.569 106.084 145.385 106.342C145.237 106.601 145.052 106.822 144.831 107.007C144.609 107.192 144.351 107.34 144.055 107.45C143.76 107.561 143.464 107.598 143.095 107.598C142.725 107.598 142.43 107.561 142.134 107.45C141.839 107.34 141.58 107.192 141.359 107.007C141.137 106.822 140.952 106.601 140.805 106.342C140.657 106.084 140.509 105.825 140.398 105.53C140.287 105.234 140.214 104.939 140.177 104.643C140.14 104.348 140.103 104.015 140.103 103.72V102.759C140.103 102.464 140.14 102.131 140.177 101.836C140.214 101.54 140.287 101.208 140.398 100.912C140.509 100.617 140.62 100.358 140.805 100.1C140.952 99.8413 141.137 99.6197 141.359 99.435C141.58 99.2503 141.839 99.1026 142.134 98.9917C142.43 98.8809 142.725 98.844 143.095 98.844C143.464 98.844 143.76 98.8809 144.055 98.9917C144.351 99.1026 144.609 99.2503 144.831 99.435C145.052 99.6197 145.237 99.8413 145.385 100.1C145.533 100.358 145.68 100.617 145.791 100.912C145.902 101.208 145.976 101.503 146.013 101.836C146.05 102.168 146.087 102.464 146.087 102.759V103.683ZM145.015 102.685C145.015 102.464 145.015 102.279 144.978 102.058C144.942 101.836 144.905 101.614 144.868 101.393C144.831 101.171 144.72 100.949 144.646 100.765C144.535 100.58 144.424 100.395 144.277 100.248C144.129 100.1 143.981 99.9891 143.76 99.8782C143.575 99.8044 143.353 99.7305 143.095 99.7305C142.836 99.7305 142.615 99.7674 142.43 99.8782C142.245 99.9521 142.06 100.1 141.913 100.248C141.765 100.395 141.654 100.58 141.543 100.765C141.433 100.949 141.359 101.171 141.322 101.393C141.285 101.614 141.211 101.836 141.211 102.058C141.174 102.279 141.174 102.501 141.174 102.685V103.683C141.174 103.867 141.211 104.089 141.211 104.311C141.248 104.532 141.285 104.754 141.322 104.976C141.359 105.197 141.469 105.419 141.543 105.604C141.654 105.788 141.765 105.973 141.913 106.121C142.06 106.268 142.208 106.379 142.43 106.49C142.615 106.564 142.836 106.638 143.095 106.638C143.353 106.638 143.575 106.601 143.76 106.49C143.944 106.416 144.129 106.268 144.277 106.121C144.424 105.973 144.535 105.788 144.609 105.604C144.683 105.419 144.794 105.197 144.831 104.976C144.868 104.754 144.942 104.532 144.942 104.311C144.978 104.089 144.978 103.867 144.978 103.683V102.685H145.015Z" fill="#09344E"/>
<path d="M153.141 98.8809V104.68C153.141 105.086 153.067 105.456 152.92 105.788C152.772 106.121 152.587 106.453 152.329 106.712C152.07 106.97 151.775 107.192 151.442 107.34C151.11 107.487 150.74 107.561 150.334 107.561C149.928 107.561 149.521 107.487 149.189 107.34C148.857 107.192 148.561 106.97 148.303 106.712C148.044 106.453 147.859 106.158 147.748 105.788C147.601 105.419 147.527 105.049 147.527 104.643V98.844H148.561L148.598 104.643C148.598 104.902 148.635 105.16 148.709 105.382C148.783 105.604 148.894 105.825 149.041 106.01C149.189 106.194 149.374 106.342 149.595 106.453C149.817 106.564 150.039 106.601 150.334 106.601C150.63 106.601 150.851 106.564 151.073 106.453C151.294 106.342 151.479 106.194 151.59 106.01C151.738 105.825 151.849 105.604 151.922 105.382C151.996 105.16 152.033 104.902 152.033 104.643V98.844H153.141V98.8809Z" fill="#09344E"/>
<path d="M157.833 103.978H156.134V107.487H155.062V98.881H157.574C157.981 98.881 158.35 98.9549 158.719 99.0657C159.089 99.1765 159.384 99.3242 159.643 99.5458C159.901 99.7675 160.123 100.026 160.271 100.358C160.418 100.691 160.492 101.06 160.492 101.504C160.492 101.799 160.455 102.021 160.381 102.279C160.308 102.538 160.197 102.722 160.049 102.907C159.901 103.092 159.754 103.277 159.532 103.424C159.347 103.572 159.126 103.683 158.867 103.794L160.677 107.45V107.524H159.532L157.833 103.978ZM156.097 103.055H157.574C157.833 103.055 158.054 103.018 158.276 102.944C158.498 102.87 158.682 102.759 158.83 102.612C158.978 102.464 159.126 102.316 159.199 102.095C159.31 101.91 159.347 101.651 159.347 101.393C159.347 101.134 159.31 100.876 159.199 100.654C159.126 100.432 158.978 100.285 158.83 100.137C158.682 99.9891 158.461 99.8783 158.239 99.8044C158.017 99.7305 157.759 99.6936 157.5 99.6936H156.06V103.055H156.097Z" fill="#09344E"/>
<path d="M169.468 98.881H174.639V99.8414H172.571V106.527H174.639V107.487H169.468V106.527H171.463V99.8414H169.468V98.881Z" fill="#09344E"/>
<path d="M182.1 107.45H180.992L177.668 101.023V107.45H176.56V98.881H177.668L180.992 105.271V98.881H182.1V107.45Z" fill="#09344E"/>
<path d="M188.749 103.683H185.166V107.487H184.058V98.881H189.34V99.8044H185.166V102.722H188.749V103.683Z" fill="#09344E"/>
<path d="M191.224 98.881H196.395V99.8414H194.364V106.527H196.432V107.487H191.261V106.527H193.255V99.8414H191.261V98.881H191.224Z" fill="#09344E"/>
<path d="M203.856 107.45H202.748L199.424 101.023V107.45H198.316V98.881H199.424L202.748 105.271V98.881H203.856V107.45Z" fill="#09344E"/>
<path d="M205.703 98.881H210.874V99.8414H208.806V106.527H210.874V107.487H205.703V106.527H207.698V99.8414H205.703V98.881Z" fill="#09344E"/>
<path d="M218.742 99.8044H216.083V107.45H215.049V99.8044H212.389V98.881H218.742V99.8044Z" fill="#09344E"/>
<path d="M224.911 103.498H221.328V106.527H225.501V107.45H220.219V98.881H225.428V99.8044H221.328V102.575H224.911V103.498Z" fill="#09344E"/>
<path d="M240.239 106.342C239.87 106.748 239.464 107.081 238.983 107.302C238.503 107.524 237.986 107.598 237.432 107.598C237.063 107.598 236.767 107.524 236.472 107.45C236.176 107.339 235.918 107.192 235.659 107.007C235.437 106.822 235.216 106.601 235.031 106.379C234.846 106.12 234.699 105.862 234.588 105.566C234.477 105.271 234.366 104.975 234.329 104.643C234.255 104.311 234.219 104.015 234.219 103.683V102.685C234.219 102.353 234.255 102.057 234.292 101.725C234.329 101.393 234.44 101.097 234.551 100.802C234.662 100.506 234.81 100.247 234.957 99.9889C235.105 99.7303 235.327 99.5087 235.548 99.324C235.77 99.1393 236.028 98.9916 236.324 98.8808C236.619 98.77 236.952 98.733 237.284 98.733C237.691 98.733 238.06 98.8069 238.392 98.9177C238.725 99.0285 239.02 99.2132 239.279 99.4348C239.537 99.6565 239.722 99.952 239.87 100.247C240.018 100.58 240.128 100.949 240.165 101.319H239.094C239.057 101.06 238.983 100.838 238.91 100.617C238.836 100.395 238.688 100.211 238.54 100.063C238.392 99.915 238.208 99.8042 238.023 99.7303C237.838 99.6565 237.58 99.6195 237.321 99.6195C237.063 99.6195 236.841 99.6565 236.619 99.7673C236.398 99.8781 236.25 99.9889 236.102 100.137C235.955 100.284 235.844 100.469 235.733 100.654C235.622 100.838 235.548 101.06 235.474 101.282C235.4 101.503 235.364 101.725 235.327 101.947C235.29 102.168 235.29 102.39 235.29 102.611V103.609C235.29 103.83 235.327 104.052 235.364 104.274C235.4 104.495 235.437 104.717 235.511 104.938C235.585 105.16 235.659 105.382 235.77 105.566C235.881 105.751 236.028 105.936 236.176 106.084C236.324 106.231 236.509 106.342 236.73 106.453C236.952 106.527 237.173 106.601 237.432 106.601C237.58 106.601 237.728 106.601 237.912 106.601C238.06 106.601 238.245 106.564 238.392 106.49C238.54 106.453 238.688 106.379 238.836 106.305C238.983 106.231 239.094 106.12 239.168 105.973V104.052H237.432V103.129H240.202L240.239 106.342Z" fill="#09344E"/>
<path d="M246.039 105.234H243.158L242.456 107.45H241.348L244.118 98.881H245.041L247.775 107.45H246.704L246.039 105.234ZM243.453 104.311H245.743L244.598 100.58L243.453 104.311Z" fill="#09344E"/>
<path d="M252.022 103.978H250.323V107.487H249.252V98.881H251.764C252.17 98.881 252.54 98.9549 252.909 99.0657C253.278 99.1765 253.574 99.3242 253.832 99.5458C254.091 99.7675 254.313 100.026 254.46 100.358C254.608 100.691 254.682 101.06 254.682 101.504C254.682 101.799 254.645 102.021 254.571 102.279C254.497 102.501 254.386 102.722 254.239 102.907C254.091 103.092 253.943 103.277 253.722 103.424C253.537 103.572 253.315 103.683 253.057 103.794L254.867 107.45V107.524H253.722L252.022 103.978ZM250.323 103.055H251.801C252.059 103.055 252.281 103.018 252.503 102.944C252.724 102.87 252.909 102.759 253.057 102.612C253.204 102.464 253.352 102.316 253.426 102.095C253.5 101.873 253.574 101.651 253.574 101.393C253.574 101.134 253.537 100.876 253.426 100.654C253.352 100.432 253.204 100.285 253.057 100.137C252.909 99.9891 252.687 99.8783 252.466 99.8044C252.244 99.7305 251.986 99.6936 251.727 99.6936H250.286V103.055H250.323Z" fill="#09344E"/>
<path d="M256.307 107.45V98.881H258.301C258.892 98.881 259.447 98.9918 259.89 99.1765C260.37 99.3612 260.739 99.6567 261.072 99.9891C261.404 100.322 261.626 100.765 261.811 101.245C261.995 101.725 262.069 102.279 262.069 102.87V103.498C262.069 104.089 261.995 104.643 261.811 105.123C261.626 105.604 261.404 106.01 261.072 106.379C260.739 106.712 260.333 107.007 259.89 107.192C259.41 107.377 258.892 107.487 258.301 107.487H256.307V107.45ZM257.415 99.7675V106.564H258.301C258.782 106.564 259.151 106.49 259.52 106.305C259.853 106.158 260.148 105.936 260.37 105.64C260.592 105.382 260.739 105.049 260.85 104.68C260.961 104.311 260.998 103.904 261.035 103.461V102.833C261.035 102.39 260.961 101.984 260.85 101.614C260.739 101.245 260.592 100.913 260.37 100.654C260.148 100.395 259.853 100.174 259.52 100.026C259.188 99.8783 258.782 99.8044 258.301 99.7675H257.415Z" fill="#09344E"/>
<path d="M268.386 103.498H264.803V106.527H268.977V107.45H263.695V98.881H268.903V99.8044H264.766V102.575H268.349V103.498H268.386Z" fill="#09344E"/>
<path d="M276.29 107.45H275.182L271.857 101.023V107.45H270.749V98.881H271.857L275.182 105.271V98.881H276.29V107.45Z" fill="#09344E"/>
<path d="M290.954 106.342C290.585 106.748 290.179 107.081 289.698 107.302C289.218 107.524 288.701 107.598 288.147 107.598C287.778 107.598 287.482 107.524 287.187 107.45C286.891 107.339 286.633 107.192 286.374 107.007C286.153 106.822 285.931 106.601 285.746 106.379C285.562 106.12 285.414 105.862 285.303 105.566C285.192 105.271 285.081 104.975 285.044 104.643C284.971 104.311 284.934 104.015 284.934 103.683V102.685C284.934 102.353 284.971 102.057 285.007 101.725C285.044 101.393 285.155 101.097 285.266 100.802C285.377 100.506 285.525 100.247 285.672 99.9889C285.82 99.7303 286.042 99.5087 286.263 99.324C286.485 99.1393 286.744 98.9916 287.039 98.8808C287.335 98.77 287.667 98.733 287.999 98.733C288.406 98.733 288.775 98.8069 289.107 98.9177C289.44 99.0285 289.735 99.2132 289.994 99.4348C290.253 99.6565 290.437 99.952 290.585 100.247C290.733 100.58 290.844 100.949 290.88 101.319H289.809C289.772 101.06 289.698 100.838 289.625 100.617C289.551 100.395 289.403 100.211 289.255 100.063C289.107 99.915 288.923 99.8042 288.738 99.7303C288.553 99.6565 288.295 99.6195 288.036 99.6195C287.778 99.6195 287.556 99.6565 287.335 99.7673C287.113 99.8781 286.965 99.9889 286.817 100.137C286.67 100.284 286.559 100.469 286.448 100.654C286.337 100.838 286.263 101.06 286.189 101.282C286.116 101.503 286.079 101.725 286.042 101.947C286.005 102.168 286.005 102.39 286.005 102.611V103.609C286.005 103.83 286.042 104.052 286.079 104.274C286.116 104.495 286.153 104.717 286.226 104.938C286.3 105.16 286.374 105.382 286.485 105.566C286.596 105.751 286.744 105.936 286.891 106.084C287.039 106.231 287.224 106.342 287.445 106.453C287.667 106.527 287.889 106.601 288.147 106.601C288.295 106.601 288.443 106.601 288.627 106.601C288.775 106.601 288.96 106.564 289.107 106.49C289.255 106.453 289.403 106.379 289.551 106.305C289.698 106.231 289.809 106.12 289.883 105.973V104.052H288.184V103.129H290.954V106.342Z" fill="#09344E"/>
<path d="M298.046 98.8809V104.68C298.046 105.086 297.972 105.456 297.824 105.788C297.676 106.121 297.492 106.453 297.233 106.712C296.975 106.97 296.679 107.192 296.347 107.34C296.014 107.487 295.645 107.561 295.239 107.561C294.832 107.561 294.426 107.487 294.094 107.34C293.761 107.192 293.466 106.97 293.207 106.712C292.949 106.453 292.764 106.158 292.653 105.788C292.542 105.419 292.431 105.049 292.431 104.643V98.844H293.466L293.503 104.643C293.503 104.902 293.54 105.16 293.613 105.382C293.687 105.604 293.798 105.825 293.946 106.01C294.094 106.194 294.278 106.342 294.5 106.453C294.721 106.564 294.943 106.601 295.239 106.601C295.534 106.601 295.756 106.564 295.977 106.453C296.199 106.342 296.384 106.194 296.494 106.01C296.642 105.825 296.753 105.604 296.827 105.382C296.901 105.16 296.938 104.902 296.938 104.643V98.844H298.046V98.8809Z" fill="#09344E"/>
<path d="M299.893 98.881H305.064V99.8414H302.996V106.527H305.064V107.487H299.893V106.527H301.888V99.8414H299.893V98.881Z" fill="#09344E"/>
<path d="M307.059 107.45V98.881H309.053C309.644 98.881 310.199 98.9918 310.642 99.1765C311.122 99.3612 311.491 99.6567 311.824 99.9891C312.156 100.322 312.378 100.765 312.562 101.245C312.747 101.725 312.821 102.279 312.821 102.87V103.498C312.821 104.089 312.747 104.643 312.562 105.123C312.378 105.604 312.156 106.01 311.824 106.379C311.491 106.712 311.085 107.007 310.642 107.192C310.162 107.377 309.644 107.487 309.053 107.487H307.059V107.45ZM308.167 99.7675V106.564H309.053C309.534 106.564 309.903 106.49 310.272 106.305C310.605 106.158 310.9 105.936 311.122 105.64C311.344 105.382 311.491 105.049 311.602 104.68C311.713 104.311 311.75 103.904 311.787 103.461V102.833C311.787 102.39 311.713 101.984 311.602 101.614C311.491 101.245 311.344 100.913 311.122 100.654C310.9 100.395 310.605 100.174 310.272 100.026C309.94 99.8783 309.534 99.8044 309.053 99.7675H308.167Z" fill="#09344E"/>
<path d="M319.137 103.498H315.554V106.527H319.728V107.45H314.446V98.881H319.654V99.8044H315.517V102.575H319.1V103.498H319.137Z" fill="#09344E"/>
</svg>
