<svg width="444" height="110" viewBox="0 0 444 110" fill="none" xmlns="http://www.w3.org/2000/svg">
<path d="M264.528 15.9054C262.842 15.9054 261.385 15.3305 260.235 14.1424C259.086 12.9543 258.472 11.5362 258.472 9.84986C258.472 8.16351 259.047 6.74543 260.235 5.55732C261.424 4.36921 262.842 3.79431 264.528 3.79431C266.214 3.79431 267.632 4.36921 268.821 5.55732C270.009 6.74543 270.584 8.16351 270.584 9.84986C270.584 11.5362 270.009 12.9543 268.821 14.1424C267.632 15.2922 266.214 15.9054 264.528 15.9054Z" fill="#09344E"/>
<path d="M205.084 26.3685H196.269V81.4051H205.084V26.3685Z" fill="#09344E"/>
<path d="M260.657 26.3685H269.472V81.4051H260.657V26.3685Z" fill="#09344E"/>
<path d="M279.935 73.1265L312.972 34.6852V34.5702H281.047V26.3301H324.547V34.6086L291.51 73.0498V73.1648H325.658V81.4433H279.935V73.1265Z" fill="#09344E"/>
<path d="M231.491 73.1266V34.6087H249.121V26.3685H215.509V34.6087H222.676V81.4051H249.657V73.1266H231.491Z" fill="#09344E"/>
<path d="M144.069 10.9613L145.372 0.15332H148.553L146.062 18.09H142.957L141.271 7.51196L139.623 18.09H136.48L134.027 0.15332H137.208L138.473 10.8847L140.006 0.15332H142.497L144.069 10.9613Z" fill="#09344E"/>
<path d="M177.144 10.2331H169.786V15.2922H178.409V18.09H166.336V0.15332H178.371V2.98946H169.786V7.51196H177.144V10.2331Z" fill="#09344E"/>
<path d="M196.844 18.09V0.15332H202.861C203.819 0.15332 204.739 0.268299 205.544 0.459931C206.349 0.651562 207.039 0.958172 207.614 1.34143C208.188 1.76302 208.61 2.26127 208.917 2.87449C209.223 3.48771 209.377 4.2159 209.377 5.05908C209.377 5.90226 209.147 6.63046 208.687 7.32033C208.265 7.97188 207.614 8.50845 206.732 8.85338C207.23 8.96836 207.69 9.19832 208.073 9.42828C208.457 9.69656 208.763 10.0032 209.032 10.3481C209.3 10.693 209.453 11.1146 209.568 11.5362C209.683 11.9578 209.76 12.3794 209.76 12.8393C209.76 13.6825 209.607 14.449 209.3 15.1006C208.993 15.7521 208.572 16.2887 208.035 16.7486C207.499 17.2085 206.809 17.5151 206.042 17.7451C205.237 17.975 204.356 18.09 203.398 18.09H196.844ZM200.332 7.7036H202.899C203.858 7.7036 204.586 7.51196 205.122 7.09038C205.621 6.70711 205.889 6.13222 205.927 5.36569C205.927 4.52252 205.659 3.90929 205.161 3.56436C204.624 3.1811 203.896 3.02779 202.938 2.98946H200.37V7.7036H200.332ZM200.332 10.1948V15.2922H203.398C204.356 15.2922 205.046 15.0622 205.544 14.6023C206.042 14.1424 206.272 13.5675 206.272 12.801C206.272 11.9961 206.042 11.3446 205.621 10.8847C205.199 10.4248 204.471 10.1948 203.513 10.1948H200.332Z" fill="#09344E"/>
<path d="M231.223 7.62693H233.1C234.02 7.62693 234.749 7.39697 235.17 6.93706C235.63 6.47714 235.86 5.86392 235.86 5.09739C235.86 4.75246 235.822 4.40752 235.707 4.13924C235.592 3.83263 235.438 3.60267 235.247 3.37271C235.055 3.18108 234.787 2.98945 234.48 2.87447C234.174 2.75949 233.79 2.72117 233.369 2.72117C233.024 2.72117 232.717 2.75949 232.411 2.87447C232.104 2.98945 231.836 3.10443 231.606 3.29606C231.376 3.48769 231.184 3.71765 231.069 3.98593C230.954 4.25422 230.878 4.56083 230.878 4.86744H227.467C227.467 4.13924 227.62 3.48769 227.926 2.87447C228.233 2.26125 228.655 1.76301 229.153 1.34142C229.689 0.919831 230.303 0.574894 230.993 0.344936C231.721 0.114979 232.487 0 233.292 0C234.174 0 234.978 0.114979 235.745 0.344936C236.473 0.574894 237.125 0.881504 237.623 1.30309C238.121 1.72468 238.543 2.26125 238.849 2.9128C239.156 3.56434 239.271 4.29254 239.271 5.13572C239.271 5.51898 239.194 5.90225 239.079 6.28551C238.964 6.66877 238.811 7.01371 238.581 7.35864C238.351 7.70358 238.083 8.01019 237.738 8.27847C237.393 8.54676 237.048 8.81504 236.588 9.00667C237.086 9.1983 237.508 9.42826 237.891 9.69655C238.275 9.96483 238.543 10.3098 238.811 10.6547C239.041 10.9996 239.233 11.4212 239.348 11.8428C239.463 12.2644 239.539 12.7243 239.539 13.1842C239.539 14.0274 239.386 14.7556 239.041 15.4072C238.734 16.0587 238.275 16.6336 237.738 17.0552C237.201 17.4768 236.512 17.86 235.745 18.09C234.978 18.32 234.135 18.4349 233.254 18.4349C232.487 18.4349 231.759 18.32 231.031 18.1283C230.303 17.9367 229.651 17.5918 229.076 17.1702C228.501 16.7486 228.041 16.212 227.696 15.5605C227.352 14.9089 227.198 14.1807 227.198 13.2992H230.609C230.609 13.6442 230.686 13.9508 230.801 14.2574C230.916 14.564 231.108 14.7939 231.376 15.0239C231.606 15.2155 231.912 15.4072 232.219 15.5221C232.564 15.6371 232.909 15.7138 233.292 15.7138C234.174 15.7138 234.825 15.4838 235.323 15.0239C235.822 14.564 236.052 13.9508 236.052 13.1459C236.052 12.6477 235.975 12.2644 235.86 11.9195C235.707 11.5745 235.515 11.3063 235.247 11.0763C234.978 10.8463 234.672 10.693 234.289 10.5781C233.905 10.4631 233.484 10.4247 233.024 10.4247H231.146V7.62693H231.223Z" fill="#09344E"/>
<path d="M341.985 106.969C341.985 106.662 342.024 106.355 342.139 106.087C342.254 105.819 342.407 105.589 342.599 105.359C342.79 105.167 343.059 105.014 343.365 104.861C343.672 104.746 343.978 104.669 344.362 104.669C344.745 104.669 345.051 104.746 345.358 104.861C345.665 104.976 345.895 105.129 346.086 105.359C346.278 105.551 346.431 105.781 346.546 106.087C346.661 106.394 346.699 106.662 346.699 106.969C346.699 107.275 346.661 107.582 346.546 107.85C346.431 108.118 346.278 108.348 346.086 108.54C345.895 108.732 345.626 108.885 345.358 109C345.051 109.115 344.745 109.192 344.362 109.192C343.978 109.192 343.672 109.115 343.365 109C343.059 108.885 342.829 108.732 342.599 108.54C342.407 108.348 342.254 108.118 342.139 107.85C342.024 107.582 341.985 107.275 341.985 106.969Z" fill="#09344E"/>
<path d="M375.253 97.4254L378.434 90.9866H382.496L377.437 99.8783L382.611 108.923H378.587L375.291 102.408L372.033 108.923H367.932L373.106 99.8783L368.086 90.9866H372.11L375.253 97.4254Z" fill="#09344E"/>
<path d="M406.105 99.265L409.631 90.9866H413.426L407.792 102.714V108.923H404.342V102.561L398.785 90.9866H402.579L406.105 99.265Z" fill="#09344E"/>
<path d="M434.428 106.125H443.32V108.923H430.212V106.815L438.912 93.8227H430.251V90.9866H443.128V93.0562L434.428 106.125Z" fill="#09344E"/>
<path d="M49.7475 66.9559C53.7718 74.1996 56.0714 82.5931 56.0714 91.4847H43.4237C43.3854 82.5547 45.6849 74.1996 49.7475 66.9559Z" fill="#09344E"/>
<path d="M6.32384 40.8558C11.038 40.9325 15.5988 41.6607 19.8913 42.9255C17.5151 46.5665 15.3688 50.3608 13.5675 54.3467C10.9613 53.7718 8.24015 53.4652 5.44233 53.4652C3.60267 53.4652 1.76301 53.5802 0 53.8484C1.80133 49.4026 3.90928 45.0334 6.32384 40.8558Z" fill="#09344E"/>
<path d="M24.4521 17.975C29.1663 19.2014 33.6888 20.8494 38.0196 22.8807C34.4553 25.7935 31.1592 28.9746 28.0931 32.3857C23.7623 30.7376 19.2398 29.5495 14.5256 28.8596C17.5534 24.9887 20.8878 21.3477 24.4521 17.975Z" fill="#09344E"/>
<path d="M63.2767 8.3935C58.5626 10.1182 54.0401 12.2644 49.7476 14.7557C45.455 12.2644 40.9325 10.1182 36.2184 8.3935C40.5109 5.40405 45.0334 2.72121 49.7476 0.421631C54.4617 2.72121 58.9842 5.40405 63.2767 8.3935Z" fill="#09344E"/>
<path d="M31.6576 48.1761C35.2986 50.3991 38.633 53.0436 41.5841 56.0714C39.0545 59.789 36.9466 63.7749 35.2602 67.9908C32.5008 64.5031 29.128 61.4754 25.3337 59.1375C27.1351 55.3048 29.243 51.6255 31.6576 48.1761Z" fill="#09344E"/>
<path d="M49.7474 29.8179C53.3118 32.3857 56.6078 35.2219 59.6739 38.3263C56.1096 40.6642 52.7752 43.3087 49.7474 46.2982C46.7197 43.3087 43.3853 40.6642 39.8209 38.3263C42.8487 35.2219 46.1831 32.3474 49.7474 29.8179Z" fill="#09344E"/>
<path d="M84.9693 28.8596C80.2552 29.5495 75.7327 30.7376 71.4019 32.3857C68.3357 28.9746 65.0014 25.7935 61.4753 22.8807C65.7679 20.8494 70.3287 19.1631 75.0428 17.975C78.6072 21.3477 81.9032 24.9887 84.9693 28.8596Z" fill="#09344E"/>
<path d="M67.7992 48.1761C70.2137 51.6255 72.3217 55.3048 74.123 59.1375C70.3287 61.4754 66.956 64.4648 64.1965 67.9908C62.5102 63.7749 60.3639 59.789 57.8727 56.0714C60.8238 53.0053 64.1582 50.3607 67.7992 48.1761Z" fill="#09344E"/>
<path d="M99.4568 53.8868C97.6938 53.6185 95.8541 53.5035 94.0144 53.5035C91.2166 53.5035 88.4955 53.8101 85.8893 54.385C84.0496 50.3991 81.9417 46.6048 79.5654 42.9638C83.858 41.699 88.4188 40.9708 93.1329 40.8942C95.5092 45.0334 97.6554 49.3643 99.4568 53.8868Z" fill="#09344E"/>
<path d="M376.671 61.4371C373.949 69.294 366.974 74.2764 358.811 74.2764C354.096 74.2764 349.804 72.6284 346.47 69.7539L375.099 43.0405L381.576 37.0232C376.479 29.7413 368.162 25.2571 358.772 25.2571C343.365 25.2571 330.871 37.0616 330.871 53.8868C330.871 70.712 343.365 82.5165 358.772 82.5165C371.765 82.5165 382.688 74.1614 385.792 61.3988L376.671 61.4371ZM339.686 53.8868C339.686 41.929 348.233 33.5356 358.772 33.5356C362.95 33.5356 366.821 34.877 369.964 37.2532L341.755 63.545C340.414 60.7472 339.686 57.4895 339.686 53.8868Z" fill="#09344E"/>
<path d="M185.499 62.127C182.165 74.468 171.395 82.5165 158.632 82.5165C143.225 82.5165 130.731 70.942 130.731 53.8868C130.731 36.8316 143.225 25.2571 158.671 25.2571C170.974 25.2571 181.437 32.999 185.154 44.5352H175.764C172.622 37.8281 166.144 33.5356 158.709 33.5356C148.169 33.5356 139.623 41.929 139.623 53.9251C139.623 65.9213 148.169 74.3147 158.709 74.3147C166.643 74.3147 173.426 69.6389 176.339 62.2036H185.499V62.127Z" fill="#09344E"/>
<path d="M443.243 48.0995C443.243 33.5356 434.428 25.2571 419.788 25.2571C412.966 25.2571 406.757 28.5531 402.503 34.3021V26.3685H393.688V81.4051H402.503V53.3119C402.503 39.5528 410.321 33.4972 418.37 33.4972C429.063 33.4972 434.428 37.9814 434.428 50.7824V81.3667H443.243V48.0995Z" fill="#09344E"/>
</svg>
