<svg width="444" height="92" viewBox="0 0 444 92" fill="none" xmlns="http://www.w3.org/2000/svg">
<path d="M264.58 15.9568C262.881 15.9568 261.44 15.3658 260.295 14.1838C259.113 13.0018 258.522 11.5982 258.522 9.89911C258.522 8.2 259.113 6.79639 260.295 5.61441C261.477 4.43242 262.881 3.84143 264.58 3.84143C266.279 3.84143 267.683 4.43242 268.865 5.61441C270.047 6.79639 270.638 8.23694 270.638 9.89911C270.638 11.5613 270.047 13.0388 268.865 14.1838C267.72 15.3658 266.279 15.9568 264.58 15.9568Z" fill="#09344E"/>
<path d="M205.111 26.41H196.32V81.4462H205.111V26.41Z" fill="#09344E"/>
<path d="M260.739 26.41H269.53V81.4462H260.739V26.41Z" fill="#09344E"/>
<path d="M279.983 73.2093L313.004 34.7947V34.6839H281.091V26.41H324.566V34.6839L291.544 73.0985V73.2093H325.674V81.4832H279.983V73.2093Z" fill="#09344E"/>
<path d="M231.558 73.2093V34.647H249.177V26.41H215.602V34.647H222.73V81.4462H249.731V73.2093H231.558Z" fill="#09344E"/>
<path d="M144.166 11.0072L145.458 0.221629H148.635L146.16 18.173H143.021L141.321 7.5721L139.696 18.1361H136.557L134.082 0.184692H137.258L138.551 10.8964L140.066 0.184692H142.54L144.166 11.0072Z" fill="#09344E"/>
<path d="M177.187 10.3054H169.837V15.3657H178.443V18.173H166.365V0.221558H178.406V3.02877H169.837V7.53509H177.187V10.3054Z" fill="#09344E"/>
<path d="M196.912 18.136V0.221558H202.932C203.893 0.221558 204.816 0.332369 205.592 0.517054C206.404 0.701739 207.069 0.997236 207.66 1.40354C208.214 1.80985 208.658 2.32697 208.99 2.91796C209.286 3.54589 209.47 4.2477 209.47 5.09725C209.47 5.9468 209.249 6.68554 208.805 7.35041C208.362 8.01527 207.734 8.53239 206.848 8.86483C207.365 9.01257 207.808 9.19726 208.177 9.45582C208.547 9.71438 208.879 10.0468 209.138 10.3792C209.396 10.7486 209.581 11.118 209.692 11.5612C209.803 11.9675 209.877 12.4108 209.877 12.891C209.877 13.7405 209.729 14.5162 209.433 15.1811C209.138 15.8459 208.731 16.4 208.177 16.8432C207.623 17.2865 206.958 17.6189 206.183 17.8405C205.407 18.0621 204.521 18.173 203.523 18.173H196.912V18.136ZM200.384 7.71978H202.969C203.93 7.71978 204.668 7.49816 205.186 7.12879C205.703 6.75941 205.961 6.16842 205.961 5.39274C205.961 4.54319 205.703 3.9522 205.186 3.58283C204.668 3.21346 203.93 3.02877 202.932 3.02877H200.384V7.71978ZM200.384 10.2315V15.3288H203.449C204.41 15.3288 205.112 15.0702 205.629 14.627C206.109 14.1838 206.367 13.5558 206.367 12.8171C206.367 12.0045 206.146 11.3396 205.703 10.8964C205.259 10.4531 204.558 10.1946 203.597 10.1946H200.384V10.2315Z" fill="#09344E"/>
<path d="M231.3 7.68291H233.147C234.07 7.68291 234.772 7.46128 235.215 6.9811C235.658 6.50092 235.88 5.87299 235.88 5.13425C235.88 4.76488 235.843 4.46938 235.732 4.17389C235.621 3.87839 235.474 3.61983 235.252 3.43515C235.03 3.21352 234.772 3.06577 234.476 2.95496C234.144 2.84415 233.775 2.77028 233.368 2.77028C233.036 2.77028 232.703 2.80722 232.408 2.91803C232.112 3.02884 231.854 3.17659 231.632 3.36127C231.411 3.54596 231.226 3.76758 231.078 4.02614C230.93 4.2847 230.893 4.58019 230.893 4.91263H227.458C227.458 4.17389 227.606 3.50902 227.902 2.91803C228.197 2.32703 228.603 1.80992 229.157 1.36667C229.675 0.923426 230.302 0.590993 231.004 0.36937C231.706 0.147748 232.482 0 233.294 0C234.181 0 234.994 0.110811 235.732 0.332433C236.471 0.554056 237.099 0.886489 237.616 1.2928C238.133 1.73604 238.539 2.25316 238.835 2.88109C239.13 3.50902 239.278 4.24776 239.278 5.09731C239.278 5.46668 239.204 5.87299 239.094 6.24236C238.983 6.61173 238.798 6.9811 238.576 7.31353C238.355 7.64597 238.096 7.9784 237.764 8.23696C237.431 8.53246 237.062 8.75408 236.619 8.9757C237.136 9.16039 237.542 9.38201 237.912 9.67751C238.281 9.973 238.576 10.2685 238.835 10.6379C239.057 11.0072 239.241 11.3766 239.352 11.8199C239.463 12.2631 239.537 12.7063 239.537 13.1865C239.537 14.0361 239.389 14.7748 239.057 15.4397C238.724 16.1046 238.281 16.6586 237.727 17.1019C237.173 17.5451 236.508 17.8775 235.732 18.1361C234.957 18.3946 234.144 18.5055 233.257 18.5055C232.482 18.5055 231.743 18.3946 231.004 18.173C230.266 17.9514 229.638 17.6559 229.047 17.2127C228.493 16.8064 228.012 16.2523 227.68 15.6244C227.348 14.9964 227.163 14.2208 227.163 13.3712H230.598C230.598 13.7036 230.672 14.0361 230.783 14.3316C230.93 14.6271 231.115 14.8856 231.337 15.0703C231.595 15.2919 231.854 15.4397 232.186 15.5505C232.519 15.6613 232.888 15.7352 233.257 15.7352C234.144 15.7352 234.809 15.5136 235.289 15.0334C235.769 14.5532 236.028 13.9622 236.028 13.1496C236.028 12.6694 235.954 12.2631 235.806 11.8937C235.658 11.5613 235.474 11.2658 235.178 11.0442C234.92 10.8226 234.587 10.6748 234.218 10.564C233.848 10.4532 233.405 10.4162 232.962 10.4162H231.115V7.68291H231.3Z" fill="#09344E"/>
<path d="M49.7913 67.0038C53.8175 74.2804 56.1076 82.6282 56.1076 91.53H43.4751C43.4751 82.6282 45.7652 74.2434 49.7913 67.0038Z" fill="#09344E"/>
<path d="M6.39011 40.9263C11.1181 41.0001 15.6613 41.7389 19.946 42.9947C17.5451 46.6146 15.4397 50.456 13.5928 54.4083C10.9703 53.8542 8.2739 53.5218 5.46668 53.5218C3.61983 53.5218 1.80992 53.6696 0 53.9281C1.88379 49.4218 3.9892 45.1002 6.39011 40.9263Z" fill="#09344E"/>
<path d="M24.5262 18.0253C29.2541 19.2442 33.7604 20.9064 38.0821 22.9379C34.5361 25.8559 31.2118 29.0325 28.146 32.4307C23.8244 30.7685 19.2811 29.5866 14.5901 28.9217C17.6189 25.0433 20.9433 21.3865 24.5262 18.0253Z" fill="#09344E"/>
<path d="M63.3468 8.45855C58.6189 10.1946 54.1126 12.3369 49.7909 14.8117C45.5062 12.3369 40.963 10.1946 36.272 8.45855C40.5567 5.46665 45.063 2.80719 49.8279 0.51709C54.5189 2.80719 59.0621 5.46665 63.3468 8.45855Z" fill="#09344E"/>
<path d="M31.7291 48.2028C35.3489 50.419 38.7102 53.0415 41.6651 56.0704C39.1534 59.801 37.0111 63.7902 35.3489 68.001C32.5786 64.492 29.2174 61.5001 25.4128 59.1361C27.1858 55.3316 29.3282 51.6748 31.7291 48.2028Z" fill="#09344E"/>
<path d="M49.7913 29.8452C53.3372 32.3939 56.6616 35.238 59.7274 38.3777C56.1445 40.7047 52.8201 43.3642 49.7913 46.3191C46.7625 43.3642 43.4381 40.6678 39.8552 38.3777C42.921 35.275 46.2453 32.3939 49.7913 29.8452Z" fill="#09344E"/>
<path d="M85.0293 28.9217C80.3014 29.5866 75.7951 30.8055 71.4734 32.4307C68.4076 29.0325 65.0833 25.8559 61.5374 22.9379C65.859 20.8694 70.3653 19.2442 75.0933 18.0253C78.6761 21.3865 82.0005 25.0433 85.0293 28.9217Z" fill="#09344E"/>
<path d="M67.8901 48.2028C70.291 51.6748 72.4334 55.3316 74.2433 59.1731C70.4388 61.537 67.0775 64.5289 64.3072 68.038C62.6081 63.8271 60.5027 59.8379 57.991 56.1073C60.909 53.0784 64.2333 50.419 67.8901 48.2028Z" fill="#09344E"/>
<path d="M99.5085 53.9651C97.7355 53.7065 95.8887 53.5588 94.0418 53.5588C91.2715 53.5588 88.5382 53.8543 85.9157 54.4453C84.0688 50.4561 81.9634 46.6516 79.5625 43.0317C83.8841 41.7389 88.4274 41.0371 93.1184 40.9633C95.5932 45.1002 97.7355 49.4588 99.5085 53.9651Z" fill="#09344E"/>
<path d="M376.721 61.4632C373.988 69.2939 367.006 74.2804 358.843 74.2804C354.152 74.2804 349.831 72.6552 346.506 69.7741L375.133 43.0686L381.597 37.0479C376.536 29.8082 368.225 25.3019 358.843 25.3019C343.441 25.3019 330.919 37.1217 330.919 53.9281C330.919 70.7344 343.404 82.5543 358.843 82.5543C371.845 82.5543 382.779 74.2065 385.881 61.4632H376.721ZM339.747 53.9281C339.747 41.9605 348.316 33.5758 358.843 33.5758C363.017 33.5758 366.859 34.9424 370.035 37.2695L341.815 63.5687C340.486 60.7614 339.747 57.5479 339.747 53.9281Z" fill="#09344E"/>
<path d="M185.572 62.2019C182.248 74.5758 171.499 82.5912 158.719 82.5912C143.316 82.5912 130.794 70.9929 130.794 53.965C130.794 36.937 143.279 25.3387 158.719 25.3387C171.019 25.3387 181.472 33.0955 185.202 44.6199H175.82C172.681 37.9343 166.217 33.6126 158.756 33.6126C148.192 33.6126 139.659 42.0343 139.659 54.0019C139.659 65.9695 148.192 74.3911 158.756 74.3911C166.66 74.3911 173.456 69.7001 176.375 62.2758L185.572 62.2019Z" fill="#09344E"/>
<path d="M443.318 48.129C443.318 33.5758 434.491 25.3019 419.863 25.3019C413.03 25.3019 406.862 28.5893 402.577 34.3145V26.41H393.786V81.4831H402.577V53.411C402.577 39.6704 410.408 33.6127 418.423 33.6127C429.135 33.6127 434.49 38.0821 434.49 50.8993V81.4831H443.282L443.318 48.129Z" fill="#09344E"/>
</svg>
