<svg width="108" height="100" viewBox="0 0 108 100" fill="none" xmlns="http://www.w3.org/2000/svg">
<g filter="url(#filter0_d_1_31)">
<path d="M53.9999 66.8762C58.0517 74.1772 60.3608 82.5832 60.3608 91.528H47.6409C47.6409 82.5832 49.9481 74.1772 54.0017 66.8762H53.9999Z" fill="#09344E"/>
<path d="M10.37 40.6575C15.1036 40.7363 19.6814 41.4638 24.0154 42.7539C21.6184 46.4044 19.4853 50.24 17.6399 54.2405C15.0101 53.6706 12.2796 53.3682 9.4794 53.3682C7.61934 53.3682 5.78859 53.5002 4 53.7604C5.81425 49.2211 7.94554 44.8467 10.37 40.6593V40.6575Z" fill="#09344E"/>
<path d="M28.5747 17.6166C33.3119 18.8352 37.8677 20.4992 42.1999 22.559C38.6264 25.4802 35.2819 28.6743 32.2069 32.1086H32.205C27.8673 30.4464 23.3042 29.2498 18.5688 28.5717C21.6347 24.6793 24.9792 21.0178 28.5747 17.6147V17.6166Z" fill="#09344E"/>
<path d="M67.6161 8.00103C62.8734 9.75297 58.3231 11.9007 54.0001 14.4022C49.677 11.9007 45.1267 9.7548 40.384 8.00103C44.6906 4.99377 49.2427 2.31821 54.0001 0C58.7574 2.31821 63.3077 4.99377 67.6161 8.00103Z" fill="#09344E"/>
<path d="M35.83 47.9934C39.486 50.2127 42.8396 52.8772 45.8157 55.9156C43.2904 59.6504 41.1481 63.6674 39.4512 67.9098C36.6748 64.3858 33.29 61.3694 29.4563 59.0109C31.2779 55.1496 33.4128 51.4661 35.8318 47.9934H35.83Z" fill="#09344E"/>
<path d="M54 29.5338C57.5735 32.1013 60.9143 34.9729 63.9875 38.1103C60.392 40.4413 57.0476 43.1224 54 46.1095C50.9524 43.1224 47.6061 40.4413 44.0125 38.1103C47.0857 34.9729 50.4283 32.1013 54 29.5338Z" fill="#09344E"/>
<path d="M89.4292 28.5735C84.6956 29.2498 80.1288 30.4483 75.7911 32.1104C72.7161 28.6762 69.3735 25.4802 65.7981 22.5609C70.1303 20.5011 74.6861 18.8371 79.4233 17.6184C83.0188 21.0215 86.3633 24.683 89.4292 28.5754V28.5735Z" fill="#09344E"/>
<path d="M72.1682 47.9934C74.5872 51.4661 76.7221 55.1496 78.5437 59.0109C74.71 61.3694 71.3234 64.3858 68.5489 67.9098C66.8519 63.6656 64.7096 59.6486 62.1843 55.9156C65.1604 52.8772 68.514 50.2127 72.17 47.9934H72.1682Z" fill="#09344E"/>
<path d="M104 53.7604C102.211 53.5002 100.381 53.3682 98.5206 53.3682C95.7204 53.3682 92.9899 53.6706 90.3602 54.2405C88.5166 50.2418 86.3816 46.4044 83.9846 42.7539C88.3205 41.4638 92.8964 40.7363 97.63 40.6575C100.054 44.8449 102.186 49.2211 104 53.7586V53.7604Z" fill="#09344E"/>
</g>
<defs>
<filter id="filter0_d_1_31" x="0" y="0" width="108" height="99.5281" filterUnits="userSpaceOnUse" color-interpolation-filters="sRGB">
<feFlood flood-opacity="0" result="BackgroundImageFix"/>
<feColorMatrix in="SourceAlpha" type="matrix" values="0 0 0 0 0 0 0 0 0 0 0 0 0 0 0 0 0 0 127 0" result="hardAlpha"/>
<feOffset dy="4"/>
<feGaussianBlur stdDeviation="2"/>
<feComposite in2="hardAlpha" operator="out"/>
<feColorMatrix type="matrix" values="0 0 0 0 0 0 0 0 0 0 0 0 0 0 0 0 0 0 0.25 0"/>
<feBlend mode="normal" in2="BackgroundImageFix" result="effect1_dropShadow_1_31"/>
<feBlend mode="normal" in="SourceGraphic" in2="effect1_dropShadow_1_31" result="shape"/>
</filter>
</defs>
</svg>
