<?xml version="1.0" standalone="no"?>
<!DOCTYPE svg PUBLIC "-//W3C//DTD SVG 20010904//EN"
 "http://www.w3.org/TR/2001/REC-SVG-20010904/DTD/svg10.dtd">
<svg version="1.0" xmlns="http://www.w3.org/2000/svg"
 width="800.000000pt" height="800.000000pt" viewBox="0 0 800.000000 800.000000"
 preserveAspectRatio="xMidYMid meet">
<metadata>
Created by potrace 1.14, written by Peter Selinger 2001-2017
</metadata>
<g transform="translate(0.000000,800.000000) scale(0.100000,-0.100000)"
fill="#000000" stroke="none">
<path d="M3855 7607 c-171 -89 -277 -147 -373 -204 -41 -24 -78 -43 -83 -43
-5 0 -9 -4 -9 -8 0 -4 -21 -19 -47 -33 -80 -42 -83 -44 -83 -51 0 -5 -5 -8
-10 -8 -6 0 -44 -22 -85 -50 -41 -27 -78 -50 -84 -50 -5 0 -11 -3 -13 -8 -1
-4 -36 -29 -75 -56 -40 -27 -73 -53 -73 -57 0 -4 12 -10 28 -14 15 -3 41 -13
57 -20 17 -8 66 -28 110 -45 44 -17 94 -37 110 -45 30 -14 125 -57 135 -60 39
-14 397 -190 472 -233 21 -12 67 -38 103 -57 l66 -36 52 29 c313 176 750 381
990 463 20 7 37 16 37 20 0 3 -19 19 -42 34 -23 15 -47 32 -52 37 -6 5 -42 29
-81 53 -38 25 -77 49 -85 55 -46 31 -112 70 -120 70 -4 0 -10 4 -12 8 -4 9
-143 92 -338 201 -61 34 -347 181 -352 181 -2 0 -66 -33 -143 -73z"/>
<path d="M1782 6087 c-182 -184 -219 -224 -304 -319 -80 -91 -89 -102 -127
-148 -20 -25 -43 -52 -51 -60 -9 -8 -31 -35 -50 -60 -19 -25 -45 -56 -57 -70
-13 -14 -23 -27 -23 -31 0 -3 39 -12 88 -19 48 -8 92 -15 97 -16 11 -3 103
-21 145 -29 23 -5 213 -50 253 -60 9 -3 25 -7 35 -9 9 -2 29 -9 45 -15 15 -6
27 -9 27 -7 0 2 90 -26 200 -63 l200 -67 74 80 c87 96 263 273 367 371 103 97
307 274 343 298 15 10 -2 20 -159 90 -216 96 -678 263 -696 251 -4 -2 -10 0
-13 5 -5 7 -71 28 -116 36 -3 1 -14 4 -25 8 -69 23 -63 27 -253 -166z"/>
<path d="M6005 6260 c-4 -6 -10 -8 -15 -5 -5 3 -25 -1 -45 -9 -19 -8 -35 -13
-35 -11 0 3 -11 0 -25 -5 -14 -5 -36 -12 -48 -14 -21 -4 -346 -110 -377 -123
-8 -3 -17 -7 -20 -7 -24 -6 -227 -90 -234 -97 -6 -5 -16 -9 -22 -9 -11 0 -72
-27 -201 -87 -18 -8 -33 -18 -33 -22 0 -3 20 -20 43 -38 23 -18 59 -47 79 -65
20 -18 62 -55 94 -83 142 -124 364 -342 500 -490 l76 -83 116 41 c109 37 315
103 355 113 9 2 26 6 37 9 11 3 28 7 38 9 9 2 44 11 77 19 33 9 71 18 85 21
14 2 69 14 122 25 53 11 116 23 140 26 24 3 52 8 63 10 11 2 28 4 38 4 24 1
21 11 -13 48 -17 18 -30 36 -30 42 0 5 -4 11 -8 13 -5 2 -46 48 -92 103 -46
55 -86 102 -89 105 -3 3 -23 25 -45 50 -146 169 -492 520 -513 520 -6 0 -15
-5 -18 -10z"/>
<path d="M3980 5303 c-8 -3 -17 -9 -20 -13 -3 -3 -41 -33 -85 -65 -44 -33 -82
-62 -85 -65 -3 -3 -36 -31 -75 -62 -38 -30 -80 -64 -91 -74 -12 -11 -48 -41
-79 -69 -123 -106 -335 -310 -335 -322 0 -4 37 -33 82 -63 77 -52 260 -186
303 -222 11 -9 54 -45 95 -79 87 -71 180 -154 251 -221 28 -27 55 -48 60 -48
5 0 37 26 70 58 125 117 171 158 234 208 28 21 57 46 65 54 8 9 31 27 50 40
19 13 41 30 47 36 19 18 275 199 301 213 12 6 22 17 22 23 0 11 -121 131 -238
236 -35 32 -78 71 -96 87 -17 17 -52 46 -76 67 -25 20 -55 44 -67 55 -24 20
-50 41 -143 113 -36 27 -69 53 -75 58 -80 63 -86 66 -115 55z"/>
<path d="M506 4418 c-9 -5 -16 -13 -16 -19 0 -5 -25 -52 -55 -104 -91 -157
-322 -630 -317 -647 1 -5 -2 -8 -8 -8 -5 0 -10 -8 -10 -18 0 -10 -4 -22 -8
-27 -8 -9 -24 -47 -73 -168 l-19 -49 37 6 c103 16 208 21 418 20 212 -1 291
-5 385 -20 19 -3 51 -7 70 -10 19 -2 46 -6 60 -9 14 -3 39 -8 55 -11 17 -2 38
-7 47 -10 14 -4 30 21 83 128 35 73 92 183 125 243 32 61 62 117 66 125 12 25
185 312 214 355 14 22 30 45 34 52 6 11 -58 37 -119 49 -11 2 -40 8 -65 14
-25 7 -53 13 -63 15 -10 2 -26 6 -35 9 -9 3 -33 8 -52 11 -19 3 -42 8 -50 10
-16 4 -31 7 -145 25 -102 16 -149 22 -305 35 -138 12 -236 13 -254 3z"/>
<path d="M7367 4424 c-1 -1 -51 -5 -112 -8 -60 -4 -123 -9 -140 -11 -16 -3
-48 -7 -70 -9 -37 -5 -75 -10 -150 -22 -72 -12 -91 -15 -105 -19 -8 -2 -31 -7
-50 -10 -55 -9 -310 -74 -326 -83 -13 -7 -12 -12 4 -33 17 -21 106 -165 143
-229 8 -14 19 -28 24 -32 6 -4 6 -8 1 -8 -5 0 -2 -8 6 -17 19 -23 66 -106 64
-114 0 -3 6 -14 14 -24 18 -22 66 -112 165 -313 60 -123 79 -152 93 -148 16 4
49 11 97 20 11 2 40 7 65 10 25 3 54 8 65 10 98 19 550 28 685 13 131 -14 161
-16 157 -9 -3 4 -18 41 -35 82 -28 72 -53 130 -92 215 -11 22 -29 63 -41 90
-52 119 -209 425 -296 576 l-43 77 -61 -2 c-33 0 -61 -2 -62 -2z"/>
<path d="M2480 3742 c-70 -105 -169 -263 -205 -327 -12 -22 -37 -67 -56 -100
-47 -85 -117 -216 -129 -243 -5 -12 -19 -43 -31 -68 -17 -38 -18 -48 -7 -55 7
-5 37 -23 66 -41 28 -18 52 -36 52 -40 0 -4 5 -8 10 -8 12 0 202 -145 269
-204 114 -103 288 -284 368 -385 l19 -23 19 43 c63 148 94 217 145 319 60 121
119 231 155 290 12 19 24 42 28 50 3 8 35 60 71 115 103 157 103 133 4 228
-47 45 -97 91 -110 102 -12 11 -55 48 -94 81 -115 99 -364 279 -464 337 l-45
26 -65 -97z"/>
<path d="M5369 3787 c-72 -45 -191 -127 -224 -154 -5 -5 -28 -22 -50 -38 -50
-37 -148 -116 -155 -124 -3 -3 -38 -35 -78 -70 -40 -35 -103 -92 -140 -128
l-66 -63 19 -33 c10 -17 40 -65 67 -105 26 -41 48 -75 48 -78 0 -2 15 -27 34
-56 72 -114 208 -383 292 -576 l48 -114 19 24 c83 103 274 302 377 392 67 58
238 188 292 222 27 16 48 32 48 35 0 4 14 12 30 19 24 10 29 17 24 34 -8 26
-168 336 -200 388 -13 20 -24 40 -24 43 0 3 -22 41 -50 85 -27 44 -50 82 -50
85 0 3 -5 11 -10 18 -6 7 -44 64 -86 127 -42 63 -77 116 -78 117 -1 2 -40 -21
-87 -50z"/>
<path d="M3911 2157 c-44 -89 -81 -165 -81 -169 0 -4 -11 -31 -23 -60 -13 -29
-34 -80 -46 -113 -13 -33 -27 -71 -33 -85 -11 -29 -78 -238 -83 -260 -1 -8 -9
-35 -16 -60 -7 -25 -13 -49 -15 -55 -17 -72 -27 -114 -30 -135 -3 -14 -10 -43
-15 -65 -6 -22 -10 -47 -11 -55 0 -8 -4 -33 -8 -55 -9 -41 -15 -85 -25 -162
-3 -24 -7 -60 -10 -80 -8 -70 -15 -179 -20 -312 -4 -100 -2 -131 8 -132 6 0
236 -1 509 -2 l498 -2 -4 130 c-5 147 -11 225 -32 400 -2 22 -6 57 -9 77 -2
21 -6 41 -8 45 -3 5 -8 32 -11 61 -3 29 -7 56 -10 60 -2 4 -7 25 -11 47 -12
69 -14 78 -36 165 -11 47 -22 90 -23 95 -1 6 -4 15 -7 20 -4 6 -9 24 -13 40
-9 40 -55 185 -66 210 -5 11 -12 31 -15 45 -4 14 -13 39 -20 55 -8 17 -30 71
-50 120 -45 114 -184 395 -195 395 -4 0 -44 -73 -89 -163z"/>
</g>
</svg>
